<svg width="352" height="336" viewBox="0 0 352 336" fill="none" xmlns="http://www.w3.org/2000/svg">
<g filter="url(#filter0_d_2893_19941)">
<mask id="path-1-inside-1_2893_19941" fill="white">
<path d="M3 0H349V325C349 327.761 346.761 330 344 330H7.99999C5.23857 330 3 327.761 3 325V0Z"/>
</mask>
<path d="M3 0H349V325C349 327.761 346.761 330 344 330H7.99999C5.23857 330 3 327.761 3 325V0Z" fill="#96FFC1" fill-opacity="0.1"/>
<path d="M2 -1H350L348 1H4L2 -1ZM350 339C350 342.314 347.314 345 344 345H8C4.68629 345 2 342.314 2 339L4 315C4 315 5.79086 315 8 315H344C346.209 315 348 315 348 315L350 339ZM8 345C4.68629 345 2 342.314 2 339V-1L4 1V315C4 315 5.79086 315 8 315V345ZM350 -1V339C350 342.314 347.314 345 344 345V315C346.209 315 348 315 348 315V1L350 -1Z" fill="#96FFC1" mask="url(#path-1-inside-1_2893_19941)"/>
<path d="M11.4012 315L3.33985 302.937L11.4024 290.769L19.4637 302.937L11.4012 315ZM11.4012 305.375C8.59146 309.558 11.3929 313.782 11.4012 313.819C11.4095 313.782 14.2085 309.553 11.4012 305.375ZM17.9224 304.008C16.9589 304.352 15.522 304.414 13.5453 303.38C12.8784 303.769 12.2994 304.254 11.8165 304.825C12.9294 306.442 13.5132 308.987 13.0849 311.285L17.9212 304.007L17.9224 304.008ZM11.4012 304.266L11.4071 304.272C11.8627 303.734 12.2377 303.435 12.7965 302.969C12.214 302.489 11.8497 302.2 11.4071 301.68L11.4012 301.686L11.3952 301.68C10.9384 302.217 10.5576 302.515 10.007 302.969C10.6228 303.484 10.9633 303.76 11.3952 304.272L11.4012 304.266ZM8.42179 302.962C6.84013 302.298 5.17542 302.286 4.28077 302.937C5.17661 303.596 6.8425 303.601 8.42179 302.962ZM14.3818 302.962C15.961 303.603 17.6258 303.598 18.5228 302.937C17.6281 302.286 15.9634 302.298 14.3818 302.962ZM17.9248 301.86L12.984 294.358C13.48 296.227 13.5227 298.668 11.8188 301.129C12.2994 301.692 12.8784 302.17 13.5429 302.553C15.5339 301.486 16.9672 301.526 17.9248 301.859L17.9248 301.86ZM11.4012 292.12C9.62137 294.764 9.94174 298.423 11.4012 300.581C12.8262 298.474 13.2154 294.813 11.4012 292.12ZM4.86336 301.881C5.82564 301.541 7.26966 301.486 9.25948 302.553C9.92513 302.17 10.503 301.692 10.9835 301.129C9.2844 298.673 9.30457 296.261 9.78749 294.407L4.86336 301.881ZM9.72579 311.3C9.2927 309.004 9.86105 306.457 10.9847 304.825C10.503 304.254 9.92394 303.769 9.25711 303.38C7.28152 304.414 5.85293 304.364 4.89421 304.028L9.72579 311.3Z" fill="#96FFC1"/>
<path d="M3 290.769L3 315L3.90295 315L3.90296 290.769L3 290.769Z" fill="#96FFC1"/>
<path d="M18.9004 290.769L18.9004 315L19.8033 315L19.8033 290.769L18.9004 290.769Z" fill="#96FFC1"/>
<path d="M3.41406 315L9.88425 315L3.41406 305.154L3.41406 315Z" fill="#96FFC1"/>
<path d="M3.41406 290.766L9.88425 290.766L3.41406 300.612L3.41406 290.766Z" fill="#96FFC1"/>
<path d="M19.0288 290.766L12.5586 290.766L19.0288 300.612L19.0288 290.766Z" fill="#96FFC1"/>
<path d="M19.0288 315L12.5586 315L19.0288 305.154L19.0288 315Z" fill="#96FFC1"/>
<path d="M11.4012 290.772L3.33985 278.71L11.4024 266.542L19.4637 278.71L11.4024 290.772L11.4012 290.772ZM11.4012 281.148C8.59146 285.33 11.3929 289.555 11.4012 289.591C11.4095 289.555 14.2085 285.325 11.4012 281.148ZM17.9224 279.781C16.9589 280.124 15.522 280.187 13.5453 279.152C12.8784 279.541 12.2994 280.026 11.8165 280.597C12.9294 282.214 13.5132 284.759 13.0849 287.057L17.9212 279.779L17.9224 279.781ZM11.4012 280.039L11.4071 280.045C11.8627 279.506 12.2377 279.207 12.7965 278.742C12.214 278.261 11.8497 277.973 11.4071 277.452L11.4012 277.459L11.3952 277.452C10.9384 277.99 10.5576 278.287 10.007 278.742C10.6228 279.256 10.9633 279.532 11.3952 280.045L11.4012 280.039ZM8.42179 278.734C6.84013 278.07 5.17542 278.058 4.28077 278.71C5.17661 279.369 6.8425 279.373 8.42179 278.734ZM14.3818 278.734C15.961 279.375 17.6258 279.37 18.5228 278.71C17.6281 278.058 15.9634 278.07 14.3818 278.734ZM17.9248 277.633L12.984 270.13C13.48 271.999 13.5227 274.441 11.8188 276.902C12.2994 277.465 12.8784 277.942 13.5429 278.325C15.5339 277.259 16.9672 277.298 17.9248 277.631L17.9248 277.633ZM11.4012 267.892C9.62137 270.536 9.94174 274.195 11.4012 276.354C12.8262 274.247 13.2154 270.585 11.4012 267.892ZM4.86336 277.654C5.82564 277.314 7.26966 277.259 9.25948 278.325C9.92513 277.942 10.503 277.465 10.9835 276.902C9.2844 274.445 9.30457 272.033 9.78749 270.179L4.86455 277.654L4.86336 277.654ZM9.72579 287.072C9.2927 284.776 9.86105 282.23 10.9847 280.597C10.503 280.026 9.92394 279.541 9.25711 279.152C7.28152 280.187 5.85293 280.136 4.89421 279.801L9.72698 287.072L9.72579 287.072Z" fill="#96FFC1"/>
<path d="M3 266.542L3 290.773L3.90295 290.773L3.90296 266.542L3 266.542Z" fill="#96FFC1"/>
<path d="M18.9004 266.542L18.9004 290.773L19.8033 290.773L19.8033 266.542L18.9004 266.542Z" fill="#96FFC1"/>
<path d="M3.41406 290.772L9.88425 290.772L3.41406 280.927L3.41406 290.772Z" fill="#96FFC1"/>
<path d="M3.41406 266.538L9.88425 266.538L3.41406 276.384L3.41406 266.538Z" fill="#96FFC1"/>
<path d="M19.0288 266.538L12.5586 266.538L19.0288 276.384L19.0288 266.538Z" fill="#96FFC1"/>
<path d="M19.0288 290.772L12.5586 290.772L19.0288 280.927L19.0288 290.772Z" fill="#96FFC1"/>
<path d="M11.4012 266.545L3.33985 254.482L11.4024 242.314L19.4637 254.482L11.4024 266.545L11.4012 266.545ZM11.4012 256.92C8.59146 261.102 11.3929 265.327 11.4012 265.364C11.4095 265.327 14.2085 261.098 11.4012 256.92ZM17.9224 255.553C16.9589 255.896 15.522 255.959 13.5453 254.925C12.8784 255.314 12.2994 255.799 11.8165 256.369C12.9294 257.988 13.5132 260.532 13.0849 262.83L17.9212 255.552L17.9224 255.553ZM11.4012 255.811L11.4071 255.817C11.8627 255.279 12.2377 254.98 12.7965 254.514C12.214 254.034 11.8497 253.745 11.4071 253.225L11.4012 253.231L11.3952 253.225C10.9384 253.762 10.5576 254.059 10.007 254.514C10.6228 255.028 10.9633 255.305 11.3952 255.817L11.4012 255.811ZM8.42179 254.508C6.84013 253.844 5.17542 253.832 4.28077 254.484C5.17661 255.143 6.8425 255.147 8.42179 254.508ZM14.3818 254.508C15.961 255.149 17.6258 255.144 18.5228 254.484C17.6281 253.832 15.9634 253.844 14.3818 254.508ZM17.9248 253.405L12.984 245.903C13.48 247.772 13.5227 250.213 11.8188 252.674C12.2994 253.237 12.8784 253.715 13.5429 254.098C15.5339 253.031 16.9672 253.071 17.9248 253.403L17.9248 253.405ZM11.4012 243.664C9.62137 246.309 9.94174 249.967 11.4012 252.126C12.8262 250.019 13.2154 246.357 11.4012 243.664ZM4.86336 253.426C5.82564 253.086 7.26966 253.031 9.25948 254.098C9.92513 253.715 10.503 253.237 10.9835 252.674C9.2844 250.218 9.30457 247.805 9.78749 245.952L4.86455 253.426L4.86336 253.426ZM9.72579 262.845C9.2927 260.549 9.86105 258.002 10.9847 256.369C10.503 255.799 9.92394 255.314 9.25711 254.925C7.28152 255.959 5.85293 255.909 4.89421 255.573L9.72698 262.845L9.72579 262.845Z" fill="#96FFC1"/>
<path d="M3 242.315L3 266.546L3.90295 266.546L3.90296 242.315L3 242.315Z" fill="#96FFC1"/>
<path d="M18.9004 242.315L18.9004 266.546L19.8033 266.546L19.8033 242.315L18.9004 242.315Z" fill="#96FFC1"/>
<path d="M3.41406 266.545L9.88425 266.545L3.41406 256.699L3.41406 266.545Z" fill="#96FFC1"/>
<path d="M3.41406 242.309L9.88425 242.309L3.41406 252.157L3.41406 242.309Z" fill="#96FFC1"/>
<path d="M19.0288 242.309L12.5586 242.309L19.0288 252.157L19.0288 242.309Z" fill="#96FFC1"/>
<path d="M19.0288 266.545L12.5586 266.545L19.0288 256.699L19.0288 266.545Z" fill="#96FFC1"/>
<path d="M11.4012 242.315L3.33985 230.253L11.4024 218.085L19.4637 230.253L11.4024 242.315L11.4012 242.315ZM11.4012 232.691C8.59146 236.873 11.3929 241.098 11.4012 241.134C11.4095 241.098 14.2085 236.868 11.4012 232.691ZM17.9224 231.324C16.9589 231.667 15.522 231.73 13.5453 230.695C12.8784 231.084 12.2994 231.569 11.8165 232.14C12.9294 233.757 13.5132 236.301 13.0849 238.6L17.9212 231.322L17.9224 231.324ZM11.4012 231.582L11.4071 231.588C11.8627 231.049 12.2377 230.75 12.7965 230.285C12.214 229.804 11.8497 229.516 11.4071 228.995L11.4012 229.001L11.3952 228.995C10.9384 229.532 10.5576 229.83 10.007 230.285C10.6228 230.799 10.9633 231.075 11.3952 231.588L11.4012 231.582ZM8.42179 230.279C6.84013 229.615 5.17542 229.603 4.28077 230.254C5.17661 230.913 6.8425 230.918 8.42179 230.279ZM14.3818 230.279C15.961 230.919 17.6258 230.915 18.5228 230.254C17.6281 229.603 15.9634 229.615 14.3818 230.279ZM17.9248 229.175L12.984 221.673C13.48 223.542 13.5227 225.983 11.8188 228.445C12.2994 229.008 12.8784 229.485 13.5429 229.868C15.5339 228.802 16.9672 228.841 17.9248 229.174L17.9248 229.175ZM11.4012 219.435C9.62137 222.079 9.94174 225.738 11.4012 227.897C12.8262 225.79 13.2154 222.128 11.4012 219.435ZM4.86336 229.197C5.82564 228.857 7.26966 228.802 9.25948 229.87C9.92513 229.487 10.503 229.009 10.9835 228.446C9.2844 225.99 9.30457 223.577 9.78749 221.724L4.86455 229.198L4.86336 229.197ZM9.72579 238.615C9.2927 236.319 9.86105 233.773 10.9847 232.14C10.503 231.569 9.92394 231.084 9.25711 230.695C7.28152 231.73 5.85293 231.679 4.89421 231.343L9.72698 238.615L9.72579 238.615Z" fill="#96FFC1"/>
<path d="M3 218.084L3 242.315L3.90295 242.315L3.90296 218.084L3 218.084Z" fill="#96FFC1"/>
<path d="M18.9004 218.084L18.9004 242.315L19.8033 242.315L19.8033 218.084L18.9004 218.084Z" fill="#96FFC1"/>
<path d="M3.41406 242.315L9.88425 242.315L3.41406 232.47L3.41406 242.315Z" fill="#96FFC1"/>
<path d="M3.41406 218.082L9.88425 218.082L3.41406 227.929L3.41406 218.082Z" fill="#96FFC1"/>
<path d="M19.0288 218.082L12.5586 218.082L19.0288 227.929L19.0288 218.082Z" fill="#96FFC1"/>
<path d="M19.0288 242.315L12.5586 242.315L19.0288 232.47L19.0288 242.315Z" fill="#96FFC1"/>
<path d="M11.4012 218.08L3.33985 206.017L11.4024 193.849L19.4637 206.017L11.4024 218.08L11.4012 218.08ZM11.4012 208.457C8.59146 212.639 11.3929 216.864 11.4012 216.9C11.4095 216.864 14.2085 212.634 11.4012 208.457ZM17.9224 207.088C16.9589 207.431 15.522 207.494 13.5453 206.46C12.8784 206.849 12.2994 207.334 11.8165 207.904C12.9294 209.522 13.5132 212.067 13.0849 214.365L17.9212 207.087L17.9224 207.088ZM11.4012 207.346L11.4071 207.352C11.8627 206.814 12.2377 206.514 12.7965 206.049C12.214 205.569 11.8497 205.28 11.4071 204.76L11.4012 204.766L11.3952 204.76C10.9384 205.297 10.5576 205.594 10.007 206.049C10.6228 206.563 10.9633 206.839 11.3952 207.352L11.4012 207.346ZM8.42179 206.043C6.84013 205.379 5.17542 205.367 4.28077 206.019C5.17661 206.678 6.8425 206.682 8.42179 206.043ZM14.3818 206.043C15.961 206.684 17.6258 206.679 18.5228 206.019C17.6281 205.367 15.9634 205.379 14.3818 206.043ZM17.9248 204.94L12.984 197.438C13.48 199.307 13.5227 201.748 11.8188 204.209C12.2994 204.772 12.8784 205.25 13.5429 205.633C15.5339 204.566 16.9672 204.606 17.9248 204.938L17.9248 204.94ZM11.4012 195.199C9.62137 197.844 9.94174 201.502 11.4012 203.661C12.8262 201.554 13.2154 197.892 11.4012 195.199ZM4.86336 204.963C5.82564 204.623 7.26966 204.568 9.25948 205.634C9.92513 205.251 10.503 204.774 10.9835 204.211C9.2844 201.754 9.30457 199.342 9.78749 197.487L4.86455 204.961L4.86336 204.963ZM9.72579 214.38C9.2927 212.084 9.86105 209.537 10.9847 207.904C10.503 207.334 9.92394 206.849 9.25711 206.46C7.28152 207.494 5.85293 207.444 4.89421 207.108L9.72698 214.38L9.72579 214.38Z" fill="#96FFC1"/>
<path d="M3 193.849L3 218.08L3.90295 218.08L3.90296 193.849L3 193.849Z" fill="#96FFC1"/>
<path d="M18.9004 193.849L18.9004 218.08L19.8033 218.08L19.8033 193.849L18.9004 193.849Z" fill="#96FFC1"/>
<path d="M3.41406 218.08L9.88425 218.08L3.41406 208.234L3.41406 218.08Z" fill="#96FFC1"/>
<path d="M3.41406 193.846L9.88425 193.846L3.41406 203.692L3.41406 193.846Z" fill="#96FFC1"/>
<path d="M19.0288 193.846L12.5586 193.846L19.0288 203.692L19.0288 193.846Z" fill="#96FFC1"/>
<path d="M19.0288 218.08L12.5586 218.08L19.0288 208.234L19.0288 218.08Z" fill="#96FFC1"/>
<path d="M11.4012 193.86L3.33985 181.797L11.4024 169.629L19.4637 181.797L11.4024 193.86L11.4012 193.86ZM11.4012 184.236C8.59146 188.418 11.3929 192.643 11.4012 192.679C11.4095 192.643 14.2085 188.413 11.4012 184.236ZM17.9224 182.867C16.9589 183.21 15.522 183.273 13.5453 182.238C12.8784 182.627 12.2994 183.113 11.8165 183.683C12.9294 185.301 13.5132 187.846 13.0849 190.143L17.9212 182.865L17.9224 182.867ZM11.4012 183.125L11.4071 183.131C11.8627 182.592 12.2377 182.293 12.7965 181.828C12.214 181.347 11.8497 181.059 11.4071 180.539L11.4012 180.545L11.3952 180.539C10.9384 181.076 10.5576 181.373 10.007 181.828C10.6228 182.342 10.9633 182.618 11.3952 183.131L11.4012 183.125ZM8.42179 181.822C6.84013 181.158 5.17542 181.146 4.28077 181.797C5.17661 182.457 6.8425 182.461 8.42179 181.822ZM14.3818 181.822C15.961 182.463 17.6258 182.458 18.5228 181.797C17.6281 181.146 15.9634 181.158 14.3818 181.822ZM17.9248 180.72L12.984 173.218C13.48 175.087 13.5227 177.528 11.8188 179.989C12.2994 180.552 12.8784 181.03 13.5429 181.413C15.5339 180.346 16.9672 180.386 17.9248 180.719L17.9248 180.72ZM11.4012 170.978C9.62137 173.622 9.94174 177.281 11.4012 179.44C12.8262 177.333 13.2154 173.671 11.4012 170.978ZM4.86336 180.742C5.82564 180.401 7.26966 180.346 9.25948 181.413C9.92513 181.03 10.503 180.552 10.9835 179.989C9.2844 177.533 9.30457 175.121 9.78749 173.267L4.86455 180.742L4.86336 180.742ZM9.72579 190.16C9.2927 187.864 9.86105 185.317 10.9847 183.685C10.503 183.114 9.92394 182.629 9.25711 182.24C7.28152 183.274 5.85293 183.224 4.89421 182.888L9.72698 190.16L9.72579 190.16Z" fill="#96FFC1"/>
<path d="M3 169.63L3 193.861L3.90295 193.861L3.90296 169.63L3 169.63Z" fill="#96FFC1"/>
<path d="M18.9004 169.63L18.9004 193.861L19.8033 193.861L19.8033 169.63L18.9004 169.63Z" fill="#96FFC1"/>
<path d="M3.41406 193.86L9.88425 193.86L3.41406 184.013L3.41406 193.86Z" fill="#96FFC1"/>
<path d="M3.41406 169.624L9.88425 169.624L3.41406 179.47L3.41406 169.624Z" fill="#96FFC1"/>
<path d="M19.0288 169.624L12.5586 169.624L19.0288 179.47L19.0288 169.624Z" fill="#96FFC1"/>
<path d="M19.0288 193.86L12.5586 193.86L19.0288 184.013L19.0288 193.86Z" fill="#96FFC1"/>
<path d="M11.4012 169.619L3.33985 157.556L11.4024 145.388L19.4637 157.556L11.4024 169.619L11.4012 169.619ZM11.4012 159.994C8.59146 164.176 11.3929 168.401 11.4012 168.438C11.4095 168.401 14.2085 164.172 11.4012 159.994ZM17.9224 158.626C16.9589 158.969 15.522 159.031 13.5453 157.997C12.8784 158.386 12.2994 158.871 11.8165 159.442C12.9294 161.059 13.5132 163.603 13.0849 165.902L17.9212 158.624L17.9224 158.626ZM11.4012 158.883L11.4071 158.89C11.8627 158.351 12.2377 158.052 12.7965 157.586C12.214 157.106 11.8497 156.818 11.4071 156.297L11.4012 156.303L11.3952 156.297C10.9384 156.834 10.5576 157.132 10.007 157.586C10.6228 158.101 10.9633 158.377 11.3952 158.89L11.4012 158.883ZM8.42179 157.58C6.84013 156.917 5.17542 156.904 4.28077 157.556C5.17661 158.215 6.8425 158.22 8.42179 157.58ZM14.3818 157.58C15.961 158.221 17.6258 158.217 18.5228 157.556C17.6281 156.904 15.9634 156.917 14.3818 157.58ZM17.9248 156.479L12.984 148.977C13.48 150.846 13.5227 153.287 11.8188 155.748C12.2994 156.311 12.8784 156.789 13.5429 157.171C15.5339 156.105 16.9672 156.145 17.9248 156.477L17.9248 156.479ZM11.4012 146.737C9.62137 149.381 9.94174 153.04 11.4012 155.199C12.8262 153.092 13.2154 149.43 11.4012 146.737ZM4.86336 156.5C5.82564 156.16 7.26966 156.105 9.25948 157.173C9.92513 156.79 10.503 156.312 10.9835 155.749C9.2844 153.293 9.30457 150.881 9.78749 149.027L4.86455 156.502L4.86336 156.5ZM9.72579 165.919C9.2927 163.622 9.86105 161.076 10.9847 159.443C10.503 158.873 9.92394 158.388 9.25711 157.998C7.28152 159.033 5.85293 158.983 4.89421 158.647L9.72698 165.919L9.72579 165.919Z" fill="#96FFC1"/>
<path d="M3 145.389L3 169.619L3.90295 169.619L3.90296 145.389L3 145.389Z" fill="#96FFC1"/>
<path d="M18.9004 145.389L18.9004 169.619L19.8033 169.619L19.8033 145.389L18.9004 145.389Z" fill="#96FFC1"/>
<path d="M3.41406 169.619L9.88425 169.619L3.41406 159.771L3.41406 169.619Z" fill="#96FFC1"/>
<path d="M3.41406 145.389L9.88425 145.389L3.41406 155.234L3.41406 145.389Z" fill="#96FFC1"/>
<path d="M19.0288 145.389L12.5586 145.389L19.0288 155.234L19.0288 145.389Z" fill="#96FFC1"/>
<path d="M19.0288 169.619L12.5586 169.619L19.0288 159.771L19.0288 169.619Z" fill="#96FFC1"/>
<path d="M11.4012 145.389L3.33985 133.326L11.4024 121.158L19.4637 133.326L11.4024 145.389L11.4012 145.389ZM11.4012 135.765C8.59146 139.947 11.3929 144.172 11.4012 144.208C11.4095 144.17 14.2085 139.942 11.4012 135.765ZM17.9224 134.396C16.9589 134.739 15.522 134.802 13.5453 133.767C12.8784 134.156 12.2994 134.642 11.8165 135.212C12.9294 136.83 13.5132 139.373 13.0849 141.672L17.9212 134.394L17.9224 134.396ZM11.4012 134.654L11.4071 134.66C11.8627 134.121 12.2377 133.822 12.7965 133.357C12.214 132.876 11.8497 132.588 11.4071 132.068L11.4012 132.074L11.3952 132.068C10.9384 132.605 10.5576 132.902 10.007 133.357C10.6228 133.871 10.9633 134.147 11.3952 134.66L11.4012 134.654ZM8.42179 133.351C6.84013 132.687 5.17542 132.675 4.28077 133.326C5.17661 133.986 6.8425 133.99 8.42179 133.351ZM14.3818 133.351C15.961 133.992 17.6258 133.987 18.5228 133.326C17.6281 132.675 15.9634 132.687 14.3818 133.351ZM17.9248 132.249L12.984 124.747C13.48 126.616 13.5227 129.057 11.8188 131.518C12.2994 132.081 12.8784 132.559 13.5429 132.942C15.5339 131.875 16.9672 131.915 17.9248 132.248L17.9248 132.249ZM11.4012 122.509C9.62137 125.153 9.94174 128.812 11.4012 130.971C12.8262 128.864 13.2154 125.202 11.4012 122.509ZM4.86336 132.271C5.82564 131.93 7.26966 131.875 9.25948 132.942C9.92513 132.559 10.503 132.081 10.9835 131.518C9.2844 129.062 9.30457 126.65 9.78749 124.796L4.86455 132.271L4.86336 132.271ZM9.72579 141.689C9.2927 139.393 9.86105 136.846 10.9847 135.214C10.503 134.643 9.92394 134.158 9.25711 133.769C7.28152 134.803 5.85293 134.753 4.89421 134.417L9.72698 141.689L9.72579 141.689Z" fill="#96FFC1"/>
<path d="M3 121.158L3 145.388L3.90295 145.388L3.90296 121.158L3 121.158Z" fill="#96FFC1"/>
<path d="M18.9004 121.158L18.9004 145.388L19.8033 145.388L19.8033 121.158L18.9004 121.158Z" fill="#96FFC1"/>
<path d="M3.41406 145.389L9.88425 145.389L3.41406 135.543L3.41406 145.389Z" fill="#96FFC1"/>
<path d="M3.41406 121.153L9.88425 121.153L3.41406 130.999L3.41406 121.153Z" fill="#96FFC1"/>
<path d="M19.0288 121.153L12.5586 121.153L19.0288 130.999L19.0288 121.153Z" fill="#96FFC1"/>
<path d="M19.0288 145.389L12.5586 145.389L19.0288 135.543L19.0288 145.389Z" fill="#96FFC1"/>
<path d="M11.4012 121.162L3.33985 109.099L11.4024 96.931L19.4637 109.099L11.4024 121.162L11.4012 121.162ZM11.4012 111.537C8.59146 115.719 11.3929 119.944 11.4012 119.981C11.4095 119.943 14.2085 115.715 11.4012 111.537ZM17.9224 110.169C16.9589 110.512 15.522 110.574 13.5453 109.54C12.8784 109.929 12.2994 110.414 11.8165 110.985C12.9294 112.602 13.5132 115.147 13.0849 117.445L17.9212 110.167L17.9224 110.169ZM11.4012 110.426L11.4071 110.433C11.8627 109.894 12.2377 109.595 12.7965 109.13C12.214 108.649 11.8497 108.361 11.4071 107.84L11.4012 107.846L11.3952 107.84C10.9384 108.377 10.5576 108.675 10.007 109.13C10.6228 109.644 10.9633 109.92 11.3952 110.433L11.4012 110.426ZM8.42179 109.123C6.84013 108.46 5.17542 108.447 4.28077 109.099C5.17661 109.758 6.8425 109.763 8.42179 109.123ZM14.3818 109.123C15.961 109.764 17.6258 109.76 18.5228 109.099C17.6281 108.447 15.9634 108.46 14.3818 109.123ZM17.9248 108.022L12.984 100.52C13.48 102.389 13.5227 104.83 11.8188 107.291C12.2994 107.854 12.8784 108.332 13.5429 108.714C15.5339 107.648 16.9672 107.688 17.9248 108.02L17.9248 108.022ZM11.4012 98.2813C9.62137 100.925 9.94174 104.584 11.4012 106.743C12.8262 104.636 13.2154 100.974 11.4012 98.2813ZM4.86336 108.043C5.82564 107.703 7.26966 107.648 9.25948 108.714C9.92513 108.332 10.503 107.854 10.9835 107.291C9.2844 104.834 9.30457 102.422 9.78749 100.567L4.86455 108.042L4.86336 108.043ZM9.72579 117.462C9.2927 115.165 9.86105 112.619 10.9847 110.986C10.503 110.416 9.92394 109.931 9.25711 109.541C7.28152 110.576 5.85293 110.526 4.89421 110.19L9.72698 117.462L9.72579 117.462Z" fill="#96FFC1"/>
<path d="M3 96.9306L3 121.161L3.90295 121.161L3.90296 96.9306L3 96.9306Z" fill="#96FFC1"/>
<path d="M18.9004 96.9306L18.9004 121.161L19.8033 121.161L19.8033 96.9306L18.9004 96.9306Z" fill="#96FFC1"/>
<path d="M3.41406 121.162L9.88425 121.162L3.41406 111.316L3.41406 121.162Z" fill="#96FFC1"/>
<path d="M3.41406 96.9256L9.88425 96.9256L3.41406 106.771L3.41406 96.9256Z" fill="#96FFC1"/>
<path d="M19.0288 96.9256L12.5586 96.9256L19.0288 106.771L19.0288 96.9256Z" fill="#96FFC1"/>
<path d="M19.0288 121.162L12.5586 121.162L19.0288 111.316L19.0288 121.162Z" fill="#96FFC1"/>
<path d="M11.4012 96.9279L3.33985 84.8652L11.4024 72.6972L19.4637 84.8652L11.4024 96.9279L11.4012 96.9279ZM11.4012 87.3034C8.59146 91.4855 11.3929 95.7103 11.4012 95.747C11.4095 95.7103 14.2085 91.4809 11.4012 87.3034ZM17.9224 85.9363C16.9589 86.2796 15.522 86.3421 13.5453 85.3077C12.8784 85.6967 12.2994 86.1819 11.8165 86.7526C12.9294 88.3714 13.5132 90.9149 13.0849 93.2127L17.9212 85.9348L17.9224 85.9363ZM11.4012 86.1941L11.4071 86.2002C11.8627 85.6616 12.2377 85.3626 12.7965 84.8972C12.214 84.4166 11.8497 84.1283 11.4071 83.608L11.4012 83.6141L11.3952 83.608C10.9384 84.145 10.5576 84.4426 10.007 84.8972C10.6228 85.4114 10.9633 85.6876 11.3952 86.2002L11.4012 86.1941ZM8.42179 84.8896C6.84013 84.2259 5.17542 84.2137 4.28077 84.8652C5.17661 85.5243 6.8425 85.5289 8.42179 84.8896ZM14.3818 84.8896C15.961 85.5304 17.6258 85.5259 18.5228 84.8652C17.6281 84.2137 15.9634 84.2259 14.3818 84.8896ZM17.9248 83.788L12.984 76.2858C13.48 78.1549 13.5227 80.5961 11.8188 83.0572C12.2994 83.6202 12.8784 84.0977 13.5429 84.4807C15.5339 83.4142 16.9672 83.4538 17.9248 83.7865L17.9248 83.788ZM11.4012 74.0475C9.62137 76.6917 9.94174 80.3504 11.4012 82.5094C12.8262 80.4023 13.2154 76.7405 11.4012 74.0475ZM4.86336 83.8094C5.82564 83.4691 7.26966 83.4142 9.25948 84.4807C9.92513 84.0977 10.503 83.6202 10.9835 83.0572C9.2844 80.6007 9.30457 78.1884 9.78749 76.3346L4.86455 83.8094L4.86336 83.8094ZM9.72579 93.2279C9.2927 90.9316 9.86105 88.3851 10.9847 86.7526C10.503 86.1819 9.92394 85.6967 9.25711 85.3077C7.28152 86.3421 5.85293 86.2918 4.89421 85.9561L9.72698 93.2279L9.72579 93.2279Z" fill="#96FFC1"/>
<path d="M3 72.6974L3 96.9281L3.90295 96.9281L3.90296 72.6974L3 72.6974Z" fill="#96FFC1"/>
<path d="M18.9004 72.6974L18.9004 96.9281L19.8033 96.9281L19.8033 72.6974L18.9004 72.6974Z" fill="#96FFC1"/>
<path d="M3.41406 96.9279L9.88425 96.9279L3.41406 87.0821L3.41406 96.9279Z" fill="#96FFC1"/>
<path d="M3.41406 72.696L9.88425 72.696L3.41406 82.5418L3.41406 72.696Z" fill="#96FFC1"/>
<path d="M19.0288 72.696L12.5586 72.696L19.0288 82.5418L19.0288 72.696Z" fill="#96FFC1"/>
<path d="M19.0288 96.9279L12.5586 96.9279L19.0288 87.0821L19.0288 96.9279Z" fill="#96FFC1"/>
<path d="M11.4012 72.6985L3.33985 60.6358L11.4024 48.4678L19.4637 60.6358L11.4024 72.6985L11.4012 72.6985ZM11.4012 63.074C8.59146 67.2561 11.3929 71.4809 11.4012 71.5176C11.4095 71.4809 14.2085 67.2515 11.4012 63.074ZM17.9224 61.7069C16.9589 62.0502 15.522 62.1127 13.5453 61.0783C12.8784 61.4673 12.2994 61.9525 11.8165 62.5232C12.9294 64.1405 13.5132 66.6839 13.0849 68.9833L17.9212 61.7053L17.9224 61.7069ZM11.4012 61.9647L11.4071 61.9708C11.8627 61.4322 12.2377 61.1332 12.7965 60.6678C12.214 60.1872 11.8497 59.8988 11.4071 59.3786L11.4012 59.3847L11.3952 59.3786C10.9384 59.9156 10.5576 60.2132 10.007 60.6678C10.6228 61.182 10.9633 61.4582 11.3952 61.9708L11.4012 61.9647ZM8.42179 60.6602C6.84013 59.9965 5.17542 59.9843 4.28077 60.6358C5.17661 61.2949 6.8425 61.2995 8.42179 60.6602ZM14.3818 60.6602C15.961 61.301 17.6258 61.2964 18.5228 60.6358C17.6281 59.9843 15.9634 59.9965 14.3818 60.6602ZM17.9248 59.5586L12.984 52.0564C13.48 53.9255 13.5227 56.3667 11.8188 58.8278C12.2994 59.3908 12.8784 59.8683 13.5429 60.2513C15.5339 59.1848 16.9672 59.2245 17.9248 59.5571L17.9248 59.5586ZM11.4012 49.8181C9.62137 52.4622 9.94174 56.121 11.4012 58.28C12.8262 56.1729 13.2154 52.5111 11.4012 49.8181ZM4.86336 59.58C5.82564 59.2397 7.26966 59.1848 9.25948 60.2528C9.92513 59.8698 10.503 59.3923 10.9835 58.8293C9.2844 56.3728 9.30457 53.9605 9.78749 52.1067L4.86455 59.5815L4.86336 59.58ZM9.72579 68.9985C9.2927 66.7022 9.86105 64.1557 10.9847 62.5232C10.503 61.9525 9.92394 61.4673 9.25711 61.0783C7.28152 62.1127 5.85293 62.0624 4.89421 61.7267L9.72698 68.9985L9.72579 68.9985Z" fill="#96FFC1"/>
<path d="M3 48.4684L3 72.6991L3.90295 72.6991L3.90296 48.4684L3 48.4684Z" fill="#96FFC1"/>
<path d="M18.9004 48.4684L18.9004 72.6991L19.8033 72.6991L19.8033 48.4684L18.9004 48.4684Z" fill="#96FFC1"/>
<path d="M3.41406 72.6985L9.88425 72.6985L3.41406 62.8527L3.41406 72.6985Z" fill="#96FFC1"/>
<path d="M3.41406 48.4645L9.88425 48.4645L3.41406 58.3103L3.41406 48.4645Z" fill="#96FFC1"/>
<path d="M19.0288 48.4645L12.5586 48.4645L19.0288 58.3103L19.0288 48.4645Z" fill="#96FFC1"/>
<path d="M19.0288 72.6985L12.5586 72.6985L19.0288 62.8527L19.0288 72.6985Z" fill="#96FFC1"/>
<path d="M11.4012 48.465L3.33985 36.4023L11.4024 24.2343L19.4637 36.4023L11.4024 48.465L11.4012 48.465ZM11.4012 38.8405C8.59146 43.0226 11.3929 47.2475 11.4012 47.2841C11.4095 47.2475 14.2085 43.018 11.4012 38.8405ZM17.9224 37.4734C16.9589 37.8167 15.522 37.8792 13.5453 36.8448C12.8784 37.2338 12.2994 37.7191 11.8165 38.2897C12.9294 39.907 13.5132 42.452 13.0849 44.7498L17.9212 37.4719L17.9224 37.4734ZM11.4012 37.7313L11.4071 37.7374C11.8627 37.1988 12.2377 36.8997 12.7965 36.4344C12.214 35.9537 11.8497 35.6654 11.4071 35.1451L11.4012 35.1512L11.3952 35.1451C10.9384 35.6822 10.5576 35.9797 10.007 36.4344C10.6228 36.9485 10.9633 37.2247 11.3952 37.7374L11.4012 37.7313ZM8.42179 36.4267C6.84013 35.763 5.17542 35.7508 4.28077 36.4023C5.17661 37.0615 6.8425 37.066 8.42179 36.4267ZM14.3818 36.4267C15.961 37.0675 17.6258 37.063 18.5228 36.4023C17.6281 35.7508 15.9634 35.763 14.3818 36.4267ZM17.9248 35.3251L12.984 27.8229C13.48 29.692 13.5227 32.1332 11.8188 34.5943C12.2994 35.1573 12.8784 35.6349 13.5429 36.0178C15.5339 34.9513 16.9672 34.991 17.9248 35.3236L17.9248 35.3251ZM11.4012 25.5846C9.62137 28.2288 9.94174 31.8876 11.4012 34.0465C12.8262 31.9394 13.2154 28.2776 11.4012 25.5846ZM4.86336 35.3465C5.82564 35.0062 7.26966 34.9513 9.25948 36.0178C9.92513 35.6349 10.503 35.1573 10.9835 34.5943C9.2844 32.1378 9.30457 29.7256 9.78749 27.8717L4.86455 35.3465L4.86336 35.3465ZM9.72579 44.765C9.2927 42.4688 9.86105 39.9223 10.9847 38.2897C10.503 37.7191 9.92394 37.2338 9.25711 36.8448C7.28152 37.8792 5.85293 37.8289 4.89421 37.4932L9.72698 44.765L9.72579 44.765Z" fill="#96FFC1"/>
<path d="M3 24.2334L3 48.4641L3.90295 48.4641L3.90296 24.2334L3 24.2334Z" fill="#96FFC1"/>
<path d="M18.9004 24.2334L18.9004 48.4641L19.8033 48.4641L19.8033 24.2334L18.9004 24.2334Z" fill="#96FFC1"/>
<path d="M3.41406 48.465L9.88425 48.465L3.41406 38.6192L3.41406 48.465Z" fill="#96FFC1"/>
<path d="M3.41406 24.2291L9.88425 24.2291L3.41406 34.0748L3.41406 24.2291Z" fill="#96FFC1"/>
<path d="M19.0288 24.2291L12.5586 24.2291L19.0288 34.0748L19.0288 24.2291Z" fill="#96FFC1"/>
<path d="M19.0288 48.465L12.5586 48.465L19.0288 38.6192L19.0288 48.465Z" fill="#96FFC1"/>
<path d="M11.4012 24.2355L3.33985 12.1727L11.4024 0.00475051L19.4637 12.1727L11.4024 24.2355L11.4012 24.2355ZM11.4012 14.6109C8.59146 18.793 11.3929 23.0179 11.4012 23.0545C11.4095 23.0179 14.2085 18.7885 11.4012 14.6109ZM17.9224 13.2438C16.9589 13.5871 15.522 13.6497 13.5453 12.6152C12.8784 13.0043 12.2994 13.4895 11.8165 14.0601C12.9294 15.679 13.5132 18.2224 13.0849 20.5202L17.9212 13.2423L17.9224 13.2438ZM11.4012 13.5017L11.4071 13.5078C11.8627 12.9692 12.2377 12.6701 12.7965 12.2048C12.214 11.7242 11.8497 11.4358 11.4071 10.9155L11.4012 10.9216L11.3952 10.9155C10.9384 11.4526 10.5576 11.7501 10.007 12.2048C10.6228 12.719 10.9633 12.9951 11.3952 13.5078L11.4012 13.5017ZM8.42179 12.1987C6.84013 11.535 5.17542 11.5228 4.28077 12.1743C5.17661 12.8334 6.8425 12.838 8.42179 12.1987ZM14.3818 12.1987C15.961 12.8395 17.6258 12.8349 18.5228 12.1743C17.6281 11.5228 15.9634 11.535 14.3818 12.1987ZM17.9248 11.0956L12.984 3.59336C13.48 5.46242 13.5227 7.90365 11.8188 10.3647C12.2994 10.9277 12.8784 11.4053 13.5429 11.7883C15.5339 10.7217 16.9672 10.7614 17.9248 11.094L17.9248 11.0956ZM11.4012 1.35507C9.62137 3.99922 9.94174 7.65801 11.4012 9.81697C12.8262 7.70989 13.2154 4.04805 11.4012 1.35507ZM4.86336 11.1169C5.82564 10.7767 7.26966 10.7217 9.25948 11.7882C9.92513 11.4053 10.503 10.9277 10.9835 10.3647C9.2844 7.90823 9.30457 5.49598 9.78749 3.64217L4.86455 11.1169L4.86336 11.1169ZM9.72579 20.5355C9.2927 18.2392 9.86105 15.6927 10.9847 14.0601C10.503 13.4895 9.92394 13.0043 9.25711 12.6152C7.28152 13.6497 5.85293 13.5993 4.89421 13.2637L9.72698 20.5355L9.72579 20.5355Z" fill="#96FFC1"/>
<path d="M3 0.00431252L3 24.235L3.90295 24.235L3.90296 0.00431265L3 0.00431252Z" fill="#96FFC1"/>
<path d="M18.9004 0.00431252L18.9004 24.235L19.8033 24.235L19.8033 0.00431265L18.9004 0.00431252Z" fill="#96FFC1"/>
<path d="M3.41406 24.2355L9.88425 24.2355L3.41406 14.3897L3.41406 24.2355Z" fill="#96FFC1"/>
<path d="M3.41406 0.00189686L9.88425 0.00189783L3.41406 9.84921L3.41406 0.00189686Z" fill="#96FFC1"/>
<path d="M19.0288 0.00189831L12.5586 0.00189734L19.0288 9.84921L19.0288 0.00189831Z" fill="#96FFC1"/>
<path d="M19.0288 24.2355L12.5586 24.2355L19.0288 14.3897L19.0288 24.2355Z" fill="#96FFC1"/>
<path d="M340.567 315L332.506 302.937L340.568 290.769L348.63 302.937L340.567 315ZM340.567 305.375C337.757 309.558 340.559 313.782 340.567 313.819C340.575 313.782 343.375 309.553 340.567 305.375ZM347.088 304.008C346.125 304.352 344.688 304.414 342.711 303.38C342.044 303.769 341.465 304.254 340.982 304.825C342.095 306.442 342.679 308.987 342.251 311.285L347.087 304.007L347.088 304.008ZM340.567 304.266L340.573 304.272C341.029 303.734 341.404 303.435 341.963 302.969C341.38 302.489 341.016 302.2 340.573 301.68L340.567 301.686L340.561 301.68C340.104 302.217 339.724 302.515 339.173 302.969C339.789 303.484 340.129 303.76 340.561 304.272L340.567 304.266ZM337.588 302.962C336.006 302.298 334.341 302.286 333.447 302.937C334.343 303.596 336.009 303.601 337.588 302.962ZM343.548 302.962C345.127 303.603 346.792 303.598 347.689 302.937C346.794 302.286 345.129 302.298 343.548 302.962ZM347.091 301.86L342.15 294.358C342.646 296.227 342.689 298.668 340.985 301.129C341.465 301.692 342.044 302.17 342.709 302.553C344.7 301.486 346.133 301.526 347.091 301.859L347.091 301.86ZM340.567 292.12C338.787 294.764 339.108 298.423 340.567 300.581C341.992 298.474 342.381 294.813 340.567 292.12ZM334.029 301.881C334.992 301.541 336.436 301.486 338.425 302.553C339.091 302.17 339.669 301.692 340.15 301.129C338.45 298.673 338.471 296.261 338.954 294.407L334.029 301.881ZM338.892 311.3C338.459 309.004 339.027 306.457 340.151 304.825C339.669 304.254 339.09 303.769 338.423 303.38C336.448 304.414 335.019 304.364 334.06 304.028L338.892 311.3Z" fill="#96FFC1"/>
<path d="M332.166 290.769L332.166 315L333.069 315L333.069 290.769L332.166 290.769Z" fill="#96FFC1"/>
<path d="M348.066 290.769L348.066 315L348.969 315L348.969 290.769L348.066 290.769Z" fill="#96FFC1"/>
<path d="M332.58 315L339.05 315L332.58 305.154L332.58 315Z" fill="#96FFC1"/>
<path d="M332.58 290.765L339.05 290.765L332.58 300.611L332.58 290.765Z" fill="#96FFC1"/>
<path d="M348.195 290.765L341.725 290.765L348.195 300.611L348.195 290.765Z" fill="#96FFC1"/>
<path d="M348.195 315L341.725 315L348.195 305.154L348.195 315Z" fill="#96FFC1"/>
<path d="M340.567 290.773L332.506 278.71L340.568 266.542L348.63 278.71L340.568 290.773L340.567 290.773ZM340.567 281.148C337.757 285.331 340.559 289.555 340.567 289.592C340.575 289.555 343.375 285.326 340.567 281.148ZM347.088 279.781C346.125 280.125 344.688 280.187 342.711 279.153C342.044 279.542 341.465 280.027 340.982 280.598C342.095 282.215 342.679 284.76 342.251 287.058L347.087 279.78L347.088 279.781ZM340.567 280.039L340.573 280.045C341.029 279.507 341.404 279.208 341.963 278.742C341.38 278.262 341.016 277.973 340.573 277.453L340.567 277.459L340.561 277.453C340.104 277.99 339.724 278.288 339.173 278.742C339.789 279.256 340.129 279.533 340.561 280.045L340.567 280.039ZM337.588 278.735C336.006 278.071 334.341 278.059 333.447 278.71C334.343 279.369 336.009 279.374 337.588 278.735ZM343.548 278.735C345.127 279.375 346.792 279.371 347.689 278.71C346.794 278.059 345.129 278.071 343.548 278.735ZM347.091 277.633L342.15 270.131C342.646 272 342.689 274.441 340.985 276.902C341.465 277.465 342.044 277.943 342.709 278.326C344.7 277.259 346.133 277.299 347.091 277.631L347.091 277.633ZM340.567 267.893C338.787 270.537 339.108 274.195 340.567 276.354C341.992 274.247 342.381 270.585 340.567 267.893ZM334.029 277.654C334.992 277.314 336.436 277.259 338.425 278.326C339.091 277.943 339.669 277.465 340.15 276.902C338.45 274.446 338.471 272.033 338.954 270.18L334.031 277.654L334.029 277.654ZM338.892 287.073C338.459 284.777 339.027 282.23 340.151 280.598C339.669 280.027 339.09 279.542 338.423 279.153C336.448 280.187 335.019 280.137 334.06 279.801L338.893 287.073L338.892 287.073Z" fill="#96FFC1"/>
<path d="M332.166 266.542L332.166 290.773L333.069 290.773L333.069 266.542L332.166 266.542Z" fill="#96FFC1"/>
<path d="M348.066 266.542L348.066 290.773L348.969 290.773L348.969 266.542L348.066 266.542Z" fill="#96FFC1"/>
<path d="M332.58 290.773L339.05 290.773L332.58 280.927L332.58 290.773Z" fill="#96FFC1"/>
<path d="M332.58 266.538L339.05 266.538L332.58 276.384L332.58 266.538Z" fill="#96FFC1"/>
<path d="M348.195 266.538L341.725 266.538L348.195 276.384L348.195 266.538Z" fill="#96FFC1"/>
<path d="M348.195 290.773L341.725 290.773L348.195 280.927L348.195 290.773Z" fill="#96FFC1"/>
<path d="M340.567 266.542L332.506 254.479L340.568 242.311L348.63 254.479L340.568 266.542L340.567 266.542ZM340.567 256.917C337.757 261.099 340.559 265.324 340.567 265.361C340.575 265.324 343.375 261.095 340.567 256.917ZM347.088 255.55C346.125 255.894 344.688 255.956 342.711 254.922C342.044 255.311 341.465 255.796 340.982 256.366C342.095 257.985 342.679 260.529 342.251 262.827L347.087 255.549L347.088 255.55ZM340.567 255.808L340.573 255.814C341.029 255.276 341.404 254.977 341.963 254.511C341.38 254.031 341.016 253.742 340.573 253.222L340.567 253.228L340.561 253.222C340.104 253.759 339.724 254.056 339.173 254.511C339.789 255.025 340.129 255.302 340.561 255.814L340.567 255.808ZM337.588 254.505C336.006 253.841 334.341 253.829 333.447 254.481C334.343 255.14 336.009 255.144 337.588 254.505ZM343.548 254.505C345.127 255.146 346.792 255.141 347.689 254.481C346.794 253.829 345.129 253.841 343.548 254.505ZM347.091 253.402L342.15 245.9C342.646 247.769 342.689 250.21 340.985 252.671C341.465 253.234 342.044 253.712 342.709 254.095C344.7 253.028 346.133 253.068 347.091 253.4L347.091 253.402ZM340.567 243.661C338.787 246.306 339.108 249.964 340.567 252.123C341.992 250.016 342.381 246.354 340.567 243.661ZM334.029 253.423C334.992 253.083 336.436 253.028 338.425 254.095C339.091 253.712 339.669 253.234 340.15 252.671C338.45 250.215 338.471 247.802 338.954 245.949L334.031 253.423L334.029 253.423ZM338.892 262.842C338.459 260.546 339.027 257.999 340.151 256.366C339.669 255.796 339.09 255.311 338.423 254.922C336.448 255.956 335.019 255.906 334.06 255.57L338.893 262.842L338.892 262.842Z" fill="#96FFC1"/>
<path d="M332.166 242.31L332.166 266.541L333.069 266.541L333.069 242.31L332.166 242.31Z" fill="#96FFC1"/>
<path d="M348.066 242.31L348.066 266.541L348.969 266.541L348.969 242.31L348.066 242.31Z" fill="#96FFC1"/>
<path d="M332.58 266.542L339.05 266.542L332.58 256.696L332.58 266.542Z" fill="#96FFC1"/>
<path d="M332.58 242.308L339.05 242.308L332.58 252.155L332.58 242.308Z" fill="#96FFC1"/>
<path d="M348.195 242.308L341.725 242.308L348.195 252.155L348.195 242.308Z" fill="#96FFC1"/>
<path d="M348.195 266.542L341.725 266.542L348.195 256.696L348.195 266.542Z" fill="#96FFC1"/>
<path d="M340.567 242.315L332.506 230.252L340.568 218.084L348.63 230.252L340.568 242.315L340.567 242.315ZM340.567 232.69C337.757 236.872 340.559 241.097 340.567 241.134C340.575 241.097 343.375 236.868 340.567 232.69ZM347.088 231.323C346.125 231.666 344.688 231.729 342.711 230.694C342.044 231.084 341.465 231.569 340.982 232.139C342.095 233.757 342.679 236.3 342.251 238.599L347.087 231.322L347.088 231.323ZM340.567 231.581L340.573 231.587C341.029 231.048 341.404 230.749 341.963 230.284C341.38 229.803 341.016 229.515 340.573 228.995L340.567 229.001L340.561 228.995C340.104 229.532 339.724 229.829 339.173 230.284C339.789 230.798 340.129 231.074 340.561 231.587L340.567 231.581ZM337.588 230.278C336.006 229.614 334.341 229.602 333.447 230.254C334.343 230.913 336.009 230.917 337.588 230.278ZM343.548 230.278C345.127 230.919 346.792 230.914 347.689 230.254C346.794 229.602 345.129 229.614 343.548 230.278ZM347.091 229.175L342.15 221.673C342.646 223.542 342.689 225.983 340.985 228.444C341.465 229.007 342.044 229.485 342.709 229.868C344.7 228.801 346.133 228.841 347.091 229.173L347.091 229.175ZM340.567 219.434C338.787 222.078 339.108 225.737 340.567 227.896C341.992 225.789 342.381 222.127 340.567 219.434ZM334.029 229.196C334.992 228.856 336.436 228.801 338.425 229.869C339.091 229.486 339.669 229.009 340.15 228.446C338.45 225.989 338.471 223.577 338.954 221.723L334.031 229.198L334.029 229.196ZM338.892 238.615C338.459 236.318 339.027 233.772 340.151 232.139C339.669 231.569 339.09 231.084 338.423 230.694C336.448 231.729 335.019 231.679 334.06 231.343L338.893 238.615L338.892 238.615Z" fill="#96FFC1"/>
<path d="M332.166 218.083L332.166 242.314L333.069 242.314L333.069 218.083L332.166 218.083Z" fill="#96FFC1"/>
<path d="M348.066 218.083L348.066 242.314L348.969 242.314L348.969 218.083L348.066 218.083Z" fill="#96FFC1"/>
<path d="M332.58 242.315L339.05 242.315L332.58 232.469L332.58 242.315Z" fill="#96FFC1"/>
<path d="M332.58 218.08L339.05 218.08L332.58 227.928L332.58 218.08Z" fill="#96FFC1"/>
<path d="M348.195 218.08L341.725 218.08L348.195 227.928L348.195 218.08Z" fill="#96FFC1"/>
<path d="M348.195 242.315L341.725 242.315L348.195 232.469L348.195 242.315Z" fill="#96FFC1"/>
<path d="M340.567 218.08L332.506 206.017L340.568 193.849L348.63 206.017L340.568 218.08L340.567 218.08ZM340.567 208.457C337.757 212.639 340.559 216.864 340.567 216.9C340.575 216.864 343.375 212.634 340.567 208.457ZM347.088 207.088C346.125 207.431 344.688 207.494 342.711 206.459C342.044 206.848 341.465 207.334 340.982 207.904C342.095 209.522 342.679 212.067 342.251 214.364L347.087 207.087L347.088 207.088ZM340.567 207.346L340.573 207.352C341.029 206.813 341.404 206.514 341.963 206.049C341.38 205.568 341.016 205.28 340.573 204.76L340.567 204.766L340.561 204.76C340.104 205.297 339.724 205.594 339.173 206.049C339.789 206.563 340.129 206.839 340.561 207.352L340.567 207.346ZM337.588 206.043C336.006 205.379 334.341 205.367 333.447 206.018C334.343 206.678 336.009 206.682 337.588 206.043ZM343.548 206.043C345.127 206.684 346.792 206.679 347.689 206.018C346.794 205.367 345.129 205.379 343.548 206.043ZM347.091 204.94L342.15 197.438C342.646 199.307 342.689 201.748 340.985 204.209C341.465 204.772 342.044 205.249 342.709 205.632C344.7 204.566 346.133 204.606 347.091 204.938L347.091 204.94ZM340.567 195.199C338.787 197.843 339.108 201.502 340.567 203.661C341.992 201.554 342.381 197.892 340.567 195.199ZM334.029 204.963C334.992 204.622 336.436 204.567 338.425 205.634C339.091 205.251 339.669 204.773 340.15 204.21C338.45 201.754 338.471 199.342 338.954 197.486L334.031 204.961L334.029 204.963ZM338.892 214.38C338.459 212.083 339.027 209.537 340.151 207.904C339.669 207.334 339.09 206.848 338.423 206.459C336.448 207.494 335.019 207.444 334.06 207.108L338.893 214.38L338.892 214.38Z" fill="#96FFC1"/>
<path d="M332.166 193.85L332.166 218.08L333.069 218.08L333.069 193.85L332.166 193.85Z" fill="#96FFC1"/>
<path d="M348.066 193.85L348.066 218.08L348.969 218.08L348.969 193.85L348.066 193.85Z" fill="#96FFC1"/>
<path d="M332.58 218.08L339.05 218.08L332.58 208.234L332.58 218.08Z" fill="#96FFC1"/>
<path d="M332.58 193.847L339.05 193.847L332.58 203.693L332.58 193.847Z" fill="#96FFC1"/>
<path d="M348.195 193.847L341.725 193.847L348.195 203.693L348.195 193.847Z" fill="#96FFC1"/>
<path d="M348.195 218.08L341.725 218.08L348.195 208.234L348.195 218.08Z" fill="#96FFC1"/>
<path d="M340.567 193.861L332.506 181.798L340.568 169.63L348.63 181.798L340.568 193.861L340.567 193.861ZM340.567 184.236C337.757 188.418 340.559 192.643 340.567 192.68C340.575 192.643 343.375 188.414 340.567 184.236ZM347.088 182.867C346.125 183.211 344.688 183.273 342.711 182.239C342.044 182.628 341.465 183.113 340.982 183.684C342.095 185.301 342.679 187.846 342.251 190.144L347.087 182.866L347.088 182.867ZM340.567 183.125L340.573 183.131C341.029 182.593 341.404 182.294 341.963 181.828C341.38 181.348 341.016 181.059 340.573 180.539L340.567 180.545L340.561 180.539C340.104 181.076 339.724 181.374 339.173 181.828C339.789 182.342 340.129 182.619 340.561 183.131L340.567 183.125ZM337.588 181.822C336.006 181.159 334.341 181.146 333.447 181.798C334.343 182.457 336.009 182.462 337.588 181.822ZM343.548 181.822C345.127 182.463 346.792 182.458 347.689 181.798C346.794 181.146 345.129 181.159 343.548 181.822ZM347.091 180.721L342.15 173.218C342.646 175.087 342.689 177.529 340.985 179.99C341.465 180.553 342.044 181.03 342.709 181.413C344.7 180.347 346.133 180.386 347.091 180.719L347.091 180.721ZM340.567 170.979C338.787 173.623 339.108 177.282 340.567 179.44C341.992 177.333 342.381 173.672 340.567 170.979ZM334.029 180.742C334.992 180.402 336.436 180.347 338.425 181.413C339.091 181.03 339.669 180.553 340.15 179.99C338.45 177.533 338.471 175.121 338.954 173.267L334.031 180.742L334.029 180.742ZM338.892 190.161C338.459 187.864 339.027 185.318 340.151 183.685C339.669 183.115 339.09 182.629 338.423 182.24C336.448 183.275 335.019 183.224 334.06 182.889L338.893 190.161L338.892 190.161Z" fill="#96FFC1"/>
<path d="M332.166 169.63L332.166 193.861L333.069 193.861L333.069 169.63L332.166 169.63Z" fill="#96FFC1"/>
<path d="M348.066 169.63L348.066 193.861L348.969 193.861L348.969 169.63L348.066 169.63Z" fill="#96FFC1"/>
<path d="M332.58 193.861L339.05 193.861L332.58 184.013L332.58 193.861Z" fill="#96FFC1"/>
<path d="M332.58 169.624L339.05 169.624L332.58 179.47L332.58 169.624Z" fill="#96FFC1"/>
<path d="M348.195 169.624L341.725 169.624L348.195 179.47L348.195 169.624Z" fill="#96FFC1"/>
<path d="M348.195 193.861L341.725 193.861L348.195 184.013L348.195 193.861Z" fill="#96FFC1"/>
<path d="M340.567 169.619L332.506 157.557L340.568 145.389L348.63 157.557L340.568 169.619L340.567 169.619ZM340.567 159.995C337.757 164.177 340.559 168.402 340.567 168.438C340.575 168.402 343.375 164.172 340.567 159.995ZM347.088 158.626C346.125 158.969 344.688 159.032 342.711 157.998C342.044 158.387 341.465 158.872 340.982 159.442C342.095 161.06 342.679 163.603 342.251 165.903L347.087 158.625L347.088 158.626ZM340.567 158.884L340.573 158.89C341.029 158.352 341.404 158.052 341.963 157.587C341.38 157.107 341.016 156.818 340.573 156.298L340.567 156.304L340.561 156.298C340.104 156.835 339.724 157.132 339.173 157.587C339.789 158.101 340.129 158.377 340.561 158.89L340.567 158.884ZM337.588 157.581C336.006 156.917 334.341 156.905 333.447 157.557C334.343 158.216 336.009 158.22 337.588 157.581ZM343.548 157.581C345.127 158.222 346.792 158.217 347.689 157.557C346.794 156.905 345.129 156.917 343.548 157.581ZM347.091 156.479L342.15 148.977C342.646 150.846 342.689 153.288 340.985 155.749C341.465 156.312 342.044 156.789 342.709 157.172C344.7 156.106 346.133 156.145 347.091 156.478L347.091 156.479ZM340.567 146.737C338.787 149.382 339.108 153.04 340.567 155.199C341.992 153.092 342.381 149.43 340.567 146.737ZM334.029 156.501C334.992 156.161 336.436 156.106 338.425 157.174C339.091 156.791 339.669 156.313 340.15 155.75C338.45 153.294 338.471 150.881 338.954 149.028L334.031 156.502L334.029 156.501ZM338.892 165.919C338.459 163.623 339.027 161.077 340.151 159.444C339.669 158.873 339.09 158.388 338.423 157.999C336.448 159.034 335.019 158.983 334.06 158.648L338.893 165.919L338.892 165.919Z" fill="#96FFC1"/>
<path d="M332.166 145.389L332.166 169.619L333.069 169.619L333.069 145.389L332.166 145.389Z" fill="#96FFC1"/>
<path d="M348.066 145.389L348.066 169.619L348.969 169.619L348.969 145.389L348.066 145.389Z" fill="#96FFC1"/>
<path d="M332.58 169.619L339.05 169.619L332.58 159.772L332.58 169.619Z" fill="#96FFC1"/>
<path d="M332.58 145.389L339.05 145.389L332.58 155.234L332.58 145.389Z" fill="#96FFC1"/>
<path d="M348.195 145.389L341.725 145.389L348.195 155.234L348.195 145.389Z" fill="#96FFC1"/>
<path d="M348.195 169.619L341.725 169.619L348.195 159.772L348.195 169.619Z" fill="#96FFC1"/>
<path d="M340.567 145.388L332.506 133.326L340.568 121.158L348.63 133.326L340.568 145.388L340.567 145.388ZM340.567 135.764C337.757 139.946 340.559 144.171 340.567 144.207C340.575 144.169 343.375 139.941 340.567 135.764ZM347.088 134.395C346.125 134.739 344.688 134.801 342.711 133.767C342.044 134.156 341.465 134.641 340.982 135.212C342.095 136.829 342.679 139.372 342.251 141.672L347.087 134.394L347.088 134.395ZM340.567 134.653L340.573 134.659C341.029 134.121 341.404 133.822 341.963 133.356C341.38 132.876 341.016 132.587 340.573 132.067L340.567 132.073L340.561 132.067C340.104 132.604 339.724 132.902 339.173 133.356C339.789 133.87 340.129 134.147 340.561 134.659L340.567 134.653ZM337.588 133.35C336.006 132.686 334.341 132.674 333.447 133.326C334.343 133.985 336.009 133.989 337.588 133.35ZM343.548 133.35C345.127 133.991 346.792 133.986 347.689 133.326C346.794 132.674 345.129 132.686 343.548 133.35ZM347.091 132.249L342.15 124.746C342.646 126.615 342.689 129.057 340.985 131.518C341.465 132.081 342.044 132.558 342.709 132.941C344.7 131.875 346.133 131.914 347.091 132.247L347.091 132.249ZM340.567 122.508C338.787 125.152 339.108 128.811 340.567 130.97C341.992 128.863 342.381 125.201 340.567 122.508ZM334.029 132.27C334.992 131.93 336.436 131.875 338.425 132.941C339.091 132.558 339.669 132.081 340.15 131.518C338.45 129.061 338.471 126.649 338.954 124.795L334.031 132.27L334.029 132.27ZM338.892 141.688C338.459 139.392 339.027 136.846 340.151 135.213C339.669 134.642 339.09 134.157 338.423 133.768C336.448 134.803 335.019 134.752 334.06 134.417L338.893 141.688L338.892 141.688Z" fill="#96FFC1"/>
<path d="M332.166 121.158L332.166 145.389L333.069 145.389L333.069 121.158L332.166 121.158Z" fill="#96FFC1"/>
<path d="M348.066 121.158L348.066 145.389L348.969 145.389L348.969 121.158L348.066 121.158Z" fill="#96FFC1"/>
<path d="M332.58 145.388L339.05 145.388L332.58 135.543L332.58 145.388Z" fill="#96FFC1"/>
<path d="M332.58 121.154L339.05 121.154L332.58 130.999L332.58 121.154Z" fill="#96FFC1"/>
<path d="M348.195 121.154L341.725 121.154L348.195 130.999L348.195 121.154Z" fill="#96FFC1"/>
<path d="M348.195 145.388L341.725 145.388L348.195 135.543L348.195 145.388Z" fill="#96FFC1"/>
<path d="M340.567 121.161L332.506 109.099L340.568 96.9306L348.63 109.099L340.568 121.161L340.567 121.161ZM340.567 111.537C337.757 115.719 340.559 119.944 340.567 119.98C340.575 119.942 343.375 115.714 340.567 111.537ZM347.088 110.168C346.125 110.511 344.688 110.574 342.711 109.54C342.044 109.929 341.465 110.414 340.982 110.984C342.095 112.602 342.679 115.147 342.251 117.445L347.087 110.167L347.088 110.168ZM340.567 110.426L340.573 110.432C341.029 109.894 341.404 109.594 341.963 109.129C341.38 108.648 341.016 108.36 340.573 107.84L340.567 107.846L340.561 107.84C340.104 108.377 339.724 108.674 339.173 109.129C339.789 109.643 340.129 109.919 340.561 110.432L340.567 110.426ZM337.588 109.123C336.006 108.459 334.341 108.447 333.447 109.099C334.343 109.758 336.009 109.762 337.588 109.123ZM343.548 109.123C345.127 109.764 346.792 109.759 347.689 109.099C346.794 108.447 345.129 108.459 343.548 109.123ZM347.091 108.021L342.15 100.519C342.646 102.388 342.689 104.829 340.985 107.291C341.465 107.854 342.044 108.331 342.709 108.714C344.7 107.648 346.133 107.687 347.091 108.02L347.091 108.021ZM340.567 98.2809C338.787 100.925 339.108 104.584 340.567 106.743C341.992 104.636 342.381 100.974 340.567 98.2809ZM334.029 108.043C334.992 107.703 336.436 107.648 338.425 108.714C339.091 108.331 339.669 107.854 340.15 107.291C338.45 104.834 338.471 102.422 338.954 100.567L334.031 108.041L334.029 108.043ZM338.892 117.461C338.459 115.165 339.027 112.619 340.151 110.986C339.669 110.415 339.09 109.93 338.423 109.541C336.448 110.576 335.019 110.525 334.06 110.19L338.893 117.461L338.892 117.461Z" fill="#96FFC1"/>
<path d="M332.166 96.9302L332.166 121.161L333.069 121.161L333.069 96.9302L332.166 96.9302Z" fill="#96FFC1"/>
<path d="M348.066 96.9302L348.066 121.161L348.969 121.161L348.969 96.9302L348.066 96.9302Z" fill="#96FFC1"/>
<path d="M332.58 121.161L339.05 121.161L332.58 111.316L332.58 121.161Z" fill="#96FFC1"/>
<path d="M332.58 96.9246L339.05 96.9246L332.58 106.77L332.58 96.9246Z" fill="#96FFC1"/>
<path d="M348.195 96.9246L341.725 96.9246L348.195 106.77L348.195 96.9246Z" fill="#96FFC1"/>
<path d="M348.195 121.161L341.725 121.161L348.195 111.316L348.195 121.161Z" fill="#96FFC1"/>
<path d="M340.567 96.9283L332.506 84.8655L340.568 72.6975L348.63 84.8655L340.568 96.9283L340.567 96.9283ZM340.567 87.3037C337.757 91.4858 340.559 95.7107 340.567 95.7473C340.575 95.7107 343.375 91.4813 340.567 87.3037ZM347.088 85.9366C346.125 86.2799 344.688 86.3425 342.711 85.308C342.044 85.6971 341.465 86.1823 340.982 86.7529C342.095 88.3718 342.679 90.9152 342.251 93.213L347.087 85.9351L347.088 85.9366ZM340.567 86.1945L340.573 86.2006C341.029 85.662 341.404 85.3629 341.963 84.8976C341.38 84.417 341.016 84.1286 340.573 83.6083L340.567 83.6144L340.561 83.6083C340.104 84.1454 339.724 84.4429 339.173 84.8976C339.789 85.4118 340.129 85.6879 340.561 86.2006L340.567 86.1945ZM337.588 84.8899C336.006 84.2262 334.341 84.214 333.447 84.8655C334.343 85.5247 336.009 85.5292 337.588 84.8899ZM343.548 84.8899C345.127 85.5308 346.792 85.5262 347.689 84.8655C346.794 84.214 345.129 84.2262 343.548 84.8899ZM347.091 83.7883L342.15 76.2862C342.646 78.1552 342.689 80.5965 340.985 83.0575C341.465 83.6205 342.044 84.0981 342.709 84.481C344.7 83.4145 346.133 83.4542 347.091 83.7868L347.091 83.7883ZM340.567 74.0478C338.787 76.692 339.108 80.3508 340.567 82.5098C341.992 80.4027 342.381 76.7408 340.567 74.0478ZM334.029 83.8097C334.992 83.4695 336.436 83.4145 338.425 84.481C339.091 84.0981 339.669 83.6205 340.15 83.0575C338.45 80.601 338.471 78.1888 338.954 76.335L334.031 83.8097L334.029 83.8097ZM338.892 93.2283C338.459 90.932 339.027 88.3855 340.151 86.7529C339.669 86.1823 339.09 85.6971 338.423 85.308C336.448 86.3425 335.019 86.2921 334.06 85.9565L338.893 93.2283L338.892 93.2283Z" fill="#96FFC1"/>
<path d="M332.166 72.6967L332.166 96.9274L333.069 96.9274L333.069 72.6967L332.166 72.6967Z" fill="#96FFC1"/>
<path d="M348.066 72.6967L348.066 96.9274L348.969 96.9274L348.969 72.6967L348.066 72.6967Z" fill="#96FFC1"/>
<path d="M332.58 96.9283L339.05 96.9283L332.58 87.0825L332.58 96.9283Z" fill="#96FFC1"/>
<path d="M332.58 72.6955L339.05 72.6955L332.58 82.5412L332.58 72.6955Z" fill="#96FFC1"/>
<path d="M348.195 72.6955L341.725 72.6955L348.195 82.5412L348.195 72.6955Z" fill="#96FFC1"/>
<path d="M348.195 96.9283L341.725 96.9283L348.195 87.0825L348.195 96.9283Z" fill="#96FFC1"/>
<path d="M340.567 72.6991L332.506 60.6364L340.568 48.4684L348.63 60.6364L340.568 72.6991L340.567 72.6991ZM340.567 63.0746C337.757 67.2567 340.559 71.4816 340.567 71.5182C340.575 71.4816 343.375 67.2521 340.567 63.0746ZM347.088 61.7075C346.125 62.0508 344.688 62.1134 342.711 61.0789C342.044 61.468 341.465 61.9531 340.982 62.5238C342.095 64.1411 342.679 66.6846 342.251 68.9839L347.087 61.706L347.088 61.7075ZM340.567 61.9654L340.573 61.9715C341.029 61.4329 341.404 61.1338 341.963 60.6685C341.38 60.1878 341.016 59.8995 340.573 59.3792L340.567 59.3853L340.561 59.3792C340.104 59.9162 339.724 60.2138 339.173 60.6685C339.789 61.1826 340.129 61.4588 340.561 61.9715L340.567 61.9654ZM337.588 60.6608C336.006 59.9971 334.341 59.9849 333.447 60.6364C334.343 61.2955 336.009 61.3001 337.588 60.6608ZM343.548 60.6608C345.127 61.3016 346.792 61.2971 347.689 60.6364C346.794 59.9849 345.129 59.9971 343.548 60.6608ZM347.091 59.5592L342.15 52.057C342.646 53.9261 342.689 56.3673 340.985 58.8284C341.465 59.3914 342.044 59.8689 342.709 60.2519C344.7 59.1854 346.133 59.2251 347.091 59.5577L347.091 59.5592ZM340.567 49.8187C338.787 52.4629 339.108 56.1217 340.567 58.2806C341.992 56.1735 342.381 52.5117 340.567 49.8187ZM334.029 59.5806C334.992 59.2403 336.436 59.1854 338.425 60.2534C339.091 59.8705 339.669 59.3929 340.15 58.8299C338.45 56.3734 338.471 53.9612 338.954 52.1074L334.031 59.5821L334.029 59.5806ZM338.892 68.9991C338.459 66.7029 339.027 64.1564 340.151 62.5238C339.669 61.9531 339.09 61.468 338.423 61.0789C336.448 62.1134 335.019 62.063 334.06 61.7273L338.893 68.9991L338.892 68.9991Z" fill="#96FFC1"/>
<path d="M332.166 48.4693L332.166 72.7001L333.069 72.7001L333.069 48.4693L332.166 48.4693Z" fill="#96FFC1"/>
<path d="M348.066 48.4693L348.066 72.7001L348.969 72.7001L348.969 48.4693L348.066 48.4693Z" fill="#96FFC1"/>
<path d="M332.58 72.6991L339.05 72.6991L332.58 62.8534L332.58 72.6991Z" fill="#96FFC1"/>
<path d="M332.58 48.4663L339.05 48.4663L332.58 58.3121L332.58 48.4663Z" fill="#96FFC1"/>
<path d="M348.195 48.4663L341.725 48.4663L348.195 58.3121L348.195 48.4663Z" fill="#96FFC1"/>
<path d="M348.195 72.6991L341.725 72.6991L348.195 62.8534L348.195 72.6991Z" fill="#96FFC1"/>
<path d="M340.567 48.4661L332.506 36.4034L340.568 24.2354L348.63 36.4034L340.568 48.4661L340.567 48.4661ZM340.567 38.8415C337.757 43.0237 340.559 47.2485 340.567 47.2851C340.575 47.2485 343.375 43.0191 340.567 38.8415ZM347.088 37.4744C346.125 37.8177 344.688 37.8803 342.711 36.8458C342.044 37.2349 341.465 37.7201 340.982 38.2907C342.095 39.908 342.679 42.453 342.251 44.7508L347.087 37.4729L347.088 37.4744ZM340.567 37.7323L340.573 37.7384C341.029 37.1998 341.404 36.9007 341.963 36.4354C341.38 35.9548 341.016 35.6664 340.573 35.1461L340.567 35.1522L340.561 35.1461C340.104 35.6832 339.724 35.9807 339.173 36.4354C339.789 36.9496 340.129 37.2257 340.561 37.7384L340.567 37.7323ZM337.588 36.4278C336.006 35.764 334.341 35.7518 333.447 36.4034C334.343 37.0625 336.009 37.067 337.588 36.4278ZM343.548 36.4278C345.127 37.0686 346.792 37.064 347.689 36.4034C346.794 35.7519 345.129 35.764 343.548 36.4278ZM347.091 35.3262L342.15 27.824C342.646 29.693 342.689 32.1342 340.985 34.5953C341.465 35.1583 342.044 35.6359 342.709 36.0189C344.7 34.9523 346.133 34.992 347.091 35.3246L347.091 35.3262ZM340.567 25.5857C338.787 28.2298 339.108 31.8886 340.567 34.0476C341.992 31.9405 342.381 28.2786 340.567 25.5857ZM334.029 35.3475C334.992 35.0073 336.436 34.9523 338.425 36.0189C339.091 35.6359 339.669 35.1583 340.15 34.5953C338.45 32.1388 338.471 29.7266 338.954 27.8728L334.031 35.3475L334.029 35.3475ZM338.892 44.7661C338.459 42.4698 339.027 39.9233 340.151 38.2907C339.669 37.7201 339.09 37.2349 338.423 36.8458C336.448 37.8803 335.019 37.8299 334.06 37.4943L338.893 44.7661L338.892 44.7661Z" fill="#96FFC1"/>
<path d="M332.166 24.236L332.166 48.4667L333.069 48.4667L333.069 24.236L332.166 24.236Z" fill="#96FFC1"/>
<path d="M348.066 24.236L348.066 48.4667L348.969 48.4667L348.969 24.236L348.066 24.236Z" fill="#96FFC1"/>
<path d="M332.58 48.4661L339.05 48.4661L332.58 38.6203L332.58 48.4661Z" fill="#96FFC1"/>
<path d="M332.58 24.2293L339.05 24.2293L332.58 34.0751L332.58 24.2293Z" fill="#96FFC1"/>
<path d="M348.195 24.2293L341.725 24.2293L348.195 34.0751L348.195 24.2293Z" fill="#96FFC1"/>
<path d="M348.195 48.4661L341.725 48.4661L348.195 38.6203L348.195 48.4661Z" fill="#96FFC1"/>
<path d="M340.567 24.235L332.506 12.1722L340.568 0.0042546L348.63 12.1723L340.568 24.235L340.567 24.235ZM340.567 14.6104C337.757 18.7926 340.559 23.0174 340.567 23.054C340.575 23.0174 343.375 18.788 340.567 14.6104ZM347.088 13.2433C346.125 13.5866 344.688 13.6492 342.711 12.6147C342.044 13.0038 341.465 13.489 340.982 14.0596C342.095 15.6785 342.679 18.2219 342.251 20.5197L347.087 13.2418L347.088 13.2433ZM340.567 13.5012L340.573 13.5073C341.029 12.9687 341.404 12.6696 341.963 12.2043C341.38 11.7237 341.016 11.4353 340.573 10.915L340.567 10.9211L340.561 10.915C340.104 11.4521 339.724 11.7496 339.173 12.2043C339.789 12.7185 340.129 12.9946 340.561 13.5073L340.567 13.5012ZM337.588 12.1982C336.006 11.5345 334.341 11.5223 333.447 12.1738C334.343 12.8329 336.009 12.8375 337.588 12.1982ZM343.548 12.1982C345.127 12.839 346.792 12.8344 347.689 12.1738C346.794 11.5223 345.129 11.5345 343.548 12.1982ZM347.091 11.0951L342.15 3.59286C342.646 5.46193 342.689 7.90316 340.985 10.3642C341.465 10.9272 342.044 11.4048 342.709 11.7878C344.7 10.7212 346.133 10.7609 347.091 11.0935L347.091 11.0951ZM340.567 1.35457C338.787 3.99873 339.108 7.65751 340.567 9.81648C341.992 7.70939 342.381 4.04755 340.567 1.35457ZM334.029 11.1164C334.992 10.7762 336.436 10.7212 338.425 11.7878C339.091 11.4048 339.669 10.9272 340.15 10.3642C338.45 7.90773 338.471 5.49549 338.954 3.64168L334.031 11.1164L334.029 11.1164ZM338.892 20.535C338.459 18.2387 339.027 15.6922 340.151 14.0596C339.669 13.489 339.09 13.0038 338.423 12.6147C336.448 13.6492 335.019 13.5988 334.06 13.2632L338.893 20.535L338.892 20.535Z" fill="#96FFC1"/>
<path d="M332.166 0.00456429L332.166 24.2353L333.069 24.2353L333.069 0.00456442L332.166 0.00456429Z" fill="#96FFC1"/>
<path d="M348.066 0.00456429L348.066 24.2353L348.969 24.2353L348.969 0.00456442L348.066 0.00456429Z" fill="#96FFC1"/>
<path d="M332.58 24.235L339.05 24.235L332.58 14.3892L332.58 24.235Z" fill="#96FFC1"/>
<path d="M332.58 0.00261784L339.05 0.00261881L332.58 9.84993L332.58 0.00261784Z" fill="#96FFC1"/>
<path d="M348.195 0.00261834L341.725 0.00261736L348.195 9.84993L348.195 0.00261834Z" fill="#96FFC1"/>
<path d="M348.195 24.235L341.725 24.235L348.195 14.3892L348.195 24.235Z" fill="#96FFC1"/>
</g>
<defs>
<filter id="filter0_d_2893_19941" x="0" y="0" width="352" height="336" filterUnits="userSpaceOnUse" color-interpolation-filters="sRGB">
<feFlood flood-opacity="0" result="BackgroundImageFix"/>
<feColorMatrix in="SourceAlpha" type="matrix" values="0 0 0 0 0 0 0 0 0 0 0 0 0 0 0 0 0 0 127 0" result="hardAlpha"/>
<feOffset dy="3"/>
<feGaussianBlur stdDeviation="1.5"/>
<feComposite in2="hardAlpha" operator="out"/>
<feColorMatrix type="matrix" values="0 0 0 0 0 0 0 0 0 0 0 0 0 0 0 0 0 0 0.25 0"/>
<feBlend mode="normal" in2="BackgroundImageFix" result="effect1_dropShadow_2893_19941"/>
<feBlend mode="normal" in="SourceGraphic" in2="effect1_dropShadow_2893_19941" result="shape"/>
</filter>
</defs>
</svg>
