<svg width="37" height="37" viewBox="0 0 37 37" fill="none" xmlns="http://www.w3.org/2000/svg">
<circle cx="18.5" cy="18.5" r="18.5" fill="#B3D2FE"/>
<path d="M29.1804 22.8187C29.9021 23.4756 30.0398 24.4124 29.5368 25.2493C29.256 25.4104 29.0463 25.2106 28.8366 25.0909C26.811 23.9309 24.7781 22.7818 22.7498 21.6254C22.4636 21.4625 22.1846 21.2862 21.8886 21.1422C21.3621 20.8857 20.9185 20.9721 20.7043 21.3618C20.4767 21.7775 20.6413 22.222 21.1588 22.5109C22.5446 23.283 23.9124 24.0866 25.3019 24.8533C25.5781 25.0054 25.8445 25.1719 26.0956 25.3618C26.2063 25.4455 26.3682 25.5147 26.3097 25.71C26.9343 26.429 27.0162 27.2038 26.5545 28.038C26.325 28.1865 26.1568 28.0146 25.9831 27.9184C24.1977 26.9231 22.4258 25.9053 20.6404 24.91C20.51 24.8371 20.3831 24.7579 20.2373 24.7192C19.6461 24.5645 19.2267 24.8686 19.1907 25.477C19.1817 25.6362 19.2366 25.8099 19.0908 25.9404C18.5671 26.0907 18.0002 26.0646 17.507 26.348C17.3747 26.4236 17.2434 26.3336 17.2047 26.1762C17.1723 26.0466 17.1579 25.9125 17.1156 25.7856C16.9905 25.0954 16.6386 24.5744 15.988 24.2765C15.3266 24.0668 14.7111 24.1568 14.1387 24.551C14.0415 24.6176 13.9372 24.6751 13.8094 24.6464C13.6861 24.5501 13.7068 24.4124 13.705 24.281C13.6924 23.4513 13.3198 22.8457 12.5738 22.4758C12.033 22.2859 11.5075 22.3102 10.9873 22.5577C10.8415 22.627 10.6787 22.7701 10.5104 22.5829C10.4411 22.4398 10.478 22.2913 10.4888 22.1447C10.5545 21.2358 10.2206 20.5519 9.37202 20.1577C8.27325 19.8715 7.61633 20.137 6.99271 21.1008C6.87302 21.2853 6.82173 21.5588 6.51847 21.5633C6.19991 21.1215 6.16121 20.586 6.08112 20.0812C5.94344 19.22 5.53129 18.6639 4.69079 18.348C3.70451 17.9773 2.75513 17.5075 1.79405 17.072C1.04894 16.7345 0.810465 16.1208 1.15422 15.3847C2.09911 13.3635 3.05569 11.3487 4.00777 9.33113C4.50001 8.93247 5.05435 9.04226 5.59248 9.17094C6.11982 9.29783 6.58776 9.5768 7.0566 9.84406C8.44603 10.6369 9.90745 11.1552 11.5408 11.0472C12.2598 10.9995 12.9608 10.8429 13.6672 10.7188C14.4348 10.5838 15.2042 10.465 15.9862 10.5208C16.3084 10.5442 16.6539 10.5343 16.8879 10.8294C16.9842 11.0652 16.8078 11.1822 16.6728 11.3181C15.4949 12.5005 14.145 13.4598 12.734 14.3381C11.9691 14.8142 11.9574 14.8466 12.5756 15.4927C12.6377 15.5575 12.7016 15.6205 12.7637 15.6852C14.0181 16.7318 15.4193 16.9487 16.9725 16.4951C18.0821 16.1712 19.1385 15.7131 20.2112 15.2974C21.1768 14.923 22.1604 14.7296 23.1961 14.8789C24.1851 15.1318 25.0058 15.7266 25.8769 16.2162C27.0378 16.8677 28.2022 17.5129 29.3415 18.2022C29.8373 18.5091 30.3763 18.7467 30.8461 19.0904C31.1683 19.3262 31.5849 19.5296 31.539 20.0479C31.7883 20.6616 31.7937 21.2601 31.4247 21.8342C31.108 21.9962 30.8749 21.7685 30.6445 21.6353C28.9338 20.6472 27.1997 19.6988 25.4935 18.7008C25.3127 18.5946 25.1381 18.4758 24.9311 18.4245C24.5298 18.3255 24.168 18.4776 24.0168 18.8052C23.862 19.1399 23.9538 19.5287 24.2751 19.7644C24.6863 20.0659 25.1435 20.2945 25.588 20.542C26.6076 21.1107 27.6191 21.6938 28.6378 22.2643C28.8699 22.3948 29.1201 22.5208 29.1858 22.8214L29.1804 22.8187Z" fill="#FAD6C3"/>
<path d="M12.6236 15.7192C11.6787 14.912 11.6994 14.8166 12.7154 14.1777C14.0275 13.3534 15.3017 12.4733 16.3996 11.3656C16.5453 11.2189 16.7037 11.0848 16.8567 10.9444C17.0232 10.5035 17.4047 10.2461 17.7332 9.95184C17.9861 9.72597 18.2461 9.49559 18.5629 9.35161C18.733 9.4344 18.8455 9.30482 18.9616 9.22833C20.728 8.07107 22.5899 7.88479 24.5535 8.6578C25.2608 8.93586 25.9699 9.20943 26.6853 9.4632C27.5474 9.76916 28.378 9.70437 29.1816 9.23463C29.7998 8.87377 30.4369 8.54621 31.0741 8.21775C31.812 7.838 32.4842 8.07377 32.7875 8.84317C33.5452 10.7689 34.2822 12.7019 35.0282 14.6331C35.2055 15.4304 35.003 15.91 34.311 16.3222C34.0923 16.4526 33.8619 16.5633 33.6244 16.6551C32.3825 17.1375 31.1596 17.6666 29.9213 18.1579C29.7125 18.2407 29.5038 18.3217 29.2743 18.3172C27.6806 17.4056 26.0905 16.4868 24.4896 15.5869C24.0891 15.362 23.6563 15.1937 23.2378 14.9993C21.5919 14.1075 19.8956 13.8673 18.1031 14.5449C17.2635 14.8616 16.4392 15.2198 15.5798 15.4862C14.6097 15.7867 13.6315 15.9469 12.6209 15.7192H12.6236Z" fill="#D6B4A8"/>
<path d="M18.5653 9.35153C18.5347 9.41812 18.523 9.51261 18.4708 9.5459C17.8678 9.93736 17.4035 10.4881 16.8582 10.9434C16.5954 10.6609 16.2381 10.6996 15.907 10.6789C14.8388 10.6132 13.7976 10.8354 12.7655 11.0541C10.6426 11.5041 8.71326 11.0325 6.89548 9.93646C6.00189 9.39832 5.07411 9.03297 4.00684 9.32633C4.25701 8.7747 4.48828 8.21317 4.76364 7.67413C5.0831 7.04601 5.69143 6.83813 6.34835 7.1297C7.33733 7.56885 8.34251 7.98189 9.29009 8.50023C10.4554 9.13735 11.6325 9.15625 12.8726 8.84129C13.8084 8.60372 14.7479 8.39224 15.7306 8.41744C16.7781 8.44444 17.7077 8.7747 18.5653 9.35153Z" fill="#EFBCA8"/>
<path d="M26.3098 25.7088C25.6007 25.0969 24.7386 24.7333 23.9449 24.2591C22.9703 23.6759 21.9678 23.1396 20.977 22.5844C20.4821 22.3072 20.3021 21.8033 20.5307 21.3272C20.7548 20.8602 21.2776 20.6667 21.7878 20.9313C22.5959 21.3515 23.3806 21.8177 24.1734 22.2676C25.8103 23.1981 27.4454 24.1322 29.0832 25.06C29.2245 25.14 29.3847 25.1859 29.5368 25.248C29.0697 26.1164 27.9854 26.4305 27.0333 25.9958C26.7984 25.8888 26.6121 25.6458 26.3089 25.7088H26.3098Z" fill="#EFBCA8"/>
<path d="M29.2765 18.3179C29.8417 17.9373 30.5031 17.7789 31.1195 17.5143C32.068 17.1076 33.0246 16.7215 33.9785 16.3301C34.7398 16.0178 35.07 15.441 35.0304 14.6338C35.4012 15.4068 35.6892 16.2131 35.9708 17.0203C36.1868 17.6376 35.8547 18.2036 35.16 18.497C34.0163 18.9802 32.8689 19.4572 31.7242 19.9377C31.6576 19.9656 31.5974 20.0079 31.5344 20.0439C31.1807 19.3033 30.4509 19.0243 29.8102 18.6356C29.6329 18.5285 29.4538 18.4241 29.2756 18.3179H29.2765Z" fill="#CDA594"/>
<path d="M29.1802 22.8185C28.0778 22.0167 26.8324 21.457 25.6724 20.7532C25.2261 20.4824 24.7626 20.2385 24.31 19.9775C23.7961 19.6815 23.6216 19.155 23.8771 18.6844C24.1255 18.2281 24.6861 18.0761 25.2054 18.3631C26.1332 18.877 27.0393 19.4277 27.9689 19.937C29.1199 20.5688 30.2106 21.3076 31.42 21.8313C31.0448 22.5233 30.2321 22.9202 29.4807 22.7807C29.3773 22.7618 29.2603 22.6466 29.1802 22.8194V22.8185Z" fill="#EFBCA8"/>
<path d="M10.5586 22.5492C11.0275 22.425 11.4387 22.1019 11.9688 22.1829C12.2027 22.2189 12.4358 22.2234 12.6392 22.3611C12.7454 22.6932 12.6995 23.0153 12.5447 23.3168C11.6808 25.0059 10.8385 26.7049 9.92603 28.3688C9.67496 28.8268 9.39779 28.9429 8.94785 28.8457C8.03176 28.0736 7.94357 27.0837 8.68418 25.877C8.65808 25.6637 8.70488 25.4684 8.81646 25.284C9.3159 24.4579 9.77754 23.6102 10.2761 22.785C10.3409 22.6779 10.3796 22.5258 10.5586 22.5492Z" fill="#D6B4A8"/>
<path d="M19.1052 25.8727C18.9315 25.4011 19.0026 24.9539 19.413 24.6713C19.7945 24.4086 20.213 24.4877 20.6287 24.7271C22.5401 25.8259 24.464 26.9012 26.3844 27.9838C26.4348 28.0126 26.4969 28.0198 26.5545 28.0369C25.9759 28.9521 24.9743 29.2383 24.0114 28.7577C23.6028 28.5534 23.1997 28.3375 22.7947 28.126C22.6391 28.2547 22.5158 28.1431 22.3997 28.0612C21.7698 27.6194 21.0858 27.2711 20.4154 26.8995C20.1104 26.6565 19.8917 26.3082 19.5101 26.1588C19.3653 26.0778 19.1781 26.0554 19.1061 25.8718L19.1052 25.8727Z" fill="#EFBCA8"/>
<path d="M8.94751 28.8453C9.32366 28.8021 9.62333 28.6509 9.8069 28.2945C10.633 26.6909 11.4492 25.0819 12.3086 23.4963C12.5093 23.1265 12.4688 22.7197 12.6389 22.3598C13.5082 22.6936 13.9491 23.5377 13.8105 24.6059C13.9104 24.8156 13.7817 24.983 13.7025 25.1548C13.3885 25.8351 12.9799 26.4669 12.6623 27.1463C12.4346 27.6331 12.1349 28.0912 12.1268 28.6563C12.1259 28.7445 12.0773 28.8291 11.9873 28.8723C11.8767 28.7454 11.9432 28.5816 11.8749 28.3791C11.5077 28.8615 11.056 29.1962 10.4818 29.2772C9.92029 29.3564 9.38126 29.2637 8.94841 28.8435L8.94751 28.8453Z" fill="#CDA594"/>
<path d="M11.9864 28.8735C11.8991 27.8422 12.5777 27.089 12.9601 26.2314C13.2076 25.6744 13.5243 25.1479 13.8105 24.608C14.4782 24.0528 15.2062 23.8071 16.0539 24.1653C16.1799 24.4271 16.1583 24.6881 16.0395 24.9428C15.2989 26.5239 14.4683 28.0591 13.644 29.597C13.4712 29.9192 13.2319 30.289 12.7324 30.1036C12.3032 29.804 12.0413 29.4017 11.9864 28.8744V28.8735Z" fill="#D6B4A8"/>
<path d="M19.1045 25.8727C19.262 25.9176 19.4285 25.941 19.5608 26.0517C19.6742 26.3757 19.5761 26.6745 19.4321 26.957C18.6798 28.4346 17.9203 29.9087 17.1482 31.3764C17.0141 31.631 16.8602 31.8911 16.4921 31.7291C15.7947 31.3278 15.5113 30.706 15.5266 29.924C15.4312 29.6315 15.5167 29.3687 15.6552 29.1141C15.9756 28.5246 16.3014 27.9388 16.5911 27.3341C16.8089 26.8805 17.1014 26.4549 17.0906 25.9185C17.0888 25.8304 17.1374 25.7467 17.2202 25.6954C17.3821 25.852 17.2453 26.0778 17.3857 26.3145C17.8762 25.8565 18.4872 25.8493 19.1036 25.8727H19.1045Z" fill="#D6B4A8"/>
<path d="M6.51596 21.5594C6.65815 21.3344 6.80483 21.1113 6.94251 20.8827C7.44555 20.0485 8.49842 19.6012 9.39291 20.0341C9.68537 20.3643 9.55219 20.7108 9.40731 21.0402C9.16704 21.5882 8.83588 22.0885 8.54251 22.6078C8.06557 23.4528 7.61473 24.3131 7.08739 25.1284C6.77243 25.6152 6.49527 25.7358 6.06872 25.6062C5.3722 24.8701 5.25702 24.0836 5.69886 23.19C5.96793 22.6447 6.32609 22.1443 6.51596 21.5594Z" fill="#D6B4A8"/>
<path d="M17.222 25.6941C17.2652 26.1954 17.1609 26.648 16.8945 27.0889C16.5426 27.673 16.2529 28.2957 15.9343 28.8995C15.7615 29.2262 15.5986 29.5555 15.5285 29.9218C15.3548 29.7706 15.317 29.9893 15.245 30.046C14.4171 30.6876 13.474 30.7137 12.7334 30.1018C13.1959 30.064 13.4344 29.7346 13.6207 29.3747C14.382 27.906 15.119 26.4257 15.8893 24.9625C16.0288 24.697 15.9127 24.41 16.054 24.1643C16.7388 24.4487 17.124 24.9625 17.222 25.695V25.6941Z" fill="#CDA594"/>
<path d="M6.06812 25.607C6.45957 25.5953 6.75923 25.4144 6.95091 25.0823C7.68882 23.8018 8.41323 22.5131 9.15384 21.2344C9.37251 20.8555 9.4697 20.4659 9.39231 20.0349C10.3903 20.3606 10.8816 21.4207 10.5568 22.55C10.0564 23.4247 9.55429 24.2985 9.05665 25.175C8.92527 25.4054 8.80738 25.643 8.6832 25.8778C8.52482 25.7707 8.42943 25.9228 8.31604 25.9759C7.53854 26.3422 6.67644 26.2045 6.06812 25.6088V25.607Z" fill="#CDA594"/>
<path d="M16.4932 31.7282C16.7631 31.7435 16.8891 31.5707 16.9989 31.3583C17.7719 29.8555 18.5449 28.3527 19.3305 26.8562C19.4664 26.5979 19.398 26.2938 19.5618 26.0508C19.9667 26.1588 20.1827 26.4953 20.4446 26.7779C20.9917 27.4186 21.0079 28.062 20.5022 28.9961C20.2034 29.5747 19.9082 30.157 19.56 30.7086C19.3359 30.7068 19.3332 30.9147 19.2549 31.0425C18.6466 32.0413 17.3958 32.3545 16.4932 31.7282Z" fill="#CDA594"/>
<path d="M20.3643 29.0258C20.7629 28.2896 20.7971 27.5409 20.4443 26.7778C21.2003 27.163 21.9715 27.5193 22.6257 28.0764C22.6662 28.1106 22.7373 28.1097 22.794 28.125C23.1116 28.6316 23.3645 29.1526 23.261 29.7835C23.2187 30.0372 23.1557 30.2721 22.982 30.4674C22.8471 30.5448 22.7193 30.4944 22.6032 30.4287C21.9193 30.0444 21.2381 29.6548 20.5613 29.2579C20.4713 29.2048 20.3967 29.1319 20.3661 29.0258H20.3643Z" fill="#F5DCCD"/>
<path d="M20.3642 29.0256C21.2361 29.5061 22.109 29.9867 22.981 30.4672C22.6121 31.3104 21.5187 31.6991 20.608 31.2879C20.2454 31.1241 19.9079 30.9036 19.5588 30.7084C19.4688 30.5473 19.5749 30.424 19.6442 30.2989C19.8809 29.8724 20.1239 29.4494 20.3642 29.0256Z" fill="#EFBCA8"/>
<path d="M12.6238 15.7192C12.7282 15.6031 12.8703 15.6094 13.0008 15.6265C14.4056 15.8119 15.6717 15.3224 16.9325 14.8193C18.1293 14.3415 19.3235 13.8852 20.6553 13.9986C21.584 14.0778 22.4236 14.3883 23.2182 14.8526C23.2767 14.8868 23.2947 14.9417 23.2416 15.0002C21.6848 14.8031 20.316 15.415 18.9266 15.9739C17.737 16.4526 16.5392 16.944 15.2164 16.8792C14.2058 16.8297 13.3428 16.4319 12.6247 15.7192H12.6238Z" fill="#CDA594"/>
</svg>
