<svg width="310" height="367" viewBox="0 0 310 367" fill="none" xmlns="http://www.w3.org/2000/svg">
<g filter="url(#filter0_d_2953_12974)">
<path d="M2.00024 76C2.00024 64.9543 10.9546 56 22.0002 56H288C299.046 56 308 64.9543 308 76V363H2.00024V76Z" fill="#FEB7D3"/>
<path d="M63.125 271.559H59.375L53.4688 263.59H49.0625V271.559H46.1562V252.34H55.0625C59.375 252.465 61.6562 254.309 61.9062 257.871C61.9062 261.121 60.125 262.965 56.5625 263.402L63.125 271.559ZM49.0625 254.684V261.246H54.4062C57.4062 261.246 58.875 260.152 58.8125 257.965C58.8125 255.777 57.3438 254.684 54.4062 254.684H49.0625ZM74.5625 252.34L82.25 271.559H79.0625L77.0938 266.402H68.5625L66.5938 271.559H63.4062L71.0938 252.34H74.5625ZM72.875 254.871H72.7812C72.5938 255.434 72.4062 255.996 72.2188 256.559C72.1562 256.684 71.1875 259.184 69.3125 264.059H76.3438C74.4688 259.184 73.5 256.684 73.4375 256.559C73.4375 256.496 73.4062 256.371 73.3438 256.184C73.0312 255.434 72.875 254.996 72.875 254.871ZM93.0312 271.559H84.3125V252.34H92.5625C96.625 252.465 98.7812 253.996 99.0312 256.934C98.9688 259.371 97.6562 260.871 95.0938 261.434C95.0938 261.434 95.0938 261.465 95.0938 261.527C98.0312 262.027 99.625 263.559 99.875 266.121C99.875 269.746 97.5938 271.559 93.0312 271.559ZM92.375 262.84H87.2188V269.402H92.5625C95.3125 269.402 96.6875 268.246 96.6875 265.934C96.5625 263.934 95.125 262.902 92.375 262.84ZM92 254.59H87.2188V260.496H92C94.5625 260.434 95.875 259.402 95.9375 257.402C95.875 255.527 94.5625 254.59 92 254.59ZM103.531 271.559V252.34H106.438V271.559H103.531ZM112.625 252.059L112.25 258.996H110.375L109.906 252.059H112.625ZM131.75 252.34L139.438 271.559H136.25L134.281 266.402H125.75L123.781 271.559H120.594L128.281 252.34H131.75ZM130.062 254.871H129.969C129.781 255.434 129.594 255.996 129.406 256.559C129.344 256.684 128.375 259.184 126.5 264.059H133.531C131.656 259.184 130.688 256.684 130.625 256.559C130.625 256.496 130.594 256.371 130.531 256.184C130.219 255.434 130.062 254.996 130.062 254.871ZM154.625 271.559H141.5V252.34H144.406V269.309H154.625V271.559ZM170.281 263.121H157.156V261.059H170.281V263.121ZM188.562 254.777H182V271.559H179.094V254.777H172.438V252.34H188.562V254.777ZM207.5 271.559H204.5V263.027H194.281V271.559H191.375V252.34H194.281V260.496H204.5V252.34H207.5V271.559ZM220.719 252.34L228.406 271.559H225.219L223.25 266.402H214.719L212.75 271.559H209.562L217.25 252.34H220.719ZM219.031 254.871H218.938C218.75 255.434 218.562 255.996 218.375 256.559C218.312 256.684 217.344 259.184 215.469 264.059H222.5C220.625 259.184 219.656 256.684 219.594 256.559C219.594 256.496 219.562 256.371 219.5 256.184C219.188 255.434 219.031 254.996 219.031 254.871ZM230.656 252.34H234.125L243.875 268.09H243.969V252.34H246.781V271.559H243.406L233.469 255.715V271.559H230.656V252.34ZM251.188 271.559V252.34H254.094V271.559H251.188Z" fill="#242424"/>
<path d="M193.469 175.381C189.669 173.971 186.459 172.781 183.089 171.531C182.959 165.871 184.999 163.241 190.909 162.961C195.209 162.751 199.579 163.021 203.859 163.521C210.419 164.291 211.329 166.691 207.199 171.861C206.009 173.351 204.339 174.471 202.889 175.761C207.879 182.641 209.929 182.381 224.999 172.851C225.969 174.391 226.829 176.011 227.919 177.461C231.519 182.251 238.069 182.481 241.649 177.741C242.319 176.851 241.959 174.681 241.389 173.421C239.739 169.801 237.569 166.421 235.959 162.791C235.279 161.261 235.469 159.341 235.269 157.591C235.909 157.401 236.549 157.221 237.189 157.031C237.929 159.391 238.529 161.811 239.449 164.101C239.989 165.441 241.029 166.581 241.839 167.821C247.159 175.941 242.239 186.651 232.509 186.761C229.049 186.801 225.549 183.461 222.069 181.661C222.249 181.271 222.429 180.881 222.619 180.491C222.139 180.561 221.499 180.461 221.189 180.731C213.719 187.171 206.119 187.441 198.049 181.701C197.089 181.021 194.479 181.491 193.399 182.371C188.229 186.601 184.749 191.991 183.519 198.691C182.019 206.891 185.339 212.721 193.159 215.581C203.269 219.271 213.519 218.051 223.789 216.551C225.499 216.301 227.209 216.021 229.019 216.221C220.269 220.271 211.639 224.421 201.559 223.551C187.909 222.361 180.819 214.181 181.829 200.521C182.399 192.801 184.879 185.881 190.009 179.991C190.969 178.881 191.779 177.641 193.459 175.391L193.469 175.381ZM192.849 167.451C192.749 167.961 192.659 168.471 192.559 168.981C195.299 171.161 197.949 174.241 202.219 168.771C198.549 168.251 195.699 167.851 192.849 167.441V167.451Z" fill="#870237"/>
<path d="M146.08 190.5C144.51 196.23 140.14 197.38 134.97 197.49C131.08 197.58 127.2 197.99 123.31 198.25C123.22 198.74 123.12 199.23 123.03 199.73C125.76 201.31 128.59 202.75 131.21 204.51C136.38 207.97 136.26 215.3 130.53 217.83C104.27 229.4 78.2 228.46 52.59 215.57C50.8 214.67 49.38 213.04 48 211.32C76.16 220.75 104.12 224.26 132.11 212.89C132.24 212.17 132.37 211.45 132.51 210.73C129.84 209.3 127.04 208.07 124.56 206.36C122.71 205.09 119.64 202.29 119.95 201.72C121.67 198.57 123.83 195.28 126.7 193.27C128.76 191.83 132.17 192.33 134.97 191.97C138.7 191.49 142.42 191.02 146.15 190.54L146.09 190.5H146.08Z" fill="#870237"/>
<path d="M150.012 161.11C150.382 159.73 151.122 156.92 151.872 154.11C152.372 154.07 152.872 154.04 153.372 154C154.202 158.43 155.322 162.82 155.812 167.29C157.122 179.06 158.142 190.85 159.312 202.63C159.462 204.12 159.442 205.82 160.182 207.01C162.032 209.97 163.712 213.9 166.502 215.22C170.302 217.02 174.062 214.32 177.062 211.16C174.542 204.77 167.922 200.02 169.952 190.77C174.192 197.66 178.002 203.73 177.992 211.06C177.992 216.91 172.272 221.59 166.572 221.5C161.932 221.43 159.222 218.4 158.372 211.97C156.352 196.77 154.462 181.55 152.402 166.36C152.212 164.96 151.212 163.67 150.012 161.11Z" fill="#870237"/>
<path d="M230.82 196.589C231.94 207.069 236.96 211.219 246.64 207.549C252.9 205.169 258.33 200.249 263.58 195.809C264.65 194.909 263.68 190.939 262.9 188.649C261.43 184.299 259.41 180.129 258.24 175.629C265.87 179.899 269.14 193.149 264.82 200.239C260.31 207.649 253.76 212.629 245.32 214.829C237.34 216.909 232.25 213.669 230.9 205.559C230.42 202.649 230.82 199.599 230.82 196.609V196.589Z" fill="#870237"/>
<path d="M218.601 195.549C218.911 197.119 219.221 198.679 219.521 200.249H214.551L214.361 199.389C212.901 200.389 211.441 201.389 209.841 202.479C208.671 201.409 207.581 200.429 206.301 199.269C207.181 198.109 207.941 197.099 208.911 195.839C211.811 197.479 214.791 199.809 217.451 194.609C217.831 194.919 218.221 195.239 218.601 195.549Z" fill="#870237"/>
<path d="M146.14 190.54C144.44 187.02 142.56 183.57 141.14 179.94C140.62 178.6 141.21 176.82 141.35 174.27C147.77 179.26 146.04 185.07 146.06 190.47C146.08 190.5 146.14 190.54 146.14 190.54Z" fill="#870237"/>
<path d="M209.262 161.231C211.462 159.721 213.662 158.211 216.332 156.371C217.322 156.731 219.012 157.331 220.702 157.931C220.782 158.461 220.872 158.991 220.952 159.521C217.062 160.411 213.182 161.301 209.292 162.201C209.282 161.881 209.272 161.561 209.262 161.231Z" fill="#870237"/>
<path d="M144.761 166.211C144.001 167.401 143.231 168.611 142.311 170.051C140.611 169.271 139.151 168.611 137.711 167.951C139.631 162.741 139.691 162.721 144.751 166.211H144.761Z" fill="#870237"/>
<path d="M243.291 199.541C242.021 198.371 240.751 197.201 239.211 195.781C240.691 194.631 241.801 193.771 242.941 192.871C246.261 194.951 247.501 196.921 243.291 199.531V199.541Z" fill="#870237"/>
<path d="M168.878 174.01C167.278 172.52 166.208 171.52 165.148 170.53C167.202 168.196 169.562 168.296 172.228 170.83C171.198 171.81 170.178 172.77 168.878 174.01Z" fill="#870237"/>
<path d="M169.58 179.112C170.57 177.712 171.56 176.322 173.14 174.102C174.62 175.732 175.67 176.882 176.63 177.952C174.37 183.262 171.84 179.832 169.5 178.982L169.58 179.112Z" fill="#870237"/>
<path d="M169.5 178.978C168.4 179.958 167.31 180.928 165.89 182.188C164.6 181.148 163.4 180.188 161.98 179.048C162.98 177.778 163.75 176.788 164.85 175.398C166.55 176.728 168.05 177.908 169.57 179.098L169.5 178.978Z" fill="#870237"/>
<g filter="url(#filter1_d_2953_12974)">
<circle cx="64" cy="64" r="64" transform="matrix(-1 0 0 1 219 0)" fill="url(#paint0_radial_2953_12974)"/>
<g filter="url(#filter2_d_2953_12974)">
<path d="M192.922 45.0966V97.5462C192.922 101.108 190.031 103.996 186.465 103.996H122.762C119.196 103.996 116.305 101.108 116.305 97.5462V45.0966L118.363 43.0001H190.582L192.922 45.0966Z" fill="white"/>
<path d="M192.922 33.4646V44.8409H116.305V33.4646C116.305 29.8879 119.173 26.9883 122.71 26.9883H186.517C190.054 26.9883 192.922 29.8879 192.922 33.4641L192.922 33.4646Z" fill="url(#paint1_linear_2953_12974)"/>
<path d="M129.127 36.3625C130.431 36.3625 131.488 35.3055 131.488 34.0016C131.488 32.6977 130.431 31.6406 129.127 31.6406C127.823 31.6406 126.766 32.6977 126.766 34.0016C126.766 35.3055 127.823 36.3625 129.127 36.3625Z" fill="url(#paint2_radial_2953_12974)"/>
<path d="M129.13 23.8164H129.129C128.342 23.8164 127.703 24.4548 127.703 25.2422V33.1849C127.703 33.9723 128.342 34.6107 129.129 34.6107H129.13C129.917 34.6107 130.556 33.9723 130.556 33.1849V25.2422C130.556 24.4548 129.917 23.8164 129.13 23.8164Z" fill="url(#paint3_linear_2953_12974)"/>
<path d="M146.096 36.3625C147.399 36.3625 148.457 35.3055 148.457 34.0016C148.457 32.6977 147.399 31.6406 146.096 31.6406C144.792 31.6406 143.735 32.6977 143.735 34.0016C143.735 35.3055 144.792 36.3625 146.096 36.3625Z" fill="url(#paint4_radial_2953_12974)"/>
<path d="M146.098 23.8164H146.098C145.31 23.8164 144.672 24.4548 144.672 25.2422V33.1849C144.672 33.9723 145.31 34.6107 146.098 34.6107H146.098C146.886 34.6107 147.524 33.9723 147.524 33.1849V25.2422C147.524 24.4548 146.886 23.8164 146.098 23.8164Z" fill="url(#paint5_linear_2953_12974)"/>
<path d="M163.06 36.3625C164.364 36.3625 165.421 35.3055 165.421 34.0016C165.421 32.6977 164.364 31.6406 163.06 31.6406C161.756 31.6406 160.699 32.6977 160.699 34.0016C160.699 35.3055 161.756 36.3625 163.06 36.3625Z" fill="url(#paint6_radial_2953_12974)"/>
<path d="M163.063 23.8164H163.063C162.275 23.8164 161.637 24.4548 161.637 25.2422V33.1849C161.637 33.9723 162.275 34.6107 163.063 34.6107H163.063C163.851 34.6107 164.489 33.9723 164.489 33.1849V25.2422C164.489 24.4548 163.851 23.8164 163.063 23.8164Z" fill="url(#paint7_linear_2953_12974)"/>
<path d="M180.037 36.3625C181.341 36.3625 182.398 35.3055 182.398 34.0016C182.398 32.6977 181.341 31.6406 180.037 31.6406C178.733 31.6406 177.676 32.6977 177.676 34.0016C177.676 35.3055 178.733 36.3625 180.037 36.3625Z" fill="url(#paint8_radial_2953_12974)"/>
<path d="M180.04 23.8164H180.039C179.252 23.8164 178.614 24.4548 178.614 25.2422V33.1849C178.614 33.9723 179.252 34.6107 180.039 34.6107H180.04C180.827 34.6107 181.466 33.9723 181.466 33.1849V25.2422C181.466 24.4548 180.827 23.8164 180.04 23.8164Z" fill="url(#paint9_linear_2953_12974)"/>
</g>
<path d="M143.052 89.892C142.62 89.892 142.176 89.868 141.72 89.82C141.288 89.748 140.856 89.628 140.424 89.46C139.776 89.196 139.152 88.848 138.552 88.416C137.976 87.96 137.448 87.456 136.968 86.904C135.816 85.608 134.94 84.084 134.34 82.332C133.74 80.556 133.44 78.756 133.44 76.932C133.44 74.436 133.92 72.024 134.88 69.696C135.048 69.288 135.264 68.856 135.528 68.4C135.816 67.944 136.128 67.512 136.464 67.104C136.824 66.672 137.184 66.288 137.544 65.952C137.928 65.616 138.312 65.364 138.696 65.196C139.224 64.956 139.8 64.716 140.424 64.476C141.192 64.236 142.056 64.128 143.016 64.152C143.976 64.176 144.852 64.284 145.644 64.476C146.748 64.74 147.696 65.22 148.488 65.916C149.28 66.588 149.952 67.404 150.504 68.364C151.056 69.3 151.488 70.332 151.8 71.46C152.112 72.564 152.34 73.692 152.484 74.844C152.58 75.612 152.616 76.38 152.592 77.148C152.568 77.892 152.508 78.648 152.412 79.416C152.316 80.112 152.196 80.808 152.052 81.504C151.932 82.2 151.764 82.872 151.548 83.52C151.332 84.168 151.056 84.792 150.72 85.392C150.384 85.968 149.964 86.508 149.46 87.012C148.548 87.9 147.552 88.596 146.472 89.1C145.416 89.58 144.276 89.844 143.052 89.892ZM143.016 68.904C142.68 68.904 142.344 68.94 142.008 69.012C141.696 69.06 141.396 69.18 141.108 69.372C140.772 69.588 140.472 69.852 140.208 70.164C139.944 70.476 139.716 70.8 139.524 71.136C139.02 72 138.672 72.924 138.48 73.908C138.288 74.892 138.192 75.888 138.192 76.896C138.192 77.928 138.3 78.996 138.516 80.1C138.756 81.204 139.176 82.212 139.776 83.124C140.064 83.556 140.4 83.94 140.784 84.276C141.192 84.588 141.66 84.816 142.188 84.96C142.668 85.08 143.148 85.116 143.628 85.068C144.132 85.02 144.6 84.864 145.032 84.6C145.728 84.168 146.28 83.592 146.688 82.872C147.096 82.152 147.396 81.372 147.588 80.532C147.804 79.692 147.924 78.828 147.948 77.94C147.996 77.052 147.996 76.248 147.948 75.528C147.9 74.808 147.78 74.052 147.588 73.26C147.396 72.468 147.108 71.748 146.724 71.1C146.364 70.452 145.872 69.924 145.248 69.516C144.648 69.084 143.904 68.88 143.016 68.904ZM170.603 64.872C170.771 65.136 170.879 65.472 170.927 65.88C171.047 66.72 171.095 67.584 171.071 68.472C171.071 69.336 171.083 70.188 171.107 71.028C171.107 72.012 171.107 72.984 171.107 73.944C171.131 74.904 171.143 75.876 171.143 76.86V79.92H172.691C172.955 79.92 173.231 79.956 173.519 80.028C173.807 80.076 174.071 80.172 174.311 80.316C174.551 80.46 174.755 80.64 174.923 80.856C175.091 81.072 175.187 81.336 175.211 81.648C175.211 82.416 174.971 82.944 174.491 83.232C174.011 83.496 173.435 83.652 172.763 83.7C172.715 83.7 172.607 83.712 172.439 83.736C172.295 83.736 172.127 83.736 171.935 83.736C171.743 83.736 171.563 83.736 171.395 83.736C171.251 83.736 171.167 83.712 171.143 83.664V86.112C171.143 86.376 171.143 86.676 171.143 87.012C171.143 87.348 171.119 87.684 171.071 88.02C171.023 88.332 170.927 88.632 170.783 88.92C170.663 89.208 170.471 89.436 170.207 89.604C170.087 89.676 169.931 89.736 169.739 89.784C169.571 89.808 169.379 89.832 169.163 89.856C168.947 89.88 168.731 89.892 168.515 89.892C168.323 89.868 168.155 89.832 168.011 89.784C167.579 89.64 167.303 89.34 167.183 88.884C167.063 88.404 166.979 87.96 166.931 87.552C166.931 87.48 166.931 87.252 166.931 86.868C166.931 86.46 166.931 86.04 166.931 85.608C166.931 85.152 166.919 84.744 166.895 84.384C166.871 84.024 166.835 83.844 166.787 83.844H160.451C159.755 83.844 159.023 83.832 158.255 83.808C157.487 83.784 156.827 83.568 156.275 83.16C155.843 82.848 155.591 82.5 155.519 82.116C155.447 81.708 155.471 81.312 155.591 80.928C155.735 80.52 155.939 80.124 156.203 79.74C156.467 79.356 156.719 79.008 156.959 78.696C157.871 77.472 158.747 76.224 159.587 74.952C160.451 73.68 161.315 72.42 162.179 71.172C162.659 70.524 163.151 69.9 163.655 69.3C164.183 68.7 164.675 68.076 165.131 67.428C165.467 66.924 165.827 66.408 166.211 65.88C166.619 65.352 167.123 64.944 167.723 64.656C168.299 64.392 168.851 64.26 169.379 64.26C169.907 64.26 170.315 64.464 170.603 64.872ZM167.039 71.352L161.063 79.776H167.039V71.352Z" fill="black"/>
</g>
<line x1="70.5862" y1="303.473" x2="1.99998" y2="303.473" stroke="url(#paint10_linear_2953_12974)"/>
<line x1="239" y1="303.5" x2="308" y2="303.5" stroke="url(#paint11_linear_2953_12974)"/>
<rect x="64.2542" y="300.863" width="182.545" height="5.27586" rx="2.63793" fill="url(#paint12_radial_2953_12974)"/>
</g>
<defs>
<filter id="filter0_d_2953_12974" x="0" y="0" width="310" height="367" filterUnits="userSpaceOnUse" color-interpolation-filters="sRGB">
<feFlood flood-opacity="0" result="BackgroundImageFix"/>
<feColorMatrix in="SourceAlpha" type="matrix" values="0 0 0 0 0 0 0 0 0 0 0 0 0 0 0 0 0 0 127 0" result="hardAlpha"/>
<feOffset dy="2"/>
<feGaussianBlur stdDeviation="1"/>
<feComposite in2="hardAlpha" operator="out"/>
<feColorMatrix type="matrix" values="0 0 0 0 0 0 0 0 0 0 0 0 0 0 0 0 0 0 0.25 0"/>
<feBlend mode="normal" in2="BackgroundImageFix" result="effect1_dropShadow_2953_12974"/>
<feBlend mode="normal" in="SourceGraphic" in2="effect1_dropShadow_2953_12974" result="shape"/>
</filter>
<filter id="filter1_d_2953_12974" x="89.0002" y="0" width="132" height="132" filterUnits="userSpaceOnUse" color-interpolation-filters="sRGB">
<feFlood flood-opacity="0" result="BackgroundImageFix"/>
<feColorMatrix in="SourceAlpha" type="matrix" values="0 0 0 0 0 0 0 0 0 0 0 0 0 0 0 0 0 0 127 0" result="hardAlpha"/>
<feOffset dy="2"/>
<feGaussianBlur stdDeviation="1"/>
<feComposite in2="hardAlpha" operator="out"/>
<feColorMatrix type="matrix" values="0 0 0 0 0 0 0 0 0 0 0 0 0 0 0 0 0 0 0.25 0"/>
<feBlend mode="normal" in2="BackgroundImageFix" result="effect1_dropShadow_2953_12974"/>
<feBlend mode="normal" in="SourceGraphic" in2="effect1_dropShadow_2953_12974" result="shape"/>
</filter>
<filter id="filter2_d_2953_12974" x="114.305" y="23.8164" width="80.6174" height="84.1801" filterUnits="userSpaceOnUse" color-interpolation-filters="sRGB">
<feFlood flood-opacity="0" result="BackgroundImageFix"/>
<feColorMatrix in="SourceAlpha" type="matrix" values="0 0 0 0 0 0 0 0 0 0 0 0 0 0 0 0 0 0 127 0" result="hardAlpha"/>
<feOffset dy="2"/>
<feGaussianBlur stdDeviation="1"/>
<feComposite in2="hardAlpha" operator="out"/>
<feColorMatrix type="matrix" values="0 0 0 0 0 0 0 0 0 0 0 0 0 0 0 0 0 0 0.25 0"/>
<feBlend mode="normal" in2="BackgroundImageFix" result="effect1_dropShadow_2953_12974"/>
<feBlend mode="normal" in="SourceGraphic" in2="effect1_dropShadow_2953_12974" result="shape"/>
</filter>
<radialGradient id="paint0_radial_2953_12974" cx="0" cy="0" r="1" gradientUnits="userSpaceOnUse" gradientTransform="translate(64 64) rotate(90) scale(64)">
<stop stop-color="#FEEBF3"/>
<stop offset="1" stop-color="#FA6BA4"/>
</radialGradient>
<linearGradient id="paint1_linear_2953_12974" x1="154.613" y1="28.0407" x2="154.613" y2="44.7583" gradientUnits="userSpaceOnUse">
<stop stop-color="#E85F43"/>
<stop offset="1" stop-color="#E83636"/>
</linearGradient>
<radialGradient id="paint2_radial_2953_12974" cx="0" cy="0" r="1" gradientUnits="userSpaceOnUse" gradientTransform="translate(129.127 34.0016) scale(2.36095)">
<stop stop-color="#8C1F1F"/>
<stop offset="0.84" stop-color="#450F0F"/>
<stop offset="1" stop-color="#2B0808"/>
</radialGradient>
<linearGradient id="paint3_linear_2953_12974" x1="127.703" y1="29.2136" x2="130.555" y2="29.2136" gradientUnits="userSpaceOnUse">
<stop stop-color="#4F4F4F"/>
<stop offset="0.29" stop-color="#BDBDBD"/>
<stop offset="0.62" stop-color="#BDBDBD"/>
<stop offset="1" stop-color="#4F4F4F"/>
</linearGradient>
<radialGradient id="paint4_radial_2953_12974" cx="0" cy="0" r="1" gradientUnits="userSpaceOnUse" gradientTransform="translate(146.096 23.8395) scale(0.0241505)">
<stop stop-color="#8C1F1F"/>
<stop offset="0.84" stop-color="#450F0F"/>
<stop offset="1" stop-color="#2B0808"/>
</radialGradient>
<linearGradient id="paint5_linear_2953_12974" x1="144.672" y1="23.8164" x2="147.524" y2="23.8164" gradientUnits="userSpaceOnUse">
<stop stop-color="#4F4F4F"/>
<stop offset="0.29" stop-color="#BDBDBD"/>
<stop offset="0.62" stop-color="#BDBDBD"/>
<stop offset="1" stop-color="#4F4F4F"/>
</linearGradient>
<radialGradient id="paint6_radial_2953_12974" cx="0" cy="0" r="1" gradientUnits="userSpaceOnUse" gradientTransform="translate(163.06 23.8395) scale(2.36095)">
<stop stop-color="#8C1F1F"/>
<stop offset="0.84" stop-color="#450F0F"/>
<stop offset="1" stop-color="#2B0808"/>
</radialGradient>
<linearGradient id="paint7_linear_2953_12974" x1="161.637" y1="23.8164" x2="164.489" y2="23.8164" gradientUnits="userSpaceOnUse">
<stop stop-color="#4F4F4F"/>
<stop offset="0.29" stop-color="#BDBDBD"/>
<stop offset="0.62" stop-color="#BDBDBD"/>
<stop offset="1" stop-color="#4F4F4F"/>
</linearGradient>
<radialGradient id="paint8_radial_2953_12974" cx="0" cy="0" r="1" gradientUnits="userSpaceOnUse" gradientTransform="translate(180.037 23.8395) scale(0.0241505)">
<stop stop-color="#8C1F1F"/>
<stop offset="0.84" stop-color="#450F0F"/>
<stop offset="1" stop-color="#2B0808"/>
</radialGradient>
<linearGradient id="paint9_linear_2953_12974" x1="178.614" y1="23.8164" x2="181.466" y2="23.8164" gradientUnits="userSpaceOnUse">
<stop stop-color="#4F4F4F"/>
<stop offset="0.29" stop-color="#BDBDBD"/>
<stop offset="0.62" stop-color="#BDBDBD"/>
<stop offset="1" stop-color="#4F4F4F"/>
</linearGradient>
<linearGradient id="paint10_linear_2953_12974" x1="70.5862" y1="302.473" x2="-4.85864" y2="302.473" gradientUnits="userSpaceOnUse">
<stop stop-color="#870237"/>
<stop offset="0.795" stop-color="#FEB7D3"/>
</linearGradient>
<linearGradient id="paint11_linear_2953_12974" x1="239" y1="304.5" x2="314.9" y2="304.5" gradientUnits="userSpaceOnUse">
<stop stop-color="#870237"/>
<stop offset="0.795" stop-color="#FEB7D3"/>
</linearGradient>
<radialGradient id="paint12_radial_2953_12974" cx="0" cy="0" r="1" gradientUnits="userSpaceOnUse" gradientTransform="translate(155.527 303.501) scale(91.2724 2.63793)">
<stop stop-color="#FEB7D3"/>
<stop offset="1" stop-color="#860236"/>
</radialGradient>
</defs>
</svg>
