<svg width="80" height="80" viewBox="0 0 80 80" fill="none" xmlns="http://www.w3.org/2000/svg">
<mask id="mask0_1744_2936" style="mask-type:luminance" maskUnits="userSpaceOnUse" x="14" y="0" width="55" height="70">
<path d="M65.4585 18.154V15.1538C65.0726 11.0677 59.2337 8.16455 52.1589 4.38516C46.9336 1.59443 46.2621 0 46.2621 0C46.2621 0 45.2456 1.72778 40.3654 4.38516C33.3178 8.2217 27.5264 11.0677 27.1389 15.1538V18.154C25.5903 18.154 24.1301 19.3865 23.8327 21.0229V66.0574H22.0954V8.96082C22.2314 8.82366 23.253 7.7207 22.7957 6.07293C22.177 3.84035 19.6408 3.4346 18.7603 1.94684C17.8781 3.4346 15.3436 3.84035 14.7249 6.07293C14.2676 7.7207 15.2892 8.82366 15.4252 8.96082V69.6616H68.6916V21.0229C68.3941 19.3865 67.0071 18.154 65.4585 18.154Z" fill="white"/>
</mask>
<g mask="url(#mask0_1744_2936)">
<path d="M70.1956 -3.62939H12.0762V72.1204H70.1956V-3.62939Z" fill="#28807F"/>
<path d="M67.3642 50.1591L66.8917 42.1412C67.1093 42.1412 67.2843 41.945 67.2843 41.7012V41.3945C67.2843 41.1506 67.1076 40.9544 66.8917 40.9544H66.822L66.3137 32.3136H66.7132V31.4164H66.8917C67.06 31.4164 67.2181 31.3097 67.2809 31.1345C67.3591 30.9154 67.2945 30.7097 67.1654 30.5859C67.4067 30.2373 67.592 29.6772 67.269 29.0448C67.0158 28.5476 66.4599 28.1494 65.9687 27.7989C65.7681 27.6561 65.5046 27.4656 65.338 27.3056C65.5607 27.1646 65.7137 26.9017 65.7137 26.5931C65.7137 26.2159 65.4825 25.8997 65.1714 25.8064L64.9743 23.4043L64.7941 25.8064C64.483 25.8997 64.2518 26.2159 64.2518 26.5931C64.2518 26.9036 64.4082 27.1703 64.636 27.3094C64.4677 27.4675 64.2076 27.6504 64.0087 27.7913C63.5158 28.1399 62.9565 28.5323 62.7016 29.0276C62.3956 29.6201 62.5384 30.1515 62.7543 30.5039C62.6098 30.5801 62.5112 30.7402 62.5095 30.9287C62.5095 31.1897 62.6982 31.4012 62.931 31.4031H63.2404V32.3136H63.6399L63.1146 40.9544H63.0228C62.8053 40.9544 62.6302 41.1525 62.6302 41.3945V41.7012C62.6302 41.945 62.8053 42.1412 63.0228 42.1412H63.0432L62.5571 50.1591H59.9342L59.6656 45.6006H59.9614V44.9357H60.094C60.2198 44.9357 60.3371 44.8538 60.383 44.7243C60.4391 44.5643 60.3915 44.4119 60.2963 44.3204C60.4748 44.0633 60.6124 43.6461 60.3745 43.1775C60.1875 42.8098 59.7744 42.5146 59.4107 42.2536C59.2628 42.1469 59.0656 42.0079 58.9432 41.8878C59.1081 41.7831 59.222 41.5869 59.222 41.3602C59.222 41.0801 59.0503 40.8458 58.8208 40.7754L58.6746 38.9942L58.5403 40.7754C58.3092 40.8458 58.1392 41.0782 58.1392 41.3602C58.1392 41.5907 58.2548 41.7888 58.423 41.8917C58.299 42.0079 58.1052 42.145 57.959 42.2479C57.5935 42.505 57.1788 42.7984 56.9901 43.1641C56.764 43.6042 56.8694 43.9966 57.0292 44.2576C56.9221 44.3128 56.849 44.4328 56.8473 44.5738C56.8473 44.7681 56.9867 44.9243 57.1601 44.9243H57.3895V45.6006H57.6853L57.4082 50.1591H54.7072V47.4293H51.5302C52.2832 45.9758 52.9172 43.789 52.1676 41.0935C50.5052 35.1063 44.0355 33.7023 41.1407 30.0506L41.0098 27.618C41.1934 27.4732 41.3124 27.2332 41.3124 26.9627C41.3124 26.6579 41.1594 26.3912 40.9367 26.2559L40.5967 23.8748L40.2568 26.2559C40.0324 26.3912 39.8811 26.6579 39.8811 26.9627C39.8811 27.2332 40.0018 27.4732 40.1837 27.618L40.0528 30.0506C37.158 33.7023 30.6883 35.1063 29.0259 41.0935C28.278 43.789 28.9103 45.9758 29.6633 47.4293H26.4863V50.1591H23.8057L23.5371 45.6006H23.8329V44.9357H23.9654C24.0912 44.9357 24.2085 44.8538 24.2544 44.7243C24.3105 44.5643 24.2629 44.4119 24.1677 44.3204C24.3462 44.0633 24.4839 43.6461 24.2459 43.1775C24.0589 42.8098 23.6459 42.5146 23.2821 42.2536C23.1342 42.1469 22.937 42.0079 22.8146 41.8878C22.9795 41.7831 23.0934 41.5869 23.0934 41.3602C23.0934 41.0801 22.9217 40.8458 22.6923 40.7754L22.5461 38.9942L22.4118 40.7754C22.1806 40.8458 22.0106 41.0782 22.0106 41.3602C22.0106 41.5907 22.1262 41.7888 22.2945 41.8917C22.1704 42.0079 21.9766 42.145 21.8304 42.2479C21.465 42.505 21.0502 42.7984 20.8615 43.1641C20.6354 43.6042 20.7408 43.9966 20.9006 44.2576C20.7935 44.3128 20.7204 44.4328 20.7187 44.5738C20.7187 44.7681 20.8581 44.9243 21.0315 44.9243H21.261V45.6006H21.5568L21.2797 50.1591H18.6415L18.169 42.1412C18.3865 42.1412 18.5616 41.945 18.5616 41.7012V41.3945C18.5616 41.1506 18.3865 40.9544 18.169 40.9544H18.0993L17.591 32.3136H17.9905V31.4164H18.169C18.3373 31.4164 18.4953 31.3097 18.5582 31.1345C18.6364 30.9154 18.5718 30.7097 18.4426 30.5859C18.684 30.2373 18.8693 29.6772 18.5463 29.0448C18.2931 28.5476 17.7372 28.1494 17.2459 27.7989C17.0454 27.6561 16.7819 27.4656 16.6153 27.3056C16.838 27.1646 16.991 26.9017 16.991 26.5931C16.991 26.2159 16.7598 25.8997 16.4487 25.8064L16.2515 23.4043L16.0714 25.8064C15.7603 25.8997 15.5291 26.2159 15.5291 26.5931C15.5291 26.9036 15.6855 27.1703 15.9133 27.3094C15.745 27.4675 15.4849 27.6504 15.286 27.7913C14.7931 28.1399 14.2338 28.5323 13.9788 29.0276C13.6729 29.6201 13.8157 30.1515 14.0315 30.5039C13.8871 30.5801 13.7885 30.7402 13.7868 30.9287C13.7868 31.1897 13.9754 31.4012 14.2083 31.4031H14.5177V32.3136H14.9172L14.3919 40.9544H14.3001C14.0825 40.9544 13.9074 41.1525 13.9074 41.3945V41.7012C13.9074 41.945 14.0825 42.1412 14.3001 42.1412H14.3205L13.8344 50.1591H8.49854V68.3893H72.6933V50.1591H67.3625H67.3642Z" fill="#186057"/>
</g>
<path d="M29.6408 28.7825L29.1478 29.1025L28.7092 28.6948L28.8282 29.3196L28.3472 29.6606L28.9132 29.7273L29.0543 30.3464L29.2872 29.7635L29.8549 29.8035L29.4317 29.3768L29.6408 28.7825Z" fill="#9FD19A"/>
<path d="M48.331 20.9709L47.8619 20.2661L47.8415 21.1443L47.0986 21.4281L47.8381 21.7215L47.8483 22.5997L48.3259 21.9025L49.0756 22.1634L48.6319 21.4396L49.0824 20.7214L48.331 20.9709Z" fill="#9FD19A"/>
<path d="M61.0204 17.4718L60.4509 17.2889L60.405 16.626L60.0736 17.1784L59.499 17.0203L59.8628 17.5442L59.5517 18.1099L60.1093 17.8813L60.4917 18.388L60.4713 17.7251L61.0204 17.4718Z" fill="#9FD19A"/>
<path d="M48.6253 8.6637L48.5896 8.12842L48.321 8.57417L47.8569 8.44654L48.151 8.86944L47.8994 9.32662L48.3499 9.14375L48.6593 9.55331L48.6423 9.01612L49.0859 8.81229L48.6253 8.6637Z" fill="#9FD19A"/>
<path d="M18.6522 17.3426L18.4941 16.9312L18.3904 17.3636L17.9927 17.4036L18.3275 17.6493L18.2392 18.0855L18.5485 17.8036L18.8919 18.0322L18.7491 17.615L19.05 17.3198L18.6522 17.3426Z" fill="#9FD19A"/>
<path d="M37.8836 17.5517C36.228 17.5517 34.8868 16.0487 34.8868 14.1933C34.8868 13.2751 35.2165 12.4427 35.7486 11.8369C34.1388 12.2808 32.9438 13.9076 32.9438 15.8487C32.9438 18.1308 34.5944 19.9805 36.6308 19.9805C38.6672 19.9805 40.1631 18.2985 40.3059 16.163C39.7602 17.0031 38.8797 17.5517 37.8819 17.5517H37.8836Z" fill="#9FD19A"/>
<path d="M76.1301 53.998C76.3783 53.0607 76.8254 52.1787 77.456 51.5234C76.4667 51.9921 75.3805 51.7806 74.3708 52.0968C73.1061 52.4931 72.7729 53.2893 71.8618 54.3027C71.1105 55.139 70.2283 55.1638 69.4497 55.8572C68.491 56.7125 68.8242 57.5907 68.3516 58.7374C67.6156 60.53 65.4993 60.5185 64.5593 62.4254C63.83 63.9055 63.9762 66.8886 62.5977 67.8487C63.8708 66.9058 65.518 67.0849 66.6433 66.0543C67.2603 65.4904 67.4745 64.4618 68.1528 63.9398C69.0537 63.2445 69.9563 63.7722 70.8657 63.3588C71.8754 62.8997 71.7768 62.3225 71.9723 61.21C72.2035 59.8994 72.2001 59.6499 73.1741 58.8993C75.1408 57.383 75.4111 56.6992 76.1284 53.998H76.1301Z" fill="#51B08B"/>
<g opacity="0.59">
<path d="M74.8264 53.6113C73.2099 54.28 72.212 55.9087 71.2958 57.4536C70.3694 59.0271 68.9857 60.1872 68.1154 61.7987C66.5992 64.5971 65.7747 66.5115 62.6164 67.1268C61.7869 67.2888 60.9472 67.344 60.1108 67.3745C60.9455 67.3002 61.7835 67.2278 62.6011 67.0354C65.688 66.3668 66.4955 64.458 67.9726 61.6959C68.8668 60.0672 70.2504 58.9147 71.1887 57.3698C72.1254 55.8458 73.181 54.2019 74.8264 53.6113Z" fill="white"/>
</g>
<path d="M63.3552 64.9624C64.5502 56.876 66.7277 55.312 71.6046 53.1309C70.7478 54.3805 69.9013 55.7749 69.4203 57.2836C68.9154 58.8647 68.9154 60.602 68.3545 62.166C67.2428 65.2653 64.2782 66.5683 63.2362 69.86C61.997 68.9875 63.1597 66.2902 63.3569 64.9643L63.3552 64.9624Z" fill="#0C462F"/>
<path d="M62.5584 71.7306C64.022 71.8621 65.4635 72.2545 66.9389 72.144C68.9244 71.9954 70.1789 71.3173 72.0385 70.7763C74.2993 70.1172 77.0309 69.5495 79.0776 70.7306C77.597 67.8427 74.3962 65.6901 71.3959 66.8635C69.5261 67.595 68.2206 69.5495 66.3355 70.281C64.9892 70.8029 63.4747 70.862 62.0757 70.6505C62.2304 70.9953 62.3579 71.4201 62.5584 71.7306Z" fill="#51B08B"/>
<path d="M63.4487 67.3061C66.896 63.5 72.3423 56.808 77.7019 58.9396C74.7017 59.193 73.9861 63.0867 71.6131 64.4601C70.4368 65.1402 69.1109 64.9573 67.8564 65.2145C66.2892 65.5364 64.795 66.3269 63.4504 67.3061H63.4487Z" fill="#51B08B"/>
<path d="M77.3008 66.7744C78.0437 65.9648 78.9854 65.3743 80.0002 65.2162C77.4079 64.479 76.2129 62.054 73.3351 62.9474C71.9072 63.3894 71.3123 63.2046 69.8929 62.9874C68.1812 62.7264 67.9721 63.3284 66.84 64.6352C65.1894 66.542 62.8164 64.3647 60.6644 65.6429C59.0921 66.5763 57.6251 70.1728 55.6465 69.9976C57.3684 70.0795 58.6518 71.5158 60.2157 71.7082C61.426 71.8568 62.417 70.6529 63.6154 70.6529C64.7356 70.6529 65.3033 71.4949 66.2178 72.0644C68.9699 73.7751 68.6044 69.7842 70.872 69.4566C71.9956 69.2947 72.9594 70.1538 74.151 69.7709C75.5398 69.3232 76.3064 67.8583 77.3008 66.7744Z" fill="#9FD19A"/>
<g opacity="0.59">
<path d="M76.7536 65.3017C74.8362 64.7131 73.2417 66.4218 71.4807 66.9667C69.6873 67.5686 67.8838 68.0772 66.0582 68.5535C65.1216 68.7478 64.1883 68.4735 63.2534 68.5363C62.327 68.5706 61.4261 68.8487 60.5065 69.0468C59.1109 69.3307 57.7017 69.0507 56.3215 69.3764C55.8676 69.485 55.4256 69.6698 55.0347 69.9612C55.4137 69.6545 55.8557 69.4507 56.3113 69.3288C57.6745 68.9573 59.1194 69.2107 60.481 68.9059C61.387 68.6887 62.2998 68.4106 63.2449 68.3668C64.19 68.2944 65.125 68.5649 66.0259 68.3687C67.8379 67.9096 69.6517 67.3991 71.4433 66.8295C73.1856 66.319 74.86 64.6293 76.7536 65.3036V65.3017Z" fill="white"/>
</g>
<path d="M63.2091 66.0615C64.1763 65.4901 64.5995 62.8612 65.2829 61.8535C66.568 59.9524 67.4672 58.3294 67.1391 54.79C65.339 57.0341 63.4861 56.3197 62.145 57.6532C61.3137 58.478 61.3613 59.0152 61.1744 60.0572C60.8871 61.6669 60.5029 60.6858 59.6547 61.6135C59.0682 62.2536 59.3895 63.2137 59.0495 63.9471C58.611 64.8976 58.0687 64.7205 57.4126 65.3243C56.0272 66.6025 56.4216 68.9742 55.0957 70.3991C56.2856 70.4219 57.9293 70.4048 58.9391 69.5685C59.7142 68.9266 59.6275 67.9646 60.134 67.1493C61.1761 65.4691 61.8288 66.8769 63.2091 66.0615Z" fill="#51B08B"/>
<g opacity="0.59">
<path d="M65.3378 58.332C64.7615 58.6425 64.2839 59.1435 63.9524 59.7531C63.4254 60.6522 63.2215 61.7495 62.6554 62.6296C62.0707 63.5173 61.049 63.8106 60.3334 64.5212C59.3475 65.4412 58.9106 66.868 58.0913 67.9577C57.6816 68.5158 57.1887 68.9939 56.6549 69.3902C56.1178 69.7826 55.5432 70.1064 54.9585 70.3922C56.9422 69.314 57.9774 68.2301 59.0262 66.0737C59.356 65.4622 59.7249 64.8507 60.2263 64.3764C60.9437 63.6677 61.9517 63.3953 62.5398 62.5305C63.1042 61.6638 63.337 60.5894 63.8844 59.7036C64.2414 59.1035 64.7462 58.6063 65.3395 58.3339L65.3378 58.332Z" fill="white"/>
</g>
<path d="M26.3154 79.1754L3.64111 72.2605L53.1253 64.8351L75.7996 71.75L26.3154 79.1754Z" fill="#A1D29A"/>
<path d="M68.7389 71.1481L34.9918 76.1218C34.402 76.2057 33.3208 76.1085 32.5746 75.9028L32.3315 75.8361C31.9287 75.859 31.3303 75.7961 30.902 75.678C30.647 75.6075 30.2696 75.5847 30.1438 75.6304C30.0129 75.678 29.7835 75.7332 29.3823 75.7694C28.4763 75.8533 26.5623 75.5656 23.8612 75.1332C21.8673 74.8132 21.257 74.8227 21.257 74.8227C21.257 74.8227 21.4253 74.6817 20.5924 74.236C19.3889 73.594 18.59 73.1425 19.2818 72.9997C19.5895 72.9368 19.921 72.9101 20.1946 72.9006C20.4564 72.8911 20.4598 72.813 20.2065 72.7444C19.7782 72.6263 19.6609 72.4948 19.8972 72.4263L19.6541 72.3596C18.9078 72.1558 18.7821 71.9215 19.3702 71.8376L53.1173 66.8639L68.7389 71.1462V71.1481Z" fill="#237B70"/>
<path d="M53.1253 64.8352L75.7996 71.7501L26.3136 79.1755L3.63937 72.2606L53.1253 64.8352ZM53.1746 64.0104L53.0301 64.0313L3.54418 71.4587L0 71.9901L3.45069 73.0417L26.125 79.9566L26.266 80.0004L26.4105 79.9794L75.8965 72.554L79.4407 72.0225L75.99 70.971L53.3157 64.0561L53.1746 64.0123V64.0104Z" fill="white"/>
<path d="M49.6132 42.3387C49.2545 42.5997 48.5831 44.0132 48.3672 45.4724C48.1513 46.9315 46.9988 53.1169 46.8407 53.4807C46.6827 53.8465 46.3954 54.2408 45.5064 55.2942C44.6173 56.3476 41.646 60.0718 41.4743 60.1404C41.3009 60.207 42.1016 60.5823 42.6098 60.9709C43.1181 61.3595 43.4852 61.9024 43.4852 61.9024C43.4852 61.9024 46.5076 60.4185 48.1581 58.9231C50.4631 56.8334 50.5787 55.098 50.8541 52.5454C51.1295 49.9928 49.6149 42.3387 49.6149 42.3387H49.6132Z" fill="#54B18B"/>
<path d="M62.2014 66.9359C62.385 67.6808 63.359 67.976 64.0185 68.2656C64.6781 68.5551 65.2373 68.9075 65.2373 68.9075C65.2373 68.9075 64.5285 67.0731 64.3245 65.5872C64.1205 64.1014 63.1771 63.1337 63.1771 63.1337L62.1997 66.9359H62.2014Z" fill="#091C26"/>
<path d="M52.5049 69.3396C53.6642 69.0482 54.7113 69.0482 55.874 68.6596C57.0384 68.271 58.5223 68.5034 59.515 68.5567C60.5094 68.61 61.514 68.4119 61.5327 68.01C61.5327 68.01 61.1673 67.6728 60.8222 67.6233C60.4771 67.5738 60.0862 67.2004 59.6272 66.888C59.17 66.5756 56.7273 64.1849 55.7924 63.9544C54.8591 63.7239 54.679 64.1944 53.8443 64.4992C53.0097 64.8059 51.366 65.6422 51.2725 65.6726C51.1773 65.7031 52.5032 69.3396 52.5032 69.3396H52.5049Z" fill="#F7B2A1"/>
<path d="M36.0972 70.8618C37.4672 71.6828 40.6545 72.3991 42.3407 72.2181C44.027 72.0371 48.9208 70.7361 50.2824 70.3341C51.644 69.9322 53.5801 69.5702 53.9031 69.4788C54.226 69.3893 54.5439 67.1967 54.3416 65.8385C54.1393 64.4802 54.0459 64.2059 54.0459 64.2059C54.0459 64.2059 45.8135 66.1337 44.3108 66.4309C42.8065 66.7281 38.035 67.4939 38.035 67.4939C38.035 67.4939 34.7254 70.0407 36.0955 70.8618H36.0972Z" fill="#133A50"/>
<path d="M40.8877 69.8694C42.868 69.4369 44.8449 69.2236 46.8609 69.0159C49.375 68.7569 51.8551 68.2883 54.3471 67.9035C54.4185 67.2234 54.4338 66.4481 54.342 65.8404C54.1397 64.4822 54.0462 64.2079 54.0462 64.2079C54.0462 64.2079 45.8138 66.1357 44.3112 66.4328C42.8068 66.73 38.0353 67.4958 38.0353 67.4958C38.0353 67.4958 36.0771 69.0026 35.7983 70.0732C37.4404 70.6561 39.2252 70.2351 40.886 69.8713L40.8877 69.8694Z" fill="#0F2C3D"/>
<path d="M39.5299 69.6748L36.0979 70.8615C36.0979 70.8615 34.8944 69.8024 34.8859 68.8861C34.8757 67.9698 35.4859 66.3316 36.3324 65.2991C37.179 64.2666 42.0252 61.6683 43.7829 60.5234C45.5405 59.3786 49.8309 56.3802 49.8309 56.3802L56.8122 56.0697C56.8122 56.0697 57.9103 58.0775 57.7709 60.9044C57.6961 62.4131 56.3566 63.7009 55.2704 64.2724C54.1842 64.8438 42.678 68.3908 42.678 68.3908L39.5316 69.6767L39.5299 69.6748Z" fill="#133A50"/>
<path d="M59.3155 71.9991C60.4748 71.7077 61.2176 71.3762 62.382 70.9895C63.5464 70.6009 65.333 71.1629 66.3274 71.2162C67.3218 71.2695 68.3264 71.0714 68.3451 70.6695C68.3451 70.6695 67.9796 70.3323 67.6345 70.2828C67.2895 70.2332 66.7115 70.098 66.2543 69.7856C66.018 69.6256 65.2225 68.9607 64.5289 68.214C63.8762 67.5092 63.0943 66.7415 62.6404 66.6291C61.7072 66.3986 61.7854 67.6025 60.9508 67.9073C60.1161 68.214 58.1783 68.3016 58.0848 68.3321C57.9913 68.3626 59.3155 71.9991 59.3155 71.9991Z" fill="#F7B2A1"/>
<path d="M42.9087 73.5214C44.2788 74.3425 47.466 75.0587 49.1522 74.8778C50.8385 74.6968 55.7323 73.3957 57.0939 72.9938C58.4555 72.5918 60.3916 72.2299 60.7146 72.1385C61.0376 72.0489 61.3554 69.8563 61.1532 68.4981C60.9509 67.1399 60.8574 66.8656 60.8574 66.8656C60.8574 66.8656 52.625 68.7934 51.1224 69.0906C49.618 69.3877 44.8465 70.1535 44.8465 70.1535C44.8465 70.1535 41.5369 72.7004 42.907 73.5214H42.9087Z" fill="#133A50"/>
<path d="M46.4555 72.9271C48.5888 72.4927 51.5686 71.3707 53.6136 70.6411C56.5934 69.5782 58.1148 69.422 61.2102 69.1115C61.2017 68.8962 61.183 68.6867 61.1558 68.4962C60.9535 67.138 60.86 66.8636 60.86 66.8636C60.86 66.8636 52.6276 68.7914 51.125 69.0886C49.6206 69.3858 44.8491 70.1516 44.8491 70.1516C44.8491 70.1516 42.5595 71.7269 42.8263 72.7689C43.9312 72.8413 45.4764 73.1271 46.4538 72.9271H46.4555Z" fill="#0F2C3D"/>
<path d="M46.3408 72.3344L42.9089 73.5211C42.9089 73.5211 41.7054 72.462 41.6969 71.5457C41.6884 70.6294 42.2969 68.9912 43.1434 67.9587C43.99 66.9263 47.0548 64.0193 48.8124 62.8745C50.5701 61.7296 56.6419 59.0379 56.6419 59.0379L63.6232 58.7274C63.6232 58.7274 64.3422 61.5429 64.2028 64.3679C64.1603 65.2156 64.3133 66.4786 63.3206 67.2349C62.9399 67.5244 62.01 67.7587 61.5341 68.0102C60.4479 68.5816 49.489 71.0485 49.489 71.0485L46.3425 72.3344H46.3408Z" fill="#133A50"/>
<path d="M42.3479 72.9272C42.0335 72.5424 41.702 72.0243 41.6969 71.5443C41.6867 70.628 42.2969 68.9897 43.1435 67.9573C43.99 66.9248 47.0548 64.0179 48.8125 62.873C50.5701 61.7281 56.642 59.0365 56.642 59.0365L63.6232 58.726C63.6232 58.726 64.3423 61.5414 64.2029 64.3665" stroke="#0F2C3D" stroke-miterlimit="10"/>
<path d="M50.4123 40.8934C49.8887 41.4592 49.032 42.1831 49.185 44.269C49.3397 46.3892 49.5369 49.5171 49.5369 49.5171L51.6583 48.4275L50.4123 40.8934Z" fill="#237B70"/>
<path d="M56.8648 32.8788C56.8648 32.8788 57.1691 34.5075 57.3884 35.3323C57.6076 36.1572 57.7759 36.5896 57.917 36.8372C58.2281 37.3878 60.0367 39.0127 60.0367 39.0127C60.0367 39.0127 54.8811 42.1558 53.3172 42.2415C51.7517 42.3273 52.5574 39.007 52.5574 39.007C52.5574 39.007 53.7405 37.6564 53.953 36.9515C54.1671 36.2467 54.1909 34.2389 54.1909 34.2389L56.8648 32.8788Z" fill="#F7B2A1"/>
<path d="M51.3095 27.9432C50.8522 28.2499 50.429 28.3852 50.2811 28.7966C50.0091 29.551 49.9564 31.075 50.0635 31.8274C50.1723 32.5799 50.3593 34.0066 50.5412 34.881C50.723 35.7554 51.6121 37.4184 51.8483 37.5651C52.0846 37.7117 53.5958 37.7137 54.0564 37.4698C54.5171 37.226 57.0788 35.1191 56.8748 33.2332C56.8748 33.2332 57.4408 33.399 58.0579 31.6636C58.2194 31.2102 56.7558 28.4004 56.5314 27.8918C55.9875 26.6555 53.0552 28.3299 52.3073 28.2728C51.5594 28.2156 51.3078 27.9432 51.3078 27.9432H51.3095Z" fill="#F7B2A1"/>
<path d="M52.4359 29.1069C54.4639 28.4231 54.9398 28.8802 54.9976 30.0442C55.018 30.4404 55.8152 30.9928 55.8696 31.3681C55.924 31.7434 56.3626 31.9186 56.3626 31.9186L56.5258 33.0482C56.5258 33.0482 56.5547 33.5835 56.6788 33.9874C56.8029 34.3912 57.272 35.0008 57.272 35.0008C57.272 35.0008 57.0646 34.216 57.8092 33.2159C59.577 30.8385 57.2992 27.6535 55.2917 26.5372C54.2531 25.96 52.8779 26.6 52.0824 27.6268C51.1475 28.8345 51.603 29.3869 52.4376 29.105L52.4359 29.1069Z" fill="url(#paint0_linear_1744_2936)"/>
<path d="M56.232 32.4632C56.1606 31.8117 56.2728 30.9183 56.2728 30.9183H55.8053C55.8053 30.9183 55.6608 32.5852 55.5979 33.5052C55.535 34.4253 55.2206 34.8596 54.7072 34.7606C54.1939 34.6615 53.8743 34.0462 53.4136 33.8748C52.953 33.7034 52.2628 33.5719 51.6696 33.7414C51.2956 33.8481 51.0151 34.0596 50.8299 34.3739C50.665 34.6558 50.6191 35.2864 50.8333 36.0712C51.0474 36.8541 51.3143 37.517 52.0656 37.8028C52.817 38.0885 53.9797 37.9704 54.8398 37.437C55.6999 36.9036 56.2575 35.9588 56.3578 35.3149C56.4581 34.6711 56.3017 33.1166 56.2303 32.4632H56.232ZM53.6227 36.2426C53.2453 36.4122 52.5909 36.155 52.4906 35.9264C52.3886 35.6978 52.3155 35.694 52.2067 35.6502C52.0979 35.6083 52.0147 35.8274 51.8549 36.1207C51.6951 36.4122 51.3653 36.3588 51.1987 35.9016C51.0338 35.4445 51.0491 35.0711 51.1749 34.7034C51.316 34.292 51.979 34.031 52.8238 34.1472C53.6686 34.2634 53.8369 34.6444 53.9372 34.9111C54.0375 35.1778 54.0001 36.075 53.6227 36.2426Z" fill="url(#paint1_linear_1744_2936)"/>
<path d="M49.1599 58.4872C52.0445 58.7215 54.9275 59.0167 57.8223 59.0568C60.0015 59.0853 61.4634 58.9329 63.6239 58.7272C63.4862 56.6089 64.0251 54.3001 63.8347 52.1685C63.5287 48.8177 64.8512 43.7373 63.6681 41.2247C63.357 40.5617 59.0836 37.9501 59.0836 37.9501C59.0836 37.9501 57.0438 40.8151 54.63 40.9637C52.3811 41.1027 52.6769 38.6244 52.6769 38.6244L50.411 40.8932C50.411 40.8932 49.7718 44.1316 49.5832 47.7624C49.4914 49.5092 49.1752 52.9552 49.25 56.4984C49.2109 57.0775 49.1837 57.7443 49.1582 58.4872H49.1599Z" fill="#A1D29A"/>
<path d="M58.3935 31.8871C58.3935 31.8871 57.4212 30.8489 56.0206 30.3822C54.6998 29.9422 53.3569 29.6793 51.9766 29.7098C50.5436 29.7421 50.0337 30.0774 50.0337 30.0774C50.0337 30.0774 50.1306 28.5249 50.6218 27.5477C51.1488 26.4999 52.5852 25.1303 55.7962 25.9685C57.3906 26.3857 58.1947 28.1325 58.4564 29.2373C58.7182 30.3403 58.3935 31.8871 58.3935 31.8871Z" fill="white"/>
<path d="M56.085 31.4833C56.2771 30.9214 56.4538 30.4127 57.0029 30.4794C57.5519 30.5461 57.9616 31.1728 57.4143 32.0262C56.8652 32.8796 56.5269 33.0511 56.5269 33.0511C56.5269 33.0511 56.0289 31.649 56.085 31.4833Z" fill="#F7B2A1"/>
<path d="M59.0847 37.9503C59.0847 37.9503 57.9662 39.4628 56.6029 40.4267C55.2397 41.3906 53.9512 41.0515 53.9512 41.0515L54.2503 39.7638C54.2503 39.7638 55.272 39.6171 56.4941 38.5827C57.7163 37.5484 58.3895 36.975 58.3895 36.975L59.083 37.9503H59.0847Z" fill="url(#paint2_linear_1744_2936)"/>
<path d="M53.9529 41.0516L53.7557 39.6629C53.7557 39.6629 53.1301 38.7981 53.0927 38.1752L52.3431 38.7257C52.3431 38.7257 52.083 39.3943 53.0554 40.4573C53.5228 40.9678 53.9529 41.0516 53.9529 41.0516Z" fill="url(#paint3_linear_1744_2936)"/>
<path d="M53.9839 40.9222L53.4434 47.2562L54.2457 48.0143" stroke="#237B70" stroke-miterlimit="10"/>
<path d="M54.408 42.5959C54.4012 42.754 54.5219 42.8911 54.6783 42.8987C54.8347 42.9064 54.9689 42.7845 54.9757 42.6263C54.9825 42.4682 54.8618 42.3311 54.7055 42.3235C54.5491 42.3158 54.4148 42.4378 54.408 42.5959Z" fill="#4A74E3"/>
<path d="M54.2405 46.1506C54.2337 46.3087 54.3544 46.4458 54.5108 46.4534C54.6672 46.4611 54.8015 46.3391 54.8083 46.181C54.8151 46.0229 54.6944 45.8858 54.538 45.8781C54.3816 45.8705 54.2473 45.9924 54.2405 46.1506Z" fill="#4A74E3"/>
<path d="M49.0412 54.5917C48.9783 55.1003 48.8848 56.1728 48.2797 56.708C47.2921 57.5805 45.8829 58.4053 44.6454 58.8187C42.6481 59.4854 41.9902 60.8208 41.9902 60.8208C41.9902 60.8208 43.4657 61.2323 45.1146 61.8628C46.7634 62.4933 48.3936 62.6591 49.8928 62.12C51.3921 61.5809 54.1968 62.8934 56.0191 64.1544C56.988 64.8231 58.4872 67.6386 60.0477 68.9206C61.4246 70.0502 63.6055 69.3206 63.6055 69.3206C63.6055 69.3206 62.8372 68.9606 62.8627 67.2309C62.8848 65.7584 63.2026 64.6173 63.2026 64.6173C63.2026 64.6173 63.9098 66.5261 64.197 67.2652C64.5268 68.1167 65.2356 68.9073 65.2356 68.9073C65.2356 68.9073 64.5727 65.0783 64.4112 63.2896C64.2497 61.499 64.2038 57.3157 64.2684 55.9251C64.3347 54.5345 63.7313 51.7152 63.7313 51.7152L49.5444 51.9209C49.5444 51.9209 49.2707 52.7115 49.0395 54.5917H49.0412Z" fill="#A1D29A"/>
<path d="M52.3424 61.964C52.3424 61.964 49.3778 63.8804 48.8271 64.1832C48.2763 64.4861 47.474 65.0176 47.1918 65.3033C46.9096 65.591 46.8264 66.0996 46.8264 66.0996C46.8264 66.0996 46.0206 67.3569 45.7589 67.856C45.4971 68.355 45.3883 68.7437 45.56 68.9037C45.7317 69.0637 45.9764 68.9265 45.9764 68.9265C45.9764 68.9265 45.7742 69.399 45.9441 69.6199C46.1141 69.8409 46.4762 69.7399 46.6989 69.4485L46.9215 69.1589C46.9215 69.1589 47.0184 69.618 47.4757 69.4313C47.933 69.2447 48.4208 68.3931 48.7064 68.016C48.7064 68.016 48.5245 68.7017 48.3919 68.997C48.2593 69.2923 48.6401 69.4332 48.9223 69.1456C49.2044 68.858 49.6651 67.9455 50.2532 67.5245C50.8397 67.1035 51.3955 66.0748 51.8188 65.3414C52.2421 64.608 54.8292 62.9126 54.8292 62.9126L52.3458 61.964H52.3424Z" fill="#F7B2A1"/>
<path d="M63.3829 41.0998C60.8926 40.5436 59.6365 42.7723 59.186 45.0602C58.7355 47.348 58.4245 53.701 57.8125 55.2154C57.1326 56.8936 55.2016 59.0214 53.7703 60.332C52.339 61.6426 50.7769 62.9723 50.7769 62.9723C50.7769 62.9723 51.9735 63.9914 52.4971 64.8467C53.0377 65.7287 52.8439 66.0507 52.8439 66.0507C52.8439 66.0507 57.3009 63.6257 59.4478 61.6598C61.5947 59.6958 63.0702 57.4632 63.5155 55.2916C63.9609 53.12 65.8953 41.6618 63.3846 41.1017L63.3829 41.0998Z" fill="#54B18B"/>
<path d="M42.0167 59.8832C42.0167 59.8832 40.6959 61.3443 39.8834 61.8167C39.0709 62.2891 37.1619 63.8683 36.5993 64.4074C36.0366 64.9465 35.5029 66.2266 35.5845 66.3962C35.6644 66.5657 36.0621 66.4438 36.0621 66.4438C36.0621 66.4438 35.7612 66.9333 35.9397 67.0819C36.1182 67.2305 36.4293 67 36.6435 66.7619C36.6435 66.7619 36.912 66.9829 37.2877 66.7276C37.6634 66.4724 38.3127 64.8265 38.6612 64.6112C39.008 64.396 40.2522 63.7712 40.3457 63.8131C40.4392 63.855 39.9021 65.1675 40.1639 65.4532C40.4273 65.739 40.7469 65.8532 41.0002 65.1389C41.2535 64.4245 41.1787 64.1902 41.6665 63.7673C42.1544 63.3444 42.0456 62.7806 42.1391 62.4644C42.2326 62.1482 43.7658 60.9995 43.7658 60.9995L42.0218 59.8851L42.0167 59.8832Z" fill="#F7B2A1"/>
<path d="M45.746 55.0095C45.6712 55.099 45.5931 55.1923 45.5064 55.2952C44.6173 56.3486 41.646 60.0728 41.4743 60.1413C41.3009 60.208 42.1016 60.5833 42.6098 60.9719C43.1181 61.3605 43.4852 61.9034 43.4852 61.9034C43.4852 61.9034 45.3211 60.8119 46.9716 59.3165C48.2499 58.1583 48.8959 55.2552 49.2273 54.1141C47.6635 54.3332 47.1331 55.6362 45.746 55.0095Z" fill="#54B18B"/>
<defs>
<linearGradient id="paint0_linear_1744_2936" x1="51.9141" y1="27.0159" x2="58.4784" y2="32.8134" gradientUnits="userSpaceOnUse">
<stop stop-color="#6E2D55"/>
<stop offset="1" stop-color="#523115"/>
</linearGradient>
<linearGradient id="paint1_linear_1744_2936" x1="48.2209" y1="29.3812" x2="55.6647" y2="35.9562" gradientUnits="userSpaceOnUse">
<stop stop-color="#6E2D55"/>
<stop offset="1" stop-color="#523115"/>
</linearGradient>
<linearGradient id="paint2_linear_1744_2936" x1="58.6616" y1="38.8689" x2="53.3663" y2="39.1016" gradientUnits="userSpaceOnUse">
<stop stop-color="#EEEEEE"/>
<stop offset="1" stop-color="#D5D5D5"/>
</linearGradient>
<linearGradient id="paint3_linear_1744_2936" x1="53.3867" y1="39.566" x2="51.8724" y2="39.6326" gradientUnits="userSpaceOnUse">
<stop stop-color="#EEEEEE"/>
<stop offset="1" stop-color="#D5D5D5"/>
</linearGradient>
</defs>
</svg>
