<svg width="60" height="65" viewBox="0 0 60 65" fill="none" xmlns="http://www.w3.org/2000/svg">
<path d="M0.544067 5.15918C0.544067 2.39775 2.78264 0.15918 5.54407 0.15918H54.4726C57.2341 0.15918 59.4726 2.39776 59.4726 5.15918V59.5273C59.4726 62.2887 57.2341 64.5273 54.4726 64.5273H5.54407C2.78264 64.5273 0.544067 62.2887 0.544067 59.5273V5.15918Z" fill="url(#paint0_linear_3219_5235)"/>
<path d="M30.8394 15.798C30.8394 15.0887 30.2644 14.5137 29.5551 14.5137C28.8458 14.5137 28.2707 15.0887 28.2707 15.798V17.0824C28.2707 17.7917 28.8458 18.3667 29.5551 18.3667C30.2644 18.3667 30.8394 17.7917 30.8394 17.0824V15.798Z" fill="white"/>
<path d="M30.8394 32.4944C30.8394 31.7851 30.2644 31.2101 29.5551 31.2101C28.8458 31.2101 28.2707 31.7851 28.2707 32.4944V35.8155L27.8946 35.4393C27.393 34.9377 26.5798 34.9377 26.0782 35.4393C25.5767 35.9409 25.5767 36.7541 26.0782 37.2556L28.6469 39.8243C29.1485 40.3259 29.9617 40.3259 30.4632 39.8243L33.0319 37.2556C33.5335 36.7541 33.5335 35.9409 33.0319 35.4393C32.5304 34.9377 31.7172 34.9377 31.2156 35.4393L30.8394 35.8155V32.4944Z" fill="white"/>
<path d="M41.1141 28.6414C41.8235 28.6414 42.3985 28.0664 42.3985 27.3571C42.3985 26.6478 41.8235 26.0727 41.1141 26.0727H39.8298C39.1205 26.0727 38.5455 26.6478 38.5455 27.3571C38.5455 28.0664 39.1205 28.6414 39.8298 28.6414H41.1141Z" fill="white"/>
<path d="M20.5647 27.3571C20.5647 28.0664 19.9897 28.6414 19.2804 28.6414H17.996C17.2867 28.6414 16.7117 28.0664 16.7117 27.3571C16.7117 26.6478 17.2867 26.0727 17.996 26.0727H19.2804C19.9897 26.0727 20.5647 26.6478 20.5647 27.3571Z" fill="white"/>
<path d="M38.6367 34.6224L37.7286 33.7142C37.227 33.2127 36.4138 33.2127 35.9122 33.7142C35.4107 34.2158 35.4107 35.029 35.9122 35.5306L36.8204 36.4387C37.322 36.9403 38.1352 36.9403 38.6367 36.4387C39.1383 35.9372 39.1383 35.124 38.6367 34.6224Z" fill="white"/>
<path d="M23.1979 20.9999C22.6963 21.5015 21.8831 21.5015 21.3816 20.9999L20.4734 20.0917C19.9718 19.5902 19.9718 18.777 20.4734 18.2754C20.975 17.7739 21.7882 17.7739 22.2897 18.2754L23.1979 19.1836C23.6995 19.6851 23.6995 20.4983 23.1979 20.9999Z" fill="white"/>
<path d="M20.4734 34.6224C19.9719 35.124 19.9719 35.9372 20.4734 36.4387C20.975 36.9403 21.7882 36.9403 22.2897 36.4387L23.1979 35.5306C23.6995 35.029 23.6995 34.2158 23.1979 33.7142C22.6963 33.2127 21.8831 33.2127 21.3816 33.7142L20.4734 34.6224Z" fill="white"/>
<path d="M35.9122 20.9999C35.4107 20.4984 35.4107 19.6852 35.9122 19.1836L36.8204 18.2754C37.322 17.7739 38.1352 17.7739 38.6367 18.2754C39.1383 18.777 39.1383 19.5902 38.6367 20.0918L37.7286 20.9999C37.227 21.5015 36.4138 21.5015 35.9122 20.9999Z" fill="white"/>
<path d="M25.5589 29.4189C24.6847 27.7259 24.9595 25.5955 26.3765 24.1785C28.132 22.423 30.9782 22.423 32.7337 24.1785C34.1506 25.5955 34.4254 27.7259 33.5513 29.4189C33.2258 30.0492 33.4729 30.8239 34.1032 31.1494C34.7334 31.4748 35.5082 31.2277 35.8336 30.5974C37.2058 27.94 36.7802 24.5924 34.55 22.3622C31.7914 19.6036 27.3188 19.6036 24.5602 22.3622C22.3299 24.5924 21.9043 27.94 23.2765 30.5974C23.602 31.2277 24.3767 31.4748 25.007 31.1494C25.6372 30.8239 25.8843 30.0492 25.5589 29.4189Z" fill="white"/>
<path d="M30.8394 15.798C30.8394 15.0887 30.2644 14.5137 29.5551 14.5137C28.8458 14.5137 28.2707 15.0887 28.2707 15.798V17.0824C28.2707 17.7917 28.8458 18.3667 29.5551 18.3667C30.2644 18.3667 30.8394 17.7917 30.8394 17.0824V15.798Z" stroke="black" stroke-width="0.5" stroke-linecap="round"/>
<path d="M30.8394 32.4944C30.8394 31.7851 30.2644 31.2101 29.5551 31.2101C28.8458 31.2101 28.2707 31.7851 28.2707 32.4944V35.8155L27.8946 35.4393C27.393 34.9377 26.5798 34.9377 26.0782 35.4393C25.5767 35.9409 25.5767 36.7541 26.0782 37.2556L28.6469 39.8243C29.1485 40.3259 29.9617 40.3259 30.4632 39.8243L33.0319 37.2556C33.5335 36.7541 33.5335 35.9409 33.0319 35.4393C32.5304 34.9377 31.7172 34.9377 31.2156 35.4393L30.8394 35.8155V32.4944Z" stroke="black" stroke-width="0.5" stroke-linecap="round"/>
<path d="M41.1141 28.6414C41.8235 28.6414 42.3985 28.0664 42.3985 27.3571C42.3985 26.6478 41.8235 26.0727 41.1141 26.0727H39.8298C39.1205 26.0727 38.5455 26.6478 38.5455 27.3571C38.5455 28.0664 39.1205 28.6414 39.8298 28.6414H41.1141Z" stroke="black" stroke-width="0.5" stroke-linecap="round"/>
<path d="M20.5647 27.3571C20.5647 28.0664 19.9897 28.6414 19.2804 28.6414H17.996C17.2867 28.6414 16.7117 28.0664 16.7117 27.3571C16.7117 26.6478 17.2867 26.0727 17.996 26.0727H19.2804C19.9897 26.0727 20.5647 26.6478 20.5647 27.3571Z" stroke="black" stroke-width="0.5" stroke-linecap="round"/>
<path d="M38.6367 34.6224L37.7286 33.7142C37.227 33.2127 36.4138 33.2127 35.9122 33.7142C35.4107 34.2158 35.4107 35.029 35.9122 35.5306L36.8204 36.4387C37.322 36.9403 38.1352 36.9403 38.6367 36.4387C39.1383 35.9372 39.1383 35.124 38.6367 34.6224Z" stroke="black" stroke-width="0.5" stroke-linecap="round"/>
<path d="M23.1979 20.9999C22.6963 21.5015 21.8831 21.5015 21.3816 20.9999L20.4734 20.0917C19.9718 19.5902 19.9718 18.777 20.4734 18.2754C20.975 17.7739 21.7882 17.7739 22.2897 18.2754L23.1979 19.1836C23.6995 19.6851 23.6995 20.4983 23.1979 20.9999Z" stroke="black" stroke-width="0.5" stroke-linecap="round"/>
<path d="M20.4734 34.6224C19.9719 35.124 19.9719 35.9372 20.4734 36.4387C20.975 36.9403 21.7882 36.9403 22.2897 36.4387L23.1979 35.5306C23.6995 35.029 23.6995 34.2158 23.1979 33.7142C22.6963 33.2127 21.8831 33.2127 21.3816 33.7142L20.4734 34.6224Z" stroke="black" stroke-width="0.5" stroke-linecap="round"/>
<path d="M35.9122 20.9999C35.4107 20.4984 35.4107 19.6852 35.9122 19.1836L36.8204 18.2754C37.322 17.7739 38.1352 17.7739 38.6367 18.2754C39.1383 18.777 39.1383 19.5902 38.6367 20.0918L37.7286 20.9999C37.227 21.5015 36.4138 21.5015 35.9122 20.9999Z" stroke="black" stroke-width="0.5" stroke-linecap="round"/>
<path d="M25.5589 29.4189C24.6847 27.7259 24.9595 25.5955 26.3765 24.1785C28.132 22.423 30.9782 22.423 32.7337 24.1785C34.1506 25.5955 34.4254 27.7259 33.5513 29.4189C33.2258 30.0492 33.4729 30.8239 34.1032 31.1494C34.7334 31.4748 35.5082 31.2277 35.8336 30.5974C37.2058 27.94 36.7802 24.5924 34.55 22.3622C31.7914 19.6036 27.3188 19.6036 24.5602 22.3622C22.3299 24.5924 21.9043 27.94 23.2765 30.5974C23.602 31.2277 24.3767 31.4748 25.007 31.1494C25.6372 30.8239 25.8843 30.0492 25.5589 29.4189Z" stroke="black" stroke-width="0.5" stroke-linecap="round"/>
<mask id="path-3-outside-1_3219_5235" maskUnits="userSpaceOnUse" x="5.70349" y="43.582" width="46" height="13" fill="black">
<rect fill="white" x="5.70349" y="43.582" width="46" height="13"/>
<path d="M7.7738 45.0508H9.44958L11.3539 50.9863L13.2582 45.0508H14.934L12.0336 53.582H10.6742L7.7738 45.0508ZM6.75427 45.0508H8.48865L8.81091 51.5898V53.582H6.75427V45.0508ZM14.2191 45.0508H15.9594V53.582H13.8969V51.5898L14.2191 45.0508ZM20.4769 51.9883V49.375C20.4769 49.1953 20.4515 49.041 20.4008 48.9121C20.35 48.7832 20.2699 48.6836 20.1605 48.6133C20.0511 48.5391 19.9047 48.502 19.7211 48.502C19.5726 48.502 19.4457 48.5273 19.3402 48.5781C19.2347 48.6289 19.1547 48.7051 19.1 48.8066C19.0453 48.9082 19.0179 49.0371 19.0179 49.1934H17.0433C17.0433 48.9004 17.1078 48.6289 17.2367 48.3789C17.3695 48.125 17.557 47.9043 17.7992 47.7168C18.0453 47.5293 18.3383 47.3848 18.6781 47.2832C19.0219 47.1777 19.4047 47.125 19.8265 47.125C20.3304 47.125 20.7797 47.209 21.1742 47.377C21.5726 47.5449 21.8871 47.7969 22.1176 48.1328C22.348 48.4648 22.4633 48.8828 22.4633 49.3867V51.9824C22.4633 52.3965 22.4867 52.7109 22.5336 52.9258C22.5804 53.1367 22.6469 53.3223 22.7328 53.4824V53.582H20.7523C20.6586 53.3867 20.5883 53.1484 20.5414 52.8672C20.4984 52.582 20.4769 52.2891 20.4769 51.9883ZM20.7172 49.709L20.7289 50.7637H19.8558C19.6722 50.7637 19.516 50.7891 19.3871 50.8398C19.2621 50.8906 19.1605 50.9609 19.0824 51.0508C19.0082 51.1367 18.9535 51.2344 18.9183 51.3438C18.8871 51.4531 18.8715 51.5684 18.8715 51.6895C18.8715 51.8066 18.8988 51.9121 18.9535 52.0059C19.0121 52.0957 19.0902 52.166 19.1879 52.2168C19.2855 52.2676 19.3949 52.293 19.516 52.293C19.7347 52.293 19.9203 52.252 20.0726 52.1699C20.2289 52.084 20.348 51.9805 20.4301 51.8594C20.5121 51.7383 20.5531 51.625 20.5531 51.5195L20.9867 52.3281C20.9086 52.4844 20.8187 52.6426 20.7172 52.8027C20.6195 52.9629 20.4965 53.1113 20.348 53.248C20.2035 53.3809 20.0258 53.4902 19.8148 53.5762C19.6039 53.6582 19.348 53.6992 19.0472 53.6992C18.6566 53.6992 18.2972 53.6191 17.9691 53.459C17.6449 53.2988 17.3851 53.0762 17.1898 52.791C16.9945 52.502 16.8969 52.1699 16.8969 51.7949C16.8969 51.4668 16.9554 51.1738 17.0726 50.916C17.1937 50.6582 17.3754 50.4395 17.6176 50.2598C17.8597 50.0801 18.1683 49.9434 18.5433 49.8496C18.9183 49.7559 19.3597 49.709 19.8676 49.709H20.7172ZM27.5433 47.2422H29.3363V53.3359C29.3363 53.9219 29.2015 54.418 28.932 54.8242C28.6625 55.2344 28.2855 55.5449 27.8011 55.7559C27.3207 55.9707 26.7582 56.0781 26.1136 56.0781C25.8285 56.0781 25.5375 56.041 25.2406 55.9668C24.9437 55.8965 24.6664 55.791 24.4086 55.6504C24.1508 55.5098 23.934 55.3359 23.7582 55.1289L24.5844 53.9688C24.7445 54.1484 24.9457 54.3008 25.1879 54.4258C25.4301 54.5547 25.7152 54.6191 26.0433 54.6191C26.3285 54.6191 26.5668 54.5684 26.7582 54.4668C26.9535 54.3652 27.1019 54.2168 27.2035 54.0215C27.3051 53.8301 27.3558 53.5977 27.3558 53.3242V48.7422L27.5433 47.2422ZM23.3304 50.4883V50.3652C23.3304 49.8848 23.389 49.4473 23.5062 49.0527C23.6273 48.6543 23.7992 48.3125 24.0219 48.0273C24.2484 47.7383 24.5219 47.5156 24.8422 47.3594C25.1625 47.2031 25.5238 47.125 25.9261 47.125C26.3597 47.125 26.7152 47.209 26.9926 47.377C27.2738 47.541 27.4984 47.7715 27.6664 48.0684C27.8383 48.3652 27.9711 48.7129 28.0648 49.1113C28.1625 49.5059 28.2445 49.9316 28.3109 50.3887V50.5352C28.2445 50.9648 28.1527 51.3711 28.0355 51.7539C27.9222 52.1328 27.7738 52.4688 27.5902 52.7617C27.4066 53.0547 27.1761 53.2852 26.8988 53.4531C26.6254 53.6172 26.2972 53.6992 25.9144 53.6992C25.516 53.6992 25.1566 53.6191 24.8363 53.459C24.5199 53.2988 24.2484 53.0742 24.0219 52.7852C23.7992 52.4961 23.6273 52.1562 23.5062 51.7656C23.389 51.375 23.3304 50.9492 23.3304 50.4883ZM25.3051 50.3652V50.4883C25.3051 50.7266 25.3265 50.9473 25.3695 51.1504C25.4164 51.3535 25.4867 51.5332 25.5804 51.6895C25.6742 51.8418 25.7894 51.9609 25.9261 52.0469C26.0668 52.1328 26.2308 52.1758 26.4183 52.1758C26.7035 52.1758 26.934 52.1152 27.1097 51.9941C27.2855 51.873 27.4125 51.7012 27.4906 51.4785C27.5687 51.2559 27.6019 50.9941 27.5902 50.6934V50.2305C27.598 49.9727 27.5804 49.7461 27.5375 49.5508C27.4945 49.3516 27.4261 49.1855 27.3324 49.0527C27.2426 48.9199 27.1215 48.8203 26.9691 48.7539C26.8207 48.6836 26.641 48.6484 26.4301 48.6484C26.2465 48.6484 26.0844 48.6914 25.9437 48.7773C25.8031 48.8633 25.6859 48.9844 25.5922 49.1406C25.4984 49.293 25.4261 49.4746 25.3754 49.6855C25.3285 49.8926 25.3051 50.1191 25.3051 50.3652ZM32.4066 44.582V53.582H30.432V44.582H32.4066ZM32.1722 50.1953L31.7094 50.207C31.7094 49.7617 31.764 49.3516 31.8734 48.9766C31.9828 48.6016 32.139 48.2754 32.3422 47.998C32.5453 47.7207 32.7894 47.5059 33.0746 47.3535C33.3597 47.2012 33.6761 47.125 34.0238 47.125C34.3363 47.125 34.6215 47.1699 34.8793 47.2598C35.141 47.3496 35.3656 47.4941 35.5531 47.6934C35.7445 47.8926 35.891 48.1523 35.9926 48.4727C36.098 48.793 36.1508 49.1836 36.1508 49.6445V53.582H34.1644V49.6328C34.1644 49.375 34.1273 49.1758 34.0531 49.0352C33.9828 48.8906 33.8812 48.791 33.7484 48.7363C33.6156 48.6777 33.4535 48.6484 33.2621 48.6484C33.0316 48.6484 32.8441 48.6875 32.6996 48.7656C32.5551 48.8438 32.4437 48.9531 32.3656 49.0938C32.2914 49.2305 32.2406 49.3926 32.2133 49.5801C32.1859 49.7676 32.1722 49.9727 32.1722 50.1953ZM39.2386 48.8125V53.582H37.264V47.2422H39.1097L39.2386 48.8125ZM41.1136 47.1953L41.0785 49.0293C41.0004 49.0215 40.8949 49.0117 40.7621 49C40.6293 48.9883 40.5179 48.9824 40.4281 48.9824C40.1976 48.9824 39.9984 49.0098 39.8304 49.0645C39.6664 49.1152 39.5297 49.1934 39.4203 49.2988C39.3148 49.4004 39.2367 49.5293 39.1859 49.6855C39.139 49.8418 39.1176 50.0234 39.1215 50.2305L38.764 49.9961C38.764 49.5703 38.8051 49.1836 38.8871 48.8359C38.973 48.4844 39.0941 48.1816 39.2504 47.9277C39.4066 47.6699 39.5961 47.4727 39.8187 47.3359C40.0414 47.1953 40.2914 47.125 40.5687 47.125C40.6664 47.125 40.7621 47.1309 40.8558 47.1426C40.9535 47.1543 41.0394 47.1719 41.1136 47.1953ZM43.8793 47.2422V53.582H41.8988V47.2422H43.8793ZM41.7816 45.6074C41.7816 45.3262 41.8832 45.0957 42.0863 44.916C42.2894 44.7363 42.5531 44.6465 42.8773 44.6465C43.2015 44.6465 43.4652 44.7363 43.6683 44.916C43.8715 45.0957 43.973 45.3262 43.973 45.6074C43.973 45.8887 43.8715 46.1191 43.6683 46.2988C43.4652 46.4785 43.2015 46.5684 42.8773 46.5684C42.5531 46.5684 42.2894 46.4785 42.0863 46.2988C41.8832 46.1191 41.7816 45.8887 41.7816 45.6074ZM45.1156 44.582H47.0902V52.0234L46.8851 53.582H45.1156V44.582ZM50.9808 50.3418V50.4648C50.9808 50.9453 50.932 51.3828 50.8344 51.7773C50.7367 52.1719 50.5863 52.5137 50.3832 52.8027C50.1801 53.0879 49.9242 53.3086 49.6156 53.4648C49.307 53.6211 48.9418 53.6992 48.5199 53.6992C48.1371 53.6992 47.809 53.6172 47.5355 53.4531C47.2621 53.2852 47.0336 53.0547 46.85 52.7617C46.6664 52.4648 46.5179 52.123 46.4047 51.7363C46.2914 51.3457 46.2015 50.9277 46.1351 50.4824V50.3359C46.2015 49.8945 46.2914 49.4805 46.4047 49.0938C46.5179 48.7031 46.6664 48.3613 46.85 48.0684C47.0336 47.7715 47.2601 47.541 47.5297 47.377C47.8031 47.209 48.1293 47.125 48.5082 47.125C48.934 47.125 49.3011 47.2051 49.6097 47.3652C49.9222 47.5254 50.1801 47.75 50.3832 48.0391C50.5863 48.3281 50.7367 48.668 50.8344 49.0586C50.932 49.4492 50.9808 49.877 50.9808 50.3418ZM49.0062 50.4648V50.3418C49.0062 50.1113 48.9926 49.8945 48.9652 49.6914C48.9379 49.4883 48.889 49.3086 48.8187 49.1523C48.7484 48.9961 48.6488 48.873 48.5199 48.7832C48.391 48.6934 48.223 48.6484 48.016 48.6484C47.8051 48.6484 47.6273 48.6836 47.4828 48.7539C47.3422 48.8242 47.2289 48.9258 47.1429 49.0586C47.0609 49.1875 47.0023 49.3477 46.9672 49.5391C46.932 49.7266 46.9164 49.9395 46.9203 50.1777V50.6406C46.9125 50.9648 46.9418 51.2422 47.0082 51.4727C47.0746 51.7031 47.1898 51.8789 47.3539 52C47.5179 52.1211 47.7426 52.1816 48.0277 52.1816C48.2386 52.1816 48.4086 52.1406 48.5375 52.0586C48.6703 51.9766 48.7699 51.8594 48.8363 51.707C48.9027 51.5547 48.9476 51.373 48.9711 51.1621C48.9945 50.9512 49.0062 50.7188 49.0062 50.4648Z"/>
</mask>
<path d="M7.7738 45.0508H9.44958L11.3539 50.9863L13.2582 45.0508H14.934L12.0336 53.582H10.6742L7.7738 45.0508ZM6.75427 45.0508H8.48865L8.81091 51.5898V53.582H6.75427V45.0508ZM14.2191 45.0508H15.9594V53.582H13.8969V51.5898L14.2191 45.0508ZM20.4769 51.9883V49.375C20.4769 49.1953 20.4515 49.041 20.4008 48.9121C20.35 48.7832 20.2699 48.6836 20.1605 48.6133C20.0511 48.5391 19.9047 48.502 19.7211 48.502C19.5726 48.502 19.4457 48.5273 19.3402 48.5781C19.2347 48.6289 19.1547 48.7051 19.1 48.8066C19.0453 48.9082 19.0179 49.0371 19.0179 49.1934H17.0433C17.0433 48.9004 17.1078 48.6289 17.2367 48.3789C17.3695 48.125 17.557 47.9043 17.7992 47.7168C18.0453 47.5293 18.3383 47.3848 18.6781 47.2832C19.0219 47.1777 19.4047 47.125 19.8265 47.125C20.3304 47.125 20.7797 47.209 21.1742 47.377C21.5726 47.5449 21.8871 47.7969 22.1176 48.1328C22.348 48.4648 22.4633 48.8828 22.4633 49.3867V51.9824C22.4633 52.3965 22.4867 52.7109 22.5336 52.9258C22.5804 53.1367 22.6469 53.3223 22.7328 53.4824V53.582H20.7523C20.6586 53.3867 20.5883 53.1484 20.5414 52.8672C20.4984 52.582 20.4769 52.2891 20.4769 51.9883ZM20.7172 49.709L20.7289 50.7637H19.8558C19.6722 50.7637 19.516 50.7891 19.3871 50.8398C19.2621 50.8906 19.1605 50.9609 19.0824 51.0508C19.0082 51.1367 18.9535 51.2344 18.9183 51.3438C18.8871 51.4531 18.8715 51.5684 18.8715 51.6895C18.8715 51.8066 18.8988 51.9121 18.9535 52.0059C19.0121 52.0957 19.0902 52.166 19.1879 52.2168C19.2855 52.2676 19.3949 52.293 19.516 52.293C19.7347 52.293 19.9203 52.252 20.0726 52.1699C20.2289 52.084 20.348 51.9805 20.4301 51.8594C20.5121 51.7383 20.5531 51.625 20.5531 51.5195L20.9867 52.3281C20.9086 52.4844 20.8187 52.6426 20.7172 52.8027C20.6195 52.9629 20.4965 53.1113 20.348 53.248C20.2035 53.3809 20.0258 53.4902 19.8148 53.5762C19.6039 53.6582 19.348 53.6992 19.0472 53.6992C18.6566 53.6992 18.2972 53.6191 17.9691 53.459C17.6449 53.2988 17.3851 53.0762 17.1898 52.791C16.9945 52.502 16.8969 52.1699 16.8969 51.7949C16.8969 51.4668 16.9554 51.1738 17.0726 50.916C17.1937 50.6582 17.3754 50.4395 17.6176 50.2598C17.8597 50.0801 18.1683 49.9434 18.5433 49.8496C18.9183 49.7559 19.3597 49.709 19.8676 49.709H20.7172ZM27.5433 47.2422H29.3363V53.3359C29.3363 53.9219 29.2015 54.418 28.932 54.8242C28.6625 55.2344 28.2855 55.5449 27.8011 55.7559C27.3207 55.9707 26.7582 56.0781 26.1136 56.0781C25.8285 56.0781 25.5375 56.041 25.2406 55.9668C24.9437 55.8965 24.6664 55.791 24.4086 55.6504C24.1508 55.5098 23.934 55.3359 23.7582 55.1289L24.5844 53.9688C24.7445 54.1484 24.9457 54.3008 25.1879 54.4258C25.4301 54.5547 25.7152 54.6191 26.0433 54.6191C26.3285 54.6191 26.5668 54.5684 26.7582 54.4668C26.9535 54.3652 27.1019 54.2168 27.2035 54.0215C27.3051 53.8301 27.3558 53.5977 27.3558 53.3242V48.7422L27.5433 47.2422ZM23.3304 50.4883V50.3652C23.3304 49.8848 23.389 49.4473 23.5062 49.0527C23.6273 48.6543 23.7992 48.3125 24.0219 48.0273C24.2484 47.7383 24.5219 47.5156 24.8422 47.3594C25.1625 47.2031 25.5238 47.125 25.9261 47.125C26.3597 47.125 26.7152 47.209 26.9926 47.377C27.2738 47.541 27.4984 47.7715 27.6664 48.0684C27.8383 48.3652 27.9711 48.7129 28.0648 49.1113C28.1625 49.5059 28.2445 49.9316 28.3109 50.3887V50.5352C28.2445 50.9648 28.1527 51.3711 28.0355 51.7539C27.9222 52.1328 27.7738 52.4688 27.5902 52.7617C27.4066 53.0547 27.1761 53.2852 26.8988 53.4531C26.6254 53.6172 26.2972 53.6992 25.9144 53.6992C25.516 53.6992 25.1566 53.6191 24.8363 53.459C24.5199 53.2988 24.2484 53.0742 24.0219 52.7852C23.7992 52.4961 23.6273 52.1562 23.5062 51.7656C23.389 51.375 23.3304 50.9492 23.3304 50.4883ZM25.3051 50.3652V50.4883C25.3051 50.7266 25.3265 50.9473 25.3695 51.1504C25.4164 51.3535 25.4867 51.5332 25.5804 51.6895C25.6742 51.8418 25.7894 51.9609 25.9261 52.0469C26.0668 52.1328 26.2308 52.1758 26.4183 52.1758C26.7035 52.1758 26.934 52.1152 27.1097 51.9941C27.2855 51.873 27.4125 51.7012 27.4906 51.4785C27.5687 51.2559 27.6019 50.9941 27.5902 50.6934V50.2305C27.598 49.9727 27.5804 49.7461 27.5375 49.5508C27.4945 49.3516 27.4261 49.1855 27.3324 49.0527C27.2426 48.9199 27.1215 48.8203 26.9691 48.7539C26.8207 48.6836 26.641 48.6484 26.4301 48.6484C26.2465 48.6484 26.0844 48.6914 25.9437 48.7773C25.8031 48.8633 25.6859 48.9844 25.5922 49.1406C25.4984 49.293 25.4261 49.4746 25.3754 49.6855C25.3285 49.8926 25.3051 50.1191 25.3051 50.3652ZM32.4066 44.582V53.582H30.432V44.582H32.4066ZM32.1722 50.1953L31.7094 50.207C31.7094 49.7617 31.764 49.3516 31.8734 48.9766C31.9828 48.6016 32.139 48.2754 32.3422 47.998C32.5453 47.7207 32.7894 47.5059 33.0746 47.3535C33.3597 47.2012 33.6761 47.125 34.0238 47.125C34.3363 47.125 34.6215 47.1699 34.8793 47.2598C35.141 47.3496 35.3656 47.4941 35.5531 47.6934C35.7445 47.8926 35.891 48.1523 35.9926 48.4727C36.098 48.793 36.1508 49.1836 36.1508 49.6445V53.582H34.1644V49.6328C34.1644 49.375 34.1273 49.1758 34.0531 49.0352C33.9828 48.8906 33.8812 48.791 33.7484 48.7363C33.6156 48.6777 33.4535 48.6484 33.2621 48.6484C33.0316 48.6484 32.8441 48.6875 32.6996 48.7656C32.5551 48.8438 32.4437 48.9531 32.3656 49.0938C32.2914 49.2305 32.2406 49.3926 32.2133 49.5801C32.1859 49.7676 32.1722 49.9727 32.1722 50.1953ZM39.2386 48.8125V53.582H37.264V47.2422H39.1097L39.2386 48.8125ZM41.1136 47.1953L41.0785 49.0293C41.0004 49.0215 40.8949 49.0117 40.7621 49C40.6293 48.9883 40.5179 48.9824 40.4281 48.9824C40.1976 48.9824 39.9984 49.0098 39.8304 49.0645C39.6664 49.1152 39.5297 49.1934 39.4203 49.2988C39.3148 49.4004 39.2367 49.5293 39.1859 49.6855C39.139 49.8418 39.1176 50.0234 39.1215 50.2305L38.764 49.9961C38.764 49.5703 38.8051 49.1836 38.8871 48.8359C38.973 48.4844 39.0941 48.1816 39.2504 47.9277C39.4066 47.6699 39.5961 47.4727 39.8187 47.3359C40.0414 47.1953 40.2914 47.125 40.5687 47.125C40.6664 47.125 40.7621 47.1309 40.8558 47.1426C40.9535 47.1543 41.0394 47.1719 41.1136 47.1953ZM43.8793 47.2422V53.582H41.8988V47.2422H43.8793ZM41.7816 45.6074C41.7816 45.3262 41.8832 45.0957 42.0863 44.916C42.2894 44.7363 42.5531 44.6465 42.8773 44.6465C43.2015 44.6465 43.4652 44.7363 43.6683 44.916C43.8715 45.0957 43.973 45.3262 43.973 45.6074C43.973 45.8887 43.8715 46.1191 43.6683 46.2988C43.4652 46.4785 43.2015 46.5684 42.8773 46.5684C42.5531 46.5684 42.2894 46.4785 42.0863 46.2988C41.8832 46.1191 41.7816 45.8887 41.7816 45.6074ZM45.1156 44.582H47.0902V52.0234L46.8851 53.582H45.1156V44.582ZM50.9808 50.3418V50.4648C50.9808 50.9453 50.932 51.3828 50.8344 51.7773C50.7367 52.1719 50.5863 52.5137 50.3832 52.8027C50.1801 53.0879 49.9242 53.3086 49.6156 53.4648C49.307 53.6211 48.9418 53.6992 48.5199 53.6992C48.1371 53.6992 47.809 53.6172 47.5355 53.4531C47.2621 53.2852 47.0336 53.0547 46.85 52.7617C46.6664 52.4648 46.5179 52.123 46.4047 51.7363C46.2914 51.3457 46.2015 50.9277 46.1351 50.4824V50.3359C46.2015 49.8945 46.2914 49.4805 46.4047 49.0938C46.5179 48.7031 46.6664 48.3613 46.85 48.0684C47.0336 47.7715 47.2601 47.541 47.5297 47.377C47.8031 47.209 48.1293 47.125 48.5082 47.125C48.934 47.125 49.3011 47.2051 49.6097 47.3652C49.9222 47.5254 50.1801 47.75 50.3832 48.0391C50.5863 48.3281 50.7367 48.668 50.8344 49.0586C50.932 49.4492 50.9808 49.877 50.9808 50.3418ZM49.0062 50.4648V50.3418C49.0062 50.1113 48.9926 49.8945 48.9652 49.6914C48.9379 49.4883 48.889 49.3086 48.8187 49.1523C48.7484 48.9961 48.6488 48.873 48.5199 48.7832C48.391 48.6934 48.223 48.6484 48.016 48.6484C47.8051 48.6484 47.6273 48.6836 47.4828 48.7539C47.3422 48.8242 47.2289 48.9258 47.1429 49.0586C47.0609 49.1875 47.0023 49.3477 46.9672 49.5391C46.932 49.7266 46.9164 49.9395 46.9203 50.1777V50.6406C46.9125 50.9648 46.9418 51.2422 47.0082 51.4727C47.0746 51.7031 47.1898 51.8789 47.3539 52C47.5179 52.1211 47.7426 52.1816 48.0277 52.1816C48.2386 52.1816 48.4086 52.1406 48.5375 52.0586C48.6703 51.9766 48.7699 51.8594 48.8363 51.707C48.9027 51.5547 48.9476 51.373 48.9711 51.1621C48.9945 50.9512 49.0062 50.7188 49.0062 50.4648Z" fill="#FCFCFC"/>
<path d="M7.7738 45.0508V44.5508H7.07571L7.30041 45.2117L7.7738 45.0508ZM9.44958 45.0508L9.92568 44.898L9.81427 44.5508H9.44958V45.0508ZM11.3539 50.9863L10.8778 51.1391L11.3539 52.623L11.83 51.1391L11.3539 50.9863ZM13.2582 45.0508V44.5508H12.8935L12.7821 44.898L13.2582 45.0508ZM14.934 45.0508L15.4074 45.2117L15.6321 44.5508H14.934V45.0508ZM12.0336 53.582V54.082H12.3917L12.507 53.743L12.0336 53.582ZM10.6742 53.582L10.2008 53.743L10.3161 54.082H10.6742V53.582ZM6.75427 45.0508V44.5508H6.25427V45.0508H6.75427ZM8.48865 45.0508L8.98804 45.0262L8.96461 44.5508H8.48865V45.0508ZM8.81091 51.5898H9.31091V51.5775L9.31031 51.5652L8.81091 51.5898ZM8.81091 53.582V54.082H9.31091V53.582H8.81091ZM6.75427 53.582H6.25427V54.082H6.75427V53.582ZM14.2191 45.0508V44.5508H13.7432L13.7197 45.0262L14.2191 45.0508ZM15.9594 45.0508H16.4594V44.5508H15.9594V45.0508ZM15.9594 53.582V54.082H16.4594V53.582H15.9594ZM13.8969 53.582H13.3969V54.082H13.8969V53.582ZM13.8969 51.5898L13.3975 51.5652L13.3969 51.5775V51.5898H13.8969ZM7.7738 45.5508H9.44958V44.5508H7.7738V45.5508ZM8.97349 45.2035L10.8778 51.1391L11.83 50.8336L9.92568 44.898L8.97349 45.2035ZM11.83 51.1391L13.7343 45.2035L12.7821 44.898L10.8778 50.8336L11.83 51.1391ZM13.2582 45.5508H14.934V44.5508H13.2582V45.5508ZM14.4606 44.8898L11.5602 53.4211L12.507 53.743L15.4074 45.2117L14.4606 44.8898ZM12.0336 53.082H10.6742V54.082H12.0336V53.082ZM11.1476 53.4211L8.24719 44.8898L7.30041 45.2117L10.2008 53.743L11.1476 53.4211ZM6.75427 45.5508H8.48865V44.5508H6.75427V45.5508ZM7.98925 45.0754L8.31152 51.6145L9.31031 51.5652L8.98804 45.0262L7.98925 45.0754ZM8.31091 51.5898V53.582H9.31091V51.5898H8.31091ZM8.81091 53.082H6.75427V54.082H8.81091V53.082ZM7.25427 53.582V45.0508H6.25427V53.582H7.25427ZM14.2191 45.5508H15.9594V44.5508H14.2191V45.5508ZM15.4594 45.0508V53.582H16.4594V45.0508H15.4594ZM15.9594 53.082H13.8969V54.082H15.9594V53.082ZM14.3969 53.582V51.5898H13.3969V53.582H14.3969ZM14.3962 51.6145L14.7185 45.0754L13.7197 45.0262L13.3975 51.5652L14.3962 51.6145ZM20.1605 48.6133L19.8797 49.0271L19.8901 49.0339L20.1605 48.6133ZM19.0179 49.1934V49.6934H19.5179V49.1934H19.0179ZM17.0433 49.1934H16.5433V49.6934H17.0433V49.1934ZM17.2367 48.3789L16.7936 48.1472L16.7923 48.1498L17.2367 48.3789ZM17.7992 47.7168L17.4962 47.3191L17.4931 47.3214L17.7992 47.7168ZM18.6781 47.2832L18.8213 47.7623L18.8248 47.7612L18.6781 47.2832ZM21.1742 47.377L20.9783 47.837L20.98 47.8377L21.1742 47.377ZM22.1176 48.1328L21.7052 48.4157L21.7068 48.4179L22.1176 48.1328ZM22.5336 52.9258L22.0451 53.0324L22.0455 53.0342L22.5336 52.9258ZM22.7328 53.4824H23.2328V53.3568L23.1734 53.246L22.7328 53.4824ZM22.7328 53.582V54.082H23.2328V53.582H22.7328ZM20.7523 53.582L20.3016 53.7984L20.4377 54.082H20.7523V53.582ZM20.5414 52.8672L20.0469 52.9417L20.0482 52.9494L20.5414 52.8672ZM20.7172 49.709L21.2171 49.7034L21.2116 49.209H20.7172V49.709ZM20.7289 50.7637V51.2637H21.2345L21.2289 50.7581L20.7289 50.7637ZM19.3871 50.8398L19.2038 50.3746L19.1989 50.3766L19.3871 50.8398ZM19.0824 51.0508L18.7051 50.7227L18.704 50.724L19.0824 51.0508ZM18.9183 51.3438L18.4423 51.1907L18.4398 51.1985L18.4376 51.2064L18.9183 51.3438ZM18.9535 52.0059L18.5216 52.2578L18.5279 52.2686L18.5347 52.279L18.9535 52.0059ZM20.0726 52.1699L20.3097 52.6102L20.3136 52.608L20.0726 52.1699ZM20.5531 51.5195L20.9937 51.2832L20.0531 51.5195H20.5531ZM20.9867 52.3281L21.4339 52.5517L21.5497 52.3201L21.4273 52.0918L20.9867 52.3281ZM20.7172 52.8027L20.2948 52.5349L20.2903 52.5424L20.7172 52.8027ZM20.348 53.248L20.6863 53.6162L20.6868 53.6158L20.348 53.248ZM19.8148 53.5762L19.9961 54.0422L20.0035 54.0392L19.8148 53.5762ZM17.9691 53.459L17.7477 53.9073L17.7498 53.9083L17.9691 53.459ZM17.1898 52.791L16.7755 53.0709L16.7773 53.0736L17.1898 52.791ZM17.0726 50.916L16.62 50.7034L16.6174 50.7091L17.0726 50.916ZM20.9769 51.9883V49.375H19.9769V51.9883H20.9769ZM20.9769 49.375C20.9769 49.1503 20.9454 48.9306 20.866 48.7288L19.9356 49.0954C19.9576 49.1514 19.9769 49.2403 19.9769 49.375H20.9769ZM20.866 48.7288C20.7794 48.5091 20.6344 48.3235 20.4309 48.1927L19.8901 49.0339C19.9054 49.0436 19.9205 49.0573 19.9356 49.0954L20.866 48.7288ZM20.4413 48.1995C20.2226 48.0511 19.9671 48.002 19.7211 48.002V49.002C19.8422 49.002 19.8797 49.027 19.8798 49.027L20.4413 48.1995ZM19.7211 48.002C19.5171 48.002 19.3121 48.0367 19.1233 48.1276L19.5571 49.0286C19.5793 49.018 19.6282 49.002 19.7211 49.002V48.002ZM19.1233 48.1276C18.9242 48.2235 18.7653 48.3736 18.6597 48.5696L19.5402 49.0437C19.5421 49.0403 19.5434 49.0383 19.5442 49.0373C19.5449 49.0364 19.5453 49.0359 19.5457 49.0356C19.5458 49.0355 19.5485 49.0328 19.5571 49.0286L19.1233 48.1276ZM18.6597 48.5696C18.5544 48.7652 18.5179 48.9824 18.5179 49.1934H19.5179C19.5179 49.0918 19.5362 49.0512 19.5402 49.0437L18.6597 48.5696ZM19.0179 48.6934H17.0433V49.6934H19.0179V48.6934ZM17.5433 49.1934C17.5433 48.9767 17.5903 48.7842 17.6811 48.6081L16.7923 48.1498C16.6253 48.4736 16.5433 48.8241 16.5433 49.1934H17.5433ZM17.6797 48.6107C17.7769 48.4248 17.916 48.2587 18.1053 48.1122L17.4931 47.3214C17.198 47.5499 16.9621 47.8252 16.7936 48.1472L17.6797 48.6107ZM18.1022 48.1145C18.2939 47.9685 18.5308 47.8491 18.8213 47.7623L18.5349 46.8041C18.1457 46.9205 17.7967 47.0901 17.4962 47.3191L18.1022 48.1145ZM18.8248 47.7612C19.1136 47.6726 19.446 47.625 19.8265 47.625V46.625C19.3633 46.625 18.9301 46.6829 18.5314 46.8052L18.8248 47.7612ZM19.8265 47.625C20.2748 47.625 20.6556 47.6996 20.9783 47.837L21.3701 46.9169C20.9037 46.7184 20.3861 46.625 19.8265 46.625V47.625ZM20.98 47.8377C21.2959 47.9709 21.5323 48.1636 21.7053 48.4157L22.5299 47.85C22.2418 47.4301 21.8494 47.119 21.3684 46.9162L20.98 47.8377ZM21.7068 48.4179C21.8662 48.6476 21.9633 48.9594 21.9633 49.3867H22.9633C22.9633 48.8062 22.8298 48.2821 22.5283 47.8477L21.7068 48.4179ZM21.9633 49.3867V51.9824H22.9633V49.3867H21.9633ZM21.9633 51.9824C21.9633 52.4068 21.9866 52.7642 22.0451 53.0324L23.0221 52.8192C22.9868 52.6577 22.9633 52.3862 22.9633 51.9824H21.9633ZM22.0455 53.0342C22.1005 53.2817 22.181 53.5117 22.2922 53.7188L23.1734 53.246C23.1127 53.1329 23.0604 52.9918 23.0217 52.8173L22.0455 53.0342ZM22.2328 53.4824V53.582H23.2328V53.4824H22.2328ZM22.7328 53.082H20.7523V54.082H22.7328V53.082ZM21.2031 53.3657C21.135 53.2238 21.076 53.0335 21.0346 52.785L20.0482 52.9494C20.1005 53.2634 20.1821 53.5496 20.3016 53.7984L21.2031 53.3657ZM21.0358 52.7927C20.9967 52.5332 20.9769 52.2652 20.9769 51.9883H19.9769C19.9769 52.3129 20.0001 52.6308 20.047 52.9417L21.0358 52.7927ZM20.2172 49.7145L20.2289 50.7692L21.2289 50.7581L21.2171 49.7034L20.2172 49.7145ZM20.7289 50.2637H19.8558V51.2637H20.7289V50.2637ZM19.8558 50.2637C19.6288 50.2637 19.4067 50.2947 19.2038 50.3746L19.5703 51.305C19.6253 51.2834 19.7157 51.2637 19.8558 51.2637V50.2637ZM19.1989 50.3766C19.0109 50.453 18.8413 50.5661 18.7051 50.7227L19.4597 51.3789C19.4798 51.3558 19.5133 51.3283 19.5753 51.3031L19.1989 50.3766ZM18.704 50.724C18.5854 50.8613 18.4978 51.0182 18.4423 51.1907L19.3943 51.4968C19.4092 51.4505 19.431 51.4121 19.4608 51.3776L18.704 50.724ZM18.4376 51.2064C18.3928 51.3632 18.3715 51.5249 18.3715 51.6895H19.3715C19.3715 51.6118 19.3814 51.543 19.3991 51.4811L18.4376 51.2064ZM18.3715 51.6895C18.3715 51.8879 18.4188 52.0815 18.5216 52.2578L19.3854 51.7539C19.3788 51.7427 19.3715 51.7254 19.3715 51.6895H18.3715ZM18.5347 52.279C18.6415 52.4428 18.7853 52.571 18.9572 52.6604L19.4185 51.7732C19.3951 51.761 19.3826 51.7486 19.3723 51.7327L18.5347 52.279ZM18.9572 52.6604C19.133 52.7518 19.3228 52.793 19.516 52.793V51.793C19.467 51.793 19.438 51.7833 19.4185 51.7732L18.9572 52.6604ZM19.516 52.793C19.7961 52.793 20.0677 52.7404 20.3097 52.6102L19.8356 51.7297C19.7729 51.7635 19.6734 51.793 19.516 51.793V52.793ZM20.3136 52.608C20.5242 52.4922 20.7089 52.3392 20.844 52.1398L20.0161 51.579C19.9871 51.6217 19.9336 51.6758 19.8317 51.7318L20.3136 52.608ZM20.844 52.1398C20.9611 51.9669 21.0531 51.7568 21.0531 51.5195H20.0531C20.0531 51.4932 20.0631 51.5096 20.0161 51.579L20.844 52.1398ZM20.1125 51.7558L20.546 52.5644L21.4273 52.0918L20.9937 51.2832L20.1125 51.7558ZM20.5395 52.1045C20.4695 52.2444 20.3882 52.3879 20.2949 52.535L21.1394 53.0705C21.2493 52.8973 21.3476 52.7243 21.4339 52.5517L20.5395 52.1045ZM20.2903 52.5424C20.2186 52.6599 20.1261 52.7727 20.0093 52.8803L20.6868 53.6158C20.8669 53.4499 21.0204 53.2658 21.1441 53.063L20.2903 52.5424ZM20.0097 52.8799C19.9154 52.9665 19.7907 53.0461 19.6262 53.1131L20.0035 54.0392C20.2608 53.9344 20.4915 53.7952 20.6863 53.6162L20.0097 52.8799ZM19.6336 53.1102C19.496 53.1637 19.3053 53.1992 19.0472 53.1992V54.1992C19.3908 54.1992 19.7118 54.1527 19.996 54.0422L19.6336 53.1102ZM19.0472 53.1992C18.7272 53.1992 18.4435 53.1342 18.1884 53.0097L17.7498 53.9083C18.1509 54.1041 18.586 54.1992 19.0472 54.1992V53.1992ZM18.1906 53.0107C17.9395 52.8867 17.7469 52.7196 17.6023 52.5085L16.7773 53.0736C17.0233 53.4327 17.3503 53.711 17.7477 53.9073L18.1906 53.0107ZM17.6041 52.5111C17.4689 52.311 17.3969 52.078 17.3969 51.7949H16.3969C16.3969 52.2618 16.5201 52.6929 16.7755 53.0709L17.6041 52.5111ZM17.3969 51.7949C17.3969 51.5269 17.4445 51.3062 17.5278 51.1229L16.6174 50.7091C16.4664 51.0414 16.3969 51.4067 16.3969 51.7949H17.3969ZM17.5252 51.1286C17.6091 50.95 17.7356 50.7947 17.9155 50.6613L17.3196 49.8582C17.0151 50.0842 16.7784 50.3664 16.6201 50.7034L17.5252 51.1286ZM17.9155 50.6613C18.0922 50.5302 18.3362 50.4168 18.6646 50.3347L18.4221 49.3645C18.0005 49.4699 17.6272 49.63 17.3196 49.8582L17.9155 50.6613ZM18.6646 50.3347C18.9898 50.2534 19.3887 50.209 19.8676 50.209V49.209C19.3308 49.209 18.8469 49.2583 18.4221 49.3645L18.6646 50.3347ZM19.8676 50.209H20.7172V49.209H19.8676V50.209ZM27.5433 47.2422V46.7422H27.1019L27.0472 47.1802L27.5433 47.2422ZM29.3363 47.2422H29.8363V46.7422H29.3363V47.2422ZM28.932 54.8242L28.5154 54.5478L28.5142 54.5496L28.932 54.8242ZM27.8011 55.7559L27.6015 55.2974L27.597 55.2994L27.8011 55.7559ZM25.2406 55.9668L25.3619 55.4817L25.3558 55.4803L25.2406 55.9668ZM23.7582 55.1289L23.3509 54.8389L23.1252 55.1559L23.377 55.4525L23.7582 55.1289ZM24.5844 53.9688L24.9576 53.6361L24.5406 53.1682L24.1771 53.6787L24.5844 53.9688ZM25.1879 54.4258L25.4228 53.9844L25.4172 53.9815L25.1879 54.4258ZM26.7582 54.4668L26.5275 54.0232L26.5238 54.0251L26.7582 54.4668ZM27.2035 54.0215L26.7618 53.7871L26.7599 53.7908L27.2035 54.0215ZM27.3558 48.7422L26.8597 48.6802L26.8558 48.7111V48.7422H27.3558ZM23.5062 49.0527L23.0278 48.9073L23.0269 48.9104L23.5062 49.0527ZM24.0219 48.0273L23.6283 47.7189L23.6278 47.7196L24.0219 48.0273ZM26.9926 47.377L26.7335 47.8047L26.7406 47.8088L26.9926 47.377ZM27.6664 48.0684L27.2312 48.3146L27.2337 48.3189L27.6664 48.0684ZM28.0648 49.1113L27.5781 49.2259L27.5795 49.2315L28.0648 49.1113ZM28.3109 50.3887H28.8109V50.3525L28.8057 50.3168L28.3109 50.3887ZM28.3109 50.5352L28.805 50.6115L28.8109 50.5736V50.5352H28.3109ZM28.0355 51.7539L27.5574 51.6075L27.5565 51.6107L28.0355 51.7539ZM26.8988 53.4531L27.1561 53.8819L27.1578 53.8808L26.8988 53.4531ZM24.8363 53.459L24.6105 53.9051L24.6127 53.9062L24.8363 53.459ZM24.0219 52.7852L23.6257 53.0903L23.6283 53.0936L24.0219 52.7852ZM23.5062 51.7656L23.0273 51.9093L23.0286 51.9137L23.5062 51.7656ZM25.3695 51.1504L24.8802 51.2539L24.8823 51.2628L25.3695 51.1504ZM25.5804 51.6895L25.1517 51.9467L25.1546 51.9515L25.5804 51.6895ZM25.9261 52.0469L25.66 52.4702L25.6654 52.4735L25.9261 52.0469ZM27.5902 50.6934H27.0902V50.7031L27.0906 50.7128L27.5902 50.6934ZM27.5902 50.2305L27.0904 50.2153L27.0902 50.2229V50.2305H27.5902ZM27.5375 49.5508L27.0487 49.6562L27.0492 49.6582L27.5375 49.5508ZM27.3324 49.0527L26.9182 49.3329L26.9239 49.3411L27.3324 49.0527ZM26.9691 48.7539L26.7551 49.2058L26.7621 49.2091L26.7693 49.2123L26.9691 48.7539ZM25.5922 49.1406L26.018 49.4027L26.0209 49.3979L25.5922 49.1406ZM25.3754 49.6855L24.8892 49.5685L24.8877 49.5751L25.3754 49.6855ZM27.5433 47.7422H29.3363V46.7422H27.5433V47.7422ZM28.8363 47.2422V53.3359H29.8363V47.2422H28.8363ZM28.8363 53.3359C28.8363 53.8437 28.7204 54.2388 28.5154 54.5478L29.3486 55.1006C29.6827 54.5972 29.8363 54.0001 29.8363 53.3359H28.8363ZM28.5142 54.5496C28.3021 54.8724 28.004 55.1222 27.6015 55.2974L28.0008 56.2143C28.5671 55.9677 29.0229 55.5964 29.3499 55.0988L28.5142 54.5496ZM27.597 55.2994C27.1935 55.4799 26.7033 55.5781 26.1136 55.5781V56.5781C26.8131 56.5781 27.4478 56.4616 28.0052 56.2123L27.597 55.2994ZM26.1136 55.5781C25.8722 55.5781 25.622 55.5467 25.3619 55.4817L25.1193 56.4519C25.453 56.5353 25.7847 56.5781 26.1136 56.5781V55.5781ZM25.3558 55.4803C25.1006 55.4198 24.8652 55.3299 24.648 55.2114L24.1691 56.0893C24.4675 56.2521 24.7868 56.3732 25.1254 56.4533L25.3558 55.4803ZM24.648 55.2114C24.4397 55.0978 24.2722 54.9618 24.1393 54.8053L23.377 55.4525C23.5957 55.7101 23.8618 55.9217 24.1691 56.0893L24.648 55.2114ZM24.1655 55.4189L24.9916 54.2588L24.1771 53.6787L23.3509 54.8389L24.1655 55.4189ZM24.2111 54.3014C24.417 54.5325 24.6691 54.7207 24.9585 54.8701L25.4172 53.9815C25.2223 53.8809 25.072 53.7644 24.9576 53.6361L24.2111 54.3014ZM24.9529 54.8672C25.2804 55.0414 25.6493 55.1191 26.0433 55.1191V54.1191C25.7812 54.1191 25.5798 54.068 25.4228 53.9844L24.9529 54.8672ZM26.0433 55.1191C26.3853 55.1191 26.7098 55.0585 26.9925 54.9085L26.5238 54.0251C26.4238 54.0782 26.2717 54.1191 26.0433 54.1191V55.1191ZM26.9889 54.9104C27.2753 54.7614 27.4981 54.5386 27.6471 54.2522L26.7599 53.7908C26.7057 53.8949 26.6316 53.969 26.5275 54.0232L26.9889 54.9104ZM27.6452 54.2558C27.7938 53.9758 27.8558 53.6584 27.8558 53.3242H26.8558C26.8558 53.5369 26.8163 53.6844 26.7618 53.7871L27.6452 54.2558ZM27.8558 53.3242V48.7422H26.8558V53.3242H27.8558ZM27.852 48.8042L28.0395 47.3042L27.0472 47.1802L26.8597 48.6802L27.852 48.8042ZM23.8304 50.4883V50.3652H22.8304V50.4883H23.8304ZM23.8304 50.3652C23.8304 49.9251 23.8841 49.5365 23.9855 49.1951L23.0269 48.9104C22.8939 49.3581 22.8304 49.8444 22.8304 50.3652H23.8304ZM23.9846 49.1981C24.0905 48.8497 24.2364 48.565 24.4159 48.3351L23.6278 47.7196C23.362 48.06 23.1641 48.4588 23.0278 48.9073L23.9846 49.1981ZM24.4154 48.3358C24.5967 48.1044 24.8112 47.9308 25.0614 47.8088L24.623 46.91C24.2325 47.1005 23.9001 47.3721 23.6283 47.7189L24.4154 48.3358ZM25.0614 47.8088C25.3051 47.6899 25.5899 47.625 25.9261 47.625V46.625C25.4577 46.625 25.0199 46.7164 24.623 46.91L25.0614 47.8088ZM25.9261 47.625C26.2983 47.625 26.5564 47.6974 26.7335 47.8046L27.2516 46.9493C26.874 46.7206 26.4212 46.625 25.9261 46.625V47.625ZM26.7406 47.8088C26.9417 47.9262 27.1047 48.0909 27.2312 48.3146L28.1016 47.8221C27.8922 47.4521 27.6059 47.1559 27.2445 46.9451L26.7406 47.8088ZM27.2337 48.3189C27.3768 48.566 27.4935 48.8662 27.5781 49.2258L28.5515 48.9968C28.4486 48.5596 28.2997 48.1644 28.0991 47.8178L27.2337 48.3189ZM27.5795 49.2315C27.6727 49.6081 27.7517 50.0176 27.8161 50.4606L28.8057 50.3168C28.7373 49.8457 28.6523 49.4036 28.5502 48.9912L27.5795 49.2315ZM27.8109 50.3887V50.5352H28.8109V50.3887H27.8109ZM27.8168 50.4588C27.7537 50.8668 27.667 51.2495 27.5574 51.6075L28.5136 51.9003C28.6384 51.4927 28.7353 51.0629 28.805 50.6115L27.8168 50.4588ZM27.5565 51.6107C27.4543 51.9526 27.3231 52.2463 27.1665 52.4962L28.0139 53.0272C28.2245 52.6912 28.3902 52.313 28.5146 51.8971L27.5565 51.6107ZM27.1665 52.4962C27.0216 52.7275 26.8459 52.9006 26.6398 53.0254L27.1578 53.8808C27.5064 53.6697 27.7916 53.3819 28.0139 53.0272L27.1665 52.4962ZM26.6416 53.0244C26.4601 53.1332 26.2249 53.1992 25.9144 53.1992V54.1992C26.3696 54.1992 26.7906 54.1011 27.1561 53.8819L26.6416 53.0244ZM25.9144 53.1992C25.5848 53.1992 25.3033 53.1335 25.0599 53.0118L24.6127 53.9062C25.0099 54.1048 25.4472 54.1992 25.9144 54.1992V53.1992ZM25.0621 53.0129C24.8134 52.887 24.5984 52.7103 24.4154 52.4767L23.6283 53.0936C23.8984 53.4382 24.2264 53.7107 24.6105 53.9051L25.0621 53.0129ZM24.418 52.48C24.2357 52.2434 24.0894 51.9582 23.9838 51.6176L23.0286 51.9137C23.1652 52.3543 23.3627 52.7488 23.6257 53.0903L24.418 52.48ZM23.9851 51.622C23.8836 51.2835 23.8304 50.9068 23.8304 50.4883H22.8304C22.8304 50.9917 22.8945 51.4665 23.0273 51.9093L23.9851 51.622ZM24.8051 50.3652V50.4883H25.8051V50.3652H24.8051ZM24.8051 50.4883C24.8051 50.7564 24.8292 51.0122 24.8803 51.2539L25.8587 51.0469C25.8239 50.8824 25.8051 50.6968 25.8051 50.4883H24.8051ZM24.8823 51.2628C24.9393 51.5098 25.0274 51.7396 25.1517 51.9467L26.0092 51.4322C25.946 51.3268 25.8935 51.1973 25.8567 51.038L24.8823 51.2628ZM25.1546 51.9515C25.2842 52.162 25.4517 52.3392 25.6601 52.4702L26.1922 51.6236C26.1271 51.5826 26.0642 51.5216 26.0063 51.4274L25.1546 51.9515ZM25.6654 52.4735C25.8949 52.6138 26.1518 52.6758 26.4183 52.6758V51.6758C26.3099 51.6758 26.2386 51.6519 26.1869 51.6202L25.6654 52.4735ZM26.4183 52.6758C26.7714 52.6758 27.1103 52.6009 27.3934 52.4059L26.8261 51.5824C26.7576 51.6296 26.6356 51.6758 26.4183 51.6758V52.6758ZM27.3934 52.4059C27.6656 52.2184 27.8531 51.9556 27.9624 51.6441L27.0188 51.313C26.9719 51.4468 26.9055 51.5277 26.8261 51.5824L27.3934 52.4059ZM27.9624 51.6441C28.0662 51.3482 28.1034 51.021 28.0898 50.6739L27.0906 50.7128C27.1005 50.9673 27.0712 51.1636 27.0188 51.313L27.9624 51.6441ZM28.0902 50.6934V50.2305H27.0902V50.6934H28.0902ZM28.09 50.2456C28.0987 49.9578 28.0797 49.6885 28.0258 49.4434L27.0492 49.6582C27.0811 49.8036 27.0973 49.9875 27.0904 50.2153L28.09 50.2456ZM28.0262 49.4454C27.9726 49.1965 27.8819 48.9642 27.7409 48.7644L26.9239 49.3411C26.9704 49.4069 27.0165 49.5066 27.0487 49.6562L28.0262 49.4454ZM27.7465 48.7726C27.6016 48.5583 27.4048 48.3984 27.1689 48.2956L26.7693 49.2123C26.8381 49.2422 26.8835 49.2816 26.9183 49.3329L27.7465 48.7726ZM27.1832 48.302C26.9516 48.1924 26.6947 48.1484 26.4301 48.1484V49.1484C26.5873 49.1484 26.6897 49.1748 26.7551 49.2058L27.1832 48.302ZM26.4301 48.1484C26.1652 48.1484 25.9109 48.2115 25.683 48.3507L26.2045 49.204C26.2578 49.1714 26.3277 49.1484 26.4301 49.1484V48.1484ZM25.683 48.3507C25.4665 48.483 25.2942 48.6654 25.1634 48.8834L26.0209 49.3979C26.0776 49.3034 26.1397 49.2435 26.2045 49.204L25.683 48.3507ZM25.1663 48.8786C25.0398 49.0842 24.9498 49.3169 24.8893 49.5685L25.8615 49.8026C25.9025 49.6323 25.957 49.5018 26.018 49.4027L25.1663 48.8786ZM24.8877 49.5751C24.8315 49.8236 24.8051 50.0877 24.8051 50.3652H25.8051C25.8051 50.1506 25.8255 49.9616 25.863 49.796L24.8877 49.5751ZM32.4066 44.582H32.9066V44.082H32.4066V44.582ZM32.4066 53.582V54.082H32.9066V53.582H32.4066ZM30.432 53.582H29.932V54.082H30.432V53.582ZM30.432 44.582V44.082H29.932V44.582H30.432ZM32.1722 50.1953L32.1849 50.6952L32.6722 50.6828V50.1953H32.1722ZM31.7094 50.207H31.2094V50.7198L31.722 50.7069L31.7094 50.207ZM34.8793 47.2598L34.7147 47.7319L34.7169 47.7327L34.8793 47.2598ZM35.5531 47.6934L35.189 48.0361L35.1925 48.0398L35.5531 47.6934ZM35.9926 48.4727L35.5159 48.6238L35.5176 48.629L35.9926 48.4727ZM36.1508 53.582V54.082H36.6508V53.582H36.1508ZM34.1644 53.582H33.6644V54.082H34.1644V53.582ZM34.0531 49.0352L33.6035 49.2539L33.6071 49.2613L33.6109 49.2685L34.0531 49.0352ZM33.7484 48.7363L33.5465 49.1939L33.558 49.1987L33.7484 48.7363ZM32.3656 49.0938L31.9285 48.8509L31.9262 48.8552L32.3656 49.0938ZM31.9066 44.582V53.582H32.9066V44.582H31.9066ZM32.4066 53.082H30.432V54.082H32.4066V53.082ZM30.932 53.582V44.582H29.932V53.582H30.932ZM30.432 45.082H32.4066V44.082H30.432V45.082ZM32.1596 49.6955L31.6967 49.7072L31.722 50.7069L32.1849 50.6952L32.1596 49.6955ZM32.2094 50.207C32.2094 49.8026 32.259 49.4402 32.3534 49.1166L31.3934 48.8366C31.2691 49.2629 31.2094 49.7208 31.2094 50.207H32.2094ZM32.3534 49.1166C32.4487 48.7899 32.5812 48.5179 32.7455 48.2935L31.9388 47.7026C31.6969 48.0328 31.5169 48.4132 31.3934 48.8366L32.3534 49.1166ZM32.7455 48.2935C32.9072 48.0727 33.0953 47.9093 33.3102 47.7945L32.839 46.9125C32.4835 47.1024 32.1833 47.3687 31.9388 47.7026L32.7455 48.2935ZM33.3102 47.7945C33.5174 47.6838 33.752 47.625 34.0238 47.625V46.625C33.6003 46.625 33.202 46.7185 32.839 46.9125L33.3102 47.7945ZM34.0238 47.625C34.2883 47.625 34.5169 47.663 34.7147 47.7319L35.0438 46.7876C34.7261 46.6769 34.3843 46.625 34.0238 46.625V47.625ZM34.7169 47.7327C34.9027 47.7965 35.0578 47.8967 35.189 48.036L35.9172 47.3507C35.6734 47.0916 35.3792 46.9028 35.0416 46.7869L34.7169 47.7327ZM35.1925 48.0398C35.3205 48.173 35.4326 48.361 35.5159 48.6238L36.4692 48.3215C36.3494 47.9437 36.1685 47.6122 35.9137 47.3469L35.1925 48.0398ZM35.5176 48.629C35.6016 48.8842 35.6508 49.2186 35.6508 49.6445H36.6508C36.6508 49.1485 36.5944 48.7018 36.4675 48.3163L35.5176 48.629ZM35.6508 49.6445V53.582H36.6508V49.6445H35.6508ZM36.1508 53.082H34.1644V54.082H36.1508V53.082ZM34.6644 53.582V49.6328H33.6644V53.582H34.6644ZM34.6644 49.6328C34.6644 49.3387 34.624 49.0457 34.4953 48.8018L33.6109 49.2685C33.6306 49.3058 33.6644 49.4113 33.6644 49.6328H34.6644ZM34.5027 48.8164C34.3856 48.5758 34.1987 48.381 33.9388 48.274L33.558 49.1987C33.5638 49.201 33.5799 49.2055 33.6035 49.2539L34.5027 48.8164ZM33.9502 48.2789C33.737 48.1848 33.5019 48.1484 33.2621 48.1484V49.1484C33.4051 49.1484 33.4942 49.1707 33.5466 49.1938L33.9502 48.2789ZM33.2621 48.1484C32.9802 48.1484 32.7029 48.1955 32.4618 48.3258L32.9373 49.2055C32.9854 49.1795 33.0831 49.1484 33.2621 49.1484V48.1484ZM32.4618 48.3258C32.2353 48.4482 32.054 48.6251 31.9285 48.8509L32.8027 49.3366C32.8335 49.2811 32.8748 49.2393 32.9373 49.2055L32.4618 48.3258ZM31.9262 48.8552C31.8185 49.0536 31.7525 49.2744 31.7185 49.5079L32.708 49.6522C32.7287 49.5107 32.7643 49.4073 32.805 49.3323L31.9262 48.8552ZM31.7185 49.5079C31.6871 49.723 31.6722 49.9526 31.6722 50.1953H32.6722C32.6722 49.9927 32.6847 49.8121 32.708 49.6522L31.7185 49.5079ZM39.2386 48.8125H39.7386V48.792L39.737 48.7716L39.2386 48.8125ZM39.2386 53.582V54.082H39.7386V53.582H39.2386ZM37.264 53.582H36.764V54.082H37.264V53.582ZM37.264 47.2422V46.7422H36.764V47.2422H37.264ZM39.1097 47.2422L39.6081 47.2013L39.5704 46.7422H39.1097V47.2422ZM41.1136 47.1953L41.6136 47.2049L41.6207 46.8311L41.2642 46.7185L41.1136 47.1953ZM41.0785 49.0293L41.0287 49.5268L41.568 49.5807L41.5784 49.0389L41.0785 49.0293ZM39.8304 49.0645L39.9783 49.5421L39.9852 49.5399L39.8304 49.0645ZM39.4203 49.2988L39.7671 49.659L39.7674 49.6588L39.4203 49.2988ZM39.1859 49.6855L38.7103 49.531L38.707 49.5419L39.1859 49.6855ZM39.1215 50.2305L38.8473 50.6486L39.6392 51.1679L39.6214 50.221L39.1215 50.2305ZM38.764 49.9961H38.264V50.2661L38.4899 50.4142L38.764 49.9961ZM38.8871 48.8359L38.4014 48.7172L38.4004 48.7211L38.8871 48.8359ZM39.2504 47.9277L39.6762 48.1898L39.678 48.1869L39.2504 47.9277ZM39.8187 47.3359L40.0804 47.7621L40.0857 47.7587L39.8187 47.3359ZM40.8558 47.1426L40.7938 47.6387L40.7963 47.639L40.8558 47.1426ZM38.7386 48.8125V53.582H39.7386V48.8125H38.7386ZM39.2386 53.082H37.264V54.082H39.2386V53.082ZM37.764 53.582V47.2422H36.764V53.582H37.764ZM37.264 47.7422H39.1097V46.7422H37.264V47.7422ZM38.6114 47.2831L38.7403 48.8534L39.737 48.7716L39.6081 47.2013L38.6114 47.2831ZM40.6137 47.1857L40.5786 49.0197L41.5784 49.0389L41.6136 47.2049L40.6137 47.1857ZM41.1282 48.5318C41.0473 48.5237 40.9396 48.5137 40.806 48.5019L40.7181 49.4981C40.8501 49.5097 40.9534 49.5193 41.0287 49.5268L41.1282 48.5318ZM40.806 48.5019C40.6649 48.4895 40.5378 48.4824 40.4281 48.4824V49.4824C40.4981 49.4824 40.5937 49.4871 40.7181 49.4981L40.806 48.5019ZM40.4281 48.4824C40.1602 48.4824 39.9062 48.514 39.6757 48.589L39.9852 49.5399C40.0906 49.5056 40.2351 49.4824 40.4281 49.4824V48.4824ZM39.6826 48.5868C39.4537 48.6577 39.2458 48.7724 39.0732 48.9389L39.7674 49.6588C39.8135 49.6143 39.8791 49.5728 39.9783 49.5421L39.6826 48.5868ZM39.0735 48.9387C38.902 49.1038 38.7834 49.3064 38.7104 49.531L39.6614 49.8401C39.69 49.7522 39.7277 49.697 39.7671 49.659L39.0735 48.9387ZM38.707 49.5419C38.6418 49.759 38.6169 49.9943 38.6215 50.2399L39.6214 50.221C39.6182 50.0526 39.6362 49.9245 39.6648 49.8292L38.707 49.5419ZM39.3956 49.8123L39.0382 49.578L38.4899 50.4142L38.8473 50.6486L39.3956 49.8123ZM39.264 49.9961C39.264 49.6018 39.3021 49.2544 39.3737 48.9508L38.4004 48.7211C38.308 49.1128 38.264 49.5388 38.264 49.9961H39.264ZM39.3728 48.9547C39.4489 48.6433 39.5524 48.391 39.6762 48.1898L38.8245 47.6657C38.6359 47.9723 38.4971 48.3255 38.4014 48.7172L39.3728 48.9547ZM39.678 48.1869C39.7993 47.9866 39.9353 47.8511 40.0804 47.762L39.5571 46.9099C39.2569 47.0942 39.0139 47.3532 38.8228 47.6686L39.678 48.1869ZM40.0857 47.7587C40.2241 47.6713 40.3806 47.625 40.5687 47.625V46.625C40.2021 46.625 39.8586 46.7194 39.5517 46.9132L40.0857 47.7587ZM40.5687 47.625C40.6463 47.625 40.7213 47.6297 40.7938 47.6387L40.9179 46.6464C40.8029 46.6321 40.6864 46.625 40.5687 46.625V47.625ZM40.7963 47.639C40.8707 47.6479 40.9251 47.6601 40.9631 47.6721L41.2642 46.7185C41.1538 46.6837 41.0363 46.6606 40.9154 46.6461L40.7963 47.639ZM43.8793 47.2422H44.3793V46.7422H43.8793V47.2422ZM43.8793 53.582V54.082H44.3793V53.582H43.8793ZM41.8988 53.582H41.3988V54.082H41.8988V53.582ZM41.8988 47.2422V46.7422H41.3988V47.2422H41.8988ZM43.3793 47.2422V53.582H44.3793V47.2422H43.3793ZM43.8793 53.082H41.8988V54.082H43.8793V53.082ZM42.3988 53.582V47.2422H41.3988V53.582H42.3988ZM41.8988 47.7422H43.8793V46.7422H41.8988V47.7422ZM42.2816 45.6074C42.2816 45.4634 42.3262 45.3714 42.4176 45.2905L41.755 44.5415C41.4402 44.82 41.2816 45.189 41.2816 45.6074H42.2816ZM42.4176 45.2905C42.5121 45.2069 42.65 45.1465 42.8773 45.1465V44.1465C42.4562 44.1465 42.0668 44.2657 41.755 44.5415L42.4176 45.2905ZM42.8773 45.1465C43.1046 45.1465 43.2425 45.2069 43.337 45.2905L43.9996 44.5415C43.6879 44.2657 43.2985 44.1465 42.8773 44.1465V45.1465ZM43.337 45.2905C43.4284 45.3714 43.473 45.4634 43.473 45.6074H44.473C44.473 45.189 44.3145 44.82 43.9996 44.5415L43.337 45.2905ZM43.473 45.6074C43.473 45.7515 43.4284 45.8435 43.337 45.9243L43.9996 46.6733C44.3145 46.3948 44.473 46.0259 44.473 45.6074H43.473ZM43.337 45.9243C43.2425 46.0079 43.1046 46.0684 42.8773 46.0684V47.0684C43.2985 47.0684 43.6879 46.9491 43.9996 46.6733L43.337 45.9243ZM42.8773 46.0684C42.65 46.0684 42.5121 46.0079 42.4176 45.9243L41.755 46.6733C42.0668 46.9491 42.4562 47.0684 42.8773 47.0684V46.0684ZM42.4176 45.9243C42.3262 45.8435 42.2816 45.7515 42.2816 45.6074H41.2816C41.2816 46.0259 41.4402 46.3948 41.755 46.6733L42.4176 45.9243ZM45.1156 44.582V44.082H44.6156V44.582H45.1156ZM47.0902 44.582H47.5902V44.082H47.0902V44.582ZM47.0902 52.0234L47.5859 52.0887L47.5902 52.0562V52.0234H47.0902ZM46.8851 53.582V54.082H47.3237L47.3809 53.6473L46.8851 53.582ZM45.1156 53.582H44.6156V54.082H45.1156V53.582ZM50.3832 52.8027L50.7904 53.0928L50.7923 53.0902L50.3832 52.8027ZM47.5355 53.4531L47.2738 53.8792L47.2783 53.8819L47.5355 53.4531ZM46.85 52.7617L46.4247 53.0247L46.4263 53.0272L46.85 52.7617ZM46.4047 51.7363L45.9244 51.8756L45.9248 51.8769L46.4047 51.7363ZM46.1351 50.4824H45.6351V50.5195L45.6406 50.5562L46.1351 50.4824ZM46.1351 50.3359L45.6407 50.2616L45.6351 50.2985V50.3359H46.1351ZM46.4047 49.0938L46.8845 49.2343L46.8849 49.233L46.4047 49.0938ZM46.85 48.0684L47.2737 48.3339L47.2752 48.3313L46.85 48.0684ZM47.5297 47.377L47.7896 47.8041L47.7914 47.803L47.5297 47.377ZM49.6097 47.3652L49.3794 47.809L49.3817 47.8102L49.6097 47.3652ZM47.4828 48.7539L47.264 48.3043L47.2592 48.3067L47.4828 48.7539ZM47.1429 49.0586L46.7231 48.787L46.7211 48.7902L47.1429 49.0586ZM46.9672 49.5391L47.4586 49.6312L47.4589 49.6294L46.9672 49.5391ZM46.9203 50.1777H47.4204L47.4202 50.1695L46.9203 50.1777ZM46.9203 50.6406L47.4203 50.6527V50.6406H46.9203ZM48.5375 52.0586L48.2747 51.6332L48.269 51.6368L48.5375 52.0586ZM45.1156 45.082H47.0902V44.082H45.1156V45.082ZM46.5902 44.582V52.0234H47.5902V44.582H46.5902ZM46.5945 51.9582L46.3894 53.5168L47.3809 53.6473L47.5859 52.0887L46.5945 51.9582ZM46.8851 53.082H45.1156V54.082H46.8851V53.082ZM45.6156 53.582V44.582H44.6156V53.582H45.6156ZM50.4808 50.3418V50.4648H51.4808V50.3418H50.4808ZM50.4808 50.4648C50.4808 50.9119 50.4354 51.3083 50.349 51.6572L51.3197 51.8975C51.4287 51.4573 51.4808 50.9787 51.4808 50.4648H50.4808ZM50.349 51.6572C50.264 52.0006 50.1367 52.2838 49.9741 52.5153L50.7923 53.0902C51.0359 52.7436 51.2094 52.3431 51.3197 51.8975L50.349 51.6572ZM49.9759 52.5126C49.8192 52.7327 49.6252 52.8995 49.3897 53.0188L49.8415 53.9109C50.2232 53.7177 50.5409 53.4431 50.7904 53.0928L49.9759 52.5126ZM49.3897 53.0188C49.1649 53.1326 48.8803 53.1992 48.5199 53.1992V54.1992C49.0033 54.1992 49.4491 54.1096 49.8415 53.9109L49.3897 53.0188ZM48.5199 53.1992C48.2095 53.1992 47.9742 53.1332 47.7928 53.0244L47.2783 53.8819C47.6437 54.1011 48.0647 54.1992 48.5199 54.1992V53.1992ZM47.7972 53.0271C47.5944 52.9025 47.4196 52.7291 47.2737 52.4962L46.4263 53.0272C46.6476 53.3803 46.9297 53.6678 47.2738 53.8792L47.7972 53.0271ZM47.2752 52.4987C47.1185 52.2454 46.9871 51.9459 46.8845 51.5958L45.9248 51.8769C46.0488 52.3002 46.2142 52.6843 46.4247 53.0247L47.2752 52.4987ZM46.8849 51.5971C46.7785 51.2301 46.6931 50.8342 46.6297 50.4087L45.6406 50.5562C45.71 51.0213 45.8043 51.4613 45.9244 51.8756L46.8849 51.5971ZM46.6351 50.4824V50.3359H45.6351V50.4824H46.6351ZM46.6296 50.4103C46.693 49.9889 46.7782 49.5972 46.8845 49.2343L45.9248 48.9532C45.8046 49.3638 45.7101 49.8001 45.6407 50.2616L46.6296 50.4103ZM46.8849 49.233C46.9875 48.8793 47.1185 48.5814 47.2737 48.3339L46.4263 47.8029C46.2142 48.1413 46.0484 48.527 45.9244 48.9545L46.8849 49.233ZM47.2752 48.3313C47.4219 48.0942 47.5942 47.923 47.7896 47.8041L47.2697 46.9499C46.926 47.159 46.6453 47.4488 46.4247 47.8054L47.2752 48.3313ZM47.7914 47.803C47.9728 47.6915 48.2048 47.625 48.5082 47.625V46.625C48.0538 46.625 47.6334 46.7264 47.268 46.9509L47.7914 47.803ZM48.5082 47.625C48.8715 47.625 49.1562 47.6932 49.3794 47.809L49.8401 46.9214C49.4461 46.717 48.9964 46.625 48.5082 46.625V47.625ZM49.3817 47.8102C49.6215 47.9331 49.8173 48.1035 49.9741 48.3265L50.7923 47.7516C50.5428 47.3965 50.223 47.1177 49.8378 46.9203L49.3817 47.8102ZM49.9741 48.3265C50.1373 48.5588 50.2645 48.8406 50.3493 49.1799L51.3194 48.9373C51.2089 48.4953 51.0353 48.0974 50.7923 47.7516L49.9741 48.3265ZM50.3493 49.1799C50.4356 49.5253 50.4808 49.9117 50.4808 50.3418H51.4808C51.4808 49.8422 51.4284 49.3732 51.3194 48.9373L50.3493 49.1799ZM49.5062 50.4648V50.3418H48.5062V50.4648H49.5062ZM49.5062 50.3418C49.5062 50.0917 49.4914 49.8525 49.4607 49.6247L48.4697 49.7581C48.4937 49.9366 48.5062 50.1309 48.5062 50.3418H49.5062ZM49.4607 49.6247C49.4282 49.3828 49.3682 49.155 49.2747 48.9472L48.3628 49.3575C48.4098 49.4621 48.4476 49.5937 48.4697 49.7581L49.4607 49.6247ZM49.2747 48.9472C49.1707 48.7162 49.0155 48.5192 48.8058 48.373L48.234 49.1934C48.2821 49.2269 48.3261 49.276 48.3628 49.3575L49.2747 48.9472ZM48.8058 48.373C48.57 48.2087 48.2932 48.1484 48.016 48.1484V49.1484C48.1529 49.1484 48.2119 49.178 48.234 49.1934L48.8058 48.373ZM48.016 48.1484C47.752 48.1484 47.4946 48.1921 47.2641 48.3043L47.7015 49.2035C47.7601 49.175 47.8581 49.1484 48.016 49.1484V48.1484ZM47.2592 48.3067C47.0381 48.4172 46.8573 48.5796 46.7232 48.787L47.5627 49.3302C47.6004 49.2719 47.6462 49.2312 47.7064 49.2011L47.2592 48.3067ZM46.7211 48.7902C46.5965 48.986 46.5191 49.2106 46.4754 49.4487L47.4589 49.6294C47.4855 49.4847 47.5253 49.389 47.5648 49.327L46.7211 48.7902ZM46.4757 49.4469C46.4331 49.6745 46.416 49.9219 46.4204 50.1859L47.4202 50.1695C47.4167 49.957 47.431 49.7787 47.4586 49.6312L46.4757 49.4469ZM46.4203 50.1777V50.6406H47.4203V50.1777H46.4203ZM46.4204 50.6286C46.4118 50.987 46.4433 51.318 46.5277 51.6111L47.4886 51.3342C47.4403 51.1664 47.4132 50.9427 47.4201 50.6527L46.4204 50.6286ZM46.5277 51.6111C46.619 51.928 46.7894 52.2048 47.057 52.4023L47.6508 51.5977C47.5902 51.553 47.5301 51.4783 47.4886 51.3342L46.5277 51.6111ZM47.057 52.4023C47.3353 52.6077 47.6772 52.6816 48.0277 52.6816V51.6816C47.8079 51.6816 47.7006 51.6345 47.6508 51.5977L47.057 52.4023ZM48.0277 52.6816C48.2989 52.6816 48.5717 52.6295 48.8059 52.4804L48.269 51.6368C48.2454 51.6518 48.1784 51.6816 48.0277 51.6816V52.6816ZM48.8002 52.484C49.0254 52.3449 49.1903 52.1462 49.2947 51.9068L48.378 51.5072C48.3495 51.5726 48.3152 51.6082 48.2747 51.6332L48.8002 52.484ZM49.2947 51.9068C49.3858 51.6978 49.4405 51.465 49.468 51.2173L48.4741 51.1069C48.4548 51.2811 48.4197 51.4116 48.378 51.5072L49.2947 51.9068ZM49.468 51.2173C49.4938 50.9849 49.5062 50.7337 49.5062 50.4648H48.5062C48.5062 50.7038 48.4952 50.9174 48.4741 51.1069L49.468 51.2173Z" fill="black" mask="url(#path-3-outside-1_3219_5235)"/>
<defs>
<linearGradient id="paint0_linear_3219_5235" x1="29.5551" y1="0.15918" x2="30.0084" y2="64.5273" gradientUnits="userSpaceOnUse">
<stop stop-color="#47508F"/>
<stop offset="0.43995" stop-color="#604B72"/>
<stop offset="0.745605" stop-color="#A36577"/>
<stop offset="0.865" stop-color="#CC8685"/>
<stop offset="0.972933" stop-color="#F2A16E"/>
<stop offset="1" stop-color="#FBAB4B"/>
</linearGradient>
</defs>
</svg>
