<svg width="39" height="39" viewBox="0 0 39 39" fill="none" xmlns="http://www.w3.org/2000/svg">
<g filter="url(#filter0_d_1319_303)">
<circle cx="19.5" cy="18.5" r="15.5" fill="white"/>
<circle cx="19.5" cy="18.5" r="15" stroke="#FDFDFD"/>
</g>
<path d="M33.9218 16.1495C34.0386 16.5143 34.1188 16.8865 34.1919 17.2601C34.2696 17.6573 34.3231 18.0577 34.359 18.4598C34.3755 18.6441 34.3945 18.8288 34.3914 19.0143C34.3909 19.047 34.3877 19.0801 34.4053 19.1105V19.5428C34.3987 19.553 34.3856 19.5491 34.3765 19.554C32.6 20.0015 30.8233 20.4486 29.0474 20.8981C28.9805 20.915 28.9542 20.9039 28.9406 20.8424C28.9265 20.7788 28.9025 20.7168 28.8829 20.6542C28.8329 20.6421 28.8338 20.5986 28.8231 20.5656C28.7671 20.3923 28.7177 20.2173 28.6663 20.0429C28.4409 19.2777 28.2122 18.5132 27.9859 17.7483C27.9751 17.7117 27.9687 17.6766 27.9802 17.6399C27.9966 17.6002 28.0336 17.5886 28.0735 17.5783C28.5392 17.4607 29.0052 17.3441 29.4708 17.2267C30.4251 16.986 31.3791 16.745 32.3337 16.5051C32.8268 16.3812 33.3193 16.2547 33.813 16.1323C33.8538 16.1222 33.8902 16.1197 33.9221 16.1494L33.9218 16.1495Z" fill="#161616"/>
<path d="M6 19.0192C6.02812 18.9102 6.0179 18.7984 6.02543 18.688C6.05881 18.1923 6.12429 17.7005 6.21903 17.2118C6.28352 16.8796 6.36064 16.5498 6.45482 16.2236C6.46334 16.1943 6.4747 16.1657 6.48479 16.1368C6.523 16.0965 6.56561 16.1248 6.60311 16.1341C6.9183 16.2124 7.2325 16.2942 7.54726 16.3743C8.3569 16.5801 9.16583 16.7881 9.9749 16.9959C10.7338 17.1909 11.4939 17.3819 12.252 17.5793C12.2863 17.5882 12.3203 17.5973 12.3476 17.6202C12.3633 17.6362 12.3541 17.6553 12.3555 17.6731C12.2663 18.008 12.1626 18.3394 12.064 18.6721C11.8768 19.3037 11.6899 19.9354 11.5026 20.567C11.4919 20.6029 11.4824 20.6388 11.4548 20.6676C11.3992 20.7141 11.4031 20.7824 11.3847 20.8413C11.3675 20.8965 11.3467 20.9149 11.2814 20.8983C9.52136 20.45 7.76061 20.0034 6 19.5564C6 19.3773 6 19.1983 6 19.0192Z" fill="#3C987A"/>
<path d="M6.01236 20.0555C6.00824 20.0546 6.00412 20.0542 6 20.0541V19.8445C6.02202 19.9139 6.01449 19.9849 6.01236 20.0555Z" fill="#5E5E5E"/>
<path d="M14.379 15.5995C14.6273 15.6449 14.8754 15.6902 15.1237 15.7356C15.7176 15.8444 16.3123 15.9497 16.9102 16.0383C17.195 16.0805 17.4823 16.1055 17.7688 16.136C18.1702 16.1787 18.5587 16.2719 18.9382 16.3988C19.1922 16.4837 19.4358 16.59 19.677 16.7011C19.7004 16.7008 19.726 16.6962 19.7381 16.7225C19.7509 16.7507 19.7305 16.7689 19.7117 16.7848C19.6082 16.8714 19.4959 16.948 19.3872 17.0287C18.5786 17.6296 17.7689 18.2294 16.9589 18.8286C16.8242 18.9282 16.6857 19.0236 16.5799 19.1524C16.4654 19.2919 16.3816 19.442 16.4015 19.6224C16.4321 19.8999 16.661 20.1154 16.9623 20.1647C17.0741 20.183 17.1836 20.1799 17.2935 20.1613C17.5188 20.1231 17.7327 20.057 17.9289 19.9447C18.1902 19.7951 18.463 19.6636 18.7309 19.5243C19.1492 19.3068 19.5685 19.0909 19.9881 18.8757C20.1038 18.8163 20.2186 18.7553 20.3346 18.6965C20.3757 18.6756 20.4071 18.6776 20.4454 18.7C20.7376 18.8699 21.0285 19.0418 21.3204 19.2121C21.8822 19.5399 22.4434 19.8686 23.0049 20.1969C23.4664 20.4668 23.9282 20.7364 24.3891 21.0072C24.7323 21.2088 25.0776 21.4076 25.4196 21.6106C25.4955 21.6557 25.5648 21.7084 25.6266 21.7693C25.646 21.7885 25.6678 21.8066 25.656 21.8373C25.7506 21.9405 25.8239 22.0528 25.8469 22.1898C25.8562 22.2452 25.8541 22.2991 25.8406 22.3521C25.7749 22.6104 25.5778 22.8822 25.1845 22.8918C25.0175 22.8958 24.8574 22.8492 24.7053 22.7846C24.6622 22.7664 24.6203 22.7461 24.578 22.7267C24.5274 22.7541 24.4915 22.7175 24.4557 22.6983C24.2942 22.6118 24.133 22.5248 23.9718 22.4378C23.4026 22.1305 22.833 21.8237 22.2643 21.5158C22.2399 21.5025 22.2151 21.4888 22.1859 21.4872C22.1629 21.4859 22.1428 21.4925 22.1343 21.5139C22.1266 21.5332 22.1386 21.5475 22.1535 21.5595C22.1678 21.5711 22.1847 21.5791 22.2011 21.588C22.8908 21.9685 23.5812 22.3486 24.2699 22.7309C24.3084 22.7522 24.3475 22.7726 24.3847 22.7959C24.4047 22.8084 24.4243 22.8209 24.4193 22.8475C24.5411 22.9185 24.6624 22.9891 24.7642 23.0859C24.9592 23.2712 25.0056 23.4624 24.8864 23.6945C24.7614 23.9378 24.5637 24.0857 24.2532 24.0782C24.0904 24.0743 23.9418 24.0306 23.7966 23.9708C23.6277 23.9013 23.4755 23.8041 23.3141 23.7221C23.2739 23.7412 23.2417 23.7196 23.2103 23.7027C22.8204 23.4921 22.43 23.2822 22.0401 23.0716C21.7463 22.9129 21.4527 22.7534 21.1581 22.5958C21.1478 22.5903 21.1375 22.5851 21.127 22.5801C21.0958 22.5654 21.0602 22.553 21.0382 22.5859C21.0128 22.624 21.053 22.6396 21.0802 22.6548C21.4434 22.8556 21.8058 23.0578 22.1703 23.2566C22.4798 23.4254 22.7873 23.5974 23.0957 23.7681C23.1286 23.7863 23.159 23.8058 23.1715 23.8416C23.3039 23.9216 23.4357 24.0014 23.5452 24.1099C23.7043 24.2676 23.7472 24.4693 23.6537 24.6663C23.5435 24.8987 23.3667 25.0566 23.081 25.0771C22.8904 25.0909 22.7113 25.0403 22.5408 24.9643C22.3362 24.8732 22.1453 24.7591 21.9487 24.6545C21.9149 24.668 21.8852 24.6591 21.8552 24.6427C21.6985 24.5569 21.5412 24.4725 21.3833 24.3887C21.34 24.3656 21.3304 24.3368 21.3437 24.2961C21.3609 24.2439 21.3777 24.1916 21.3896 24.1381C21.4771 23.744 21.0873 23.4505 20.774 23.442C20.6139 23.4377 20.4751 23.4998 20.3503 23.5886C20.3034 23.6219 20.2572 23.6562 20.2165 23.6958C20.1871 23.7243 20.157 23.727 20.1217 23.7064C20.0878 23.6865 20.0523 23.6689 20.0159 23.6531C19.9868 23.6404 19.9538 23.6303 19.9331 23.6603C19.9092 23.6946 19.9433 23.711 19.9685 23.7264C19.9881 23.7385 20.0084 23.7499 20.0283 23.7617C20.0834 23.7944 20.0909 23.8181 20.0545 23.8679C19.8669 24.125 19.6965 24.3921 19.5138 24.652C19.4636 24.7234 19.4181 24.7976 19.3655 24.8674C19.3496 24.8885 19.3365 24.9229 19.2946 24.9012C19.2192 24.8509 19.1372 24.8108 19.056 24.7694C19.0183 24.7393 19.0477 24.7139 19.0642 24.6895C19.1932 24.4987 19.3242 24.3092 19.452 24.1178C19.5375 23.9898 19.6369 23.8691 19.6916 23.7249C19.7389 23.6 19.7702 23.4756 19.7433 23.3403C19.6955 23.0988 19.403 22.8584 19.136 22.856C19.0236 22.855 18.9154 22.8822 18.8171 22.9349C18.6225 23.039 18.4733 23.1865 18.3522 23.3588C18.2016 23.573 18.059 23.7921 17.9086 24.0064C17.8854 24.0394 17.8722 24.0854 17.8155 24.0866C17.7236 24.0614 17.6437 24.0171 17.5735 23.9573C17.5397 23.9248 17.5711 23.9002 17.5877 23.8767C17.711 23.7034 17.8323 23.5289 17.9569 23.3563C18.0579 23.2163 18.1491 23.0723 18.1938 22.9054C18.306 22.4871 17.9466 22.1884 17.5982 22.1607C17.4414 22.1483 17.3021 22.2131 17.1785 22.2983C17.0119 22.4132 16.8793 22.558 16.7687 22.72C16.6489 22.8954 16.5215 23.0663 16.3995 23.2404C16.3828 23.2642 16.37 23.2988 16.3254 23.2883C16.1906 23.241 16.0734 23.164 15.9498 23.098C15.9392 23.0922 15.9342 23.0773 15.9267 23.0665C15.8994 23.0359 15.9269 23.0131 15.9414 22.9902C16.022 22.8616 16.1194 22.7427 16.1943 22.6111C16.2617 22.4926 16.3163 22.3693 16.3191 22.2324C16.325 21.9497 16.1252 21.709 15.8287 21.6313C15.6267 21.5785 15.4544 21.6398 15.2956 21.7441C15.152 21.8385 15.0346 21.9586 14.9339 22.0924C14.9122 22.1213 14.8983 22.1619 14.8473 22.1606C14.7829 22.1423 14.7561 22.0862 14.7176 22.0444C14.4366 21.7392 14.1614 21.4292 13.8796 21.1246C13.6037 20.8264 13.3201 20.5347 12.9857 20.2895C12.936 20.2585 12.9642 20.2179 12.9742 20.1832C13.0246 20.0063 13.0792 19.8303 13.1313 19.6539C13.2811 19.1475 13.4304 18.6412 13.5804 18.1348C13.5948 18.0865 13.6091 18.0383 13.6274 17.991C13.6817 17.8193 13.7297 17.6462 13.7808 17.4737C13.9588 16.8741 14.1345 16.2738 14.3163 15.675C14.3254 15.645 14.3165 15.5943 14.3794 15.5993L14.379 15.5995Z" fill="#FAE6D5"/>
<path d="M25.6557 21.8367C25.4441 21.6304 25.1701 21.5045 24.9154 21.355C23.4299 20.4833 21.942 19.6148 20.4559 18.7441C20.408 18.7161 20.3723 18.713 20.3213 18.7394C19.5583 19.1353 18.7906 19.5239 18.0315 19.9265C17.7708 20.0647 17.5061 20.1735 17.2064 20.2061C16.78 20.2524 16.4118 20.002 16.3642 19.6267C16.3452 19.4773 16.3984 19.3426 16.4847 19.2179C16.5761 19.0854 16.6973 18.9788 16.829 18.8813C17.7738 18.1817 18.7185 17.4821 19.6633 16.7824C19.6945 16.7592 19.737 16.7372 19.6769 16.7009C20.0469 16.4643 20.4259 16.2428 20.8564 16.1089C21.0759 16.0406 21.3033 16.0502 21.5298 16.0528C21.5699 16.0533 21.6101 16.0581 21.6501 16.0574C22.0497 16.0514 22.4484 16.0757 22.8476 16.0874C23.1708 16.0968 23.4954 16.1012 23.817 16.1277C24.4383 16.1791 25.0234 16.0413 25.6059 15.8752C25.7368 15.8378 25.8667 15.7968 25.9971 15.7576C26.0515 15.7532 26.0482 15.7959 26.0569 15.8241C26.1219 16.0362 26.1853 16.2487 26.248 16.4613C26.3861 16.9287 26.524 17.3962 26.6632 17.8634C26.6744 17.9011 26.6763 17.9408 26.6943 17.9768C26.7509 18.1157 26.7845 18.2608 26.8271 18.4034C26.9923 18.9558 27.1555 19.5088 27.3193 20.0616C27.3287 20.0931 27.3368 20.1248 27.3442 20.1568C27.3499 20.181 27.3449 20.1999 27.3188 20.2109C27.0267 20.6227 26.6486 20.9651 26.2739 21.3098C26.0917 21.4775 25.9012 21.6376 25.7144 21.8012C25.6971 21.8164 25.679 21.8302 25.6556 21.8366L25.6557 21.8367Z" fill="#EBB968"/>
<path d="M13.6556 17.9977C13.5533 18.346 13.4514 18.6945 13.3488 19.0427C13.2319 19.4393 13.1144 19.8356 12.9974 20.2322C12.9919 20.2509 12.9889 20.2704 12.9846 20.2895C12.92 20.5014 12.8521 20.7123 12.793 20.9255C12.775 20.9908 12.7478 20.9949 12.6858 20.979C12.276 20.8735 11.8652 20.7711 11.4547 20.6676C11.4359 20.6345 11.4537 20.6033 11.4628 20.5727C11.7346 19.6536 12.0069 18.7347 12.2792 17.8157C12.2936 17.7674 12.3071 17.7187 12.321 17.6703C12.3485 17.6208 12.393 17.6312 12.4376 17.6422C12.725 17.7135 13.0119 17.7866 13.2991 17.8585C13.3926 17.8819 13.486 17.9054 13.5793 17.9291C13.6171 17.9387 13.658 17.9485 13.6558 17.9977H13.6556Z" fill="#161616"/>
<path d="M27.3177 20.2112C27.2557 19.9582 27.1738 19.7101 27.1006 19.4599C26.9567 18.9675 26.8101 18.476 26.6646 17.9842C26.6714 17.9543 26.6949 17.9437 26.7242 17.9362C27.1216 17.8351 27.5196 17.7353 27.9175 17.6358C27.9384 17.6306 27.959 17.6293 27.9801 17.6324C27.9872 17.6354 27.9931 17.6399 27.9976 17.6459C28.0716 17.8999 28.1446 18.1542 28.2198 18.4079C28.4378 19.144 28.6567 19.8797 28.8751 20.6158C28.8788 20.6282 28.88 20.6414 28.8824 20.6543C28.7794 20.7 28.6666 20.7164 28.5578 20.7444C28.2485 20.8241 27.938 20.8995 27.6289 20.9798C27.5699 20.9952 27.5493 20.978 27.535 20.9281C27.4733 20.7134 27.4089 20.4993 27.3448 20.2851C27.3373 20.2601 27.3267 20.2357 27.3177 20.2111V20.2112Z" fill="#DDDDDD"/>
<path d="M19.2266 24.8915C19.3608 24.7171 19.4763 24.5317 19.6015 24.352C19.7192 24.1832 19.8349 24.0133 19.9535 23.8451C19.9755 23.8139 19.974 23.7951 19.9385 23.7772C19.9074 23.7617 19.8745 23.747 19.848 23.7259C19.8257 23.7082 19.7653 23.7116 19.7915 23.6622C19.827 23.5949 19.888 23.572 19.9417 23.5986C19.9934 23.6242 20.041 23.6735 20.0973 23.6706C20.1514 23.6677 20.1826 23.6071 20.2275 23.5755C20.2879 23.5329 20.349 23.4918 20.4173 23.4614C20.6573 23.3545 20.8813 23.3863 21.0896 23.5324C21.2979 23.6786 21.4001 23.869 21.3609 24.1134C21.3526 24.1649 21.3394 24.2167 21.32 24.2654C21.3009 24.3129 21.3097 24.339 21.3595 24.3648C21.5346 24.4557 21.707 24.5511 21.8806 24.6447C21.843 24.699 21.7827 24.7279 21.7261 24.7606C21.6934 24.7906 21.6641 24.7682 21.637 24.7535C21.5313 24.696 21.4265 24.6372 21.3211 24.5793C21.2414 24.5354 21.2227 24.5388 21.173 24.6118C20.9859 24.8862 20.7975 25.1602 20.6125 25.4357C20.5938 25.4635 20.574 25.4905 20.5542 25.5176C20.5385 25.5395 20.5203 25.5536 20.4899 25.546C20.3603 25.6942 20.2252 25.8362 20.0379 25.9265C19.7846 26.0483 19.552 26.0142 19.3301 25.8575C19.0442 25.6557 19.002 25.3508 19.15 25.0458C19.1751 24.9942 19.2011 24.943 19.2267 24.8915H19.2266Z" fill="#EBB968"/>
<path d="M17.8695 24.0593C18.0491 23.7951 18.224 23.5282 18.4098 23.2678C18.5182 23.1158 18.6573 22.9868 18.8287 22.8919C19.0647 22.7616 19.2992 22.761 19.5283 22.9061C19.7679 23.0578 19.8841 23.2621 19.8331 23.5343C19.8036 23.6919 19.727 23.8311 19.6355 23.9651C19.4592 24.2235 19.285 24.483 19.11 24.742C19.0049 24.8868 18.9067 25.0368 18.7652 25.1555C18.6104 25.2853 18.4435 25.3955 18.2226 25.3972C17.8141 25.4003 17.4833 25.038 17.5508 24.667C17.58 24.5061 17.6587 24.3658 17.7503 24.2298C17.789 24.1724 17.8296 24.1161 17.8694 24.0593H17.8695Z" fill="#EBB968"/>
<path d="M16.3051 23.3552C16.4932 23.0937 16.6638 22.8213 16.8736 22.5734C16.9685 22.4614 17.0808 22.3642 17.2142 22.2902C17.4587 22.1547 17.6987 22.1602 17.9311 22.314C18.1711 22.4728 18.2736 22.6844 18.2145 22.9564C18.1774 23.1268 18.0858 23.2737 17.9844 23.4166C17.8406 23.619 17.697 23.8216 17.5534 24.0241C17.4366 24.1863 17.3136 24.3435 17.1435 24.4634C16.9803 24.5785 16.803 24.6577 16.5913 24.6198C16.2759 24.5635 15.9064 24.2699 16.0487 23.8121C16.1012 23.6435 16.199 23.4976 16.3051 23.355V23.3552Z" fill="#EBB968"/>
<path d="M14.8347 22.1633C14.9506 21.977 15.1013 21.8181 15.2947 21.6989C15.6981 21.4502 16.2404 21.6522 16.3336 22.0853C16.3756 22.2809 16.3164 22.4632 16.2115 22.6313C16.1185 22.7803 16.0138 22.9234 15.9142 23.0691C15.7833 23.2195 15.6435 23.3595 15.4522 23.4486C15.2059 23.5634 14.9781 23.5275 14.769 23.3774C14.4847 23.1732 14.4193 22.8812 14.5755 22.5685C14.6471 22.4252 14.7411 22.2944 14.8347 22.1634V22.1633Z" fill="#EBB968"/>
<path d="M20.5564 25.5554C20.7843 25.2224 21.0135 24.8901 21.2386 24.5557C21.2736 24.5039 21.3003 24.4991 21.3546 24.5301C21.4987 24.6128 21.6463 24.6905 21.7925 24.7701C21.9058 24.8375 22.0194 24.9051 22.1119 24.997C22.3511 25.2352 22.3175 25.5072 22.1182 25.7452C21.9268 25.9737 21.6807 26.02 21.3658 25.9488C21.0759 25.8833 20.836 25.7207 20.5827 25.5851C20.5715 25.5791 20.5649 25.5655 20.5563 25.5554H20.5564Z" fill="#FAE6D5"/>
<path d="M24.4186 22.8471C24.1076 22.6765 23.7962 22.5063 23.4854 22.3352C23.0364 22.088 22.5876 21.8408 22.1403 21.5912C22.111 21.5748 22.042 21.573 22.0694 21.5156C22.1042 21.4425 22.1647 21.425 22.2311 21.4606C22.4886 21.599 22.746 21.7377 23.0032 21.8766C23.5279 22.1598 24.0526 22.443 24.5773 22.7264C24.5365 22.7803 24.4905 22.8281 24.4186 22.8471Z" fill="#EBB968"/>
<path d="M23.1704 23.8411C23.0848 23.8081 23.0094 23.7585 22.9303 23.715C22.2945 23.3647 21.659 23.0139 21.0248 22.6615C20.9998 22.6476 20.9356 22.6476 20.9654 22.5941C21.0067 22.5201 21.0586 22.5036 21.1206 22.537C21.5351 22.7608 21.9496 22.9845 22.3641 23.2084C22.6805 23.3794 22.9969 23.5505 23.3132 23.7216C23.281 23.777 23.2139 23.7971 23.1704 23.8409V23.8411Z" fill="#EBB968"/>
<path d="M27.9976 17.6458C27.9939 17.6445 27.9901 17.6432 27.9864 17.6418C27.9433 17.6322 27.9392 17.5971 27.9299 17.5666C27.8353 17.2585 27.7462 16.9487 27.654 16.64C27.4678 16.0161 27.2848 15.3913 27.0991 14.7672C27.0884 14.7314 27.0628 14.6928 27.1032 14.6575C27.0799 14.5777 27.0601 14.4968 27.0323 14.4184C27.0127 14.3633 27.0297 14.3426 27.0891 14.3279C27.5201 14.2211 27.95 14.1112 28.3806 14.0027C29.7196 13.6654 31.0588 13.3284 32.3978 12.9906C32.4259 12.9835 32.4608 12.9844 32.4769 12.9536C32.5745 13.0905 32.6554 13.2361 32.7388 13.3803C33.1191 14.038 33.4371 14.7205 33.6906 15.4283C33.7759 15.6663 33.8567 15.9059 33.9216 16.1497C33.7914 16.1624 33.6686 16.2044 33.5433 16.2357C32.685 16.4504 31.8273 16.6675 30.9694 16.8836C30.002 17.1274 29.0345 17.3714 28.0671 17.6151C28.0416 17.6215 28.0171 17.6286 27.9976 17.646V17.6458Z" fill="#353535"/>
<path d="M12.3332 17.6301C12.0934 17.5702 11.8534 17.5114 11.614 17.4503C10.7565 17.2315 9.89914 17.0121 9.04178 16.7928C8.28938 16.6003 7.53698 16.4076 6.78459 16.2149C6.68431 16.1892 6.58417 16.1629 6.48389 16.1368C6.54255 15.8964 6.6255 15.6624 6.70888 15.4287C7.00674 14.5934 7.39551 13.7953 7.86894 13.0323C7.88286 13.0098 7.8999 12.9888 7.91553 12.967C8.19776 13.0407 8.47986 13.1153 8.76252 13.1877C9.97101 13.4967 11.1796 13.8051 12.3883 14.1135C12.6619 14.1833 12.9357 14.2525 13.2093 14.3225C13.3056 14.3471 13.3081 14.3527 13.2836 14.4405C13.2648 14.508 13.2469 14.5758 13.2287 14.6434C13.2437 14.6767 13.2401 14.7092 13.23 14.7437C13.0005 15.522 12.769 16.2999 12.5374 17.0777C12.4886 17.2417 12.4418 17.4062 12.3908 17.5697C12.3825 17.5964 12.3835 17.6352 12.3333 17.6301H12.3332Z" fill="#99CA6E"/>
<path d="M12.3352 17.63C12.4358 17.2939 12.5371 16.958 12.6369 16.6217C12.8236 15.9931 13.0093 15.3644 13.1958 14.7358C13.2051 14.7045 13.219 14.6742 13.2306 14.6436C13.643 14.7484 14.0552 14.8532 14.4675 14.9578C14.5586 14.9809 14.5583 14.9805 14.5344 15.063C14.4827 15.2419 14.4313 15.4207 14.3798 15.5995C14.3043 15.8484 14.2276 16.097 14.1536 16.3462C13.996 16.8765 13.8399 17.4071 13.6825 17.9375C13.6764 17.9582 13.6654 17.9777 13.6568 17.9978C13.5982 17.9556 13.525 17.9519 13.4575 17.9346C13.1162 17.8471 12.7743 17.7617 12.4324 17.676C12.3966 17.6671 12.3601 17.6524 12.3221 17.6704C12.3264 17.657 12.3308 17.6435 12.3351 17.6302L12.3352 17.63Z" fill="#353535"/>
<path d="M27.1041 14.6576C27.2461 15.1339 27.3884 15.6101 27.5303 16.0864C27.6815 16.5941 27.8322 17.1018 27.9829 17.6096C27.986 17.6199 27.9858 17.631 27.9873 17.6418C27.8698 17.696 27.7401 17.7136 27.6155 17.7458C27.2994 17.8273 26.9822 17.9048 26.6653 17.9841C26.5897 17.7349 26.5132 17.4859 26.4387 17.2364C26.2973 16.7623 26.1571 16.2878 26.0162 15.8134C26.0106 15.7945 26.0029 15.7763 25.9964 15.7577C25.9278 15.5218 25.8601 15.2856 25.7899 15.0499C25.7768 15.006 25.7818 14.9823 25.8355 14.9689C26.24 14.8687 26.6438 14.7661 27.0481 14.6647C27.0661 14.6601 27.0853 14.6599 27.1041 14.6576Z" fill="#F9F9F9"/>
<path d="M30.723 19.5101C30.7243 19.3479 30.8639 19.2189 31.0381 19.2188C31.2139 19.2186 31.3543 19.3511 31.3536 19.5165C31.3528 19.682 31.2118 19.8086 31.031 19.8061C30.8557 19.8037 30.7216 19.6749 30.723 19.5101Z" fill="#F9F9F9"/>
<path d="M30.3053 19.7789C30.3049 19.9471 30.17 20.069 29.9852 20.0681C29.8079 20.0672 29.6747 19.9418 29.6748 19.7757C29.6748 19.6113 29.8099 19.4868 29.9886 19.4866C30.1721 19.4862 30.3059 19.6097 30.3053 19.7789Z" fill="#F9F9F9"/>
<path d="M8.55802 19.2522C8.5566 19.4142 8.41683 19.543 8.24283 19.5426C8.06627 19.5422 7.92025 19.4089 7.92053 19.2481C7.92082 19.0878 8.0701 18.9519 8.24354 18.9541C8.42293 18.9565 8.55958 19.0859 8.55802 19.2522Z" fill="#161616"/>
<path d="M9.60708 19.5176C9.60623 19.678 9.46433 19.8059 9.2872 19.8056C9.10936 19.8054 8.96732 19.6728 8.96888 19.5088C8.97045 19.35 9.11675 19.2174 9.28919 19.2185C9.46589 19.2195 9.60793 19.3531 9.60708 19.5176Z" fill="#161616"/>
<path d="M10.3352 20.0681C10.1556 20.0684 10.0199 19.9445 10.0193 19.7803C10.0187 19.6079 10.1602 19.4817 10.351 19.484C10.51 19.486 10.6542 19.62 10.6563 19.7676C10.6588 19.9363 10.5183 20.0677 10.3352 20.0681Z" fill="#161616"/>
<defs>
<filter id="filter0_d_1319_303" x="0" y="0" width="39" height="39" filterUnits="userSpaceOnUse" color-interpolation-filters="sRGB">
<feFlood flood-opacity="0" result="BackgroundImageFix"/>
<feColorMatrix in="SourceAlpha" type="matrix" values="0 0 0 0 0 0 0 0 0 0 0 0 0 0 0 0 0 0 127 0" result="hardAlpha"/>
<feOffset dy="1"/>
<feGaussianBlur stdDeviation="2"/>
<feComposite in2="hardAlpha" operator="out"/>
<feColorMatrix type="matrix" values="0 0 0 0 0 0 0 0 0 0 0 0 0 0 0 0 0 0 0.25 0"/>
<feBlend mode="normal" in2="BackgroundImageFix" result="effect1_dropShadow_1319_303"/>
<feBlend mode="normal" in="SourceGraphic" in2="effect1_dropShadow_1319_303" result="shape"/>
</filter>
</defs>
</svg>
