<svg width="92" height="70" viewBox="0 0 92 70" fill="none" xmlns="http://www.w3.org/2000/svg">
<path d="M5.50565 0.765452L63.7286 0.765457C66.7568 0.765457 69.2344 3.24307 69.2344 6.27126L69.2344 64.4942C69.2344 67.5224 66.7568 70 63.7286 70L5.50564 70C2.47745 70 -0.000160001 67.5224 -0.000159736 64.4942L-0.000154646 6.27125C-0.000154381 3.24307 2.47745 0.765451 5.50565 0.765452Z" fill="#FC9A99"/>
<path d="M28.2044 0.765452L86.4273 0.765457C89.4555 0.765457 91.9331 3.24307 91.9331 6.27126L91.9331 64.4942C91.9331 67.5224 89.4555 70 86.4273 70L28.2044 70C25.1762 70 22.6986 67.5224 22.6986 64.4942L22.6986 6.27125C22.6986 3.24307 25.1762 0.765451 28.2044 0.765452Z" fill="#E21A1C"/>
<path d="M10.1258 6.46119L12.6309 6.46119C15.6591 6.46119 18.1367 8.9388 18.1367 11.967L18.1367 58.7989C18.1367 61.8271 15.6591 64.3047 12.6309 64.3047L10.1258 64.3047C7.09759 64.3047 4.61998 61.8271 4.61998 58.7989L4.61998 11.967C4.61998 8.9388 7.0976 6.46119 10.1258 6.46119Z" fill="#E21A1C"/>
<path d="M33.905 6.46607L80.7369 6.46607C83.7651 6.46607 86.2427 8.94368 86.2427 11.9719L86.2427 58.8038C86.2427 61.832 83.7651 64.3096 80.7369 64.3096L33.905 64.3096C30.8768 64.3096 28.3992 61.832 28.3992 58.8038L28.3992 11.9719C28.3992 8.94367 30.8768 6.46607 33.905 6.46607Z" fill="#FC9A99"/>
<path fill-rule="evenodd" clip-rule="evenodd" d="M69.7702 37.8756L69.1838 38.0802C66.5325 38.9855 63.1547 38.6073 60.4399 38.1298L59.1589 37.9067V37.9129L58.2922 37.7146C56.1954 37.237 53.9458 36.2264 52.7412 34.416C51.9127 33.1698 51.7405 31.7808 51.9954 30.392L51.1923 31.5143C50.7271 32.1591 50.3638 32.8659 50.0961 33.6099C49.5543 35.1352 49.4907 36.7597 50.4212 38.1609C51.3709 39.5933 53.0979 40.4551 54.7359 40.9325L56.5394 41.4533L56.6096 41.3479L57.1768 41.4533C60.1722 42.0051 64.7991 42.619 67.4184 40.7465C67.6733 40.5605 67.9092 40.3559 68.1194 40.1264C68.2149 40.021 68.3041 39.9156 68.3871 39.8041L69.7702 37.8756ZM69.8465 37.7702L71.3952 35.6248C71.5546 35.4017 71.6819 35.1598 71.7777 34.9055C72.0963 34.0624 72.039 33.1447 71.8159 32.289C71.5228 31.1854 70.9556 30.1314 70.3118 29.1888C68.7122 26.8514 66.3796 24.7805 63.9768 23.2241C61.3576 21.5253 58.0243 20.062 54.825 20L52.3713 23.4039C53.4993 23.4784 54.6083 23.7015 55.6853 24.0239L57.3616 24.5261L55.9595 25.5555C55.2839 26.0514 54.6849 26.6591 54.2005 27.335L53.3338 28.5378C54.0411 28.1473 54.8123 27.8619 55.6026 27.7442C56.5712 27.6016 57.6165 27.7133 58.4196 28.2961C59.0696 28.7736 59.4328 29.4617 59.5668 30.2306C59.9618 32.4937 59.9237 34.8375 59.3629 37.0756L59.1589 37.8879L59.8345 36.8214C61.3258 34.4282 62.0459 31.6876 62.0205 28.8974L62.0013 27.0436L63.4798 28.2155C65.0284 29.4432 66.4687 30.8569 67.6351 32.4378C68.6422 33.7957 69.5726 35.476 69.7766 37.1563L69.8465 37.7702ZM40.5173 43.6417L38 47.1387C40.9444 48.044 44.1054 48.2795 47.139 47.6347C50.0134 47.0209 52.6454 45.6506 54.7167 43.617C55.2903 43.059 55.8129 42.4513 56.2781 41.8065L56.3227 41.7445L54.927 42.5196C50.5168 44.9748 45.2782 45.167 40.5173 43.6417Z" fill="#E21A1C"/>
</svg>
