<svg width="151" height="342" viewBox="0 0 151 342" fill="none" xmlns="http://www.w3.org/2000/svg">
<path d="M150.06 341.02H0V113.061C0 78.6793 15.8417 46.2252 42.9332 25.0635L75.0298 0L107.126 25.0635C134.218 46.2252 150.06 78.6793 150.06 113.061V340.997V341.02Z" fill="#FFFF6E"/>
<path d="M51.0188 65.4286V62.0396L55.2709 50.224H51.4303V46.7892H59.2029V50.0408L54.8594 61.9938H59.02V65.4286H51.0188Z" fill="black"/>
<path d="M60.8955 64.3715C60.4383 63.5471 60.2097 62.3793 60.2097 60.868C60.2097 59.6315 60.3698 58.6698 60.6898 58.0057C61.0099 57.3417 61.4671 56.8608 62.0386 56.5402C62.6101 56.2196 63.5017 55.8762 64.6904 55.5098L65.742 55.1663V53.5405C65.742 53.1283 65.6506 52.8078 65.4905 52.5788C65.3305 52.3498 65.1248 52.2353 64.8962 52.2353C64.6904 52.2353 64.5304 52.3269 64.3704 52.5101C64.2104 52.6933 64.1418 52.9452 64.1418 53.2657V54.2275H60.4612V53.7008C60.4612 52.1437 60.827 51.0217 61.5585 50.3576C62.2901 49.6936 63.4788 49.3501 65.1248 49.3501C66.4507 49.3501 67.5023 49.6936 68.3253 50.3805C69.1483 51.0675 69.5598 52.0292 69.5598 53.2886V65.4019H65.7877V63.5242C65.6048 64.1654 65.3077 64.6921 64.8962 65.0355C64.4847 65.4019 64.0046 65.5851 63.4331 65.5851C62.1986 65.5851 61.3527 65.1729 60.9184 64.3486L60.8955 64.3715ZM65.5134 62.2877C65.6277 62.0587 65.6963 61.7611 65.6963 61.4176V56.9982C65.1248 57.2043 64.7133 57.479 64.4618 57.8225C64.1875 58.1431 64.0732 58.624 64.0732 59.2193V61.2573C64.0732 62.1961 64.3475 62.677 64.919 62.677C65.2162 62.677 65.422 62.5625 65.5363 62.3106L65.5134 62.2877Z" fill="black"/>
<path d="M71.2056 65.4277V46.6968H74.9548V55.0318L76.7836 49.5591H80.6928L78.3152 56.4515L81.3557 65.4277H77.3323L74.9776 57.9399V65.4277H71.2284H71.2056Z" fill="black"/>
<path d="M82.4051 64.3715C81.9479 63.5471 81.7192 62.3793 81.7192 60.868C81.7192 59.6315 81.8793 58.6698 82.1993 58.0057C82.5194 57.3417 82.9766 56.8608 83.5481 56.5402C84.1196 56.2196 85.0112 55.8762 86.2 55.5098L87.2515 55.1663V53.5405C87.2515 53.1283 87.1601 52.8078 87.0001 52.5788C86.84 52.3498 86.6343 52.2353 86.4057 52.2353C86.1999 52.2353 86.0399 52.3269 85.8799 52.5101C85.7199 52.6933 85.6513 52.9452 85.6513 53.2657V54.2275H81.9707V53.7008C81.9707 52.1437 82.3365 51.0217 83.068 50.3576C83.7996 49.6936 84.9883 49.3501 86.6343 49.3501C87.9602 49.3501 89.0118 49.6936 89.8348 50.3805C90.6578 51.0675 91.0693 52.0292 91.0693 53.2886V65.4019H87.2973V63.5242C87.1144 64.1654 86.8172 64.6921 86.4057 65.0355C85.9942 65.4019 85.5141 65.5851 84.9426 65.5851C83.7081 65.5851 82.8623 65.1729 82.4279 64.3486L82.4051 64.3715ZM87.0458 62.2877C87.1601 62.0587 87.2287 61.7611 87.2287 61.4176V56.9982C86.6572 57.2043 86.2456 57.479 85.9942 57.8225C85.7199 58.1431 85.6056 58.624 85.6056 59.2193V61.2573C85.6056 62.1961 85.8799 62.677 86.4514 62.677C86.7486 62.677 86.9543 62.5625 87.0686 62.3106L87.0458 62.2877Z" fill="black"/>
<path d="M92.7388 46.6968H96.6479V51.1162C97.0594 49.9713 97.8138 49.3759 98.9569 49.3759C100.031 49.3759 100.831 49.7194 101.38 50.4063C101.929 51.0933 102.203 52.0092 102.203 53.1999V65.4277H98.4082V53.4289C98.4082 53.0854 98.3168 52.8107 98.1796 52.5817C98.0425 52.3527 97.791 52.2611 97.4938 52.2611C97.2423 52.2611 97.0366 52.3756 96.8766 52.6046C96.7165 52.8336 96.6479 53.1083 96.6479 53.4289V65.4506H92.7388V46.7197V46.6968Z" fill="black"/>
<path d="M43.1133 74.3605V83.1535H42.2446V74.3605H39.9585V73.5362H45.3994V74.3605H43.1133Z" fill="black"/>
<path d="M50.4111 83.1535V78.1159C50.4111 77.9556 50.3882 77.7953 50.3197 77.6579C50.2511 77.5205 50.1825 77.3831 50.0682 77.2686C49.9539 77.1541 49.8396 77.0854 49.6796 77.0167C49.5424 76.948 49.3824 76.9251 49.2224 76.9251H48.6737C48.5137 76.9251 48.3536 76.948 48.2165 77.0167C48.0793 77.0854 47.9422 77.1541 47.8507 77.2686C47.7364 77.3831 47.6678 77.4976 47.5993 77.6579C47.5307 77.7953 47.5078 77.9556 47.5078 78.1159V83.1535H46.6848V73.5362H47.5078V76.8564C47.6907 76.6274 47.9193 76.4672 48.1936 76.3298C48.468 76.1924 48.7423 76.1466 49.0395 76.1466H49.2452C49.5196 76.1466 49.7939 76.1924 50.0225 76.3069C50.2511 76.4214 50.4797 76.5588 50.6626 76.7419C50.8455 76.9251 50.9826 77.1312 51.0969 77.3831C51.2113 77.635 51.257 77.8869 51.257 78.1616V83.1535H50.434H50.4111Z" fill="black"/>
<path d="M57.4307 82.0538C57.3163 82.3057 57.1792 82.5118 56.9963 82.695C56.8134 82.8782 56.6077 83.0156 56.3562 83.13C56.1047 83.2445 55.8533 83.2903 55.5789 83.2903H55.0303C54.756 83.2903 54.4816 83.2445 54.253 83.13C54.0244 83.0156 53.7958 82.8782 53.6129 82.695C53.43 82.5118 53.2929 82.3057 53.1786 82.0538C53.0643 81.8019 53.0186 81.55 53.0186 81.2753V78.184C53.0186 77.9092 53.0643 77.6344 53.1786 77.4054C53.2929 77.1536 53.43 76.9475 53.6129 76.7643C53.7958 76.5811 54.0015 76.4437 54.253 76.3292C54.5045 76.2147 54.756 76.1689 55.0303 76.1689H55.5789C55.8533 76.1689 56.1276 76.2147 56.3562 76.3292C56.5848 76.4437 56.8134 76.5811 56.9963 76.7643C57.1792 76.9475 57.3163 77.1536 57.4307 77.4054C57.545 77.6573 57.5907 77.9092 57.5907 78.184V79.8098H53.8415V81.344C53.8415 81.5043 53.8644 81.6645 53.933 81.8019C54.0016 81.9393 54.0701 82.0767 54.1844 82.1912C54.2987 82.3057 54.413 82.3744 54.5731 82.4431C54.7102 82.5118 54.8703 82.5347 55.0303 82.5347H55.5789C55.739 82.5347 55.899 82.5118 56.0361 82.4431C56.1733 82.3744 56.3105 82.3057 56.4248 82.1912C56.5391 82.0767 56.6077 81.9622 56.6763 81.8019C56.7449 81.6645 56.7677 81.5043 56.7677 81.344V80.886L57.5907 81.0234V81.2982C57.5907 81.573 57.545 81.8477 57.4307 82.0767V82.0538ZM56.7677 78.1382C56.7677 77.9779 56.7449 77.8176 56.6763 77.6802C56.6077 77.5428 56.5391 77.4054 56.4248 77.2909C56.3105 77.1765 56.1962 77.1078 56.0361 77.0391C55.899 76.9704 55.739 76.9475 55.5789 76.9475H55.0303C54.8703 76.9475 54.7102 76.9704 54.5731 77.0391C54.4359 77.1078 54.2987 77.1765 54.1844 77.2909C54.0701 77.4054 54.0016 77.5199 53.933 77.6802C53.8644 77.8176 53.8415 77.9779 53.8415 78.1382V79.1686H56.7677V78.1382Z" fill="black"/>
<path d="M68.0098 81.8453C67.8955 82.1201 67.7127 82.372 67.5069 82.601C67.3012 82.83 67.0497 82.9903 66.7525 83.1047C66.4553 83.2192 66.1581 83.2879 65.8381 83.2879H65.1523C64.8322 83.2879 64.5122 83.2192 64.2378 83.1047C63.9635 82.9903 63.6892 82.8071 63.4834 82.601C63.2777 82.3949 63.0948 82.143 62.9805 81.8453C62.8662 81.5477 62.7976 81.25 62.7976 80.9294V75.7544C62.7976 75.4338 62.8662 75.1132 62.9805 74.8384C63.0948 74.5636 63.2777 74.3117 63.4834 74.0828C63.6892 73.8767 63.9407 73.6935 64.2378 73.579C64.535 73.4645 64.8322 73.3958 65.1523 73.3958H65.8381C66.1581 73.3958 66.4782 73.4645 66.7525 73.579C67.0268 73.6935 67.2783 73.8767 67.5069 74.0828C67.7355 74.2889 67.8955 74.5407 68.0098 74.8384C68.1241 75.1132 68.1927 75.4338 68.1927 75.7544V76.1436L67.324 76.281V75.7544C67.324 75.5483 67.2783 75.3422 67.2097 75.159C67.1183 74.9758 67.0268 74.8155 66.8897 74.6781C66.7525 74.5407 66.5925 74.4262 66.4096 74.3575C66.2267 74.2659 66.021 74.2431 65.8152 74.2431H65.2208C65.0151 74.2431 64.8094 74.2888 64.6265 74.3575C64.4436 74.4491 64.2835 74.5407 64.1464 74.6781C64.0092 74.8155 63.8949 74.9758 63.8035 75.159C63.712 75.3422 63.6892 75.5483 63.6892 75.7544V80.9294C63.6892 81.1355 63.7349 81.3416 63.8035 81.5248C63.8949 81.7079 63.9864 81.8682 64.1464 82.0056C64.2835 82.143 64.4436 82.2575 64.6265 82.3262C64.8094 82.4178 65.0151 82.4407 65.2208 82.4407H65.8152C66.021 82.4407 66.2267 82.3949 66.4096 82.3262C66.5925 82.2346 66.7525 82.143 66.8897 82.0056C67.0268 81.8682 67.1411 81.7079 67.2097 81.5248C67.3011 81.3416 67.324 81.1355 67.324 80.9294V80.4027L68.1927 80.5401V80.9294C68.1927 81.25 68.1241 81.5706 68.0098 81.8453Z" fill="black"/>
<path d="M73.7518 83.1535V78.1159C73.7518 77.9556 73.729 77.7953 73.6604 77.6579C73.5918 77.5205 73.5232 77.3831 73.4089 77.2686C73.2946 77.1541 73.1803 77.0854 73.0203 77.0167C72.8832 76.948 72.7231 76.9251 72.5631 76.9251H72.0144C71.8544 76.9251 71.6944 76.948 71.5572 77.0167C71.4201 77.0854 71.2829 77.1541 71.1686 77.2686C71.0543 77.3831 70.9857 77.4976 70.9171 77.6579C70.8486 77.7953 70.8257 77.9556 70.8257 78.1159V83.1535H70.0027V73.5362H70.8257V76.8564C71.0086 76.6274 71.2372 76.4672 71.5115 76.3298C71.7858 76.2153 72.0601 76.1466 72.3573 76.1466H72.5631C72.8374 76.1466 73.1118 76.1924 73.3404 76.3069C73.569 76.4214 73.7976 76.5588 73.9805 76.7419C74.1633 76.9251 74.3005 77.1312 74.4148 77.3831C74.5291 77.635 74.5748 77.8869 74.5748 78.1616V83.1535H73.7518Z" fill="black"/>
<path d="M80.6543 83.1529L80.1971 82.466C80.0142 82.7179 79.7856 82.9011 79.4884 83.0614C79.2141 83.2216 78.894 83.2903 78.5739 83.2903H78.3682C78.0939 83.2903 77.8195 83.2445 77.5909 83.13C77.3395 83.0156 77.1337 82.8782 76.9508 82.695C76.768 82.5118 76.6308 82.3057 76.5165 82.0538C76.4022 81.8019 76.3564 81.55 76.3564 81.2753V81.2066C76.3564 80.9318 76.4022 80.657 76.5165 80.428C76.6308 80.1761 76.768 79.9701 76.9508 79.7869C77.1337 79.6037 77.3395 79.4663 77.5909 79.3518C77.8424 79.2373 78.0939 79.1915 78.3682 79.1915H80.1056V78.1382C80.1056 77.9779 80.0828 77.8176 80.0142 77.6802C79.9456 77.5428 79.877 77.4054 79.7627 77.2909C79.6484 77.1765 79.5341 77.1078 79.3741 77.0391C79.2369 76.9704 79.0769 76.9475 78.9169 76.9475H78.4368C78.2768 76.9475 78.1167 76.9704 77.9796 77.0391C77.8424 77.1078 77.7052 77.1765 77.5909 77.2909C77.4766 77.4054 77.4081 77.5199 77.3395 77.6802C77.2709 77.8176 77.248 77.9779 77.248 78.1382V78.3901L76.4251 78.2527V78.184C76.4251 77.9092 76.4708 77.6344 76.5851 77.4054C76.6994 77.1764 76.8365 76.9475 77.0194 76.7643C77.2023 76.5811 77.4081 76.4437 77.6595 76.3292C77.911 76.2147 78.1624 76.1689 78.4368 76.1689H78.9169C79.1912 76.1689 79.4655 76.2147 79.6941 76.3292C79.9456 76.4437 80.1513 76.5811 80.3342 76.7643C80.5171 76.9475 80.6543 77.1536 80.7686 77.4054C80.8829 77.6573 80.9286 77.9092 80.9286 78.184V83.1758H80.6543V83.1529ZM80.1056 79.8327H78.3682C78.2082 79.8327 78.0482 79.8556 77.911 79.9243C77.7738 79.993 77.6367 80.0617 77.5224 80.1761C77.4081 80.2906 77.3395 80.4051 77.2709 80.5654C77.2023 80.7257 77.1794 80.8631 77.1794 81.0234V81.3211C77.1794 81.4814 77.2023 81.6416 77.2709 81.779C77.3395 81.9164 77.4081 82.0538 77.5224 82.1683C77.6367 82.2828 77.751 82.3515 77.911 82.4202C78.0482 82.4889 78.2082 82.5118 78.3682 82.5118H78.9169C79.0769 82.5118 79.2369 82.4889 79.3741 82.4202C79.5112 82.3515 79.6484 82.2828 79.7627 82.1683C79.877 82.0538 79.9456 81.9393 80.0142 81.779C80.0828 81.6416 80.1056 81.4814 80.1056 81.3211V79.8327Z" fill="black"/>
<path d="M84.7464 77.077C84.5863 77.077 84.4263 77.0999 84.2891 77.1686C84.152 77.2372 84.0148 77.3059 83.9005 77.4204C83.7862 77.5349 83.7176 77.6494 83.649 77.8097C83.5805 77.9471 83.5576 78.1074 83.5576 78.2677V83.1679H82.7346V76.2984H83.0089L83.4661 76.9854C83.649 76.7335 83.9005 76.5274 84.1749 76.3671C84.4492 76.2068 84.7692 76.1381 85.1121 76.1381H85.5922V77.0541H84.7692L84.7464 77.077Z" fill="black"/>
<path d="M87.0071 74.6353V73.5362H87.9672V74.6353H87.0071ZM87.0757 83.1535V76.284H87.8986V83.1535H87.0757Z" fill="black"/>
<path d="M92.4504 83.1538C92.1989 83.1538 91.9703 83.108 91.7417 83.0164C91.5131 82.9248 91.3302 82.7874 91.1702 82.6271C91.0102 82.4669 90.873 82.2608 90.7816 82.0547C90.6901 81.8257 90.6444 81.5967 90.6444 81.3448V77.0628H89.4099V76.2843H90.6444V74.6356L91.4674 74.4982V76.2843H93.2048V77.0628H91.4674V81.3677C91.4674 81.5051 91.4903 81.6425 91.536 81.757C91.5817 81.8715 91.6503 81.986 91.7417 82.0776C91.8332 82.1692 91.9246 82.2379 92.0618 82.2837C92.1761 82.3295 92.3132 82.3524 92.4504 82.3524H93.2048V83.1309H92.4504V83.1538Z" fill="black"/>
<path d="M95.9667 85.9164H95.1665L96.3781 82.5732L94.1606 76.299H94.9836L96.7667 81.497V81.8634L96.8125 81.497L98.5956 76.299H99.4186L95.9438 85.9164H95.9667Z" fill="black"/>
<path d="M106.191 83.1538C105.939 83.1538 105.711 83.108 105.482 83.0164C105.253 82.9248 105.07 82.7874 104.91 82.6271C104.75 82.4669 104.613 82.2608 104.522 82.0547C104.43 81.8257 104.385 81.5967 104.385 81.3448V77.0628H103.15V76.2843H104.385V74.6356L105.208 74.4982V76.2843H106.945V77.0628H105.208V81.3677C105.208 81.5051 105.23 81.6425 105.276 81.757C105.322 81.8715 105.391 81.986 105.482 82.0776C105.573 82.1692 105.665 82.2379 105.802 82.2837C105.916 82.3295 106.053 82.3524 106.191 82.3524H106.945V83.1309H106.191V83.1538Z" fill="black"/>
<path d="M113.004 82.0538C112.889 82.3057 112.752 82.5118 112.569 82.695C112.386 82.8782 112.181 83.0156 111.929 83.13C111.678 83.2445 111.426 83.2903 111.152 83.2903H110.603C110.329 83.2903 110.055 83.2445 109.826 83.13C109.597 83.0156 109.369 82.8782 109.186 82.695C109.003 82.5118 108.866 82.3057 108.752 82.0538C108.637 81.8019 108.592 81.55 108.592 81.2753V78.184C108.592 77.9092 108.637 77.6344 108.752 77.4054C108.866 77.1764 109.003 76.9475 109.186 76.7643C109.369 76.5811 109.575 76.4437 109.826 76.3292C110.078 76.2147 110.329 76.1689 110.603 76.1689H111.152C111.426 76.1689 111.701 76.2147 111.929 76.3292C112.181 76.4437 112.386 76.5811 112.569 76.7643C112.752 76.9475 112.889 77.1536 113.004 77.4054C113.118 77.6573 113.164 77.9092 113.164 78.184V81.2753C113.164 81.55 113.118 81.8248 113.004 82.0538ZM112.341 78.1382C112.341 77.9779 112.318 77.8176 112.249 77.6802C112.181 77.5428 112.112 77.4054 111.998 77.2909C111.883 77.1765 111.769 77.1078 111.609 77.0391C111.472 76.9704 111.312 76.9475 111.152 76.9475H110.603C110.443 76.9475 110.283 76.9704 110.146 77.0391C110.009 77.1078 109.872 77.1765 109.78 77.2909C109.666 77.4054 109.597 77.5199 109.529 77.6802C109.46 77.8176 109.437 77.9779 109.437 78.1382V81.3211C109.437 81.4814 109.46 81.6416 109.529 81.779C109.597 81.9164 109.666 82.0538 109.78 82.1683C109.895 82.2828 110.009 82.3515 110.146 82.4202C110.283 82.4889 110.443 82.5118 110.603 82.5118H111.152C111.312 82.5118 111.472 82.4889 111.609 82.4202C111.746 82.3515 111.883 82.2828 111.998 82.1683C112.112 82.0538 112.181 81.9393 112.249 81.779C112.318 81.6416 112.341 81.4814 112.341 81.3211V78.1382Z" fill="black"/>
<path d="M41.9969 96.8857L37.9963 89.8788L37.9049 89.4666V96.8857H37.0361V87.2683H37.4933L41.494 94.2753L41.5854 94.6874V87.2683H42.4541V96.8857H41.9969Z" fill="black"/>
<path d="M48.8108 95.7894C48.6965 96.0413 48.5593 96.2474 48.3765 96.4306C48.1936 96.6138 47.9878 96.7511 47.7364 96.8656C47.4849 96.9801 47.2334 97.0259 46.9591 97.0259H46.4104C46.1361 97.0259 45.8618 96.9801 45.6332 96.8656C45.3817 96.7511 45.176 96.6138 44.9931 96.4306C44.8102 96.2474 44.673 96.0413 44.5587 95.7894C44.4444 95.5375 44.3987 95.2856 44.3987 95.0109V91.9196C44.3987 91.6448 44.4444 91.37 44.5587 91.141C44.673 90.912 44.8102 90.6831 44.9931 90.4999C45.176 90.3167 45.3817 90.1793 45.6332 90.0648C45.8846 89.9503 46.1361 89.9045 46.4104 89.9045H46.9591C47.2334 89.9045 47.5078 89.9503 47.7364 90.0648C47.965 90.1793 48.1936 90.3167 48.3765 90.4999C48.5593 90.6831 48.6965 90.8891 48.8108 91.141C48.9251 91.3929 48.9708 91.6448 48.9708 91.9196V93.5454H45.2217V95.0796C45.2217 95.2399 45.2445 95.4001 45.3131 95.5375C45.3817 95.6749 45.4503 95.8123 45.5646 95.9268C45.6789 96.0413 45.7932 96.11 45.9532 96.1787C46.0904 96.2474 46.2504 96.2703 46.4104 96.2703H46.9591C47.1191 96.2703 47.2791 96.2474 47.4163 96.1787C47.5535 96.11 47.6906 96.0413 47.8049 95.9268C47.9192 95.8123 47.9878 95.6978 48.0564 95.5375C48.125 95.4001 48.1478 95.2399 48.1478 95.0796V94.6216L48.9708 94.759V95.0338C48.9708 95.3085 48.9251 95.5833 48.8108 95.8123V95.7894ZM48.125 91.8738C48.125 91.7135 48.1021 91.5532 48.0335 91.4158C47.9649 91.2784 47.8964 91.141 47.7821 91.0265C47.6678 90.912 47.5535 90.8433 47.3934 90.7747C47.2563 90.706 47.0962 90.6831 46.9362 90.6831H46.3876C46.2276 90.6831 46.0675 90.706 45.9303 90.7747C45.7932 90.8433 45.656 90.912 45.5417 91.0265C45.4274 91.141 45.3588 91.2555 45.2902 91.4158C45.2217 91.5532 45.1988 91.7135 45.1988 91.8738V92.9042H48.125V91.8738Z" fill="black"/>
<path d="M55.1682 95.7894C55.0539 96.0413 54.9168 96.2474 54.7339 96.4306C54.551 96.6138 54.3452 96.7511 54.0938 96.8656C53.8423 96.9801 53.5909 97.0259 53.3165 97.0259H52.7679C52.4935 97.0259 52.2192 96.9801 51.9906 96.8656C51.762 96.7511 51.5334 96.6138 51.3505 96.4306C51.1676 96.2474 51.0304 96.0413 50.9161 95.7894C50.8018 95.5375 50.7561 95.2856 50.7561 95.0109V91.9196C50.7561 91.6448 50.8018 91.37 50.9161 91.141C51.0304 90.912 51.1676 90.6831 51.3505 90.4999C51.5334 90.3167 51.7391 90.1793 51.9906 90.0648C52.2421 89.9503 52.4935 89.9045 52.7679 89.9045H53.3165C53.5909 89.9045 53.8652 89.9503 54.0938 90.0648C54.3224 90.1793 54.551 90.3167 54.7339 90.4999C54.9168 90.6831 55.0539 90.8891 55.1682 91.141C55.2825 91.3929 55.3282 91.6448 55.3282 91.9196V93.5454H51.5791V95.0796C51.5791 95.2399 51.602 95.4001 51.6706 95.5375C51.7391 95.6749 51.8077 95.8123 51.922 95.9268C52.0363 96.0413 52.1506 96.11 52.3106 96.1787C52.4478 96.2474 52.6078 96.2703 52.7679 96.2703H53.3165C53.4766 96.2703 53.6366 96.2474 53.7737 96.1787C53.9109 96.11 54.0481 96.0413 54.1624 95.9268C54.2767 95.8123 54.3452 95.6978 54.4138 95.5375C54.4824 95.4001 54.5053 95.2399 54.5053 95.0796V94.6216L55.3282 94.759V95.0338C55.3282 95.3085 55.2825 95.5833 55.1682 95.8123V95.7894ZM54.5053 91.8738C54.5053 91.7135 54.4824 91.5532 54.4138 91.4158C54.3452 91.2784 54.2767 91.141 54.1624 91.0265C54.0481 90.912 53.9338 90.8433 53.7737 90.7747C53.6366 90.706 53.4766 90.6831 53.3165 90.6831H52.7679C52.6078 90.6831 52.4478 90.706 52.3106 90.7747C52.1735 90.8433 52.0363 90.912 51.922 91.0265C51.8077 91.141 51.7391 91.2555 51.6706 91.4158C51.602 91.5532 51.5791 91.7135 51.5791 91.8738V92.9042H54.5053V91.8738Z" fill="black"/>
<path d="M61.4011 96.8878L60.9439 96.2009C60.761 96.4527 60.5324 96.6588 60.2352 96.8191C59.9609 96.9794 59.6408 97.0481 59.3208 97.0481H59.115C58.8407 97.0481 58.5664 97.0023 58.3378 96.8878C58.1092 96.7733 57.8806 96.6359 57.6977 96.4527C57.5148 96.2695 57.3776 96.0635 57.2633 95.8116C57.149 95.5597 57.1033 95.3078 57.1033 95.033V91.9417C57.1033 91.667 57.149 91.3922 57.2633 91.1632C57.3776 90.9113 57.5148 90.7052 57.6977 90.522C57.8806 90.3389 58.0863 90.2015 58.3378 90.087C58.5892 89.9725 58.8407 89.9267 59.115 89.9267H59.3208C59.618 89.9267 59.9152 89.9954 60.1666 90.1099C60.441 90.2244 60.6467 90.4075 60.8524 90.6365V87.3163H61.6754V96.9336H61.4011V96.8878ZM60.8524 91.873C60.8524 91.7128 60.8296 91.5525 60.761 91.4151C60.6924 91.2777 60.6238 91.1403 60.5095 91.0258C60.3952 90.9113 60.2809 90.8426 60.1437 90.7739C60.0066 90.7052 59.8466 90.6823 59.6865 90.6823H59.1379C58.9778 90.6823 58.8178 90.7052 58.6807 90.7739C58.5435 90.8426 58.4063 90.9113 58.292 91.0258C58.1777 91.1403 58.1092 91.2548 58.0406 91.4151C57.972 91.5525 57.9491 91.7128 57.9491 91.873V95.0559C57.9491 95.2162 57.972 95.3765 58.0406 95.5139C58.1092 95.6513 58.1777 95.7887 58.292 95.9032C58.4063 96.0177 58.5206 96.0864 58.6807 96.1551C58.8178 96.2237 58.9778 96.2466 59.1379 96.2466H59.6865C59.8466 96.2466 60.0066 96.2237 60.1437 96.1551C60.2809 96.0864 60.4181 96.0177 60.5095 95.9032C60.6238 95.7887 60.6924 95.6742 60.761 95.5139C60.8296 95.3765 60.8524 95.2162 60.8524 95.0559V91.873Z" fill="black"/>
<path d="M64.5797 99.6588H63.7795L64.9912 96.3156L62.7737 90.0415H63.5967L65.3798 95.2394V95.6058L65.4255 95.2394L67.2086 90.0415H68.0316L64.5568 99.6588H64.5797Z" fill="black"/>
<path d="M76.6076 96.8885L76.1504 96.2016C75.9675 96.4535 75.7389 96.6367 75.4417 96.7969C75.1445 96.9572 74.8474 97.0259 74.5273 97.0259H74.3215C74.0472 97.0259 73.7729 96.9801 73.5443 96.8656C73.3157 96.7511 73.0871 96.6138 72.9042 96.4306C72.7213 96.2474 72.5841 96.0413 72.4698 95.7894C72.3555 95.5375 72.3098 95.2856 72.3098 95.0109V94.9422C72.3098 94.6674 72.3555 94.3926 72.4698 94.1636C72.5841 93.9117 72.7213 93.7057 72.9042 93.5225C73.0871 93.3393 73.2928 93.2019 73.5443 93.0874C73.7957 92.9729 74.0472 92.9271 74.3215 92.9271H76.059V91.8738C76.059 91.7135 76.0361 91.5532 75.9675 91.4158C75.8989 91.2784 75.8303 91.141 75.716 91.0265C75.6017 90.912 75.4874 90.8433 75.3274 90.7747C75.1902 90.706 75.0302 90.6831 74.8702 90.6831H74.3901C74.2301 90.6831 74.0701 90.706 73.9329 90.7747C73.7957 90.8433 73.6586 90.912 73.5443 91.0265C73.43 91.141 73.3614 91.2555 73.2928 91.4158C73.2242 91.5532 73.2014 91.7135 73.2014 91.8738V92.1257L72.3784 91.9883V91.9196C72.3784 91.6448 72.4241 91.37 72.5384 91.141C72.6527 90.912 72.7899 90.6831 72.9728 90.4999C73.1556 90.3167 73.3614 90.1793 73.6129 90.0648C73.8643 89.9503 74.1158 89.9045 74.3901 89.9045H74.8702C75.1445 89.9045 75.4189 89.9503 75.6475 90.0648C75.8761 90.1793 76.1047 90.3167 76.2876 90.4999C76.4704 90.6831 76.6076 90.8891 76.7219 91.141C76.8362 91.3929 76.882 91.6448 76.882 91.9196V96.9114H76.6076V96.8885ZM76.059 93.5683H74.3215C74.1615 93.5683 74.0015 93.5912 73.8643 93.6599C73.7272 93.7285 73.59 93.7972 73.4757 93.9117C73.3614 94.0262 73.2928 94.1407 73.2242 94.301C73.1556 94.4384 73.1328 94.5987 73.1328 94.759V95.0567C73.1328 95.2169 73.1556 95.3772 73.2242 95.5146C73.2928 95.652 73.3614 95.7894 73.4757 95.9039C73.59 96.0184 73.7043 96.0871 73.8643 96.1558C74.0015 96.2245 74.1615 96.2474 74.3215 96.2474H74.8702C75.0302 96.2474 75.1902 96.2245 75.3274 96.1558C75.4646 96.0871 75.6017 96.0184 75.716 95.9039C75.8303 95.7894 75.8989 95.6749 75.9675 95.5146C76.0361 95.3772 76.059 95.2169 76.059 95.0567V93.5683Z" fill="black"/>
<path d="M82.4379 96.8864V91.8487C82.4379 91.6884 82.4151 91.5282 82.3465 91.3908C82.2779 91.2534 82.2093 91.116 82.095 91.0015C81.9807 90.887 81.8664 90.8183 81.7064 90.7496C81.5693 90.6809 81.4092 90.658 81.2492 90.658H80.7005C80.5405 90.658 80.3805 90.6809 80.2433 90.7496C80.1062 90.8183 79.969 90.887 79.8776 91.0015C79.7632 91.116 79.6947 91.2305 79.6261 91.3908C79.5575 91.5282 79.5347 91.6884 79.5347 91.8487V96.8864H78.7117V90.0169H78.986L79.4432 90.7038C79.6261 90.4519 79.8547 90.2458 80.1519 90.0856C80.4491 89.9253 80.7463 89.8566 81.0892 89.8566H81.2949C81.5692 89.8566 81.8436 89.9024 82.0722 90.0169C82.3236 90.1313 82.5294 90.2687 82.7123 90.4519C82.8952 90.6351 83.0323 90.8412 83.1466 91.0931C83.2609 91.345 83.3067 91.5969 83.3067 91.8716V96.8635H82.4837L82.4379 96.8864Z" fill="black"/>
<path d="M89.3396 96.8878L88.8824 96.2009C88.6995 96.4527 88.4709 96.6588 88.1737 96.8191C87.8994 96.9794 87.5793 97.0481 87.2592 97.0481H87.0535C86.7792 97.0481 86.5049 97.0023 86.2762 96.8878C86.0248 96.7733 85.819 96.6359 85.6361 96.4527C85.4533 96.2695 85.3161 96.0635 85.2018 95.8116C85.0875 95.5597 85.0417 95.3078 85.0417 95.033V91.9417C85.0417 91.667 85.0875 91.3922 85.2018 91.1632C85.3161 90.9342 85.4533 90.7052 85.6361 90.522C85.819 90.3389 86.0248 90.2015 86.2762 90.087C86.5277 89.9725 86.7792 89.9267 87.0535 89.9267H87.2592C87.5564 89.9267 87.8536 89.9954 88.128 90.1099C88.4023 90.2244 88.608 90.4075 88.8138 90.6365V87.3163H89.6368V96.9336H89.3624L89.3396 96.8878ZM88.7909 91.873C88.7909 91.7128 88.7681 91.5525 88.6995 91.4151C88.6309 91.2777 88.5623 91.1403 88.448 91.0258C88.3337 90.9113 88.2194 90.8426 88.0822 90.7739C87.9451 90.7052 87.785 90.6823 87.625 90.6823H87.0763C86.9163 90.6823 86.7563 90.7052 86.6191 90.7739C86.482 90.8426 86.3448 90.9113 86.2305 91.0258C86.1162 91.1403 86.0476 91.2548 85.979 91.4151C85.9105 91.5525 85.8876 91.7128 85.8876 91.873V95.0559C85.8876 95.2162 85.9105 95.3765 85.979 95.5139C86.0476 95.6513 86.1162 95.7887 86.2305 95.9032C86.3448 96.0177 86.4591 96.0864 86.6191 96.1551C86.7563 96.2237 86.9163 96.2466 87.0763 96.2466H87.625C87.785 96.2466 87.9451 96.2237 88.0822 96.1551C88.2194 96.0864 88.3566 96.0177 88.448 95.9032C88.5623 95.7887 88.6309 95.6742 88.6995 95.5139C88.7681 95.3765 88.7909 95.2162 88.7909 95.0559V91.873Z" fill="black"/>
<path d="M100.197 91.7564C100.083 92.0312 99.8997 92.2831 99.694 92.5121C99.4882 92.7182 99.2367 92.9014 98.9395 93.0158C98.6424 93.1303 98.3452 93.199 98.0251 93.199H95.8533V96.8857H94.9846V87.2683H98.0251C98.3452 87.2683 98.6652 87.337 98.9395 87.4515C99.2367 87.566 99.4882 87.7492 99.694 87.9553C99.8997 88.1614 100.083 88.4133 100.197 88.7109C100.311 89.0086 100.38 89.3063 100.38 89.6269V90.8176C100.38 91.1382 100.311 91.4587 100.197 91.7335V91.7564ZM99.5111 89.6498C99.5111 89.4437 99.4654 89.2376 99.3968 89.0544C99.3053 88.8712 99.2139 88.7109 99.0767 88.5736C98.9395 88.4362 98.7795 88.3217 98.5966 88.2301C98.4138 88.1385 98.208 88.1156 98.0022 88.1156H95.8762V92.3976H98.0022C98.208 92.3976 98.4138 92.3518 98.5966 92.2831C98.7795 92.1915 98.9395 92.0999 99.0767 91.9625C99.2139 91.8251 99.3282 91.6648 99.3968 91.4817C99.4882 91.2985 99.5111 91.0924 99.5111 90.8863V89.6956V89.6498Z" fill="black"/>
<path d="M106.301 95.7894C106.187 96.0413 106.05 96.2474 105.867 96.4306C105.684 96.6138 105.478 96.7511 105.227 96.8656C104.975 96.9801 104.724 97.0259 104.45 97.0259H103.901C103.627 97.0259 103.352 96.9801 103.124 96.8656C102.872 96.7511 102.666 96.6138 102.483 96.4306C102.301 96.2474 102.164 96.0413 102.049 95.7894C101.935 95.5375 101.889 95.2856 101.889 95.0109V91.9196C101.889 91.6448 101.935 91.37 102.049 91.141C102.164 90.8891 102.301 90.6831 102.483 90.4999C102.666 90.3167 102.872 90.1793 103.124 90.0648C103.375 89.9503 103.627 89.9045 103.901 89.9045H104.45C104.724 89.9045 104.998 89.9503 105.227 90.0648C105.478 90.1793 105.684 90.3167 105.867 90.4999C106.05 90.6831 106.187 90.8891 106.301 91.141C106.416 91.3929 106.461 91.6448 106.461 91.9196V95.0109C106.461 95.2856 106.416 95.5604 106.301 95.7894ZM105.638 91.8738C105.638 91.7135 105.615 91.5532 105.547 91.4158C105.478 91.2784 105.41 91.141 105.295 91.0265C105.181 90.912 105.067 90.8433 104.907 90.7747C104.77 90.706 104.61 90.6831 104.45 90.6831H103.901C103.741 90.6831 103.581 90.706 103.444 90.7747C103.307 90.8433 103.169 90.912 103.078 91.0265C102.964 91.141 102.895 91.2555 102.826 91.4158C102.758 91.5532 102.735 91.7135 102.735 91.8738V95.0567C102.735 95.2169 102.758 95.3772 102.826 95.5146C102.895 95.652 102.964 95.7894 103.078 95.9039C103.192 96.0184 103.307 96.0871 103.444 96.1558C103.581 96.2245 103.741 96.2474 103.901 96.2474H104.45C104.61 96.2474 104.77 96.2245 104.907 96.1558C105.044 96.0871 105.181 96.0184 105.295 95.9039C105.41 95.7894 105.478 95.6749 105.547 95.5146C105.615 95.3772 105.638 95.2169 105.638 95.0567V91.8738Z" fill="black"/>
<path d="M112.682 95.7894C112.568 96.0413 112.431 96.2474 112.248 96.4306C112.065 96.6138 111.859 96.7511 111.608 96.8656C111.356 96.9801 111.105 97.0259 110.831 97.0259H110.282C110.008 97.0259 109.733 96.9801 109.505 96.8656C109.253 96.7511 109.047 96.6138 108.865 96.4306C108.682 96.2474 108.545 96.0413 108.43 95.7894C108.316 95.5375 108.27 95.2856 108.27 95.0109V91.9196C108.27 91.6448 108.316 91.37 108.43 91.141C108.545 90.8891 108.682 90.6831 108.865 90.4999C109.047 90.3167 109.253 90.1793 109.505 90.0648C109.756 89.9503 110.008 89.9045 110.282 89.9045H110.831C111.105 89.9045 111.379 89.9503 111.608 90.0648C111.837 90.1793 112.065 90.3167 112.248 90.4999C112.431 90.6831 112.568 90.8891 112.682 91.141C112.797 91.3929 112.842 91.6448 112.842 91.9196V95.0109C112.842 95.2856 112.797 95.5604 112.682 95.7894ZM112.019 91.8738C112.019 91.7135 111.997 91.5532 111.928 91.4158C111.859 91.2784 111.791 91.141 111.676 91.0265C111.562 90.912 111.448 90.8433 111.311 90.7747C111.174 90.706 111.013 90.6831 110.853 90.6831H110.305C110.145 90.6831 109.985 90.706 109.848 90.7747C109.71 90.8433 109.573 90.912 109.459 91.0265C109.345 91.141 109.276 91.2555 109.207 91.4158C109.139 91.5532 109.116 91.7135 109.116 91.8738V95.0567C109.116 95.2169 109.139 95.3772 109.207 95.5146C109.276 95.652 109.345 95.7894 109.459 95.9039C109.573 96.0184 109.688 96.0871 109.848 96.1558C109.985 96.2245 110.145 96.2474 110.305 96.2474H110.853C111.013 96.2474 111.174 96.2245 111.311 96.1558C111.448 96.0871 111.585 96.0184 111.676 95.9039C111.791 95.7894 111.859 95.6749 111.928 95.5146C111.997 95.3772 112.019 95.2169 112.019 95.0567V91.8738Z" fill="black"/>
<path d="M116.633 90.8194C116.473 90.8194 116.313 90.8423 116.176 90.911C116.038 90.9797 115.901 91.0484 115.787 91.1629C115.673 91.2774 115.604 91.3919 115.536 91.5521C115.467 91.6895 115.444 91.8498 115.444 92.0101V96.9104H114.621V90.0408H114.895L115.353 90.7278C115.535 90.4759 115.787 90.2698 116.061 90.1095C116.336 89.9492 116.656 89.8806 116.999 89.8806H117.479V90.7965H116.656L116.633 90.8194Z" fill="black"/>
<mask id="mask0_2971_14109" style="mask-type:luminance" maskUnits="userSpaceOnUse" x="1" y="153" width="150" height="169">
<path d="M150.71 153.618H1.29248V321.212H150.71V153.618Z" fill="white"/>
</mask>
<g mask="url(#mask0_2971_14109)">
<path d="M112.332 167.838C114.595 165.342 119.625 165.158 119.625 165.158C119.625 165.158 130.186 154.396 141.091 164.678C141.091 164.678 148.086 164.014 150.601 172.12C151.927 176.287 150.258 180.5 150.258 180.5C150.258 180.5 153.71 185.63 147.035 189.431C146.44 189.774 145.846 190.095 145.251 190.393C145.32 187.37 142.76 186.729 143.331 184.622C143.331 184.622 138.668 181.554 139.216 174.799C132.472 184.508 119.076 182.424 119.076 182.424C119.076 182.424 118.985 185.95 118.413 189.339C116.881 187.782 114.412 184.92 114.412 184.92C114.412 184.92 110.115 179.676 112.721 177.249C112.721 177.249 108.56 171.959 112.332 167.815V167.838Z" fill="#7B2838"/>
<path d="M84.1284 234.242C84.1284 234.242 82.8711 233.005 83.8313 227.99C83.8313 227.99 85.6373 226.25 86.9175 226.548C88.1977 226.845 88.6091 227.555 88.632 228.173C88.6549 228.792 85.0429 233.852 84.1284 234.242Z" fill="#493D43"/>
<path d="M78.999 222.911L77.9931 219.82C77.9931 219.82 78.7703 218.698 78.8389 218.561C78.9075 218.4 78.4274 216.729 78.4274 216.729C78.4274 216.729 85.8572 218.606 87.9832 220.507C88.7833 223.667 86.863 227.056 86.863 227.056C85.9257 227.147 83.754 228.04 82.6567 228.132C81.5593 228.224 78.2217 228.842 76.37 227.445C74.5182 226.048 74.5411 224.697 75.707 224.445C76.8729 224.194 78.999 224.056 78.999 224.056V222.888V222.911Z" fill="#F2BB97"/>
<path d="M87.9863 220.5C87.9863 220.5 88.0548 227.095 84.1228 234.217C84.1228 234.217 101.497 237.285 111.396 238.842C117.842 239.85 120.311 234.606 120.311 234.606L124.541 201.815C124.541 201.815 122.872 201.632 109.841 224.118C109.841 224.118 90.2952 220.34 87.9863 220.478V220.5Z" fill="#EF6270"/>
<path d="M72.6721 251.277C71.8948 251.208 71.1176 251.208 70.3403 251.277C69.7688 251.323 69.2201 251.346 68.6943 251.369C55.3665 251.85 53.2176 243.721 56.5096 235.065C59.3672 227.6 64.0765 222.814 64.0765 222.814V219.311C61.0588 216.54 61.2875 213.632 62.9106 213.38C64.5565 213.128 65.6767 215.098 65.6767 215.098C65.6767 215.098 66.3854 213.38 68.3743 213.38C68.4886 213.38 68.6258 213.38 68.7401 213.38C70.4775 213.518 71.5062 214.548 71.5062 214.548C71.5062 214.548 72.6721 213.357 74.6381 213.357C76.6041 213.357 77.3357 215.075 77.3357 215.075C77.3357 215.075 78.4559 213.105 80.1018 213.357C81.7478 213.609 81.9535 216.517 78.9359 219.288V222.791C78.9359 222.791 83.6452 227.577 86.5028 235.042C89.9319 244.041 87.463 252.468 72.695 251.254L72.6721 251.277Z" fill="#D7AD25"/>
<path d="M80.1205 221.046C80.1205 222.031 79.3432 222.809 78.3602 222.809H64.6438C64.1637 222.809 63.7294 222.626 63.4093 222.305C63.0893 221.985 62.8835 221.55 62.8835 221.069C62.8835 220.107 63.6608 219.306 64.6438 219.306H78.3602C78.8403 219.306 79.2747 219.489 79.5947 219.832C79.9148 220.153 80.1205 220.588 80.1205 221.069V221.046Z" fill="#D6BE82"/>
<path d="M68.761 222.928C68.761 222.928 56.9421 240.651 68.7153 251.39C55.3875 251.871 53.2386 243.742 56.5306 235.087C59.3882 227.622 64.0975 222.836 64.0975 222.836V219.333C61.0798 216.562 61.3084 213.654 62.9315 213.402C64.5775 213.15 65.6977 215.119 65.6977 215.119C65.6977 215.119 66.4064 213.402 68.3953 213.402C68.5096 213.402 68.6467 213.402 68.761 213.402V222.928Z" fill="#C6991A"/>
<path d="M68.7635 219.306V222.809H64.6714C64.1913 222.809 63.757 222.626 63.4369 222.305C63.1169 221.985 62.9111 221.55 62.9111 221.069C62.9111 220.107 63.6884 219.306 64.6714 219.306H68.7635Z" fill="#C49A52"/>
<path d="M83.1139 228.127C82.0165 228.218 78.2217 228.859 76.37 227.463C74.5182 226.066 74.5411 224.715 75.707 224.463C76.8729 224.211 78.999 224.074 78.999 224.074C78.999 224.074 80.6449 223.89 81.7651 225.264C82.8853 226.638 83.091 228.127 83.091 228.127H83.1139Z" fill="#F2BB97"/>
<path d="M116.629 263.301C116.629 263.301 101.427 273.125 96.3062 277.132C91.1854 281.139 87.0704 288.055 89.5165 295.977C91.9626 303.9 104.879 305.572 110.891 302.893C116.904 300.214 139.284 261.721 139.284 261.721L133.272 260.164C133.272 260.164 118.573 261.286 116.629 263.278V263.301Z" fill="#36344C"/>
<path d="M161.21 263.299C161.21 263.299 164.822 279.03 152.112 284.389C152.112 284.389 155.678 289.747 154.123 296.319C154.123 296.319 136.749 303.784 129.617 306.348C122.484 308.913 110.345 307.905 106.459 296.204C104.447 288.167 107.465 282.373 116.7 277.015C125.936 271.657 138.19 261.948 138.19 261.948C138.19 261.948 158.947 260.712 161.21 263.276V263.299Z" fill="#49465F"/>
<path d="M130.9 294.236C130.694 294.236 130.534 294.099 130.466 293.893C130.42 293.664 130.557 293.412 130.786 293.366C140.067 291.076 151.155 284.459 151.269 284.39C151.475 284.276 151.749 284.344 151.863 284.55C151.978 284.756 151.909 285.031 151.703 285.146C151.589 285.214 140.41 291.901 130.992 294.236C130.969 294.236 130.923 294.236 130.877 294.236H130.9Z" fill="#36344C"/>
<path d="M154.285 295.542C155.405 289.314 152.113 284.368 152.113 284.368C154.011 283.566 155.519 282.513 156.754 281.322C157.348 282.376 161.418 289.657 163.018 294.58C164.755 299.87 157.828 303.122 155.451 303.282C153.005 303.442 150.033 301.473 150.056 298.061C151.542 297.443 152.708 296.939 153.416 296.641C153.874 296.458 154.194 296.046 154.285 295.565V295.542Z" fill="#F2BB97"/>
<path d="M116.628 263.3C126.001 266.208 143.375 282.489 162.875 280.039C162.875 275.574 160.566 250.706 160.566 246.401C160.566 242.096 160.314 233.12 160.314 233.12C160.314 233.12 158.006 214 155.102 205.001C152.039 202.024 147.215 200.055 144.883 199.23C144.038 198.933 143.535 198.772 143.535 198.772C143.535 198.772 137.934 196.895 129.064 199.551C128.081 199.826 127.075 200.169 126.023 200.581C120.834 202.596 120.903 209.58 120.354 215.397C119.805 221.19 118.456 242.142 117.794 248.691C117.131 255.263 116.628 263.3 116.628 263.3Z" fill="#F8989A"/>
<path d="M135.742 204.499C139.446 204.522 142.852 203.194 144.886 199.21C144.041 198.912 143.538 198.752 143.538 198.752C143.538 198.752 137.937 196.874 129.067 199.53C128.953 200.446 129.593 204.431 135.719 204.499H135.742Z" fill="#EF6270"/>
<path d="M150.584 299.803H150.561C150.401 299.803 150.264 299.666 150.287 299.506C150.287 299.368 150.401 298.246 153.259 296.941C153.419 296.872 153.601 296.941 153.67 297.101C153.739 297.261 153.67 297.445 153.51 297.513C151.041 298.635 150.904 299.551 150.904 299.574C150.904 299.734 150.744 299.849 150.607 299.849L150.584 299.803Z" fill="#D69572"/>
<path d="M140.039 191.359C137.319 196.259 133.798 198.709 130.323 199.488C130.986 200.862 132.472 202.442 135.719 202.304C139.308 202.167 140.725 200.541 141.388 199.762C141.662 199.442 141.777 199.03 141.708 198.618L140.588 191.267C140.245 191.336 140.016 191.359 140.016 191.359H140.039Z" fill="#F2BB97"/>
<path d="M134.185 257.304C134.185 257.304 126.206 256.549 124.4 256.343C122.594 256.136 121.977 257.213 122 258.083C122 258.953 123.074 259.961 125.2 260.075C127.326 260.167 129.155 260.579 129.155 260.579C129.155 260.579 122.617 263.762 119.531 264.334C117.336 264.746 117.039 265.823 117.222 266.601C117.405 267.38 118.776 267.998 120.171 267.517C120.171 267.517 120.377 269.944 123.029 269.486C123.029 269.486 123.211 271.845 126.275 271.204C126.275 271.204 126.572 272.967 128.332 272.967C130.093 272.967 135.876 270.7 138.825 268.273C141.774 265.845 134.185 257.304 134.185 257.304Z" fill="#F2BB97"/>
<path d="M120.153 267.813C120.016 267.813 119.902 267.721 119.856 267.584C119.81 267.423 119.924 267.263 120.084 267.217C120.107 267.217 123.102 266.462 124.84 265.683C125 265.614 125.182 265.683 125.251 265.843C125.32 266.004 125.251 266.187 125.091 266.255C123.308 267.08 120.359 267.813 120.222 267.835C120.199 267.835 120.176 267.835 120.153 267.835V267.813Z" fill="#D69572"/>
<path d="M123.009 269.758C122.872 269.758 122.757 269.667 122.712 269.529C122.666 269.369 122.757 269.209 122.94 269.163C122.963 269.163 125.706 268.43 127.078 267.789C127.238 267.72 127.421 267.789 127.49 267.926C127.558 268.087 127.489 268.27 127.352 268.339C125.935 269.025 123.215 269.735 123.1 269.758C123.077 269.758 123.055 269.758 123.032 269.758H123.009Z" fill="#D69572"/>
<path d="M126.254 271.48C126.117 271.48 126.003 271.389 125.957 271.251C125.911 271.091 126.026 270.931 126.186 270.885C126.186 270.885 127.855 270.473 129.135 269.809C129.295 269.74 129.478 269.809 129.546 269.946C129.615 270.107 129.546 270.29 129.409 270.358C128.06 271.045 126.392 271.458 126.323 271.48C126.3 271.48 126.277 271.48 126.254 271.48Z" fill="#D69572"/>
<path d="M146.556 208.784L149.528 240.017L133.297 257.099C133.297 257.099 134.76 263.122 139.538 268.617C139.538 268.617 155.998 255.725 160.936 248.879C163.725 245.146 164.525 241.918 163.496 234.636C162.467 227.331 161.553 217.577 160.867 212.814C160.204 208.051 156.524 203.586 152.34 203.196C148.157 202.807 146.351 205.669 146.579 208.784H146.556Z" fill="#EF6270"/>
<path d="M133.525 221.463C133.044 221.463 132.679 221.073 132.679 220.615V203.808H134.393V220.615C134.393 221.096 134.005 221.463 133.547 221.463H133.525Z" fill="#EF6270"/>
<path d="M118.123 178.119C118.123 178.119 119.448 182.905 118.054 187.851C116.659 192.797 121.003 201.75 131.245 200.147C139.383 198.888 145.007 194.491 145.83 190.667C145.83 190.667 148.893 189.637 148.619 186.408C148.344 183.157 145.944 183.615 145.144 184.805C145.144 184.805 144.824 186.042 144.572 187.599C143.818 185.836 143.635 184.805 143.338 183.729C141.943 182.447 140.343 179.722 139.68 173.677C139.68 173.677 128.113 182.218 118.123 178.142V178.119Z" fill="#F2BB97"/>
<path d="M127.922 194.444C125.773 194.307 124.287 193.666 124.173 193.62C124.013 193.551 123.944 193.368 124.013 193.208C124.082 193.047 124.265 192.979 124.425 193.047C124.47 193.047 129.385 195.177 134.14 192.338C134.277 192.246 134.483 192.292 134.552 192.452C134.643 192.589 134.598 192.795 134.438 192.864C132.106 194.261 129.774 194.536 127.922 194.421V194.444Z" fill="#7B2838"/>
<path d="M30.815 239.576L33.6726 255.902L46.8861 275.206L38.862 278.526L25.8542 271.565L26.2886 239.69L30.815 239.576Z" fill="#246170"/>
<path d="M30.3848 272.939C30.3848 272.939 27.9159 244.476 27.2529 239.507C26.59 234.538 13.3765 221.646 13.3765 221.646C13.3765 221.646 0.825922 222.333 -7.42679 234.721C-17.9427 250.498 -23.9551 289.22 -7.5868 305.317L30.4077 272.939H30.3848Z" fill="#2E6E79"/>
<path d="M-6.08121 244.434C-6.08121 244.434 -7.52144 263.073 1.4171 279.079C1.4171 279.079 -12.9166 292.521 -7.61287 305.321C-7.61287 305.321 -11.4535 290.986 10.5614 280.293C2.30867 268.157 -6.05836 244.434 -6.05836 244.434H-6.08121Z" fill="#1E6168"/>
<path d="M41.1018 274.611C41.1018 274.611 55.2297 274.199 60.3505 274.199C65.4713 274.199 70.6835 278.824 70.8436 284.457C71.0036 290.09 67.0487 294.807 62.3394 296.364C57.6301 297.944 51.5949 293.96 51.5949 293.96L41.1018 274.611Z" fill="#2F293C"/>
<path d="M48.8982 281.454C48.8982 281.454 49.3097 279.805 51.1843 278.156C51.1843 278.156 49.6526 280.492 49.6526 282.942L48.8982 281.454Z" fill="#1F1B2B"/>
<path d="M72.7417 294.485H65.1519C62.5458 294.485 58.8195 293.34 58.2937 293.179C58.3394 294.164 58.1337 295.172 57.7222 296.248C56.7392 298.789 52.5557 305.316 52.5557 305.316H73.8847C76.948 305.316 79.577 302.888 79.6227 299.82C79.6227 299.774 79.6227 299.728 79.6227 299.683C79.6227 295.217 74.9134 294.462 72.7645 294.462L72.7417 294.485Z" fill="#BC7340"/>
<path d="M20.8698 239.763V254.487C20.8698 255.403 21.6013 256.135 22.5157 256.135C23.4302 256.135 24.1617 255.403 24.1617 254.487V240.885C23.0187 240.656 21.8985 240.29 20.8469 239.74L20.8698 239.763Z" fill="#368189"/>
<path d="M58.1354 296.044C57.1295 298.586 52.9689 305.318 52.9689 305.318H-7.612C-7.612 305.318 -11.2469 298.266 -1.98829 288.671C7.2703 279.077 21.8097 275.321 28.4165 272.894C35.0232 270.467 38.9781 270.902 44.7162 276.97C50.4313 283.038 54.4091 286.45 56.718 288.877C59.027 291.304 59.1412 293.526 58.1582 296.044H58.1354Z" fill="#49465F"/>
<path d="M37.9688 211.984C37.6259 214.571 37.2373 217.846 37.4659 220.891C37.4888 221.235 37.5345 221.555 37.5802 221.899C38.0146 225.219 38.7918 238.455 29.8076 240.699C20.8233 242.966 11.8619 235.959 12.6163 221.052C12.6163 221.052 3.65494 218.189 7.38124 208.16V204.794C7.38124 204.794 11.3361 202.458 17.4628 200.993C22.9265 199.665 30.1505 199.023 37.7859 201.359C37.7859 201.359 38.3346 209.122 37.946 211.984H37.9688Z" fill="#DDDDDD"/>
<path d="M37.9708 211.984C37.6279 214.571 37.2392 217.846 37.4678 220.891C36.4391 221.647 33.833 223.09 29.1923 223.09C22.9513 223.09 17.579 220.044 17.4647 216.724C17.3504 213.77 17.4419 203.305 17.4647 200.993C22.9284 199.665 30.1524 199.023 37.7879 201.359C37.7879 201.359 38.3366 209.122 37.9479 211.984H37.9708Z" fill="#F2BB97"/>
<path d="M12.664 221.055V221.1C12.664 221.1 3.70255 218.238 7.42884 208.208C8.18325 207.064 9.76064 206.903 10.7208 207.476C11.6809 208.048 12.7554 209.17 13.2812 213.04C13.7841 216.658 12.8011 220.528 12.664 221.032V221.055Z" fill="#F2BB97"/>
<path d="M17.4889 201.015C22.9526 199.686 30.1766 199.045 37.812 201.381C37.812 201.381 37.3091 185.421 20.6893 187.39C3.54382 189.428 7.43013 204.816 7.43013 204.816C7.43013 204.816 11.385 202.48 17.5117 201.015H17.4889Z" fill="#2E6E79"/>
<path d="M8.25308 235.157C7.27007 231.631 3.77238 229.387 0.183251 230.097C-0.548291 230.234 -1.30268 230.486 -2.12567 230.852C-8.06945 233.509 -6.5378 242.095 -5.64624 246.4C-4.75467 250.705 0.091823 276.855 9.55615 280.496C14.174 282.03 21.0094 280.611 26.1759 278.733C31.3424 276.855 51.5055 270.123 51.5055 270.123C51.5055 270.123 46.8877 263.62 46.2247 252.468C46.2247 252.468 22.9982 262.887 16.4372 264.765C16.4372 264.765 10.1505 242.805 9.28184 239.119C8.93893 237.676 8.57313 236.302 8.25308 235.157Z" fill="#2E6E79"/>
<path d="M77.4475 246.903C76.2359 246.628 75.1843 247.841 71.2751 249.101C67.366 250.36 62.3595 250.269 59.8676 249.49C64.0511 248.391 68.3032 246.078 69.332 244.681C70.3836 243.308 68.8976 241.934 67.6174 242.483C66.3601 243.033 61.6051 245.231 58.7018 245.62C55.7756 246.01 54.1753 248.872 52.9637 249.582C51.9579 250.177 47.6143 252.329 46.2427 253.016C46.5399 256.978 47.2942 260.321 48.1858 262.977C50.0604 261.214 55.1355 256.657 56.6214 256.909C62.2452 257.298 70.7265 255.192 74.0184 253.154C77.3332 251.116 78.6363 247.132 77.4247 246.857L77.4475 246.903Z" fill="#F2BB97"/>
<path d="M48.2351 262.997C49.7439 267.577 51.5271 270.141 51.5271 270.141C51.5271 270.141 52.7615 264.921 51.8928 259.791C50.4526 260.982 49.0581 262.241 48.2351 262.997Z" fill="#246170"/>
<path d="M48.03 262.351C48.03 262.42 48.0764 262.466 48.0996 262.535C48.0996 262.466 48.0532 262.397 48.03 262.328V262.351Z" fill="#246170"/>
<path d="M8.2478 235.156C10.2595 244.865 13.0943 254.849 15.6775 264.42C13.8944 265.176 11.8141 266.573 11.2197 268.565C12.4542 267.031 14.1916 266.184 15.9976 265.588L16.6148 265.405C26.6735 261.97 36.7094 257.185 46.2194 252.49C39.5441 255.101 30.4456 258.81 23.7702 261.467C23.2444 261.673 22.6958 261.879 22.17 262.085C20.3869 262.634 18.6037 263.276 16.8663 263.962C14.1916 254.46 11.1968 244.59 8.2478 235.179V235.156Z" fill="#1B5B66"/>
<path d="M27.8399 277.658C11.5402 282.994 6.2822 282.467 -0.00449496 265.568C-2.10768 259.752 -3.66219 253.729 -4.98811 247.684C-6.13115 242.189 -8.18861 234.151 -2.13052 230.877C-8.4858 233.808 -6.83984 242.28 -5.78825 247.867C-4.64522 254.004 -3.22783 260.095 -1.12465 265.98C1.13856 271.613 3.44747 278.689 9.64272 281.208C15.8837 282.833 22.3762 280.75 28.1599 278.62C34.9953 276.17 44.8253 272.735 51.5007 270.171C44.6425 272.277 34.7438 275.391 27.817 277.681L27.8399 277.658Z" fill="#1B5B66"/>
<path d="M45.3333 305.318H35.2061C36.1433 302.983 38.9552 296.548 40.5326 299.846C41.7671 302.433 43.9617 304.334 45.3333 305.318Z" fill="#2F293C"/>
<path d="M41.4286 302.363C40.0113 304.24 37.7709 305.316 35.4163 305.316H14.293C14.293 305.316 21.4941 299.248 24.6032 296.752C30.6384 291.875 39.1426 289.31 42.526 293.844C44.6977 296.775 43.1889 300.073 41.4286 302.363Z" fill="#CB7A45"/>
<path d="M36.974 304.862L35.8539 305.342H34.345L36.7683 304.312C37.5684 303.968 38.2999 303.488 38.9172 302.846C40.7003 300.992 43.2607 297.557 41.2261 294.832C40.3803 293.687 39.0086 293.115 37.134 293.115C33.7507 293.115 29.3386 294.992 25.6123 298.038C24.012 299.343 19.4856 303.075 16.7652 305.342H15.7593C18.3654 303.167 23.4862 298.908 25.2008 297.534C29.0414 294.42 33.6135 292.473 37.134 292.473C39.2144 292.473 40.746 293.138 41.7519 294.466C43.9465 297.442 41.5233 300.992 39.6487 303.03C38.9172 303.831 37.9799 304.472 36.974 304.884V304.862Z" fill="#BC6535"/>
<path d="M25.4458 305.316H16.3701L19.342 302.843C19.342 302.843 23.3198 301.859 25.4458 305.316Z" fill="#BC6535"/>
<path d="M150.834 308.133H-21.2153C-21.6726 308.133 -22.0383 306.461 -22.0383 306.003C-22.0383 305.546 -21.6726 305.179 -21.2153 305.179H150.834C151.292 305.179 151.657 305.546 151.657 306.003L151.269 307.309C151.269 307.767 151.269 308.133 150.834 308.133Z" fill="#D8D55B"/>
</g>
</svg>
