<svg width="310" height="367" viewBox="0 0 310 367" fill="none" xmlns="http://www.w3.org/2000/svg">
<g filter="url(#filter0_d_2953_13263)">
<path d="M2.00085 76C2.00085 64.9543 10.9552 56 22.0009 56H288.001C299.047 56 308.001 64.9543 308.001 76V363H2.00085V76Z" fill="#FEB7D3"/>
<path d="M60.5321 269.125H54.0634V249.906H60.4384C66.8759 250.031 70.1571 253.219 70.2821 259.469C70.4071 266.031 67.1571 269.25 60.5321 269.125ZM60.3446 252.344H56.9696V266.875H60.3446C64.9071 266.875 67.1884 264.406 67.1884 259.469C67.0634 254.844 64.7821 252.469 60.3446 252.344ZM89.9696 269.125H86.9696V260.594H76.7509V269.125H73.8446V249.906H76.7509V258.062H86.9696V249.906H89.9696V269.125ZM94.0946 261.062V249.906H97.0946V261.062C97.0946 265.125 98.8134 267.125 102.251 267.062C105.688 267.062 107.407 265.031 107.407 260.969V249.906H110.407V260.969C110.407 266.594 107.657 269.406 102.157 269.406C96.7821 269.406 94.0946 266.625 94.0946 261.062ZM130.188 249.906L137.876 269.125H134.688L132.72 263.969H124.188L122.22 269.125H119.032L126.72 249.906H130.188ZM128.501 252.438H128.407C128.22 253 128.032 253.562 127.845 254.125C127.782 254.25 126.813 256.75 124.938 261.625H131.97C130.095 256.75 129.126 254.25 129.063 254.125C129.063 254.062 129.032 253.938 128.97 253.75C128.657 253 128.501 252.562 128.501 252.438ZM153.063 269.125H139.938V249.906H142.845V266.875H153.063V269.125ZM168.72 260.688H155.595V258.625H168.72V260.688ZM188.595 269.125H185.595V260.594H175.376V269.125H172.47V249.906H175.376V258.062H185.595V249.906H188.595V269.125ZM192.907 269.125V249.906H195.813V269.125H192.907ZM208.563 249.906H211.47V262.562C211.532 267.188 209.501 269.469 205.376 269.406C201.501 269.469 199.345 267.469 198.907 263.406L201.72 262.656C201.845 265.656 203.032 267.125 205.282 267.062C207.532 267.125 208.626 265.594 208.563 262.469V249.906ZM223.938 249.906H226.845V262.562C226.907 267.188 224.876 269.469 220.751 269.406C216.876 269.469 214.72 267.469 214.282 263.406L217.095 262.656C217.22 265.656 218.407 267.125 220.657 267.062C222.907 267.125 224.001 265.594 223.938 262.469V249.906ZM239.97 249.906L247.657 269.125H244.47L242.501 263.969H233.97L232.001 269.125H228.813L236.501 249.906H239.97ZM238.282 252.438H238.188C238.001 253 237.813 253.562 237.626 254.125C237.563 254.25 236.595 256.75 234.72 261.625H241.751C239.876 256.75 238.907 254.25 238.845 254.125C238.845 254.062 238.813 253.938 238.751 253.75C238.438 253 238.282 252.562 238.282 252.438ZM265.938 269.125H262.938V260.594H252.72V269.125H249.813V249.906H252.72V258.062H262.938V249.906H265.938V269.125Z" fill="#242424"/>
<path d="M95.1266 198.854C87.6991 195.417 80.8969 193.727 73.3932 194.831C69.7328 195.363 68.6652 194.027 70.0531 190.972C71.746 187.236 76.4283 184.781 81.7053 185.709C86.0062 186.472 90.2614 187.863 94.2573 189.527C100.129 191.968 106.031 193.549 112.59 193.167C114.298 193.072 116.708 193.672 117.668 194.749C118.828 196.058 115.731 201.24 113.871 201.881C113.184 202.113 112.422 202.167 111.583 202.331C116.418 206.626 136.672 204.458 146.082 198.554C139.585 195.513 133.118 193.917 125.95 194.695C124.516 194.845 122.976 194.217 121.497 193.945C121.893 192.472 121.893 190.768 122.762 189.554C125.386 185.859 131.166 184.55 136.824 186.227C139.707 187.086 142.559 188.109 145.289 189.295C151.557 192.022 158.009 193.604 165.101 193.14C169.935 192.813 170.301 193.481 168.868 197.463C167.882 200.163 165.797 201.881 162.615 202.617C167.404 205.481 172.299 204.84 177.073 204.035C177.958 203.885 179.101 202.222 179.117 201.24C179.254 190.672 179.452 180.104 178.995 169.564C178.857 166.441 177.104 163.359 180.032 160.673C181.084 159.705 182.579 158.723 183.951 158.641C184.638 158.6 185.538 160.509 186.254 161.573C187.215 163.005 187.947 164.587 189.061 165.909C190.662 167.818 191.043 169.605 189.061 171.377C186.697 173.477 186.331 176.027 186.376 178.863C186.514 186.472 186.468 194.081 186.376 201.69C186.3 209.122 180.916 214.003 172.62 214.358C163.499 214.74 159.763 212.449 154.989 203.054C150.139 205.153 145.289 207.24 140.439 209.34C133.759 212.231 126.957 214.603 119.331 214.371C113.047 214.181 105.726 212.108 104.354 205.126C104.247 204.608 101.853 203.817 100.968 204.144C96.6365 205.767 92.5492 207.867 88.233 209.503C84.0388 211.085 79.7837 212.735 75.376 213.608C64.3796 215.789 59.1636 213.744 53.0325 205.481C52.6207 205.644 52.1631 205.767 51.7665 205.985C45.9862 209.176 41.0295 208.808 37.0184 204.867C33.2055 201.117 32.8547 194.749 36.8353 190.781C39.5959 188.04 43.2105 185.995 46.2913 183.5C48.4723 181.727 50.4397 179.736 52.4529 177.813C53.3985 176.913 54.0848 175.632 55.2134 175.114C56.0217 174.745 58.34 175.304 58.3705 175.564C58.7213 179.191 63.0375 181.672 60.399 186.554C58.3248 190.399 59.6059 195.936 60.3075 200.626C60.521 202.099 63.5255 204.131 65.4777 204.363C75.7267 205.563 85.2132 202.863 95.1571 198.881L95.1266 198.854ZM39.9619 195.663C44.1103 198.758 49.2958 199.372 51.4005 196.836C52.6206 195.363 51.8733 192.581 51.9954 190.386C51.5531 190.181 51.1108 189.977 50.6685 189.772C47.2064 191.681 43.729 193.59 39.9619 195.663Z" fill="#95033D"/>
<path d="M231.257 210.884C228.664 211.266 226.331 212.016 224.043 211.88C218.308 211.539 214.404 207.598 213.763 202.089C213.153 196.73 217.485 190.076 222.975 187.948C227.673 186.121 232.523 186.858 234.978 190.826C237.174 194.371 238.974 198.516 239.325 202.512C239.935 209.493 237.891 216.188 233.361 222.147C229.045 227.82 222.609 230.233 215.182 228.393C211.918 227.588 208.715 226.306 205.787 224.793C204.673 224.206 204.399 222.338 203.743 221.043C205.116 220.647 206.595 219.734 207.83 219.952C215.09 221.261 226.986 218.466 230.418 212.507C230.692 212.029 230.921 211.525 231.241 210.898L231.257 210.884ZM230.692 200.684C229.823 195.885 223.326 195.666 221.084 198.284C219.894 199.675 219.772 200.603 221.694 201.448C224.927 202.866 227.917 202.743 230.692 200.698V200.684Z" fill="#95033D"/>
<path d="M258.744 214.86C248.006 214.928 241.906 208.547 244.91 200.161C245.337 198.988 247.137 198.224 248.311 197.27C249.196 198.306 250.706 199.274 250.859 200.392C251.27 203.351 252.994 204.647 256.105 204.674C259.277 204.701 262.465 204.797 265.607 204.51C269.008 204.21 270.396 202.465 269.404 199.561C268.687 197.447 267.452 195.374 265.942 193.615C264.02 191.379 261.611 189.484 259.399 187.465C256.334 184.656 256.273 180.525 259.567 177.92C260.253 177.375 262.404 177.334 263.044 177.866C270.03 183.552 276.237 190.179 276.481 198.824C276.74 208.001 272.714 214.451 258.744 214.846V214.86Z" fill="#95033D"/>
<path d="M196.126 187.33C196.126 179.967 196.187 172.604 196.096 165.24C196.05 162.268 197.651 160.29 200.305 158.872C202.211 157.85 203.477 158.422 203.737 160.427C203.874 161.436 203.813 162.458 203.813 163.481C203.813 174.704 204.057 185.926 203.706 197.135C203.569 201.812 202.349 206.489 201.251 211.098C200.991 212.216 199.283 213.048 198.231 214.016C197.529 212.83 196.248 211.657 196.218 210.457C196.035 202.753 196.126 195.048 196.126 187.344V187.33Z" fill="#95033D"/>
<path d="M259.798 154.51C256.001 150.637 255.559 147.01 258.761 144.556C260.164 143.479 262.895 142.647 264.389 143.151C265.945 143.683 267.638 145.96 267.668 147.515C267.744 150.324 270.902 153.487 266.494 156.105C263.398 157.946 261.202 161.151 256.779 160.455C255.665 160.278 254.659 159.61 253.606 159.173C254.323 158.369 254.918 157.428 255.787 156.801C256.916 155.969 258.273 155.369 259.783 154.524L259.798 154.51Z" fill="#95033D"/>
<path d="M91.7739 175.51C93.6194 172.742 95.175 168.747 98.4845 173.151C100.132 172.183 101.535 171.351 102.938 170.52C103.273 172.169 103.609 173.819 103.945 175.469C103.96 175.578 103.945 175.701 103.899 175.81C102.053 181.728 95.8613 179.928 91.5299 181.142C88.6321 181.96 86.4816 180.092 85.8105 177.365C85.597 176.506 85.4293 175.483 85.7496 174.706C86.2071 173.629 87.1375 172.715 87.8543 171.72C88.6931 172.538 89.5472 173.356 90.386 174.174C90.63 174.419 90.8893 174.651 91.7739 175.497V175.51Z" fill="#95033D"/>
<path d="M52.8535 174.752C51.5724 174.166 50.947 173.675 50.2455 173.579C49.0711 173.429 47.546 173.102 46.7224 173.579C43.9161 175.257 42.2232 173.907 40.5303 172.216C39.0966 170.798 38.5781 169.284 40.3473 167.73C42.1164 166.175 43.5501 164.007 46.6767 166.121C47.3935 166.611 49.0559 165.848 50.276 165.916C51.8317 165.998 53.7991 165.875 54.7905 166.652C55.9954 167.607 57.2917 169.666 56.8799 170.784C56.3156 172.352 54.2414 173.484 52.8688 174.739L52.8535 174.752Z" fill="#95033D"/>
<path d="M141.828 222.745C141.553 221.586 140.791 220.29 141.202 219.799C142.621 218.149 144.222 216.431 146.19 215.409C149.118 213.895 152.397 212.927 155.585 211.822C156.301 211.577 157.186 211.741 157.994 211.7C157.994 212.436 158.345 213.418 157.933 213.881C156.515 215.518 155.142 217.44 153.205 218.422C149.942 220.086 146.266 221.108 141.828 222.745Z" fill="#95033D"/>
<path d="M103.35 158.914C104.341 162.855 102.328 164.873 99.6593 166.196C96.4412 167.764 92.9486 168.909 89.5322 170.109C88.8154 170.355 87.3818 170.327 87.153 169.986C86.7412 169.346 86.6954 168.255 87.0157 167.546C87.4275 166.646 88.1596 165.609 89.09 165.173C93.6349 163.059 98.2866 161.123 103.365 158.928L103.35 158.914Z" fill="#95033D"/>
<path d="M268.112 168.554C265.077 170.641 263.018 173.163 261.188 173.027C259.235 172.877 255.895 170.068 256.078 168.718C256.322 166.795 259.037 163.959 261.035 163.714C262.804 163.509 265.031 166.305 268.112 168.554Z" fill="#95033D"/>
<path d="M104.826 216.754C101.79 218.636 99.5789 221.063 97.52 220.968C95.7203 220.872 92.5633 217.763 92.7768 216.318C93.0513 214.463 96.1016 211.627 97.9623 211.613C99.945 211.613 101.928 214.422 104.826 216.74V216.754Z" fill="#95033D"/>
<g filter="url(#filter1_d_2953_13263)">
<circle cx="64" cy="64" r="64" transform="matrix(-1 0 0 1 219.001 0)" fill="url(#paint0_radial_2953_13263)"/>
<g filter="url(#filter2_d_2953_13263)">
<path d="M192.923 44.7022V97.1518C192.923 100.714 190.032 103.602 186.466 103.602H122.763C119.197 103.602 116.306 100.714 116.306 97.1518V44.7022L118.364 42.6057H190.583L192.923 44.7022Z" fill="white"/>
<path d="M192.923 33.4646V44.8409H116.306V33.4646C116.306 29.8879 119.173 26.9883 122.71 26.9883H186.518C190.055 26.9883 192.922 29.8879 192.922 33.4641L192.923 33.4646Z" fill="url(#paint1_linear_2953_13263)"/>
<path d="M129.127 36.3625C130.431 36.3625 131.488 35.3055 131.488 34.0016C131.488 32.6977 130.431 31.6406 129.127 31.6406C127.824 31.6406 126.766 32.6977 126.766 34.0016C126.766 35.3055 127.824 36.3625 129.127 36.3625Z" fill="url(#paint2_radial_2953_13263)"/>
<path d="M129.13 23.8164H129.13C128.342 23.8164 127.704 24.4548 127.704 25.2422V33.1849C127.704 33.9723 128.342 34.6107 129.13 34.6107H129.13C129.918 34.6107 130.556 33.9723 130.556 33.1849V25.2422C130.556 24.4548 129.918 23.8164 129.13 23.8164Z" fill="url(#paint3_linear_2953_13263)"/>
<path d="M146.096 36.3625C147.4 36.3625 148.457 35.3055 148.457 34.0016C148.457 32.6977 147.4 31.6406 146.096 31.6406C144.792 31.6406 143.735 32.6977 143.735 34.0016C143.735 35.3055 144.792 36.3625 146.096 36.3625Z" fill="url(#paint4_radial_2953_13263)"/>
<path d="M146.099 23.8164H146.099C145.311 23.8164 144.673 24.4548 144.673 25.2422V33.1849C144.673 33.9723 145.311 34.6107 146.099 34.6107H146.099C146.887 34.6107 147.525 33.9723 147.525 33.1849V25.2422C147.525 24.4548 146.887 23.8164 146.099 23.8164Z" fill="url(#paint5_linear_2953_13263)"/>
<path d="M163.061 36.3625C164.365 36.3625 165.422 35.3055 165.422 34.0016C165.422 32.6977 164.365 31.6406 163.061 31.6406C161.757 31.6406 160.7 32.6977 160.7 34.0016C160.7 35.3055 161.757 36.3625 163.061 36.3625Z" fill="url(#paint6_radial_2953_13263)"/>
<path d="M163.064 23.8164H163.063C162.276 23.8164 161.638 24.4548 161.638 25.2422V33.1849C161.638 33.9723 162.276 34.6107 163.063 34.6107H163.064C163.851 34.6107 164.49 33.9723 164.49 33.1849V25.2422C164.49 24.4548 163.851 23.8164 163.064 23.8164Z" fill="url(#paint7_linear_2953_13263)"/>
<path d="M180.038 36.3625C181.342 36.3625 182.399 35.3055 182.399 34.0016C182.399 32.6977 181.342 31.6406 180.038 31.6406C178.734 31.6406 177.677 32.6977 177.677 34.0016C177.677 35.3055 178.734 36.3625 180.038 36.3625Z" fill="url(#paint8_radial_2953_13263)"/>
<path d="M180.04 23.8164H180.04C179.253 23.8164 178.614 24.4548 178.614 25.2422V33.1849C178.614 33.9723 179.253 34.6107 180.04 34.6107H180.04C180.828 34.6107 181.466 33.9723 181.466 33.1849V25.2422C181.466 24.4548 180.828 23.8164 180.04 23.8164Z" fill="url(#paint9_linear_2953_13263)"/>
</g>
<path d="M143.489 61.008C143.657 60.96 143.813 60.924 143.957 60.9C144.101 60.852 144.245 60.816 144.389 60.792C144.557 60.744 144.761 60.72 145.001 60.72C145.265 60.696 145.505 60.708 145.721 60.756C145.961 60.78 146.177 60.852 146.369 60.972C146.585 61.068 146.741 61.224 146.837 61.44C146.933 61.68 146.993 61.968 147.017 62.304C147.065 62.616 147.089 62.94 147.089 63.276C147.089 63.612 147.077 63.948 147.053 64.284C147.053 64.596 147.053 64.884 147.053 65.148V83.544C147.053 83.808 147.053 84.084 147.053 84.372C147.077 84.636 147.077 84.912 147.053 85.2C147.029 85.488 146.957 85.764 146.837 86.028C146.717 86.268 146.537 86.472 146.297 86.64C145.961 86.904 145.505 87.036 144.929 87.036C144.377 87.06 143.897 87 143.489 86.856C143.057 86.712 142.793 86.436 142.697 86.028C142.625 85.62 142.589 85.212 142.589 84.804C142.421 81.636 142.337 78.54 142.337 75.516C142.361 72.468 142.373 69.336 142.373 66.12C142.325 66.24 142.157 66.348 141.869 66.444C141.605 66.54 141.293 66.624 140.933 66.696C140.597 66.768 140.273 66.828 139.961 66.876C139.649 66.924 139.445 66.948 139.349 66.948C138.725 67.02 138.149 66.96 137.621 66.768C137.117 66.552 136.829 66.072 136.757 65.328C136.661 64.56 136.829 63.96 137.261 63.528C137.717 63.096 138.293 62.772 138.989 62.556C139.757 62.292 140.501 62.028 141.221 61.764C141.965 61.476 142.721 61.224 143.489 61.008ZM156.49 69.468C156.13 70.02 155.698 70.356 155.194 70.476C154.714 70.596 154.246 70.56 153.79 70.368C153.334 70.176 152.95 69.864 152.638 69.432C152.35 68.976 152.23 68.46 152.278 67.884C152.302 67.5 152.398 67.08 152.566 66.624C152.734 66.168 152.938 65.736 153.178 65.328C153.442 64.896 153.718 64.5 154.006 64.14C154.318 63.756 154.63 63.432 154.942 63.168C155.518 62.712 156.166 62.316 156.886 61.98C157.63 61.644 158.398 61.392 159.19 61.224C160.006 61.056 160.81 60.984 161.602 61.008C162.418 61.032 163.174 61.152 163.87 61.368C165.79 61.968 167.278 62.916 168.334 64.212C169.39 65.508 169.918 67.188 169.918 69.252C169.918 70.236 169.822 71.124 169.63 71.916C169.462 72.684 169.15 73.428 168.694 74.148C168.262 74.868 167.674 75.6 166.93 76.344C166.21 77.088 165.31 77.904 164.23 78.792C163.87 79.104 163.498 79.416 163.114 79.728C162.73 80.04 162.346 80.352 161.962 80.664C161.842 80.76 161.614 80.904 161.278 81.096C160.942 81.288 160.642 81.48 160.378 81.672C160.114 81.864 159.958 82.044 159.91 82.212C159.862 82.38 160.054 82.476 160.486 82.5C161.014 82.548 161.434 82.56 161.746 82.536C162.058 82.512 162.478 82.5 163.006 82.5C163.63 82.5 164.242 82.488 164.842 82.464C165.442 82.44 166.042 82.452 166.642 82.5C166.882 82.524 167.146 82.536 167.434 82.536C167.722 82.512 168.01 82.512 168.298 82.536C168.586 82.536 168.862 82.572 169.126 82.644C169.39 82.692 169.618 82.8 169.81 82.968C170.002 83.136 170.146 83.364 170.242 83.652C170.338 83.94 170.386 84.252 170.386 84.588C170.41 84.9 170.386 85.212 170.314 85.524C170.242 85.812 170.122 86.04 169.954 86.208C169.642 86.568 169.258 86.748 168.802 86.748C168.346 86.724 167.914 86.712 167.506 86.712H154.582C154.342 86.712 154.078 86.724 153.79 86.748C153.526 86.772 153.286 86.748 153.07 86.676C152.638 86.556 152.422 86.328 152.422 85.992C152.446 85.656 152.458 85.308 152.458 84.948C152.458 84.348 152.602 83.796 152.89 83.292C153.178 82.764 153.538 82.284 153.97 81.852C154.426 81.396 154.906 80.976 155.41 80.592C155.914 80.208 156.382 79.836 156.814 79.476C157.438 78.924 158.11 78.372 158.83 77.82C159.55 77.268 160.234 76.716 160.882 76.164C161.722 75.468 162.43 74.832 163.006 74.256C163.606 73.68 164.086 73.14 164.446 72.636C164.806 72.132 165.07 71.64 165.238 71.16C165.406 70.656 165.49 70.128 165.49 69.576C165.49 68.352 165.118 67.416 164.374 66.768C163.63 66.096 162.682 65.76 161.53 65.76C160.69 65.76 159.898 65.94 159.154 66.3C158.434 66.66 157.834 67.188 157.354 67.884C157.21 68.148 157.066 68.424 156.922 68.712C156.802 68.976 156.658 69.228 156.49 69.468Z" fill="black"/>
</g>
<line x1="70.5862" y1="303.473" x2="1.99998" y2="303.473" stroke="url(#paint10_linear_2953_13263)"/>
<line x1="239" y1="303.5" x2="308" y2="303.5" stroke="url(#paint11_linear_2953_13263)"/>
<rect x="64.2542" y="300.864" width="182.545" height="5.27586" rx="2.63793" fill="url(#paint12_radial_2953_13263)"/>
</g>
<defs>
<filter id="filter0_d_2953_13263" x="0" y="0" width="310.001" height="367" filterUnits="userSpaceOnUse" color-interpolation-filters="sRGB">
<feFlood flood-opacity="0" result="BackgroundImageFix"/>
<feColorMatrix in="SourceAlpha" type="matrix" values="0 0 0 0 0 0 0 0 0 0 0 0 0 0 0 0 0 0 127 0" result="hardAlpha"/>
<feOffset dy="2"/>
<feGaussianBlur stdDeviation="1"/>
<feComposite in2="hardAlpha" operator="out"/>
<feColorMatrix type="matrix" values="0 0 0 0 0 0 0 0 0 0 0 0 0 0 0 0 0 0 0.25 0"/>
<feBlend mode="normal" in2="BackgroundImageFix" result="effect1_dropShadow_2953_13263"/>
<feBlend mode="normal" in="SourceGraphic" in2="effect1_dropShadow_2953_13263" result="shape"/>
</filter>
<filter id="filter1_d_2953_13263" x="89.0009" y="0" width="132" height="132" filterUnits="userSpaceOnUse" color-interpolation-filters="sRGB">
<feFlood flood-opacity="0" result="BackgroundImageFix"/>
<feColorMatrix in="SourceAlpha" type="matrix" values="0 0 0 0 0 0 0 0 0 0 0 0 0 0 0 0 0 0 127 0" result="hardAlpha"/>
<feOffset dy="2"/>
<feGaussianBlur stdDeviation="1"/>
<feComposite in2="hardAlpha" operator="out"/>
<feColorMatrix type="matrix" values="0 0 0 0 0 0 0 0 0 0 0 0 0 0 0 0 0 0 0.25 0"/>
<feBlend mode="normal" in2="BackgroundImageFix" result="effect1_dropShadow_2953_13263"/>
<feBlend mode="normal" in="SourceGraphic" in2="effect1_dropShadow_2953_13263" result="shape"/>
</filter>
<filter id="filter2_d_2953_13263" x="114.306" y="23.8164" width="80.6174" height="83.7856" filterUnits="userSpaceOnUse" color-interpolation-filters="sRGB">
<feFlood flood-opacity="0" result="BackgroundImageFix"/>
<feColorMatrix in="SourceAlpha" type="matrix" values="0 0 0 0 0 0 0 0 0 0 0 0 0 0 0 0 0 0 127 0" result="hardAlpha"/>
<feOffset dy="2"/>
<feGaussianBlur stdDeviation="1"/>
<feComposite in2="hardAlpha" operator="out"/>
<feColorMatrix type="matrix" values="0 0 0 0 0 0 0 0 0 0 0 0 0 0 0 0 0 0 0.25 0"/>
<feBlend mode="normal" in2="BackgroundImageFix" result="effect1_dropShadow_2953_13263"/>
<feBlend mode="normal" in="SourceGraphic" in2="effect1_dropShadow_2953_13263" result="shape"/>
</filter>
<radialGradient id="paint0_radial_2953_13263" cx="0" cy="0" r="1" gradientUnits="userSpaceOnUse" gradientTransform="translate(64 64) rotate(90) scale(64)">
<stop stop-color="#FEEBF3"/>
<stop offset="1" stop-color="#FA6BA4"/>
</radialGradient>
<linearGradient id="paint1_linear_2953_13263" x1="154.614" y1="28.0407" x2="154.614" y2="44.7583" gradientUnits="userSpaceOnUse">
<stop stop-color="#E85F43"/>
<stop offset="1" stop-color="#E83636"/>
</linearGradient>
<radialGradient id="paint2_radial_2953_13263" cx="0" cy="0" r="1" gradientUnits="userSpaceOnUse" gradientTransform="translate(129.127 34.0016) scale(2.36095)">
<stop stop-color="#8C1F1F"/>
<stop offset="0.84" stop-color="#450F0F"/>
<stop offset="1" stop-color="#2B0808"/>
</radialGradient>
<linearGradient id="paint3_linear_2953_13263" x1="127.704" y1="29.2136" x2="130.556" y2="29.2136" gradientUnits="userSpaceOnUse">
<stop stop-color="#4F4F4F"/>
<stop offset="0.29" stop-color="#BDBDBD"/>
<stop offset="0.62" stop-color="#BDBDBD"/>
<stop offset="1" stop-color="#4F4F4F"/>
</linearGradient>
<radialGradient id="paint4_radial_2953_13263" cx="0" cy="0" r="1" gradientUnits="userSpaceOnUse" gradientTransform="translate(146.096 23.8395) scale(0.0241505)">
<stop stop-color="#8C1F1F"/>
<stop offset="0.84" stop-color="#450F0F"/>
<stop offset="1" stop-color="#2B0808"/>
</radialGradient>
<linearGradient id="paint5_linear_2953_13263" x1="144.673" y1="23.8164" x2="147.525" y2="23.8164" gradientUnits="userSpaceOnUse">
<stop stop-color="#4F4F4F"/>
<stop offset="0.29" stop-color="#BDBDBD"/>
<stop offset="0.62" stop-color="#BDBDBD"/>
<stop offset="1" stop-color="#4F4F4F"/>
</linearGradient>
<radialGradient id="paint6_radial_2953_13263" cx="0" cy="0" r="1" gradientUnits="userSpaceOnUse" gradientTransform="translate(163.061 23.8395) scale(2.36095)">
<stop stop-color="#8C1F1F"/>
<stop offset="0.84" stop-color="#450F0F"/>
<stop offset="1" stop-color="#2B0808"/>
</radialGradient>
<linearGradient id="paint7_linear_2953_13263" x1="161.638" y1="23.8164" x2="164.489" y2="23.8164" gradientUnits="userSpaceOnUse">
<stop stop-color="#4F4F4F"/>
<stop offset="0.29" stop-color="#BDBDBD"/>
<stop offset="0.62" stop-color="#BDBDBD"/>
<stop offset="1" stop-color="#4F4F4F"/>
</linearGradient>
<radialGradient id="paint8_radial_2953_13263" cx="0" cy="0" r="1" gradientUnits="userSpaceOnUse" gradientTransform="translate(180.038 23.8395) scale(0.0241505)">
<stop stop-color="#8C1F1F"/>
<stop offset="0.84" stop-color="#450F0F"/>
<stop offset="1" stop-color="#2B0808"/>
</radialGradient>
<linearGradient id="paint9_linear_2953_13263" x1="178.614" y1="23.8164" x2="181.466" y2="23.8164" gradientUnits="userSpaceOnUse">
<stop stop-color="#4F4F4F"/>
<stop offset="0.29" stop-color="#BDBDBD"/>
<stop offset="0.62" stop-color="#BDBDBD"/>
<stop offset="1" stop-color="#4F4F4F"/>
</linearGradient>
<linearGradient id="paint10_linear_2953_13263" x1="70.5862" y1="302.473" x2="-4.85864" y2="302.473" gradientUnits="userSpaceOnUse">
<stop stop-color="#870237"/>
<stop offset="0.795" stop-color="#FEB7D3"/>
</linearGradient>
<linearGradient id="paint11_linear_2953_13263" x1="239" y1="304.5" x2="314.9" y2="304.5" gradientUnits="userSpaceOnUse">
<stop stop-color="#870237"/>
<stop offset="0.795" stop-color="#FEB7D3"/>
</linearGradient>
<radialGradient id="paint12_radial_2953_13263" cx="0" cy="0" r="1" gradientUnits="userSpaceOnUse" gradientTransform="translate(155.527 303.501) scale(91.2724 2.63793)">
<stop stop-color="#FEB7D3"/>
<stop offset="1" stop-color="#860236"/>
</radialGradient>
</defs>
</svg>
