<svg width="37" height="37" viewBox="0 0 37 37" fill="none" xmlns="http://www.w3.org/2000/svg">
<path d="M37 17.3433V19.656C36.9313 20.2871 36.9458 20.9233 36.8778 21.5537C36.7354 22.868 36.3523 24.1194 35.8614 25.3397C35.6598 25.8407 35.4689 26.349 35.1942 26.8174C35.1017 26.975 34.9954 27.1355 34.7677 27.0105C34.652 26.8803 34.6672 26.7169 34.6679 26.5637C34.6737 25.2891 34.6824 24.016 34.4648 22.7523C34.4337 22.5731 34.3889 22.4046 34.3282 22.2376C34.2038 21.3527 33.9002 20.5192 33.5879 19.6885C33.1686 18.5716 32.6033 17.5277 31.9506 16.5336C31.5631 15.943 31.0947 15.4087 30.6465 14.8607C30.0653 14.1508 29.3532 13.5811 28.6896 12.9587C28.5385 12.7664 28.3346 12.642 28.1272 12.5235C27.5662 12.2032 27.0587 11.7969 26.4884 11.4904C26.3741 11.429 26.2701 11.3379 26.2498 11.1911C26.2404 11.0234 26.359 10.9345 26.4681 10.839C27.2539 10.1501 28.086 9.51099 28.7893 8.73166C29.3547 8.1056 29.7681 7.40073 29.9308 6.55778C29.9959 6.22234 29.9265 5.91437 29.8513 5.59917C29.8036 5.39963 29.6583 5.30999 29.4754 5.24999C28.8624 5.04901 28.2833 5.19215 27.7267 5.44229C26.7616 5.87461 26.0047 6.57152 25.3484 7.38483C24.9182 7.91763 24.4433 8.41285 24.0349 8.96373C23.8071 9.27098 23.544 9.36134 23.1573 9.22543C22.5457 9.01072 21.9204 8.83287 21.3009 8.63696C21.1411 8.58635 20.9712 8.54225 20.9199 8.34561C20.9799 8.07017 21.2315 7.94004 21.3833 7.73401C21.4932 7.62557 21.5105 7.50267 21.4122 7.38483C21.2524 7.19325 21.0753 7.01685 20.8859 6.85491C20.7225 6.71538 20.6047 6.8137 20.5021 6.95034C20.1927 7.14336 19.9368 7.3841 19.7763 7.71882C19.7307 7.81425 19.6743 7.90823 19.5775 7.96752C19.4886 8.01378 19.3917 8.0333 19.2977 8.00655C18.8242 7.87281 18.3572 7.71738 17.8888 7.56773C17.797 7.53881 17.7196 7.47592 17.682 7.37977C17.6459 7.18891 17.7941 7.0942 17.909 7.00384C18.0355 6.90479 18.1281 6.78623 18.2155 6.65827C18.3999 6.50573 18.3637 6.35319 18.2155 6.19921C18.0912 6.0698 17.9625 5.94401 17.8353 5.81749C17.6712 5.65339 17.5252 5.66134 17.3936 5.85653C17.0604 6.04667 16.8442 6.3503 16.631 6.65393C16.5471 6.77322 16.4589 6.88311 16.3338 6.96046C15.9428 7.04288 15.6066 6.83611 15.2553 6.73707C14.4102 6.4985 13.5789 6.21439 12.7403 5.95341C12.5061 5.88039 12.2936 5.85003 12.1143 6.05896C11.9856 6.22668 12.0962 6.31994 12.2235 6.40741C12.8162 6.81443 13.3967 7.23879 13.9895 7.64653C14.6213 8.08102 15.2307 8.54659 15.8676 8.97385C16.023 9.07795 16.1842 9.21603 16.0729 9.45243C15.9146 9.65775 15.6688 9.64835 15.4512 9.68884C13.6996 10.0127 12.0637 10.6446 10.5059 11.5012C9.97958 11.7904 9.52127 12.188 8.96608 12.4259C8.91114 12.4497 8.87934 12.5076 8.84247 12.5546C8.77524 12.6941 8.63283 12.7396 8.51644 12.8177C8.08343 13.224 7.52174 13.4828 7.17619 13.9889C6.3651 14.8051 5.63787 15.6849 4.99015 16.6399C4.44943 17.4373 4.05545 18.307 3.59713 19.1456C3.39617 19.3206 3.34846 19.5519 3.35496 19.8042C3.13303 20.4773 2.88363 21.1424 2.75062 21.8422C2.46797 22.889 2.34291 23.9553 2.33712 25.0376C2.33423 25.5306 2.34218 26.0237 2.33279 26.516C2.32989 26.6815 2.35447 26.8558 2.24242 27.0018C2.02122 27.1449 1.90845 26.9873 1.81592 26.8312C1.51519 26.3237 1.31567 25.7692 1.08868 25.2277C0.693258 24.2828 0.434461 23.2946 0.21976 22.2969C0.0636149 21.5696 0.0795186 20.8207 0.034699 20.0796C0.0260243 19.9387 0.0737354 19.7926 0 19.6567V17.344C0.0686751 16.7136 0.0592775 16.0774 0.120001 15.4463C0.229881 14.3113 0.553016 13.2255 0.941211 12.1642C1.56435 10.4617 2.40291 8.8683 3.49882 7.41591C5.09931 5.29553 7.02872 3.55252 9.34994 2.24545C11.0957 1.26225 12.942 0.557386 14.9105 0.187241C15.5705 0.0628957 16.2485 0.0744628 16.9194 0.0347011C17.0604 0.0260258 17.2071 0.0751857 17.343 0H19.6556C20.2859 0.0686792 20.9221 0.059281 21.5532 0.120008C22.6881 0.229895 23.7739 0.552326 24.8351 0.94199C26.5491 1.57095 28.1539 2.41751 29.6142 3.52216C31.9332 5.27601 33.7882 7.42314 35.1176 10.0178C35.9135 11.5706 36.4896 13.198 36.8113 14.9113C36.9357 15.5721 36.9292 16.2495 36.9639 16.9204C36.9711 17.0614 36.9227 17.2081 36.9986 17.344L37 17.3433Z" fill="#B3D2FE"/>
<path d="M8.73795 12.4895C9.38061 11.9408 10.1028 11.5128 10.8466 11.1231C12.3799 10.3207 13.9927 9.74233 15.7081 9.47123C15.826 9.45243 15.9409 9.41122 16.0573 9.38086C16.2467 9.22181 16.3963 9.35339 16.5416 9.45532C17.3975 10.0561 18.2578 10.6511 19.1065 11.2634C19.5453 11.58 19.9942 11.883 20.4344 12.1967C20.6173 12.3276 20.8284 12.444 20.845 12.7114C20.7062 13.1676 20.3325 13.4575 20.0477 13.8045C18.8426 15.2706 17.5399 16.6522 16.2908 18.0807C15.9474 18.4733 15.7992 18.5 15.312 18.3171C14.7156 18.0937 14.1112 17.8877 13.5271 17.6347C13.1498 17.4713 12.8375 17.4698 12.5635 17.7988C12.4818 17.9838 12.6532 18.0344 12.745 18.0973C13.3963 18.5412 14.0288 19.0133 14.6881 19.4463C14.8739 19.5685 14.9903 19.7095 15.0315 19.9206C15.0402 20.0442 15.1219 20.0861 15.2317 20.097C15.4305 20.1368 15.5592 20.2531 15.6698 20.4252C15.8939 20.7729 16.1563 21.0961 16.3811 21.4438C16.4737 21.587 16.619 21.7207 16.5568 21.9246C16.3761 22.2955 16.2235 22.6642 16.3356 23.0979C16.3941 23.3227 16.2958 23.5498 16.2445 23.7717C16.165 24.1158 16.2322 24.4202 16.4903 24.666C16.8105 24.9718 16.9349 25.4366 17.3419 25.6766C17.5045 25.7728 17.6469 25.8444 17.8421 25.8212C18.304 25.7656 18.7725 25.7757 19.2084 25.5545C19.4542 25.4301 19.705 25.5053 19.8987 25.7113C20.0187 25.8393 20.1597 25.9065 20.3354 25.9383C20.6477 25.9955 20.7973 26.1588 20.7373 26.469C20.6462 26.9338 20.7286 27.3474 20.9549 27.7464C20.9722 27.9503 20.8183 28.0573 20.6968 28.1954C20.8313 28.1216 20.9592 28.0566 21.1074 28.131C21.3771 28.5923 21.5303 29.0969 21.3243 29.6008C21.1067 30.1343 21.1154 30.6237 21.3547 31.129C21.4588 31.3495 21.4913 31.5903 21.5368 31.826C21.6149 32.2315 21.7414 32.6161 21.9474 32.9754C22.0436 33.1432 22.1058 33.3268 22.1325 33.5198C22.1614 33.7309 22.2973 33.8068 22.4896 33.7887C22.9414 33.7454 23.3687 33.6536 23.6549 33.2422C23.8732 32.9284 24.0612 32.5988 24.252 32.2706C24.4906 31.8614 24.6222 31.471 24.6764 31.0112C24.7089 30.7394 24.9438 30.529 25.1918 30.3888C25.6031 30.1552 25.6971 29.8104 25.5973 29.3738C25.5518 29.1749 25.5417 28.9675 25.4838 28.7715C25.2793 28.0768 25.567 27.5288 26.0036 27.0293C26.0585 26.9664 26.1164 26.9064 26.1641 26.8384C26.2834 26.7126 26.4439 26.7307 26.5949 26.7206C26.7945 26.7068 26.6752 26.6143 26.6419 26.542C26.6029 26.4198 26.6658 26.3323 26.7439 26.2528C27.0467 25.9434 27.1921 25.5429 27.3663 25.1612C27.4819 24.9089 27.4096 24.8308 27.1364 24.8648C27.0164 24.88 26.9043 24.9255 26.7829 24.9363C26.501 24.9609 26.2826 24.8771 26.1742 24.598C26.0889 24.3782 25.9494 24.2069 25.7629 24.0616C25.4354 23.8057 25.301 23.4167 25.1593 23.0553C25.0357 22.7408 24.9171 22.4277 24.7479 22.1371C24.6663 21.9976 24.6272 21.8494 24.5925 21.6983C24.5556 21.5378 24.5636 21.3686 24.7277 21.2855C24.9142 21.1908 25.0653 21.3079 25.1578 21.4518C25.3472 21.7438 25.5026 22.0562 25.6646 22.3649C25.9364 22.8854 26.2313 23.3914 26.4171 23.9546C26.5082 24.2308 26.7381 24.1505 26.9325 24.0645C27.4516 23.8353 27.9041 23.497 28.3733 23.1854C28.4333 23.1456 28.4839 23.0929 28.5554 23.0712C28.7174 22.9866 28.9068 23.2345 29.0586 23.0285C29.2624 22.8405 29.2689 22.6244 29.1764 22.3771C29.099 22.1689 28.9986 21.947 29.1988 21.7424C29.8581 21.5241 30.2911 21.6687 30.7523 22.2665C30.8326 22.3706 30.8889 22.5109 31.0314 22.529C31.3422 22.568 31.455 22.7719 31.4839 23.0444C31.5215 23.4023 31.7268 23.7211 31.7181 24.0883C31.3263 24.3558 31.1362 24.8012 30.8116 25.1287C31.0111 24.945 31.1579 24.7187 31.3155 24.5011C31.408 24.3739 31.494 24.2423 31.6747 24.2351C31.9335 24.3023 31.9314 24.5575 32.0362 24.7361C32.0774 24.8062 32.0955 24.911 32.1952 24.9125C32.2979 24.9139 32.3145 24.8069 32.3528 24.7361C32.4367 24.5821 32.4417 24.4115 32.4323 24.2438C32.415 23.9315 32.5386 23.6943 32.7627 23.4818C33.0403 23.2179 33.3215 22.9548 33.5622 22.6533C33.6309 22.5673 33.7191 22.5015 33.8239 22.469C34.0653 22.3938 34.275 22.2586 34.4875 22.1277C34.8099 23.4088 34.8793 24.7137 34.8576 26.028C34.8519 26.3642 34.8569 26.701 34.8569 27.0372C35.0405 27.2599 34.8844 27.4529 34.7846 27.6322C34.2511 28.5901 33.649 29.5061 32.9347 30.3374C31.8988 31.544 30.7718 32.6602 29.48 33.5979C27.2369 35.2259 24.7617 36.3306 22.0306 36.8215C21.3366 36.9458 20.6224 36.9653 19.9132 36.9632C19.6848 36.9841 19.452 36.9191 19.2272 36.9993H17.8544C17.5963 36.922 17.3325 36.9827 17.0715 36.9632C15.064 36.9957 13.165 36.52 11.3303 35.7407C11.1944 35.6828 11.0621 35.6286 11.0107 35.4739C11.0729 35.1276 11.2478 34.8551 11.5659 34.696C11.7466 34.6057 11.8175 34.5023 11.7466 34.297C11.665 34.0584 11.7626 33.8885 12.0134 33.848C12.1818 33.8213 12.2693 33.7287 12.3192 33.5834C12.4218 33.2863 12.5736 33.013 12.7385 32.7477C12.8129 32.6284 12.8563 32.507 12.8201 32.3732C12.7247 32.0197 12.9127 31.7689 13.1975 31.6908C13.9269 31.4912 14.0541 30.9259 14.0628 30.3244C14.0708 29.7728 14.1893 29.2928 14.5139 28.8438C14.7358 28.5366 14.657 28.3479 14.3469 28.126C14.0129 27.8874 13.6696 27.6994 13.2604 27.6018C12.9409 27.5252 12.6553 27.3228 12.356 27.1746C12.1103 27.0531 11.9946 26.7986 11.9006 26.5471C11.7734 26.208 11.5587 25.9991 11.1763 25.9333C10.7838 25.8653 10.4946 25.6029 10.2719 25.274C10.2257 25.0961 10.3045 24.9544 10.4122 24.8098C10.3117 24.8778 10.2322 24.9638 10.1115 24.9674C9.55049 25.094 9.02567 24.8988 8.49578 24.7737C8.23626 24.7122 8.04831 24.7968 7.89795 24.9971C7.73819 25.2096 7.55168 25.326 7.2777 25.2075C7.21264 25.1793 7.13457 25.1995 7.063 25.2096C6.50637 25.2928 6.16878 24.9804 6.24179 24.4137C6.27866 24.1267 6.25191 23.9589 5.91432 23.9141C5.58179 23.87 5.46034 23.6408 5.52107 23.309C5.54564 23.1731 5.6483 23.048 5.59191 22.9013C5.48854 22.8586 5.46034 22.9367 5.41769 22.9916C4.95142 23.5859 4.36082 23.523 4.0413 22.8478C3.82587 22.3916 4.06226 21.159 4.58853 20.971C5.19793 20.7527 5.84059 20.6457 6.49553 20.7223C6.72252 20.7484 6.83529 20.9313 6.95963 21.1337C6.84469 20.4252 7.39843 20.1874 7.82277 19.87C7.97602 19.755 8.08662 19.6343 8.14518 19.455C8.28759 19.0162 8.62952 18.7473 8.99241 18.5101C9.1341 18.4176 9.26278 18.3388 9.37049 18.1971C9.60182 17.8913 9.91989 17.7236 10.3153 17.8161C10.483 17.8552 10.6153 17.8118 10.796 17.7438C10.4736 17.5219 10.5799 17.2067 10.5734 16.9312C10.5691 16.7382 10.7599 16.6912 10.9225 16.7028C11.2066 16.7238 11.4712 16.6572 11.7336 16.5662C11.8732 16.5177 12.0235 16.4722 12.1385 16.598C12.2433 16.7136 12.1826 16.8467 12.1233 16.9674C12.0922 17.0317 12.0401 17.0932 12.1153 17.1575C12.1435 17.1821 12.1869 17.1893 12.2158 17.1633C12.2888 17.0982 12.2295 17.0303 12.2079 16.9674C12.1746 16.8712 12.1941 16.7794 12.2071 16.6833C12.2462 16.3833 12.1782 16.1577 11.9765 15.8808C11.7372 15.5526 11.6194 15.2005 11.1221 15.2417C11.018 15.2504 10.9413 15.095 10.9081 14.9742C10.8358 14.7082 10.6175 14.6663 10.397 14.6641C10.1512 14.6619 10.0984 14.8651 10.0449 15.0559C10.0189 15.1492 9.99796 15.2432 9.99579 15.3401C9.98929 15.6683 9.81507 15.8851 9.52808 16.008C9.33073 16.0926 9.17458 16.1946 9.0994 16.4107C9.0488 16.5568 8.92663 16.6478 8.76253 16.6312C8.58036 16.6131 8.47193 16.4845 8.46904 16.3167C8.46542 16.0521 8.33024 15.9336 8.09891 15.8555C7.94132 15.8027 7.79602 15.7102 7.64638 15.6343C7.25313 15.4348 7.18517 15.0118 7.51771 14.7183C7.90952 14.372 8.38879 14.1711 8.87747 13.999C8.99675 13.9571 9.12253 13.973 9.21723 14.0619C9.40085 14.234 9.46013 14.1241 9.48977 13.9484C9.50422 13.8631 9.51434 13.751 9.59675 13.7344C9.95314 13.6614 10.1389 13.3614 10.405 13.1691C10.6413 12.9985 10.9385 13.0187 11.198 13.1474C11.5421 13.318 11.5688 13.6542 11.2789 13.9086C11.2074 13.9715 11.1242 14.0149 11.0223 14.0482C11.1524 14.1277 11.2392 14.2347 11.3628 14.286C11.5609 14.3677 11.8023 14.367 11.8507 14.1501C11.9187 13.8428 12.0994 13.7438 12.3727 13.7199C11.8789 12.6587 11.0874 12.6825 10.2972 12.7563C10.1353 12.7714 9.98856 12.843 10.0413 13.0635C10.0999 13.3079 10.0196 13.4966 9.78399 13.5927C9.59242 13.6708 9.42832 13.6035 9.31121 13.4366C9.16085 13.2226 9.11169 13.0006 9.28157 12.7714C9.31049 12.7331 9.35458 12.7093 9.39217 12.6789C9.08494 12.8531 8.88109 12.7939 8.74374 12.4888L8.73795 12.4895Z" fill="#0E7885"/>
<path d="M17.0551 36.9999C17.0594 36.9768 17.0572 36.9551 17.0479 36.9334C17.3182 36.9204 17.5893 36.8915 17.8495 36.9999H17.0544H17.0551Z" fill="#64A7B8"/>
<path d="M19.9535 36.9334C19.9456 36.9551 19.9427 36.9768 19.9456 36.9992H19.2227C19.4583 36.8915 19.7063 36.9197 19.9528 36.9334H19.9535Z" fill="#69AABC"/>
<path d="M15.1733 20.2257C15.0764 20.264 14.9759 20.3587 14.874 20.2727C14.7533 20.1707 14.84 20.0544 14.8892 19.9466C14.9889 19.7138 14.8892 19.5823 14.6897 19.45C14.0101 18.9996 13.3487 18.5217 12.6822 18.0525C12.5716 17.9745 12.3706 17.9253 12.4306 17.7077C12.7581 17.2739 13.1318 17.258 13.6147 17.4829C14.2335 17.772 14.8942 17.9701 15.5282 18.2282C15.7523 18.3193 15.8846 18.2875 16.048 18.1039C17.6326 16.3254 19.2265 14.555 20.7468 12.7209C20.8422 12.4165 20.7396 12.2235 20.4714 12.0333C18.4241 10.5802 16.3032 9.23629 14.2639 7.77161C13.6212 7.31037 12.954 6.8795 12.2954 6.43706C12.14 6.33296 11.9506 6.24187 11.9795 5.99969C12.1581 5.69099 12.3879 5.65195 12.7306 5.76401C13.9241 6.15439 15.1292 6.50863 16.3299 6.87661C16.7 6.78624 17.5342 7.04722 17.7345 7.31616C18.3323 7.53449 18.9352 7.73546 19.5547 7.88294C19.9343 7.7839 20.7779 8.05428 20.9666 8.33478C21.7892 8.6001 22.6133 8.8618 23.4345 9.13363C23.6145 9.19363 23.6969 9.09748 23.7945 8.98181C24.3504 8.31815 24.9049 7.65305 25.4702 6.99734C26.2119 6.13777 27.0649 5.43001 28.1767 5.09529C28.5873 4.97167 29.0016 4.95576 29.4244 5.04179C29.7989 5.1177 30.0035 5.3194 30.0722 5.70473C30.1661 6.23103 30.117 6.73347 29.9269 7.22724C29.6457 7.95813 29.1967 8.57841 28.6531 9.1329C27.9194 9.88187 27.0685 10.4978 26.2936 11.2005C26.0167 11.8367 26.4461 12.3695 26.5538 12.9493C26.5777 13.078 26.6348 13.1994 26.65 13.3317C26.6811 13.4864 26.7931 13.613 26.8068 13.7742C26.7888 13.926 26.8676 14.0438 26.9435 14.1631C27.0779 14.6395 27.2565 15.1022 27.3656 15.5866C27.589 16.1201 27.7227 16.6818 27.8825 17.2349C28.0755 17.7381 28.2187 18.2571 28.3799 18.7704C28.6647 19.6322 28.9379 20.4982 29.2003 21.3672C29.2437 21.5104 29.3102 21.6658 29.2003 21.8147C29.1881 22.0244 29.2799 22.2123 29.355 22.3938C29.4888 22.7184 29.431 22.9577 29.1273 23.1341C28.9314 23.1934 28.8375 23.0546 28.75 22.9266C27.9035 21.686 27.0555 20.4469 26.209 19.2071C25.5591 18.255 24.9114 17.3014 24.255 16.3536C23.8516 15.7717 23.4367 15.1962 23.0601 14.5969C22.8866 14.32 22.7232 14.2875 22.4825 14.4783C21.9454 15.0314 21.3114 15.4724 20.7439 15.9914C20.2299 16.4613 19.6762 16.8857 19.1745 17.3701C19.0603 17.4807 18.9367 17.5711 18.7957 17.6419C18.6287 17.8458 18.4212 18.0048 18.2188 18.1704C18.0099 18.3807 17.8306 18.6251 17.5458 18.7466C17.3405 18.8651 17.2661 19.1001 17.0954 19.2504C17.0282 19.3097 17.0217 19.4023 17.0514 19.4861C17.18 19.8447 17.2574 20.2214 17.441 20.5604C17.5747 20.9472 17.7432 21.3202 17.8762 21.707C18.0511 22.2174 17.9477 22.4682 17.467 22.7451C17.201 22.7704 17.1309 22.534 17.0232 22.3808C16.5562 21.7135 16.0913 21.0448 15.633 20.3717C15.5015 20.178 15.3583 20.1736 15.1733 20.2264V20.2257Z" fill="#FEFEFE"/>
<path d="M11.0442 35.4262C10.4962 35.2071 9.95552 34.9743 9.47407 34.6251C9.34395 34.4842 9.31865 34.3121 9.30274 34.1263C9.21816 33.1583 9.09889 32.1939 9.01648 31.2259C8.98901 30.9035 8.8372 30.6569 8.54081 30.5095C8.089 30.2846 7.79912 29.913 7.58514 29.4684C7.47526 29.2407 7.38128 28.9942 7.22442 28.8048C6.88465 28.3927 6.74369 27.9539 6.7849 27.4145C6.80947 27.0914 6.82176 26.8015 7.05526 26.5521C7.19839 26.3988 7.25406 26.1957 7.26634 25.9875C7.28659 25.6462 7.1955 25.5682 6.84923 25.5458C6.3873 25.5161 6.08296 25.2168 5.85091 24.8611C5.68392 24.6052 5.44609 24.496 5.20537 24.3377C4.48392 23.8627 3.54632 23.8938 2.88704 23.2887C2.70198 23.1196 2.57475 22.9612 2.59065 22.7126C2.61089 22.4046 2.49378 22.0966 2.59065 21.7886C2.68752 21.185 2.90222 20.6153 3.09017 20.0377C3.12343 19.9357 3.15306 19.8331 3.18487 19.7312C3.30415 19.5237 3.35331 19.2851 3.46752 19.0754C4.30681 17.1495 5.49163 15.4593 6.95622 13.9599C6.99526 13.9194 7.05526 13.8999 7.10586 13.8703C7.38707 13.5016 7.81502 13.3425 8.21262 13.1784C8.46563 13.0743 8.49744 12.984 8.42153 12.77C8.4143 12.7504 8.43238 12.7244 8.44322 12.7035C8.54081 12.6319 8.63912 12.561 8.73671 12.4895C9.00346 12.5249 9.26732 12.7577 9.53913 12.4779C9.60564 12.4099 9.74226 12.4287 9.77696 12.5437C9.80949 12.65 9.69383 12.6695 9.62082 12.7042C9.26226 12.8755 9.22684 13.0425 9.44226 13.3657C9.53913 13.511 9.63383 13.5435 9.76467 13.4517C9.88251 13.3686 10.0054 13.2847 9.85287 13.1076C9.66058 12.8842 9.83407 12.7129 10.0155 12.6673C10.583 12.5256 11.1331 12.4801 11.7158 12.7476C12.1444 12.9449 12.2666 13.3801 12.6194 13.6079C12.6816 13.6483 12.7098 13.7235 12.6678 13.7994C12.6013 13.9187 12.4849 13.9802 12.3635 13.9426C12.0996 13.8609 12.0266 13.905 12.0454 14.2072C12.0628 14.4935 11.4938 14.6402 11.217 14.4074C11.0001 14.2252 10.7847 14.077 10.429 14.0698C10.6712 13.8782 10.9466 14.0098 11.1143 13.832C11.2083 13.7322 11.4042 13.6765 11.3485 13.5088C11.3008 13.3642 11.1606 13.2529 10.9943 13.2319C10.742 13.2001 10.4977 13.177 10.3235 13.4466C10.1644 13.6917 9.96202 13.9079 9.55503 13.7936C9.696 14.0199 9.99022 14.239 9.50515 14.265C9.35913 14.273 9.51383 14.4378 9.43503 14.5C9.34684 14.5086 9.2731 14.458 9.25503 14.3973C9.1466 14.0279 8.9384 14.124 8.68756 14.2411C8.36081 14.3937 8.03045 14.5354 7.73189 14.7429C7.58153 14.8477 7.43478 14.946 7.4449 15.1651C7.45574 15.3906 7.60683 15.46 7.78683 15.5258C8.00008 15.6039 8.1996 15.7225 8.41575 15.7897C8.5972 15.8461 8.69696 15.9097 8.61382 16.115C8.59214 16.1678 8.59647 16.2336 8.59792 16.2936C8.60081 16.3948 8.62539 16.4938 8.73961 16.517C8.87985 16.5459 8.93985 16.4483 8.95503 16.3326C8.98901 16.068 9.14371 15.948 9.39311 15.8786C9.68805 15.7969 9.84781 15.5981 9.83624 15.2634C9.83046 15.1014 9.87455 14.9229 9.94684 14.7768C10.0278 14.6127 10.1261 14.4147 10.3762 14.471C10.6488 14.5325 10.9669 14.513 11.0565 14.8889C11.1338 15.2149 11.2538 15.2713 11.5264 15.0761C11.7642 14.9055 11.8661 15.0038 11.8893 15.2243C11.9232 15.5489 11.9869 15.8244 12.3136 15.995C12.4698 16.076 12.4408 16.2632 12.3852 16.4208C12.3078 16.6377 12.2254 16.8481 12.4625 17.0389C12.5449 17.1047 12.5298 17.2486 12.4683 17.3433C12.4076 17.4373 12.2977 17.4163 12.203 17.4004C12.1083 17.3845 12.015 17.3599 11.9211 17.3411C11.7129 17.2999 11.6912 17.2016 11.8199 17.0418C11.9117 16.9276 12.0758 16.8546 12.0526 16.6406C11.6008 16.7628 11.1794 17.0194 10.6987 16.8278C10.6603 17.0049 10.8353 17.0606 10.7883 17.224C10.6748 17.6137 10.7066 17.6339 11.0977 17.592C11.1469 17.5869 11.1917 17.5833 11.222 17.6317C11.0008 17.9195 10.5599 18.0677 10.2447 17.9592C10.0365 17.8877 9.57817 18.0872 9.48564 18.3156C9.43214 18.4472 9.37359 18.5347 9.23624 18.594C8.75913 18.8022 8.36659 19.0971 8.25165 19.6495C8.21984 19.8027 8.10418 19.8888 7.97767 19.9676C7.81502 20.0688 7.65165 20.1729 7.50129 20.2907C7.2396 20.496 7.01261 20.7129 7.14056 21.1091C7.1796 21.2305 7.24249 21.4597 7.0314 21.5089C6.81598 21.5587 6.80947 21.3448 6.76321 21.2002C6.65767 20.8691 6.16248 20.6992 5.80682 20.8951C5.62465 20.9956 5.45983 21.018 5.25814 20.9818C4.82079 20.9045 4.44127 21.1365 4.29886 21.5587C4.14922 22.0033 3.98078 22.4516 4.2562 22.9121C4.52512 23.3625 4.98994 23.3683 5.25886 22.9237C5.30224 22.8521 5.33549 22.7726 5.39043 22.7118C5.48079 22.6121 5.60513 22.5947 5.72224 22.6482C5.86031 22.7111 5.85091 22.8383 5.81332 22.9598C5.77429 23.0863 5.72947 23.2107 5.68392 23.335C5.58344 23.6068 5.67164 23.776 5.96585 23.7601C6.39309 23.737 6.47405 23.8627 6.41333 24.3189C6.39236 24.4772 6.37863 24.6305 6.42778 24.7823C6.45309 24.8604 6.48779 24.9421 6.53911 25.0043C6.70176 25.1987 7.5555 25.1662 7.71093 24.9652C8.05358 24.5228 8.389 24.4187 8.88274 24.6609C9.15238 24.7932 9.40323 24.8958 9.70684 24.8112C9.83985 24.7744 9.96347 24.8582 10.09 24.8937C10.2223 25.1843 9.96419 25.3563 9.89624 25.5689C10.0235 25.451 10.0394 25.1604 10.3343 25.224C10.7001 25.4807 11.0138 25.8075 11.5148 25.8508C11.7281 25.8689 11.9138 26.1031 11.9919 26.3504C12.1249 26.7719 12.3823 27.0148 12.8066 27.2222C13.3466 27.4861 13.9719 27.5461 14.4527 27.9727C14.7483 28.2351 14.9601 28.4614 14.7245 28.773C14.2618 29.3838 14.2372 30.0764 14.1693 30.7762C14.1194 31.2859 13.9033 31.6575 13.3625 31.7912C13.064 31.865 12.8948 32.063 12.9324 32.4014C12.9649 32.692 12.8276 32.932 12.6852 33.1742C12.5825 33.3484 12.516 33.5451 12.4459 33.7367C12.3758 33.9268 12.2731 34.054 12.049 34.0143C11.8025 33.9702 11.7996 34.0837 11.9001 34.2507C12.0873 34.5615 11.984 34.7466 11.655 34.8391C11.4946 34.8847 11.3681 34.9606 11.3478 35.1471C11.3283 35.3271 11.1317 35.3192 11.0435 35.4276L11.0442 35.4262Z" fill="#15BCAF"/>
<path d="M2.59034 21.7894C2.55058 22.1798 2.82745 22.5196 2.76673 22.9157C2.75299 23.0061 2.84914 23.0538 2.91637 23.1044C3.20553 23.3227 3.50914 23.5331 3.85035 23.6394C4.31084 23.7825 4.76337 23.8678 5.19783 24.1483C5.5188 24.3558 5.84771 24.4708 6.03494 24.8503C6.16073 25.1055 6.44338 25.2486 6.69929 25.386C6.79543 25.4381 6.87639 25.4279 6.95374 25.339C7.13881 25.1272 7.24941 25.2725 7.32604 25.4388C7.52339 25.8689 7.49447 26.2897 7.18507 26.6555C6.98194 26.8955 6.87567 27.137 6.98772 27.4464C7.02242 27.5418 6.98483 27.6343 6.9617 27.7283C6.90748 27.9495 6.93133 28.1476 7.09832 28.3291C7.44459 28.7057 7.61953 29.1901 7.86676 29.6282C8.01857 29.8979 8.19279 30.1401 8.47761 30.2673C8.95761 30.482 9.20484 30.8464 9.21207 31.3647C9.22798 32.4571 9.50846 33.5285 9.47304 34.6244C7.99471 33.8487 6.69856 32.8279 5.51012 31.6647C4.23204 30.4141 3.16938 28.9978 2.30335 27.4348C2.23468 27.3112 2.19853 27.1688 2.14648 27.0358C2.15299 26.1957 2.1342 25.3542 2.17251 24.5163C2.21444 23.5953 2.33805 22.6815 2.58962 21.7894H2.59034Z" fill="#0E7885"/>
<path d="M26.6721 13.8212C26.628 13.6773 26.5832 13.5342 26.5391 13.3903C26.7545 13.125 27.0805 13.1279 27.3711 13.0831C27.5865 13.0498 27.7333 13.0216 27.8403 12.7975C27.9791 12.5062 28.1945 12.4866 28.4468 12.6956C28.54 12.7729 28.6318 12.8452 28.7511 12.8741C29.3815 13.2963 29.9186 13.8233 30.4326 14.3757C31.5863 15.6162 32.5536 16.9898 33.2779 18.5217C33.8222 19.6726 34.269 20.8633 34.4844 22.1285C34.4692 22.281 34.4924 22.4596 34.2741 22.4885C33.9018 22.5377 33.6531 22.7618 33.4319 23.0437C33.314 23.1934 33.1774 23.3343 33.0271 23.4522C32.7003 23.7088 32.5348 24.0175 32.5875 24.4448C32.6179 24.6935 32.4834 24.9111 32.3555 25.1135C32.2268 25.3174 32.0989 25.3087 32.002 25.0759C31.8914 24.8106 31.7757 24.5482 31.663 24.2843C31.6152 24.2424 31.6087 24.1954 31.6449 24.1426C31.4555 23.7775 31.368 23.3806 31.3015 22.9808C31.2726 22.8044 31.2516 22.6757 31.0232 22.7336C30.8887 22.7683 30.789 22.6822 30.734 22.5695C30.4572 21.9998 30.022 21.728 29.3793 21.8285C29.3222 21.8371 29.2608 21.8205 29.2015 21.8147C28.8357 20.82 28.5097 19.8122 28.2487 18.7849C28.2863 18.6548 28.3514 18.5333 28.4714 18.4726C28.809 18.3005 29.0388 18.0027 29.3237 17.7692C29.6461 17.3274 29.161 17.211 28.9918 16.9804C28.8509 16.7881 28.66 16.6117 28.407 16.8604C28.2039 17.0187 28.1164 17.3643 27.7535 17.2624C27.5699 16.7173 27.3682 16.178 27.2475 15.6133C27.3422 15.3473 27.5894 15.2338 27.7882 15.0719C27.9451 14.9446 28.0788 14.7928 28.2285 14.6576C28.3824 14.4819 28.3723 14.3178 28.2024 14.1559C28.073 14.0323 27.9487 13.9036 27.8222 13.7764C27.6639 13.6173 27.502 13.5754 27.3263 13.7474C27.2338 13.8515 27.1448 13.9614 26.9952 13.9875C26.8521 14.0026 26.714 14.007 26.6742 13.8212H26.6721Z" fill="#15BCAF"/>
<path d="M11.9793 5.99969C13.6882 7.17591 15.3971 8.35213 17.1075 9.52691C18.3437 10.3764 19.5776 11.2287 20.8203 12.068C21.2446 12.3543 20.8456 12.5119 20.7466 12.7201C20.7422 12.5698 20.607 12.5329 20.5152 12.4671C19.1273 11.4796 17.7364 10.4971 16.347 9.51173C16.2574 9.44811 16.167 9.39389 16.0564 9.38015C15.5627 8.88132 14.9453 8.54732 14.3865 8.13597C13.6029 7.56051 12.8005 7.01108 12.0067 6.44935C11.8123 6.31127 11.6829 6.16668 11.9807 5.99896L11.9793 5.99969Z" fill="#C8CACC"/>
<path d="M28.7509 12.874C28.6331 12.955 28.5471 12.8906 28.4676 12.8089C28.3483 12.6868 28.2211 12.6036 28.0599 12.7338C27.9211 12.8451 27.877 12.9817 27.9717 13.148C27.9868 13.1747 27.9789 13.2152 27.9868 13.3121C27.4743 13.0764 27.0232 13.4032 26.5389 13.3909C26.3545 12.8227 26.1789 12.2508 25.9837 11.6862C25.876 11.3746 26.1623 11.3443 26.2938 11.2018C27.1664 11.6812 28.0143 12.1966 28.7509 12.8747V12.874Z" fill="#107786"/>
<path d="M17.7347 7.31675C17.2561 7.20252 16.7848 7.06805 16.3301 6.8772C16.4898 6.50055 16.7566 6.20053 17.0204 5.89689C17.1094 5.79496 17.2149 5.77399 17.3327 5.75809C17.3674 5.74797 17.4043 5.73134 17.4383 5.73857C17.7751 5.81086 18.2913 6.39066 18.3202 6.72683C18.2674 7.06444 17.9653 7.15553 17.7347 7.31747V7.31675Z" fill="#F9B22D"/>
<path d="M20.9665 8.33547C20.4879 8.20967 20.0108 8.08171 19.5547 7.88363C19.6877 7.39854 19.9761 7.0443 20.4402 6.8397C20.5111 6.81657 20.5899 6.80211 20.6499 6.84621C20.96 7.07538 21.2318 7.34504 21.4574 7.65952C21.4928 7.70868 21.4733 7.77663 21.4725 7.83664C21.3352 8.034 21.1964 8.23136 20.9672 8.33547H20.9665Z" fill="#F8B42D"/>
<path d="M21.473 7.83731C21.1289 7.50548 20.7855 7.17292 20.4414 6.84037C20.6373 6.49119 20.7233 6.47167 20.9807 6.72326C21.1585 6.89748 21.3219 7.08834 21.5106 7.24883C21.7759 7.47367 21.7397 7.65729 21.4723 7.83658L21.473 7.83731Z" fill="#FDF6F1"/>
<path d="M18.3205 6.72615C18.0096 6.3842 17.7082 6.03357 17.333 5.75741C17.4971 5.40895 17.6135 5.37931 17.8701 5.62728C18.0588 5.81018 18.246 5.99526 18.4275 6.18539C18.653 6.42251 18.6292 6.53095 18.3205 6.72615Z" fill="#FCF7ED"/>
<path d="M8.44427 12.7033C8.53608 12.8718 8.81367 12.9282 8.74211 13.1949C8.70741 13.3251 8.68933 13.4978 8.50717 13.3019C8.44789 13.2383 8.36548 13.2188 8.31487 13.2694C7.978 13.6063 7.41342 13.4812 7.10547 13.8701C7.48716 13.4075 7.95704 13.046 8.44355 12.7033H8.44427Z" fill="#1D7C87"/>
<path d="M3.46722 19.0755C3.44915 19.3271 3.36674 19.5505 3.18457 19.7312C3.21638 19.4854 3.27566 19.2519 3.46722 19.0755Z" fill="#949091"/>
<path d="M17.5153 18.6431C17.722 18.4573 17.9288 18.2722 18.1355 18.0864C18.4586 18.0445 18.6892 17.8992 18.7369 17.5486C19.775 16.5719 20.868 15.6574 21.9596 14.7428C22.1064 14.6199 22.2517 14.4949 22.3977 14.3705C22.6182 14.2787 22.744 14.4305 22.8444 14.5737C23.4575 15.4434 24.0792 16.3073 24.682 17.1842C24.758 17.2948 24.8194 17.409 24.8107 17.5486C24.6589 18.0423 24.609 18.0713 24.1348 17.9035C24.0343 17.8681 23.9425 17.8515 23.8731 17.9397C23.7842 18.0517 23.6845 18.1696 23.6924 18.3221C23.6982 18.4378 23.8016 18.4465 23.8847 18.419C24.4739 18.2231 25.0218 18.419 25.5727 18.5903C25.9081 18.8036 26.0751 19.1607 26.2919 19.4687C26.6259 19.9437 27.025 20.3789 27.2512 20.9269C27.1919 21.1387 27.2295 21.3165 27.4211 21.4517C27.6206 21.5927 27.7247 21.8443 27.9741 21.9296C28.2373 22.1602 28.4187 22.4552 28.6045 22.7451C28.6732 22.8528 28.7382 22.9793 28.624 23.1051C28.4013 23.5461 27.9054 23.6393 27.5592 23.9263C27.3452 24.1035 27.0474 24.183 26.7835 24.2958C26.5319 24.4035 26.3498 24.3644 26.2609 24.063C26.0093 23.2056 25.5033 22.4689 25.1071 21.6802C25.0753 21.6165 25.0363 21.5536 24.9907 21.4994C24.9387 21.438 24.8845 21.3418 24.7898 21.3816C24.669 21.4322 24.7196 21.5471 24.742 21.6346C24.7746 21.7619 24.7999 21.9028 24.8729 22.0055C25.1975 22.4609 25.2719 23.0277 25.5568 23.5034C25.6565 23.6704 25.7418 23.8374 25.8972 23.9516C26.0975 24.0998 26.258 24.277 26.3194 24.5184C26.3866 24.7852 26.5652 24.817 26.7871 24.7722C26.9635 24.7368 27.1356 24.6767 27.3127 24.6486C27.5584 24.6095 27.7182 24.7165 27.6177 24.9703C27.3936 25.5356 27.2144 26.1371 26.6722 26.5101C26.6006 26.701 26.4286 26.667 26.2804 26.6807C26.1394 26.6937 25.997 26.6728 25.8452 26.701C25.9869 26.753 26.1705 26.7039 26.2269 26.8969C26.1466 27.1405 25.9789 27.3335 25.8372 27.5389C25.5958 27.8902 25.53 28.2553 25.6327 28.6695C25.7187 29.0187 25.7917 29.373 25.8004 29.7366C25.8083 30.0417 25.6992 30.2737 25.4331 30.4292C24.9842 30.6916 24.6929 31.0364 24.7912 31.604C24.8237 31.7934 24.7601 31.9582 24.5743 32.0608C24.4789 32.1136 24.3849 32.1931 24.3748 32.3052C24.3286 32.8301 23.9541 33.1713 23.6425 33.519C23.2644 33.9405 22.7158 33.9918 22.1714 33.9499C22.0247 33.9383 21.9835 33.8241 21.9705 33.6918C21.9589 33.5732 21.9661 33.4366 21.909 33.3405C21.4521 32.5698 21.4001 31.6668 21.077 30.855C20.9331 30.4935 20.9027 30.1465 21.0856 29.8118C21.3943 29.2479 21.1565 28.7129 21.0423 28.1685C20.975 27.8505 21.2917 27.8129 21.4059 27.6531C21.1924 27.7856 21.0227 27.829 20.897 27.7832C20.5254 27.4991 20.4668 27.1174 20.5435 26.6858C20.6382 26.1508 20.6338 26.1487 20.1119 26.0865C20.0121 26.0749 19.9218 26.0619 19.8704 25.9614C19.6796 25.5855 19.3731 25.6007 19.0782 25.7792C18.6119 26.0612 18.0878 25.9723 17.6042 25.986C17.2254 25.9968 16.921 25.6151 16.7128 25.2761C16.6058 25.1011 16.5155 24.9175 16.3637 24.7809C16.0254 24.4772 15.9769 24.1042 16.0868 23.6935C16.1627 23.4109 16.1887 23.1369 16.128 22.8419C16.0528 22.4754 16.2068 22.1631 16.4671 21.9028C16.6254 21.811 16.694 21.9238 16.7801 22.0286C16.9225 22.2028 17.0186 22.4089 17.1697 22.5766C17.234 22.6482 17.2825 22.7342 17.4003 22.6916C17.8319 22.3691 17.8839 21.9874 17.6324 21.5153C17.4827 21.2334 17.4025 20.9146 17.2912 20.6124C17.2456 20.35 17.3353 20.154 17.5594 20.0037C17.7184 19.8967 17.7733 19.7651 17.615 19.5887C17.2687 19.2027 17.2666 19.1145 17.5153 18.6438V18.6431Z" fill="#15BCAF"/>
<path d="M28.6226 23.1059C28.4209 22.7213 28.1534 22.3823 27.8924 22.0389C27.6112 21.6998 27.2368 21.4244 27.1479 20.9537C26.592 20.2127 26.1069 19.4196 25.5083 18.7097C25.3435 18.5261 25.1216 18.4104 24.9763 18.195C24.8389 17.9904 24.7385 17.7887 24.7153 17.5465C24.0228 16.5575 23.331 15.5678 22.6363 14.581C22.5755 14.495 22.5105 14.4039 22.3984 14.3714C22.7064 14.1386 22.9919 14.2147 23.2551 14.5998C24.7247 16.7477 26.1929 18.897 27.6655 21.0434C28.1462 21.7446 28.5944 22.4697 29.1279 23.1341C28.937 23.5245 28.7845 23.2469 28.6233 23.1059H28.6226Z" fill="#C6CACC"/>
<path d="M26.085 31.6082C26.2035 31.2323 26.3387 30.8369 26.3387 30.411C26.3387 30.3489 26.4283 30.2621 26.4963 30.2289C26.732 30.1154 26.9076 29.9462 27.0464 29.7286C27.0883 29.6628 27.1498 29.5789 27.2481 29.6086C27.358 29.6426 27.3703 29.7496 27.3746 29.845C27.3775 29.9151 27.3681 29.9896 27.3471 30.0568C27.1679 30.6294 26.9951 31.2034 26.7977 31.7694C26.7341 31.9509 26.6503 32.1945 26.3842 32.1302C26.1479 32.0731 26.1334 31.8367 26.085 31.6075V31.6082Z" fill="#15BBB0"/>
<path d="M17.4003 22.6908C17.31 22.9351 17.2073 22.8224 17.1018 22.7023C16.877 22.4464 16.757 22.1074 16.4671 21.9028C16.1917 21.2991 15.7485 20.8061 15.3748 20.2675C15.3466 20.227 15.2425 20.2386 15.1738 20.2263C15.4406 20.0051 15.6061 20.0846 15.7912 20.3651C16.3102 21.1516 16.8618 21.9172 17.4003 22.6915V22.6908Z" fill="#BECED3"/>
<path d="M12.431 17.7069C13.1973 18.2455 13.9549 18.7964 14.7334 19.3154C15.0103 19.5005 15.1065 19.6682 14.8896 19.9458C14.9322 19.7463 14.7797 19.6769 14.6532 19.588C13.9072 19.0617 13.1648 18.5303 12.4144 18.0113C12.2235 17.879 12.2134 17.7965 12.431 17.7069Z" fill="#BDCFD2"/>
<path d="M12.6058 22.6446C12.5516 22.7082 12.5103 22.7646 12.4619 22.8138C12.1662 23.1123 11.8691 23.4095 11.5735 23.708C11.494 23.7883 11.4325 23.862 11.3089 23.75C11.1766 23.6292 11.2315 23.554 11.3277 23.4579C11.6349 23.1543 11.9371 22.8456 12.245 22.5419C12.2985 22.4892 12.3542 22.3937 12.4518 22.4783C12.5046 22.5239 12.5472 22.5802 12.6058 22.6439V22.6446Z" fill="#E5FAFA"/>
<path d="M26.2254 26.8969C26.0114 26.8825 25.7974 26.8651 25.5835 26.8536C25.4758 26.8478 25.397 26.8152 25.3955 26.6902C25.3948 26.5543 25.4649 26.5008 25.5972 26.5022C25.955 26.5073 26.3121 26.508 26.67 26.5109C26.7632 26.5203 26.8572 26.5355 26.9505 26.5376C27.0813 26.5405 27.0979 26.6193 27.1015 26.7256C27.1052 26.8492 27.0495 26.8897 26.9324 26.8883C26.6967 26.8868 26.4611 26.8933 26.2254 26.8969Z" fill="#E7FAFB"/>
<path d="M19.5763 29.0911C19.6269 29.1294 19.6833 29.1699 19.7375 29.214C19.8156 29.2776 19.7838 29.3391 19.7289 29.3969C19.3971 29.7454 19.0653 30.0931 18.7334 30.4408C18.6546 30.5232 18.5881 30.495 18.5224 30.4213C18.4645 30.357 18.3959 30.2948 18.479 30.2073C18.818 29.8502 19.1585 29.4945 19.4997 29.1388C19.5156 29.1222 19.5395 29.1135 19.5763 29.0911Z" fill="#EAFBFB"/>
<path d="M20.8962 27.784C21.0762 27.6676 21.2526 27.5433 21.4391 27.4377C21.5388 27.3814 21.6494 27.2411 21.7702 27.4233C21.8858 27.5968 21.7477 27.6467 21.6393 27.7226C21.4347 27.865 21.2056 27.9749 21.0415 28.1701C20.8694 28.1867 20.8 28.3465 20.6822 28.4376C20.5701 28.5243 20.4971 28.5597 20.3887 28.4383C20.2788 28.3147 20.362 28.2532 20.4444 28.1809C20.5954 28.0493 20.7451 27.9163 20.8954 27.784H20.8962Z" fill="#EBF9FC"/>
<path d="M28.2945 26.8108C28.1752 26.8209 28.1181 26.7747 28.1102 26.6503C28.1029 26.5318 28.1456 26.4732 28.2627 26.4573C28.6928 26.398 29.0955 26.2527 29.4764 26.0481C29.6022 25.9809 29.6738 26.0206 29.7359 26.1334C29.7887 26.2289 29.762 26.2838 29.6723 26.3351C29.2422 26.5809 28.7774 26.7212 28.2945 26.8108Z" fill="#E9FAFA"/>
<path d="M16.444 32.1382C16.3573 32.123 16.3479 32.0413 16.3088 31.9835C16.2575 31.9076 16.2712 31.849 16.3479 31.8056C16.7671 31.57 17.1683 31.3068 17.5508 31.0147C17.6469 30.9417 17.7018 31.0343 17.7597 31.0906C17.837 31.1658 17.8269 31.2331 17.7416 31.2989C17.3606 31.5924 16.9681 31.8678 16.5401 32.089C16.5083 32.1057 16.4758 32.1216 16.444 32.1382Z" fill="#EAF9FB"/>
<path d="M31.6444 24.1418C31.6502 24.1888 31.6567 24.2365 31.6625 24.2835C31.3813 24.6551 31.147 25.0636 30.8167 25.3976C30.7429 25.472 30.6858 25.6239 30.5304 25.4952C30.3772 25.3687 30.4589 25.2805 30.5572 25.1749C30.8203 24.8944 31.0625 24.5922 31.2446 24.2568C31.3581 24.0478 31.481 24.0746 31.6437 24.1418H31.6444Z" fill="#EDF9FB"/>
<path d="M10.3357 25.2226C10.1745 25.3729 10.0942 25.5761 9.98437 25.7597C9.90412 25.8935 9.834 26.0142 9.65328 25.8992C9.47617 25.7865 9.63087 25.6881 9.67569 25.6028C9.80437 25.3607 9.95184 25.1279 10.0914 24.8915C10.1832 24.7823 10.275 24.6731 10.3661 24.5632C10.4326 24.483 10.4788 24.376 10.6176 24.4852C10.7485 24.5886 10.7217 24.6702 10.6364 24.7816C10.5287 24.9225 10.4355 25.0751 10.3357 25.2226Z" fill="#EBFBFD"/>
<path d="M14.0323 32.846C13.939 32.8106 13.7431 32.958 13.7207 32.705C13.6961 32.4245 13.9115 32.5257 14.0424 32.512C14.4017 32.4737 14.7573 32.4223 15.105 32.3204C15.2214 32.2864 15.3458 32.2553 15.3927 32.4289C15.4419 32.6125 15.3002 32.6248 15.1903 32.6559C14.8188 32.7592 14.44 32.825 14.0323 32.846Z" fill="#F0FAFC"/>
<path d="M14.5659 20.744C14.5168 20.8025 14.4828 20.8503 14.4416 20.89C14.1329 21.1908 13.8192 21.4864 13.5156 21.7922C13.4093 21.8992 13.3327 21.9144 13.2228 21.7973C13.1035 21.6708 13.2011 21.6093 13.2777 21.5363C13.5886 21.2377 13.8994 20.9385 14.2139 20.6435C14.2659 20.5951 14.3115 20.4823 14.4134 20.5806C14.4626 20.6283 14.5081 20.6811 14.5659 20.7425V20.744Z" fill="#EEFCFD"/>
<path d="M29.4406 17.8297C29.1182 18.2411 28.7069 18.5418 28.2486 18.784C28.0223 18.296 27.8951 17.7763 27.752 17.2615C27.9493 17.0909 28.1467 16.9203 28.3433 16.7497C28.4279 16.7287 28.5146 16.7273 28.5826 16.7837C28.8761 17.0287 29.1414 17.3027 29.3922 17.5897C29.45 17.6562 29.4486 17.7444 29.4399 17.829L29.4406 17.8297Z" fill="#F6B32C"/>
<path d="M26.9531 13.8804C27.0543 13.7994 27.1555 13.7185 27.2567 13.6375C27.2921 13.631 27.3369 13.6144 27.363 13.631C27.7895 13.8978 28.1892 14.1905 28.3483 14.7038C28.0649 15.1094 27.6818 15.3935 27.2451 15.6126C27.0348 15.1362 26.9198 14.6287 26.7637 14.1349C26.8034 14.0329 26.8417 13.9296 26.9531 13.8804Z" fill="#F7B42C"/>
<path d="M17.5155 18.6432C17.5899 18.7639 17.4974 18.8767 17.5003 18.9931C17.5046 19.1731 17.5111 19.3422 17.707 19.4529C18.0085 19.6235 18.0171 19.8837 17.7186 20.0955C17.5241 20.2336 17.3745 20.3898 17.2914 20.611C17.1489 20.2423 17.0109 19.8722 16.8612 19.5064C16.7991 19.3545 16.8012 19.2403 16.9422 19.1311C17.1403 18.9772 17.3253 18.8065 17.5155 18.6424V18.6432Z" fill="#0F7985"/>
<path d="M28.9145 5.53107C29.1559 5.53107 29.5824 5.95544 29.5687 6.13906C29.5557 6.31329 29.4104 6.34004 29.3135 6.26702C29.135 6.13328 28.9709 5.9699 28.8371 5.79133C28.7641 5.69373 28.8299 5.57228 28.9145 5.53035V5.53107Z" fill="#30B7AB"/>
<path d="M18.7362 17.5493C18.8692 17.7069 18.8634 17.8992 18.7514 18.0323C18.5844 18.2303 18.3495 18.1537 18.1348 18.0865C18.335 17.9072 18.536 17.7279 18.7362 17.5486V17.5493Z" fill="#127D81"/>
<path d="M27.9453 5.54271C28.1463 5.44656 28.3039 5.41041 28.473 5.42632C28.5482 5.43355 28.6191 5.4509 28.6104 5.54777C28.6017 5.64031 28.5338 5.66055 28.4564 5.64681C28.3068 5.61934 28.1578 5.58681 27.946 5.54271H27.9453Z" fill="#59BAAA"/>
<path d="M29.5709 7.1418C29.5282 6.93287 29.4906 6.78611 29.4711 6.63719C29.461 6.56055 29.5065 6.4991 29.5955 6.50706C29.667 6.51356 29.6887 6.56995 29.6865 6.63357C29.6829 6.78539 29.6786 6.93721 29.5709 7.14252V7.1418Z" fill="#58BAAD"/>
<path d="M26.9531 13.8803C26.9242 13.9902 26.862 14.0755 26.7637 14.1348C26.7225 14.0329 26.656 13.9389 26.6712 13.8211C26.7514 13.9064 26.854 13.8847 26.9524 13.8803H26.9531Z" fill="#64B493"/>
<path d="M9.71119 29.5306C9.82613 29.527 9.84131 29.6261 9.87239 29.6969C10.0387 30.0707 10.2367 30.4249 10.4934 30.7445C10.5736 30.8442 10.5982 30.9216 10.4854 31.0163C10.3697 31.1139 10.296 31.0698 10.2194 30.9693C9.94324 30.6049 9.71263 30.216 9.53697 29.7923C9.45818 29.6022 9.56878 29.5617 9.71119 29.5306Z" fill="#E7FBFB"/>
<path d="M12.7171 32.4708C12.7005 32.5749 12.668 32.6905 12.5198 32.6435C12.0477 32.4953 11.6097 32.277 11.2207 31.9676C11.1448 31.9069 11.1116 31.8404 11.1832 31.7558C11.2475 31.6806 11.3169 31.604 11.4232 31.6871C11.7759 31.964 12.1742 32.1541 12.5914 32.3095C12.6629 32.3363 12.7208 32.3732 12.7171 32.4715V32.4708Z" fill="#E7FAFC"/>
<path d="M9.48421 27.1332C9.42927 27.528 9.44445 27.9234 9.47843 28.3181C9.48999 28.4541 9.4806 28.5567 9.31361 28.5719C9.13939 28.5878 9.16108 28.4504 9.1459 28.3543C9.07939 27.9379 9.07722 27.52 9.14228 27.1029C9.15963 26.9908 9.1712 26.8506 9.35481 26.8853C9.50734 26.9142 9.49505 27.0226 9.48421 27.1332Z" fill="#E6FCFC"/>
<path d="M29.4394 17.8298C29.0736 17.4698 28.7078 17.1098 28.3428 16.7497C28.5539 16.4743 28.7584 16.4403 28.9905 16.7389C29.1213 16.9066 29.276 17.062 29.4416 17.1951C29.7192 17.4177 29.6931 17.6187 29.4394 17.8298Z" fill="#F4FAF4"/>
<path d="M28.3484 14.7038C27.9848 14.3488 27.6205 13.9931 27.2568 13.6382C27.4585 13.3577 27.6617 13.3591 27.8858 13.6201C28.0332 13.7914 28.1872 13.9628 28.3621 14.103C28.6354 14.3221 28.5848 14.5093 28.3477 14.7038H28.3484Z" fill="#F5FAF2"/>
<path d="M32.5192 21.8233C32.6486 21.8796 32.778 21.91 32.7036 22.0821C32.551 22.4334 32.4021 22.7869 32.251 23.139C32.2163 23.22 32.1751 23.2981 32.066 23.246C31.9944 23.2113 31.8766 23.1867 31.9192 23.0783C32.0768 22.6778 32.2467 22.2816 32.418 21.8869C32.4325 21.8536 32.491 21.8399 32.5192 21.8233Z" fill="#E5FBFC"/>
<path d="M21.6465 19.15C21.8727 18.8463 21.8872 18.6425 21.5438 18.4986C21.3508 18.4176 21.2337 18.2362 21.1029 18.0793C21.0465 18.0121 21.0067 17.9231 21.0718 17.8494C21.1636 17.7446 21.2417 17.8393 21.3183 17.892C21.8308 18.2434 22.2299 18.6851 22.4503 19.2765C22.4952 19.3972 22.5465 19.5555 22.7265 19.4673C22.8906 19.3871 22.9462 19.2505 22.8378 19.0791C22.7467 18.9353 22.7887 18.8181 22.9318 18.7531C23.1009 18.6757 23.1703 18.803 23.2238 18.9316C23.2701 19.043 23.3041 19.1586 23.3496 19.27C23.4364 19.4796 23.5831 19.5931 23.8224 19.5837C24.0501 19.5751 24.2807 19.6061 24.507 19.5852C24.8178 19.5563 24.8749 19.7131 24.8605 19.9741C24.8337 20.4592 24.7101 20.5351 24.2482 20.6045C23.7299 20.6826 23.2809 20.5098 22.8154 20.3631C22.5797 20.2886 22.3679 20.2402 22.2783 20.5662C22.2125 20.804 22.0289 20.7636 21.8713 20.684C21.5207 20.5076 21.2135 20.2496 20.8166 20.1606C20.6395 20.1209 20.7298 19.9625 20.7371 19.8541C20.7551 19.5707 20.6532 19.4232 20.346 19.4362C19.8212 19.4587 19.2898 19.4138 18.8163 19.7233C18.6732 19.8165 18.4939 19.8122 18.324 19.7948C18.2503 19.7876 18.1744 19.7724 18.1701 19.6784C18.1665 19.591 18.2315 19.5375 18.3038 19.5353C18.7346 19.523 18.8865 19.2259 19.0809 18.8969C19.2754 18.5687 19.4966 18.1834 19.9954 18.1964C20.0922 18.1993 20.1927 18.1162 20.2889 18.0677C20.4139 18.0048 20.531 18.0106 20.6055 18.1328C20.7645 18.3916 21.0139 18.5376 21.2662 18.6764C21.4455 18.7755 21.5258 18.949 21.6458 19.1485L21.6465 19.15Z" fill="#0D7886"/>
<path d="M24.7151 17.5464C24.9884 17.9281 25.3101 18.2765 25.5081 18.7096C24.9168 18.5628 24.3291 18.3495 23.724 18.6611C23.5975 18.7262 23.544 18.685 23.5137 18.5324C23.4457 18.1927 23.6264 17.9541 23.8079 17.7177C23.9011 17.5962 24.037 17.6172 24.1643 17.6996C24.5373 17.9425 24.538 17.9411 24.7144 17.5464H24.7151Z" fill="#0D7986"/>
<path d="M24.3655 26.7024C24.3691 26.8333 24.2983 26.8716 24.1855 26.881C23.7655 26.915 23.3563 27.0089 22.9537 27.1253C22.825 27.1622 22.7455 27.147 22.705 27.014C22.6631 26.8745 22.739 26.8239 22.8597 26.787C23.2739 26.6612 23.6968 26.581 24.1269 26.5325C24.2563 26.5181 24.3749 26.5311 24.3655 26.7024Z" fill="#E4FBFB"/>
<path d="M27.1472 20.9528C27.3952 21.3143 27.6439 21.6765 27.8918 22.038C27.5101 21.8124 27.2506 21.4798 27.0641 21.0866C27.0352 21.0251 27.0851 20.9767 27.1472 20.9528Z" fill="#197D7E"/>
</svg>
