<svg width="92" height="70" viewBox="0 0 92 70" fill="none" xmlns="http://www.w3.org/2000/svg">
<path d="M5.50565 -0.000173418L63.7286 -0.000168328C66.7568 -0.000168063 69.2344 2.47744 69.2344 5.50563L69.2344 63.7286C69.2344 66.7568 66.7568 69.2344 63.7286 69.2344L5.50564 69.2344C2.47745 69.2344 -0.000160001 66.7568 -0.000159736 63.7286L-0.000154646 5.50563C-0.000154381 2.47743 2.47745 -0.000173683 5.50565 -0.000173418Z" fill="#FFBBD9"/>
<path d="M28.2044 -0.000173418L86.4273 -0.000168328C89.4555 -0.000168063 91.9331 2.47745 91.9331 5.50563L91.9331 63.7286C91.9331 66.7568 89.4555 69.2344 86.4273 69.2344L28.2044 69.2344C25.1762 69.2344 22.6986 66.7568 22.6986 63.7286L22.6986 5.50563C22.6986 2.47744 25.1762 -0.000173683 28.2044 -0.000173418Z" fill="#F33287"/>
<path d="M10.1258 5.69556L12.6309 5.69556C15.6591 5.69556 18.1367 8.17318 18.1367 11.2014L18.1367 58.0333C18.1367 61.0615 15.6591 63.5391 12.6309 63.5391L10.1258 63.5391C7.09759 63.5391 4.61998 61.0615 4.61998 58.0333L4.61998 11.2014C4.61998 8.17317 7.0976 5.69556 10.1258 5.69556Z" fill="#F33287"/>
<path d="M33.905 5.70044L80.7369 5.70045C83.7651 5.70045 86.2427 8.17805 86.2427 11.2062L86.2427 58.0381C86.2427 61.0663 83.7651 63.5439 80.7369 63.5439L33.905 63.5439C30.8768 63.5439 28.3992 61.0663 28.3992 58.0381L28.3992 11.2062C28.3992 8.17805 30.8768 5.70044 33.905 5.70044Z" fill="#FFBBD9"/>
<path d="M58.2367 33.05C58.417 32.8024 58.6648 32.7349 58.9802 32.8475C60.1744 33.2751 61.2334 33.8828 62.1572 34.7156C62.405 34.9632 62.4501 35.2333 62.2923 35.5034L60.2195 38.7896C59.9942 39.0822 59.7238 39.1047 59.4309 38.8797C59.138 38.6546 58.1015 37.9793 56.299 36.9214C56.0061 36.7414 55.9611 36.4938 56.1413 36.2012L58.2367 33.05ZM53.9332 26.3876C51.2295 27.9857 49.3594 29.8764 48.3004 32.0597C47.2415 34.243 46.8809 36.3362 47.2189 38.317C47.9399 42.616 50.869 45.272 56.0061 46.2849C60.2871 47.1402 66.0551 47.1177 73.2876 46.2173C74.4367 46.0823 75 46.2849 75 46.8251C75 47.2527 74.3917 47.6579 73.1975 48.063C72.0033 48.4456 70.8317 49.0534 69.7277 49.8637C68.6011 50.674 67.9026 51.1466 67.6097 51.3042C67.3168 51.4392 67.0014 51.5293 66.686 51.5743C58.0565 52.6097 52.0406 51.7543 48.6384 49.0309C45.9121 46.8701 44.7179 43.4038 45.0559 38.6771C45.5967 31.2269 48.5933 25.7799 54.0234 22.3812C51.3872 21.976 49.2467 22.2011 47.5794 23.0339C46.8584 23.394 46.4979 23.1014 46.5204 22.1336C46.6331 18.7798 48.5032 17.0692 52.1533 17.0017C52.8292 16.9792 54.2937 17.1818 56.5919 17.5644C60.3321 18.2171 64.1624 18.2397 68.0829 17.5869C69.5925 17.3168 70.1558 17.6544 69.7727 18.5773L68.511 21.5934C68.2857 22.1336 67.9702 22.4487 67.5421 22.4937C61.9769 23.0114 57.4707 24.2944 53.9332 26.3876Z" fill="#F33287"/>
</svg>
