<svg width="92" height="70" viewBox="0 0 92 70" fill="none" xmlns="http://www.w3.org/2000/svg">
<path d="M5.50565 -0.000173418L63.7286 -0.000168328C66.7568 -0.000168063 69.2344 2.47745 69.2344 5.50563L69.2344 63.7286C69.2344 66.7568 66.7568 69.2344 63.7286 69.2344L5.50564 69.2344C2.47745 69.2344 -0.000160001 66.7568 -0.000159736 63.7286L-0.000154646 5.50563C-0.000154381 2.47744 2.47745 -0.000173683 5.50565 -0.000173418Z" fill="#FEFF99"/>
<path d="M28.2044 -0.000173418L86.4273 -0.000168328C89.4555 -0.000168063 91.9331 2.47744 91.9331 5.50563L91.9331 63.7286C91.9331 66.7568 89.4555 69.2344 86.4273 69.2344L28.2044 69.2344C25.1762 69.2344 22.6986 66.7568 22.6986 63.7286L22.6986 5.50563C22.6986 2.47743 25.1762 -0.000173683 28.2044 -0.000173418Z" fill="#CCAE2E"/>
<path d="M10.1258 5.69556L12.6309 5.69556C15.6591 5.69556 18.1367 8.17318 18.1367 11.2014L18.1367 58.0333C18.1367 61.0615 15.6591 63.5391 12.6309 63.5391L10.1258 63.5391C7.09759 63.5391 4.61998 61.0615 4.61998 58.0333L4.61998 11.2014C4.61998 8.17317 7.0976 5.69556 10.1258 5.69556Z" fill="#CCAE2E"/>
<path d="M33.905 5.70044L80.7369 5.70045C83.7651 5.70045 86.2427 8.17805 86.2427 11.2062L86.2427 58.0381C86.2427 61.0663 83.7651 63.5439 80.7369 63.5439L33.905 63.5439C30.8768 63.5439 28.3992 61.0663 28.3992 58.0381L28.3992 11.2062C28.3992 8.17805 30.8768 5.70044 33.905 5.70044Z" fill="#FEFF99"/>
<path d="M73.8498 23.6493C74.0535 22.8578 74.4836 22.7899 75.0947 23.4458C75.7058 24.1017 76 25.1647 76 26.6122C76 29.4166 75.4568 31.6783 74.393 33.3746C74.0309 33.9174 73.533 34.3019 72.8992 34.4602C71.6091 34.8221 70.1832 34.3924 68.5988 33.2163C67.2182 35.4328 65.3396 36.4505 62.9857 36.2922C62.8047 38.5765 62.4199 40.6346 61.7862 42.4892C61.1751 44.3212 60.0434 45.8818 58.4138 47.1257C54.9508 49.8171 51.2616 51.1062 47.3912 50.9932C42.5024 50.8575 39.4469 48.6184 38.2247 44.276C37.8852 43.0773 37.9304 41.4036 38.3605 39.255C38.7905 37.1064 39.6506 34.8447 40.9407 32.4247C41.167 32.0176 41.4386 31.9045 41.7102 32.0855C42.0045 32.2664 42.0497 32.5604 41.8687 32.9449C40.4428 36.36 39.8769 38.6217 40.1938 39.6847C41.167 43.2582 43.7246 45.0675 47.8665 45.0675C53.955 45.0902 58.1874 43.3034 60.5866 39.6621C60.6545 37.8075 59.9528 35.4554 58.4817 32.583C58.2327 32.0854 58.1874 31.6557 58.3685 31.3165L60.1792 27.8787C60.4508 27.3585 60.8582 27.4716 61.3788 28.1727C61.8993 28.8965 62.3746 29.7107 62.8047 30.6606C65.9734 31.1355 68.0104 29.5297 68.8704 25.7753C69.0289 25.1421 69.3005 24.8254 69.6853 24.8481C70.3643 24.9159 70.5227 25.8206 70.2058 27.5395C71.1564 28.1501 72.2655 28.4441 73.4651 28.4215C73.4651 28.3084 73.3066 27.9918 73.0124 27.5168C72.9218 27.3585 72.9218 27.0419 73.0576 26.5895L73.8498 23.6493Z" fill="#CCAE2E"/>
</svg>
