<svg width="310" height="367" viewBox="0 0 310 367" fill="none" xmlns="http://www.w3.org/2000/svg">
<g filter="url(#filter0_d_3070_56)">
<path d="M2.00024 76C2.00024 64.9543 10.9546 56 22.0002 56H288C299.046 56 308 64.9543 308 76V363H2.00024V76Z" fill="#BDE5FF"/>
<path d="M35.5 246.906H38.4062V259.562C38.4688 264.188 36.4375 266.469 32.3125 266.406C28.4375 266.469 26.2812 264.469 25.8438 260.406L28.6562 259.656C28.7812 262.656 29.9688 264.125 32.2188 264.062C34.4688 264.125 35.5625 262.594 35.5 259.469V246.906ZM42.4375 258.062V246.906H45.4375V258.062C45.4375 262.125 47.1562 264.125 50.5938 264.062C54.0312 264.062 55.75 262.031 55.75 257.969V246.906H58.75V257.969C58.75 263.594 56 266.406 50.5 266.406C45.125 266.406 42.4375 263.625 42.4375 258.062ZM71.0312 266.125L65.0312 249.25H64.9375V266.125H62.125V246.906H66.9062L72.3438 262.938H72.4375L77.6875 246.906H82.5625V266.125H79.6562V249.25H79.5625C79.1875 250.688 77.2812 256.312 73.8438 266.125H71.0312ZM96.3438 246.906L104.031 266.125H100.844L98.875 260.969H90.3438L88.375 266.125H85.1875L92.875 246.906H96.3438ZM94.6562 249.438H94.5625C94.375 250 94.1875 250.562 94 251.125C93.9375 251.25 92.9688 253.75 91.0938 258.625H98.125C96.25 253.75 95.2812 251.25 95.2188 251.125C95.2188 251.062 95.1875 250.938 95.125 250.75C94.8125 250 94.6562 249.562 94.6562 249.438ZM112.562 266.125H106.094V246.906H112.469C118.906 247.031 122.188 250.219 122.312 256.469C122.438 263.031 119.188 266.25 112.562 266.125ZM112.375 249.344H109V263.875H112.375C116.938 263.875 119.219 261.406 119.219 256.469C119.094 251.844 116.812 249.469 112.375 249.344ZM134.875 246.906L142.562 266.125H139.375L137.406 260.969H128.875L126.906 266.125H123.719L131.406 246.906H134.875ZM133.188 249.438H133.094C132.906 250 132.719 250.562 132.531 251.125C132.469 251.25 131.5 253.75 129.625 258.625H136.656C134.781 253.75 133.812 251.25 133.75 251.125C133.75 251.062 133.719 250.938 133.656 250.75C133.344 250 133.188 249.562 133.188 249.438ZM160.375 246.906L168.062 266.125H164.875L162.906 260.969H154.375L152.406 266.125H149.219L156.906 246.906H160.375ZM158.688 249.438H158.594C158.406 250 158.219 250.562 158.031 251.125C157.969 251.25 157 253.75 155.125 258.625H162.156C160.281 253.75 159.312 251.25 159.25 251.125C159.25 251.062 159.219 250.938 159.156 250.75C158.844 250 158.688 249.562 158.688 249.438ZM183.25 266.125H170.125V246.906H173.031V263.875H183.25V266.125ZM198.906 257.688H185.781V255.625H198.906V257.688ZM217.188 249.344H210.625V266.125H207.719V249.344H201.062V246.906H217.188V249.344ZM236.125 266.125H233.125V257.594H222.906V266.125H220V246.906H222.906V255.062H233.125V246.906H236.125V266.125ZM249.344 246.906L257.031 266.125H253.844L251.875 260.969H243.344L241.375 266.125H238.188L245.875 246.906H249.344ZM247.656 249.438H247.562C247.375 250 247.188 250.562 247 251.125C246.938 251.25 245.969 253.75 244.094 258.625H251.125C249.25 253.75 248.281 251.25 248.219 251.125C248.219 251.062 248.188 250.938 248.125 250.75C247.812 250 247.656 249.562 247.656 249.438ZM259.281 246.906H262.75L272.5 262.656H272.594V246.906H275.406V266.125H272.031L262.094 250.281V266.125H259.281V246.906ZM279.812 266.125V246.906H282.719V266.125H279.812Z" fill="#242424"/>
<g filter="url(#filter1_d_3070_56)">
<circle cx="155" cy="64" r="64" fill="url(#paint0_radial_3070_56)"/>
<circle cx="155" cy="64" r="64" stroke="white"/>
<g filter="url(#filter2_d_3070_56)">
<path d="M192.922 44.7021V97.1517C192.922 100.714 190.031 103.602 186.465 103.602H122.762C119.196 103.602 116.305 100.714 116.305 97.1517V44.7021L118.363 42.6057H190.582L192.922 44.7021Z" fill="white"/>
<path d="M192.922 33.4646V44.8409H116.305V33.4646C116.305 29.8879 119.173 26.9883 122.71 26.9883H186.517C190.054 26.9883 192.922 29.8879 192.922 33.4641L192.922 33.4646Z" fill="url(#paint1_linear_3070_56)"/>
<path d="M129.127 36.3625C130.431 36.3625 131.488 35.3055 131.488 34.0016C131.488 32.6977 130.431 31.6406 129.127 31.6406C127.823 31.6406 126.766 32.6977 126.766 34.0016C126.766 35.3055 127.823 36.3625 129.127 36.3625Z" fill="url(#paint2_radial_3070_56)"/>
<path d="M129.13 23.8164H129.129C128.342 23.8164 127.703 24.4548 127.703 25.2422V33.1849C127.703 33.9723 128.342 34.6107 129.129 34.6107H129.13C129.917 34.6107 130.556 33.9723 130.556 33.1849V25.2422C130.556 24.4548 129.917 23.8164 129.13 23.8164Z" fill="url(#paint3_linear_3070_56)"/>
<path d="M146.096 36.3625C147.399 36.3625 148.457 35.3055 148.457 34.0016C148.457 32.6977 147.399 31.6406 146.096 31.6406C144.792 31.6406 143.735 32.6977 143.735 34.0016C143.735 35.3055 144.792 36.3625 146.096 36.3625Z" fill="url(#paint4_radial_3070_56)"/>
<path d="M146.098 23.8164H146.098C145.31 23.8164 144.672 24.4548 144.672 25.2422V33.1849C144.672 33.9723 145.31 34.6107 146.098 34.6107H146.098C146.886 34.6107 147.524 33.9723 147.524 33.1849V25.2422C147.524 24.4548 146.886 23.8164 146.098 23.8164Z" fill="url(#paint5_linear_3070_56)"/>
<path d="M163.06 36.3625C164.364 36.3625 165.421 35.3055 165.421 34.0016C165.421 32.6977 164.364 31.6406 163.06 31.6406C161.756 31.6406 160.699 32.6977 160.699 34.0016C160.699 35.3055 161.756 36.3625 163.06 36.3625Z" fill="url(#paint6_radial_3070_56)"/>
<path d="M163.063 23.8164H163.063C162.275 23.8164 161.637 24.4548 161.637 25.2422V33.1849C161.637 33.9723 162.275 34.6107 163.063 34.6107H163.063C163.851 34.6107 164.489 33.9723 164.489 33.1849V25.2422C164.489 24.4548 163.851 23.8164 163.063 23.8164Z" fill="url(#paint7_linear_3070_56)"/>
<path d="M180.037 36.3625C181.341 36.3625 182.398 35.3055 182.398 34.0016C182.398 32.6977 181.341 31.6406 180.037 31.6406C178.733 31.6406 177.676 32.6977 177.676 34.0016C177.676 35.3055 178.733 36.3625 180.037 36.3625Z" fill="url(#paint8_radial_3070_56)"/>
<path d="M180.04 23.8164H180.039C179.252 23.8164 178.614 24.4548 178.614 25.2422V33.1849C178.614 33.9723 179.252 34.6107 180.039 34.6107H180.04C180.827 34.6107 181.466 33.9723 181.466 33.1849V25.2422C181.466 24.4548 180.827 23.8164 180.04 23.8164Z" fill="url(#paint9_linear_3070_56)"/>
</g>
</g>
<line x1="70.5862" y1="303.473" x2="1.99998" y2="303.473" stroke="url(#paint10_linear_3070_56)"/>
<line x1="239.414" y1="303.527" x2="308.001" y2="303.527" stroke="url(#paint11_linear_3070_56)"/>
<rect x="64.2542" y="300.863" width="182.545" height="5.27586" rx="2.63793" fill="url(#paint12_radial_3070_56)"/>
</g>
<g clip-path="url(#clip0_3070_56)">
<path d="M197.057 220.481C194.606 221.497 192.215 222.714 189.691 223.504C184.291 225.211 178.903 227.105 173.37 228.172C167.727 229.263 162.036 228.297 156.878 225.575C151.272 222.614 149.804 217.03 149.185 211.146C148.117 201.033 151.151 192.199 157.206 184.345C160.033 180.681 159.827 179.665 155.483 178.184C153.748 177.595 151.758 177.795 149.84 177.632C149.258 174.144 151.806 169.439 155.058 168.511C161.926 166.566 168.795 166.578 175.699 168.46C178.357 169.188 178.697 170.769 177.957 173.191C176.974 176.378 175.348 178.762 171.986 179.577C171.21 179.765 170.542 180.506 169.826 180.982C170.494 181.685 171.04 182.576 171.828 183.065C176.998 186.252 181.925 185.6 186.512 181.284C188.332 179.577 190.213 177.921 192.057 176.24C192.3 176.39 192.53 176.541 192.773 176.691C192.615 177.871 192.458 179.063 192.324 180.242C191.815 184.721 193.744 187.068 197.991 186.365C200.709 185.926 203.33 184.634 205.891 183.492C207.65 182.701 207.675 181.409 206.607 179.69C204.592 176.44 202.979 172.94 200.964 169.703C199.29 167.018 199.787 164.42 200.552 160.782C202.833 163.366 204.653 165.437 206.716 167.758C204.398 169.063 204.969 170.393 206.158 171.949C207.201 173.329 208.112 174.885 208.815 176.478C210.684 180.694 209.944 184.972 206.352 187.72C203.901 189.59 200.988 191.045 198.064 191.986C193.999 193.279 190.965 190.945 190.152 186.604C190.055 186.114 189.934 185.637 189.703 184.646C188.757 185.374 188.113 185.926 187.422 186.39C185.08 187.984 182.883 189.979 180.323 191.02C175.166 193.115 170.688 191.409 166.805 187.444C163.735 184.307 163.371 184.169 160.664 187.557C157.619 191.371 154.379 195.349 152.583 199.841C148.566 209.866 152.935 217.582 163.128 220.092C173.6 222.676 184.012 221.484 194.436 219.753C195.2 219.627 195.965 219.552 196.741 219.464C196.85 219.816 196.948 220.154 197.057 220.506V220.481ZM170.263 173.918C168.224 172.137 163.334 172.074 160.664 173.793C164.099 177.369 165.13 177.381 170.263 173.918Z" fill="#0A4F7D"/>
<path d="M79.7254 193.128C79.24 196.265 78.7789 199.414 78.2814 202.551C76.9829 210.882 81.9339 217.143 90.1128 217.507C96.8476 217.808 102.757 215.148 108.473 211.961C111.3 210.393 113.909 208.385 116.53 206.453C118.545 204.972 119.018 203.141 117.513 200.794C115.729 198.021 114.249 195.035 112.489 192.25C110.572 189.238 110.9 186.177 111.749 182.965C114.589 184.006 116.712 187.657 116.53 190.506C116.47 191.396 117.149 192.425 117.671 193.253C122.743 201.196 121.287 209.678 113.679 215.01C107.114 219.602 100.136 223.304 92.115 224.37C84.1425 225.424 77.4926 221.635 76.4733 214.583C75.7816 209.841 76.3398 204.847 76.7402 200.004C76.9344 197.607 78.0508 195.286 78.7546 192.94C79.0701 193.003 79.3978 193.065 79.7133 193.128H79.7254Z" fill="#0A4F7D"/>
<path d="M194.933 194.709C194.933 196.051 194.897 197.407 194.933 198.749C195.14 204.533 198.756 208.297 204.301 207.733C207.626 207.394 211.218 206.528 214.033 204.759C218.463 201.974 222.394 198.297 226.435 194.872C228.17 193.404 228.086 191.71 226.884 189.615C224.773 185.951 222.831 182.149 221.302 178.197C220.659 176.541 221.266 174.383 221.302 172.45C221.715 172.338 222.139 172.212 222.552 172.099C224.688 174.458 226.811 176.817 229.202 179.452C228.098 179.878 227.406 180.142 226.605 180.468C226.726 180.97 226.726 181.434 226.933 181.723C232.308 188.937 231.653 198.912 223.207 205.437C219.276 208.473 215.271 211.71 210.806 213.655C198.719 218.925 193.113 210.769 193.295 200.079C193.319 198.26 193.914 196.453 194.242 194.646L194.933 194.721V194.709Z" fill="#0A4F7D"/>
<path d="M141.152 195.173C144.428 198.385 145.108 204.496 142.875 210.117C141.176 214.408 137.669 216.779 133.167 216.679C129.43 216.591 126.833 214.972 125.947 211.233C124.806 206.39 123.957 201.422 123.496 196.465C122.792 188.987 122.549 181.459 122.088 173.956C121.967 171.974 121.772 170.004 121.53 168.034C121.275 165.913 120.741 164.082 117.489 166.215C117.489 162.864 117.283 160.117 117.61 157.444C117.719 156.528 119.079 155.349 120.037 155.123C120.717 154.96 122.185 156.051 122.464 156.88C123.411 159.715 124.394 162.639 124.6 165.587C125.194 173.705 125.194 181.873 125.862 189.991C126.299 195.361 127.306 200.694 128.386 205.976C128.908 208.523 130.752 211.02 133.373 210.619C136.104 210.205 138.834 208.649 141.103 206.942C141.698 206.503 140.97 203.366 140.132 201.898C138.628 199.276 138.749 197.231 141.164 195.161L141.152 195.173Z" fill="#0A4F7D"/>
<path d="M137.487 183.718C136.977 184.809 136.577 185.901 135.994 186.892C135.096 188.41 133.956 188.348 132.742 187.206C131.844 186.365 130.971 185.499 129.976 184.784C128.046 183.404 128.034 182.162 129.466 180.192C131.25 177.733 132.742 177.494 134.66 179.803C135.048 180.267 135.594 180.593 136.007 181.045C137.402 182.551 138.676 182.827 139.841 180.782C141.091 178.586 142.584 178.235 144.392 180.142C144.744 180.506 145.168 180.794 145.569 181.108C148.687 183.592 148.542 186.503 145.047 188.322C144.44 188.636 143.215 188.084 142.474 187.607C141.127 186.742 139.926 185.65 137.475 183.705L137.487 183.718Z" fill="#0A4F7D"/>
<path d="M154.706 158.624C155.774 157.181 156.854 155.75 157.922 154.295C158.589 153.379 159.451 152.526 159.791 151.497C160.106 150.531 160.131 149.238 159.73 148.36C159.548 147.946 158.031 148.147 157.133 148.159C156.66 148.159 156.199 148.348 155.507 148.122C156.332 146.227 157.145 144.169 159.754 144.772C162.084 145.311 162.642 147.419 162.157 149.452C161.647 151.585 160.531 153.555 160.215 156.152C162.63 154.006 165.045 151.861 168.406 148.862C167.023 148.034 165.628 147.683 165.409 146.955C165.045 145.75 165.045 144.056 165.615 143.003C166.137 142.049 167.788 141.008 168.661 141.221C169.499 141.422 170.251 143.128 170.542 144.307C172.023 150.292 167.424 153.053 163.989 155.913C161.696 157.821 158.347 158.36 155.459 159.514C155.216 159.226 154.961 158.925 154.718 158.636L154.706 158.624Z" fill="#0A4F7D"/>
<path d="M170.263 197.657C171.319 198.536 172.253 199.301 173.2 200.079C174.122 200.832 175.069 201.585 175.809 202.187C176.258 202.099 176.379 202.112 176.452 202.049C180.335 198.486 181.209 198.561 184.922 202.363C186.682 204.157 185.092 205.148 184.218 206.265C183.345 207.381 182.665 209.314 180.711 207.695C180.165 207.243 179.583 206.804 179.085 206.302C177.314 204.533 175.736 203.793 173.976 206.478C173.612 207.03 172.023 206.842 171.003 206.779C170.603 206.754 170.227 206.164 169.838 205.838C165.713 202.325 165.725 201.685 170.287 197.67L170.263 197.657Z" fill="#0A4F7D"/>
<path d="M135.266 139C132.621 142.965 131.541 146.93 134.854 150.744C138.288 154.709 142.232 154.044 146.345 151.12C145.265 155.098 142.062 156.93 137.439 156.629C133.568 156.378 130.291 153.391 129.612 149.615C128.896 145.662 130.461 140.481 135.279 139.013L135.266 139Z" fill="#0A4F7D"/>
<path d="M95.1367 170.054C97.2481 168.686 99.0562 167.519 100.864 166.353C100.561 165.775 100.258 165.211 99.9542 164.634C96.5928 164.997 93.2194 165.361 89.5304 165.763C89.7246 163.467 91.3142 161.459 93.4135 161.045C96.787 160.368 100.33 160.543 103.801 160.581C104.274 160.581 105.209 161.886 105.136 162.476C104.699 165.775 99.9421 170.355 96.6657 170.857C96.52 170.882 96.338 170.694 95.1488 170.054H95.1367Z" fill="#0A4F7D"/>
<path d="M178.782 155.186C180.311 153.743 181.646 151.472 183.405 151.033C186.439 150.267 189.739 150.518 192.931 150.606C193.526 150.619 194.642 151.936 194.569 152.526C194.157 155.826 189.582 160.092 185.614 160.807C187.191 159.038 188.502 157.557 190.213 155.637C186.172 154.107 182.883 155.123 179.583 156.24C179.316 155.888 179.049 155.537 178.782 155.186Z" fill="#0A4F7D"/>
<path d="M233 151.033C232.126 151.823 231.374 152.952 230.367 153.366C224.02 155.901 217.601 158.272 211.218 160.706C211 160.468 210.781 160.23 210.563 160.004C211.4 159.113 212.08 157.808 213.099 157.394C219.433 154.847 225.853 152.513 232.235 150.104C232.49 150.418 232.757 150.731 233.012 151.045L233 151.033Z" fill="#0A4F7D"/>
<path d="M141.856 173.04C139.975 174.897 138.045 177.557 137.463 177.269C135.157 176.139 133.276 174.082 131.25 172.375C132.572 170.932 134.344 168.034 135.121 168.297C137.402 169.075 139.283 171.095 141.868 173.04H141.856Z" fill="#0A4F7D"/>
<path d="M97.6121 193.944C100.027 196.164 102.163 197.745 103.619 199.816C103.874 200.179 100.706 204.132 100.173 203.893C97.9033 202.89 95.7555 201.158 94.2265 199.151C93.8746 198.686 96.1802 196.077 97.6121 193.944Z" fill="#0A4F7D"/>
<path d="M83.3659 183.479C83.4023 184.245 83.5115 184.671 83.4387 185.048C82.9533 187.444 82.3829 190.192 79.5555 190.255C76.534 190.33 76.0122 187.545 76 185.073C75.9758 181.108 76.2306 177.156 76.3762 173.191L77.3713 173.241C77.3713 175.65 77.262 178.072 77.3955 180.481C77.6261 184.621 79.689 185.738 83.3659 183.492V183.479Z" fill="#0A4F7D"/>
<path d="M215.538 195.437C213.791 197.281 211.934 199.866 211.461 199.627C209.252 198.486 207.432 196.553 205.478 194.897C206.643 193.542 208.233 190.857 208.876 191.083C211.097 191.861 212.99 193.655 215.538 195.437Z" fill="#0A4F7D"/>
<path d="M97.6849 186.854C98.6314 184.445 99.3231 182.275 100.318 180.28C100.682 179.565 101.799 179.251 102.575 178.749C102.976 179.427 103.777 180.167 103.68 180.744C103.57 181.409 102.563 181.861 102.114 182.526C101.083 184.044 100.003 185.562 99.2139 187.218C98.6314 188.46 98.4858 189.941 97.4544 191.346C97.1995 190.656 97.0782 189.866 96.6777 189.289C95.804 188.034 94.9303 186.716 93.8139 185.713C92.2243 184.282 91.3263 182.839 92.7461 179.64C94.542 182.25 95.9497 184.32 97.6728 186.842L97.6849 186.854Z" fill="#0A4F7D"/>
<path d="M225.646 218.335C226.314 216.691 227.345 215.073 227.442 213.404C227.467 212.877 224.991 212.199 223.535 211.522C223.972 209.213 225.962 207.356 227.879 207.896C229.918 208.46 231.18 211.058 230.112 213.517C229.25 215.487 227.685 217.13 226.423 218.912C226.168 218.724 225.913 218.523 225.646 218.335Z" fill="#0A4F7D"/>
<path d="M120.692 229C121.239 226.729 121.724 224.671 122.221 222.614C121.129 222.413 120.025 222.212 118.168 221.886C118.933 220.782 119.479 219.364 120.474 218.724C121.299 218.197 123.071 218.097 123.702 218.661C124.624 219.477 125.437 221.12 125.328 222.325C125.061 225.361 123.338 227.62 120.692 229.013V229Z" fill="#0A4F7D"/>
</g>
<path d="M141.052 84.892C140.62 84.892 140.176 84.868 139.72 84.82C139.288 84.748 138.856 84.628 138.424 84.46C137.776 84.196 137.152 83.848 136.552 83.416C135.976 82.96 135.448 82.456 134.968 81.904C133.816 80.608 132.94 79.084 132.34 77.332C131.74 75.556 131.44 73.756 131.44 71.932C131.44 69.436 131.92 67.024 132.88 64.696C133.048 64.288 133.264 63.856 133.528 63.4C133.816 62.944 134.128 62.512 134.464 62.104C134.824 61.672 135.184 61.288 135.544 60.952C135.928 60.616 136.312 60.364 136.696 60.196C137.224 59.956 137.8 59.716 138.424 59.476C139.192 59.236 140.056 59.128 141.016 59.152C141.976 59.176 142.852 59.284 143.644 59.476C144.748 59.74 145.696 60.22 146.488 60.916C147.28 61.588 147.952 62.404 148.504 63.364C149.056 64.3 149.488 65.332 149.8 66.46C150.112 67.564 150.34 68.692 150.484 69.844C150.58 70.612 150.616 71.38 150.592 72.148C150.568 72.892 150.508 73.648 150.412 74.416C150.316 75.112 150.196 75.808 150.052 76.504C149.932 77.2 149.764 77.872 149.548 78.52C149.332 79.168 149.056 79.792 148.72 80.392C148.384 80.968 147.964 81.508 147.46 82.012C146.548 82.9 145.552 83.596 144.472 84.1C143.416 84.58 142.276 84.844 141.052 84.892ZM141.016 63.904C140.68 63.904 140.344 63.94 140.008 64.012C139.696 64.06 139.396 64.18 139.108 64.372C138.772 64.588 138.472 64.852 138.208 65.164C137.944 65.476 137.716 65.8 137.524 66.136C137.02 67 136.672 67.924 136.48 68.908C136.288 69.892 136.192 70.888 136.192 71.896C136.192 72.928 136.3 73.996 136.516 75.1C136.756 76.204 137.176 77.212 137.776 78.124C138.064 78.556 138.4 78.94 138.784 79.276C139.192 79.588 139.66 79.816 140.188 79.96C140.668 80.08 141.148 80.116 141.628 80.068C142.132 80.02 142.6 79.864 143.032 79.6C143.728 79.168 144.28 78.592 144.688 77.872C145.096 77.152 145.396 76.372 145.588 75.532C145.804 74.692 145.924 73.828 145.948 72.94C145.996 72.052 145.996 71.248 145.948 70.528C145.9 69.808 145.78 69.052 145.588 68.26C145.396 67.468 145.108 66.748 144.724 66.1C144.364 65.452 143.872 64.924 143.248 64.516C142.648 64.084 141.904 63.88 141.016 63.904ZM168.855 64.912C168.639 64.768 168.411 64.624 168.171 64.48C167.931 64.312 167.679 64.18 167.415 64.084C166.575 63.748 165.651 63.568 164.643 63.544C163.659 63.496 162.735 63.676 161.871 64.084C161.175 64.42 160.587 64.84 160.107 65.344C159.651 65.848 159.279 66.412 158.991 67.036C158.703 67.66 158.487 68.32 158.343 69.016C158.199 69.712 158.115 70.408 158.091 71.104C158.739 70.456 159.531 69.88 160.467 69.376C161.403 68.848 162.603 68.584 164.067 68.584C165.291 68.584 166.431 68.764 167.487 69.124C168.567 69.46 169.503 69.964 170.295 70.636C171.087 71.308 171.711 72.136 172.167 73.12C172.623 74.104 172.851 75.232 172.851 76.504C172.851 77.776 172.611 78.94 172.131 79.996C171.651 81.028 170.991 81.928 170.151 82.696C169.335 83.44 168.351 84.028 167.199 84.46C166.071 84.868 164.847 85.072 163.527 85.072C161.991 85.072 160.647 84.844 159.495 84.388C158.367 83.908 157.383 83.26 156.543 82.444C156.063 81.964 155.631 81.436 155.247 80.86C154.887 80.26 154.575 79.588 154.311 78.844C154.047 78.076 153.843 77.2 153.699 76.216C153.555 75.232 153.483 74.104 153.483 72.832C153.483 71.776 153.555 70.708 153.699 69.628C153.843 68.548 154.083 67.504 154.419 66.496C154.779 65.488 155.247 64.54 155.823 63.652C156.399 62.764 157.119 61.972 157.983 61.276C158.799 60.628 159.687 60.124 160.647 59.764C161.607 59.404 162.591 59.2 163.599 59.152C164.607 59.104 165.615 59.2 166.623 59.44C167.631 59.68 168.579 60.076 169.467 60.628C169.707 60.772 169.983 60.988 170.295 61.276C170.607 61.54 170.871 61.84 171.087 62.176C171.303 62.512 171.435 62.896 171.483 63.328C171.531 63.736 171.411 64.156 171.123 64.588C171.075 64.684 170.967 64.78 170.799 64.876C170.631 64.972 170.439 65.044 170.223 65.092C170.007 65.14 169.779 65.152 169.539 65.128C169.299 65.104 169.071 65.032 168.855 64.912ZM163.275 72.904C162.459 72.952 161.691 73.168 160.971 73.552C160.251 73.912 159.627 74.404 159.099 75.028C158.763 75.436 158.571 75.904 158.523 76.432C158.475 76.936 158.511 77.44 158.631 77.944C158.727 78.544 158.967 79.072 159.351 79.528C159.735 79.96 160.179 80.32 160.683 80.608C161.211 80.872 161.775 81.064 162.375 81.184C162.999 81.28 163.599 81.292 164.175 81.22C164.823 81.148 165.411 80.98 165.939 80.716C166.491 80.428 166.959 80.08 167.343 79.672C167.727 79.24 168.015 78.748 168.207 78.196C168.423 77.62 168.495 77.008 168.423 76.36C168.351 75.664 168.171 75.088 167.883 74.632C167.595 74.152 167.223 73.78 166.767 73.516C166.311 73.252 165.783 73.084 165.183 73.012C164.583 72.916 163.947 72.88 163.275 72.904Z" fill="black"/>
<defs>
<filter id="filter0_d_3070_56" x="0" y="0" width="310" height="367" filterUnits="userSpaceOnUse" color-interpolation-filters="sRGB">
<feFlood flood-opacity="0" result="BackgroundImageFix"/>
<feColorMatrix in="SourceAlpha" type="matrix" values="0 0 0 0 0 0 0 0 0 0 0 0 0 0 0 0 0 0 127 0" result="hardAlpha"/>
<feOffset dy="2"/>
<feGaussianBlur stdDeviation="1"/>
<feComposite in2="hardAlpha" operator="out"/>
<feColorMatrix type="matrix" values="0 0 0 0 0 0 0 0 0 0 0 0 0 0 0 0 0 0 0.25 0"/>
<feBlend mode="normal" in2="BackgroundImageFix" result="effect1_dropShadow_3070_56"/>
<feBlend mode="normal" in="SourceGraphic" in2="effect1_dropShadow_3070_56" result="shape"/>
</filter>
<filter id="filter1_d_3070_56" x="89.0002" y="0" width="132" height="132" filterUnits="userSpaceOnUse" color-interpolation-filters="sRGB">
<feFlood flood-opacity="0" result="BackgroundImageFix"/>
<feColorMatrix in="SourceAlpha" type="matrix" values="0 0 0 0 0 0 0 0 0 0 0 0 0 0 0 0 0 0 127 0" result="hardAlpha"/>
<feOffset dy="2"/>
<feGaussianBlur stdDeviation="1"/>
<feComposite in2="hardAlpha" operator="out"/>
<feColorMatrix type="matrix" values="0 0 0 0 0 0 0 0 0 0 0 0 0 0 0 0 0 0 0.25 0"/>
<feBlend mode="normal" in2="BackgroundImageFix" result="effect1_dropShadow_3070_56"/>
<feBlend mode="normal" in="SourceGraphic" in2="effect1_dropShadow_3070_56" result="shape"/>
</filter>
<filter id="filter2_d_3070_56" x="114.305" y="23.8164" width="80.6174" height="83.7856" filterUnits="userSpaceOnUse" color-interpolation-filters="sRGB">
<feFlood flood-opacity="0" result="BackgroundImageFix"/>
<feColorMatrix in="SourceAlpha" type="matrix" values="0 0 0 0 0 0 0 0 0 0 0 0 0 0 0 0 0 0 127 0" result="hardAlpha"/>
<feOffset dy="2"/>
<feGaussianBlur stdDeviation="1"/>
<feComposite in2="hardAlpha" operator="out"/>
<feColorMatrix type="matrix" values="0 0 0 0 0 0 0 0 0 0 0 0 0 0 0 0 0 0 0.25 0"/>
<feBlend mode="normal" in2="BackgroundImageFix" result="effect1_dropShadow_3070_56"/>
<feBlend mode="normal" in="SourceGraphic" in2="effect1_dropShadow_3070_56" result="shape"/>
</filter>
<radialGradient id="paint0_radial_3070_56" cx="0" cy="0" r="1" gradientUnits="userSpaceOnUse" gradientTransform="translate(155 64) rotate(90) scale(64)">
<stop stop-color="#F0F8FD"/>
<stop offset="1" stop-color="#0D5D91"/>
</radialGradient>
<linearGradient id="paint1_linear_3070_56" x1="154.613" y1="28.0407" x2="154.613" y2="44.7583" gradientUnits="userSpaceOnUse">
<stop stop-color="#E85F43"/>
<stop offset="1" stop-color="#E83636"/>
</linearGradient>
<radialGradient id="paint2_radial_3070_56" cx="0" cy="0" r="1" gradientUnits="userSpaceOnUse" gradientTransform="translate(129.127 34.0016) scale(2.36095)">
<stop stop-color="#8C1F1F"/>
<stop offset="0.84" stop-color="#450F0F"/>
<stop offset="1" stop-color="#2B0808"/>
</radialGradient>
<linearGradient id="paint3_linear_3070_56" x1="127.703" y1="29.2136" x2="130.555" y2="29.2136" gradientUnits="userSpaceOnUse">
<stop stop-color="#4F4F4F"/>
<stop offset="0.29" stop-color="#BDBDBD"/>
<stop offset="0.62" stop-color="#BDBDBD"/>
<stop offset="1" stop-color="#4F4F4F"/>
</linearGradient>
<radialGradient id="paint4_radial_3070_56" cx="0" cy="0" r="1" gradientUnits="userSpaceOnUse" gradientTransform="translate(146.096 23.8395) scale(0.0241505)">
<stop stop-color="#8C1F1F"/>
<stop offset="0.84" stop-color="#450F0F"/>
<stop offset="1" stop-color="#2B0808"/>
</radialGradient>
<linearGradient id="paint5_linear_3070_56" x1="144.672" y1="23.8164" x2="147.524" y2="23.8164" gradientUnits="userSpaceOnUse">
<stop stop-color="#4F4F4F"/>
<stop offset="0.29" stop-color="#BDBDBD"/>
<stop offset="0.62" stop-color="#BDBDBD"/>
<stop offset="1" stop-color="#4F4F4F"/>
</linearGradient>
<radialGradient id="paint6_radial_3070_56" cx="0" cy="0" r="1" gradientUnits="userSpaceOnUse" gradientTransform="translate(163.06 23.8395) scale(2.36095)">
<stop stop-color="#8C1F1F"/>
<stop offset="0.84" stop-color="#450F0F"/>
<stop offset="1" stop-color="#2B0808"/>
</radialGradient>
<linearGradient id="paint7_linear_3070_56" x1="161.637" y1="23.8164" x2="164.489" y2="23.8164" gradientUnits="userSpaceOnUse">
<stop stop-color="#4F4F4F"/>
<stop offset="0.29" stop-color="#BDBDBD"/>
<stop offset="0.62" stop-color="#BDBDBD"/>
<stop offset="1" stop-color="#4F4F4F"/>
</linearGradient>
<radialGradient id="paint8_radial_3070_56" cx="0" cy="0" r="1" gradientUnits="userSpaceOnUse" gradientTransform="translate(180.037 23.8395) scale(0.0241505)">
<stop stop-color="#8C1F1F"/>
<stop offset="0.84" stop-color="#450F0F"/>
<stop offset="1" stop-color="#2B0808"/>
</radialGradient>
<linearGradient id="paint9_linear_3070_56" x1="178.614" y1="23.8164" x2="181.466" y2="23.8164" gradientUnits="userSpaceOnUse">
<stop stop-color="#4F4F4F"/>
<stop offset="0.29" stop-color="#BDBDBD"/>
<stop offset="0.62" stop-color="#BDBDBD"/>
<stop offset="1" stop-color="#4F4F4F"/>
</linearGradient>
<linearGradient id="paint10_linear_3070_56" x1="70.5862" y1="302.473" x2="-4.85864" y2="302.473" gradientUnits="userSpaceOnUse">
<stop stop-color="#08456D"/>
<stop offset="0.795" stop-color="#BDE5FF"/>
</linearGradient>
<linearGradient id="paint11_linear_3070_56" x1="239.414" y1="304.527" x2="314.859" y2="304.527" gradientUnits="userSpaceOnUse">
<stop stop-color="#08456D"/>
<stop offset="0.795" stop-color="#BDE5FF"/>
</linearGradient>
<radialGradient id="paint12_radial_3070_56" cx="0" cy="0" r="1" gradientUnits="userSpaceOnUse" gradientTransform="translate(155.527 303.501) scale(91.2724 2.63793)">
<stop stop-color="#08456D"/>
<stop offset="1" stop-color="#1085D3"/>
</radialGradient>
<clipPath id="clip0_3070_56">
<rect width="157" height="90" fill="white" transform="translate(76 139)"/>
</clipPath>
</defs>
</svg>
