<svg width="32" height="25" viewBox="0 0 32 25" fill="none" xmlns="http://www.w3.org/2000/svg">
<path d="M14.0376 21.431C14.4911 20.9766 14.8484 20.4609 15.0242 19.8375C15.368 18.616 15.1388 17.5071 14.3455 16.5156C14.3115 16.4739 14.2823 16.4283 14.2503 16.3846C14.2464 16.2962 14.1823 16.2447 14.127 16.1894C13.6395 15.6951 13.1812 15.1747 12.6928 14.6804C12.6636 14.6503 12.6277 14.6241 12.6228 14.5746C12.6753 14.5163 12.7471 14.5406 12.8093 14.5406C13.4909 14.5386 14.1736 14.5289 14.8552 14.5406C19.422 14.6212 23.9897 14.5522 28.5565 14.5755C29.344 14.5794 30.0295 14.2891 30.6539 13.8317C30.7374 13.7705 30.8064 13.6929 30.8588 13.6026C31.2996 13.1549 31.6531 12.6519 31.8327 12.0431C31.9007 11.812 31.9454 11.575 32.0007 11.3401C32.0007 11.0963 32.0007 10.8526 32.0007 10.6089C31.9337 10.3768 31.9114 10.135 31.8376 9.9039C31.3802 8.47357 30.1072 7.46758 28.607 7.42486C27.2194 7.38505 25.8308 7.40058 24.4422 7.3967C21.0446 7.38893 17.647 7.38407 14.2493 7.37728C14.1891 7.37728 14.1289 7.3666 14.0697 7.36077C13.8415 7.28988 13.6046 7.3161 13.3336 7.30639C13.488 7.15879 13.6143 7.03256 13.7473 6.91021C13.991 6.6859 14.2484 6.47616 14.46 6.21884C14.5717 6.09066 14.6882 5.96637 14.7931 5.83334C15.6292 4.76618 15.8486 3.58152 15.3718 2.31433C14.8941 1.04519 13.9444 0.284872 12.6112 0.0557083C11.51 -0.132672 10.5099 0.157667 9.68354 0.912157C8.11824 2.34151 6.5743 3.79515 5.02162 5.23907C3.97291 6.21398 2.93002 7.19472 1.87548 8.16284C1.22587 8.75905 0.786959 9.46596 0.643248 10.3438C0.598579 10.6147 0.583042 10.8885 0.597609 11.1624C0.554884 11.7149 0.759769 12.2014 1.01224 12.6713C1.18896 13.0005 1.43561 13.2773 1.69002 13.5511C2.40178 14.3182 3.13588 15.0649 3.84085 15.8388C4.0535 16.0729 4.27587 16.2991 4.4963 16.5254C5.05561 17.1021 5.60133 17.6916 6.15579 18.2732C7.02097 19.1802 7.88034 20.0939 8.73873 21.0067C9.08344 21.3737 9.43496 21.7194 9.87969 21.9631C10.3293 22.2098 10.808 22.3496 11.3197 22.3943C12.2005 22.471 12.9948 22.2428 13.7143 21.7408C13.8376 21.6553 13.9755 21.5805 14.0415 21.431H14.0376Z" fill="#EFA000"/>
<path d="M14.0364 21.4308C13.5518 21.8425 13.0149 22.1513 12.3847 22.2804C11.2641 22.5096 10.2494 22.2775 9.36088 21.5551C8.86857 21.155 8.47336 20.6539 8.0364 20.1976C7.26637 19.3926 6.49926 18.5847 5.73214 17.7768C5.12525 17.1369 4.5203 16.494 3.91437 15.8522C3.12104 15.0113 2.318 14.1781 1.53729 13.3256C0.997398 12.7362 0.665306 12.0419 0.617725 11.2301C0.616755 11.2078 0.603159 11.1854 0.59539 11.1631C-0.312523 12.5148 -0.174636 14.1704 0.957586 15.3706C3.40361 17.9632 5.85643 20.5491 8.30246 23.1417C8.86663 23.7399 9.54052 24.1147 10.361 24.2176C10.3834 24.2205 10.4038 24.2361 10.4251 24.2467H11.1204C11.4311 24.171 11.7506 24.1263 12.0468 23.9923C13.1586 23.4864 13.8373 22.6446 14.0393 21.4317L14.0364 21.4308Z" fill="#E74A41"/>
<path d="M14.459 6.21826C14.0288 6.55521 13.6511 6.94751 13.2656 7.36019C13.5336 7.36019 13.8006 7.36019 14.0686 7.36019C14.258 6.99994 14.4182 6.62998 14.459 6.21826Z" fill="#E74A41"/>
<path d="M30.8591 13.603C30.5804 13.8186 30.3008 14.0332 29.9784 14.1837C29.5211 14.3973 29.0462 14.5255 28.5374 14.5245C24.127 14.5206 19.7166 14.5284 15.3061 14.508C14.4361 14.5041 13.5661 14.5022 12.695 14.4867C12.629 14.4857 12.5639 14.4867 12.4804 14.5109C13.0796 15.1314 13.6272 15.7927 14.2497 16.3841C17.2094 16.3889 20.1681 16.3928 23.1278 16.3986C24.6319 16.4015 26.136 16.4219 27.6392 16.4122C29.2569 16.4015 30.6406 15.179 30.8582 13.6021L30.8591 13.603Z" fill="#E74A41"/>
<path d="M21.8147 7.90266C19.657 7.90266 17.4994 7.92305 15.3427 7.89295C14.4183 7.88032 13.4929 7.88129 12.5685 7.86673C12.4578 7.86479 12.3636 7.84051 12.3141 7.72884C12.2617 7.61135 12.2966 7.51036 12.3821 7.42977C12.8346 7.00737 13.2861 6.58206 13.7464 6.1684C14.3882 5.59355 14.9349 4.95946 15.0611 4.06806C15.2 3.08732 14.9534 2.21922 14.2678 1.48706C13.6114 0.785974 12.7957 0.473302 11.847 0.521854C11.213 0.553898 10.6342 0.774322 10.1477 1.18507C9.62337 1.62786 9.13592 2.1124 8.63293 2.57947C7.92505 3.23686 7.21328 3.88939 6.51316 4.55454C5.99755 5.04394 5.4761 5.52655 4.95175 6.00623C4.22153 6.67527 3.4952 7.3482 2.77761 8.03083C2.39988 8.39011 1.98137 8.70667 1.67646 9.13684C1.38418 9.54952 1.20357 10.0059 1.13463 10.5108C1.0181 11.3644 1.24533 12.1198 1.75997 12.7967C1.88426 12.9608 2.02603 13.1122 2.1678 13.2618C2.50669 13.6191 2.85627 13.9677 3.19224 14.327C3.84866 15.0281 4.50702 15.7272 5.17217 16.4205C5.56738 16.8323 5.9558 17.2517 6.34809 17.6673C7.00354 18.3607 7.65704 19.0559 8.31637 19.7463C8.70284 20.1503 9.06989 20.5727 9.46898 20.965C9.98557 21.4718 10.6012 21.7563 11.3256 21.836C12.8589 22.004 14.228 20.963 14.5766 19.555C14.8116 18.6054 14.6242 17.7295 14.0377 16.9391C13.8551 16.6934 13.624 16.4953 13.425 16.2652C13.1103 15.903 12.7549 15.5757 12.4316 15.2213C12.2015 14.9698 11.9616 14.729 11.7276 14.4814C11.6421 14.3911 11.5509 14.2911 11.6208 14.1425C11.6897 13.9949 11.8189 13.9726 11.9558 13.9726C12.5899 13.9706 13.224 13.9493 13.8571 13.9765C15.4039 14.0435 16.9498 14.0007 18.4967 14.0046C21.8545 14.0143 25.2123 14.0085 28.5711 14.0075C29.2838 14.0075 29.9014 13.7395 30.4326 13.286C31.0492 12.7598 31.4065 12.0732 31.4832 11.2682C31.556 10.4992 31.3657 9.78257 30.8967 9.15723C30.3918 8.4843 29.7111 8.09201 28.8877 7.94635C28.7041 7.91431 28.5138 7.9046 28.3264 7.9046C26.1571 7.90169 23.9869 7.90266 21.8176 7.90266H21.8147Z" fill="#F8A620"/>
<path d="M20.398 8.2238C20.0562 8.22282 19.7164 8.20535 19.4095 8.40635C19.0085 8.67047 18.7842 9.13559 18.8793 9.60169C18.9755 10.0756 19.2629 10.3921 19.7348 10.5251C19.8397 10.5543 19.9465 10.5717 20.0582 10.5727C20.7641 10.5824 21.4701 10.5873 22.175 10.6145C23.1053 10.6494 24.0345 10.663 24.9648 10.6892C25.9135 10.7155 26.8612 10.7456 27.8099 10.7621C28.0818 10.7669 28.3537 10.8194 28.6256 10.7562C29.1839 10.6271 29.5549 10.1581 29.55 9.58227C29.5461 9.04723 29.149 8.55103 28.6013 8.46752C28.243 8.41218 27.874 8.42577 27.5099 8.41703C26.7923 8.39955 26.0737 8.39955 25.3571 8.37236C24.4336 8.33838 23.5083 8.33352 22.5858 8.29468C21.8565 8.26361 21.1253 8.31216 20.399 8.22574L20.398 8.2238Z" fill="#FBCE84"/>
<path d="M8.55382 6.22616C8.95 6.26598 9.23257 5.99409 9.5268 5.74842C10.1609 5.22018 10.7969 4.69291 11.429 4.16175C11.7359 3.90443 12.0495 3.65196 12.3379 3.37522C12.806 2.9266 12.8031 2.22552 12.3525 1.73709C11.9583 1.30984 11.2212 1.27779 10.76 1.66523C9.75984 2.5042 8.75968 3.34317 7.75952 4.18117C7.37693 4.50258 7.24682 5.00169 7.42063 5.4843C7.58862 5.95039 7.99839 6.22713 8.55479 6.22519L8.55382 6.22616Z" fill="#FBCE84"/>
</svg>
