<svg width="310" height="367" viewBox="0 0 310 367" fill="none" xmlns="http://www.w3.org/2000/svg">
<g filter="url(#filter0_d_2953_13018)">
<path d="M2.00024 76C2.00024 64.9543 10.9546 56 22.0002 56H288C299.046 56 308 64.9543 308 76V363H2.00024V76Z" fill="#EACFFF"/>
<path d="M25.4999 250.005H28.4061V262.661C28.4686 267.286 26.4374 269.567 22.3124 269.505C18.4374 269.567 16.2811 267.567 15.8436 263.505L18.6561 262.755C18.7811 265.755 19.9686 267.224 22.2186 267.161C24.4686 267.224 25.5624 265.692 25.4999 262.567V250.005ZM32.4374 261.161V250.005H35.4374V261.161C35.4374 265.224 37.1561 267.224 40.5936 267.161C44.0311 267.161 45.7499 265.13 45.7499 261.067V250.005H48.7499V261.067C48.7499 266.692 45.9999 269.505 40.4999 269.505C35.1249 269.505 32.4374 266.724 32.4374 261.161ZM61.0311 269.224L55.0311 252.349H54.9374V269.224H52.1249V250.005H56.9061L62.3436 266.036H62.4374L67.6874 250.005H72.5624V269.224H69.6561V252.349H69.5624C69.1874 253.786 67.2811 259.411 63.8436 269.224H61.0311ZM86.3436 250.005L94.0311 269.224H90.8436L88.8749 264.067H80.3436L78.3749 269.224H75.1874L82.8749 250.005H86.3436ZM84.6561 252.536H84.5624C84.3749 253.099 84.1874 253.661 83.9999 254.224C83.9374 254.349 82.9686 256.849 81.0936 261.724H88.1249C86.2499 256.849 85.2811 254.349 85.2186 254.224C85.2186 254.161 85.1874 254.036 85.1249 253.849C84.8124 253.099 84.6561 252.661 84.6561 252.536ZM102.562 269.224H96.0936V250.005H102.469C108.906 250.13 112.187 253.317 112.312 259.567C112.437 266.13 109.187 269.349 102.562 269.224ZM102.375 252.442H98.9999V266.974H102.375C106.937 266.974 109.219 264.505 109.219 259.567C109.094 254.942 106.812 252.567 102.375 252.442ZM124.875 250.005L132.562 269.224H129.375L127.406 264.067H118.875L116.906 269.224H113.719L121.406 250.005H124.875ZM123.187 252.536H123.094C122.906 253.099 122.719 253.661 122.531 254.224C122.469 254.349 121.5 256.849 119.625 261.724H126.656C124.781 256.849 123.812 254.349 123.75 254.224C123.75 254.161 123.719 254.036 123.656 253.849C123.344 253.099 123.187 252.661 123.187 252.536ZM150.375 250.005L158.062 269.224H154.875L152.906 264.067H144.375L142.406 269.224H139.219L146.906 250.005H150.375ZM148.687 252.536H148.594C148.406 253.099 148.219 253.661 148.031 254.224C147.969 254.349 147 256.849 145.125 261.724H152.156C150.281 256.849 149.312 254.349 149.25 254.224C149.25 254.161 149.219 254.036 149.156 253.849C148.844 253.099 148.687 252.661 148.687 252.536ZM173.25 269.224H160.125V250.005H163.031V266.974H173.25V269.224ZM188.906 260.786H175.781V258.724H188.906V260.786ZM201.656 250.005L209.344 269.224H206.156L204.187 264.067H195.656L193.687 269.224H190.5L198.187 250.005H201.656ZM199.969 252.536H199.875C199.687 253.099 199.5 253.661 199.312 254.224C199.25 254.349 198.281 256.849 196.406 261.724H203.437C201.562 256.849 200.594 254.349 200.531 254.224C200.531 254.161 200.5 254.036 200.437 253.849C200.125 253.099 199.969 252.661 199.969 252.536ZM209.531 250.005H212.625C214.375 257.692 215.437 262.474 215.812 264.349C215.875 264.536 216 265.099 216.187 266.036H216.281C216.469 265.286 216.625 264.692 216.75 264.255C217.312 262.317 218.562 257.567 220.5 250.005H223.687C226.062 259.317 227.344 264.224 227.531 264.724C227.594 265.036 227.687 265.599 227.812 266.411H227.906C228.031 265.724 228.125 265.255 228.187 265.005C228.25 264.63 229.344 259.63 231.469 250.005H234.562L229.5 269.224H226.406C223.844 259.661 222.5 254.724 222.375 254.411C222.312 254.224 222.25 253.786 222.187 253.099H222.094C222.031 253.661 221.969 254.067 221.906 254.317C221.844 254.567 220.469 259.536 217.781 269.224H214.5L209.531 250.005ZM234.844 250.005H237.937C239.687 257.692 240.75 262.474 241.125 264.349C241.187 264.536 241.312 265.099 241.5 266.036H241.594C241.781 265.286 241.937 264.692 242.062 264.255C242.625 262.317 243.875 257.567 245.812 250.005H249C251.375 259.317 252.656 264.224 252.844 264.724C252.906 265.036 253 265.599 253.125 266.411H253.219C253.344 265.724 253.437 265.255 253.5 265.005C253.562 264.63 254.656 259.63 256.781 250.005H259.875L254.812 269.224H251.719C249.156 259.661 247.812 254.724 247.687 254.411C247.625 254.224 247.562 253.786 247.5 253.099H247.406C247.344 253.661 247.281 254.067 247.219 254.317C247.156 254.567 245.781 259.536 243.094 269.224H239.812L234.844 250.005ZM271.125 250.005L278.812 269.224H275.625L273.656 264.067H265.125L263.156 269.224H259.969L267.656 250.005H271.125ZM269.437 252.536H269.344C269.156 253.099 268.969 253.661 268.781 254.224C268.719 254.349 267.75 256.849 265.875 261.724H272.906C271.031 256.849 270.062 254.349 270 254.224C270 254.161 269.969 254.036 269.906 253.849C269.594 253.099 269.437 252.661 269.437 252.536ZM294 269.224H280.875V250.005H283.781V266.974H294V269.224Z" fill="#242424"/>
<path d="M245.17 205.901C239.318 211.372 235.665 211.504 229.924 206.378C227.78 208.969 224.976 210.22 221.492 210.021C216.287 209.733 212.758 206.865 212.389 201.727C211.998 196.312 212.177 190.853 212.02 185.416C211.898 180.998 211.775 176.569 211.395 172.162C211.127 169.094 213.439 167.943 215.606 166.237C215.706 167.256 215.874 168.275 215.874 169.294C215.896 178.34 215.863 187.376 215.907 196.423C215.941 203 221.659 206.123 227.367 202.568C228.551 201.827 229.187 200.166 229.991 198.87C231.242 196.866 232.08 194.485 233.688 192.846C237.006 189.458 241.44 189.967 244.221 193.832C245.561 195.703 246.622 197.774 247.739 199.789C249.169 202.358 251.19 203.554 254.262 203.665C261.656 203.919 268.29 201.616 275.561 198.239C270.691 196.235 266.67 194.053 261.912 194.064C260.896 194.064 259.88 194.352 258.863 194.352C257.825 194.352 256.775 194.142 255.736 194.031C256.149 192.868 256.261 191.451 257.02 190.587C259.02 188.295 261.801 187.598 264.649 188.494C268.268 189.646 271.685 191.462 275.338 192.47C278.945 193.466 282.743 193.776 286.451 194.463C287.478 194.651 288.461 195.083 289.466 195.404C288.562 196.965 287.668 199.867 286.752 199.878C279.448 199.944 273.696 203.908 267.475 206.688C265.364 207.629 263.23 208.703 260.985 209.168C255.289 210.342 249.448 211.571 245.192 205.924L245.17 205.901ZM243.271 203.31C243.439 202.923 243.606 202.546 243.774 202.159C242.132 200.442 240.747 198.305 238.77 197.165C237.709 196.556 235.352 197.231 234.113 198.095C233.186 198.737 232.393 200.974 232.839 201.815C233.398 202.878 235.252 203.709 236.615 203.82C238.804 203.997 241.049 203.51 243.26 203.31H243.271Z" fill="#490281"/>
<path d="M174.232 193.734C174.031 193.579 173.696 193.457 173.629 193.258C172.881 190.7 171.362 189.349 168.514 189.725C165.621 190.113 161.868 192.726 161.656 195.052C161.567 196.037 162.349 197.565 163.209 198.052C164.694 198.905 166.537 199.149 168.235 199.614C169.218 199.89 170.234 200.057 171.206 200.344C178.767 202.614 180.632 208.926 175.562 215.072C169.955 221.871 155.714 224.451 148.041 220.099C143.696 217.641 141.329 213.721 141.262 209.015C141.206 205.062 142.323 201.064 143.127 197.133C143.261 196.469 144.478 196.026 145.204 195.483C145.428 196.336 145.863 197.2 145.83 198.052C145.707 200.965 145.081 203.899 145.282 206.789C145.584 211.185 148.499 213.809 152.643 214.795C159.21 216.356 165.576 215.481 171.597 212.392C172.334 212.016 173.026 211.517 173.641 210.964C175.227 209.513 175.07 208.439 173.026 207.775C170.737 207.022 168.38 206.435 166.012 205.959C158.049 204.386 157.602 198.861 158.797 193.789C160.014 188.629 164.862 184.001 169.553 183.303C172.39 182.882 174.891 184.067 175.841 186.304C176.868 188.718 176.131 192.228 174.221 193.767L174.232 193.734Z" fill="#490281"/>
<path d="M41.5683 207.202C42.5511 203.858 43.0426 200.646 47.4655 200.547C49.4424 200.502 50.1796 199.107 50.1572 197.092C50.0679 189.983 50.1461 182.885 50.1014 175.776C50.1014 174.791 49.5876 173.794 49.61 172.819C49.6546 171.236 49.744 169.597 50.2243 168.124C50.4923 167.327 51.6204 166.807 52.3575 166.165C52.7931 166.973 53.2064 167.792 53.6643 168.601C54.2116 169.553 54.636 170.627 55.3843 171.391C57.015 173.063 56.7916 174.458 55.4625 176.241C54.6472 177.326 54.2004 178.899 54.1222 180.272C53.9435 183.859 54.0776 187.469 54.0552 191.068C54.0329 194.921 54.5132 198.875 51.7656 202.053C57.5288 207.844 57.1937 214.654 50.8162 219.581C44.2823 224.631 36.9108 225.472 29.2153 222.571C24.9934 220.988 22.4469 217.677 21.531 213.369C20.47 208.375 20.9949 203.437 23.1394 198.764C23.4298 198.133 24.4238 197.823 25.0939 197.358C25.3397 198.111 25.8311 198.875 25.7976 199.628C25.6859 202.905 25.0493 206.205 25.3062 209.438C25.5742 212.816 27.9197 215.174 31.1252 216.248C37.8713 218.496 44.3717 217.854 50.2913 213.779C51.3747 213.026 51.9219 211.498 52.7038 210.335C51.5087 209.582 50.3918 208.475 49.085 208.165C46.706 207.6 44.2041 207.523 41.5459 207.213L41.5683 207.202Z" fill="#490281"/>
<path d="M104.942 189.356C104.585 183.642 104.406 177.906 103.77 172.226C103.49 169.757 104.417 168.085 105.97 166.612C107.02 165.604 107.656 166.246 108.059 167.542C108.494 168.904 109.041 170.355 109.98 171.395C111.543 173.145 111.398 174.474 110.002 176.234C109.22 177.231 108.885 178.682 108.65 179.977C107.936 183.941 107.321 187.939 106.796 191.925C106.674 192.822 106.919 193.841 107.232 194.716C107.757 196.177 108.65 197.528 109.064 199.023C110.572 204.416 108.226 208.701 102.731 209.487C98.3638 210.107 93.8404 209.797 89.3951 209.675C88.5574 209.653 86.9714 208.358 87.0496 208.103C87.6304 206.409 88.2782 203.74 89.4621 203.419C94.4993 202.068 97.4591 198.259 100.922 195.014C101.279 194.682 101.223 193.276 100.843 192.911C96.1635 188.459 91.7629 183.532 84.9051 182.369C82.9171 182.037 82.0682 181.007 82.3251 179.18C82.5932 177.253 83.1293 175.36 83.5537 173.444C85.1844 174.208 87.0719 174.662 88.4122 175.78C93.0139 179.634 97.4256 183.709 101.904 187.717C102.575 188.315 103.144 189.013 103.758 189.677L104.954 189.367L104.942 189.356ZM96.655 203.02C96.7667 203.231 96.8783 203.441 96.9789 203.663C98.4532 203.663 99.961 203.873 101.379 203.607C103.032 203.297 104.607 202.566 106.227 202.024C105.601 200.374 104.987 198.724 104.339 197.085C104.295 196.963 104.027 196.93 103.703 196.786C101.379 198.835 99.0116 200.928 96.6438 203.009L96.655 203.02Z" fill="#490281"/>
<path d="M77.0546 205.026C76.1053 205.845 75.5133 206.432 74.8543 206.897C70.6548 209.876 64.6905 207.606 63.7635 202.589C63.0487 198.681 63.8082 195.06 66.6451 192.07C70.1969 188.316 75.5021 188.77 78.2274 193.144C81.5223 198.437 80.7628 204.106 79.4895 209.754C79.1656 211.182 78.6406 212.589 77.9928 213.906C74.2289 221.624 68.6332 223.75 60.6138 220.55C59.4076 220.074 58.1567 219.62 57.0844 218.922C56.459 218.502 56.1462 217.605 55.6995 216.929C56.459 216.608 57.1961 216.043 57.9668 215.988C60.7255 215.822 63.5401 216.099 66.2542 215.711C71.8164 214.914 76.1053 210.662 77.0435 205.026H77.0546ZM76.3287 200.242C75.2564 197.939 74.0725 195.791 71.4366 195.768C69.9846 195.768 68.2646 196.632 67.1365 197.629C65.7628 198.825 66.1202 200.607 67.8849 201.161C70.6436 202.025 73.5141 202.102 76.3398 200.242H76.3287Z" fill="#490281"/>
<path d="M193.182 210.55C185.822 210.55 182.002 206.508 183.521 200.185C183.733 199.288 184.705 198.568 185.331 197.771C185.755 198.557 186.47 199.321 186.559 200.152C186.805 202.433 188.335 203.54 190.223 203.695C193.048 203.928 195.997 203.983 198.756 203.463C202.073 202.843 203.134 200.849 201.447 198.004C199.504 194.726 196.913 191.792 194.377 188.913C192.378 186.632 191.954 184.605 193.797 182.368C194.154 181.925 195.494 181.615 195.774 181.87C201.023 186.875 205.748 192.312 205.29 200.119C204.888 207.15 200.654 210.572 193.16 210.561L193.182 210.55Z" fill="#490281"/>
<path d="M120.842 165.84C120.942 167.257 121.065 168.143 121.065 169.04C121.076 178.995 121.232 188.961 120.976 198.915C120.897 202.16 119.758 205.393 119.01 208.604C118.898 209.103 118.329 209.49 117.424 210.598C117.212 208.959 117.011 208.117 117.011 207.276C116.988 195.283 117.044 183.302 116.955 171.31C116.932 168.697 118.239 167.29 120.83 165.84H120.842Z" fill="#490281"/>
<path d="M86.8687 155.317C88.8344 154.033 90.5209 152.925 92.5425 151.597C91.6267 150.877 90.9789 150.434 90.3981 149.914C88.8009 148.463 88.8903 146.625 90.0407 145.185C90.9007 144.111 92.7994 142.727 93.6483 143.048C94.8098 143.48 95.547 145.329 96.2171 146.691C96.6304 147.533 96.6192 148.596 96.7644 149.559C96.8314 149.991 96.9655 150.489 96.8426 150.877C95.8597 153.822 90.4427 156.436 86.8687 155.306V155.317Z" fill="#490281"/>
<path d="M268.299 183.024C270.444 181.618 272.153 180.5 273.649 179.514C272.644 177.942 271.371 176.724 271.047 175.295C270.544 173.081 272.6 170.634 274.588 170.456C276.52 170.279 277.704 171.829 277.882 174.653C277.938 175.45 278.184 176.237 278.318 177.023C278.407 177.532 278.631 178.13 278.463 178.562C277.358 181.474 272.13 183.988 268.299 183.024Z" fill="#490281"/>
<path d="M87.6627 170.431C87.6627 168.338 87.7856 166.578 87.6292 164.828C87.4058 162.226 89.0588 159.524 91.4043 159.137C93.7163 158.749 95.1125 159.845 95.6821 162.038C95.7379 162.259 95.5704 162.547 95.4252 163.123C94.4535 162.868 93.4594 162.315 92.6106 162.47C91.6054 162.658 90.7119 163.466 89.7737 164.009C90.5332 164.618 91.2368 165.614 92.0745 165.758C93.4818 165.991 94.9784 165.67 97.3463 165.526C96.5868 166.888 96.274 168.316 95.5816 168.538C92.9122 169.401 90.1087 169.878 87.6627 170.42V170.431Z" fill="#490281"/>
<path d="M74.9624 180.382C74.7949 183.117 73.1977 184.856 70.9416 184.767C68.7413 184.679 67.3898 182.996 67.5909 180.559C67.7808 178.19 69.914 175.377 71.5112 175.399C73.3206 175.422 75.1076 178.013 74.9513 180.382H74.9624ZM71.0868 178.046C70.4278 178.898 69.6237 179.519 69.7242 179.884C69.8917 180.482 70.5842 181.191 71.1873 181.335C71.6006 181.434 72.226 180.67 72.7621 180.294C72.3042 179.674 71.8463 179.065 71.0868 178.046Z" fill="#490281"/>
<path d="M243.744 178.222C241.722 183.637 236.462 183.15 232.82 185.542C232.742 182.253 236.685 179.662 243.744 178.222Z" fill="#490281"/>
<path d="M200.665 169.363C198.733 174.667 193.473 174.202 189.742 176.561C189.865 173.25 194.746 170.149 200.665 169.363Z" fill="#490281"/>
<path d="M58.3007 155.449C56.1451 161.107 50.9068 160.587 47.1652 163.101C47.1429 159.336 49.5665 158.727 58.3007 155.449Z" fill="#490281"/>
<path d="M275.315 208.439C276.745 210.111 278.443 211.252 278.554 212.514C278.644 213.522 276.779 214.696 275.785 215.792C274.668 214.74 272.847 213.799 272.635 212.581C272.456 211.551 274.098 210.189 275.315 208.439Z" fill="#490281"/>
<g filter="url(#filter1_d_2953_13018)">
<circle cx="64" cy="64" r="64" transform="matrix(-1 0 0 1 219 0)" fill="url(#paint0_radial_2953_13018)"/>
<g filter="url(#filter2_d_2953_13018)">
<path d="M192.618 44.8857V97.3353C192.618 100.898 189.727 103.786 186.161 103.786H122.457C118.891 103.786 116 100.898 116 97.3353V44.8857L118.058 42.7892H190.277L192.618 44.8857Z" fill="white"/>
<path d="M192.618 33.6482V45.0245H116V33.6482C116 30.0715 118.868 27.1719 122.405 27.1719H186.212C189.749 27.1719 192.617 30.0715 192.617 33.6477L192.618 33.6482Z" fill="url(#paint1_linear_2953_13018)"/>
<path d="M128.822 36.5461C130.126 36.5461 131.183 35.4891 131.183 34.1852C131.183 32.8813 130.126 31.8242 128.822 31.8242C127.518 31.8242 126.461 32.8813 126.461 34.1852C126.461 35.4891 127.518 36.5461 128.822 36.5461Z" fill="url(#paint2_radial_2953_13018)"/>
<path d="M128.825 24H128.825C128.037 24 127.399 24.6384 127.399 25.4258V33.3685C127.399 34.1559 128.037 34.7943 128.825 34.7943H128.825C129.612 34.7943 130.251 34.1559 130.251 33.3685V25.4258C130.251 24.6384 129.612 24 128.825 24Z" fill="url(#paint3_linear_2953_13018)"/>
<path d="M145.791 36.5461C147.095 36.5461 148.152 35.4891 148.152 34.1852C148.152 32.8813 147.095 31.8242 145.791 31.8242C144.487 31.8242 143.43 32.8813 143.43 34.1852C143.43 35.4891 144.487 36.5461 145.791 36.5461Z" fill="url(#paint4_radial_2953_13018)"/>
<path d="M145.794 24H145.793C145.006 24 144.367 24.6384 144.367 25.4258V33.3685C144.367 34.1559 145.006 34.7943 145.793 34.7943H145.794C146.581 34.7943 147.22 34.1559 147.22 33.3685V25.4258C147.22 24.6384 146.581 24 145.794 24Z" fill="url(#paint5_linear_2953_13018)"/>
<path d="M162.756 36.5461C164.06 36.5461 165.117 35.4891 165.117 34.1852C165.117 32.8813 164.06 31.8242 162.756 31.8242C161.452 31.8242 160.395 32.8813 160.395 34.1852C160.395 35.4891 161.452 36.5461 162.756 36.5461Z" fill="url(#paint6_radial_2953_13018)"/>
<path d="M162.759 24H162.758C161.971 24 161.332 24.6384 161.332 25.4258V33.3685C161.332 34.1559 161.971 34.7943 162.758 34.7943H162.759C163.546 34.7943 164.184 34.1559 164.184 33.3685V25.4258C164.184 24.6384 163.546 24 162.759 24Z" fill="url(#paint7_linear_2953_13018)"/>
<path d="M179.732 36.5461C181.036 36.5461 182.093 35.4891 182.093 34.1852C182.093 32.8813 181.036 31.8242 179.732 31.8242C178.428 31.8242 177.371 32.8813 177.371 34.1852C177.371 35.4891 178.428 36.5461 179.732 36.5461Z" fill="url(#paint8_radial_2953_13018)"/>
<path d="M179.735 24H179.735C178.947 24 178.309 24.6384 178.309 25.4258V33.3685C178.309 34.1559 178.947 34.7943 179.735 34.7943H179.735C180.523 34.7943 181.161 34.1559 181.161 33.3685V25.4258C181.161 24.6384 180.523 24 179.735 24Z" fill="url(#paint9_linear_2953_13018)"/>
</g>
<path d="M143.052 85.892C142.62 85.892 142.176 85.868 141.72 85.82C141.288 85.748 140.856 85.628 140.424 85.46C139.776 85.196 139.152 84.848 138.552 84.416C137.976 83.96 137.448 83.456 136.968 82.904C135.816 81.608 134.94 80.084 134.34 78.332C133.74 76.556 133.44 74.756 133.44 72.932C133.44 70.436 133.92 68.024 134.88 65.696C135.048 65.288 135.264 64.856 135.528 64.4C135.816 63.944 136.128 63.512 136.464 63.104C136.824 62.672 137.184 62.288 137.544 61.952C137.928 61.616 138.312 61.364 138.696 61.196C139.224 60.956 139.8 60.716 140.424 60.476C141.192 60.236 142.056 60.128 143.016 60.152C143.976 60.176 144.852 60.284 145.644 60.476C146.748 60.74 147.696 61.22 148.488 61.916C149.28 62.588 149.952 63.404 150.504 64.364C151.056 65.3 151.488 66.332 151.8 67.46C152.112 68.564 152.34 69.692 152.484 70.844C152.58 71.612 152.616 72.38 152.592 73.148C152.568 73.892 152.508 74.648 152.412 75.416C152.316 76.112 152.196 76.808 152.052 77.504C151.932 78.2 151.764 78.872 151.548 79.52C151.332 80.168 151.056 80.792 150.72 81.392C150.384 81.968 149.964 82.508 149.46 83.012C148.548 83.9 147.552 84.596 146.472 85.1C145.416 85.58 144.276 85.844 143.052 85.892ZM143.016 64.904C142.68 64.904 142.344 64.94 142.008 65.012C141.696 65.06 141.396 65.18 141.108 65.372C140.772 65.588 140.472 65.852 140.208 66.164C139.944 66.476 139.716 66.8 139.524 67.136C139.02 68 138.672 68.924 138.48 69.908C138.288 70.892 138.192 71.888 138.192 72.896C138.192 73.928 138.3 74.996 138.516 76.1C138.756 77.204 139.176 78.212 139.776 79.124C140.064 79.556 140.4 79.94 140.784 80.276C141.192 80.588 141.66 80.816 142.188 80.96C142.668 81.08 143.148 81.116 143.628 81.068C144.132 81.02 144.6 80.864 145.032 80.6C145.728 80.168 146.28 79.592 146.688 78.872C147.096 78.152 147.396 77.372 147.588 76.532C147.804 75.692 147.924 74.828 147.948 73.94C147.996 73.052 147.996 72.248 147.948 71.528C147.9 70.808 147.78 70.052 147.588 69.26C147.396 68.468 147.108 67.748 146.724 67.1C146.364 66.452 145.872 65.924 145.248 65.516C144.648 65.084 143.904 64.88 143.016 64.904ZM157.751 60.836C157.967 60.62 158.243 60.488 158.579 60.44C158.939 60.368 159.359 60.332 159.839 60.332H168.731C169.043 60.332 169.391 60.332 169.775 60.332C170.183 60.308 170.567 60.332 170.927 60.404C171.287 60.476 171.599 60.608 171.863 60.8C172.151 60.968 172.355 61.244 172.475 61.628C172.547 61.868 172.571 62.144 172.547 62.456C172.547 62.768 172.487 63.068 172.367 63.356C172.271 63.62 172.115 63.86 171.899 64.076C171.683 64.268 171.419 64.376 171.107 64.4C170.483 64.52 169.835 64.556 169.163 64.508C168.491 64.436 167.843 64.4 167.219 64.4C166.523 64.4 165.911 64.424 165.383 64.472C164.855 64.52 164.255 64.544 163.583 64.544C163.319 64.544 162.983 64.532 162.575 64.508C162.167 64.484 161.855 64.508 161.639 64.58C161.447 64.628 161.291 64.724 161.171 64.868C161.075 65.012 161.003 65.18 160.955 65.372C160.907 65.54 160.883 65.72 160.883 65.912C160.883 66.104 160.883 66.272 160.883 66.416C160.883 66.824 160.859 67.244 160.811 67.676C160.787 68.084 160.763 68.492 160.739 68.9C160.691 69.452 160.763 69.764 160.955 69.836C161.171 69.884 161.531 69.836 162.035 69.692C162.899 69.476 163.787 69.368 164.699 69.368C165.923 69.368 167.063 69.536 168.119 69.872C169.175 70.184 170.087 70.676 170.855 71.348C171.647 71.996 172.259 72.824 172.691 73.832C173.147 74.816 173.375 75.968 173.375 77.288C173.375 77.528 173.363 77.756 173.339 77.972C173.339 78.188 173.315 78.404 173.267 78.62C173.075 80.132 172.511 81.464 171.575 82.616C170.639 83.768 169.451 84.596 168.011 85.1C166.307 85.748 164.543 86.048 162.719 86C160.895 85.928 159.215 85.4 157.679 84.416C157.247 84.152 156.851 83.84 156.491 83.48C156.131 83.096 155.867 82.664 155.699 82.184C155.507 81.68 155.447 81.164 155.519 80.636C155.615 80.084 155.939 79.676 156.491 79.412C156.899 79.22 157.271 79.16 157.607 79.232C157.967 79.28 158.303 79.4 158.615 79.592C158.927 79.76 159.227 79.976 159.515 80.24C159.827 80.48 160.139 80.684 160.451 80.852C161.003 81.116 161.579 81.344 162.179 81.536C162.779 81.704 163.415 81.788 164.087 81.788C165.575 81.788 166.763 81.392 167.651 80.6C168.563 79.808 169.019 78.74 169.019 77.396C169.019 76.1 168.551 75.092 167.615 74.372C166.679 73.628 165.419 73.256 163.835 73.256C163.427 73.256 163.019 73.28 162.611 73.328C162.203 73.376 161.795 73.46 161.387 73.58C161.003 73.676 160.619 73.784 160.235 73.904C159.875 74.024 159.515 74.108 159.155 74.156C158.795 74.18 158.435 74.144 158.075 74.048C157.739 73.928 157.415 73.676 157.103 73.292C156.791 72.956 156.635 72.548 156.635 72.068C156.635 71.588 156.659 71.144 156.707 70.736C156.755 70.04 156.791 69.344 156.815 68.648C156.839 67.952 156.875 67.256 156.923 66.56C156.971 65.864 157.007 65.18 157.031 64.508C157.079 63.812 157.127 63.116 157.175 62.42C157.199 62.012 157.259 61.688 157.355 61.448C157.451 61.208 157.583 61.004 157.751 60.836Z" fill="black"/>
</g>
<line x1="70.5862" y1="303.5" x2="1.99998" y2="303.5" stroke="url(#paint10_linear_2953_13018)"/>
<path d="M239 303.5L308 303.5" stroke="url(#paint11_linear_2953_13018)"/>
<rect x="64.2542" y="300.863" width="182.545" height="5.27586" rx="2.63793" fill="url(#paint12_radial_2953_13018)"/>
</g>
<defs>
<filter id="filter0_d_2953_13018" x="0" y="0" width="310" height="367" filterUnits="userSpaceOnUse" color-interpolation-filters="sRGB">
<feFlood flood-opacity="0" result="BackgroundImageFix"/>
<feColorMatrix in="SourceAlpha" type="matrix" values="0 0 0 0 0 0 0 0 0 0 0 0 0 0 0 0 0 0 127 0" result="hardAlpha"/>
<feOffset dy="2"/>
<feGaussianBlur stdDeviation="1"/>
<feComposite in2="hardAlpha" operator="out"/>
<feColorMatrix type="matrix" values="0 0 0 0 0 0 0 0 0 0 0 0 0 0 0 0 0 0 0.25 0"/>
<feBlend mode="normal" in2="BackgroundImageFix" result="effect1_dropShadow_2953_13018"/>
<feBlend mode="normal" in="SourceGraphic" in2="effect1_dropShadow_2953_13018" result="shape"/>
</filter>
<filter id="filter1_d_2953_13018" x="89.0002" y="0" width="132" height="132" filterUnits="userSpaceOnUse" color-interpolation-filters="sRGB">
<feFlood flood-opacity="0" result="BackgroundImageFix"/>
<feColorMatrix in="SourceAlpha" type="matrix" values="0 0 0 0 0 0 0 0 0 0 0 0 0 0 0 0 0 0 127 0" result="hardAlpha"/>
<feOffset dy="2"/>
<feGaussianBlur stdDeviation="1"/>
<feComposite in2="hardAlpha" operator="out"/>
<feColorMatrix type="matrix" values="0 0 0 0 0 0 0 0 0 0 0 0 0 0 0 0 0 0 0.25 0"/>
<feBlend mode="normal" in2="BackgroundImageFix" result="effect1_dropShadow_2953_13018"/>
<feBlend mode="normal" in="SourceGraphic" in2="effect1_dropShadow_2953_13018" result="shape"/>
</filter>
<filter id="filter2_d_2953_13018" x="114" y="24" width="80.6174" height="83.7856" filterUnits="userSpaceOnUse" color-interpolation-filters="sRGB">
<feFlood flood-opacity="0" result="BackgroundImageFix"/>
<feColorMatrix in="SourceAlpha" type="matrix" values="0 0 0 0 0 0 0 0 0 0 0 0 0 0 0 0 0 0 127 0" result="hardAlpha"/>
<feOffset dy="2"/>
<feGaussianBlur stdDeviation="1"/>
<feComposite in2="hardAlpha" operator="out"/>
<feColorMatrix type="matrix" values="0 0 0 0 0 0 0 0 0 0 0 0 0 0 0 0 0 0 0.25 0"/>
<feBlend mode="normal" in2="BackgroundImageFix" result="effect1_dropShadow_2953_13018"/>
<feBlend mode="normal" in="SourceGraphic" in2="effect1_dropShadow_2953_13018" result="shape"/>
</filter>
<radialGradient id="paint0_radial_2953_13018" cx="0" cy="0" r="1" gradientUnits="userSpaceOnUse" gradientTransform="translate(64 64) rotate(90) scale(84.8372)">
<stop stop-color="#FAF3FF"/>
<stop offset="1" stop-color="#B966F9"/>
</radialGradient>
<linearGradient id="paint1_linear_2953_13018" x1="154.309" y1="28.2243" x2="154.309" y2="44.9419" gradientUnits="userSpaceOnUse">
<stop stop-color="#E85F43"/>
<stop offset="1" stop-color="#E83636"/>
</linearGradient>
<radialGradient id="paint2_radial_2953_13018" cx="0" cy="0" r="1" gradientUnits="userSpaceOnUse" gradientTransform="translate(128.822 34.1852) scale(2.36095)">
<stop stop-color="#8C1F1F"/>
<stop offset="0.84" stop-color="#450F0F"/>
<stop offset="1" stop-color="#2B0808"/>
</radialGradient>
<linearGradient id="paint3_linear_2953_13018" x1="127.399" y1="29.3971" x2="130.25" y2="29.3971" gradientUnits="userSpaceOnUse">
<stop stop-color="#4F4F4F"/>
<stop offset="0.29" stop-color="#BDBDBD"/>
<stop offset="0.62" stop-color="#BDBDBD"/>
<stop offset="1" stop-color="#4F4F4F"/>
</linearGradient>
<radialGradient id="paint4_radial_2953_13018" cx="0" cy="0" r="1" gradientUnits="userSpaceOnUse" gradientTransform="translate(145.791 24.0231) scale(0.0241505)">
<stop stop-color="#8C1F1F"/>
<stop offset="0.84" stop-color="#450F0F"/>
<stop offset="1" stop-color="#2B0808"/>
</radialGradient>
<linearGradient id="paint5_linear_2953_13018" x1="144.367" y1="24" x2="147.22" y2="24" gradientUnits="userSpaceOnUse">
<stop stop-color="#4F4F4F"/>
<stop offset="0.29" stop-color="#BDBDBD"/>
<stop offset="0.62" stop-color="#BDBDBD"/>
<stop offset="1" stop-color="#4F4F4F"/>
</linearGradient>
<radialGradient id="paint6_radial_2953_13018" cx="0" cy="0" r="1" gradientUnits="userSpaceOnUse" gradientTransform="translate(162.756 24.0231) scale(2.36095)">
<stop stop-color="#8C1F1F"/>
<stop offset="0.84" stop-color="#450F0F"/>
<stop offset="1" stop-color="#2B0808"/>
</radialGradient>
<linearGradient id="paint7_linear_2953_13018" x1="161.332" y1="24" x2="164.184" y2="24" gradientUnits="userSpaceOnUse">
<stop stop-color="#4F4F4F"/>
<stop offset="0.29" stop-color="#BDBDBD"/>
<stop offset="0.62" stop-color="#BDBDBD"/>
<stop offset="1" stop-color="#4F4F4F"/>
</linearGradient>
<radialGradient id="paint8_radial_2953_13018" cx="0" cy="0" r="1" gradientUnits="userSpaceOnUse" gradientTransform="translate(179.732 24.0231) scale(0.0241505)">
<stop stop-color="#8C1F1F"/>
<stop offset="0.84" stop-color="#450F0F"/>
<stop offset="1" stop-color="#2B0808"/>
</radialGradient>
<linearGradient id="paint9_linear_2953_13018" x1="178.309" y1="24" x2="181.161" y2="24" gradientUnits="userSpaceOnUse">
<stop stop-color="#4F4F4F"/>
<stop offset="0.29" stop-color="#BDBDBD"/>
<stop offset="0.62" stop-color="#BDBDBD"/>
<stop offset="1" stop-color="#4F4F4F"/>
</linearGradient>
<linearGradient id="paint10_linear_2953_13018" x1="70.5862" y1="302.5" x2="-4.85864" y2="302.5" gradientUnits="userSpaceOnUse">
<stop stop-color="#481272"/>
<stop offset="0.795" stop-color="#EACFFF"/>
</linearGradient>
<linearGradient id="paint11_linear_2953_13018" x1="239" y1="302.5" x2="314.445" y2="302.5" gradientUnits="userSpaceOnUse">
<stop stop-color="#481272"/>
<stop offset="0.795" stop-color="#EACFFF"/>
</linearGradient>
<radialGradient id="paint12_radial_2953_13018" cx="0" cy="0" r="1" gradientUnits="userSpaceOnUse" gradientTransform="translate(155.527 303.501) scale(91.2724 2.63793)">
<stop stop-color="#E8CAFF"/>
<stop offset="1" stop-color="#3F086A"/>
</radialGradient>
</defs>
</svg>
