<svg width="73" height="70" viewBox="0 0 73 70" fill="none" xmlns="http://www.w3.org/2000/svg">
<path d="M40.1739 69.9638C31.0833 69.9638 21.9965 69.8968 12.9058 69.9996C9.4355 70.0398 7.08389 67.2951 7.30839 63.5983C7.34645 62.9591 7.15999 62.7937 6.63107 62.8026C5.69118 62.816 4.74749 62.9009 3.80761 62.6372C1.59679 62.0203 0.0176312 59.8657 0.013826 57.1836C-0.00139483 41.8644 -0.00900523 26.5451 0.0176312 11.2259C0.0252416 8.11017 2.17518 5.70522 4.85024 5.67393C7.3845 5.64264 9.91876 5.62923 12.453 5.68734C13.2103 5.70522 13.5451 5.51747 13.7392 4.5698C14.1578 2.54482 15.1585 0.953438 16.9127 0.269504C19.4051 -0.700522 21.9546 1.0339 22.7004 4.33735C22.9592 5.47724 23.3397 5.76333 24.253 5.68287C25.2956 5.59347 26.3458 5.6337 27.3922 5.67393C27.9212 5.69628 28.1266 5.513 28.256 4.86483C28.6708 2.79962 29.5878 1.10989 31.3573 0.336556C33.8953 -0.776515 36.5323 0.98026 37.32 4.37758C37.5597 5.41019 37.868 5.79015 38.7888 5.68734C39.8276 5.57112 40.8817 5.62476 41.9281 5.67393C42.4951 5.70075 42.7234 5.52194 42.8642 4.82013C43.279 2.75491 44.215 1.07413 45.9921 0.318675C48.5035 -0.754164 51.1215 0.957908 51.8901 4.31053C52.1641 5.513 52.5865 5.71863 53.5264 5.68734C55.9236 5.60688 58.3247 5.64711 60.722 5.66499C63.6216 5.68734 65.7068 8.11911 65.6726 11.5433C65.6611 12.5937 65.8818 12.9111 66.7761 12.8307C67.6056 12.7547 68.4542 12.7144 69.2913 12.9826C71.5326 13.7023 72.99 15.8033 72.99 18.5301C73.0014 33.7287 73.0052 48.9317 72.99 64.1302C72.99 67.541 70.8514 69.9459 67.8453 69.9504C58.6215 69.9638 49.3977 69.9549 40.1739 69.9549V69.9638Z" fill="#20685D"/>
<path d="M30.96 7.87047C34.9344 7.87047 38.7746 7.88882 42.6186 7.85212C43.2356 7.84753 43.2011 8.30628 43.32 8.76503C43.9332 11.1505 45.0178 13.013 47.1985 13.6048C48.2218 13.8801 48.8963 13.5314 49.1032 12.6093C49.3064 11.7102 48.8465 11.0725 47.7925 10.7881C46.6811 10.4853 45.9797 9.49903 45.7689 7.87047C49.245 7.87047 52.7097 7.87047 56.1781 7.87047C57.8797 7.87047 59.5814 7.8567 61.283 7.87505C62.8544 7.8934 63.8662 9.04945 63.8662 10.9074C63.8777 26.4636 63.8777 42.0152 63.8662 57.5714C63.8662 59.4752 62.839 60.6404 61.2026 60.6542C58.5849 60.6771 55.9635 60.6634 53.342 60.6634C37.4868 60.6634 21.6355 60.6634 5.78027 60.6634C3.4271 60.6634 2.60693 59.6725 2.60693 56.8328C2.60693 41.7262 2.60693 26.6196 2.60693 11.5129C2.60693 8.89807 3.45009 7.87505 5.61164 7.87047C7.99164 7.87047 10.3755 7.8934 12.7555 7.85212C13.4492 7.83835 13.7788 7.99433 13.9896 8.93018C14.5376 11.357 15.764 13.1186 17.9409 13.6553C18.8607 13.8801 19.5467 13.4443 19.7154 12.5497C19.8763 11.6964 19.4011 11.0404 18.4353 10.7927C17.9601 10.6734 17.5232 10.4624 17.1936 10.022C16.7796 9.4715 16.2239 8.78338 16.3926 8.14113C16.5574 7.51723 17.3392 7.88882 17.8374 7.88423C21.1027 7.85212 24.3681 7.88423 27.6334 7.85212C28.2389 7.84753 28.4689 8.03103 28.6413 8.78338C29.2047 11.2469 30.389 13.0819 32.6157 13.6415C33.5508 13.8755 34.2215 13.4672 34.4055 12.5726C34.5856 11.701 34.1219 11.0267 33.1599 10.7927C31.8875 10.4853 31.3356 9.40269 30.9562 7.86129L30.96 7.87047Z" fill="#9FD19A"/>
<path d="M25.9846 24.8893C22.8289 31.6111 25.3262 38.2522 29.8181 41.3307C34.2166 44.3455 41.4239 44.095 45.5808 36.9868C46.0522 41.8233 42.7992 48.8041 36.0827 50.8338C29.748 52.7446 22.8874 49.0121 20.5031 42.4687C17.9396 35.4199 20.8381 28.0315 25.9846 24.8893Z" fill="white"/>
<path d="M40.5525 35.7512C40.4494 35.7512 40.3731 35.7782 40.3197 35.7512C37.8927 34.401 35.4657 34.0589 33.0044 35.6477C32.5274 35.9583 32.3099 35.6882 32.4053 35.0896C32.867 32.1551 32.1229 29.7202 30.2645 27.7219C29.8524 27.2763 29.8562 26.9028 30.5088 26.8082C30.5736 26.7992 30.6385 26.7632 30.7072 26.7497C33.0998 26.3582 34.901 24.9809 35.9924 22.3885C36.3014 21.6504 36.6487 21.5109 36.9998 22.3615C38.095 25.0079 39.9534 26.3672 42.3727 26.7632C43.0405 26.8713 43.258 27.1953 42.6971 27.7849C40.7929 29.7787 40.1785 32.2676 40.5983 35.1751C40.625 35.3597 40.5754 35.5622 40.5601 35.7602L40.5525 35.7512Z" fill="white"/>
<path d="M7.04811 29.5455C7.04811 28.5987 7.02775 27.652 7.04811 26.7052C7.07661 25.4671 7.5408 24.9185 8.59541 24.9039C10.1834 24.8797 11.7714 24.8894 13.3635 24.9039C14.3245 24.9088 14.8416 25.506 14.8497 26.6567C14.862 28.5939 14.866 30.5311 14.8497 32.4683C14.8416 33.619 14.3123 34.2064 13.3554 34.2113C11.7307 34.221 10.1061 34.2307 8.4814 34.2113C7.57338 34.1967 7.07662 33.6092 7.05219 32.5265C7.02776 31.5361 7.04811 30.5456 7.04811 29.5552V29.5455Z" fill="#28807F"/>
<path d="M50.8484 29.5456C50.8484 28.5988 50.828 27.6521 50.8484 26.7053C50.8769 25.4673 51.3411 24.9186 52.3957 24.9041C53.9837 24.8798 55.5717 24.8895 57.1638 24.9041C58.1248 24.9089 58.6419 25.5061 58.65 26.6568C58.6623 28.594 58.6663 30.5312 58.65 32.4684C58.6419 33.6191 58.1126 34.2065 57.1557 34.2114C55.531 34.2211 53.9064 34.2308 52.2817 34.2114C51.3737 34.1968 50.8769 33.6094 50.8525 32.5267C50.828 31.5362 50.8484 30.5458 50.8484 29.5553V29.5456Z" fill="#28807F"/>
<path d="M11.059 42.0115C11.853 42.0115 12.647 41.9953 13.441 42.0155C14.3489 42.0438 14.8416 42.5375 14.8497 43.4359C14.866 45.0506 14.862 46.6653 14.8497 48.28C14.8457 49.231 14.353 49.753 13.388 49.7651C11.7634 49.7813 10.1389 49.7813 8.51426 49.7651C7.54928 49.7571 7.05254 49.2391 7.04847 48.284C7.04032 46.7058 7.03218 45.1275 7.04847 43.5493C7.06068 42.5011 7.52485 42.0398 8.56312 42.0115C9.39374 41.9872 10.2244 42.0074 11.055 42.0074L11.059 42.0115Z" fill="#28807F"/>
<path d="M54.8593 42.0116C55.6533 42.0116 56.4473 41.9954 57.2413 42.0156C58.1492 42.044 58.6419 42.5377 58.65 43.4361C58.6663 45.0507 58.6623 46.6654 58.65 48.2801C58.646 49.2311 58.1533 49.7531 57.1883 49.7653C55.5637 49.7815 53.9391 49.7815 52.3146 49.7653C51.3496 49.7572 50.8528 49.2392 50.8488 48.2841C50.8406 46.7059 50.8325 45.1276 50.8488 43.5494C50.861 42.5013 51.3251 42.0399 52.3634 42.0116C53.194 41.9873 54.0247 42.0075 54.8553 42.0075L54.8593 42.0116Z" fill="#28807F"/>
</svg>
