<svg width="39" height="39" viewBox="0 0 39 39" fill="none" xmlns="http://www.w3.org/2000/svg">
<g filter="url(#filter0_d_1318_1814)">
<circle cx="19.5" cy="18.5" r="15.5" fill="white"/>
<circle cx="19.5" cy="18.5" r="15" stroke="#FDFDFD"/>
</g>
<path d="M26.0005 14.4342C25.9986 14.2386 26.0944 14.0799 26.2941 13.9703C26.8327 13.6752 27.3703 13.379 27.9174 13.0938C28.2521 12.9193 28.6649 12.9969 28.8791 13.2547C29.0932 13.5121 29.0193 13.8452 28.6864 14.0313C28.1577 14.3271 27.6219 14.6146 27.0847 14.8999C26.8448 15.0273 26.5872 15.0337 26.3376 14.9157C26.1131 14.8095 25.9991 14.6459 26 14.4338L26.0005 14.4342Z" fill="#C1C1C1"/>
<path d="M19.0013 10.4986C19.0013 10.2327 18.9983 9.96675 19.0019 9.70083C19.0073 9.3003 19.2183 9.00284 19.4934 9.00002C19.7772 8.9972 19.9941 9.29559 19.9971 9.70742C20.0011 10.2313 20.0008 10.7556 19.9971 11.2794C19.9941 11.687 19.7715 12.0019 19.4967 12C19.2216 11.9976 19.0053 11.6823 19.0013 11.2728C18.9986 11.0149 19.0013 10.7565 19.0013 10.4986Z" fill="#C1C1C1"/>
<path d="M12.9999 14.4282C13.0024 14.8653 12.6225 15.1481 12.311 14.9179C11.9233 14.6313 11.5484 14.3196 11.1764 14.0038C10.9818 13.8385 10.9478 13.5039 11.0766 13.2654C11.2072 13.0239 11.4702 12.9184 11.6741 13.0716C12.0733 13.371 12.461 13.6936 12.8474 14.0165C12.9581 14.1093 13.0024 14.2622 12.9999 14.4278V14.4282Z" fill="#C1C1C1"/>
<path d="M30 27.4671C29.7904 27.9169 29.4405 28.0038 29.0247 27.9999C27.6014 27.986 26.1776 27.9949 24.7543 27.9934C24.6687 27.9934 24.5796 28.0172 24.4979 27.9643C24.4996 25.8284 24.5009 23.6926 24.5027 21.5562C24.5027 21.2271 24.3559 21.0526 24.0625 21.0329C24.0415 21.0314 24.021 21.0205 24 21.0136C25.2657 21.0082 26.5314 20.9983 27.7971 21.0003C28.1128 21.0003 28.3277 21.2073 28.4382 21.5938C28.8592 23.0615 29.2754 24.5312 29.6938 25.9999C29.7733 26.2796 29.8563 26.5578 29.9384 26.8361C29.9402 26.842 29.9493 26.8455 29.9555 26.8504C29.9856 26.8751 29.9873 26.8385 29.9996 26.8247V26.9235C29.9799 26.9112 29.962 26.9156 29.9629 26.9413C29.9629 26.9522 29.9865 26.9626 29.9996 26.973V27.4671H30Z" fill="#B0B0B0"/>
<path d="M13.994 27.9957C12.5245 27.9977 11.0549 28.0022 9.58542 27.9987C9.26635 27.9982 9.10502 27.7324 9 27.3947V26.9958C9.07827 26.9638 9.06429 26.8691 9.08226 26.7993C9.52352 25.0891 9.96398 23.379 10.402 21.6678C10.4895 21.3257 10.6201 21.0459 10.9399 21C11.8891 21.0015 12.8387 21.006 13.7884 21.0015C13.9381 21.001 14.0004 21.0499 14 21.2524C13.9944 23.5001 13.9952 25.7479 13.994 27.9957Z" fill="#C1C1C1"/>
<path d="M14.0213 27.968C14.0225 25.7512 14.0217 23.5345 14.0272 21.3177C14.0276 21.118 13.966 21.0693 13.8179 21.0703C12.8784 21.0748 11.939 21.0703 11 21.0689C11.0743 21.0182 11.1545 21.0423 11.2319 21.0423C12.3206 21.0384 13.4094 21.0369 14.4977 21.0334C14.5688 21.0334 14.6427 21.0521 14.7087 21C14.7833 21.0408 14.8627 21.0325 14.9414 21.033C15.6757 21.0354 16.4105 21.0374 17.1449 21.0398C17.4068 21.1717 17.5463 21.4171 17.6312 21.752C18.0646 23.4646 18.5118 25.1718 18.9515 26.8825C19.1174 27.5283 18.8476 27.995 18.3008 27.997C16.9257 28.0024 15.5501 27.999 14.1746 27.9985C14.1224 27.9985 14.0687 28.0068 14.0213 27.968Z" fill="#B0B0B0"/>
<path d="M22.0167 21C21.9236 20.9437 21.8225 20.9754 21.7258 20.9742C21.1504 20.967 20.5754 20.9644 20 20.9606C20 18.9759 20 16.9911 20 15.0063C21.0056 15.0038 22.0108 14.9978 23.0163 15.0008C23.2814 15.0017 23.4859 15.1951 23.5806 15.5071C23.821 16.2973 24.0581 17.0884 24.2973 17.8791C24.5066 18.5699 24.7175 19.2603 24.9268 19.9511C25.0816 20.4612 25.0024 20.6902 24.5774 20.967C24.4549 21.0203 24.3315 20.9644 24.2082 20.967C23.4775 20.9843 22.7465 20.9433 22.0163 20.9996L22.0167 21Z" fill="#B0B0B0"/>
<path d="M19.9995 15.0052C19.9995 17.0002 19.9995 18.9952 19.9995 20.9902C19.1582 20.9936 18.3174 20.9966 17.4761 21C16.5865 20.9983 15.6964 20.9962 14.8067 20.994C14.7115 20.994 14.6153 21.0013 14.5249 20.9655C14.0841 20.8341 13.9023 20.5052 14.0511 20.0904C14.477 18.9029 14.9067 17.7167 15.335 16.5296C15.4585 16.1875 15.5772 15.8446 15.7045 15.5038C15.8241 15.1817 16.0778 15.0018 16.4434 15.0009C17.6288 14.9979 18.8146 15.003 20 15.0052H19.9995Z" fill="#C1C1C1"/>
<path d="M21.8674 21.0383C22.6007 20.9723 23.3348 21.0205 24.0685 21.0001C24.1924 20.9967 24.3163 21.0622 24.4393 21.0001C24.4729 21.0056 24.5065 21.0106 24.54 21.016C24.5592 21.0225 24.578 21.0339 24.5972 21.0354C24.8657 21.0552 25 21.2304 25 21.5609C24.9988 23.7055 24.9972 25.8501 24.9956 27.9953C23.5266 27.9967 22.0576 28.0042 20.589 27.9967C20.1618 27.9943 19.9017 27.5114 20.0351 26.9889C20.4264 25.4537 20.8244 23.9213 21.2204 22.388C21.2891 22.1221 21.3623 21.8581 21.4286 21.5911C21.4981 21.3108 21.6392 21.1232 21.8674 21.0398V21.0383Z" fill="#C1C1C1"/>
<defs>
<filter id="filter0_d_1318_1814" x="0" y="0" width="39" height="39" filterUnits="userSpaceOnUse" color-interpolation-filters="sRGB">
<feFlood flood-opacity="0" result="BackgroundImageFix"/>
<feColorMatrix in="SourceAlpha" type="matrix" values="0 0 0 0 0 0 0 0 0 0 0 0 0 0 0 0 0 0 127 0" result="hardAlpha"/>
<feOffset dy="1"/>
<feGaussianBlur stdDeviation="2"/>
<feComposite in2="hardAlpha" operator="out"/>
<feColorMatrix type="matrix" values="0 0 0 0 0 0 0 0 0 0 0 0 0 0 0 0 0 0 0.25 0"/>
<feBlend mode="normal" in2="BackgroundImageFix" result="effect1_dropShadow_1318_1814"/>
<feBlend mode="normal" in="SourceGraphic" in2="effect1_dropShadow_1318_1814" result="shape"/>
</filter>
</defs>
</svg>
