<svg width="34" height="26" viewBox="0 0 34 26" fill="none" xmlns="http://www.w3.org/2000/svg">
<path d="M18.9822 3.81983C18.5278 4.27334 18.1694 4.78822 17.9923 5.41126C17.6461 6.63211 17.873 7.7415 18.6643 8.73454C18.6982 8.77636 18.7272 8.82206 18.7592 8.86582C18.7629 8.9542 18.8269 9.00579 18.8821 9.06125C19.3685 9.5565 19.8258 10.0779 20.3132 10.5732C20.3423 10.6033 20.3782 10.6296 20.3829 10.6792C20.3304 10.7373 20.2586 10.7129 20.1964 10.7128C19.5147 10.7133 18.8321 10.7216 18.1505 10.7086C13.5839 10.6186 9.01601 10.6782 4.44931 10.6455C3.66181 10.6401 2.97567 10.929 2.35037 11.3851C2.26673 11.4461 2.19763 11.5236 2.14501 11.6138C1.70325 12.0605 1.34876 12.5628 1.16787 13.1713C1.09943 13.4022 1.05428 13.6391 0.998446 13.874C0.997947 14.1177 0.997448 14.3614 0.996948 14.6051C1.06347 14.8374 1.08531 15.0792 1.15864 15.3104C1.61306 16.7417 2.88402 17.7503 4.38417 17.7961C5.77169 17.8388 7.16029 17.8261 8.54885 17.8328C11.9465 17.8475 15.3441 17.8593 18.7417 17.8731C18.8019 17.8732 18.8621 17.884 18.9213 17.89C19.1494 17.9613 19.3863 17.9356 19.6572 17.9458C19.5025 18.0931 19.376 18.2191 19.2428 18.3412C18.9986 18.565 18.7408 18.7742 18.5286 19.0311C18.4167 19.159 18.2999 19.2831 18.1948 19.4159C17.3565 20.4814 17.1346 21.6656 17.6088 22.9337C18.084 24.2038 19.0321 24.9661 20.3648 25.198C21.4656 25.3886 22.4663 25.1003 23.2942 24.3475C24.8625 22.9214 26.4094 21.4709 27.965 20.0302C29.0157 19.0574 30.0606 18.0788 31.1171 17.1129C31.768 16.518 32.2083 15.812 32.3538 14.9345C32.399 14.6636 32.4151 14.3898 32.4011 14.116C32.445 13.5636 32.2411 13.0766 31.9896 12.6061C31.8136 12.2766 31.5675 11.9994 31.3136 11.725C30.6034 10.9564 29.8709 10.2082 29.1675 9.43286C28.9553 9.19841 28.7334 8.9717 28.5134 8.745C27.9553 8.16707 27.4108 7.57653 26.8575 6.99375C25.9942 6.08504 25.1367 5.16954 24.2802 4.25502C23.9362 3.88726 23.5854 3.54086 23.1412 3.29622C22.6921 3.04866 22.2137 2.90785 21.702 2.86213C20.8215 2.78362 20.0267 3.01018 19.3062 3.51073C19.1827 3.59593 19.0446 3.67041 18.9783 3.81982L18.9822 3.81983Z" fill="#EFA000"/>
<path d="M18.9835 3.82006C19.4689 3.40934 20.0065 3.10165 20.6369 2.97379C21.758 2.74692 22.7722 2.98108 23.6592 3.70534C24.1507 4.10642 24.5449 4.60828 24.9809 5.06555C25.7493 5.87211 26.5148 6.68158 27.2802 7.49105C27.8858 8.1322 28.4894 8.77626 29.0941 9.41935C29.8857 10.2619 30.687 11.0967 31.466 11.9508C32.0046 12.5414 32.3353 13.2363 32.3812 14.0482C32.3821 14.0705 32.3957 14.0929 32.4034 14.1152C33.3141 12.7654 33.1796 11.1095 32.0498 9.90704C29.6091 7.30938 27.1616 4.71851 24.7209 2.12085C24.158 1.52154 23.4848 1.14534 22.6645 1.04073C22.6422 1.03778 22.6218 1.0222 22.6005 1.01147L21.9052 1.01005C21.5944 1.08515 21.2748 1.12917 20.9784 1.26256C19.8655 1.76619 19.185 2.60668 18.9806 3.81908L18.9835 3.82006Z" fill="#E74A41"/>
<path d="M18.5298 19.0317C18.9606 18.6956 19.3392 18.3041 19.7255 17.8922C19.4575 17.8916 19.1905 17.8911 18.9225 17.8905C18.7324 18.2504 18.5714 18.62 18.5298 19.0317Z" fill="#E74A41"/>
<path d="M2.1449 11.6133C2.42403 11.3984 2.70412 11.1843 3.02681 11.0345C3.4846 10.8218 3.9597 10.6946 4.46852 10.6966C8.87892 10.7095 13.2893 10.7108 17.6997 10.7402C18.5697 10.7459 19.4398 10.7496 20.3108 10.7669C20.3768 10.768 20.4419 10.7672 20.5254 10.7431C19.9276 10.1214 19.3813 9.45897 18.76 8.86634C15.8004 8.85542 12.8416 8.84548 9.88195 8.83359C8.37784 8.8276 6.87375 8.80413 5.37058 8.81076C3.75283 8.81813 2.36661 10.0378 2.14587 11.6143L2.1449 11.6133Z" fill="#E74A41"/>
<path d="M11.1776 17.3322C13.3352 17.3366 15.4928 17.3207 17.6494 17.3552C18.5738 17.3697 19.4992 17.3706 20.4236 17.3871C20.5343 17.3893 20.6284 17.4137 20.6777 17.5255C20.7299 17.6431 20.6948 17.744 20.6092 17.8244C20.1558 18.2459 19.7034 18.6703 19.2423 19.083C18.5993 19.6565 18.0513 20.2895 17.9232 21.1806C17.7823 22.1611 18.0272 23.0297 18.7112 23.7633C19.3662 24.4657 20.1813 24.78 21.13 24.7334C21.7642 24.7027 22.3434 24.4834 22.8307 24.0737C23.356 23.632 23.8444 23.1484 24.3484 22.6824C25.0576 22.0265 25.7707 21.3754 26.4722 20.7117C26.9888 20.2233 27.5112 19.7418 28.0366 19.2632C28.7681 18.5956 29.4958 17.9242 30.2148 17.243C30.5933 16.8845 31.0125 16.5688 31.3182 16.1393C31.6114 15.7272 31.7929 15.2712 31.8629 14.7664C31.9812 13.9131 31.7555 13.1572 31.2422 12.4793C31.1183 12.315 30.9768 12.1632 30.8354 12.0134C30.4972 11.6553 30.1483 11.306 29.8131 10.946C29.1581 10.2436 28.5012 9.54312 27.8375 8.84844C27.4431 8.43592 27.0555 8.01564 26.6641 7.59924C26.0101 6.90458 25.358 6.20798 24.7001 5.51623C24.3144 5.11149 23.9483 4.68834 23.55 4.29523C23.0344 3.7873 22.4194 3.50152 21.6951 3.42042C20.1622 3.24929 18.791 4.28742 18.4395 5.6947C18.2025 6.64389 18.3881 7.52014 18.973 8.31176C19.1551 8.5578 19.3858 8.75636 19.5844 8.98691C19.8982 9.34974 20.253 9.67771 20.5756 10.0328C20.8052 10.2848 21.0446 10.5261 21.2781 10.7742C21.3633 10.8646 21.4544 10.9648 21.3842 11.1133C21.3149 11.2607 21.1858 11.2828 21.0488 11.2825C20.4148 11.2832 19.7806 11.3032 19.1476 11.2747C17.6009 11.2046 16.0549 11.2441 14.5081 11.2371C11.1503 11.2205 7.79243 11.2194 4.43364 11.2135C3.72091 11.2121 3.10278 11.4788 2.5707 11.9312C1.95302 12.4562 1.59428 13.142 1.51592 13.9468C1.44151 14.7157 1.63037 15.4327 2.09809 16.059C2.60165 16.733 3.28154 17.1267 4.10467 17.274C4.28813 17.3065 4.47843 17.3166 4.66584 17.3169C6.83511 17.3243 9.00536 17.3278 11.1746 17.3322L11.1776 17.3322Z" fill="#F8A620"/>
<path d="M12.5948 17.0139C12.9366 17.0156 13.2764 17.0338 13.5837 16.8334C13.9853 16.5701 14.2105 16.1055 14.1163 15.6392C14.0212 15.1651 13.7344 14.848 13.2627 14.714C13.1579 14.6846 13.0511 14.6669 12.9395 14.6657C12.2336 14.6546 11.5276 14.6483 10.8227 14.6196C9.89254 14.5828 8.9633 14.5673 8.0331 14.5391C7.08446 14.511 6.1368 14.4789 5.18814 14.4605C4.91626 14.4551 4.64448 14.4021 4.37246 14.4647C3.81386 14.5927 3.44197 15.0609 3.44564 15.6367C3.44843 16.1718 3.84456 16.6688 4.39205 16.7534C4.75025 16.8095 5.11927 16.7967 5.48339 16.8061C6.20094 16.8251 6.9195 16.8266 7.63606 16.8552C8.55944 16.8911 9.48482 16.8978 10.4072 16.9386C11.1364 16.9711 11.8677 16.9241 12.5938 17.012L12.5948 17.0139Z" fill="#FBCE84"/>
<path d="M24.435 19.0359C24.0389 18.9952 23.7558 19.2665 23.4611 19.5116C22.8259 20.0386 22.1888 20.5645 21.5556 21.0944C21.2482 21.3511 20.934 21.6029 20.6451 21.879C20.1761 22.3267 20.1776 23.0278 20.6272 23.5171C21.0205 23.9452 21.7575 23.9788 22.2195 23.5923C23.2214 22.7553 24.2232 21.9184 25.2251 21.0825C25.6084 20.7618 25.7395 20.263 25.5667 19.78C25.3996 19.3136 24.9904 19.036 24.434 19.0368L24.435 19.0359Z" fill="#FBCE84"/>
</svg>
