<svg width="342" height="192" viewBox="0 0 342 192" fill="none" xmlns="http://www.w3.org/2000/svg">
<path d="M0 37C0 25.9543 8.95431 17 20 17H322C333.046 17 342 25.9543 342 37V172C342 183.046 333.046 192 322 192H20C8.95431 192 0 183.046 0 172V37Z" fill="#FFEDA9"/>
<path d="M35.2983 96.5455H38.9886V107.881C38.9886 109.153 38.6847 110.267 38.0767 111.222C37.4744 112.176 36.6307 112.92 35.5455 113.455C34.4602 113.983 33.196 114.247 31.7528 114.247C30.304 114.247 29.0369 113.983 27.9517 113.455C26.8665 112.92 26.0227 112.176 25.4205 111.222C24.8182 110.267 24.517 109.153 24.517 107.881V96.5455H28.2074V107.565C28.2074 108.23 28.3523 108.821 28.642 109.338C28.9375 109.855 29.3523 110.261 29.8864 110.557C30.4205 110.852 31.0426 111 31.7528 111C32.4688 111 33.0909 110.852 33.6193 110.557C34.1534 110.261 34.5653 109.855 34.8551 109.338C35.1506 108.821 35.2983 108.23 35.2983 107.565V96.5455ZM52.8487 104.642L49.5249 104.847C49.468 104.562 49.3459 104.307 49.1584 104.08C48.9709 103.847 48.7237 103.662 48.4169 103.526C48.1158 103.384 47.755 103.312 47.3345 103.312C46.772 103.312 46.2976 103.432 45.9112 103.67C45.5249 103.903 45.3317 104.216 45.3317 104.608C45.3317 104.92 45.4567 105.185 45.7067 105.401C45.9567 105.616 46.3857 105.79 46.9936 105.92L49.3629 106.398C50.6357 106.659 51.5845 107.08 52.2095 107.659C52.8345 108.239 53.147 109 53.147 109.943C53.147 110.801 52.8942 111.554 52.3885 112.202C51.8885 112.849 51.201 113.355 50.326 113.719C49.4567 114.077 48.4538 114.256 47.3175 114.256C45.5845 114.256 44.2038 113.895 43.1754 113.173C42.1527 112.446 41.5533 111.457 41.3771 110.207L44.9482 110.02C45.0561 110.548 45.3175 110.952 45.7322 111.23C46.147 111.503 46.6783 111.639 47.326 111.639C47.9624 111.639 48.4737 111.517 48.8601 111.273C49.2521 111.023 49.451 110.702 49.4567 110.31C49.451 109.98 49.3118 109.71 49.0391 109.5C48.7663 109.284 48.3459 109.119 47.7777 109.006L45.5107 108.554C44.2322 108.298 43.2805 107.855 42.6555 107.224C42.0362 106.594 41.7266 105.79 41.7266 104.812C41.7266 103.972 41.9538 103.247 42.4084 102.639C42.8686 102.031 43.5135 101.562 44.343 101.233C45.1783 100.903 46.1555 100.739 47.2749 100.739C48.9283 100.739 50.2294 101.088 51.1783 101.787C52.1328 102.486 52.6896 103.437 52.8487 104.642ZM61.3991 114.256C60.0526 114.256 58.8935 113.983 57.9219 113.438C56.956 112.886 56.2116 112.108 55.6889 111.102C55.1662 110.091 54.9048 108.895 54.9048 107.514C54.9048 106.168 55.1662 104.986 55.6889 103.969C56.2116 102.952 56.9474 102.159 57.8963 101.591C58.8509 101.023 59.9702 100.739 61.2543 100.739C62.1179 100.739 62.9219 100.878 63.6662 101.156C64.4162 101.429 65.0696 101.841 65.6264 102.392C66.1889 102.943 66.6264 103.636 66.9389 104.472C67.2514 105.301 67.4077 106.273 67.4077 107.386V108.384H56.3537V106.134H63.9901C63.9901 105.611 63.8764 105.148 63.6491 104.744C63.4219 104.341 63.1065 104.026 62.7031 103.798C62.3054 103.565 61.8423 103.449 61.3139 103.449C60.7628 103.449 60.2741 103.577 59.848 103.832C59.4276 104.082 59.098 104.42 58.8594 104.847C58.6207 105.267 58.4986 105.736 58.4929 106.253V108.392C58.4929 109.04 58.6122 109.599 58.8509 110.071C59.0952 110.543 59.4389 110.906 59.8821 111.162C60.3253 111.418 60.8509 111.545 61.4588 111.545C61.8622 111.545 62.2315 111.489 62.5668 111.375C62.902 111.261 63.1889 111.091 63.4276 110.864C63.6662 110.636 63.848 110.358 63.973 110.028L67.331 110.25C67.1605 111.057 66.8111 111.761 66.2827 112.364C65.7599 112.96 65.0838 113.426 64.2543 113.761C63.4304 114.091 62.4787 114.256 61.3991 114.256ZM79.0646 114.247C78.2294 114.247 77.4851 114.102 76.8317 113.812C76.1783 113.517 75.6612 113.082 75.2805 112.509C74.9055 111.929 74.718 111.207 74.718 110.344C74.718 109.616 74.8516 109.006 75.1186 108.511C75.3857 108.017 75.7493 107.619 76.2095 107.318C76.6697 107.017 77.1925 106.79 77.7777 106.636C78.3686 106.483 78.9879 106.375 79.6357 106.312C80.397 106.233 81.0107 106.159 81.4766 106.091C81.9425 106.017 82.2805 105.909 82.4908 105.767C82.701 105.625 82.8061 105.415 82.8061 105.136V105.085C82.8061 104.545 82.6357 104.128 82.2947 103.832C81.9595 103.537 81.4822 103.389 80.8629 103.389C80.2095 103.389 79.6896 103.534 79.3033 103.824C78.9169 104.108 78.6612 104.466 78.5362 104.898L75.1783 104.625C75.3487 103.83 75.6839 103.142 76.1839 102.562C76.6839 101.977 77.3288 101.528 78.1186 101.216C78.9141 100.898 79.8345 100.739 80.88 100.739C81.6072 100.739 82.3033 100.824 82.968 100.994C83.6385 101.165 84.2322 101.429 84.7493 101.787C85.272 102.145 85.6839 102.605 85.9851 103.168C86.2862 103.724 86.4368 104.392 86.4368 105.17V114H82.9936V112.185H82.8913C82.6811 112.594 82.3999 112.955 82.0476 113.267C81.6953 113.574 81.272 113.815 80.7777 113.991C80.2834 114.162 79.7124 114.247 79.0646 114.247ZM80.1044 111.741C80.6385 111.741 81.1101 111.636 81.5192 111.426C81.9283 111.21 82.2493 110.92 82.4822 110.557C82.7152 110.193 82.8317 109.781 82.8317 109.321V107.932C82.718 108.006 82.5618 108.074 82.3629 108.136C82.1697 108.193 81.951 108.247 81.7067 108.298C81.4624 108.344 81.218 108.386 80.9737 108.426C80.7294 108.46 80.5078 108.491 80.3089 108.52C79.8828 108.582 79.5107 108.682 79.1925 108.818C78.8743 108.955 78.6271 109.139 78.451 109.372C78.2749 109.599 78.1868 109.884 78.1868 110.224C78.1868 110.719 78.3658 111.097 78.7237 111.358C79.0874 111.614 79.5476 111.741 80.1044 111.741ZM94.8764 96.5455H99.4276L104.234 108.273H104.439L109.246 96.5455H113.797V114H110.217V102.639H110.072L105.555 113.915H103.118L98.6009 102.597H98.456V114H94.8764V96.5455ZM116.769 114V100.909H120.4V114H116.769ZM118.593 99.2216C118.053 99.2216 117.59 99.0426 117.204 98.6847C116.823 98.321 116.633 97.8864 116.633 97.3807C116.633 96.8807 116.823 96.4517 117.204 96.0938C117.59 95.7301 118.053 95.5483 118.593 95.5483C119.133 95.5483 119.593 95.7301 119.974 96.0938C120.36 96.4517 120.553 96.8807 120.553 97.3807C120.553 97.8864 120.36 98.321 119.974 98.6847C119.593 99.0426 119.133 99.2216 118.593 99.2216ZM134.2 104.642L130.876 104.847C130.82 104.562 130.697 104.307 130.51 104.08C130.322 103.847 130.075 103.662 129.768 103.526C129.467 103.384 129.107 103.312 128.686 103.312C128.124 103.312 127.649 103.432 127.263 103.67C126.876 103.903 126.683 104.216 126.683 104.608C126.683 104.92 126.808 105.185 127.058 105.401C127.308 105.616 127.737 105.79 128.345 105.92L130.714 106.398C131.987 106.659 132.936 107.08 133.561 107.659C134.186 108.239 134.499 109 134.499 109.943C134.499 110.801 134.246 111.554 133.74 112.202C133.24 112.849 132.553 113.355 131.678 113.719C130.808 114.077 129.805 114.256 128.669 114.256C126.936 114.256 125.555 113.895 124.527 113.173C123.504 112.446 122.905 111.457 122.729 110.207L126.3 110.02C126.408 110.548 126.669 110.952 127.084 111.23C127.499 111.503 128.03 111.639 128.678 111.639C129.314 111.639 129.825 111.517 130.212 111.273C130.604 111.023 130.803 110.702 130.808 110.31C130.803 109.98 130.663 109.71 130.391 109.5C130.118 109.284 129.697 109.119 129.129 109.006L126.862 108.554C125.584 108.298 124.632 107.855 124.007 107.224C123.388 106.594 123.078 105.79 123.078 104.812C123.078 103.972 123.305 103.247 123.76 102.639C124.22 102.031 124.865 101.562 125.695 101.233C126.53 100.903 127.507 100.739 128.626 100.739C130.28 100.739 131.581 101.088 132.53 101.787C133.484 102.486 134.041 103.437 134.2 104.642ZM139.367 114L135.805 100.909H139.478L141.506 109.705H141.626L143.739 100.909H147.344L149.492 109.653H149.603L151.597 100.909H155.262L151.708 114H147.864L145.614 105.767H145.452L143.202 114H139.367ZM160.932 114.247C160.097 114.247 159.352 114.102 158.699 113.812C158.045 113.517 157.528 113.082 157.148 112.509C156.773 111.929 156.585 111.207 156.585 110.344C156.585 109.616 156.719 109.006 156.986 108.511C157.253 108.017 157.616 107.619 158.077 107.318C158.537 107.017 159.06 106.79 159.645 106.636C160.236 106.483 160.855 106.375 161.503 106.312C162.264 106.233 162.878 106.159 163.344 106.091C163.81 106.017 164.148 105.909 164.358 105.767C164.568 105.625 164.673 105.415 164.673 105.136V105.085C164.673 104.545 164.503 104.128 164.162 103.832C163.827 103.537 163.349 103.389 162.73 103.389C162.077 103.389 161.557 103.534 161.17 103.824C160.784 104.108 160.528 104.466 160.403 104.898L157.045 104.625C157.216 103.83 157.551 103.142 158.051 102.562C158.551 101.977 159.196 101.528 159.986 101.216C160.781 100.898 161.702 100.739 162.747 100.739C163.474 100.739 164.17 100.824 164.835 100.994C165.506 101.165 166.099 101.429 166.616 101.787C167.139 102.145 167.551 102.605 167.852 103.168C168.153 103.724 168.304 104.392 168.304 105.17V114H164.861V112.185H164.759C164.548 112.594 164.267 112.955 163.915 113.267C163.562 113.574 163.139 113.815 162.645 113.991C162.151 114.162 161.58 114.247 160.932 114.247ZM161.972 111.741C162.506 111.741 162.977 111.636 163.386 111.426C163.795 111.21 164.116 110.92 164.349 110.557C164.582 110.193 164.699 109.781 164.699 109.321V107.932C164.585 108.006 164.429 108.074 164.23 108.136C164.037 108.193 163.818 108.247 163.574 108.298C163.33 108.344 163.085 108.386 162.841 108.426C162.597 108.46 162.375 108.491 162.176 108.52C161.75 108.582 161.378 108.682 161.06 108.818C160.741 108.955 160.494 109.139 160.318 109.372C160.142 109.599 160.054 109.884 160.054 110.224C160.054 110.719 160.233 111.097 160.591 111.358C160.955 111.614 161.415 111.741 161.972 111.741ZM174.411 110.233L174.419 105.878H174.947L179.141 100.909H183.308L177.675 107.489H176.814L174.411 110.233ZM171.121 114V96.5455H174.751V114H171.121ZM179.303 114L175.45 108.298L177.871 105.733L183.555 114H179.303Z" fill="#5A4701"/>
<path d="M306.663 41.9993C306.663 41.9993 291.421 48.7434 287.457 50.7309C283.493 52.7183 273.328 52.9779 267.9 60.5787C262.471 68.1795 254.459 78.9792 252.221 82.3484C249.979 85.7175 239.815 97.7259 238.178 102.65C237.059 106.016 235.88 110.516 235.552 115.434C234.355 118.645 231.325 122.32 233.584 125.495C233.02 131.905 233.023 138.796 234.041 145.583C235.324 154.136 248.774 159.233 252.307 138.156C252.321 147.741 254.545 155.128 259.39 162.216C259.876 173.298 275.132 169.366 273.774 156.654C279.718 158.122 285.55 166.765 290.46 162.703C297.866 156.908 293.567 145.514 288.035 140.717C286.462 139.353 288.754 136.768 288.754 136.439C288.754 135.095 292.805 123.47 294.549 121.642C296.119 120.067 300.817 119.458 300.817 119.458C300.817 119.458 297.04 131.187 299.842 135.707C302.644 140.227 303.74 144.381 308.493 147.314C313.246 150.245 323.602 157.967 329.572 151.834C333.62 140.106 322.239 135.274 318.191 134.149C318.579 132.992 318.318 131.694 317.4 129.912C319.569 128.559 319.394 125.942 319.27 123.358C319.27 123.358 325.685 122.045 329.906 117.598C335.283 119.083 342 114.82 342 114.82L342 42.2734L306.666 42.008L306.663 41.9993Z" fill="#DEAA87"/>
<path d="M233.863 127.051C234.8 130.143 238.093 132.239 242.113 132.82C248.166 133.692 249.665 153.547 238.932 152.454C243.539 154.476 249.898 151.735 252.169 138.25C252.169 140.085 252.255 141.836 252.425 143.522C262.965 128.36 271.993 159.903 268.832 167.613C271.837 165.856 274.246 162.06 273.67 156.696C274.972 157.015 276.269 157.68 277.554 158.476C277.341 158.35 274.381 156.084 273.848 151.764C273.298 147.318 271.944 143.867 271.834 142.081C271.759 140.87 272.811 139.671 275.816 140.266C267.529 136.898 258.179 132.944 250.846 129.847C253.909 128.748 256.969 126.887 260.032 124.822C269.224 128.391 279.104 132.202 288.785 135.889C289.422 133.099 292.894 123.439 294.476 121.788C295.652 120.615 298.579 119.979 299.98 119.732C291.188 115.412 294.148 113.281 296.741 110.066C321.227 106.805 325.869 120.865 317.351 118.455C310.214 116.433 305.264 115.156 299.98 119.735C300.216 119.695 300.409 119.663 300.544 119.643C300.544 119.643 300.547 119.643 300.55 119.643C300.68 119.623 300.755 119.614 300.755 119.614C300.755 119.614 296.971 131.308 299.778 135.814C302.584 140.321 303.682 144.462 308.442 147.387C309.16 147.827 310.015 148.382 310.955 148.974C309.03 142.877 309.41 137.197 313.176 136.875C324.958 141.782 329.315 148.31 326.653 153.757C327.696 153.398 328.672 152.797 329.554 151.893C333.608 140.2 322.209 135.383 318.155 134.261C318.544 133.108 318.282 131.814 317.363 130.036C319.536 128.688 319.36 126.079 319.236 123.502C319.236 123.502 325.661 122.194 329.888 117.759C335.274 119.24 342.002 114.987 342.002 114.987L342.002 111.743C336.233 113.034 331.012 114.806 326.108 109.548C330.966 110.362 335.331 111.012 342.002 108.234L342.002 94.0356C328.039 100.794 304.296 111.475 312.897 92.5689C306.837 102.29 301.806 102.83 298.179 102.045C300.948 100.918 306.316 88.6749 306.61 86.7825C306.324 88.7842 297.358 100.544 294.381 100.391C293.099 101.427 290.137 101.919 290.137 101.467L294.104 89.7131C292.744 91.3869 287.296 101.973 286.875 103.112C284.947 104.205 282.832 104.812 280.499 104.846L278.15 101.283C276.277 105.824 271.189 113.508 265.547 113.368C259.418 122.706 242.735 136.358 233.866 127.06L233.863 127.051ZM277.551 158.474C277.551 158.474 277.577 158.491 277.591 158.499C277.591 158.499 277.56 158.479 277.551 158.474ZM284.259 143.642C290.393 147.479 294.943 154.255 288.327 163.719C289.027 163.587 289.713 163.274 290.379 162.721C295.485 158.741 295.032 152.118 292.445 146.817C289.653 145.753 286.924 144.695 284.259 143.642Z" fill="#D38D5F"/>
<path d="M305.145 104.717C304.306 105.167 303.401 105.618 302.632 106.069C308.452 105.853 316.594 105.845 321.447 109.745C334.111 119.931 319.998 121.619 319.998 121.619C317.738 119.512 307.459 116.105 300.492 119.469C300.959 119.386 301.258 119.346 301.258 119.346C301.258 119.346 301.198 119.541 301.133 119.759C304.078 118.68 310.968 117.073 317.576 122.265C318.088 124.67 316.085 127.638 315.487 127.595C313.447 126.151 307.391 122.776 301.71 124.578C301.71 124.578 306.921 123.361 314.636 128.705C315.903 129.859 316.264 132.353 314.517 132.23C312.769 132.109 307.943 131.971 306.622 133.992C306.622 133.992 311.096 132.235 316.085 134.334C327.722 139.23 329.466 147.978 326.84 153.414C327.87 153.055 328.835 152.455 329.706 151.554C333.71 139.884 322.451 135.077 318.447 133.958C318.831 132.807 318.572 131.515 317.664 129.741C319.81 128.395 319.637 125.792 319.514 123.218C319.514 123.218 325.861 121.912 330.036 117.486C335.355 118.964 342 114.722 342 114.722L342 113.718C339.009 114.911 333.254 116.938 331.046 115.856C327.58 114.16 323.14 108.945 321.481 106.559C327.907 106.06 334.891 105.65 342 105.274L342 98.7987C328.209 105.543 314.614 106.135 305.148 104.711L305.145 104.717Z" fill="#C87137"/>
<path d="M260.078 123.703C269.295 127.296 279.203 131.132 288.911 134.844C289.035 134.294 289.263 133.495 289.57 132.528C286.726 131.543 282.173 126.923 278.642 125.076C280.364 126.928 282.595 128.593 283.109 130.901C278.729 130.504 276.25 128.584 274.299 126.242C281.942 123.191 283.054 113.622 292.392 119.636C286.045 114.474 291.058 116.555 295.825 118.098C287.01 113.75 288.997 110.878 296.888 108.848C297.29 108.489 297.7 108.133 298.171 107.774C298.766 107.323 299.411 106.871 300.104 106.419C300.797 105.968 301.534 105.516 302.311 105.061C303.092 104.607 304.01 104.152 304.863 103.698C302.245 103.307 299.879 102.795 297.977 102.178C297.027 101.871 296.602 100.982 296.602 100.982C295.73 101.634 295.004 101.393 294.247 101.35C292.962 102.392 288.099 101.775 288.099 101.318C287.677 101.816 287.339 101.816 286.998 101.839C285.065 102.936 282.944 103.55 280.604 103.585L278.891 104.413C278.891 104.413 273.788 111.254 271.494 111.642L267.296 114.806C266.643 118.04 263.785 120.936 260.078 123.7L260.078 123.703Z" fill="#784421"/>
<path d="M216.386 117.233C220.9 118.327 226.124 120.086 232.049 122.33C232.346 120.097 233.982 117.783 234.787 115.672C234.795 115.542 234.807 115.415 234.818 115.285C226.156 111.954 220.401 109.721 220.401 109.721C218.515 111.387 216.764 114.651 216.383 117.233L216.386 117.233ZM250.263 129.633C270.697 138.07 296.769 149.068 329.062 158.875C331.012 158.599 333.138 152.327 331.69 151.115C330.741 150.808 329.717 150.469 328.649 150.111L328.649 151.617C322.612 156.885 312.585 149.615 307.926 146.816C305.146 145.145 303.608 143.059 302.255 140.739C288.553 135.716 273.193 129.929 259.462 124.709C256.395 126.732 253.332 128.556 250.266 129.633L250.263 129.633Z" fill="#A0892C"/>
<path d="M237.817 104.296C237.832 106.219 235.509 114.486 236.163 115.184C236.97 114.269 242.205 108.997 242.205 108.997C243.851 107.769 246.188 102.503 248.354 98.7281C250.52 94.9534 253.465 93.9013 256.843 91.97C257.358 91.677 258.046 91.2608 258.853 90.7509C259.272 90.4842 258.732 87.6034 253.838 82.3751C256.36 84.4852 261.294 89.1537 261.876 88.7551C266.359 85.6779 272.022 81.2673 273.994 77.8385C278.347 70.2745 291.068 62.8747 291.068 62.8747C291.068 62.8747 296.861 58.9681 297.208 57.0368C297.555 55.1056 286.556 49.9271 284.65 52.5618C282.744 55.1935 278.24 57.1599 273.39 59.4429C271.788 60.1961 269.424 59.3491 268.982 60.41C267.883 63.0505 266.914 62.3325 266.616 62.9948C265.85 64.7063 263.625 67.9417 261.864 69.0085C257.783 74.6763 253.812 80.1654 252.342 82.4015C250.089 85.8245 239.868 98.0247 238.222 103.027C238.089 103.435 237.953 103.86 237.82 104.296L237.817 104.296ZM267.082 67.3322C267.07 67.2648 267.116 67.2267 267.238 67.2179C268.019 67.1739 270.096 68.7975 269.879 68.0531C269.662 67.3058 267.669 65.4214 268.406 65.4214C269.144 65.4214 270.052 67.045 270.269 66.6493C270.486 66.2537 270.382 64.9085 270.66 65.2895C271.357 66.2508 271.18 69.196 271.785 70.5119C272.392 71.8278 274.816 74.7232 274.816 74.7232C274.816 74.7232 274.295 75.4705 273.257 74.4155C272.218 73.3634 270.743 70.4211 269.748 69.5448C268.907 68.8033 267.142 67.6897 267.079 67.3322L267.082 67.3322Z" fill="#E9C6AF"/>
<path d="M239.96 110.816C240.172 117.118 244.158 119.807 246.97 123.679C242.425 131.372 235.241 127.641 233.453 125.31C231.831 123.196 232.755 117.479 239.963 110.816L239.96 110.816Z" fill="#F4E3D7"/>
<path d="M248.062 101.712C248.062 101.712 248.501 109.664 255.513 111.906C257.881 105.271 253.278 96.6583 250.693 96.045C254.507 100.001 255.03 105.491 253.936 109.007C249.643 107.073 248.062 101.712 248.062 101.712ZM249.511 98.149C249.555 101.336 250.723 104.097 253.125 106.389C251.776 103.575 250.213 101.286 249.561 96.7581C249.523 97.2305 249.505 97.6942 249.511 98.149ZM252.283 93.4127C256.251 96.9312 258.334 102.422 258.888 107.601C259.327 102.985 258.378 98.733 254.243 92.2447C253.564 92.6174 252.909 92.993 252.283 93.4127Z" fill="#D99B73"/>
<path d="M277.558 72.9227C282.476 71.7015 294.821 67.2892 293.566 75.1516C293.07 78.2488 295.314 83.256 298.906 77.8047C303.787 70.3978 330.002 62.6122 342.001 62.319L342.001 42.2616L306.797 41.9997C306.797 41.9997 291.611 48.6551 287.661 50.6165C287.335 50.7787 286.959 50.9296 286.552 51.0748L285.91 52.1707C289.398 51.6783 297.312 55.5782 297.017 57.1808C296.673 59.0568 290.932 62.8513 290.932 62.8513C290.932 62.8513 282.989 67.3803 277.555 72.9256L277.558 72.9227Z" fill="#D99B73"/>
<path d="M314.001 150.559C316.634 151.913 319.556 153.112 322.339 153.414C320.465 150.714 315.138 144.651 313.356 145.947C311.569 147.249 313.009 149.39 314.004 150.559L314.001 150.559Z" fill="#F4E3D7"/>
<path d="M258.996 133.752C260.404 135.108 261.258 135.787 255.707 136.477C267.779 136.187 272.934 151.702 272.235 162.152C273.063 160.438 273.471 158.335 273.195 155.886C273.557 155.971 273.915 156.081 274.276 156.212C273.677 154.832 272.883 152.953 272.61 151.967C272.16 150.349 269.706 140.988 269.192 139.391C268.966 138.685 269.115 138.249 269.405 137.915C265.777 136.48 262.354 135.108 259.002 133.755L258.996 133.752Z" fill="#A05A2C"/>
<path d="M246.972 130.863C250.325 133.909 251.071 137.971 251.141 143.582C251.736 141.957 252.249 140.096 252.647 137.974C252.647 139.429 252.71 140.834 252.825 142.195C253.845 137.921 253.75 133.791 254.615 130.699C253.454 130.261 252.266 129.811 251.131 129.382C250.058 130.082 248.611 130.581 246.969 130.863L246.972 130.863Z" fill="#A05A2C"/>
<path d="M273.184 138.952C284.202 143.609 296.443 148.56 309.988 153.414C312.296 153.107 314.161 152.646 315.784 152.1C312.673 150.561 309.811 148.522 307.887 147.304C305.171 145.584 303.669 143.438 302.348 141.052C298.987 139.752 295.522 138.404 292.003 137.029C287.414 139.19 278.711 138.772 273.184 138.952Z" fill="#8C7827"/>
<path d="M278.645 141.402C287.422 144.974 296.883 148.664 307.045 152.324C306.216 150.832 305.216 149.283 304.151 148.17C301.365 145.265 290.153 142.396 285.639 141.817C283.447 141.535 280.881 141.392 278.645 141.402Z" fill="#786721"/>
<path d="M250.246 129.763C251.805 130.355 253.403 130.961 255.001 131.57C254.766 130.279 254.935 128.963 265.538 126.993C263.569 126.305 261.563 125.604 259.877 125.016C256.666 126.968 253.457 128.727 250.246 129.765L250.246 129.763Z" fill="#786721"/>
<path d="M200.156 111.663C200.545 111.908 199.921 112.177 200.533 112.509C206.34 112.532 212.512 113.454 217.503 115.184C217.96 113.742 218.743 112.233 219.662 110.981C217.179 110.031 208.504 102.55 208.263 100.261C207.73 99.8696 206.517 99.5594 206.299 100.582C206.222 100.951 205.374 100.602 205.33 101.446C205.321 101.619 204.865 101.312 204.962 101.851C205.006 102.102 204.264 101.653 204.444 102.48C204.538 102.913 203.581 102.924 203.622 103.617C203.64 103.933 202.868 103.841 203.092 104.433C203.204 104.732 202.359 104.858 202.594 105.263C202.806 105.629 201.785 105.833 201.991 106.37C202.094 106.644 201.263 106.596 201.602 107.147C201.758 107.398 201.022 107.381 201.24 107.935C201.363 108.253 200.136 108.345 200.86 108.851C201.149 109.055 200.03 109.167 200.53 109.776C200.769 110.067 200.041 110.126 200.262 110.76C200.377 111.09 199.712 111.386 200.153 111.663L200.156 111.663Z" fill="#E9DDAF"/>
<path d="M202.184 110.849C205.619 111.291 208.869 111.955 211.885 112.902C208.854 111.665 205.823 110.425 202.184 110.849ZM203.122 108.57C206.557 109.012 213.369 113.139 216.384 114.09C213.353 112.85 206.764 108.147 203.122 108.57ZM205.478 103.167C207.647 104.604 209.442 106.213 211.203 107.833C209.679 105.942 208.347 103.962 205.478 103.167Z" fill="#D3BC5F"/>
<path d="M202.184 106.594C205.816 107.719 208.628 109.533 212.008 110.568C208.61 109.218 206.279 106.863 202.184 106.594ZM202.796 105.055C206.428 106.18 210.819 109.782 214.199 110.816C210.801 109.466 206.891 105.324 202.796 105.055ZM206.519 100.986C209.445 103.669 211.375 106.611 214.105 109.095C211.472 106.316 210.174 103.095 206.519 100.986Z" fill="#A0892C"/>
<path d="M213.109 106.447C213.999 107.89 215.476 110.215 216.042 110.625C216.799 111.171 218.042 110.399 218.571 110.164C217.294 109.549 215.177 108.093 213.109 106.447Z" fill="#C8AB37"/>
<path d="M253.523 82.4139C258.179 87.8685 258.693 90.8741 258.294 91.1523L261.17 89.0702C260.617 89.486 255.923 84.6123 253.523 82.4139Z" fill="#D38D5F"/>
<path d="M266.629 67.0647C266.692 67.425 268.435 68.5471 269.267 69.2942C270.25 70.1771 271.708 73.1419 272.734 74.202C273.761 75.2621 274.275 74.512 274.275 74.512C274.275 74.512 271.877 71.5945 271.279 70.2686C270.679 68.9428 270.854 65.9751 270.168 65.0065C269.896 64.6226 269.996 65.978 269.782 66.3767C269.567 66.7753 268.67 65.1394 267.941 65.1394C267.212 65.1394 269.181 67.0411 269.396 67.7911C269.61 68.5412 267.555 66.9052 266.786 66.9495C266.666 66.9554 266.62 66.9968 266.632 67.0647L266.629 67.0647Z" fill="#D38D5F"/>
<path d="M218.57 111.508C224.312 112.544 230.094 113.398 235.672 115.184C235.796 114.977 235.911 114.773 236.013 114.568C236.022 114.463 236.035 114.359 236.047 114.254C226.737 111.54 220.551 109.722 220.551 109.722C219.854 110.188 219.178 110.81 218.57 111.508Z" fill="#8C7827"/>
<path d="M236.014 115.184C236.023 115.065 236.034 114.948 236.046 114.829C227.234 111.771 221.379 109.722 221.379 109.722C221.168 109.89 220.959 110.076 220.754 110.276C222.251 110.485 234.209 114.392 236.014 115.184Z" fill="#786721"/>
<path d="M288.667 137.361C288.877 137.818 289.28 138.276 289.358 138.071C289.438 137.866 289.653 137.427 289.533 137.16C289.414 136.893 289.431 135.649 288.967 135.997C288.54 136.117 288.277 136.507 288.667 137.361Z" fill="#E9DDAF"/>
<path d="M318.116 155.14C318.299 155.391 318.686 155.67 318.784 155.581C318.882 155.492 319.142 155.308 319.036 155.163C318.931 155.017 319.044 154.412 318.533 154.518C318.079 154.518 317.773 154.67 318.116 155.142L318.116 155.14Z" fill="#E9DDAF"/>
<path d="M293.715 145.769C294.282 145.769 295.079 145.589 295.03 145.432C294.982 145.276 294.938 144.9 294.612 144.9C294.287 144.9 293.442 144.374 293.13 144.939C292.703 145.373 292.659 145.775 293.715 145.769Z" fill="#C8AB37"/>
<path d="M273.617 132.66C273.901 132.66 274.299 132.48 274.275 132.323C274.251 132.166 274.229 131.791 274.066 131.791C273.903 131.791 273.481 131.264 273.325 131.829C273.111 132.264 273.09 132.666 273.617 132.66Z" fill="#E9DDAF"/>
<path d="M256.505 130.24C256.707 130.006 256.877 129.593 256.762 129.532C256.646 129.471 256.387 129.301 256.271 129.434C256.156 129.567 255.515 129.644 255.764 130.058C255.89 130.453 256.131 130.672 256.505 130.24Z" fill="#E9DDAF"/>
<path d="M229.519 117.244C229.59 117.807 229.861 118.542 230.009 118.454C230.156 118.365 230.519 118.214 230.481 117.891C230.44 117.568 230.856 116.589 230.263 116.434C229.782 116.132 229.383 116.194 229.519 117.24L229.519 117.244Z" fill="#E9DDAF"/>
<path d="M223.807 117.093C223.981 116.845 224.105 116.422 223.977 116.378C223.849 116.333 223.563 116.196 223.46 116.337C223.356 116.478 222.711 116.626 223.021 117.001C223.203 117.368 223.48 117.557 223.807 117.093Z" fill="#E9DDAF"/>
<rect x="24.5" y="1.5" width="45" height="30" rx="8.5" fill="#CFA404" stroke="white" stroke-width="3"/>
<path d="M40.078 25.2898C38.7314 25.2841 37.5809 24.929 36.6263 24.2244C35.6718 23.5199 34.9417 22.4943 34.436 21.1477C33.9303 19.8011 33.6775 18.179 33.6775 16.2812C33.6775 14.3892 33.9303 12.7727 34.436 11.4318C34.9473 10.0909 35.6803 9.06818 36.6348 8.36364C37.5951 7.65909 38.7428 7.30682 40.078 7.30682C41.4133 7.30682 42.5581 7.66193 43.5127 8.37216C44.4672 9.0767 45.1973 10.0994 45.703 11.4403C46.2144 12.7756 46.4701 14.3892 46.4701 16.2812C46.4701 18.1847 46.2172 19.8097 45.7115 21.1562C45.2059 22.4972 44.4758 23.5227 43.5212 24.233C42.5667 24.9375 41.4189 25.2898 40.078 25.2898ZM40.078 23.0142C41.2598 23.0142 42.1831 22.4375 42.8479 21.2841C43.5184 20.1307 43.8536 18.4631 43.8536 16.2812C43.8536 14.8324 43.7002 13.608 43.3934 12.608C43.0922 11.6023 42.6576 10.8409 42.0894 10.3239C41.5269 9.80114 40.8564 9.53977 40.078 9.53977C38.9019 9.53977 37.9786 10.1193 37.3081 11.2784C36.6377 12.4375 36.2996 14.1051 36.2939 16.2812C36.2939 17.7358 36.4445 18.9659 36.7456 19.9716C37.0525 20.9716 37.4871 21.7301 38.0496 22.2472C38.6121 22.7585 39.2883 23.0142 40.078 23.0142ZM47.207 21.5909V19.4602L54.7496 7.54545H56.4286V10.6818H55.3633L49.9684 19.2216V19.358H60.3065V21.5909H47.207ZM55.4826 25V20.9432L55.4996 19.9716V7.54545H57.9968V25H55.4826Z" fill="white"/>
</svg>
