<svg width="70" height="70" viewBox="0 0 70 70" fill="none" xmlns="http://www.w3.org/2000/svg">
<path d="M31.6197 66.8901C31.1747 67.8154 30.7358 68.7459 30.2811 69.6637C30.1549 69.9186 29.9447 69.9979 29.6854 69.9958C27.8465 69.982 26.0068 69.9884 24.1679 69.9884C19.1463 69.9884 14.1247 69.9873 9.10398 69.9926C8.80787 69.9926 8.66594 70.019 8.72026 69.503C8.98133 67.0149 8.82626 64.5797 7.88449 62.2809C7.44559 61.2097 6.73685 60.3976 6.13499 59.4808C4.46259 56.9293 2.89969 54.2921 1.64078 51.399C0.997754 49.9208 0.823417 48.341 0.710405 46.7253C0.511538 43.8861 0.310919 41.048 0.0919033 38.212C-0.0526473 36.3415 -0.0964505 34.4963 0.497521 32.7008C0.915404 31.4382 1.53303 30.3512 2.2733 29.3382C3.39116 27.8092 4.56158 26.3161 5.22652 24.3927C5.61899 23.257 5.97818 22.1034 6.38117 20.973C7.00931 19.2124 8.7553 18.6932 9.9888 19.8839C10.1579 20.0478 10.3068 20.2423 10.5074 20.4718C10.7422 19.666 10.9761 18.8677 11.2074 18.0683C11.3371 17.6199 11.4904 17.1779 11.5859 16.719C12.1124 14.1791 13.4598 12.17 14.5522 9.99704C15.536 8.04083 16.5321 6.09307 17.5633 4.17387C18.5252 2.38366 19.8962 1.45631 21.6956 1.58532C22.315 1.62973 22.8696 1.911 23.2831 2.47672C23.5152 2.79394 23.6046 2.78654 23.7991 2.42913C24.4999 1.13697 25.5381 0.436965 26.7637 0.100707C28.6542 -0.418483 30.7988 1.08516 30.3836 4.25634C30.3573 4.45937 30.2574 4.64864 30.5754 4.64653C31.9447 4.63701 32.7498 5.61829 33.2571 7.01302C33.7967 8.49869 33.7135 10.0023 33.1712 11.4679C33.0459 11.8063 33.0372 11.9585 33.3911 12.0548C34.1068 12.2483 34.5168 12.8838 34.8042 13.6536C34.8638 13.8122 34.9137 13.9761 34.9855 14.1886C35.1502 13.7487 35.265 13.3374 35.4823 12.9853C35.7722 12.5158 36.1306 12.1637 36.608 12.0463C36.9339 11.9659 36.9339 11.8095 36.8139 11.4901C36.304 10.1377 36.1901 8.73661 36.6194 7.3313C37.0977 5.76633 37.9212 4.66662 39.4272 4.64124C39.6024 4.63807 39.6471 4.5926 39.6208 4.36949C39.5717 3.95287 39.5148 3.53307 39.5551 3.10799C39.7689 0.830323 41.4299 -0.451263 43.4212 0.158865C44.5907 0.516271 45.5614 1.2554 46.2368 2.49892C46.3113 2.63639 46.3525 2.91343 46.5671 2.62264C47.3967 1.49649 48.4638 1.39181 49.5843 1.69952C50.8064 2.03577 51.7517 2.88805 52.4183 4.16858C53.7762 6.77616 55.0632 9.4419 56.4991 11.986C57.6213 13.975 58.2433 16.185 58.8741 18.413C59.0668 19.0929 59.2639 19.7697 59.4838 20.5342C59.9507 19.7623 60.536 19.3456 61.2605 19.2536C62.303 19.1225 63.243 19.8638 63.6539 21.1105C64.0201 22.2218 64.3819 23.3353 64.7656 24.4371C65.399 26.2569 66.4748 27.7108 67.5594 29.132C68.8656 30.8418 69.7408 32.7716 69.9598 35.0969C70.0588 36.1511 69.9536 37.2043 69.8739 38.2554C69.7627 39.7262 69.6575 41.1982 69.5489 42.6701C69.3982 44.7193 69.3054 46.7771 69.0776 48.8137C68.8936 50.4611 68.1612 51.8791 67.4612 53.2812C66.3749 55.4553 65.1222 57.4897 63.7888 59.4491C62.9863 60.6292 62.1497 61.7638 61.7029 63.2368C61.3954 64.2508 61.2386 65.2871 61.1588 66.3509C61.1422 66.5782 61.1378 66.8066 61.1273 67.035C61.0765 67.385 61.0704 67.735 61.1317 68.084C61.1921 68.5651 61.122 69.0568 61.2298 69.5379C61.2999 69.8488 61.2079 70.0042 60.8943 69.9989C59.6555 69.9767 58.4159 69.9894 57.1771 69.9894C51.5931 69.9894 46.0099 69.9841 40.4259 70C40.0028 70.0011 39.7522 69.8837 39.5306 69.4068C39.0207 68.3134 38.4092 67.2898 38.0062 66.1225C37.7408 65.2089 37.3492 64.3619 37.0469 63.4673C36.2725 61.1706 35.6093 58.8369 35.2878 56.3742C35.2019 55.7175 35.152 55.0534 35.0232 54.4053C35.0101 54.1874 34.9794 53.9707 34.9566 53.7698C34.9365 53.8892 34.9899 54.0193 34.9812 54.1546C34.9181 54.6347 34.8506 55.1127 34.8112 55.597C34.3451 59.1404 33.3823 62.4871 32.0831 65.7027C31.9246 66.096 31.7791 66.4968 31.6206 66.8912L31.6197 66.8901Z" fill="#20685D"/>
<path d="M35.1251 54.3431C35.2398 55.9154 35.5175 57.4498 35.8627 58.9682C36.3752 61.2237 37.1111 63.3797 37.875 65.5231C37.9442 65.7166 38.0424 65.8964 38.0047 66.1227C36.7309 63.293 35.7944 60.3143 35.3003 57.1431C35.1724 56.3225 35.0944 55.4893 34.9893 54.6265C34.9166 55.1604 34.8491 55.6595 34.7817 56.1586C34.6923 55.9789 34.7203 55.7949 34.7711 55.6109C34.8018 55.1182 34.8325 54.6243 34.8623 54.1316C35.1864 53.7742 35.0138 54.3135 35.1233 54.3431H35.1251Z" fill="#FCB217"/>
<path d="M34.7727 55.6114C34.7762 55.7944 34.7797 55.9762 34.7832 56.1592C34.6281 58.0234 34.1857 59.802 33.6662 61.5562C33.1616 63.2618 32.537 64.904 31.8335 66.5038C31.7739 66.6402 31.6924 66.7618 31.6206 66.8909C31.8624 65.8979 32.2742 64.9896 32.6044 64.0411C33.4761 61.5372 34.2032 58.9825 34.6019 56.3019C34.6369 56.0661 34.65 55.8187 34.7727 55.6125V55.6114Z" fill="#FCB217"/>
<path d="M61.1301 68.0832C61.0022 67.7343 61.0075 67.3843 61.1258 67.0332C61.1275 67.3832 61.1284 67.7332 61.1301 68.0832Z" fill="#FCB217"/>
<path d="M1.84383 44.8277C1.73169 43.453 1.61518 42.0784 1.5083 40.7027C1.43646 39.7785 1.36024 38.8543 1.32345 37.927C1.29979 37.3316 1.20693 36.7458 1.22182 36.1431C1.27789 33.9067 1.91917 31.9706 3.1991 30.3453C4.96349 28.1047 6.38272 25.606 7.17555 22.6336C7.26929 22.2836 7.39983 21.9473 7.51547 21.6068C7.6863 21.1067 8.0998 20.7112 8.46512 20.7324C8.93907 20.7599 9.32279 21.0306 9.49012 21.5646C9.80462 22.5649 10.1936 23.5387 10.3618 24.5962C10.5055 25.5034 10.4275 26.3895 10.1524 27.2735C9.92464 28.0063 9.82477 28.7952 9.63992 29.548C9.37185 30.6414 9.1686 31.7453 9.03194 32.8768C8.85147 34.3762 9.76432 36.5069 10.8953 37.0144C11.4709 37.2724 12.0912 37.2915 12.6974 37.3158C14.4618 37.3866 16.1631 37.7863 17.7496 38.737C20.0537 40.1169 21.4826 42.4136 22.3534 45.2749C22.66 46.2816 22.8755 47.3179 23.0516 48.3679C23.0586 48.4091 23.0954 48.4419 23.162 48.5508C23.1926 47.9439 23.0297 47.4596 22.9403 46.9679C22.5627 44.8826 22.0336 42.8704 21.0472 41.0611C20.0642 39.2583 18.673 38.1004 17.0812 37.2344C16.1543 36.73 15.2266 36.2235 14.1928 36.1082C13.5007 36.031 12.8095 35.9285 12.1174 35.8481C11.0793 35.7286 10.3863 34.8214 10.332 33.5556C10.2795 32.3364 10.5195 31.1902 10.8401 30.0524C10.9085 29.8113 11.0048 29.6876 11.2125 29.714C11.4455 29.7437 11.6584 29.6517 11.8283 29.4909C12.5607 28.7951 13.4464 28.7444 14.3058 28.6693C15.733 28.5456 17.1504 28.7507 18.5583 29.0278C18.7589 29.0669 18.8184 29.014 18.8386 28.7846C18.857 28.5773 18.8947 28.3658 18.9542 28.1702C19.0795 27.7547 18.9902 27.5189 18.6091 27.4924C18.4312 27.4797 18.4006 27.3846 18.4339 27.1794C18.7019 25.496 18.9595 23.8105 19.2197 22.126C19.3844 21.0602 19.5666 19.9975 19.7077 18.9274C19.8706 17.687 20.391 16.619 20.7878 15.4918C21.3292 13.9565 21.9118 12.4422 22.4602 10.9101C22.7161 10.1952 23.0866 9.56291 23.4003 8.89039C23.9198 7.77694 24.2089 6.61801 24.1835 5.33008C24.1546 3.90892 25.0753 2.34817 26.1818 1.81418C26.8327 1.50013 27.5055 1.30133 28.1766 1.59106C29.0369 1.96222 29.3864 2.91389 29.2217 4.01571C28.9808 5.62827 28.4744 7.10971 27.7526 8.48117C26.8485 10.1984 26.2676 12.0965 25.5974 13.9438C25.0201 15.5362 24.4927 17.1562 23.8952 18.7381C23.5632 19.6168 23.5895 20.5484 23.4835 21.4599C23.317 22.8969 23.1953 24.3403 23.0586 25.7826C22.9894 26.5122 22.9167 27.2429 22.8676 27.9746C22.8413 28.3669 22.7923 28.6566 22.3797 28.4568C22.3148 28.4251 22.2351 28.4377 22.1633 28.4261C21.9127 28.3859 21.6297 28.0867 21.4247 28.3193C21.1829 28.5942 21.2215 29.069 21.1251 29.4518C21.0822 29.6199 21.1908 29.6802 21.324 29.7204C22.3245 30.0196 23.3223 30.3305 24.3219 30.635C24.554 30.7059 24.6872 30.6054 24.703 30.3009C24.7117 30.1275 24.7205 29.9477 24.7617 29.7828C24.8642 29.3693 24.7415 29.1303 24.3946 29.0902C24.0424 29.0489 23.9644 28.8057 24.003 28.4367C24.173 26.7882 24.3587 25.1428 24.5015 23.4912C24.5847 22.5342 24.7038 21.5794 24.7573 20.6235C24.8142 19.5999 25.2006 18.7381 25.5116 17.8382C26.286 15.6029 27.0605 13.3654 27.898 11.1628C28.3395 10.0007 28.9133 8.91048 29.4258 7.78751C29.545 7.52633 29.679 7.26938 29.7675 6.99233C30.11 5.91589 30.7934 5.71392 31.5275 6.50275C32.3344 7.36983 32.5227 8.50126 32.3633 9.72258C32.1898 11.0517 31.6274 12.2276 31.2472 13.4753C30.6401 15.4686 29.9348 17.4206 29.3663 19.4286C29.142 20.2216 29.1648 21.1173 29.085 21.9685C28.9703 23.2025 28.8616 24.4365 28.7548 25.6715C28.6566 26.803 28.5638 27.9344 28.4709 29.0658C28.4376 29.4666 28.4043 29.8674 28.3842 30.2692C28.3737 30.4786 28.3229 30.5621 28.1424 30.4754C27.9663 30.3918 27.7832 30.3305 27.6045 30.2576C27.2576 30.1152 27.0532 30.2667 26.9913 30.7122C26.8844 31.4799 26.8835 31.482 27.5055 31.7781C28.6295 32.3121 29.7631 32.8144 30.7776 33.636C31.8928 34.538 32.4912 35.7572 32.6007 37.3888C32.6883 38.6936 32.9003 39.9858 33.0492 41.2843C33.192 42.531 33.3348 43.7776 33.4601 45.0265C33.7098 47.5241 33.7606 50.0333 33.7247 52.5468C33.6616 52.6356 33.68 52.7477 33.6677 52.8492C33.5477 53.8083 33.4768 53.9542 32.6962 54.1213C30.365 54.6214 28.0206 54.8794 25.6491 54.6383C24.0775 54.4787 22.5207 54.2238 20.9867 53.7776C20.9447 53.7649 20.9009 53.7596 20.8579 53.748C20.1028 53.5481 20.0125 53.2785 20.4348 52.4886C20.5531 52.2666 20.6766 52.0487 20.7808 51.8161C20.9114 51.5274 20.8676 51.3625 20.5758 51.3128C20.1431 51.2388 19.7077 51.1521 19.2731 51.1351C17.8574 51.0801 16.4618 50.7693 15.0514 50.6678C13.393 50.5483 11.7477 50.267 10.0885 50.1496C8.95572 50.0693 7.82647 49.8789 6.69635 49.7309C5.76947 49.6093 4.83734 49.5776 3.90959 49.4433C3.38395 49.3671 3.06769 49.0711 2.83466 48.5201C2.33968 47.3506 2.04269 46.1103 1.8447 44.8277H1.84383Z" fill="#7DC193"/>
<path d="M36.2657 52.8627C36.2657 51.4891 36.2508 50.1144 36.2683 48.7409C36.2902 46.9707 36.5031 45.2207 36.673 43.4654C36.8351 41.7979 37.055 40.1409 37.2381 38.4765C37.3459 37.4921 37.3686 36.4717 37.7182 35.5528C38.1159 34.5059 38.8466 33.825 39.6552 33.2762C40.5838 32.646 41.5562 32.1162 42.5768 31.7503C43.0245 31.5896 43.0578 31.2925 42.9886 30.8568C42.9667 30.7193 42.9264 30.5829 42.9238 30.4455C42.9185 30.1811 42.8204 30.0976 42.6171 30.1653C42.491 30.2076 42.364 30.2435 42.2387 30.2879C41.6114 30.5121 41.5685 30.5153 41.5343 29.7349C41.4493 27.7755 41.1839 25.8383 41.0683 23.8821C40.9833 22.4366 40.8335 20.9922 40.6329 19.5636C40.4795 18.4724 40.0161 17.4879 39.6946 16.4559C39.0594 14.4193 38.3393 12.4197 37.7322 10.3715C37.3494 9.08042 37.493 7.45095 38.5198 6.42209C38.7432 6.19791 38.9937 6.07208 39.2706 6.0393C39.7577 5.98114 39.9767 6.21483 40.1431 6.78689C40.2623 7.19717 40.4279 7.59687 40.6215 7.96485C42.1274 10.8304 43.0832 14.0069 44.1853 17.102C44.3868 17.6666 44.6005 18.226 44.8248 18.778C45.2593 19.8481 45.2471 21.0197 45.3706 22.1606C45.4871 23.235 45.58 24.3135 45.6834 25.39C45.785 26.4495 45.884 27.509 45.9874 28.5686C46.0171 28.8731 45.905 29.0539 45.6597 29.0708C45.1735 29.1047 45.1507 29.4737 45.2147 29.9157C45.2366 30.0711 45.2681 30.2234 45.2918 30.3789C45.3242 30.5925 45.4197 30.6845 45.601 30.6295C46.6006 30.3292 47.5993 30.0257 48.5998 29.7328C48.8179 29.6683 48.8591 29.5604 48.8109 29.2844C48.6296 28.2461 48.6427 28.2429 47.7579 28.4396C47.1744 28.5696 47.1893 28.5675 47.1219 27.8654C46.958 26.164 46.7749 24.4647 46.6085 22.7644C46.5095 21.7578 46.4455 20.7448 46.3325 19.7402C46.2213 18.7494 45.771 17.9014 45.4573 16.9994C44.6356 14.635 43.7946 12.2802 42.9106 9.94962C42.5243 8.93027 42.01 7.98177 41.5632 6.9952C41.0315 5.82042 40.7721 4.54941 40.7415 3.22129C40.7231 2.41449 41.3854 1.59182 42.0521 1.48819C43.3241 1.29046 44.6286 2.12476 45.3215 3.42537C45.7061 4.14759 45.8726 4.86029 45.8165 5.69881C45.7342 6.94868 46.1337 8.07377 46.6628 9.07725C47.3496 10.38 47.8148 11.7948 48.337 13.1832C48.902 14.6868 49.4601 16.1947 49.9936 17.7142C50.3186 18.6394 50.365 19.6535 50.5324 20.6274C50.8372 22.4081 51.0922 24.2014 51.3681 25.9885C51.4128 26.2803 51.4601 26.5722 51.5039 26.8651C51.5556 27.2119 51.6082 27.5492 51.1623 27.5503C50.9836 27.5503 50.9573 27.6962 50.9748 27.9098C51.0641 29.0021 51.1842 29.0698 52.0707 28.9154C53.7852 28.6172 55.5075 28.4343 57.2211 28.9577C57.5321 29.0529 57.8247 29.1797 58.0841 29.4282C58.2759 29.6122 58.5054 29.7423 58.7718 29.7127C58.947 29.6937 59.088 29.7508 59.1327 29.994C59.3158 30.9996 59.696 31.9544 59.6557 33.0182C59.5707 35.2937 58.8305 35.8996 57.3079 35.9356C54.7112 35.9969 52.451 37.1516 50.4439 39.0222C49.1394 40.2382 48.3238 41.9396 47.7684 43.8154C47.3225 45.3222 47.0299 46.8735 46.7846 48.4395C46.7749 48.5019 46.7933 48.5706 46.8038 48.6996C47.0097 48.2143 47.0316 47.7352 47.121 47.2816C47.5362 45.1721 48.2082 43.1989 49.3488 41.5092C50.351 40.0246 51.6099 38.9376 53.1124 38.2767C54.4887 37.6718 55.9 37.3208 57.3701 37.3134C57.7739 37.3113 58.1787 37.233 58.5817 37.1706C60.064 36.9412 60.8147 34.9173 60.8857 33.697C60.9689 32.2811 60.7017 30.9403 60.3417 29.6186C60.0736 28.6362 59.9185 27.619 59.6671 26.6303C59.3938 25.5571 59.5628 24.4764 59.8914 23.4369C60.0832 22.83 60.2541 22.2125 60.4722 21.6192C60.6588 21.1127 60.9777 20.7183 61.4683 20.7405C61.9326 20.7606 62.2927 21.0472 62.4723 21.6066C62.8989 22.9325 63.3326 24.2533 63.8302 25.5444C64.3987 27.0184 65.2581 28.2281 66.1298 29.4261C67.1233 30.7912 68.1229 32.1352 68.4961 33.9677C68.716 35.0473 68.8255 36.1206 68.7002 37.2436C68.5513 38.578 68.5066 39.9284 68.4102 41.2713C68.3279 42.4217 68.235 43.5701 68.1474 44.7195C68.0037 45.4544 67.8723 46.1914 67.5412 46.8512C67.3633 47.2044 67.1461 47.4561 66.7939 47.5026C65.8057 47.6348 64.8429 47.9319 63.8687 48.155C61.0749 48.7948 58.2794 49.4313 55.4848 50.0668C53.6363 50.4866 51.7895 50.9234 49.9331 51.2987C49.7895 51.3283 49.6476 51.3675 49.5056 51.4119C49.2209 51.4996 49.1605 51.6995 49.2989 52.0019C49.4189 52.2642 49.5775 52.4978 49.6975 52.7601C49.9165 53.2412 49.8561 53.4728 49.4145 53.6261C48.6576 53.8883 47.8875 54.1072 47.1096 54.2479C45.2471 54.5841 43.3741 54.8062 41.4879 54.7036C40.0739 54.6275 38.674 54.3917 37.2749 54.1315C36.6284 54.011 36.3498 53.5775 36.2674 52.8605L36.2657 52.8627Z" fill="#7DC193"/>
<path d="M36.2656 52.8628C36.2902 52.8818 36.3331 52.8966 36.3366 52.9199C36.4917 54.0503 37.2898 54.0006 37.9345 54.1148C39.7603 54.4352 41.5974 54.6689 43.4467 54.5483C44.3859 54.487 45.3224 54.3474 46.2589 54.2322C47.2699 54.1074 48.2581 53.8261 49.2428 53.5364C49.8569 53.3556 49.8508 53.326 49.5108 52.6979C49.3681 52.4335 49.2209 52.1702 49.0938 51.8953C48.923 51.5252 49.0719 51.3497 49.3751 51.2809C50.1583 51.1054 50.9415 50.9288 51.7238 50.749C53.5022 50.3398 55.2789 49.9264 57.0573 49.5203C59.4191 48.98 61.7766 48.4122 64.1455 47.9257C65.0584 47.7386 65.9484 47.3928 66.8841 47.3495C67.1285 47.3378 67.2827 47.1094 67.4053 46.844C67.6839 46.2402 67.8626 45.5931 68.0221 44.9343C68.0414 44.8561 68.1027 44.7926 68.1447 44.7228C67.9888 46.6463 68.093 48.6215 67.3493 50.4286C66.7658 51.8466 66.0912 53.1991 65.344 54.4976C64.3172 56.2825 63.2615 58.0357 62.0561 59.663C60.9479 61.1603 60.3618 62.9907 60.0806 64.9691C59.9404 65.9599 59.8843 66.9529 59.9159 67.9532C59.929 68.356 59.8186 68.5168 59.4673 68.5157C53.3112 68.5062 47.1551 68.5083 40.999 68.5125C40.7082 68.5125 40.5172 68.4079 40.3682 68.079C39.4098 65.9642 38.5425 63.8007 37.8285 61.5474C37.2092 59.5933 36.7317 57.5916 36.4671 55.5254C36.3541 54.6467 36.2122 53.7627 36.2639 52.8618L36.2656 52.8628Z" fill="#20685D"/>
<path d="M1.84424 44.8269C2.06325 45.233 2.09917 45.7152 2.21919 46.1614C2.42945 46.9439 2.64408 47.72 2.94808 48.4613C3.16184 48.9836 3.44568 49.2152 3.95117 49.2935C5.05852 49.4637 6.17375 49.4986 7.28285 49.6466C8.34639 49.7883 9.41081 49.9565 10.484 50.0231C11.5668 50.0907 12.6426 50.3043 13.7254 50.3921C14.5358 50.4577 15.3435 50.538 16.1512 50.6395C17.3462 50.7908 18.5429 50.9166 19.7396 51.053C20.0856 51.0921 20.4317 51.1439 20.7786 51.1683C21.0607 51.1883 21.1466 51.3068 21.0134 51.6346C20.8321 52.0787 20.5946 52.4773 20.366 52.8844C20.2188 53.1456 20.1855 53.356 20.5114 53.4565C21.3805 53.724 22.2504 53.9884 23.1414 54.129C24.0595 54.2739 24.9776 54.4515 25.9001 54.5107C26.961 54.5784 28.0298 54.5858 29.0907 54.5192C30.0421 54.46 30.9883 54.2675 31.9362 54.1301C32.1517 54.0984 32.3681 54.0624 32.5801 54.0085C33.1031 53.8731 33.6314 53.742 33.6007 52.8696C33.5972 52.7639 33.6813 52.6539 33.7251 52.545C33.6638 54.7074 33.3563 56.8201 32.863 58.899C32.3041 61.2549 31.4946 63.4892 30.6352 65.6992C30.3076 66.5409 29.9011 67.3372 29.5393 68.1588C29.421 68.4274 29.251 68.5141 29.0057 68.513C22.8479 68.5077 16.69 68.5056 10.5313 68.5162C10.1458 68.5162 10.0617 68.3227 10.0731 67.9113C10.123 66.1402 9.91104 64.4103 9.39679 62.7501C8.98591 61.4241 8.40158 60.2218 7.5772 59.1887C6.72917 58.1271 6.02832 56.9142 5.32221 55.7151C4.33664 54.0402 3.39224 52.3314 2.64496 50.4746C2.25774 49.5113 2.05887 48.5078 2.01244 47.4409C1.9739 46.5685 1.82847 45.7046 1.84599 44.8248L1.84424 44.8269Z" fill="#20685D"/>
<path d="M58.6652 28.0526C57.5018 27.3325 56.3445 27.1401 55.1548 27.1781C54.4724 27.1993 53.7864 27.0809 53.1074 27.268C52.8508 27.3389 52.757 27.1591 52.7123 26.863C52.4644 25.2293 52.199 23.6009 51.9432 21.9693C51.7241 20.5778 51.5936 19.1566 51.2686 17.8031C50.9795 16.5977 50.4898 15.4609 50.0675 14.3052C49.5156 12.7941 48.9602 11.2852 48.3732 9.79426C48.1069 9.11857 47.7275 8.50738 47.4551 7.83381C46.9689 6.63259 46.7183 5.39118 47.2273 4.09162C47.5471 3.2753 48.1007 2.86079 48.8401 2.97499C49.9904 3.15158 50.8577 3.85053 51.4666 5.06656C52.3312 6.79331 53.2362 8.49152 54.1289 10.1982C54.913 11.6965 55.7155 13.1801 56.4829 14.6901C56.6853 15.0887 56.8009 15.555 56.9297 16.0023C57.5149 18.022 58.0887 20.0469 58.6722 22.0666C58.7826 22.4483 58.787 22.7909 58.6494 23.1822C58.1518 24.5959 58.2315 26.0478 58.5268 27.5017C58.5574 27.6508 58.6012 27.7967 58.6678 28.0526H58.6652Z" fill="#7DC193"/>
<path d="M23.0406 5.5292C22.9661 6.58238 22.7339 7.55626 22.2644 8.38845C21.5513 9.65311 21.1325 11.0785 20.606 12.4436C20.0593 13.8606 19.5486 15.2976 19.0177 16.724C18.5464 17.9887 18.4456 19.3602 18.2292 20.6978C17.8954 22.7566 17.573 24.8196 17.2682 26.8847C17.2139 27.2517 17.0719 27.2887 16.8188 27.2654C15.1043 27.1142 13.3907 26.9852 11.7437 27.792C11.6526 27.8364 11.5177 27.8998 11.4564 27.8533C11.3276 27.755 11.4441 27.6017 11.4678 27.4737C11.7358 25.9732 11.7972 24.4855 11.2873 23.0305C11.1804 22.7238 11.2023 22.4267 11.2943 22.1105C11.8129 20.3224 12.3342 18.5354 12.823 16.7357C13.1708 15.4562 13.6824 14.2888 14.2799 13.1574C15.7026 10.4631 17.1035 7.75294 18.4999 5.03856C19.1079 3.85743 19.9796 3.17857 21.1027 2.9766C22.0383 2.80847 22.804 3.58039 22.9503 4.78689C22.9819 5.04596 23.0143 5.30503 23.0414 5.52814L23.0406 5.5292Z" fill="#7DC193"/>
<path d="M34.9923 48.4041C34.8363 46.6562 34.7014 44.9052 34.5183 43.1625C34.2721 40.8257 33.9909 38.4941 33.7185 36.1614C33.6606 35.6697 33.517 35.2034 33.3146 34.773C33.1639 34.4516 33.1262 34.1248 33.1376 33.7621C33.2226 31.1218 33.3286 28.4814 33.3619 25.8411C33.3847 24.0614 33.771 22.3632 34.0084 20.6312C34.2432 18.915 34.4999 17.202 34.9888 15.5239C35.4215 17.0878 35.6204 18.6919 35.92 20.2685C36.528 23.4661 36.6752 26.706 36.7137 29.9671C36.7286 31.2698 36.7812 32.5725 36.8154 33.8753C36.8206 34.0677 36.8635 34.2771 36.7759 34.4473C36.1714 35.6179 36.1697 36.9661 36.0111 38.2614C35.7369 40.5063 35.4461 42.7491 35.2603 45.0088C35.1666 46.1402 35.0816 47.2727 34.9931 48.4052L34.9923 48.4041Z" fill="#E7EDEA"/>
<path d="M31.9501 32.7758C31.1853 32.134 30.4512 31.6074 29.6575 31.2119C29.4814 31.1242 29.5103 30.9201 29.5234 30.7519C29.5839 29.9335 29.6522 29.1151 29.7223 28.2977C29.7985 27.4116 29.8791 26.5255 29.9588 25.6393C30.099 24.0754 30.2812 22.5157 30.3671 20.9476C30.4678 19.1204 31.2869 17.5998 31.7346 15.9228C31.9168 15.2397 32.1744 14.5862 32.3811 13.9116C32.5809 13.2623 33.0461 13.1397 33.4201 13.6758C33.7531 14.1537 33.923 14.6983 33.7688 15.338C33.0653 18.2501 32.7456 21.2574 32.2629 24.2245C32.1376 24.9933 32.1831 25.8022 32.1744 26.5857C32.156 28.2025 32.0255 29.8151 32.0552 31.4329C32.0631 31.8485 31.993 32.2672 31.9519 32.7737L31.9501 32.7758Z" fill="#7DC193"/>
<path d="M38.0557 32.7482C37.9813 32.4923 37.9208 32.3147 37.9287 32.1138C37.9909 30.5668 37.8481 29.0251 37.8288 27.4791C37.8034 25.432 37.6808 23.3943 37.2901 21.3852C37.015 19.9747 36.8538 18.5334 36.605 17.1154C36.4613 16.297 36.1415 15.5261 36.1731 14.659C36.1888 14.2234 36.3369 13.8723 36.6102 13.6122C37.1052 13.1406 37.3636 13.2442 37.5888 13.9463C38.1705 15.7619 38.7531 17.5775 39.3541 19.3836C39.5871 20.0836 39.6169 20.8185 39.6721 21.546C39.7973 23.1818 39.9559 24.8123 40.0952 26.446C40.2161 27.8714 40.3195 29.3 40.4667 30.7222C40.4912 30.9548 40.4281 31.1251 40.2363 31.2308C39.4828 31.6474 38.7583 32.1296 38.0566 32.7493L38.0557 32.7482Z" fill="#7DC193"/>
<path d="M35.1253 54.3428C35.0158 54.3121 35.0754 53.9769 34.8643 54.1313C34.8809 53.8395 34.8222 53.5413 34.9904 53.2336C35.036 53.6026 35.0806 53.9727 35.1262 54.3417L35.1253 54.3428Z" fill="#FCB217"/>
</svg>
