<svg width="151" height="342" viewBox="0 0 151 342" fill="none" xmlns="http://www.w3.org/2000/svg">
<path d="M150.71 113.061V341.02H0V113.061C0 78.7022 15.9103 46.2252 43.1193 25.0635L75.355 0L107.591 25.0635C134.8 46.2252 150.71 78.7022 150.71 113.061Z" fill="#FF9988"/>
<path d="M59.2913 64.3065V45.6943H62.9892V52.348H64.7468V45.6943H68.4449V64.3065H64.7468V55.8693H62.9892V64.3065H59.2913Z" fill="black"/>
<path d="M70.5902 63.2509C70.1337 62.4278 69.9054 61.2617 69.9054 59.7526C69.9054 58.5179 70.0652 57.5575 70.3847 56.8944C70.7043 56.2313 71.1609 55.7512 71.7316 55.4311C72.3023 55.111 73.1924 54.768 74.3794 54.4021L75.4295 54.0592V52.4357C75.4295 52.0242 75.3382 51.7041 75.1784 51.4754C75.0186 51.2468 74.8132 51.1324 74.5849 51.1324C74.3795 51.1324 74.1969 51.2239 74.0599 51.4068C73.9001 51.5897 73.8316 51.8413 73.8316 52.1614V53.1217H70.1565V52.5958C70.1565 51.041 70.5217 49.9206 71.2522 49.2575C71.9826 48.5944 73.1696 48.2514 74.8132 48.2514C76.1371 48.2514 77.1872 48.5944 78.009 49.2804C78.8307 49.9663 79.2416 50.9266 79.2416 52.1842V64.2799H75.4752V62.4049C75.2925 63.0452 74.9958 63.571 74.5849 63.914C74.1741 64.2799 73.6947 64.4628 73.124 64.4628C71.8913 64.4628 71.0467 64.0512 70.613 63.2281L70.5902 63.2509ZM75.2241 61.1702C75.3382 60.9416 75.4067 60.6443 75.4067 60.3013V55.8884C74.836 56.0942 74.4251 56.3685 74.174 56.7115C73.9001 57.0316 73.786 57.5118 73.786 58.1063V60.1413C73.786 61.0787 74.0599 61.5589 74.6306 61.5589C74.9273 61.5589 75.1327 61.4446 75.2469 61.1931L75.2241 61.1702Z" fill="black"/>
<path d="M80.5265 65.8839V63.3459C80.5265 63.3459 80.7092 63.3916 80.8689 63.3916C81.0516 63.3916 81.1885 63.323 81.2341 63.2087C81.3026 63.0943 81.3254 62.9114 81.3254 62.6599V48.4607H85.1147V62.5684C85.1147 63.7346 84.8865 64.6263 84.4071 65.2437C83.9277 65.861 83.1745 66.1811 82.1472 66.1811C81.3255 66.1811 80.8004 66.0897 80.5493 65.9067L80.5265 65.8839ZM81.3254 47.386V44.7337H85.1147V47.386H81.3254Z" fill="black"/>
<path d="M86.4103 65.8839V63.3459C86.4103 63.3459 86.5929 63.3916 86.7527 63.3916C86.9353 63.3916 87.0723 63.323 87.1179 63.2087C87.1864 63.0943 87.2092 62.9114 87.2092 62.6599V48.4607H90.9984V62.5684C90.9984 63.7346 90.7702 64.6263 90.2908 65.2437C89.8114 65.861 89.0582 66.1811 88.031 66.1811C87.2092 66.1811 86.6842 66.0897 86.4331 65.9067L86.4103 65.8839ZM87.2092 47.386V44.7337H90.9984V47.386H87.2092Z" fill="black"/>
<path d="M47.6902 142.642V143.127L47.5246 143.237L45.564 144.54H40.0343L38.0654 143.237L38.0098 143.201V142.642H47.6902Z" fill="black"/>
<path d="M45.8287 144.315H39.7676V162.164H45.8287V144.315Z" fill="#3B3833"/>
<path d="M47.6902 142.642V143.127L47.5246 143.237H38.0654L38.0098 143.201V142.642H47.6902Z" fill="#455877"/>
<path d="M37.08 139.297V138.812L37.2778 138.702L39.6144 137.399H46.2045L48.5512 138.702L48.617 138.737V139.297H37.08Z" fill="black"/>
<path d="M37.08 139.296V138.812L37.2778 138.702H48.5512L48.617 138.737V139.296H37.08Z" fill="#2F3E54"/>
<path d="M46.9988 139.296H38.625V142.642H46.9988V139.296Z" fill="black"/>
<path d="M39.6791 140.264H40.868C40.9212 140.264 40.9649 140.298 40.9649 140.338V142.643H39.5823V140.338C39.5823 140.298 39.6259 140.264 39.6791 140.264Z" fill="#A77728"/>
<path d="M42.2045 140.264H43.3934C43.4466 140.264 43.4902 140.298 43.4902 140.338V142.643H42.1077V140.338C42.1077 140.298 42.1513 140.264 42.2045 140.264Z" fill="#A77728"/>
<path d="M44.7299 140.264H45.9188C45.972 140.264 46.0156 140.298 46.0156 140.338V142.643H44.6331V140.338C44.6331 140.298 44.6767 140.264 44.7299 140.264Z" fill="#A77728"/>
<path d="M46.0876 136.172H39.6768C39.6438 136.172 39.6171 136.192 39.6171 136.218V137.352C39.6171 137.377 39.6438 137.398 39.6768 137.398H46.0876C46.1206 137.398 46.1474 137.377 46.1474 137.352V136.218C46.1474 136.192 46.1206 136.172 46.0876 136.172Z" fill="#DDA236"/>
<path d="M43.2693 128.215H42.494V136.173H43.2693V128.215Z" fill="black"/>
<path d="M44.6477 133.012H41.2435C41.0899 133.012 40.965 133.107 40.965 133.225V136.173H44.9256V133.225C44.9256 133.108 44.8013 133.012 44.6471 133.012H44.6477Z" fill="#A77728"/>
<path d="M48.9777 168.243V168.805L48.7679 168.933L46.2861 170.443H39.2871L36.7945 168.933L36.7246 168.891V168.243H48.9777Z" fill="black"/>
<path d="M46.6212 170.184H38.9492V190.873H46.6212V170.184Z" fill="#2D2B27"/>
<path d="M48.9777 168.243V168.805L48.7679 168.933H36.7945L36.7246 168.891V168.243H48.9777Z" fill="#2F3E54"/>
<path d="M35.5487 164.366V163.804L35.7992 163.677L38.7568 162.167H47.0983L50.0691 163.677L50.1522 163.718V164.366H35.5487Z" fill="#455877"/>
<path d="M35.5487 164.367V163.805L35.7992 163.677H50.0691L50.1522 163.719V164.367H35.5487Z" fill="#2F3E54"/>
<path d="M48.0992 164.366H37.5V168.243H48.0992V164.366Z" fill="black"/>
<path d="M38.8106 165.488H40.3665C40.4197 165.488 40.4633 165.522 40.4633 165.562V168.245H38.7137V165.562C38.7137 165.522 38.7574 165.488 38.8106 165.488Z" fill="#A77728"/>
<path d="M42.0059 165.488H43.5618C43.615 165.488 43.6587 165.522 43.6587 165.562V168.245H41.9091V165.562C41.9091 165.522 41.9527 165.488 42.0059 165.488Z" fill="#A77728"/>
<path d="M45.2032 165.488H46.7591C46.8123 165.488 46.8559 165.522 46.8559 165.562V168.245H45.1063V165.562C45.1063 165.522 45.15 165.488 45.2032 165.488Z" fill="#A77728"/>
<path opacity="0.16" d="M46.6212 170.669V190.872H38.9492V189.32H44.6021V171.649H38.9492V170.67L39.2881 170.442H46.2871C46.2871 170.442 46.4055 170.522 46.6212 170.67V170.669Z" fill="url(#paint0_linear_2971_14256)"/>
<path d="M110.968 142.642V143.127L110.802 143.237L108.842 144.54H103.312L101.343 143.237L101.287 143.201V142.642H110.968Z" fill="black"/>
<path d="M109.106 144.315H103.045V162.164H109.106V144.315Z" fill="#3B3833"/>
<path d="M110.968 142.642V143.127L110.802 143.237H101.343L101.287 143.201V142.642H110.968Z" fill="#455877"/>
<path d="M100.358 139.297V138.812L100.556 138.702L102.892 137.399H109.482L111.829 138.702L111.895 138.737V139.297H100.358Z" fill="black"/>
<path d="M100.358 139.296V138.812L100.556 138.702H111.829L111.895 138.737V139.296H100.358Z" fill="#2F3E54"/>
<path d="M110.276 139.296H101.903V142.642H110.276V139.296Z" fill="black"/>
<path d="M102.955 140.264H104.144C104.197 140.264 104.241 140.298 104.241 140.338V142.643H102.858V140.338C102.858 140.298 102.902 140.264 102.955 140.264Z" fill="#A77728"/>
<path d="M105.481 140.264H106.67C106.723 140.264 106.766 140.298 106.766 140.338V142.643H105.384V140.338C105.384 140.298 105.427 140.264 105.481 140.264Z" fill="#A77728"/>
<path d="M108.006 140.264H109.195C109.248 140.264 109.292 140.298 109.292 140.338V142.643H107.909V140.338C107.909 140.298 107.953 140.264 108.006 140.264Z" fill="#A77728"/>
<path d="M109.365 136.172H102.955C102.922 136.172 102.895 136.192 102.895 136.218V137.352C102.895 137.377 102.922 137.398 102.955 137.398H109.365C109.398 137.398 109.425 137.377 109.425 137.352V136.218C109.425 136.192 109.398 136.172 109.365 136.172Z" fill="#DDA236"/>
<path d="M106.547 128.215H105.772V136.173H106.547V128.215Z" fill="black"/>
<path d="M107.925 133.012H104.521C104.368 133.012 104.243 133.107 104.243 133.225V136.173H108.203V133.225C108.203 133.108 108.079 133.012 107.925 133.012H107.925Z" fill="#A77728"/>
<path d="M112.255 168.243V168.805L112.046 168.933L109.564 170.443H102.565L100.072 168.933L100.002 168.891V168.243H112.255Z" fill="black"/>
<path d="M109.899 170.184H102.227V190.873H109.899V170.184Z" fill="#2D2B27"/>
<path d="M112.255 168.243V168.805L112.046 168.933H100.072L100.002 168.891V168.243H112.255Z" fill="#2F3E54"/>
<path d="M98.8264 164.366V163.804L99.0769 163.677L102.035 162.167H110.376L113.347 163.677L113.43 163.718V164.366H98.8264Z" fill="#455877"/>
<path d="M98.8264 164.367V163.805L99.0769 163.677H113.347L113.43 163.719V164.367H98.8264Z" fill="#2F3E54"/>
<path d="M111.377 164.366H100.778V168.243H111.377V164.366Z" fill="black"/>
<path d="M102.09 165.488H103.646C103.7 165.488 103.743 165.522 103.743 165.562V168.245H101.994V165.562C101.994 165.522 102.037 165.488 102.09 165.488Z" fill="#A77728"/>
<path d="M105.286 165.488H106.842C106.895 165.488 106.939 165.522 106.939 165.562V168.245H105.189V165.562C105.189 165.522 105.233 165.488 105.286 165.488Z" fill="#A77728"/>
<path d="M108.483 165.488H110.039C110.092 165.488 110.136 165.522 110.136 165.562V168.245H108.386V165.562C108.386 165.522 108.43 165.488 108.483 165.488Z" fill="#A77728"/>
<path opacity="0.16" d="M109.899 170.669V190.872H102.227V189.32H107.88V171.649H102.227V170.67L102.566 170.442H109.565C109.565 170.442 109.683 170.522 109.899 170.67V170.669Z" fill="url(#paint1_linear_2971_14256)"/>
<path d="M124.285 324.068H26.317C25.5986 324.068 25 323.53 25 322.849C25 322.184 25.5815 321.63 26.317 321.63H124.285C125.003 321.63 125.602 322.168 125.602 322.849C125.602 323.514 125.02 324.068 124.285 324.068Z" fill="#F27B6B"/>
<path d="M116.458 264.642H32.2931V186.949C32.2931 185.493 33.4732 184.311 34.927 184.311H113.807C115.261 184.311 116.441 185.493 116.441 186.949V264.642H116.458Z" fill="#3B3833"/>
<path d="M116.476 194.791H32.3105V203.905H116.476V194.791Z" fill="url(#paint2_linear_2971_14256)"/>
<path d="M116.476 257.278H32.3105V264.748H116.476V257.278Z" fill="#AEA291"/>
<path d="M54.7501 209.752H64.3279V205.898H54.7501V209.752ZM68.1077 209.752H77.6856V205.898H68.1077V209.752ZM41.3753 209.752H50.9531V205.898H41.3753V209.752ZM94.8402 209.752H104.418V205.898H94.8402V209.752ZM108.215 205.898V209.752H116.459V205.898H108.215ZM32.3105 209.752H37.5955V205.898H32.3105V209.752ZM81.4825 209.752H91.0604V205.898H81.4825V209.752Z" fill="url(#paint3_linear_2971_14256)"/>
<path d="M89.1774 247.119C89.1774 251.248 84.4569 254.588 84.4569 254.588C84.4569 254.588 79.7363 251.248 79.7363 247.119C79.7363 242.99 84.4569 239.649 84.4569 239.649C84.4569 239.649 89.1774 242.99 89.1774 247.119Z" fill="#D5D5D5"/>
<g style="mix-blend-mode:screen">
<path d="M87.2614 247.116C87.2614 248.743 85.9957 250.045 84.4393 250.045C82.8829 250.045 81.6173 248.726 81.6173 247.116C81.6173 245.505 82.8829 244.186 84.4393 244.186C85.9957 244.186 87.2614 245.488 87.2614 247.116Z" fill="white"/>
</g>
<path d="M86.8164 247.118C86.8164 248.575 85.7559 249.74 84.4561 249.74C83.1562 249.74 82.0958 248.575 82.0958 247.118C82.0958 245.662 83.1562 244.497 84.4561 244.497C85.7559 244.497 86.8164 245.662 86.8164 247.118Z" fill="black"/>
<g style="mix-blend-mode:screen" opacity="0.2">
<path d="M86.0642 246.072C86.0642 246.363 85.859 246.586 85.6024 246.586C85.3459 246.586 85.1406 246.346 85.1406 246.072C85.1406 245.797 85.3459 245.558 85.6024 245.558C85.859 245.558 86.0642 245.78 86.0642 246.072Z" fill="white"/>
</g>
<path d="M103.513 216.863H92.9432V247.769H103.513V216.863Z" fill="url(#paint4_linear_2971_14256)"/>
<path d="M98.1039 216.863H92.6309V247.769H98.1039V216.863Z" fill="url(#paint5_linear_2971_14256)"/>
<g style="mix-blend-mode:multiply" opacity="0.3">
<path d="M113.829 184.289H84.4624V264.621H116.48V186.928C116.48 185.472 115.3 184.289 113.846 184.289H113.829Z" fill="#3B3833"/>
</g>
<path d="M58.4521 319.512C56.0919 318.793 54.8091 318.279 53.7658 317.885C52.6199 317.456 51.2858 316.6 51.2858 316.6V309.353L45.6075 309.576V317.062C45.2484 317.422 44.8721 317.988 44.8037 318.844C44.6669 320.455 44.2735 322.116 46.0351 322.116H60.248C60.248 322.116 60.5558 320.146 58.4692 319.512H58.4521Z" fill="#FAB98F"/>
<path d="M76.9581 319.447C74.5295 318.711 73.2125 318.18 72.1179 317.769C70.9377 317.323 69.5695 316.449 69.5695 316.449V308.997L63.7201 309.22V316.929C63.361 317.289 62.9505 317.871 62.8821 318.762C62.7453 320.407 62.3519 322.12 64.1477 322.12H78.7711C78.7711 322.12 79.0789 320.081 76.941 319.43L76.9581 319.447Z" fill="#FAB98F"/>
<path d="M75.0737 243.964C73.0726 231.663 68.0271 226.661 66.9325 225.753C66.2997 225.222 65.53 225.016 64.7604 225.033C67.343 227.62 69.5322 232.503 70.4216 241.292C70.6439 243.416 70.8834 246.037 71.1228 248.915L70.7636 273.294C70.7636 273.294 74.5776 273.106 78.4088 268.017C77.9299 261.267 76.0314 249.875 75.0737 243.981V243.964Z" fill="#CCCCCC"/>
<path d="M45.2291 292.772C45.3317 289.808 45.041 246.31 47.5894 235.654C50.1549 224.998 53.8834 222.548 58.621 222.548C63.3586 222.548 68.8488 225.871 70.4223 240.553C71.9958 255.236 74.3731 292.429 74.3731 292.429C74.3731 292.429 62.9653 296.883 45.2462 292.772H45.2291Z" fill="#FAB98F"/>
<path d="M62.8136 223.092C62.8136 223.092 56.2288 240.635 43.8973 251.017C43.8973 255.454 43.4697 258.743 44.9577 261.21C44.5301 264.602 41.9818 287.953 42.6146 311.167C50.8926 312.863 63.6516 313.994 74.803 310.327C75.1279 289.666 72.7335 252.01 70.8179 238.442C68.9023 224.856 62.7965 223.109 62.7965 223.109L62.8136 223.092Z" fill="#E0E0E0"/>
<g style="mix-blend-mode:multiply" opacity="0.6">
<path d="M50.6017 237.159C50.3623 240.602 50.4991 244.2 50.4991 244.234L50.8583 243.789C50.8583 243.789 50.9951 241.014 51.2004 237.861C51.3543 235.377 51.5766 232.602 51.8161 230.666C51.8161 230.666 50.7728 234.846 50.6017 237.176V237.159Z" fill="#FFC9B0"/>
</g>
<g style="mix-blend-mode:multiply" opacity="0.5">
<path d="M62.9642 223.148C62.9642 223.148 62.8274 223.234 62.7419 223.285C61.9722 225.255 55.4729 241.273 43.9111 251.004C43.9111 255.442 43.4835 258.731 44.9715 261.198C44.5439 264.59 41.9955 287.941 42.6284 311.155C43.9111 311.412 45.3478 311.651 46.8358 311.874C45.878 298.631 46.6648 287.992 48.7856 273.447C50.9064 258.919 48.7855 254.02 52.8219 245.334C58.3805 237.779 62.4853 226.214 63.443 223.353C63.2378 223.234 63.0668 223.165 62.9642 223.131V223.148Z" fill="#E0E0E0"/>
</g>
<path d="M44.1043 241.634C43.3005 247.064 42.5651 264.642 42.5651 267.811C42.5651 267.811 44.8569 268.736 47.2513 268.034L50.5352 243.775C50.5352 243.775 50.9457 235.038 51.493 230.618C51.989 226.523 53.1691 224.673 53.648 223.919C51.493 224.416 45.7976 230.07 44.0873 241.634H44.1043Z" fill="#FAB98F"/>
<path d="M65.2571 225.203C65.2571 225.203 74.0824 241.495 53.2506 266.302C53.2506 266.302 70.9867 245.829 65.2571 225.203Z" fill="#CCCCCC"/>
<path d="M68.9704 231.559C68.9704 231.559 77.7786 255.646 52.5513 290.87C52.5513 290.87 74.0159 261.831 68.9704 231.559Z" fill="#CCCCCC"/>
<path d="M47.6407 269.187C47.6407 269.187 49.6076 272.905 50.0523 273.813C50.497 274.721 50.0523 275.235 49.5905 275.389C49.1458 275.543 48.4104 275.166 47.9657 274.087C47.521 272.991 47.521 273.076 47.521 273.076C47.521 273.076 47.0592 277.085 47.3329 278.798C47.521 280.015 47.025 280.374 46.5803 280.426C46.1356 280.477 45.5712 279.86 45.5541 279.055C45.5541 279.055 44.2543 279.398 44.0148 277.925C44.0148 277.925 42.7492 278.267 42.5269 276.537C42.5269 276.537 41.552 276.708 41.227 275.783C40.902 274.858 41.7059 269.633 42.4242 267.628C42.9544 266.138 45.2463 266.515 46.7343 266.926C47.2302 267.063 47.6578 269.187 47.6578 269.187H47.6407Z" fill="#FAB98F"/>
<path d="M45.4511 279.182C45.4511 279.182 45.5194 279.217 45.5707 279.217C45.6561 279.217 45.7244 279.131 45.7244 279.028C45.7244 279.011 45.5536 277.315 45.6561 276.253C45.6561 276.167 45.5878 276.081 45.5024 276.064C45.4169 276.064 45.3316 276.133 45.3145 276.219C45.212 277.298 45.3828 278.977 45.3828 279.045C45.3828 279.097 45.417 279.131 45.4511 279.165V279.182Z" fill="#D69572"/>
<path d="M43.9144 278.054C43.9144 278.054 43.9828 278.088 44.034 278.088C44.1194 278.088 44.1877 278.002 44.1877 277.9C44.1877 277.9 44.0511 276.323 44.1365 275.484C44.1365 275.398 44.0853 275.313 43.9828 275.295C43.8974 275.295 43.8119 275.347 43.7949 275.45C43.7095 276.323 43.829 277.865 43.8461 277.934C43.8461 277.985 43.8803 278.019 43.9144 278.054Z" fill="#D69572"/>
<path d="M42.4077 276.668C42.4077 276.668 42.476 276.702 42.5273 276.702C42.6127 276.702 42.681 276.617 42.681 276.514C42.681 276.514 42.5956 275.572 42.681 274.766C42.681 274.681 42.6297 274.595 42.5443 274.578C42.4589 274.578 42.3736 274.629 42.3565 274.715C42.254 275.537 42.3394 276.497 42.3565 276.531C42.3565 276.582 42.3906 276.617 42.4248 276.651L42.4077 276.668Z" fill="#D69572"/>
<path d="M71.1906 198.185C69.2408 196.592 65.4952 197.003 65.4952 197.003C65.4952 197.003 56.4989 190.219 49.5549 199.024C49.5549 199.024 44.3214 199.316 43.3294 205.586C42.7992 208.824 44.5095 211.753 44.5095 211.753C44.5095 211.753 42.5255 215.934 47.8789 218.007C48.3577 218.195 48.8195 218.366 49.2984 218.538C48.9221 216.31 50.7351 215.557 50.0851 214.066C50.0851 214.066 53.198 211.274 52.0349 206.34C58.1066 212.781 67.7699 209.749 67.7699 209.749C67.7699 209.749 68.2317 212.353 69.0185 214.786C69.9763 213.467 71.4985 211.085 71.4985 211.085C71.4985 211.085 74.0982 206.734 71.909 205.226C71.909 205.226 74.406 200.84 71.1564 198.202L71.1906 198.185Z" fill="black"/>
<path d="M68.0456 206.427C68.0456 206.427 67.5838 210.127 69.1744 213.622C70.7479 217.117 68.5245 224.227 60.7767 224.193C54.6195 224.158 49.9674 221.52 48.9412 218.779C48.9412 218.779 46.5638 218.351 46.3928 215.935C46.2389 213.502 48.069 213.571 48.7873 214.376C48.7873 214.376 49.1636 215.25 49.5227 216.381C49.8819 214.993 49.9161 214.205 50.0016 213.382C50.891 212.269 51.7804 210.093 51.5922 205.536C51.5922 205.536 61.0845 210.59 68.0456 206.444V206.427Z" fill="#FAB98F"/>
<path d="M62.5888 219.581C64.1623 219.256 65.1885 218.605 65.274 218.553C65.3766 218.485 65.4108 218.348 65.3424 218.228C65.274 218.125 65.1372 218.091 65.0175 218.159C64.9833 218.176 61.5797 220.283 57.7486 218.707C57.6288 218.656 57.492 218.707 57.4407 218.827C57.3894 218.947 57.4407 219.084 57.5604 219.136C59.4418 219.907 61.2034 219.855 62.5546 219.564L62.5888 219.581Z" fill="#7B2838"/>
<path d="M36.7014 79.0098V88.3818H35.7755V79.0098H33.339V78.1312H39.138V79.0098H36.7014Z" fill="black"/>
<path d="M44.4716 88.3818V83.0124C44.4716 82.8416 44.4472 82.6707 44.3741 82.5243C44.301 82.3779 44.2279 82.2314 44.1061 82.1094C43.9843 81.9874 43.8624 81.9141 43.6919 81.8409C43.5457 81.7677 43.3751 81.7433 43.2046 81.7433H42.6198C42.4492 81.7433 42.2787 81.7677 42.1325 81.8409C41.9863 81.9141 41.8401 81.9874 41.7183 82.1094C41.5964 82.2314 41.5234 82.3535 41.4503 82.5243C41.3772 82.6707 41.3528 82.8416 41.3528 83.0124V88.3818H40.4756V78.1312H41.3528V81.6701C41.5477 81.426 41.7913 81.2552 42.0837 81.1087C42.3761 80.9623 42.6686 80.9135 42.9853 80.9135H43.2046C43.497 80.9135 43.7894 80.9623 44.033 81.0843C44.2767 81.2064 44.5203 81.3528 44.7152 81.548C44.9102 81.7433 45.0564 81.963 45.1782 82.2314C45.3 82.4999 45.3487 82.7684 45.3487 83.0612V88.3818H44.4716Z" fill="black"/>
<path d="M51.9574 87.2129C51.8356 87.4814 51.6894 87.7011 51.4945 87.8963C51.2995 88.0916 51.0803 88.238 50.8122 88.36C50.5442 88.482 50.2762 88.5309 49.9838 88.5309H49.399C49.1066 88.5309 48.8142 88.482 48.5706 88.36C48.3025 88.238 48.0833 88.0916 47.8883 87.8963C47.6934 87.7011 47.5472 87.4814 47.4254 87.2129C47.3036 86.9444 47.2549 86.676 47.2549 86.3831V83.0883C47.2549 82.7954 47.3036 82.5025 47.4254 82.2584C47.5472 81.99 47.6934 81.7703 47.8883 81.5751C48.0833 81.3798 48.3025 81.2334 48.5706 81.1113C48.8386 80.9893 49.1066 80.9405 49.399 80.9405H49.9838C50.2762 80.9405 50.5686 80.9893 50.8122 81.1113C51.0803 81.2334 51.2995 81.3798 51.4945 81.5751C51.6894 81.7703 51.8356 81.99 51.9574 82.2584C52.0792 82.5269 52.128 82.7954 52.128 83.0883V84.8211H48.132V86.4563C48.132 86.6272 48.1564 86.798 48.2295 86.9444C48.3026 87.0909 48.3756 87.2373 48.4975 87.3594C48.6193 87.4814 48.7412 87.5546 48.9117 87.6278C49.0579 87.701 49.2284 87.7254 49.399 87.7254H49.9838C50.1544 87.7254 50.3249 87.701 50.4711 87.6278C50.6173 87.5546 50.7635 87.4814 50.8853 87.3594C51.0072 87.2373 51.0802 87.1153 51.1533 86.9444C51.2264 86.798 51.2508 86.6272 51.2508 86.4563V85.9682L52.128 86.1146V86.4075C52.128 86.7004 52.0792 86.9933 51.9574 87.2373V87.2129ZM51.2508 83.0394C51.2508 82.8686 51.2264 82.6977 51.1533 82.5513C51.0802 82.4049 51.0072 82.2584 50.8853 82.1364C50.7635 82.0144 50.6416 81.9412 50.4711 81.8679C50.3249 81.7947 50.1544 81.7703 49.9838 81.7703H49.399C49.2284 81.7703 49.0579 81.7947 48.9117 81.8679C48.7655 81.9412 48.6193 82.0144 48.4975 82.1364C48.3756 82.2584 48.3026 82.3805 48.2295 82.5513C48.1564 82.6977 48.132 82.8686 48.132 83.0394V84.1377H51.2508V83.0394Z" fill="black"/>
<path d="M63.4059 82.9148C63.2841 83.2077 63.0892 83.4761 62.8699 83.7202C62.6506 83.9399 62.3826 84.1351 62.0659 84.2572C61.7491 84.3792 61.4324 84.4524 61.0912 84.4524H58.7765V88.3818H57.8506V78.1312H61.0912C61.4324 78.1312 61.7735 78.2044 62.0659 78.3264C62.3826 78.4484 62.6506 78.6437 62.8699 78.8634C63.0892 79.083 63.2841 79.3515 63.4059 79.6688C63.5278 79.986 63.6009 80.3033 63.6009 80.645V81.9141C63.6009 82.2558 63.5278 82.5975 63.4059 82.8904V82.9148ZM62.675 80.6694C62.675 80.4498 62.6263 80.2301 62.5532 80.0349C62.4557 79.8396 62.3582 79.6688 62.1876 79.5223C62.0415 79.3759 61.8709 79.2539 61.676 79.1562C61.4811 79.0586 61.2618 79.0342 61.0425 79.0342H58.7765V83.5982H61.0425C61.2618 83.5982 61.4811 83.5494 61.676 83.4761C61.8709 83.3785 62.0415 83.2809 62.1876 83.1345C62.3338 82.988 62.4557 82.8172 62.5532 82.6219C62.6507 82.4267 62.675 82.207 62.675 81.9874V80.7182V80.6694Z" fill="black"/>
<path d="M65.429 79.3027V78.1312H66.4523V79.3027H65.429ZM65.502 88.3818V81.0599H66.3792V88.3818H65.502Z" fill="black"/>
<path d="M68.8665 88.3818V78.1312H69.7436V88.3818H68.8665Z" fill="black"/>
<path d="M76.7094 90.1388C76.5876 90.3829 76.4414 90.6025 76.2465 90.7734C76.0516 90.9442 75.8323 91.0907 75.5643 91.1883C75.2962 91.2859 75.0282 91.3347 74.7358 91.3347H74.3703C74.0779 91.3347 73.7855 91.2859 73.5419 91.1883C73.2739 91.0907 73.0546 90.9442 72.8596 90.7734C72.6647 90.6025 72.5185 90.3829 72.3967 90.1388C72.2749 89.8948 72.2262 89.6263 72.2262 89.3334C72.2262 89.0161 72.2749 88.7477 72.3724 88.528C72.4698 88.2839 72.616 88.0887 72.8109 87.9178C72.5916 87.7714 72.3967 87.6006 72.2749 87.3565C72.1287 87.1124 72.0799 86.8684 72.0799 86.5755C72.0799 86.307 72.1287 86.0874 72.2505 85.8677C72.348 85.648 72.5185 85.4772 72.6891 85.3308C72.4698 85.1355 72.2748 84.8915 72.153 84.5986C72.0312 84.3057 71.9581 84.0128 71.9581 83.6711V83.1098C71.9581 82.8169 72.0069 82.524 72.1287 82.28C72.2505 82.0115 72.3967 81.7918 72.5917 81.5966C72.7866 81.4013 73.0059 81.2549 73.2739 81.1329C73.5419 81.0108 73.8099 80.962 74.1023 80.962H74.4678C74.8333 80.962 75.15 81.0353 75.4668 81.2061C75.7835 81.3769 76.0272 81.5722 76.2221 81.8651L76.7094 81.1329H77.0018V83.6955C77.0018 83.9884 76.9531 84.2813 76.8312 84.5254C76.7094 84.7938 76.5632 85.0135 76.3683 85.2087C76.1734 85.404 75.9541 85.5504 75.6861 85.6725C75.418 85.7945 75.15 85.8433 74.8576 85.8433H73.5907C73.5907 85.8433 73.3957 85.8433 73.2982 85.8921C73.2007 85.9409 73.1277 85.9897 73.0546 86.063C72.9815 86.1362 72.9328 86.2094 72.884 86.307C72.8353 86.4046 72.8353 86.5023 72.8353 86.5999C72.8353 86.6975 72.8353 86.7952 72.884 86.8928C72.9328 86.9904 72.9815 87.0636 73.0546 87.1368C73.1277 87.2101 73.2007 87.2589 73.2982 87.3077C73.3957 87.3565 73.4932 87.3565 73.5907 87.3565H74.7845C75.0769 87.3565 75.3693 87.4053 75.613 87.5029C75.881 87.6006 76.1003 87.747 76.2952 87.9178C76.4901 88.0887 76.6363 88.3083 76.7581 88.5524C76.88 88.7965 76.9287 89.0649 76.9287 89.3578C76.9287 89.6751 76.88 89.9436 76.7581 90.212L76.7094 90.1388ZM76.1003 83.0366C76.1003 82.8657 76.0759 82.6949 76.0028 82.5484C75.9297 82.402 75.8322 82.2556 75.7348 82.1335C75.6129 82.0115 75.4911 81.9383 75.3206 81.8651C75.1744 81.7918 75.0038 81.7674 74.8332 81.7674H74.1023C73.9318 81.7674 73.7612 81.7918 73.615 81.8651C73.4688 81.9383 73.3226 82.0115 73.2008 82.1335C73.079 82.2556 73.0058 82.3776 72.9327 82.5484C72.8596 82.6949 72.8353 82.8657 72.8353 83.0366V83.6955C72.8353 83.8664 72.8596 84.0372 72.9327 84.1837C73.0058 84.3301 73.079 84.4765 73.2008 84.5986C73.3226 84.7206 73.4444 84.7938 73.615 84.867C73.7612 84.9403 73.9318 84.9647 74.1023 84.9647H74.8332C75.0038 84.9647 75.1744 84.9403 75.3206 84.867C75.4668 84.7938 75.6129 84.7206 75.7348 84.5986C75.8566 84.4765 75.9541 84.3545 76.0028 84.1837C76.0759 84.0372 76.1003 83.8664 76.1003 83.6955V83.0366ZM76.0515 89.2358C76.0515 89.0649 76.0272 88.8941 75.9541 88.7721C75.881 88.6256 75.8079 88.5036 75.6861 88.406C75.5642 88.3083 75.4424 88.2351 75.2719 88.1863C75.1013 88.1375 74.9551 88.1131 74.7845 88.1131H74.346C74.1754 88.1131 74.0048 88.1375 73.8586 88.1863C73.7124 88.2351 73.5662 88.3083 73.4688 88.406C73.347 88.5036 73.2739 88.6256 73.2008 88.7721C73.1277 88.9185 73.1033 89.0649 73.1033 89.2358V89.3578C73.1033 89.5287 73.1277 89.6995 73.2008 89.8215C73.2739 89.968 73.347 90.0656 73.4688 90.1632C73.5906 90.2608 73.7124 90.3341 73.8586 90.3829C74.0048 90.4317 74.1754 90.4561 74.346 90.4561H74.7845C74.9551 90.4561 75.1257 90.4317 75.2719 90.3829C75.4181 90.3341 75.5642 90.2608 75.6861 90.1632C75.8079 90.0656 75.881 89.9436 75.9541 89.8215C76.0272 89.6751 76.0515 89.5287 76.0515 89.3578V89.2358Z" fill="black"/>
<path d="M80.8795 81.9157C80.709 81.9157 80.5384 81.9401 80.3922 82.0133C80.246 82.0865 80.0998 82.1598 79.978 82.2818C79.8562 82.4038 79.7831 82.5259 79.71 82.6967C79.6369 82.8675 79.6125 83.014 79.6125 83.1848V88.4078H78.7354V81.0859H79.0277L79.5151 81.8181C79.71 81.5496 79.978 81.3299 80.2704 81.1591C80.5628 80.9883 80.9039 80.915 81.2694 80.915H81.781V81.8913H80.9039L80.8795 81.9157Z" fill="black"/>
<path d="M83.2882 79.3027V78.1312H84.3116V79.3027H83.2882ZM83.3613 88.3818V81.0599H84.2385V88.3818H83.3613Z" fill="black"/>
<path d="M94.1567 88.3824V83.013C94.1567 82.8422 94.1323 82.6713 94.0592 82.5249C93.9861 82.3784 93.9129 82.232 93.7911 82.11C93.6693 81.9879 93.5474 81.9147 93.4013 81.8415C93.2551 81.7683 93.0845 81.7439 92.914 81.7439H92.4754C92.3049 81.7439 92.1343 81.7683 91.9881 81.8415C91.8419 81.9147 91.6957 81.9879 91.5738 82.11C91.452 82.232 91.3546 82.354 91.3058 82.5249C91.2328 82.6713 91.2084 82.8422 91.2084 83.013V88.3824H90.3312V83.013C90.3312 82.8422 90.3069 82.6713 90.2338 82.5249C90.1607 82.3784 90.0876 82.232 89.9658 82.11C89.8439 81.9879 89.7221 81.9147 89.5515 81.8415C89.4053 81.7683 89.2347 81.7439 89.0642 81.7439H88.6256C88.4551 81.7439 88.2846 81.7683 88.1384 81.8415C87.9922 81.9147 87.8459 81.9879 87.7241 82.11C87.6023 82.232 87.5292 82.354 87.4561 82.5249C87.383 82.6713 87.3586 82.8422 87.3586 83.013V88.3824H86.4814V81.0605H86.7738L87.2612 81.7927C87.4561 81.5242 87.7241 81.3046 88.0165 81.1337C88.3089 80.9629 88.65 80.8896 89.0155 80.8896H89.0886C89.5028 80.8896 89.8683 80.9873 90.2094 81.2069C90.5505 81.4022 90.7942 81.6951 90.9891 82.0123C91.0865 81.8415 91.184 81.6951 91.3302 81.5486C91.4521 81.4022 91.6226 81.2802 91.7688 81.1825C91.9394 81.0849 92.1099 81.0117 92.3048 80.9629C92.4998 80.9141 92.6947 80.8896 92.8896 80.8896H92.9627C93.2551 80.8896 93.5475 80.9385 93.7911 81.0605C94.0348 81.1825 94.2784 81.329 94.4733 81.5242C94.6683 81.7195 94.8145 81.9391 94.9363 82.2076C95.0581 82.4761 95.1069 82.7445 95.1069 83.0374V88.358H94.2297L94.1567 88.3824Z" fill="black"/>
<path d="M101.512 88.3844L101.024 87.6522C100.829 87.9207 100.586 88.116 100.269 88.2868C99.9765 88.4576 99.6354 88.5309 99.2942 88.5309H99.075C98.7826 88.5309 98.4902 88.482 98.2465 88.36C97.9785 88.238 97.7592 88.0916 97.5643 87.8963C97.3694 87.7011 97.2232 87.4814 97.1014 87.2129C96.9795 86.9444 96.9308 86.676 96.9308 86.3831V86.3099C96.9308 86.017 96.9795 85.7241 97.1014 85.4801C97.2232 85.2116 97.3694 84.9919 97.5643 84.7967C97.7592 84.6014 97.9785 84.455 98.2465 84.333C98.5146 84.2109 98.7826 84.1621 99.075 84.1621H100.927V83.0394C100.927 82.8686 100.902 82.6977 100.829 82.5513C100.756 82.4049 100.683 82.2584 100.561 82.1364C100.439 82.0144 100.318 81.9412 100.147 81.8679C100.001 81.7947 99.8303 81.7703 99.6597 81.7703H99.1481C98.9775 81.7703 98.8069 81.7947 98.6607 81.8679C98.5145 81.9412 98.3683 82.0144 98.2709 82.1364C98.149 82.2584 98.076 82.3805 98.0029 82.5513C97.9298 82.6977 97.9054 82.8686 97.9054 83.0394V83.3079L97.0283 83.1615V83.0883C97.0283 82.7954 97.077 82.5025 97.1988 82.2584C97.3207 81.99 97.4668 81.7703 97.6617 81.5751C97.8566 81.3798 98.0759 81.2334 98.344 81.1113C98.612 80.9893 98.8801 80.9405 99.1724 80.9405H99.6841C99.9765 80.9405 100.269 80.9893 100.513 81.1113C100.781 81.2334 101 81.3798 101.195 81.5751C101.39 81.7703 101.536 81.99 101.658 82.2584C101.78 82.5269 101.828 82.7954 101.828 83.0883V88.4088H101.536L101.512 88.3844ZM100.927 84.8455H99.075C98.9044 84.8455 98.7338 84.8699 98.5876 84.9431C98.4414 85.0163 98.2952 85.0896 98.1978 85.2116C98.0759 85.3336 98.0029 85.4557 97.9298 85.6265C97.8567 85.7729 97.8323 85.9438 97.8323 86.1146V86.4319C97.8323 86.6028 97.8567 86.7736 97.9298 86.92C98.0029 87.0665 98.0759 87.2129 98.1978 87.3349C98.3196 87.457 98.4414 87.5302 98.5876 87.6034C98.7338 87.6766 98.9044 87.701 99.075 87.701H99.6597C99.8303 87.701 100.001 87.6766 100.147 87.6034C100.293 87.5302 100.439 87.457 100.561 87.3349C100.683 87.2129 100.756 87.0909 100.829 86.92C100.902 86.7736 100.927 86.6028 100.927 86.4319V84.8455Z" fill="black"/>
<path d="M108.506 90.1388C108.384 90.3829 108.238 90.6025 108.043 90.7734C107.848 90.9442 107.629 91.0907 107.361 91.1883C107.093 91.2859 106.825 91.3347 106.533 91.3347H106.167C105.875 91.3347 105.582 91.2859 105.339 91.1883C105.071 91.0907 104.852 90.9442 104.657 90.7734C104.462 90.6025 104.315 90.3829 104.194 90.1388C104.072 89.8948 104.023 89.6263 104.023 89.3334C104.023 89.0161 104.072 88.7477 104.169 88.528C104.267 88.2839 104.413 88.0887 104.608 87.9178C104.389 87.7714 104.194 87.6006 104.072 87.3565C103.926 87.1124 103.877 86.8684 103.877 86.5755C103.877 86.307 103.926 86.0874 104.047 85.8677C104.169 85.648 104.315 85.4772 104.486 85.3308C104.267 85.1355 104.072 84.8915 103.95 84.5986C103.828 84.3057 103.755 84.0128 103.755 83.6711V83.1098C103.755 82.8169 103.804 82.524 103.926 82.28C104.047 82.0115 104.194 81.7918 104.389 81.5966C104.583 81.4013 104.803 81.2549 105.071 81.1329C105.339 81.0108 105.607 80.962 105.899 80.962H106.265C106.63 80.962 106.947 81.0353 107.264 81.2061C107.556 81.3769 107.824 81.5722 108.019 81.8651L108.506 81.1329H108.799V83.6955C108.799 83.9884 108.75 84.2813 108.628 84.5254C108.506 84.7938 108.36 85.0135 108.165 85.2087C107.97 85.404 107.751 85.5504 107.483 85.6725C107.215 85.7945 106.947 85.8433 106.655 85.8433H105.388C105.388 85.8433 105.193 85.8433 105.095 85.8921C104.998 85.9409 104.925 85.9897 104.851 86.063C104.778 86.1362 104.73 86.2094 104.681 86.307C104.632 86.4046 104.632 86.5023 104.632 86.5999C104.632 86.6975 104.632 86.7952 104.681 86.8928C104.73 86.9904 104.778 87.0636 104.851 87.1368C104.925 87.2101 104.998 87.2589 105.095 87.3077C105.193 87.3565 105.29 87.3565 105.388 87.3565H106.581C106.874 87.3565 107.166 87.4053 107.41 87.5029C107.678 87.6006 107.897 87.747 108.092 87.9178C108.287 88.0887 108.433 88.3083 108.555 88.5524C108.677 88.7965 108.726 89.0649 108.726 89.3578C108.726 89.6751 108.677 89.9436 108.555 90.212L108.506 90.1388ZM107.873 83.0366C107.873 82.8657 107.848 82.6949 107.775 82.5484C107.702 82.402 107.629 82.2556 107.507 82.1335C107.385 82.0115 107.264 81.9383 107.093 81.8651C106.947 81.7918 106.776 81.7674 106.606 81.7674H105.875C105.704 81.7674 105.534 81.7918 105.388 81.8651C105.241 81.9383 105.095 82.0115 104.973 82.1335C104.851 82.2556 104.778 82.3776 104.705 82.5484C104.632 82.6949 104.608 82.8657 104.608 83.0366V83.6955C104.608 83.8664 104.632 84.0372 104.705 84.1837C104.778 84.3301 104.851 84.4765 104.973 84.5986C105.095 84.7206 105.217 84.7938 105.388 84.867C105.534 84.9403 105.704 84.9647 105.875 84.9647H106.606C106.776 84.9647 106.947 84.9403 107.093 84.867C107.239 84.7938 107.385 84.7206 107.507 84.5986C107.629 84.4765 107.702 84.3545 107.775 84.1837C107.848 84.0372 107.873 83.8664 107.873 83.6955V83.0366ZM107.824 89.2358C107.824 89.0649 107.8 88.8941 107.727 88.7721C107.654 88.6256 107.58 88.5036 107.459 88.406C107.337 88.3083 107.215 88.2351 107.044 88.1863C106.874 88.1375 106.728 88.1131 106.557 88.1131H106.118C105.948 88.1131 105.777 88.1375 105.631 88.1863C105.485 88.2351 105.339 88.3083 105.217 88.406C105.095 88.5036 105.022 88.6256 104.949 88.7721C104.876 88.9185 104.851 89.0649 104.851 89.2358V89.3578C104.851 89.5287 104.876 89.6995 104.949 89.8215C105.022 89.968 105.095 90.0656 105.217 90.1632C105.339 90.2608 105.461 90.3341 105.631 90.3829C105.802 90.4317 105.948 90.4561 106.118 90.4561H106.557C106.728 90.4561 106.898 90.4317 107.044 90.3829C107.191 90.3341 107.337 90.2608 107.459 90.1632C107.58 90.0656 107.654 89.9436 107.727 89.8215C107.8 89.6751 107.824 89.5287 107.824 89.3578V89.2358Z" fill="black"/>
<path d="M115.208 87.2129C115.086 87.4814 114.94 87.7011 114.745 87.8963C114.55 88.0916 114.33 88.238 114.062 88.36C113.794 88.482 113.526 88.5309 113.234 88.5309H112.649C112.357 88.5309 112.064 88.482 111.821 88.36C111.553 88.238 111.333 88.0916 111.138 87.8963C110.944 87.7011 110.797 87.4814 110.676 87.2129C110.554 86.9444 110.505 86.676 110.505 86.3831V83.0883C110.505 82.7954 110.554 82.5025 110.676 82.2584C110.797 81.99 110.944 81.7703 111.138 81.5751C111.333 81.3798 111.553 81.2334 111.821 81.1113C112.089 80.9893 112.357 80.9405 112.649 80.9405H113.234C113.526 80.9405 113.819 80.9893 114.062 81.1113C114.33 81.2334 114.55 81.3798 114.745 81.5751C114.94 81.7703 115.086 81.99 115.208 82.2584C115.329 82.5269 115.378 82.7954 115.378 83.0883V84.8211H111.382V86.4563C111.382 86.6272 111.407 86.798 111.48 86.9444C111.553 87.0909 111.626 87.2373 111.748 87.3594C111.869 87.4814 111.991 87.5546 112.162 87.6278C112.308 87.701 112.479 87.7254 112.649 87.7254H113.234C113.404 87.7254 113.575 87.701 113.721 87.6278C113.867 87.5546 114.014 87.4814 114.135 87.3594C114.257 87.2373 114.33 87.1153 114.404 86.9444C114.477 86.798 114.501 86.6272 114.501 86.4563V85.9682L115.378 86.1146V86.4075C115.378 86.7004 115.329 86.9933 115.208 87.2373V87.2129ZM114.501 83.0394C114.501 82.8686 114.477 82.6977 114.404 82.5513C114.33 82.4049 114.257 82.2584 114.135 82.1364C114.014 82.0144 113.892 81.9412 113.721 81.8679C113.575 81.7947 113.404 81.7703 113.234 81.7703H112.649C112.479 81.7703 112.308 81.7947 112.162 81.8679C112.016 81.9412 111.869 82.0144 111.748 82.1364C111.626 82.2584 111.553 82.3805 111.48 82.5513C111.407 82.6977 111.382 82.8686 111.382 83.0394V84.1377H114.501V83.0394Z" fill="black"/>
<path d="M48.7634 103.025C48.4953 103.025 48.2517 102.977 48.008 102.879C47.7644 102.781 47.5695 102.635 47.3989 102.464C47.2283 102.293 47.0821 102.074 46.9847 101.854C46.8872 101.634 46.8385 101.366 46.8385 101.097V96.5334H45.5227V95.7036H46.8385V93.9463L47.7156 93.7999V95.7036H49.5674V96.5334H47.7156V101.122C47.7156 101.268 47.74 101.415 47.7887 101.537C47.8374 101.659 47.9106 101.781 48.008 101.878C48.1055 101.976 48.2029 102.049 48.3491 102.098C48.4709 102.147 48.6172 102.171 48.7634 102.171H49.5674V103.001H48.7634V103.025Z" fill="black"/>
<path d="M56.0492 101.855C55.9274 102.123 55.7812 102.343 55.5863 102.538C55.3913 102.733 55.172 102.88 54.904 103.002C54.636 103.124 54.368 103.173 54.0756 103.173H53.4909C53.1985 103.173 52.906 103.124 52.6624 103.002C52.3943 102.88 52.1751 102.733 51.9801 102.538C51.7852 102.343 51.6391 102.123 51.5173 101.855C51.3954 101.586 51.3467 101.318 51.3467 101.025V97.7299C51.3467 97.437 51.3954 97.1442 51.5173 96.9001C51.6391 96.6316 51.7852 96.412 51.9801 96.2167C52.1751 96.0215 52.3943 95.875 52.6624 95.753C52.9304 95.631 53.1985 95.5822 53.4909 95.5822H54.0756C54.368 95.5822 54.6604 95.631 54.904 95.753C55.1477 95.875 55.3913 96.0215 55.5863 96.2167C55.7812 96.412 55.9274 96.6316 56.0492 96.9001C56.171 97.1686 56.2198 97.437 56.2198 97.7299V101.025C56.2198 101.318 56.171 101.611 56.0492 101.855ZM55.3183 97.6811C55.3183 97.5103 55.2939 97.3394 55.2208 97.193C55.1477 97.0465 55.0746 96.9001 54.9527 96.7781C54.8309 96.656 54.7091 96.5828 54.5386 96.5096C54.3924 96.4364 54.2218 96.412 54.0512 96.412H53.4665C53.2959 96.412 53.1253 96.4364 52.9791 96.5096C52.8329 96.5828 52.6868 96.656 52.565 96.7781C52.4431 96.9001 52.37 97.0221 52.2969 97.193C52.2238 97.3394 52.1995 97.5103 52.1995 97.6811V101.074C52.1995 101.244 52.2238 101.415 52.2969 101.562C52.37 101.708 52.4431 101.855 52.565 101.977C52.6868 102.099 52.8086 102.172 52.9791 102.245C53.1497 102.318 53.2959 102.343 53.4665 102.343H54.0512C54.2218 102.343 54.3924 102.318 54.5386 102.245C54.6848 102.172 54.8309 102.099 54.9527 101.977C55.0746 101.855 55.1477 101.733 55.2208 101.562C55.2939 101.415 55.3183 101.244 55.3183 101.074V97.6811Z" fill="black"/>
<path d="M68.2081 103.027V95.9983L68.135 96.4377L65.7473 103.027H65.2599L62.8721 96.4377L62.8234 95.9983V103.027H61.8975V92.7767H62.3848L65.4792 101.197V101.587L65.528 101.197L68.6224 92.7767H69.1096V103.027H68.1838H68.2081Z" fill="black"/>
<path d="M75.7576 103.026L75.2703 102.294C75.0754 102.562 74.8317 102.758 74.5149 102.928C74.2226 103.099 73.8815 103.173 73.5403 103.173H73.3211C73.0287 103.173 72.7363 103.124 72.4926 103.002C72.2246 102.88 72.0053 102.733 71.8104 102.538C71.6155 102.343 71.4693 102.123 71.3475 101.855C71.2256 101.586 71.1769 101.318 71.1769 101.025V100.952C71.1769 100.659 71.2256 100.366 71.3475 100.122C71.4693 99.8533 71.6155 99.6336 71.8104 99.4384C72.0053 99.2431 72.2246 99.0967 72.4926 98.9746C72.7607 98.8526 73.0287 98.8038 73.3211 98.8038H75.1729V97.6811C75.1729 97.5103 75.1485 97.3394 75.0754 97.193C75.0023 97.0465 74.9292 96.9001 74.8074 96.7781C74.6856 96.656 74.5637 96.5828 74.3931 96.5096C74.247 96.4364 74.0764 96.412 73.9058 96.412H73.3942C73.2236 96.412 73.0531 96.4364 72.9069 96.5096C72.7607 96.5828 72.6145 96.656 72.517 96.7781C72.3952 96.9001 72.3221 97.0221 72.249 97.193C72.1759 97.3394 72.1515 97.5103 72.1515 97.6811V97.9496L71.2744 97.8031V97.7299C71.2744 97.437 71.3231 97.1442 71.4449 96.9001C71.5668 96.6316 71.713 96.412 71.9079 96.2167C72.1028 96.0215 72.3221 95.875 72.5901 95.753C72.8581 95.631 73.1262 95.5822 73.4185 95.5822H73.9302C74.2226 95.5822 74.515 95.631 74.7586 95.753C75.0266 95.875 75.2459 96.0215 75.4409 96.2167C75.6358 96.412 75.782 96.6316 75.9038 96.9001C76.0256 97.1686 76.0744 97.437 76.0744 97.7299V103.05H75.782L75.7576 103.026ZM75.1729 99.4872H73.3211C73.1505 99.4872 72.98 99.5116 72.8338 99.5848C72.6876 99.658 72.5414 99.7312 72.4439 99.8533C72.3221 99.9753 72.249 100.097 72.1759 100.268C72.1028 100.415 72.0784 100.585 72.0784 100.756V101.074C72.0784 101.244 72.1028 101.415 72.1759 101.562C72.249 101.708 72.3221 101.855 72.4439 101.977C72.5658 102.099 72.6876 102.172 72.8338 102.245C72.98 102.318 73.1505 102.343 73.3211 102.343H73.9058C74.0764 102.343 74.247 102.318 74.3931 102.245C74.5393 102.172 74.6856 102.099 74.8074 101.977C74.9292 101.855 75.0023 101.733 75.0754 101.562C75.1485 101.415 75.1729 101.244 75.1729 101.074V99.4872Z" fill="black"/>
<path d="M78.2668 103.027V92.7767H79.144V103.027H78.2668ZM82.2871 103.027L79.3145 99.3664L82.2871 95.7055H83.4323L80.3866 99.3664L83.4323 103.027H82.2871Z" fill="black"/>
<path d="M85.046 103.027V92.7767H85.9232V103.027H85.046ZM89.0663 103.027L86.0937 99.3664L89.0663 95.7055H90.2115L87.1658 99.3664L90.2115 103.027H89.0663Z" fill="black"/>
<path d="M96.1305 103.026L95.6432 102.294C95.4483 102.562 95.2046 102.758 94.8879 102.928C94.5955 103.099 94.2544 103.173 93.9133 103.173H93.694C93.4016 103.173 93.1091 103.124 92.8655 103.002C92.5975 102.88 92.3782 102.733 92.1833 102.538C91.9883 102.343 91.8422 102.123 91.7204 101.855C91.5986 101.586 91.5498 101.318 91.5498 101.025V100.952C91.5498 100.659 91.5986 100.366 91.7204 100.122C91.8422 99.8533 91.9883 99.6336 92.1833 99.4384C92.3782 99.2431 92.5975 99.0967 92.8655 98.9746C93.1335 98.8526 93.4016 98.8038 93.694 98.8038H95.5457V97.6811C95.5457 97.5103 95.5214 97.3394 95.4483 97.193C95.3752 97.0465 95.3021 96.9001 95.1802 96.7781C95.0584 96.656 94.9366 96.5828 94.7661 96.5096C94.6199 96.4364 94.4493 96.412 94.2787 96.412H93.7671C93.5965 96.412 93.4259 96.4364 93.2797 96.5096C93.1335 96.5828 92.9873 96.656 92.8899 96.7781C92.7681 96.9001 92.695 97.0221 92.6219 97.193C92.5488 97.3394 92.5244 97.5103 92.5244 97.6811V97.9496L91.6472 97.8031V97.7299C91.6472 97.437 91.696 97.1442 91.8178 96.9001C91.9396 96.6316 92.0858 96.412 92.2807 96.2167C92.4757 96.0215 92.695 95.875 92.963 95.753C93.231 95.631 93.499 95.5822 93.7914 95.5822H94.3031C94.5955 95.5822 94.8879 95.631 95.1315 95.753C95.3996 95.875 95.6189 96.0215 95.8138 96.2167C96.0087 96.412 96.1549 96.6316 96.2767 96.9001C96.3986 97.1686 96.4472 97.437 96.4472 97.7299V103.05H96.1549L96.1305 103.026ZM95.5457 99.4872H93.694C93.5234 99.4872 93.3528 99.5116 93.2066 99.5848C93.0605 99.658 92.9142 99.7312 92.7924 99.8533C92.6706 99.9753 92.5975 100.097 92.5244 100.268C92.4513 100.415 92.4269 100.585 92.4269 100.756V101.074C92.4269 101.244 92.4513 101.415 92.5244 101.562C92.5975 101.708 92.6706 101.855 92.7924 101.977C92.9142 102.099 93.0361 102.172 93.2066 102.245C93.3528 102.318 93.5234 102.343 93.694 102.343H94.2787C94.4493 102.343 94.6199 102.318 94.7661 102.245C94.9123 102.172 95.0584 102.099 95.1802 101.977C95.3021 101.855 95.3752 101.733 95.4483 101.562C95.5214 101.415 95.5457 101.244 95.5457 101.074V99.4872Z" fill="black"/>
<path d="M102.315 103.027V97.658C102.315 97.4871 102.291 97.3163 102.218 97.1698C102.145 97.0234 102.072 96.877 101.95 96.7549C101.828 96.6329 101.706 96.5597 101.536 96.4865C101.39 96.4132 101.219 96.3888 101.048 96.3888H100.464C100.293 96.3888 100.122 96.4132 99.9763 96.4865C99.8301 96.5597 99.6839 96.6329 99.562 96.7549C99.4402 96.877 99.3672 96.999 99.2941 97.1698C99.221 97.3163 99.1966 97.4871 99.1966 97.658V103.027H98.3195V92.7767H99.1966V96.3156C99.3915 96.0716 99.6352 95.9007 99.9276 95.7543C100.22 95.6322 100.512 95.559 100.829 95.559H101.048C101.341 95.559 101.633 95.6078 101.877 95.7299C102.12 95.8519 102.364 95.9983 102.559 96.1936C102.754 96.3888 102.9 96.6085 103.022 96.877C103.144 97.1454 103.193 97.4139 103.193 97.7068V103.027H102.315Z" fill="black"/>
<defs>
<linearGradient id="paint0_linear_2971_14256" x1="38.9492" y1="180.656" x2="46.6212" y2="180.656" gradientUnits="userSpaceOnUse">
<stop stop-color="#E0E5FC"/>
<stop offset="1"/>
</linearGradient>
<linearGradient id="paint1_linear_2971_14256" x1="102.227" y1="180.656" x2="109.899" y2="180.656" gradientUnits="userSpaceOnUse">
<stop stop-color="#E0E5FC"/>
<stop offset="1"/>
</linearGradient>
<linearGradient id="paint2_linear_2971_14256" x1="32.3105" y1="199.331" x2="116.459" y2="199.331" gradientUnits="userSpaceOnUse">
<stop stop-color="#EEBF3D"/>
<stop offset="1" stop-color="#CD872F"/>
</linearGradient>
<linearGradient id="paint3_linear_2971_14256" x1="32.7381" y1="207.834" x2="111.738" y2="207.834" gradientUnits="userSpaceOnUse">
<stop stop-color="#EEBF3D"/>
<stop offset="1" stop-color="#CD872F"/>
</linearGradient>
<linearGradient id="paint4_linear_2971_14256" x1="98.2282" y1="253.234" x2="98.2282" y2="211.912" gradientUnits="userSpaceOnUse">
<stop stop-color="#EEBF3D"/>
<stop offset="1" stop-color="#CD872F"/>
</linearGradient>
<linearGradient id="paint5_linear_2971_14256" x1="95.3674" y1="235.212" x2="95.3674" y2="205.95" gradientUnits="userSpaceOnUse">
<stop stop-color="#EEBF3D"/>
<stop offset="1" stop-color="#CD872F"/>
</linearGradient>
</defs>
</svg>
