<svg width="92" height="70" viewBox="0 0 92 70" fill="none" xmlns="http://www.w3.org/2000/svg">
<path d="M5.50565 -0.000173418L63.7286 -0.000168328C66.7568 -0.000168063 69.2344 2.47745 69.2344 5.50563L69.2344 63.7286C69.2344 66.7568 66.7568 69.2344 63.7286 69.2344L5.50564 69.2344C2.47745 69.2344 -0.000160001 66.7568 -0.000159736 63.7286L-0.000154646 5.50563C-0.000154381 2.47744 2.47745 -0.000173683 5.50565 -0.000173418Z" fill="#CAB2D6"/>
<path d="M28.2044 -0.000173418L86.4273 -0.000168328C89.4555 -0.000168063 91.9331 2.47745 91.9331 5.50563L91.9331 63.7286C91.9331 66.7568 89.4555 69.2344 86.4273 69.2344L28.2044 69.2344C25.1762 69.2344 22.6986 66.7568 22.6986 63.7286L22.6986 5.50563C22.6986 2.47744 25.1762 -0.000173683 28.2044 -0.000173418Z" fill="#55317B"/>
<path d="M10.1258 5.69556L12.6309 5.69556C15.6591 5.69556 18.1367 8.17318 18.1367 11.2014L18.1367 58.0333C18.1367 61.0615 15.6591 63.5391 12.6309 63.5391L10.1258 63.5391C7.09759 63.5391 4.61998 61.0615 4.61998 58.0333L4.61998 11.2014C4.61998 8.17317 7.0976 5.69556 10.1258 5.69556Z" fill="#55317B"/>
<path d="M33.905 5.70044L80.7369 5.70045C83.7651 5.70045 86.2427 8.17805 86.2427 11.2062L86.2427 58.0381C86.2427 61.0663 83.7651 63.5439 80.7369 63.5439L33.905 63.5439C30.8768 63.5439 28.3992 61.0663 28.3992 58.0381L28.3992 11.2062C28.3992 8.17805 30.8768 5.70044 33.905 5.70044Z" fill="#CAB2D6"/>
<path d="M62.3111 18.674C62.5999 17.5828 63.4141 17.8166 64.7535 19.3755C66.0929 20.9603 67.2222 23.2986 68.1151 26.3644C70.0586 33.2754 68.798 39.6148 64.3596 45.3306C61.7858 48.6302 58.6343 50.7607 54.9049 51.748C53.4867 52.1117 52.3312 52.0857 51.3594 51.644C47.6826 50.0592 44.82 48.7861 42.7977 47.7728C42.0886 47.4351 41.8523 47.0194 42.0886 46.5257C42.325 46.0321 42.7977 45.8762 43.4806 46.0841C46.2119 46.9155 48.4705 47.1233 50.2301 46.7076C51.9897 46.2919 54.3009 45.2527 57.1373 43.5639C62.0222 40.628 65.0161 37.7701 66.0667 34.9901C66.1192 34.8862 66.1192 34.7563 66.1192 34.6524C65.7252 32.7298 63.9394 30.1317 60.7615 26.858C60.4464 26.5463 60.3676 26.1306 60.4989 25.6629L62.3111 18.674Z" fill="#6A3D9A"/>
</svg>
