<svg width="141" height="34" viewBox="0 0 141 34" fill="none" xmlns="http://www.w3.org/2000/svg">
<mask id="path-1-outside-1_2914_105495" maskUnits="userSpaceOnUse" x="-1" y="-1" width="143" height="37" fill="black">
<rect fill="white" x="-1" y="-1" width="143" height="37"/>
<path d="M0.576 24.92C1.944 19.016 2.808 13.004 5.22 7.208C6.408 4.472 8.352 0.835998 11.808 0.835998C15.084 0.835998 16.164 5.336 16.632 7.892C17.46 12.32 17.748 16.748 18.612 21.14C18.792 22.148 19.044 23.12 19.404 24.092C19.404 24.164 19.44 24.236 19.44 24.308C19.44 25.352 17.496 25.784 16.488 25.784C15.624 25.784 14.652 25.676 14.292 24.92C13.536 23.048 13.212 20.96 13.032 18.98C10.332 19.196 7.632 19.196 4.896 19.376C4.644 20.708 4.356 22.04 4.068 23.336C3.924 24.02 3.852 24.668 3.636 25.316C3.492 25.784 3.06 26.324 2.124 26.324C1.152 26.324 0.54 25.748 0.54 25.172C0.54 25.1 0.576 24.992 0.576 24.92ZM5.76 15.452C8.064 15.308 10.44 15.272 12.78 15.164C12.636 12.5 12.528 9.836 12.24 7.172C12.132 6.236 12.024 5.336 11.664 4.472C11.628 4.22 11.34 3.644 11.088 3.536C11.016 3.464 10.944 3.464 10.908 3.464C10.872 3.464 10.728 3.5 10.548 3.644C8.208 5.048 6.372 12.788 5.76 15.452ZM23.0228 24.92V24.884L22.9508 24.272C22.5188 21.284 22.4108 18.224 22.4108 15.236C22.4108 12.104 22.5908 8.972 22.9508 5.804C23.0588 5.012 23.2028 4.148 23.3108 3.284C23.3828 2.888 23.4188 2.42 23.5268 2.024C23.7788 1.016 25.3268 0.872 26.3348 0.872C26.7668 0.872 27.4148 0.943999 27.9548 1.088C28.4948 1.268 28.9988 1.556 28.9988 2.06C28.9988 2.42 28.8548 2.888 28.7828 3.212C28.2428 6.812 27.9548 10.484 27.9188 14.12V15.776C27.9188 18.476 27.9908 21.248 28.4228 23.948C28.4588 24.236 28.5308 24.56 28.5308 24.812C28.5308 25.316 27.9908 25.64 27.4148 25.784C26.8748 25.964 26.2268 26.036 25.7588 26.036C24.7868 26.036 23.3468 25.82 23.0228 24.92ZM37.6329 25.892C37.7409 27.908 37.9209 29.96 38.2089 31.94C38.2449 32.192 38.3169 32.444 38.3169 32.66C38.3169 33.164 37.7409 33.452 37.2009 33.632C36.6249 33.776 35.9769 33.848 35.5449 33.848C34.6449 33.848 33.0609 33.632 32.8089 32.696C32.7369 32.336 32.7009 31.94 32.6649 31.616C32.2329 28.232 32.0169 24.848 32.0169 21.464C32.0169 17.828 32.2329 14.192 32.6649 10.592C32.7009 10.196 32.7369 9.836 32.8089 9.44C33.0249 8.468 34.6449 8.288 35.5449 8.288C36.0129 8.288 36.6609 8.36 37.2009 8.54C37.7409 8.684 38.3169 8.972 38.3169 9.476C38.3169 9.836 38.2089 10.196 38.1729 10.592C38.1729 10.7 38.1369 10.808 38.1369 10.952C39.1089 9.26 40.8009 7.352 43.3929 7.352C47.5689 7.352 49.2609 11.168 49.2609 14.768C49.2609 18.584 46.9209 23.228 41.5569 25.172C40.3329 25.604 39.0369 25.928 37.6329 25.892ZM38.3529 22.616C43.0689 22.148 44.3649 16.712 44.3649 13.94C44.3649 13.04 44.1849 11.42 43.5729 10.7C43.3569 10.412 43.1769 10.304 42.9969 10.304C42.6729 10.304 42.2409 10.556 41.7729 11.024C39.4689 13.328 38.2449 17.864 38.2449 20.996C38.2449 21.536 38.2809 22.112 38.3529 22.616ZM58.3059 25.064C58.1619 25.46 57.5859 25.712 57.0459 25.82C56.5419 25.964 55.9299 26.036 55.4979 26.036C54.6339 26.036 53.0499 25.784 52.8339 24.884C52.6179 24.092 52.5819 22.94 52.5099 22.112C52.2939 19.808 52.2219 17.504 52.2219 15.236C52.2219 12.248 52.4019 9.26 52.7259 6.236C52.9059 4.868 53.0139 3.392 53.3379 2.024C53.5539 1.016 55.1739 0.872 56.1459 0.872C56.5779 0.872 57.2259 0.943999 57.7659 1.088C58.3059 1.268 58.8099 1.556 58.8099 2.06C58.8099 2.456 58.6659 2.924 58.5939 3.32C58.0539 7.172 57.7299 11.024 57.7299 14.912C59.0259 12.032 61.7979 8.612 65.2539 8.612C66.0099 8.612 66.7299 8.792 67.3419 9.152C70.0419 10.736 70.0779 17.252 70.0779 19.412C70.0779 20.672 70.0419 21.932 69.9339 23.156C69.8979 23.732 69.8979 24.38 69.7899 24.92C69.6819 25.388 69.1419 25.676 68.6019 25.82C68.0619 26 67.4499 26.072 66.9819 26.072C66.6579 26.072 66.1539 26.036 65.7219 25.892C65.2899 25.784 64.8219 25.568 64.8219 25.136C64.8219 23.3 64.8939 21.464 64.8939 19.628C64.8939 19.052 64.9299 17.684 64.7859 16.424C64.6419 15.092 64.3179 14.012 63.8499 13.724C63.6339 13.616 63.4539 13.544 63.2019 13.544C62.0859 13.544 61.0779 14.552 60.2859 15.92C58.7379 18.548 58.3779 21.176 58.3779 24.164V24.56C58.3779 24.74 58.3419 24.884 58.3059 25.064ZM83.8077 20.348C83.2317 21.536 82.6917 22.688 81.9357 23.84C81.2877 24.776 80.0277 26.396 77.8677 26.396C76.5717 26.396 75.3837 25.748 74.6637 25.136C73.0437 23.768 72.6117 21.608 72.6117 19.916C72.6117 16.46 74.6637 10.916 79.4157 8.792C80.2797 8.432 81.5757 8 82.7277 8C85.7517 8 87.1557 10.412 87.9117 13.076C88.0557 13.688 88.2357 14.3 88.2357 14.948C88.2357 15.596 88.1997 16.244 88.1997 16.928C88.1997 19.592 88.6677 21.356 89.9637 23.696C90.0357 23.768 90.0717 23.876 90.0717 23.984C90.0717 24.884 87.9477 25.784 86.8677 25.784C86.0757 25.784 85.5717 25.244 85.2837 24.812C84.4557 23.804 83.9517 21.608 83.8077 20.348ZM78.2637 21.428C78.4077 21.572 78.5157 21.608 78.5877 21.608C78.7677 21.608 79.0917 21.464 79.4517 21.248C79.7397 20.996 80.0277 20.708 80.1717 20.564C80.4957 20.204 80.7117 19.808 80.9277 19.484C81.5757 18.296 82.1157 17.18 82.7277 15.992C82.7637 15.92 82.9077 15.704 83.0517 15.452C83.0877 15.344 83.1597 15.236 83.1957 15.164C83.2317 15.128 83.2677 15.092 83.2677 15.056C83.2677 14.552 83.0157 13.616 82.7637 13.112C82.4757 12.644 82.0797 12.284 81.4677 12.284C80.2077 12.284 79.1997 14.048 78.8037 15.092C78.1917 16.532 77.8317 18.008 77.8317 19.52C77.8317 20.132 77.8677 20.924 78.2637 21.428ZM96.8228 25.928C96.6068 25.964 96.3548 26 96.1028 26C95.1668 26 93.6908 25.82 93.4028 24.884C93.3308 24.596 93.3308 24.272 93.2948 23.948C92.8268 21.248 92.7908 17.936 92.7908 15.236C92.7908 12.104 92.9708 8.972 93.3308 5.804C93.4388 5.012 93.5828 4.148 93.6908 3.284C93.7628 2.888 93.7988 2.42 93.9068 2.024C94.1588 1.016 95.7068 0.872 96.7148 0.872C97.1468 0.872 97.7948 0.943999 98.3348 1.088C98.8748 1.268 99.3788 1.556 99.3788 2.06C99.3788 2.348 99.2708 2.708 99.2348 2.96C99.0908 3.68 98.9828 4.4 98.9468 5.12C98.7308 6.812 98.5508 8.468 98.4428 10.16C99.3428 8.828 100.855 7.352 103.231 7.352C106.039 7.352 107.695 9.368 108.343 10.772C108.811 12.032 109.063 13.328 109.063 14.624V15.02C108.991 16.352 108.739 17.612 108.235 18.872C106.867 22.04 103.087 25.892 97.3628 25.892H97.1108C97.0388 25.892 96.9308 25.928 96.8228 25.928ZM98.6228 22.544C102.907 21.932 104.203 16.568 104.203 13.94C104.203 13.184 103.843 10.304 102.799 10.304C102.475 10.304 102.043 10.556 101.575 11.024C99.9548 12.644 98.8388 15.668 98.4068 17.828C98.3708 17.936 98.3348 18.08 98.3348 18.224C98.3348 19.664 98.4788 21.14 98.6228 22.544ZM115.744 19.772C116.032 20.852 116.717 21.896 118.265 21.896C119.561 21.896 121.253 21.104 122.368 20.42C122.549 20.348 122.692 20.276 122.837 20.204C122.909 20.204 122.981 20.168 123.017 20.132C123.809 20.132 124.349 20.24 124.745 21.032C125.032 21.464 125.141 22.004 125.141 22.256C125.141 24.884 121.073 25.856 119.057 25.856C113.188 25.856 111.28 20.96 111.28 18.008V17.576C111.532 13.616 114.592 9.656 118.805 9.656C119.165 9.656 119.561 9.656 119.956 9.764C123.448 10.376 125.429 13.508 125.429 15.668C125.429 16.46 125.213 17.252 124.709 17.936C124.276 18.548 123.665 18.728 122.944 18.908C121.685 19.232 120.389 19.376 119.129 19.484C118.013 19.592 116.86 19.664 115.744 19.772ZM115.817 16.532C117.544 16.316 119.309 16.1 121.036 15.812C120.893 14.66 120.497 13.616 119.129 13.616C117.292 13.616 116.105 15.236 115.817 16.532ZM135.64 22.112C135.676 22.22 135.748 22.328 135.82 22.4H135.856C135.892 22.4 135.964 22.328 136.108 22.148C136.504 21.5 136.504 20.42 136.504 19.7C136.504 19.484 136.576 18.98 137.008 18.764C137.188 18.656 137.44 18.584 137.692 18.584C138.916 18.584 139.852 19.52 140.14 20.06C140.32 20.348 140.392 20.708 140.392 20.996C140.392 22.904 138.592 26.072 134.848 26.072C134.128 26.072 133.552 25.892 132.976 25.604C129.736 24.02 129.736 18.656 129.736 16.352C129.736 15.272 129.772 14.228 129.844 13.184C129.736 13.184 129.628 13.148 129.556 13.148C129.304 13.112 129.052 13.04 128.836 12.968C127.828 12.572 127.468 11.276 127.468 10.7C127.468 9.908 127.936 9.512 128.656 9.368C128.872 9.332 129.124 9.296 129.376 9.26C129.664 9.224 129.988 9.188 130.276 9.152C130.564 6.812 130.888 4.4 131.392 2.06C131.608 1.052 132.94 0.872 133.984 0.872H134.776C135.064 0.907999 135.388 0.907999 135.712 0.979998C136.324 1.088 136.9 1.376 136.9 1.952V2.132C136.54 4.148 136.252 6.2 136 8.252C136.612 8.144 137.26 8.108 137.836 8.108H138.088C138.196 8.144 138.304 8.144 138.412 8.18C138.736 8.252 138.916 8.432 139.06 8.576C139.204 8.756 139.276 8.972 139.312 9.188C139.456 9.584 139.492 10.016 139.492 10.196C139.492 10.628 139.384 11.204 139.168 11.744C138.916 12.284 138.484 12.788 137.656 12.968C137.332 13.076 136.144 13.148 135.496 13.184C135.352 15.092 135.244 17.036 135.244 18.908C135.244 19.16 135.244 20.096 135.388 20.96C135.424 21.392 135.496 21.788 135.64 22.112Z"/>
</mask>
<path d="M0.576 24.92C1.944 19.016 2.808 13.004 5.22 7.208C6.408 4.472 8.352 0.835998 11.808 0.835998C15.084 0.835998 16.164 5.336 16.632 7.892C17.46 12.32 17.748 16.748 18.612 21.14C18.792 22.148 19.044 23.12 19.404 24.092C19.404 24.164 19.44 24.236 19.44 24.308C19.44 25.352 17.496 25.784 16.488 25.784C15.624 25.784 14.652 25.676 14.292 24.92C13.536 23.048 13.212 20.96 13.032 18.98C10.332 19.196 7.632 19.196 4.896 19.376C4.644 20.708 4.356 22.04 4.068 23.336C3.924 24.02 3.852 24.668 3.636 25.316C3.492 25.784 3.06 26.324 2.124 26.324C1.152 26.324 0.54 25.748 0.54 25.172C0.54 25.1 0.576 24.992 0.576 24.92ZM5.76 15.452C8.064 15.308 10.44 15.272 12.78 15.164C12.636 12.5 12.528 9.836 12.24 7.172C12.132 6.236 12.024 5.336 11.664 4.472C11.628 4.22 11.34 3.644 11.088 3.536C11.016 3.464 10.944 3.464 10.908 3.464C10.872 3.464 10.728 3.5 10.548 3.644C8.208 5.048 6.372 12.788 5.76 15.452ZM23.0228 24.92V24.884L22.9508 24.272C22.5188 21.284 22.4108 18.224 22.4108 15.236C22.4108 12.104 22.5908 8.972 22.9508 5.804C23.0588 5.012 23.2028 4.148 23.3108 3.284C23.3828 2.888 23.4188 2.42 23.5268 2.024C23.7788 1.016 25.3268 0.872 26.3348 0.872C26.7668 0.872 27.4148 0.943999 27.9548 1.088C28.4948 1.268 28.9988 1.556 28.9988 2.06C28.9988 2.42 28.8548 2.888 28.7828 3.212C28.2428 6.812 27.9548 10.484 27.9188 14.12V15.776C27.9188 18.476 27.9908 21.248 28.4228 23.948C28.4588 24.236 28.5308 24.56 28.5308 24.812C28.5308 25.316 27.9908 25.64 27.4148 25.784C26.8748 25.964 26.2268 26.036 25.7588 26.036C24.7868 26.036 23.3468 25.82 23.0228 24.92ZM37.6329 25.892C37.7409 27.908 37.9209 29.96 38.2089 31.94C38.2449 32.192 38.3169 32.444 38.3169 32.66C38.3169 33.164 37.7409 33.452 37.2009 33.632C36.6249 33.776 35.9769 33.848 35.5449 33.848C34.6449 33.848 33.0609 33.632 32.8089 32.696C32.7369 32.336 32.7009 31.94 32.6649 31.616C32.2329 28.232 32.0169 24.848 32.0169 21.464C32.0169 17.828 32.2329 14.192 32.6649 10.592C32.7009 10.196 32.7369 9.836 32.8089 9.44C33.0249 8.468 34.6449 8.288 35.5449 8.288C36.0129 8.288 36.6609 8.36 37.2009 8.54C37.7409 8.684 38.3169 8.972 38.3169 9.476C38.3169 9.836 38.2089 10.196 38.1729 10.592C38.1729 10.7 38.1369 10.808 38.1369 10.952C39.1089 9.26 40.8009 7.352 43.3929 7.352C47.5689 7.352 49.2609 11.168 49.2609 14.768C49.2609 18.584 46.9209 23.228 41.5569 25.172C40.3329 25.604 39.0369 25.928 37.6329 25.892ZM38.3529 22.616C43.0689 22.148 44.3649 16.712 44.3649 13.94C44.3649 13.04 44.1849 11.42 43.5729 10.7C43.3569 10.412 43.1769 10.304 42.9969 10.304C42.6729 10.304 42.2409 10.556 41.7729 11.024C39.4689 13.328 38.2449 17.864 38.2449 20.996C38.2449 21.536 38.2809 22.112 38.3529 22.616ZM58.3059 25.064C58.1619 25.46 57.5859 25.712 57.0459 25.82C56.5419 25.964 55.9299 26.036 55.4979 26.036C54.6339 26.036 53.0499 25.784 52.8339 24.884C52.6179 24.092 52.5819 22.94 52.5099 22.112C52.2939 19.808 52.2219 17.504 52.2219 15.236C52.2219 12.248 52.4019 9.26 52.7259 6.236C52.9059 4.868 53.0139 3.392 53.3379 2.024C53.5539 1.016 55.1739 0.872 56.1459 0.872C56.5779 0.872 57.2259 0.943999 57.7659 1.088C58.3059 1.268 58.8099 1.556 58.8099 2.06C58.8099 2.456 58.6659 2.924 58.5939 3.32C58.0539 7.172 57.7299 11.024 57.7299 14.912C59.0259 12.032 61.7979 8.612 65.2539 8.612C66.0099 8.612 66.7299 8.792 67.3419 9.152C70.0419 10.736 70.0779 17.252 70.0779 19.412C70.0779 20.672 70.0419 21.932 69.9339 23.156C69.8979 23.732 69.8979 24.38 69.7899 24.92C69.6819 25.388 69.1419 25.676 68.6019 25.82C68.0619 26 67.4499 26.072 66.9819 26.072C66.6579 26.072 66.1539 26.036 65.7219 25.892C65.2899 25.784 64.8219 25.568 64.8219 25.136C64.8219 23.3 64.8939 21.464 64.8939 19.628C64.8939 19.052 64.9299 17.684 64.7859 16.424C64.6419 15.092 64.3179 14.012 63.8499 13.724C63.6339 13.616 63.4539 13.544 63.2019 13.544C62.0859 13.544 61.0779 14.552 60.2859 15.92C58.7379 18.548 58.3779 21.176 58.3779 24.164V24.56C58.3779 24.74 58.3419 24.884 58.3059 25.064ZM83.8077 20.348C83.2317 21.536 82.6917 22.688 81.9357 23.84C81.2877 24.776 80.0277 26.396 77.8677 26.396C76.5717 26.396 75.3837 25.748 74.6637 25.136C73.0437 23.768 72.6117 21.608 72.6117 19.916C72.6117 16.46 74.6637 10.916 79.4157 8.792C80.2797 8.432 81.5757 8 82.7277 8C85.7517 8 87.1557 10.412 87.9117 13.076C88.0557 13.688 88.2357 14.3 88.2357 14.948C88.2357 15.596 88.1997 16.244 88.1997 16.928C88.1997 19.592 88.6677 21.356 89.9637 23.696C90.0357 23.768 90.0717 23.876 90.0717 23.984C90.0717 24.884 87.9477 25.784 86.8677 25.784C86.0757 25.784 85.5717 25.244 85.2837 24.812C84.4557 23.804 83.9517 21.608 83.8077 20.348ZM78.2637 21.428C78.4077 21.572 78.5157 21.608 78.5877 21.608C78.7677 21.608 79.0917 21.464 79.4517 21.248C79.7397 20.996 80.0277 20.708 80.1717 20.564C80.4957 20.204 80.7117 19.808 80.9277 19.484C81.5757 18.296 82.1157 17.18 82.7277 15.992C82.7637 15.92 82.9077 15.704 83.0517 15.452C83.0877 15.344 83.1597 15.236 83.1957 15.164C83.2317 15.128 83.2677 15.092 83.2677 15.056C83.2677 14.552 83.0157 13.616 82.7637 13.112C82.4757 12.644 82.0797 12.284 81.4677 12.284C80.2077 12.284 79.1997 14.048 78.8037 15.092C78.1917 16.532 77.8317 18.008 77.8317 19.52C77.8317 20.132 77.8677 20.924 78.2637 21.428ZM96.8228 25.928C96.6068 25.964 96.3548 26 96.1028 26C95.1668 26 93.6908 25.82 93.4028 24.884C93.3308 24.596 93.3308 24.272 93.2948 23.948C92.8268 21.248 92.7908 17.936 92.7908 15.236C92.7908 12.104 92.9708 8.972 93.3308 5.804C93.4388 5.012 93.5828 4.148 93.6908 3.284C93.7628 2.888 93.7988 2.42 93.9068 2.024C94.1588 1.016 95.7068 0.872 96.7148 0.872C97.1468 0.872 97.7948 0.943999 98.3348 1.088C98.8748 1.268 99.3788 1.556 99.3788 2.06C99.3788 2.348 99.2708 2.708 99.2348 2.96C99.0908 3.68 98.9828 4.4 98.9468 5.12C98.7308 6.812 98.5508 8.468 98.4428 10.16C99.3428 8.828 100.855 7.352 103.231 7.352C106.039 7.352 107.695 9.368 108.343 10.772C108.811 12.032 109.063 13.328 109.063 14.624V15.02C108.991 16.352 108.739 17.612 108.235 18.872C106.867 22.04 103.087 25.892 97.3628 25.892H97.1108C97.0388 25.892 96.9308 25.928 96.8228 25.928ZM98.6228 22.544C102.907 21.932 104.203 16.568 104.203 13.94C104.203 13.184 103.843 10.304 102.799 10.304C102.475 10.304 102.043 10.556 101.575 11.024C99.9548 12.644 98.8388 15.668 98.4068 17.828C98.3708 17.936 98.3348 18.08 98.3348 18.224C98.3348 19.664 98.4788 21.14 98.6228 22.544ZM115.744 19.772C116.032 20.852 116.717 21.896 118.265 21.896C119.561 21.896 121.253 21.104 122.368 20.42C122.549 20.348 122.692 20.276 122.837 20.204C122.909 20.204 122.981 20.168 123.017 20.132C123.809 20.132 124.349 20.24 124.745 21.032C125.032 21.464 125.141 22.004 125.141 22.256C125.141 24.884 121.073 25.856 119.057 25.856C113.188 25.856 111.28 20.96 111.28 18.008V17.576C111.532 13.616 114.592 9.656 118.805 9.656C119.165 9.656 119.561 9.656 119.956 9.764C123.448 10.376 125.429 13.508 125.429 15.668C125.429 16.46 125.213 17.252 124.709 17.936C124.276 18.548 123.665 18.728 122.944 18.908C121.685 19.232 120.389 19.376 119.129 19.484C118.013 19.592 116.86 19.664 115.744 19.772ZM115.817 16.532C117.544 16.316 119.309 16.1 121.036 15.812C120.893 14.66 120.497 13.616 119.129 13.616C117.292 13.616 116.105 15.236 115.817 16.532ZM135.64 22.112C135.676 22.22 135.748 22.328 135.82 22.4H135.856C135.892 22.4 135.964 22.328 136.108 22.148C136.504 21.5 136.504 20.42 136.504 19.7C136.504 19.484 136.576 18.98 137.008 18.764C137.188 18.656 137.44 18.584 137.692 18.584C138.916 18.584 139.852 19.52 140.14 20.06C140.32 20.348 140.392 20.708 140.392 20.996C140.392 22.904 138.592 26.072 134.848 26.072C134.128 26.072 133.552 25.892 132.976 25.604C129.736 24.02 129.736 18.656 129.736 16.352C129.736 15.272 129.772 14.228 129.844 13.184C129.736 13.184 129.628 13.148 129.556 13.148C129.304 13.112 129.052 13.04 128.836 12.968C127.828 12.572 127.468 11.276 127.468 10.7C127.468 9.908 127.936 9.512 128.656 9.368C128.872 9.332 129.124 9.296 129.376 9.26C129.664 9.224 129.988 9.188 130.276 9.152C130.564 6.812 130.888 4.4 131.392 2.06C131.608 1.052 132.94 0.872 133.984 0.872H134.776C135.064 0.907999 135.388 0.907999 135.712 0.979998C136.324 1.088 136.9 1.376 136.9 1.952V2.132C136.54 4.148 136.252 6.2 136 8.252C136.612 8.144 137.26 8.108 137.836 8.108H138.088C138.196 8.144 138.304 8.144 138.412 8.18C138.736 8.252 138.916 8.432 139.06 8.576C139.204 8.756 139.276 8.972 139.312 9.188C139.456 9.584 139.492 10.016 139.492 10.196C139.492 10.628 139.384 11.204 139.168 11.744C138.916 12.284 138.484 12.788 137.656 12.968C137.332 13.076 136.144 13.148 135.496 13.184C135.352 15.092 135.244 17.036 135.244 18.908C135.244 19.16 135.244 20.096 135.388 20.96C135.424 21.392 135.496 21.788 135.64 22.112Z" fill="white"/>
<path d="M0.576 24.92L-0.885286 24.5814L-0.924 24.7485V24.92H0.576ZM5.22 7.208L3.84411 6.61057L3.83954 6.6211L3.83513 6.63169L5.22 7.208ZM16.632 7.892L15.1565 8.16216L15.1576 8.16771L16.632 7.892ZM18.612 21.14L20.0886 20.8763L20.0863 20.8634L20.0838 20.8505L18.612 21.14ZM19.404 24.092H20.904V23.8231L20.8106 23.571L19.404 24.092ZM14.292 24.92L12.9011 25.4817L12.9182 25.5239L12.9377 25.5649L14.292 24.92ZM13.032 18.98L14.5258 18.8442L14.3915 17.3664L12.9124 17.4848L13.032 18.98ZM4.896 19.376L4.79753 17.8792L3.63813 17.9555L3.42214 19.0972L4.896 19.376ZM4.068 23.336L2.60372 23.0106L2.6019 23.0188L2.60018 23.027L4.068 23.336ZM3.636 25.316L2.21298 24.8417L2.20746 24.8582L2.20233 24.8749L3.636 25.316ZM5.76 15.452L4.29808 15.1162L3.84821 17.0744L5.85357 16.9491L5.76 15.452ZM12.78 15.164L12.8492 16.6624L14.3594 16.5927L14.2778 15.083L12.78 15.164ZM12.24 7.172L13.7313 7.01077L13.7301 7.00006L12.24 7.172ZM11.664 4.472L10.1791 4.68413L10.206 4.8729L10.2794 5.04892L11.664 4.472ZM11.088 3.536L10.0273 4.59665L10.2316 4.80092L10.4971 4.91472L11.088 3.536ZM10.548 3.644L11.3197 4.93024L11.4063 4.87833L11.485 4.81531L10.548 3.644ZM2.03729 25.2586C3.4426 19.1936 4.25705 13.4261 6.60487 7.78431L3.83513 6.63169C1.35895 12.5819 0.445403 18.8384 -0.885286 24.5814L2.03729 25.2586ZM6.59589 7.80543C7.17832 6.46409 7.8898 5.04265 8.80499 3.96914C9.70555 2.91279 10.6745 2.336 11.808 2.336V-0.664002C9.48547 -0.664002 7.75445 0.57721 6.52201 2.02286C5.3042 3.45135 4.44968 5.21591 3.84411 6.61057L6.59589 7.80543ZM11.808 2.336C12.6066 2.336 13.2996 2.83985 13.9372 4.08794C14.5682 5.32291 14.9254 6.8997 15.1565 8.16216L18.1075 7.62184C17.8706 6.3283 17.4538 4.37708 16.6088 2.72305C15.7704 1.08215 14.2854 -0.664002 11.808 -0.664002V2.336ZM15.1576 8.16771C15.5622 10.3315 15.8359 12.5007 16.1207 14.7204C16.4036 16.9251 16.6972 19.1775 17.1402 21.4295L20.0838 20.8505C19.6628 18.7105 19.3804 16.5529 19.0963 14.3386C18.8141 12.1393 18.5298 9.88051 18.1064 7.61629L15.1576 8.16771ZM17.1354 21.4037C17.3289 22.4878 17.6026 23.5471 17.9974 24.613L20.8106 23.571C20.4854 22.6929 20.2551 21.8082 20.0886 20.8763L17.1354 21.4037ZM17.904 24.092C17.904 24.2326 17.9214 24.3482 17.9353 24.4224C17.9483 24.4919 17.9642 24.5535 17.9668 24.5638C17.9732 24.5895 17.9663 24.5639 17.9601 24.5304C17.9529 24.4922 17.94 24.4126 17.94 24.308H20.94C20.94 24.1674 20.9226 24.0518 20.9087 23.9776C20.8957 23.9081 20.8798 23.8465 20.8772 23.8362C20.8708 23.8105 20.8777 23.8361 20.8839 23.8696C20.8911 23.9078 20.904 23.9874 20.904 24.092H17.904ZM17.94 24.308C17.94 24.0508 18.075 23.9033 18.0897 23.8894C18.0927 23.8865 18.0739 23.9046 18.0196 23.936C17.9664 23.9668 17.8929 24.0026 17.7973 24.0399C17.3814 24.202 16.8313 24.284 16.488 24.284V27.284C17.1527 27.284 18.0786 27.15 18.8867 26.8351C19.2909 26.6776 19.7603 26.4387 20.1513 26.0687C20.562 25.6802 20.94 25.0872 20.94 24.308H17.94ZM16.488 24.284C16.0908 24.284 15.8156 24.2551 15.641 24.2015C15.4927 24.156 15.5862 24.149 15.6463 24.2751L12.9377 25.5649C13.3578 26.447 14.1173 26.872 14.761 27.0695C15.3784 27.2589 16.0212 27.284 16.488 27.284V24.284ZM15.6829 24.3583C15.0093 22.6906 14.7014 20.7756 14.5258 18.8442L11.5382 19.1158C11.7226 21.1444 12.0627 23.4054 12.9011 25.4817L15.6829 24.3583ZM12.9124 17.4848C11.5983 17.5899 10.2776 17.643 8.92272 17.6925C7.57703 17.7417 6.19247 17.7875 4.79753 17.8792L4.99447 20.8728C6.33554 20.7845 7.66897 20.7403 9.03228 20.6905C10.3864 20.641 11.7657 20.5861 13.1516 20.4752L12.9124 17.4848ZM3.42214 19.0972C3.17466 20.4053 2.8908 21.7187 2.60372 23.0106L5.53228 23.6614C5.8212 22.3613 6.11334 21.0107 6.36986 19.6548L3.42214 19.0972ZM2.60018 23.027C2.4166 23.899 2.39461 24.2968 2.21298 24.8417L5.05902 25.7903C5.30939 25.0392 5.4314 24.141 5.53582 23.645L2.60018 23.027ZM2.20233 24.8749C2.20396 24.8696 2.20632 24.8637 2.21143 24.8558C2.21739 24.8466 2.22769 24.834 2.24261 24.8221C2.25887 24.8091 2.26878 24.8065 2.26191 24.8088C2.25393 24.8115 2.21255 24.824 2.124 24.824V27.824C2.89797 27.824 3.5778 27.5938 4.11139 27.1689C4.62841 26.7572 4.92409 26.2303 5.06967 25.7571L2.20233 24.8749ZM2.124 24.824C1.93217 24.824 1.87374 24.7684 1.89509 24.7852C1.9071 24.7946 2.04 24.9125 2.04 25.172H-0.96C-0.96 26.8915 0.678439 27.824 2.124 27.824V24.824ZM2.04 25.172C2.04 25.2237 2.03686 25.2647 2.03431 25.2906C2.0317 25.3171 2.0288 25.3367 2.02727 25.3463C2.02501 25.3606 2.02311 25.369 2.02887 25.3402C2.03211 25.324 2.04301 25.2706 2.05202 25.2136C2.05692 25.1825 2.06264 25.1422 2.06722 25.0957C2.07174 25.0499 2.076 24.9897 2.076 24.92H-0.924C-0.924 24.8683 -0.920862 24.8273 -0.918309 24.8014C-0.9157 24.7749 -0.912796 24.7553 -0.911269 24.7457C-0.909009 24.7314 -0.907108 24.723 -0.912871 24.7518C-0.916108 24.768 -0.927009 24.8214 -0.936019 24.8784C-0.940921 24.9095 -0.946638 24.9498 -0.951216 24.9963C-0.955737 25.0421 -0.96 25.1023 -0.96 25.172H2.04ZM5.85357 16.9491C8.15793 16.8051 10.4297 16.7741 12.8492 16.6624L12.7108 13.6656C10.4503 13.7699 7.97007 13.8109 5.66643 13.9549L5.85357 16.9491ZM14.2778 15.083C14.1353 12.4474 14.0249 9.72649 13.7313 7.01078L10.7487 7.33322C11.0311 9.94551 11.1367 12.5526 11.2822 15.245L14.2778 15.083ZM13.7301 7.00006C13.6253 6.0913 13.5022 4.98368 13.0486 3.89507L10.2794 5.04892C10.5458 5.68832 10.6387 6.3807 10.7499 7.34394L13.7301 7.00006ZM13.1489 4.25987C13.0926 3.86549 12.9095 3.46857 12.7594 3.20579C12.6725 3.05372 12.5582 2.87876 12.4157 2.71331C12.2942 2.57229 12.0501 2.31636 11.6789 2.15728L10.4971 4.91472C10.3607 4.85625 10.2705 4.78835 10.2263 4.75171C10.1793 4.7127 10.1521 4.68216 10.1428 4.67144C10.1263 4.65224 10.1335 4.65728 10.1546 4.69421C10.1738 4.72767 10.1899 4.76221 10.1992 4.78576C10.2035 4.79679 10.2033 4.79762 10.2004 4.78793C10.1986 4.78175 10.1877 4.74479 10.1791 4.68413L13.1489 4.25987ZM12.1487 2.47535C11.6448 1.97146 11.0606 1.964 10.908 1.964V4.964C10.9122 4.964 10.7576 4.9682 10.5724 4.91528C10.3704 4.85757 10.1799 4.74926 10.0273 4.59665L12.1487 2.47535ZM10.908 1.964C10.5898 1.964 10.3241 2.06428 10.1911 2.12128C10.0028 2.20199 9.80553 2.31704 9.61096 2.47269L11.485 4.81531C11.4705 4.82696 11.4352 4.85201 11.3729 4.87871C11.3426 4.89169 11.2997 4.90771 11.2436 4.92248C11.2157 4.92984 11.178 4.93858 11.1318 4.94614C11.0937 4.95238 11.0132 4.964 10.908 4.964V1.964ZM9.77626 2.35776C8.81821 2.93259 8.10551 3.99919 7.57309 5.00482C7.00932 6.06965 6.51162 7.33613 6.08535 8.5941C5.23108 11.1151 4.60501 13.7801 4.29808 15.1162L7.22192 15.7878C7.52699 14.4599 8.12492 11.9229 8.92665 9.5569C9.32838 8.37137 9.76668 7.2731 10.2244 6.40855C10.7135 5.4848 11.1078 5.05741 11.3197 4.93024L9.77626 2.35776ZM23.0228 24.92H21.5228V25.1818L21.6115 25.4281L23.0228 24.92ZM23.0228 24.884H24.5228V24.7961L24.5126 24.7087L23.0228 24.884ZM22.9508 24.272L24.4406 24.0967L24.4382 24.077L24.4354 24.0574L22.9508 24.272ZM22.9508 5.804L21.4646 5.60133L21.4623 5.61796L21.4604 5.63463L22.9508 5.804ZM23.3108 3.284L21.835 3.01567L21.8276 3.05663L21.8224 3.09795L23.3108 3.284ZM23.5268 2.024L24.974 2.41868L24.9782 2.40328L24.9821 2.3878L23.5268 2.024ZM27.9548 1.088L28.4292 -0.335026L28.3857 -0.349533L28.3413 -0.361353L27.9548 1.088ZM28.7828 3.212L27.3186 2.8866L27.3072 2.93771L27.2994 2.98949L28.7828 3.212ZM27.9188 14.12L26.4189 14.1051L26.4188 14.1126V14.12H27.9188ZM28.4228 23.948L29.9113 23.7619L29.9081 23.7364L29.904 23.711L28.4228 23.948ZM27.4148 25.784L27.051 24.3288L26.9952 24.3428L26.9405 24.361L27.4148 25.784ZM24.5228 24.92V24.884H21.5228V24.92H24.5228ZM24.5126 24.7087L24.4406 24.0967L21.4611 24.4473L21.5331 25.0593L24.5126 24.7087ZM24.4354 24.0574C24.0183 21.1721 23.9108 18.1935 23.9108 15.236H20.9108C20.9108 18.2545 21.0194 21.3959 21.4663 24.4866L24.4354 24.0574ZM23.9108 15.236C23.9108 12.1619 24.0875 9.08647 24.4413 5.97336L21.4604 5.63463C21.0942 8.85752 20.9108 12.0461 20.9108 15.236H23.9108ZM24.4371 6.00667C24.5332 5.3015 24.6932 4.31817 24.7993 3.47005L21.8224 3.09795C21.7124 3.97782 21.5844 4.7225 21.4646 5.60133L24.4371 6.00667ZM24.7866 3.55233C24.8289 3.32011 24.8645 3.04292 24.8896 2.87046C24.9197 2.66448 24.9453 2.52391 24.974 2.41868L22.0797 1.62932C22.0004 1.92009 21.954 2.21152 21.921 2.43754C21.8832 2.69707 21.8648 2.85188 21.835 3.01567L24.7866 3.55233ZM24.9821 2.3878C24.9118 2.66888 24.6974 2.62008 25.0751 2.50772C25.408 2.40868 25.8724 2.372 26.3348 2.372V-0.628C25.7892 -0.628 24.9757 -0.592681 24.2196 -0.367717C23.5082 -0.156076 22.3939 0.371123 22.0716 1.6602L24.9821 2.3878ZM26.3348 2.372C26.6445 2.372 27.1621 2.42902 27.5683 2.53735L28.3413 -0.361353C27.6676 -0.541019 26.8892 -0.628 26.3348 -0.628V2.372ZM27.4805 2.51102C27.5706 2.54105 27.6387 2.56894 27.6873 2.59267C27.7377 2.61729 27.7471 2.6278 27.7324 2.61584C27.7169 2.60323 27.6565 2.55071 27.599 2.44678C27.5362 2.33319 27.4988 2.19687 27.4988 2.06H30.4988C30.4988 1.22966 30.0575 0.64019 29.6263 0.289156C29.2265 -0.0362277 28.7664 -0.22262 28.4292 -0.335026L27.4805 2.51102ZM27.4988 2.06C27.4988 2.05489 27.499 2.07508 27.4911 2.12831C27.4836 2.17955 27.4714 2.24375 27.4536 2.3241C27.4356 2.40483 27.4151 2.48818 27.3912 2.58416C27.3693 2.67231 27.3415 2.78319 27.3186 2.8866L30.2471 3.5374C30.2601 3.47881 30.2773 3.40969 30.3027 3.30771C30.3261 3.21356 30.3551 3.09666 30.3821 2.97489C30.4323 2.74919 30.4988 2.41068 30.4988 2.06H27.4988ZM27.2994 2.98949C26.749 6.65932 26.4556 10.4007 26.4189 14.1051L29.4188 14.1348C29.4541 10.5673 29.7367 6.96468 30.2662 3.43451L27.2994 2.98949ZM26.4188 14.12V15.776H29.4188V14.12H26.4188ZM26.4188 15.776C26.4188 18.4927 26.4901 21.3625 26.9417 24.185L29.904 23.711C29.4916 21.1335 29.4188 18.4593 29.4188 15.776H26.4188ZM26.9344 24.1341C26.9465 24.2306 26.9608 24.3241 26.9733 24.403C26.9871 24.4908 26.9968 24.5494 27.0073 24.6182C27.0169 24.6819 27.0232 24.7292 27.0271 24.7664C27.031 24.8044 27.0308 24.8171 27.0308 24.812H30.0308C30.0308 24.5645 29.997 24.3246 29.9734 24.1688C29.9428 23.967 29.9264 23.8831 29.9113 23.7619L26.9344 24.1341ZM27.0308 24.812C27.0308 24.6571 27.0755 24.5156 27.1377 24.4075C27.1946 24.3088 27.2519 24.2615 27.2644 24.2517C27.2772 24.2417 27.2672 24.2519 27.223 24.2715C27.1806 24.2904 27.1223 24.311 27.051 24.3288L27.7786 27.2392C28.1926 27.1357 28.6873 26.9477 29.1133 26.6143C29.5537 26.2696 30.0308 25.6684 30.0308 24.812H27.0308ZM26.9405 24.361C26.5915 24.4773 26.1113 24.536 25.7588 24.536V27.536C26.3424 27.536 27.1582 27.4507 27.8892 27.207L26.9405 24.361ZM25.7588 24.536C25.3585 24.536 24.9244 24.4887 24.6037 24.3864C24.2315 24.2677 24.3568 24.197 24.4342 24.4119L21.6115 25.4281C22.0129 26.543 23.0202 27.0303 23.692 27.2446C24.4153 27.4753 25.1872 27.536 25.7588 27.536V24.536ZM37.6329 25.892L37.6714 24.3925L36.0482 24.3509L36.1351 25.9722L37.6329 25.892ZM38.2089 31.94L39.6939 31.7279L39.6933 31.7241L38.2089 31.94ZM37.2009 33.632L37.5647 35.0872L37.6206 35.0732L37.6753 35.055L37.2009 33.632ZM32.8089 32.696L31.3381 32.9902L31.3477 33.0384L31.3605 33.086L32.8089 32.696ZM32.6649 31.616L34.1558 31.4504L34.1544 31.4382L34.1529 31.4261L32.6649 31.616ZM32.6649 10.592L34.1543 10.7707L34.1568 10.7493L34.1588 10.7278L32.6649 10.592ZM32.8089 9.44L31.3447 9.1146L31.3383 9.14303L31.3331 9.17167L32.8089 9.44ZM37.2009 8.54L36.7266 9.96302L36.7701 9.97753L36.8144 9.98935L37.2009 8.54ZM38.1729 10.592L36.6791 10.4562L36.6729 10.524V10.592H38.1729ZM38.1369 10.952H36.6369V16.5744L39.4376 11.6992L38.1369 10.952ZM41.5569 25.172L42.0562 26.5865L42.068 26.5822L41.5569 25.172ZM38.3529 22.616L36.868 22.8281L37.0712 24.2506L38.5011 24.1087L38.3529 22.616ZM43.5729 10.7L42.3729 11.6L42.4004 11.6366L42.43 11.6715L43.5729 10.7ZM41.7729 11.024L42.8336 12.0847L41.7729 11.024ZM36.1351 25.9722C36.2448 28.021 36.4284 30.12 36.7246 32.1559L39.6933 31.7241C39.4135 29.8 39.237 27.795 39.1308 25.8118L36.1351 25.9722ZM36.724 32.1521C36.7377 32.248 36.7537 32.3364 36.7671 32.4073C36.7846 32.4996 36.7892 32.5204 36.8015 32.5866C36.8221 32.6976 36.8169 32.6992 36.8169 32.66H39.8169C39.8169 32.4048 39.7758 32.1724 39.7514 32.0404C39.7184 31.8624 39.7061 31.8138 39.6939 31.7279L36.724 32.1521ZM36.8169 32.66C36.8169 32.4827 36.8721 32.3242 36.9437 32.2087C36.9762 32.1563 37.0075 32.12 37.0287 32.098C37.0498 32.0763 37.0638 32.0657 37.0655 32.0644C37.0659 32.0641 37.0396 32.083 36.9727 32.114C36.9081 32.1439 36.8261 32.1758 36.7266 32.209L37.6753 35.055C37.9927 34.9492 38.4526 34.772 38.8573 34.4706C39.2737 34.1605 39.8169 33.5685 39.8169 32.66H36.8169ZM36.8371 32.1768C36.3764 32.292 35.8506 32.348 35.5449 32.348V35.348C36.1033 35.348 36.8734 35.26 37.5647 35.0872L36.8371 32.1768ZM35.5449 32.348C35.1844 32.348 34.7296 32.3016 34.3868 32.193C34.2178 32.1395 34.1434 32.0917 34.1291 32.0807C34.1268 32.0789 34.2153 32.1498 34.2574 32.306L31.3605 33.086C31.6971 34.336 32.8311 34.8472 33.4811 35.053C34.2182 35.2864 35.0054 35.348 35.5449 35.348V32.348ZM34.2798 32.4018C34.2243 32.1243 34.1969 31.8207 34.1558 31.4504L31.1741 31.7816C31.205 32.0593 31.2496 32.5477 31.3381 32.9902L34.2798 32.4018ZM34.1529 31.4261C33.7288 28.1045 33.5169 24.784 33.5169 21.464H30.5169C30.5169 24.912 30.737 28.3595 31.177 31.8059L34.1529 31.4261ZM33.5169 21.464C33.5169 17.8873 33.7294 14.311 34.1543 10.7707L31.1756 10.4133C30.7365 14.073 30.5169 17.7687 30.5169 21.464H33.5169ZM34.1588 10.7278C34.1944 10.3365 34.2256 10.0336 34.2847 9.70833L31.3331 9.17167C31.2483 9.63838 31.2075 10.0555 31.1711 10.4562L34.1588 10.7278ZM34.2732 9.7654C34.2364 9.93114 34.1408 10.0192 34.1252 10.0314C34.122 10.0339 34.1369 10.0219 34.1794 10.0016C34.2215 9.98143 34.2807 9.95791 34.3591 9.93394C34.7015 9.82922 35.1643 9.788 35.5449 9.788V6.788C35.0256 6.788 34.2283 6.83678 33.4818 7.06506C32.8236 7.26634 31.6391 7.78968 31.3447 9.1146L34.2732 9.7654ZM35.5449 9.788C35.8974 9.788 36.3776 9.84668 36.7266 9.96302L37.6753 7.11697C36.9443 6.87331 36.1285 6.788 35.5449 6.788V9.788ZM36.8144 9.98935C36.8957 10.011 36.9644 10.0345 37.0173 10.057C37.0726 10.0805 37.0902 10.0941 37.0823 10.0883C37.0756 10.0835 37.0116 10.0368 36.9457 9.93109C36.8718 9.81258 36.8169 9.65272 36.8169 9.476H39.8169C39.8169 8.56736 39.274 7.97118 38.8406 7.65766C38.419 7.35265 37.9422 7.18525 37.5874 7.09065L36.8144 9.98935ZM36.8169 9.476C36.8169 9.51817 36.8104 9.58918 36.7798 9.76805C36.7548 9.91443 36.7039 10.1829 36.6791 10.4562L39.6668 10.7278C39.6779 10.6051 39.699 10.4956 39.737 10.2729C39.7695 10.0828 39.8169 9.79383 39.8169 9.476H36.8169ZM36.6729 10.592C36.6729 10.5372 36.6775 10.4992 36.6784 10.4913C36.6786 10.4895 36.679 10.4872 36.6724 10.5304C36.6621 10.5972 36.6369 10.7571 36.6369 10.952H39.6369C39.6369 11.0029 39.6298 11.0368 39.6375 10.9866C39.6398 10.9713 39.6492 10.9127 39.6562 10.8559C39.6639 10.7928 39.6729 10.7008 39.6729 10.592H36.6729ZM39.4376 11.6992C40.3302 10.1455 41.6311 8.852 43.3929 8.852V5.852C39.9708 5.852 37.8877 8.37453 36.8363 10.2048L39.4376 11.6992ZM43.3929 8.852C44.9427 8.852 45.9597 9.52419 46.6486 10.5476C47.3806 11.6352 47.7609 13.1709 47.7609 14.768H50.7609C50.7609 12.765 50.2953 10.5928 49.1373 8.87243C47.9361 7.08781 46.0192 5.852 43.3929 5.852V8.852ZM47.7609 14.768C47.7609 18.0097 45.7643 22.0517 41.0458 23.7618L42.068 26.5822C48.0775 24.4043 50.7609 19.1583 50.7609 14.768H47.7609ZM41.0577 23.7575C39.9199 24.1591 38.8191 24.4219 37.6714 24.3925L37.5945 27.3915C39.2548 27.4341 40.746 27.0489 42.0562 26.5865L41.0577 23.7575ZM38.5011 24.1087C41.5157 23.8095 43.3925 21.892 44.4594 19.8318C45.5074 17.8082 45.8649 15.5077 45.8649 13.94H42.8649C42.8649 15.1443 42.5745 16.9478 41.7954 18.4522C41.0353 19.92 39.9062 20.9545 38.2048 21.1233L38.5011 24.1087ZM45.8649 13.94C45.8649 13.4073 45.8131 12.6772 45.6693 11.9583C45.5369 11.2963 45.2803 10.3926 44.7158 9.72853L42.43 11.6715C42.4297 11.6711 42.4446 11.6889 42.4696 11.7342C42.4943 11.7789 42.5237 11.8409 42.5552 11.9227C42.6193 12.0891 42.6784 12.3007 42.7276 12.5467C42.8268 13.0428 42.8649 13.5727 42.8649 13.94H45.8649ZM44.7729 9.8C44.4608 9.3838 43.8919 8.804 42.9969 8.804V11.804C42.7571 11.804 42.5616 11.7236 42.4394 11.6421C42.3416 11.5769 42.3224 11.5327 42.3729 11.6L44.7729 9.8ZM42.9969 8.804C42.4663 8.804 42.0096 9.00119 41.6796 9.19488C41.3329 9.39843 41.0081 9.66748 40.7123 9.96334L42.8336 12.0847C43.0057 11.9125 43.131 11.8216 43.1982 11.7821C43.23 11.7635 43.2325 11.766 43.2066 11.7746C43.1814 11.7829 43.1082 11.804 42.9969 11.804V8.804ZM40.7123 9.96334C39.3306 11.345 38.3527 13.2993 37.7195 15.2326C37.0809 17.1823 36.7449 19.2568 36.7449 20.996H39.7449C39.7449 19.6032 40.021 17.8437 40.5704 16.1664C41.1252 14.4727 41.9113 13.007 42.8336 12.0847L40.7123 9.96334ZM36.7449 20.996C36.7449 21.5956 36.7845 22.2434 36.868 22.8281L39.8379 22.4039C39.7774 21.9806 39.7449 21.4764 39.7449 20.996H36.7449ZM58.3059 25.064L59.7156 25.5766L59.7545 25.4697L59.7768 25.3582L58.3059 25.064ZM57.0459 25.82L56.7518 24.3491L56.6922 24.361L56.6339 24.3777L57.0459 25.82ZM52.8339 24.884L54.2925 24.5339L54.2871 24.5115L54.2811 24.4893L52.8339 24.884ZM52.5099 22.112L54.0043 21.9821L54.0034 21.972L52.5099 22.112ZM52.7259 6.236L51.2388 6.04032L51.2364 6.05823L51.2345 6.0762L52.7259 6.236ZM53.3379 2.024L54.7976 2.3697L54.8013 2.35403L54.8046 2.33829L53.3379 2.024ZM57.7659 1.088L58.2403 -0.335026L58.1968 -0.349533L58.1524 -0.361353L57.7659 1.088ZM58.5939 3.32L57.1181 3.05167L57.1127 3.08161L57.1085 3.11175L58.5939 3.32ZM57.7299 14.912H56.2299L59.0978 15.5275L57.7299 14.912ZM67.3419 9.152L66.5814 10.4449L66.5829 10.4458L67.3419 9.152ZM69.9339 23.156L68.4397 23.0242L68.4381 23.0433L68.4369 23.0624L69.9339 23.156ZM69.7899 24.92L71.2515 25.2573L71.2565 25.2358L71.2608 25.2142L69.7899 24.92ZM68.6019 25.82L68.2154 24.3706L68.1711 24.3825L68.1276 24.397L68.6019 25.82ZM65.7219 25.892L66.1963 24.469L66.1416 24.4508L66.0857 24.4368L65.7219 25.892ZM64.7859 16.424L63.2946 16.5852L63.2956 16.5943L64.7859 16.424ZM63.8499 13.724L64.6361 12.4465L64.5798 12.4119L64.5208 12.3824L63.8499 13.724ZM60.2859 15.92L61.5784 16.6813L61.5841 16.6716L60.2859 15.92ZM56.8962 24.5514C56.9533 24.3944 57.0352 24.3011 57.0746 24.2625C57.1127 24.2251 57.1297 24.2202 57.1026 24.2351C57.0778 24.2487 57.0331 24.2695 56.967 24.292C56.9021 24.3141 56.8285 24.3338 56.7518 24.3491L57.3401 27.2909C57.7139 27.2161 58.1474 27.0839 58.5463 26.8649C58.9133 26.6634 59.4632 26.2709 59.7156 25.5766L56.8962 24.5514ZM56.6339 24.3777C56.2764 24.4799 55.8042 24.536 55.4979 24.536V27.536C56.0557 27.536 56.8075 27.4482 57.458 27.2623L56.6339 24.3777ZM55.4979 24.536C55.1769 24.536 54.7324 24.4852 54.3937 24.3733C54.3156 24.3475 54.2547 24.3221 54.2097 24.2998C54.1876 24.2889 54.1712 24.2796 54.1597 24.2726C54.1541 24.2691 54.1499 24.2663 54.1471 24.2643C54.1457 24.2634 54.1446 24.2626 54.1439 24.2621C54.1432 24.2616 54.1429 24.2613 54.1429 24.2613C54.1429 24.2613 54.1432 24.2616 54.1439 24.2622C54.1446 24.2628 54.1456 24.2636 54.147 24.2648C54.1497 24.2672 54.1537 24.271 54.1588 24.2762C54.169 24.2866 54.1838 24.3032 54.2004 24.3268C54.2355 24.3766 54.2717 24.4472 54.2925 24.5339L51.3754 25.2341C51.679 26.4993 52.8365 27.0182 53.4522 27.2217C54.1755 27.4608 54.955 27.536 55.4979 27.536V24.536ZM54.2811 24.4893C54.1124 23.8707 54.0903 22.9707 54.0043 21.9821L51.0156 22.2419C51.0736 22.9093 51.1235 24.3133 51.3868 25.2787L54.2811 24.4893ZM54.0034 21.972C53.793 19.7284 53.7219 17.4736 53.7219 15.236H50.7219C50.7219 17.5344 50.7948 19.8876 51.0165 22.252L54.0034 21.972ZM53.7219 15.236C53.7219 12.3084 53.8983 9.37419 54.2174 6.3958L51.2345 6.0762C50.9056 9.14581 50.7219 12.1876 50.7219 15.236H53.7219ZM54.2131 6.43168C54.409 4.94277 54.4969 3.63909 54.7976 2.3697L51.8783 1.6783C51.531 3.14491 51.4028 4.79323 51.2388 6.04032L54.2131 6.43168ZM54.8046 2.33829C54.7726 2.48801 54.6844 2.57737 54.6583 2.59788C54.6533 2.60182 54.7102 2.55923 54.8798 2.50961C55.2262 2.4082 55.704 2.372 56.1459 2.372V-0.628C55.6159 -0.628 54.7976 -0.592205 54.0371 -0.369606C53.3473 -0.167716 52.1605 0.360008 51.8712 1.70971L54.8046 2.33829ZM56.1459 2.372C56.4556 2.372 56.9732 2.42902 57.3794 2.53735L58.1524 -0.361353C57.4787 -0.541019 56.7002 -0.628 56.1459 -0.628V2.372ZM57.2916 2.51102C57.3817 2.54105 57.4498 2.56894 57.4984 2.59267C57.5488 2.61729 57.5582 2.6278 57.5435 2.61584C57.528 2.60323 57.4676 2.55071 57.4101 2.44678C57.3473 2.33319 57.3099 2.19687 57.3099 2.06H60.3099C60.3099 1.22966 59.8686 0.64019 59.4373 0.289156C59.0376 -0.0362277 58.5775 -0.22262 58.2403 -0.335026L57.2916 2.51102ZM57.3099 2.06C57.3099 2.09716 57.3011 2.18884 57.2605 2.38407C57.2357 2.50278 57.1558 2.84452 57.1181 3.05167L60.0697 3.58833C60.1041 3.39948 60.1321 3.30921 60.1974 2.99593C60.2467 2.75916 60.3099 2.41883 60.3099 2.06H57.3099ZM57.1085 3.11175C56.5609 7.01786 56.2299 10.9408 56.2299 14.912H59.2299C59.2299 11.1072 59.547 7.32614 60.0794 3.52824L57.1085 3.11175ZM59.0978 15.5275C59.6817 14.2299 60.5939 12.8279 61.7116 11.7727C62.8338 10.7134 64.0407 10.112 65.2539 10.112V7.112C63.0112 7.112 61.1041 8.22061 59.6522 9.59127C58.196 10.9661 57.0741 12.7141 56.3621 14.2965L59.0978 15.5275ZM65.2539 10.112C65.7741 10.112 66.2257 10.2357 66.5814 10.4449L68.1025 7.8591C67.2341 7.34831 66.2457 7.112 65.2539 7.112V10.112ZM66.5829 10.4458C66.8766 10.6181 67.217 11.0024 67.5364 11.7256C67.849 12.4336 68.0802 13.3281 68.2425 14.3105C68.5669 16.274 68.5779 18.3332 68.5779 19.412H71.5779C71.5779 18.3308 71.5709 16.052 71.2024 13.8215C71.0182 12.7069 70.7341 11.5404 70.2806 10.5136C69.8339 9.50211 69.1572 8.47789 68.101 7.85821L66.5829 10.4458ZM68.5779 19.412C68.5779 20.6456 68.5426 21.8586 68.4397 23.0242L71.4281 23.2878C71.5413 22.0054 71.5779 20.6984 71.5779 19.412H68.5779ZM68.4369 23.0624C68.3917 23.7846 68.4006 24.2183 68.3191 24.6258L71.2608 25.2142C71.3953 24.5417 71.4042 23.6794 71.431 23.2496L68.4369 23.0624ZM68.3284 24.5827C68.3568 24.4594 68.4101 24.3689 68.4525 24.3145C68.4918 24.2643 68.5188 24.2481 68.5081 24.2554C68.4983 24.2622 68.4684 24.2806 68.413 24.3042C68.3587 24.3272 68.2919 24.3503 68.2154 24.3706L68.9884 27.2694C69.3618 27.1698 69.8059 27.0038 70.2077 26.7276C70.6075 26.4527 71.0843 25.9821 71.2515 25.2573L68.3284 24.5827ZM68.1276 24.397C67.771 24.5158 67.3243 24.572 66.9819 24.572V27.572C67.5755 27.572 68.3528 27.4842 69.0763 27.243L68.1276 24.397ZM66.9819 24.572C66.8716 24.572 66.7262 24.5657 66.5748 24.5471C66.4195 24.5281 66.2896 24.5001 66.1963 24.469L65.2476 27.315C65.8985 27.532 66.5853 27.572 66.9819 27.572V24.572ZM66.0857 24.4368C66.0274 24.4222 65.9857 24.4083 65.96 24.3979C65.9319 24.3865 65.9438 24.3879 65.9788 24.4127C66.0138 24.4376 66.1007 24.5067 66.1811 24.638C66.2691 24.7818 66.3219 24.9569 66.3219 25.136H63.3219C63.3219 25.99 63.8171 26.557 64.2411 26.8583C64.6341 27.1375 65.0678 27.2746 65.3581 27.3472L66.0857 24.4368ZM66.3219 25.136C66.3219 24.2352 66.3396 23.3319 66.3577 22.4114C66.3756 21.4959 66.3939 20.5632 66.3939 19.628H63.3939C63.3939 20.5288 63.3763 21.4321 63.3582 22.3526C63.3403 23.2681 63.3219 24.2008 63.3219 25.136H66.3219ZM66.3939 19.628C66.3939 19.1073 66.4327 17.6225 66.2762 16.2537L63.2956 16.5943C63.4272 17.7455 63.3939 18.9967 63.3939 19.628H66.3939ZM66.2773 16.2628C66.1983 15.5329 66.0651 14.8162 65.8625 14.2082C65.7611 13.904 65.6302 13.59 65.4565 13.3031C65.2896 13.0275 65.0307 12.6893 64.6361 12.4465L63.0638 15.0015C62.9032 14.9027 62.8603 14.8075 62.8903 14.857C62.9134 14.8953 62.9603 14.9885 63.0164 15.1568C63.1287 15.4938 63.2295 15.9831 63.2946 16.5852L66.2773 16.2628ZM64.5208 12.3824C64.2291 12.2365 63.7998 12.044 63.2019 12.044V15.044C63.1924 15.044 63.1757 15.0432 63.1544 15.04C63.1442 15.0385 63.1344 15.0366 63.1252 15.0345C63.116 15.0323 63.1084 15.0302 63.1027 15.0285C63.0914 15.0251 63.0898 15.0238 63.1021 15.029C63.1083 15.0317 63.1175 15.0358 63.1305 15.0419C63.1436 15.0481 63.1593 15.0558 63.1791 15.0656L64.5208 12.3824ZM63.2019 12.044C62.1702 12.044 61.3046 12.5124 60.6428 13.0831C59.9828 13.6523 59.4339 14.3978 58.9878 15.1684L61.5841 16.6716C61.9299 16.0742 62.2811 15.6317 62.6021 15.3549C62.9213 15.0796 63.1177 15.044 63.2019 15.044V12.044ZM58.9935 15.1587C57.253 18.1134 56.8779 21.0475 56.8779 24.164H59.8779C59.8779 21.3045 60.2228 18.9826 61.5784 16.6813L58.9935 15.1587ZM56.8779 24.164V24.56H59.8779V24.164H56.8779ZM56.8779 24.56C56.8779 24.5455 56.8799 24.541 56.8758 24.5654C56.8733 24.5805 56.8694 24.6012 56.8623 24.6366C56.8586 24.6545 56.8549 24.6724 56.8502 24.6956C56.8457 24.7175 56.8404 24.7429 56.8351 24.7698L59.7768 25.3582C59.7972 25.2561 59.8779 24.9274 59.8779 24.56H56.8779ZM83.8077 20.348L85.298 20.1777L84.7115 15.0457L82.458 19.6936L83.8077 20.348ZM81.9357 23.84L83.169 24.6938L83.1796 24.6785L83.1898 24.663L81.9357 23.84ZM74.6637 25.136L75.6352 23.9931L75.6315 23.99L74.6637 25.136ZM79.4157 8.792L78.8388 7.40738L78.8211 7.41475L78.8036 7.42257L79.4157 8.792ZM87.9117 13.076L89.3718 12.7324L89.364 12.6993L89.3547 12.6665L87.9117 13.076ZM89.9637 23.696L88.6515 24.4228L88.7538 24.6074L88.9031 24.7567L89.9637 23.696ZM85.2837 24.812L86.5318 23.9799L86.4903 23.9177L86.4428 23.8599L85.2837 24.812ZM78.2637 21.428L77.0842 22.3547L77.1396 22.4252L77.2031 22.4887L78.2637 21.428ZM79.4517 21.248L80.2235 22.5342L80.3385 22.4652L80.4395 22.3769L79.4517 21.248ZM80.1717 20.564L81.2324 21.6247L81.2603 21.5968L81.2867 21.5674L80.1717 20.564ZM80.9277 19.484L82.1758 20.3161L82.2127 20.2607L82.2446 20.2023L80.9277 19.484ZM82.7277 15.992L84.0612 16.6789L84.0653 16.6709L84.0694 16.6628L82.7277 15.992ZM83.0517 15.452L84.3541 16.1962L84.4278 16.0673L84.4747 15.9263L83.0517 15.452ZM83.1957 15.164L82.1351 14.1033L81.9629 14.2755L81.8541 14.4932L83.1957 15.164ZM82.7637 13.112L84.1054 12.4412L84.0758 12.3821L84.0412 12.3259L82.7637 13.112ZM78.8037 15.092L80.1842 15.6787L80.1957 15.6516L80.2062 15.624L78.8037 15.092ZM82.458 19.6936C81.8685 20.9094 81.3731 21.9634 80.6816 23.017L83.1898 24.663C84.0104 23.4126 84.5949 22.1626 85.1574 21.0024L82.458 19.6936ZM80.7024 22.9862C80.0612 23.9124 79.1978 24.896 77.8677 24.896V27.896C80.8576 27.896 82.5142 25.6396 83.169 24.6938L80.7024 22.9862ZM77.8677 24.896C77.0407 24.896 76.1847 24.4602 75.6352 23.9931L73.6922 26.2789C74.5827 27.0358 76.1028 27.896 77.8677 27.896V24.896ZM75.6315 23.99C74.5121 23.0447 74.1117 21.4373 74.1117 19.916H71.1117C71.1117 21.7787 71.5753 24.4913 73.6959 26.282L75.6315 23.99ZM74.1117 19.916C74.1117 18.4477 74.5576 16.438 75.5564 14.5583C76.5495 12.689 78.031 11.054 80.0278 10.1614L78.8036 7.42257C76.0485 8.65404 74.1279 10.8529 72.9071 13.1507C71.6918 15.438 71.1117 17.9283 71.1117 19.916H74.1117ZM79.9926 10.1766C80.8092 9.8364 81.8809 9.5 82.7277 9.5V6.5C81.2706 6.5 79.7503 7.0276 78.8388 7.40738L79.9926 10.1766ZM82.7277 9.5C83.7754 9.5 84.4826 9.89168 85.044 10.5298C85.6537 11.2228 86.1166 12.2448 86.4687 13.4855L89.3547 12.6665C88.9508 11.2432 88.3337 9.72722 87.2964 8.54818C86.2108 7.31432 84.7041 6.5 82.7277 6.5V9.5ZM86.4516 13.4196C86.6223 14.1451 86.7357 14.5238 86.7357 14.948H89.7357C89.7357 14.0762 89.4891 13.2309 89.3718 12.7324L86.4516 13.4196ZM86.7357 14.948C86.7357 15.2478 86.7274 15.5508 86.7183 15.8834C86.7093 16.2095 86.6997 16.5624 86.6997 16.928H89.6997C89.6997 16.6096 89.7081 16.2965 89.7172 15.9656C89.726 15.6412 89.7357 15.2962 89.7357 14.948H86.7357ZM86.6997 16.928C86.6997 19.8524 87.2353 21.8657 88.6515 24.4228L91.2759 22.9692C90.1001 20.8463 89.6997 19.3316 89.6997 16.928H86.6997ZM88.9031 24.7567C88.6301 24.4837 88.5717 24.1737 88.5717 23.984H91.5717C91.5717 23.5783 91.4413 23.0523 91.0244 22.6353L88.9031 24.7567ZM88.5717 23.984C88.5717 23.6154 88.7738 23.4752 88.675 23.5718C88.6052 23.6399 88.4492 23.7555 88.1967 23.8835C87.9547 24.0061 87.6797 24.1119 87.4189 24.185C87.1463 24.2615 86.9546 24.284 86.8677 24.284V27.284C87.7168 27.284 88.7538 26.9644 89.5528 26.5595C89.9662 26.35 90.4088 26.0718 90.771 25.7181C91.1041 25.3928 91.5717 24.8026 91.5717 23.984H88.5717ZM86.8677 24.284C86.844 24.284 86.8321 24.2806 86.8243 24.2778C86.8144 24.2744 86.7954 24.266 86.7665 24.2451C86.7004 24.1972 86.6184 24.1099 86.5318 23.9799L84.0356 25.6441C84.4106 26.2064 85.3069 27.284 86.8677 27.284V24.284ZM86.4428 23.8599C86.2255 23.5953 85.9606 23.0327 85.727 22.247C85.5058 21.503 85.3606 20.7254 85.298 20.1777L82.3174 20.5183C82.3988 21.2306 82.5776 22.181 82.8514 23.102C83.1128 23.9813 83.514 25.0207 84.1246 25.7641L86.4428 23.8599ZM77.2031 22.4887C77.5106 22.7962 77.9776 23.108 78.5877 23.108V20.108C79.0538 20.108 79.3049 20.3478 79.3244 20.3673L77.2031 22.4887ZM78.5877 23.108C78.9944 23.108 79.3532 22.9683 79.538 22.8899C79.77 22.7915 80.005 22.6653 80.2235 22.5342L78.68 19.9618C78.6116 20.0028 78.5493 20.0378 78.4945 20.0665C78.439 20.0955 78.3963 20.1155 78.3664 20.1281C78.3343 20.1417 78.3302 20.1413 78.35 20.1359C78.3609 20.1329 78.3852 20.1267 78.4208 20.1209C78.4554 20.1152 78.5128 20.108 78.5877 20.108V23.108ZM80.4395 22.3769C80.7701 22.0876 81.0911 21.766 81.2324 21.6247L79.1111 19.5033C78.9644 19.65 78.7093 19.9044 78.464 20.1191L80.4395 22.3769ZM81.2867 21.5674C81.7074 21.0999 82.053 20.5002 82.1758 20.3161L79.6796 18.6519C79.3704 19.1158 79.284 19.3081 79.0568 19.5606L81.2867 21.5674ZM82.2446 20.2023C82.9025 18.996 83.472 17.8227 84.0612 16.6789L81.3943 15.3051C80.7595 16.5373 80.2489 17.596 79.6109 18.7657L82.2446 20.2023ZM84.0694 16.6628C84.061 16.6796 84.0544 16.6918 84.0512 16.6976C84.0478 16.7038 84.0457 16.7075 84.0455 16.7078C84.0454 16.708 84.0482 16.7031 84.0558 16.6906C84.072 16.6639 84.0925 16.631 84.1246 16.579C84.1841 16.4829 84.268 16.3468 84.3541 16.1962L81.7494 14.7078C81.6914 14.8092 81.6313 14.9071 81.5738 15C81.5475 15.0425 81.5162 15.0929 81.4908 15.1348C81.4726 15.1647 81.4262 15.2409 81.3861 15.3212L84.0694 16.6628ZM84.4747 15.9263C84.4607 15.9685 84.4479 15.9967 84.4429 16.0075C84.4376 16.0187 84.4355 16.022 84.4406 16.0128C84.4429 16.0085 84.4461 16.0028 84.451 15.994C84.4534 15.9897 84.456 15.9851 84.4592 15.9795C84.4621 15.9743 84.4659 15.9677 84.4696 15.9612C84.4768 15.9484 84.4868 15.9304 84.4975 15.9109C84.5081 15.8915 84.5222 15.8651 84.5374 15.8348L81.8541 14.4932C81.8638 14.4738 81.8695 14.4643 81.8566 14.4872C81.8495 14.4999 81.8271 14.5391 81.8069 14.5762C81.7675 14.6484 81.6894 14.7954 81.6287 14.9776L84.4747 15.9263ZM84.2564 16.2247C84.2621 16.2189 84.2886 16.1926 84.3165 16.1629C84.3448 16.1326 84.3931 16.0795 84.4452 16.01C84.5234 15.9058 84.7677 15.5634 84.7677 15.056H81.7677C81.7677 14.5846 81.9941 14.2782 82.0452 14.21C82.1082 14.126 82.1727 14.0657 82.1351 14.1033L84.2564 16.2247ZM84.7677 15.056C84.7677 14.6134 84.6674 14.1082 84.5611 13.7032C84.451 13.284 84.2934 12.8173 84.1054 12.4412L81.4221 13.7828C81.486 13.9107 81.5804 14.164 81.6594 14.4648C81.742 14.7798 81.7677 14.9945 81.7677 15.056H84.7677ZM84.0412 12.3259C83.6145 11.6324 82.8137 10.784 81.4677 10.784V13.784C81.471 13.784 81.4551 13.784 81.4287 13.7755C81.4026 13.7672 81.3839 13.7562 81.3753 13.7501C81.3683 13.7452 81.3764 13.7495 81.3973 13.7734C81.4187 13.7978 81.4489 13.8375 81.4862 13.8981L84.0412 12.3259ZM81.4677 10.784C80.1314 10.784 79.1779 11.6902 78.6422 12.3572C78.0595 13.0827 77.6387 13.9338 77.4012 14.56L80.2062 15.624C80.3647 15.2062 80.6459 14.6533 80.9812 14.2358C81.3635 13.7598 81.5441 13.784 81.4677 13.784V10.784ZM77.4232 14.5053C76.75 16.0894 76.3317 17.7658 76.3317 19.52H79.3317C79.3317 18.2502 79.6335 16.9746 80.1842 15.6787L77.4232 14.5053ZM76.3317 19.52C76.3317 19.8438 76.3398 20.3009 76.4213 20.7707C76.5011 21.2314 76.6713 21.8291 77.0842 22.3547L79.4432 20.5013C79.4602 20.5229 79.4143 20.4726 79.3772 20.2583C79.3416 20.0531 79.3317 19.8082 79.3317 19.52H76.3317ZM96.8228 25.928V24.428H96.6987L96.5762 24.4484L96.8228 25.928ZM93.4028 24.884L91.9476 25.2478L91.9574 25.2868L91.9692 25.3251L93.4028 24.884ZM93.2948 23.948L94.7857 23.7824L94.7806 23.7369L94.7728 23.6918L93.2948 23.948ZM93.3308 5.804L91.8446 5.60133L91.8423 5.61796L91.8404 5.63463L93.3308 5.804ZM93.6908 3.284L92.215 3.01567L92.2076 3.05663L92.2024 3.09795L93.6908 3.284ZM93.9068 2.024L95.354 2.41868L95.3582 2.40328L95.3621 2.3878L93.9068 2.024ZM98.3348 1.088L98.8092 -0.335026L98.7657 -0.349533L98.7213 -0.361353L98.3348 1.088ZM99.2348 2.96L100.706 3.25417L100.714 3.21335L100.72 3.17213L99.2348 2.96ZM98.9468 5.12L100.435 5.30995L100.442 5.25262L100.445 5.19491L98.9468 5.12ZM98.4428 10.16L96.9459 10.0644L96.5941 15.5753L99.6857 10.9998L98.4428 10.16ZM108.343 10.772L109.749 10.2497L109.729 10.1957L109.705 10.1434L108.343 10.772ZM109.063 15.02L110.561 15.101L110.563 15.0605V15.02H109.063ZM108.235 18.872L109.612 19.4667L109.62 19.448L109.628 19.4291L108.235 18.872ZM98.6228 22.544L97.1307 22.697L97.2899 24.2496L98.835 24.0289L98.6228 22.544ZM101.575 11.024L102.636 12.0847L101.575 11.024ZM98.4068 17.828L99.8299 18.3023L99.8594 18.2137L99.8777 18.1222L98.4068 17.828ZM96.5762 24.4484C96.3767 24.4817 96.2254 24.5 96.1028 24.5V27.5C96.4843 27.5 96.837 27.4463 97.0694 27.4076L96.5762 24.4484ZM96.1028 24.5C95.7036 24.5 95.2709 24.4586 94.9544 24.3604C94.5857 24.246 94.7582 24.1884 94.8365 24.4429L91.9692 25.3251C92.3355 26.5156 93.39 27.016 94.0652 27.2256C94.7928 27.4514 95.5661 27.5 96.1028 27.5V24.5ZM94.8581 24.5202C94.8518 24.4952 94.8416 24.4383 94.8299 24.3014C94.822 24.2098 94.8058 23.9633 94.7857 23.7824L91.804 24.1136C91.8199 24.2567 91.8217 24.3342 91.8408 24.5576C91.8561 24.7357 91.8819 24.9848 91.9476 25.2478L94.8581 24.5202ZM94.7728 23.6918C94.3302 21.1381 94.2908 17.9518 94.2908 15.236H91.2908C91.2908 17.9202 91.3235 21.3579 91.8169 24.2042L94.7728 23.6918ZM94.2908 15.236C94.2908 12.1619 94.4675 9.08647 94.8213 5.97336L91.8404 5.63463C91.4742 8.85752 91.2908 12.0461 91.2908 15.236H94.2908ZM94.8171 6.00667C94.9132 5.3015 95.0732 4.31817 95.1793 3.47005L92.2024 3.09795C92.0924 3.97782 91.9644 4.7225 91.8446 5.60133L94.8171 6.00667ZM95.1666 3.55233C95.2089 3.32011 95.2445 3.04292 95.2696 2.87046C95.2997 2.66448 95.3253 2.52391 95.354 2.41868L92.4597 1.62932C92.3804 1.92009 92.334 2.21152 92.301 2.43754C92.2632 2.69707 92.2448 2.85188 92.215 3.01567L95.1666 3.55233ZM95.3621 2.3878C95.2918 2.66888 95.0774 2.62008 95.4551 2.50772C95.788 2.40868 96.2524 2.372 96.7148 2.372V-0.628C96.1693 -0.628 95.3557 -0.592681 94.5996 -0.367717C93.8882 -0.156076 92.7739 0.371123 92.4516 1.6602L95.3621 2.3878ZM96.7148 2.372C97.0245 2.372 97.5421 2.42902 97.9483 2.53735L98.7213 -0.361353C98.0476 -0.541019 97.2691 -0.628 96.7148 -0.628V2.372ZM97.8605 2.51102C97.9506 2.54105 98.0187 2.56894 98.0673 2.59267C98.1177 2.61729 98.1271 2.6278 98.1124 2.61584C98.0969 2.60323 98.0365 2.55071 97.979 2.44678C97.9162 2.33319 97.8788 2.19687 97.8788 2.06H100.879C100.879 1.22966 100.438 0.64019 100.006 0.289156C99.6065 -0.0362277 99.1464 -0.22262 98.8092 -0.335026L97.8605 2.51102ZM97.8788 2.06C97.8788 2.04458 97.879 2.08175 97.8495 2.22933C97.8338 2.30756 97.8241 2.35059 97.8034 2.45077C97.7871 2.52994 97.7658 2.63702 97.7499 2.74786L100.72 3.17213C100.73 3.09986 100.744 3.05383 100.791 2.81767C100.825 2.65024 100.879 2.36342 100.879 2.06H97.8788ZM97.764 2.66582C97.6111 3.43041 97.4896 4.22774 97.4487 5.04509L100.445 5.19491C100.476 4.57226 100.571 3.92959 100.706 3.25417L97.764 2.66582ZM97.4589 4.93005C97.2407 6.63933 97.0566 8.32935 96.9459 10.0644L99.9398 10.2555C100.045 8.60665 100.221 6.98467 100.435 5.30995L97.4589 4.93005ZM99.6857 10.9998C100.459 9.85578 101.574 8.852 103.231 8.852V5.852C100.136 5.852 98.227 7.80022 97.2 9.32021L99.6857 10.9998ZM103.231 8.852C105.22 8.852 106.462 10.2771 106.981 11.4006L109.705 10.1434C108.927 8.45891 106.857 5.852 103.231 5.852V8.852ZM106.937 11.2943C107.349 12.4043 107.563 13.5237 107.563 14.624H110.563C110.563 13.1323 110.273 11.6597 109.749 10.2497L106.937 11.2943ZM107.563 14.624V15.02H110.563V14.624H107.563ZM107.565 14.939C107.501 16.1265 107.279 17.2234 106.842 18.3149L109.628 19.4291C110.199 18.0006 110.481 16.5775 110.561 15.101L107.565 14.939ZM106.858 18.2773C105.671 21.0259 102.358 24.392 97.3628 24.392V27.392C103.815 27.392 108.063 23.0541 109.612 19.4667L106.858 18.2773ZM97.3628 24.392H97.1108V27.392H97.3628V24.392ZM97.1108 24.392C96.9798 24.392 96.872 24.4075 96.8226 24.4151C96.7741 24.4225 96.718 24.4331 96.712 24.4342C96.6924 24.4378 96.6986 24.4363 96.7133 24.4345C96.7292 24.4324 96.7684 24.428 96.8228 24.428V27.428C96.9313 27.428 97.0245 27.4191 97.0932 27.4103C97.1608 27.4017 97.2188 27.3912 97.2487 27.3858C97.2922 27.3779 97.2834 27.3795 97.2787 27.3802C97.2732 27.381 97.2059 27.392 97.1108 27.392V24.392ZM98.835 24.0289C101.649 23.6269 103.382 21.6567 104.365 19.6605C105.342 17.6761 105.703 15.4448 105.703 13.94H102.703C102.703 15.0632 102.416 16.8279 101.674 18.3355C100.937 19.8313 99.8809 20.849 98.4107 21.0591L98.835 24.0289ZM105.703 13.94C105.703 13.4295 105.595 12.3887 105.34 11.4465C105.214 10.9802 105.023 10.4267 104.722 9.95659C104.445 9.52444 103.833 8.804 102.799 8.804V11.804C102.287 11.804 102.111 11.4436 102.196 11.575C102.256 11.6686 102.35 11.8823 102.444 12.2305C102.63 12.9173 102.703 13.6945 102.703 13.94H105.703ZM102.799 8.804C102.268 8.804 101.812 9.00119 101.482 9.19488C101.135 9.39843 100.81 9.66748 100.514 9.96334L102.636 12.0847C102.808 11.9125 102.933 11.8216 103 11.7821C103.032 11.7635 103.034 11.766 103.008 11.7746C102.983 11.7829 102.91 11.804 102.799 11.804V8.804ZM100.514 9.96334C99.5182 10.9593 98.7433 12.3096 98.1703 13.6241C97.5901 14.9551 97.172 16.3538 96.936 17.5338L99.8777 18.1222C100.074 17.1422 100.43 15.9489 100.92 14.8229C101.418 13.6804 102.012 12.7087 102.636 12.0847L100.514 9.96334ZM96.9838 17.3537C96.9229 17.5365 96.8348 17.8531 96.8348 18.224H99.8348C99.8348 18.25 99.8332 18.2697 99.8319 18.2822C99.8305 18.2949 99.8289 18.3031 99.8282 18.3067C99.827 18.3126 99.8271 18.3107 99.8299 18.3023L96.9838 17.3537ZM96.8348 18.224C96.8348 19.7511 96.9873 21.2992 97.1307 22.697L100.115 22.391C99.9704 20.9808 99.8348 19.5769 99.8348 18.224H96.8348ZM115.744 19.772L115.6 18.279L113.839 18.4494L114.295 20.1585L115.744 19.772ZM122.368 20.42L121.811 19.0273L121.693 19.0746L121.585 19.1411L122.368 20.42ZM122.837 20.204V18.704H122.482L122.166 18.8624L122.837 20.204ZM123.017 20.132V18.632H122.395L121.956 19.0713L123.017 20.132ZM124.744 21.032L123.403 21.7028L123.445 21.7863L123.496 21.864L124.744 21.032ZM111.281 17.576L109.784 17.4807L109.781 17.5283V17.576H111.281ZM119.956 9.764L119.562 11.2111L119.629 11.2295L119.698 11.2415L119.956 9.764ZM124.709 17.936L123.501 17.0462L123.492 17.0585L123.483 17.071L124.709 17.936ZM122.945 18.908L122.581 17.4528L122.571 17.4553L122.945 18.908ZM119.129 19.484L119 17.9895L118.992 17.9902L118.984 17.991L119.129 19.484ZM115.816 16.532L114.352 16.2066L113.89 18.2844L116.003 18.0204L115.816 16.532ZM121.036 15.812L121.283 17.2916L122.704 17.0549L122.525 15.6259L121.036 15.812ZM114.295 20.1585C114.479 20.8478 114.821 21.6564 115.477 22.3056C116.172 22.9924 117.115 23.396 118.265 23.396V20.396C117.866 20.396 117.693 20.2776 117.587 20.1724C117.442 20.0296 117.298 19.7762 117.194 19.3855L114.295 20.1585ZM118.265 23.396C119.182 23.396 120.13 23.1245 120.931 22.8114C121.752 22.4899 122.534 22.0781 123.152 21.6989L121.585 19.1411C121.087 19.4459 120.465 19.7721 119.837 20.0176C119.189 20.2715 118.643 20.396 118.265 20.396V23.396ZM122.926 21.8127C123.17 21.7149 123.365 21.6169 123.507 21.5456L122.166 18.8624C122.02 18.9351 121.927 18.9811 121.811 19.0273L122.926 21.8127ZM122.837 21.704C123.332 21.704 123.779 21.491 124.077 21.1927L121.956 19.0713C122.096 18.9307 122.239 18.85 122.349 18.8028C122.466 18.7528 122.631 18.704 122.837 18.704V21.704ZM123.017 21.632C123.187 21.632 123.294 21.6383 123.366 21.648C123.434 21.6571 123.442 21.6655 123.42 21.6557C123.391 21.6427 123.362 21.6219 123.346 21.6054C123.335 21.5941 123.358 21.6138 123.403 21.7028L126.086 20.3612C125.767 19.7225 125.303 19.2099 124.638 18.9143C124.046 18.6512 123.439 18.632 123.017 18.632V21.632ZM123.496 21.864C123.534 21.9202 123.576 22.012 123.608 22.1236C123.623 22.1756 123.632 22.2206 123.637 22.2527C123.643 22.2896 123.641 22.2902 123.641 22.256H126.641C126.641 21.7415 126.463 20.9049 125.993 20.2L123.496 21.864ZM123.641 22.256C123.641 22.653 123.35 23.1732 122.239 23.6738C121.191 24.1457 119.885 24.356 119.057 24.356V27.356C120.244 27.356 121.98 27.0803 123.47 26.4092C124.897 25.7668 126.641 24.487 126.641 22.256H123.641ZM119.057 24.356C116.604 24.356 115.097 23.3612 114.162 22.1315C113.181 20.8395 112.781 19.2103 112.781 18.008H109.781C109.781 19.7577 110.334 22.0525 111.774 23.9465C113.26 25.9028 115.641 27.356 119.057 27.356V24.356ZM112.781 18.008V17.576H109.781V18.008H112.781ZM112.777 17.6713C112.995 14.2451 115.617 11.156 118.804 11.156V8.156C113.568 8.156 110.069 12.9869 109.784 17.4807L112.777 17.6713ZM118.804 11.156C119.19 11.156 119.389 11.1639 119.562 11.2111L120.351 8.31685C119.732 8.14808 119.139 8.156 118.804 8.156V11.156ZM119.698 11.2415C121.048 11.4782 122.111 12.2005 122.845 13.0899C123.6 14.0055 123.928 15.0013 123.928 15.668H126.928C126.928 14.1747 126.267 12.5245 125.159 11.1811C124.03 9.81148 122.357 8.66179 120.215 8.28652L119.698 11.2415ZM123.928 15.668C123.928 16.1847 123.79 16.6539 123.501 17.0462L125.916 18.8258C126.635 17.8501 126.928 16.7353 126.928 15.668H123.928ZM123.483 17.071C123.435 17.1396 123.385 17.1837 123.28 17.2343C123.14 17.3023 122.947 17.3612 122.581 17.4528L123.308 20.3632C124.008 20.1884 125.149 19.9135 125.934 18.801L123.483 17.071ZM122.571 17.4553C121.438 17.7467 120.245 17.8828 119 17.9895L119.257 20.9785C120.532 20.8692 121.931 20.7173 123.318 20.3607L122.571 17.4553ZM118.984 17.991C118.441 18.0435 117.887 18.0875 117.318 18.1327C116.753 18.1775 116.173 18.2235 115.6 18.279L115.889 21.265C116.432 21.2125 116.986 21.1685 117.555 21.1233C118.12 21.0785 118.7 21.0325 119.273 20.977L118.984 17.991ZM116.003 18.0204C117.721 17.8056 119.519 17.5857 121.283 17.2916L120.79 14.3324C119.098 14.6143 117.368 14.8264 115.63 15.0436L116.003 18.0204ZM122.525 15.6259C122.445 14.9852 122.274 14.1295 121.764 13.4127C121.178 12.5891 120.269 12.116 119.129 12.116V15.116C119.277 15.116 119.322 15.1432 119.313 15.1388C119.3 15.1327 119.301 15.1258 119.319 15.1513C119.344 15.186 119.388 15.2652 119.434 15.4179C119.48 15.5698 119.519 15.7614 119.548 15.9981L122.525 15.6259ZM119.129 12.116C116.32 12.116 114.725 14.5273 114.352 16.2066L117.281 16.8574C117.365 16.4765 117.601 16.0036 117.957 15.6444C118.296 15.3026 118.686 15.116 119.129 15.116V12.116ZM135.64 22.112L137.063 21.6377L137.04 21.569L137.01 21.5028L135.64 22.112ZM135.82 22.4L134.759 23.4607L135.198 23.9H135.82V22.4ZM136.108 22.148L137.279 23.085L137.338 23.011L137.387 22.9302L136.108 22.148ZM137.008 18.764L137.678 20.1056L137.73 20.0799L137.779 20.0502L137.008 18.764ZM140.14 20.06L138.816 20.7659L138.84 20.8113L138.868 20.855L140.14 20.06ZM132.976 25.604L133.646 24.2623L133.634 24.2564L132.976 25.604ZM129.844 13.184L131.34 13.2872L131.451 11.684H129.844V13.184ZM129.556 13.148L129.343 14.6329L129.449 14.648H129.556V13.148ZM128.836 12.968L128.287 14.3641L128.324 14.3785L128.361 14.391L128.836 12.968ZM128.656 9.368L128.409 7.88841L128.385 7.89239L128.361 7.89713L128.656 9.368ZM129.376 9.26L129.19 7.77158L129.176 7.77321L129.163 7.77507L129.376 9.26ZM130.276 9.152L130.462 10.6404L131.622 10.4954L131.764 9.33523L130.276 9.152ZM131.392 2.06L132.858 2.37583L132.858 2.37429L131.392 2.06ZM134.776 0.872L134.962 -0.616417L134.869 -0.628H134.776V0.872ZM135.712 0.979998L135.386 2.44428L135.418 2.45144L135.451 2.45717L135.712 0.979998ZM136.9 2.132L138.376 2.39569L138.4 2.26488V2.132H136.9ZM136 8.252L134.511 8.06916L134.264 10.0815L136.26 9.72917L136 8.252ZM138.088 8.108L138.562 6.68497L138.331 6.608H138.088V8.108ZM138.412 8.18L137.937 9.60303L138.011 9.62749L138.086 9.64428L138.412 8.18ZM139.06 8.576L140.231 7.63896L140.179 7.57409L140.12 7.51534L139.06 8.576ZM139.312 9.188L137.832 9.4346L137.855 9.57082L137.902 9.70061L139.312 9.188ZM139.168 11.744L140.527 12.3783L140.545 12.3402L140.56 12.3011L139.168 11.744ZM137.656 12.968L137.337 11.5022L137.258 11.5194L137.181 11.545L137.656 12.968ZM135.496 13.184L135.412 11.6863L134.099 11.7593L134 13.0711L135.496 13.184ZM135.388 20.96L136.882 20.8354L136.877 20.7741L136.867 20.7134L135.388 20.96ZM134.217 22.5863C134.334 22.9402 134.542 23.2436 134.759 23.4607L136.88 21.3393C136.928 21.3869 136.959 21.4291 136.982 21.4642C137.004 21.4989 137.035 21.5555 137.063 21.6377L134.217 22.5863ZM135.82 23.9H135.856V20.9H135.82V23.9ZM135.856 23.9C136.323 23.9 136.645 23.6864 136.733 23.6263C136.859 23.5406 136.952 23.4516 137.002 23.4022C137.105 23.2993 137.202 23.1813 137.279 23.085L134.936 21.211C134.869 21.2947 134.859 21.3027 134.88 21.2808C134.889 21.2719 134.949 21.2121 135.046 21.1455C135.098 21.1106 135.186 21.056 135.305 21.0074C135.423 20.9594 135.613 20.9 135.856 20.9V23.9ZM137.387 22.9302C137.758 22.3244 137.887 21.6303 137.945 21.1183C138.005 20.5812 138.004 20.0494 138.004 19.7H135.004C135.004 20.0706 135.002 20.4388 134.963 20.7837C134.922 21.1537 134.853 21.3236 134.828 21.3658L137.387 22.9302ZM138.004 19.7C138.004 19.7243 138.002 19.735 138.001 19.7396C138 19.7445 137.997 19.7615 137.986 19.7891C137.963 19.8464 137.879 20.0054 137.678 20.1056L136.337 17.4224C135.704 17.7386 135.368 18.2576 135.201 18.6749C135.04 19.0765 135.004 19.4556 135.004 19.7H138.004ZM137.779 20.0502C137.756 20.0643 137.739 20.072 137.73 20.0758C137.72 20.0797 137.715 20.0813 137.713 20.0819C137.71 20.0825 137.705 20.084 137.692 20.084V17.084C137.183 17.084 136.662 17.2223 136.236 17.4778L137.779 20.0502ZM137.692 20.084C137.914 20.084 138.156 20.1698 138.396 20.341C138.513 20.4245 138.614 20.5179 138.693 20.6052C138.732 20.6483 138.762 20.6865 138.784 20.7171C138.795 20.7321 138.803 20.7443 138.808 20.7532C138.814 20.7622 138.816 20.7665 138.816 20.7659L141.463 19.3541C141.198 18.8579 140.728 18.3191 140.137 17.898C139.531 17.4662 138.693 17.084 137.692 17.084V20.084ZM138.868 20.855C138.859 20.841 138.868 20.8511 138.878 20.8918C138.888 20.9316 138.892 20.9713 138.892 20.996H141.892C141.892 20.5025 141.776 19.8483 141.412 19.265L138.868 20.855ZM138.892 20.996C138.892 21.5437 138.604 22.4659 137.904 23.2517C137.244 23.9926 136.253 24.572 134.848 24.572V27.572C137.186 27.572 138.968 26.5674 140.144 25.2473C141.28 23.9721 141.892 22.3563 141.892 20.996H138.892ZM134.848 24.572C134.413 24.572 134.066 24.4724 133.646 24.2624L132.305 26.9456C133.037 27.3116 133.842 27.572 134.848 27.572V24.572ZM133.634 24.2564C132.645 23.7729 131.981 22.618 131.605 20.9234C131.24 19.2784 131.236 17.5175 131.236 16.352H128.236C128.236 17.4905 128.231 19.5636 128.676 21.5726C129.11 23.532 130.066 25.8511 132.317 26.9516L133.634 24.2564ZM131.236 16.352C131.236 15.3059 131.27 14.2963 131.34 13.2872L128.347 13.0808C128.273 14.1597 128.236 15.2381 128.236 16.352H131.236ZM129.844 11.684C129.898 11.684 129.937 11.6884 129.953 11.6905C129.968 11.6923 129.974 11.6938 129.954 11.6902C129.948 11.6891 129.892 11.6785 129.844 11.6711C129.794 11.6635 129.687 11.648 129.556 11.648V14.648C129.46 14.648 129.393 14.637 129.388 14.6362C129.383 14.6355 129.374 14.6339 129.418 14.6418C129.448 14.6472 129.506 14.6577 129.573 14.6663C129.642 14.6751 129.735 14.684 129.844 14.684V11.684ZM129.768 11.6631C129.643 11.6453 129.487 11.6041 129.31 11.545L128.361 14.391C128.616 14.4759 128.964 14.5787 129.343 14.6329L129.768 11.6631ZM129.384 11.5719C129.355 11.5604 129.244 11.4964 129.123 11.2471C129.068 11.1331 129.026 11.0095 128.999 10.8955C128.986 10.8397 128.977 10.7916 128.973 10.7542C128.968 10.7153 128.968 10.6971 128.968 10.7H125.968C125.968 11.2292 126.115 11.9199 126.424 12.5559C126.735 13.1976 127.308 13.9796 128.287 14.3641L129.384 11.5719ZM128.968 10.7C128.968 10.6497 128.975 10.6545 128.961 10.6931C128.954 10.7122 128.943 10.7356 128.927 10.761C128.911 10.7863 128.893 10.8093 128.875 10.8289C128.836 10.8689 128.809 10.881 128.816 10.8775C128.826 10.8727 128.866 10.8556 128.95 10.8389L128.361 7.89713C127.821 8.00524 127.2 8.24079 126.709 8.75314C126.189 9.29547 125.968 9.98775 125.968 10.7H128.968ZM128.902 10.8476C129.098 10.815 129.331 10.7816 129.588 10.7449L129.163 7.77507C128.916 7.81039 128.646 7.84897 128.409 7.88841L128.902 10.8476ZM129.562 10.7484C129.699 10.7312 129.847 10.7139 130.001 10.6957C130.153 10.6779 130.311 10.6592 130.462 10.6404L130.09 7.66358C129.952 7.68079 129.804 7.69814 129.65 7.71627C129.498 7.73414 129.34 7.75279 129.19 7.77158L129.562 10.7484ZM131.764 9.33523C132.052 6.99976 132.369 4.64511 132.858 2.37583L129.925 1.74417C129.406 4.15489 129.075 6.62424 128.787 8.96877L131.764 9.33523ZM132.858 2.37429C132.843 2.4451 132.799 2.51394 132.759 2.5505C132.736 2.57187 132.755 2.54462 132.871 2.50439C133.121 2.41703 133.514 2.372 133.984 2.372V-0.628C133.409 -0.628 132.614 -0.583026 131.883 -0.328395C131.137 -0.068325 130.187 0.523221 129.925 1.74571L132.858 2.37429ZM133.984 2.372H134.776V-0.628H133.984V2.372ZM134.59 2.36042C134.771 2.38312 135.001 2.39835 135.102 2.40702C135.239 2.41877 135.322 2.43012 135.386 2.44428L136.037 -0.484283C135.777 -0.542121 135.536 -0.566769 135.358 -0.582021C135.144 -0.600353 135.068 -0.603124 134.962 -0.616417L134.59 2.36042ZM135.451 2.45717C135.534 2.47181 135.597 2.48955 135.64 2.5053C135.686 2.52179 135.688 2.5285 135.663 2.5111C135.637 2.49245 135.566 2.43538 135.502 2.32439C135.433 2.20433 135.4 2.0707 135.4 1.952H138.4C138.4 1.07276 137.926 0.440554 137.407 0.0698986C136.934 -0.267897 136.394 -0.422812 135.972 -0.497177L135.451 2.45717ZM135.4 1.952V2.132H138.4V1.952H135.4ZM135.423 1.86831C135.057 3.92023 134.765 6.00116 134.511 8.06916L137.488 8.43484C137.738 6.39884 138.023 4.37576 138.376 2.39569L135.423 1.86831ZM136.26 9.72917C136.759 9.64115 137.314 9.608 137.836 9.608V6.608C137.205 6.608 136.464 6.64685 135.739 6.77482L136.26 9.72917ZM137.836 9.608H138.088V6.608H137.836V9.608ZM137.613 9.53103C137.711 9.56359 137.797 9.58423 137.863 9.59785C137.924 9.61064 137.981 9.61989 138.003 9.62359C138.035 9.62889 138.032 9.62864 138.025 9.6271C138.013 9.62473 137.981 9.61759 137.937 9.60303L138.886 6.75697C138.788 6.72441 138.702 6.70377 138.636 6.69015C138.575 6.67736 138.518 6.66811 138.496 6.66441C138.464 6.65911 138.467 6.65936 138.474 6.6609C138.486 6.66327 138.518 6.67041 138.562 6.68497L137.613 9.53103ZM138.086 9.64428C138.065 9.63963 138.039 9.63143 138.011 9.61877C137.984 9.60623 137.961 9.59278 137.946 9.58236C137.932 9.57255 137.928 9.56759 137.936 9.57475C137.94 9.57845 137.946 9.58456 137.957 9.59484C137.968 9.60587 137.98 9.61772 137.999 9.63666L140.12 7.51534C139.958 7.35339 139.515 6.88864 138.737 6.71572L138.086 9.64428ZM137.888 9.51304C137.853 9.46836 137.835 9.43104 137.829 9.4151C137.824 9.40098 137.827 9.40459 137.832 9.4346L140.791 8.9414C140.73 8.57702 140.59 8.08793 140.231 7.63896L137.888 9.51304ZM137.902 9.70061C137.93 9.77908 137.955 9.88335 137.972 9.99551C137.98 10.0487 137.985 10.0966 137.988 10.1351C137.991 10.1754 137.992 10.1966 137.992 10.196H140.992C140.992 9.89669 140.941 9.28082 140.721 8.67539L137.902 9.70061ZM137.992 10.196C137.992 10.4166 137.928 10.8039 137.775 11.1869L140.56 12.3011C140.839 11.6041 140.992 10.8394 140.992 10.196H137.992ZM137.808 11.1097C137.745 11.2457 137.684 11.3229 137.631 11.3699C137.587 11.4093 137.507 11.4652 137.337 11.5022L137.974 14.4338C139.368 14.1307 140.129 13.2309 140.527 12.3783L137.808 11.1097ZM137.181 11.545C137.248 11.5226 137.24 11.5331 137.072 11.5557C136.939 11.5736 136.766 11.5915 136.569 11.6085C136.174 11.6424 135.735 11.6684 135.412 11.6863L135.579 14.6817C135.904 14.6636 136.383 14.6356 136.826 14.5975C137.046 14.5785 137.272 14.5559 137.473 14.5288C137.639 14.5064 137.901 14.4674 138.13 14.391L137.181 11.545ZM134 13.0711C133.855 14.996 133.744 16.9821 133.744 18.908H136.744C136.744 17.0899 136.849 15.188 136.991 13.2969L134 13.0711ZM133.744 18.908C133.744 19.1592 133.741 20.2071 133.908 21.2066L136.867 20.7134C136.746 19.9849 136.744 19.1608 136.744 18.908H133.744ZM133.893 21.0846C133.934 21.5825 134.025 22.1723 134.269 22.7212L137.01 21.5028C136.966 21.4037 136.913 21.2015 136.882 20.8354L133.893 21.0846Z" fill="#083B60" mask="url(#path-1-outside-1_2914_105495)"/>
</svg>
