<svg width="92" height="70" viewBox="0 0 92 70" fill="none" xmlns="http://www.w3.org/2000/svg">
<path d="M5.50565 0.765452L63.7286 0.765457C66.7568 0.765457 69.2344 3.24307 69.2344 6.27126L69.2344 64.4942C69.2344 67.5224 66.7568 70 63.7286 70L5.50564 70C2.47745 70 -0.000160001 67.5224 -0.000159736 64.4942L-0.000154646 6.27125C-0.000154381 3.24307 2.47745 0.765451 5.50565 0.765452Z" fill="#FC9A99"/>
<path d="M28.2044 0.765452L86.4273 0.765457C89.4555 0.765457 91.9331 3.24307 91.9331 6.27126L91.9331 64.4942C91.9331 67.5224 89.4555 70 86.4273 70L28.2044 70C25.1762 70 22.6986 67.5224 22.6986 64.4942L22.6986 6.27125C22.6986 3.24307 25.1762 0.765451 28.2044 0.765452Z" fill="#E21A1C"/>
<path d="M10.1258 6.46119L12.6309 6.46119C15.6591 6.46119 18.1367 8.9388 18.1367 11.967L18.1367 58.7989C18.1367 61.8271 15.6591 64.3047 12.6309 64.3047L10.1258 64.3047C7.09759 64.3047 4.61998 61.8271 4.61998 58.7989L4.61998 11.967C4.61998 8.9388 7.0976 6.46119 10.1258 6.46119Z" fill="#E21A1C"/>
<path d="M33.6623 6.1565L80.4942 6.1565C83.5224 6.1565 86 8.63411 86 11.6623L86 58.4942C86 61.5224 83.5224 64 80.4942 64L33.6623 64C30.6341 64 28.1565 61.5224 28.1565 58.4942L28.1565 11.6623C28.1565 8.6341 30.6341 6.1565 33.6623 6.1565Z" fill="#FC9A99"/>
<path d="M52.9146 28.1903C51.8581 27.7235 51.6526 26.6148 52.2983 24.8059C52.9733 23.0261 53.6189 21.509 54.294 20.2544C54.9396 19.029 55.7907 18.708 56.7592 19.2624C63.2452 23.0553 67.1486 28.4237 68.5279 35.3677C69.2616 39.073 69.1443 42.3408 68.1464 45.1709C67.5595 46.8631 66.7964 47.9134 65.7986 48.3219C60.3398 50.5101 55.644 51.7063 51.6819 51.9689C45.959 52.3482 43.9047 49.2555 45.5482 42.6617C45.8416 41.4071 46.3406 40.7653 47.0449 40.7653C47.5438 40.7361 47.9841 41.057 48.3656 41.6989C48.7471 42.3408 51.1243 42.3992 55.4679 41.8156C59.8115 41.2613 63.2159 40.386 65.6518 39.2481C64.9181 35.3093 60.6626 31.6039 52.9146 28.1903Z" fill="#E21A1C"/>
</svg>
