<svg width="92" height="70" viewBox="0 0 92 70" fill="none" xmlns="http://www.w3.org/2000/svg">
<path d="M5.50565 -0.000173418L63.7286 -0.000168328C66.7568 -0.000168063 69.2344 2.47745 69.2344 5.50563L69.2344 63.7286C69.2344 66.7568 66.7568 69.2344 63.7286 69.2344L5.50564 69.2344C2.47745 69.2344 -0.000160001 66.7568 -0.000159736 63.7286L-0.000154646 5.50563C-0.000154381 2.47744 2.47745 -0.000173683 5.50565 -0.000173418Z" fill="#FEFF99"/>
<path d="M28.2044 -0.000173418L86.4273 -0.000168328C89.4555 -0.000168063 91.9331 2.47744 91.9331 5.50563L91.9331 63.7286C91.9331 66.7568 89.4555 69.2344 86.4273 69.2344L28.2044 69.2344C25.1762 69.2344 22.6986 66.7568 22.6986 63.7286L22.6986 5.50563C22.6986 2.47743 25.1762 -0.000173683 28.2044 -0.000173418Z" fill="#CCAE2E"/>
<path d="M10.1258 5.69556L12.6309 5.69556C15.6591 5.69556 18.1367 8.17318 18.1367 11.2014L18.1367 58.0333C18.1367 61.0615 15.6591 63.5391 12.6309 63.5391L10.1258 63.5391C7.09759 63.5391 4.61998 61.0615 4.61998 58.0333L4.61998 11.2014C4.61998 8.17317 7.0976 5.69556 10.1258 5.69556Z" fill="#CCAE2E"/>
<path d="M33.905 5.70044L80.7369 5.70045C83.7651 5.70045 86.2427 8.17805 86.2427 11.2062L86.2427 58.0381C86.2427 61.0663 83.7651 63.5439 80.7369 63.5439L33.905 63.5439C30.8768 63.5439 28.3992 61.0663 28.3992 58.0381L28.3992 11.2062C28.3992 8.17805 30.8768 5.70044 33.905 5.70044Z" fill="#FEFF99"/>
<path d="M51.8099 25.5598C51.8759 23.6237 52.2945 21.9269 52.9994 20.4694C55.5107 15.4007 59.0353 15.8793 63.5732 21.9486C63.9037 22.4925 64.0358 22.9276 63.9918 23.2321C63.5953 25.538 63.3309 26.865 63.1988 27.1913C62.9564 27.8439 62.4938 28.105 61.833 27.9962C57.7136 27.039 54.4974 27.8439 52.2064 30.3891C53.1316 33.935 53.9246 37.2633 54.5635 40.3524C55.753 46.0736 56.1495 49.5978 55.775 50.9247C55.5768 51.5774 55.2904 51.9254 54.8719 51.9907C54.255 52.0777 53.9026 51.5556 53.7924 50.4244C53.5722 48.0097 53.0214 45.1165 52.1183 41.7229C50.4881 35.61 49.8052 31.6073 50.0475 29.7148C50.3119 27.8657 50.8846 26.4734 51.8099 25.5598ZM54.1008 24.3415C55.0921 23.9282 56.2817 23.6237 57.6475 23.4714C56.6782 22.6665 55.9292 22.3184 55.3785 22.4707C54.6516 22.6665 54.211 23.2974 54.1008 24.3415Z" fill="#CCAE2E"/>
</svg>
