<svg width="37" height="37" viewBox="0 0 37 37" fill="none" xmlns="http://www.w3.org/2000/svg">
<circle cx="18.5" cy="18.5" r="18.5" fill="#B3D2FE"/>
<path d="M14.4232 11.5959C14.4232 11.0527 14.4232 10.5467 14.4232 10.0402C14.4232 9.03442 14.9759 8.30437 15.9368 8.06054C16.115 8.01515 16.3064 8.00308 16.4915 8.0026C17.8338 7.99825 19.1765 8.00067 20.5188 8.00067C20.9768 8.00067 21.405 8.10013 21.777 8.37776C22.3381 8.79687 22.5837 9.36372 22.5778 10.0508C22.5734 10.5563 22.5768 11.0619 22.5768 11.5964C22.6886 11.5964 22.776 11.5964 22.863 11.5964C25.149 11.5964 27.4356 11.5964 29.7217 11.5964C30.4907 11.5964 30.9995 12.0888 30.9995 12.8397C31 17.8037 31 22.7682 30.9995 27.7323C30.9995 28.3503 30.6797 28.8017 30.1314 28.9505C30.0078 28.9838 29.875 28.9987 29.7466 28.9987C27.1348 29.0012 24.5236 28.9997 21.9118 28.9997C18.991 28.9997 16.0701 28.9992 13.1493 28.9992C11.1884 28.9992 9.22796 29.0026 7.26707 28.9983C6.48437 28.9958 6.00049 28.5029 6 27.7221C6 22.7576 6 17.7936 6.00049 12.8295C6.00049 12.0922 6.50976 11.5964 7.26316 11.5964C9.54925 11.5964 11.8358 11.5964 14.1219 11.5964C14.2103 11.5964 14.2982 11.5964 14.4227 11.5964L14.4232 11.5959ZM18.489 27.4034C22.4216 27.43 25.65 24.2611 25.6803 20.3453C25.7106 16.4184 22.5114 13.2143 18.5349 13.1892C14.5809 13.1641 11.349 16.3272 11.3197 20.2517C11.2899 24.1916 14.4827 27.3764 18.489 27.4034ZM20.5559 10.0122H16.4485V11.5795H20.5559V10.0122Z" fill="#153F8A"/>
<path d="M18.4888 27.4036C14.4826 27.3765 11.2898 24.1917 11.3195 20.2518C11.3488 16.3273 14.5807 13.1642 18.5347 13.1894C22.5117 13.2145 25.7104 16.4186 25.6801 20.3455C25.6498 24.2613 22.4214 27.4301 18.4888 27.4036ZM16.775 21.976C16.7862 22.0267 16.7931 22.0417 16.7931 22.0571C16.7945 22.6365 16.7916 23.2159 16.797 23.7949C16.8028 24.4308 17.1949 24.8185 17.8326 24.8228C18.2803 24.8257 18.7276 24.8257 19.1753 24.8228C19.7984 24.8185 20.1934 24.4308 20.2027 23.8108C20.209 23.3844 20.2041 22.9581 20.2041 22.5313C20.2041 22.3502 20.2041 22.1687 20.2041 21.9755C20.8418 21.9755 21.4434 21.9775 22.0444 21.975C22.6562 21.9726 23.0478 21.6231 23.0747 21.0214C23.0962 20.5396 23.0962 20.0553 23.0747 19.5734C23.0493 18.9955 22.7031 18.6565 22.1162 18.6251C21.7188 18.6039 21.3193 18.6179 20.9204 18.6169C20.688 18.6164 20.4556 18.6169 20.2041 18.6169C20.2041 18.4952 20.2041 18.4083 20.2041 18.3209C20.2041 17.8058 20.2124 17.2911 20.2027 16.7759C20.1914 16.1685 19.8218 15.7952 19.2144 15.7832C18.6939 15.773 18.1729 15.7793 17.6529 15.7928C17.3248 15.801 17.0714 15.9695 16.9381 16.2578C16.8531 16.4408 16.8072 16.6556 16.8014 16.8579C16.7838 17.4349 16.795 18.0124 16.795 18.6164C16.693 18.6164 16.6139 18.6164 16.5348 18.6164C16.0143 18.6164 15.4933 18.6092 14.9728 18.6193C14.2877 18.6329 13.9298 18.9959 13.9196 19.6772C13.9132 20.0954 13.9152 20.514 13.9206 20.9326C13.9284 21.5984 14.3131 21.9726 14.9884 21.9746C15.5807 21.9765 16.1735 21.9746 16.7755 21.9746L16.775 21.976Z" fill="white"/>
<path d="M20.5556 10.0122V11.5795H16.4482V10.0122H20.5556Z" fill="white"/>
<path d="M16.7755 21.9759C16.173 21.9759 15.5807 21.9773 14.9885 21.9759C14.3132 21.9739 13.9284 21.5998 13.9206 20.9339C13.9157 20.5158 13.9138 20.0972 13.9196 19.6785C13.9299 18.9968 14.2878 18.6342 14.9728 18.6207C15.4933 18.6105 16.0143 18.6182 16.5348 18.6178C16.6139 18.6178 16.6925 18.6178 16.7951 18.6178C16.7951 18.0137 16.7833 17.4358 16.8014 16.8593C16.8078 16.657 16.8537 16.4421 16.9381 16.2591C17.0714 15.9708 17.3253 15.8023 17.653 15.7941C18.1735 15.7811 18.6944 15.7748 19.2144 15.7845C19.8219 15.7961 20.191 16.1698 20.2027 16.7772C20.2125 17.2919 20.2042 17.8071 20.2042 18.3223C20.2042 18.4097 20.2042 18.4966 20.2042 18.6182C20.4556 18.6182 20.6881 18.6178 20.9205 18.6182C21.3189 18.6192 21.7188 18.6052 22.1162 18.6264C22.7031 18.6578 23.0493 18.9968 23.0747 19.5747C23.0962 20.0566 23.0962 20.5409 23.0747 21.0228C23.0484 21.6244 22.6563 21.9739 22.0445 21.9764C21.4434 21.9788 20.8419 21.9768 20.2042 21.9768C20.2042 22.1705 20.2042 22.3515 20.2042 22.5326C20.2042 22.9589 20.2091 23.3858 20.2027 23.8121C20.1934 24.4321 19.7984 24.8198 19.1754 24.8241C18.7276 24.827 18.2804 24.827 17.8326 24.8241C17.195 24.8198 16.8029 24.4321 16.797 23.7962C16.7916 23.2168 16.7946 22.6374 16.7931 22.0584C16.7931 22.043 16.7868 22.0275 16.775 21.9773L16.7755 21.9759Z" fill="#FA483C"/>
</svg>
