<svg width="310" height="367" viewBox="0 0 310 367" fill="none" xmlns="http://www.w3.org/2000/svg">
<g filter="url(#filter0_d_2953_12938)">
<path d="M2.00024 76C2.00024 64.9543 10.9546 56 22.0002 56H288C299.046 56 308 64.9543 308 76V363H2.00024V76Z" fill="#FFF5CF"/>
<path d="M110.219 261.031L113.219 260.375C113.656 263.438 115.438 264.969 118.563 264.969C121.313 264.906 122.75 263.812 122.875 261.688C123.063 260.25 121.781 259.156 119.031 258.406C118.781 258.281 118.25 258.125 117.438 257.938C117.188 257.875 117 257.844 116.875 257.844C112.688 256.969 110.719 255.188 110.969 252.5C111.219 249.25 113.5 247.531 117.813 247.344C122.188 247.281 124.75 249.031 125.5 252.594L122.594 253.25C122.156 250.938 120.625 249.781 118 249.781C115.563 249.844 114.25 250.75 114.063 252.5C113.875 253.938 115.375 254.969 118.563 255.594C119.813 255.906 120.75 256.156 121.375 256.344C124.563 257.344 126.125 259.094 126.063 261.594C125.938 265.156 123.469 267 118.656 267.125C113.844 267.25 111.031 265.219 110.219 261.031ZM138.531 247.625L146.219 266.844H143.031L141.063 261.688H132.531L130.563 266.844H127.375L135.063 247.625H138.531ZM136.844 250.156H136.75C136.563 250.719 136.375 251.281 136.188 251.844C136.125 251.969 135.156 254.469 133.281 259.344H140.313C138.438 254.469 137.469 251.969 137.406 251.844C137.406 251.781 137.375 251.656 137.313 251.469C137 250.719 136.844 250.281 136.844 250.156ZM161.688 250.062H151.281V256.062H160.375V258.406H151.281V266.844H148.281V247.625H161.688V250.062ZM174.156 247.625L181.844 266.844H178.656L176.688 261.688H168.156L166.188 266.844H163L170.688 247.625H174.156ZM172.469 250.156H172.375C172.188 250.719 172 251.281 171.813 251.844C171.75 251.969 170.781 254.469 168.906 259.344H175.938C174.063 254.469 173.094 251.969 173.031 251.844C173.031 251.781 173 251.656 172.938 251.469C172.625 250.719 172.469 250.281 172.469 250.156ZM200.969 266.844H197.219L191.313 258.875H186.906V266.844H184V247.625H192.906C197.219 247.75 199.5 249.594 199.75 253.156C199.75 256.406 197.969 258.25 194.406 258.688L200.969 266.844ZM186.906 249.969V256.531H192.25C195.25 256.531 196.719 255.438 196.656 253.25C196.656 251.062 195.188 249.969 192.25 249.969H186.906Z" fill="#242424"/>
<path d="M211.698 162.094C202.441 163.782 196.528 167.743 196.601 172.76C201.707 169.151 209.087 169.958 211.698 162.094ZM135.906 156.402C145.032 155.184 150.915 151.311 151.223 146C146.015 149.418 138.973 149.037 135.906 156.402ZM143.785 159.63C142.083 162.021 139.765 163.87 139.97 165.381C140.205 167.068 142.729 168.432 144.254 169.929C145.678 168.418 148.348 166.789 148.23 165.41C148.069 163.605 145.722 161.977 143.785 159.63Z" fill="white"/>
<path d="M134.97 198.977C130.759 192.038 132.168 185.803 136.54 179.978C138.887 176.853 142.115 175.181 146.135 175.812C150.169 176.442 152.047 179.479 153.28 182.942C155.158 188.238 154.967 193.476 151.064 199.153C156.61 199.153 161.143 199.74 165.398 198.875C167.173 198.523 168.332 195.104 169.785 193.094C170.518 192.082 171.311 191.128 172.073 190.145C172.792 191.158 173.438 192.229 174.245 193.182C175.536 194.693 176.768 196.351 178.397 197.393C178.793 197.642 180.656 195.75 181.742 194.723C186.657 190.013 191.102 184.658 196.545 180.682C203.279 175.768 210.85 177.572 215.984 184.115C221.472 191.114 219.256 201.237 211.084 204.758C200.785 209.203 190.016 210.054 179.145 207.179C176.416 206.46 173.995 204.597 171.164 203.1C165.237 211.301 156.947 209.174 148.878 206.739C145.313 205.668 142.306 205.447 138.726 206.739C132.344 209.071 125.698 209.922 118.846 206.973C118.142 209.673 117.79 212.123 116.866 214.324C115.751 217.008 114.445 219.693 112.743 222.041C109.589 226.398 105.569 227.63 100.463 226.075C98.0278 225.327 95.5923 224.373 93.377 223.126C92.3207 222.539 91.7778 221.072 91.0002 220.001C92.1886 219.473 93.3476 218.622 94.58 218.49C96.8687 218.255 99.2455 218.71 101.52 218.387C107.329 217.581 111.247 214.118 113.638 208.881C115.046 205.77 113.447 203.217 111.98 200.635C109.266 195.838 109.237 193.065 112.127 190.439C112.655 189.969 114.753 190.175 115.09 190.718C120.768 199.902 123.497 201.134 134.97 198.977ZM184.515 198.376C184.588 198.787 184.661 199.197 184.72 199.608C187.962 199.608 191.249 199.946 194.432 199.535C200.066 198.816 205.729 197.95 211.216 196.527C214.547 195.662 214.679 194.077 212.361 191.495C209.104 187.871 205.054 186.272 200.213 187.226C193.288 188.576 188.989 193.622 184.5 198.361L184.515 198.376ZM143.083 184.027C140.149 184.027 136.892 186.712 136.848 189.162C136.804 191.73 141.924 196.601 144.741 196.293C147.308 196.014 149.377 194.723 149.421 191.656C149.465 187.739 146.369 184.027 143.083 184.027Z" fill="#F8C600"/>
<path d="M211.703 162.094C209.092 169.958 201.712 169.151 196.606 172.76C196.533 167.742 202.431 163.766 211.703 162.094Z" fill="#F8C600"/>
<path d="M135.906 156.402C138.958 149.037 146.015 149.418 151.223 146C150.93 151.311 145.032 155.199 135.906 156.402Z" fill="#F8C600"/>
<path d="M143.788 159.629C145.725 161.976 148.087 163.605 148.234 165.409C148.351 166.788 145.681 168.417 144.258 169.928C142.732 168.417 140.209 167.053 139.974 165.38C139.769 163.884 142.087 162.02 143.788 159.629Z" fill="#F8C600"/>
<g filter="url(#filter1_d_2953_12938)">
<circle cx="155" cy="64" r="64" fill="url(#paint0_radial_2953_12938)"/>
<g filter="url(#filter2_d_2953_12938)">
<path d="M192.922 44.7021V97.1516C192.922 100.714 190.031 103.602 186.465 103.602H122.762C119.196 103.602 116.305 100.714 116.305 97.1516V44.7021L118.363 42.6056H190.582L192.922 44.7021Z" fill="white"/>
<path d="M192.922 33.4646V44.8409H116.305V33.4646C116.305 29.8879 119.173 26.9883 122.71 26.9883H186.517C190.054 26.9883 192.922 29.8879 192.922 33.4641L192.922 33.4646Z" fill="url(#paint1_linear_2953_12938)"/>
<path d="M129.127 36.3625C130.431 36.3625 131.488 35.3055 131.488 34.0016C131.488 32.6977 130.431 31.6406 129.127 31.6406C127.823 31.6406 126.766 32.6977 126.766 34.0016C126.766 35.3055 127.823 36.3625 129.127 36.3625Z" fill="url(#paint2_radial_2953_12938)"/>
<path d="M129.13 23.8164H129.129C128.342 23.8164 127.703 24.4548 127.703 25.2422V33.1849C127.703 33.9723 128.342 34.6107 129.129 34.6107H129.13C129.917 34.6107 130.556 33.9723 130.556 33.1849V25.2422C130.556 24.4548 129.917 23.8164 129.13 23.8164Z" fill="url(#paint3_linear_2953_12938)"/>
<path d="M146.096 36.3625C147.399 36.3625 148.457 35.3055 148.457 34.0016C148.457 32.6977 147.399 31.6406 146.096 31.6406C144.792 31.6406 143.735 32.6977 143.735 34.0016C143.735 35.3055 144.792 36.3625 146.096 36.3625Z" fill="url(#paint4_radial_2953_12938)"/>
<path d="M146.098 23.8164H146.098C145.31 23.8164 144.672 24.4548 144.672 25.2422V33.1849C144.672 33.9723 145.31 34.6107 146.098 34.6107H146.098C146.886 34.6107 147.524 33.9723 147.524 33.1849V25.2422C147.524 24.4548 146.886 23.8164 146.098 23.8164Z" fill="url(#paint5_linear_2953_12938)"/>
<path d="M163.06 36.3625C164.364 36.3625 165.421 35.3055 165.421 34.0016C165.421 32.6977 164.364 31.6406 163.06 31.6406C161.756 31.6406 160.699 32.6977 160.699 34.0016C160.699 35.3055 161.756 36.3625 163.06 36.3625Z" fill="url(#paint6_radial_2953_12938)"/>
<path d="M163.063 23.8164H163.063C162.275 23.8164 161.637 24.4548 161.637 25.2422V33.1849C161.637 33.9723 162.275 34.6107 163.063 34.6107H163.063C163.851 34.6107 164.489 33.9723 164.489 33.1849V25.2422C164.489 24.4548 163.851 23.8164 163.063 23.8164Z" fill="url(#paint7_linear_2953_12938)"/>
<path d="M180.037 36.3625C181.341 36.3625 182.398 35.3055 182.398 34.0016C182.398 32.6977 181.341 31.6406 180.037 31.6406C178.733 31.6406 177.676 32.6977 177.676 34.0016C177.676 35.3055 178.733 36.3625 180.037 36.3625Z" fill="url(#paint8_radial_2953_12938)"/>
<path d="M180.04 23.8164H180.039C179.252 23.8164 178.614 24.4548 178.614 25.2422V33.1849C178.614 33.9723 179.252 34.6107 180.039 34.6107H180.04C180.827 34.6107 181.466 33.9723 181.466 33.1849V25.2422C181.466 24.4548 180.827 23.8164 180.04 23.8164Z" fill="url(#paint9_linear_2953_12938)"/>
</g>
<path d="M144.052 86.892C143.62 86.892 143.176 86.868 142.72 86.82C142.288 86.748 141.856 86.628 141.424 86.46C140.776 86.196 140.152 85.848 139.552 85.416C138.976 84.96 138.448 84.456 137.968 83.904C136.816 82.608 135.94 81.084 135.34 79.332C134.74 77.556 134.44 75.756 134.44 73.932C134.44 71.436 134.92 69.024 135.88 66.696C136.048 66.288 136.264 65.856 136.528 65.4C136.816 64.944 137.128 64.512 137.464 64.104C137.824 63.672 138.184 63.288 138.544 62.952C138.928 62.616 139.312 62.364 139.696 62.196C140.224 61.956 140.8 61.716 141.424 61.476C142.192 61.236 143.056 61.128 144.016 61.152C144.976 61.176 145.852 61.284 146.644 61.476C147.748 61.74 148.696 62.22 149.488 62.916C150.28 63.588 150.952 64.404 151.504 65.364C152.056 66.3 152.488 67.332 152.8 68.46C153.112 69.564 153.34 70.692 153.484 71.844C153.58 72.612 153.616 73.38 153.592 74.148C153.568 74.892 153.508 75.648 153.412 76.416C153.316 77.112 153.196 77.808 153.052 78.504C152.932 79.2 152.764 79.872 152.548 80.52C152.332 81.168 152.056 81.792 151.72 82.392C151.384 82.968 150.964 83.508 150.46 84.012C149.548 84.9 148.552 85.596 147.472 86.1C146.416 86.58 145.276 86.844 144.052 86.892ZM144.016 65.904C143.68 65.904 143.344 65.94 143.008 66.012C142.696 66.06 142.396 66.18 142.108 66.372C141.772 66.588 141.472 66.852 141.208 67.164C140.944 67.476 140.716 67.8 140.524 68.136C140.02 69 139.672 69.924 139.48 70.908C139.288 71.892 139.192 72.888 139.192 73.896C139.192 74.928 139.3 75.996 139.516 77.1C139.756 78.204 140.176 79.212 140.776 80.124C141.064 80.556 141.4 80.94 141.784 81.276C142.192 81.588 142.66 81.816 143.188 81.96C143.668 82.08 144.148 82.116 144.628 82.068C145.132 82.02 145.6 81.864 146.032 81.6C146.728 81.168 147.28 80.592 147.688 79.872C148.096 79.152 148.396 78.372 148.588 77.532C148.804 76.692 148.924 75.828 148.948 74.94C148.996 74.052 148.996 73.248 148.948 72.528C148.9 71.808 148.78 71.052 148.588 70.26C148.396 69.468 148.108 68.748 147.724 68.1C147.364 67.452 146.872 66.924 146.248 66.516C145.648 66.084 144.904 65.88 144.016 65.904ZM160.731 69.468C160.371 70.02 159.939 70.356 159.435 70.476C158.955 70.596 158.487 70.56 158.031 70.368C157.575 70.176 157.191 69.864 156.879 69.432C156.591 68.976 156.471 68.46 156.519 67.884C156.543 67.5 156.639 67.08 156.807 66.624C156.975 66.168 157.179 65.736 157.419 65.328C157.683 64.896 157.959 64.5 158.247 64.14C158.559 63.756 158.871 63.432 159.183 63.168C159.759 62.712 160.407 62.316 161.127 61.98C161.871 61.644 162.639 61.392 163.431 61.224C164.247 61.056 165.051 60.984 165.843 61.008C166.659 61.032 167.415 61.152 168.111 61.368C170.031 61.968 171.519 62.916 172.575 64.212C173.631 65.508 174.159 67.188 174.159 69.252C174.159 70.236 174.063 71.124 173.871 71.916C173.703 72.684 173.391 73.428 172.935 74.148C172.503 74.868 171.915 75.6 171.171 76.344C170.451 77.088 169.551 77.904 168.471 78.792C168.111 79.104 167.739 79.416 167.355 79.728C166.971 80.04 166.587 80.352 166.203 80.664C166.083 80.76 165.855 80.904 165.519 81.096C165.183 81.288 164.883 81.48 164.619 81.672C164.355 81.864 164.199 82.044 164.151 82.212C164.103 82.38 164.295 82.476 164.727 82.5C165.255 82.548 165.675 82.56 165.987 82.536C166.299 82.512 166.719 82.5 167.247 82.5C167.871 82.5 168.483 82.488 169.083 82.464C169.683 82.44 170.283 82.452 170.883 82.5C171.123 82.524 171.387 82.536 171.675 82.536C171.963 82.512 172.251 82.512 172.539 82.536C172.827 82.536 173.103 82.572 173.367 82.644C173.631 82.692 173.859 82.8 174.051 82.968C174.243 83.136 174.387 83.364 174.483 83.652C174.579 83.94 174.627 84.252 174.627 84.588C174.651 84.9 174.627 85.212 174.555 85.524C174.483 85.812 174.363 86.04 174.195 86.208C173.883 86.568 173.499 86.748 173.043 86.748C172.587 86.724 172.155 86.712 171.747 86.712H158.823C158.583 86.712 158.319 86.724 158.031 86.748C157.767 86.772 157.527 86.748 157.311 86.676C156.879 86.556 156.663 86.328 156.663 85.992C156.687 85.656 156.699 85.308 156.699 84.948C156.699 84.348 156.843 83.796 157.131 83.292C157.419 82.764 157.779 82.284 158.211 81.852C158.667 81.396 159.147 80.976 159.651 80.592C160.155 80.208 160.623 79.836 161.055 79.476C161.679 78.924 162.351 78.372 163.071 77.82C163.791 77.268 164.475 76.716 165.123 76.164C165.963 75.468 166.671 74.832 167.247 74.256C167.847 73.68 168.327 73.14 168.687 72.636C169.047 72.132 169.311 71.64 169.479 71.16C169.647 70.656 169.731 70.128 169.731 69.576C169.731 68.352 169.359 67.416 168.615 66.768C167.871 66.096 166.923 65.76 165.771 65.76C164.931 65.76 164.139 65.94 163.395 66.3C162.675 66.66 162.075 67.188 161.595 67.884C161.451 68.148 161.307 68.424 161.163 68.712C161.043 68.976 160.899 69.228 160.731 69.468Z" fill="black"/>
</g>
<line x1="70.5862" y1="303.5" x2="1.99998" y2="303.5" stroke="url(#paint10_linear_2953_12938)"/>
<line y1="-0.5" x2="68.5862" y2="-0.5" transform="matrix(1 -8.74228e-08 -8.74228e-08 -1 239 303)" stroke="url(#paint11_linear_2953_12938)"/>
<rect x="64.2542" y="300.863" width="182.545" height="5.27586" rx="2.63793" fill="url(#paint12_radial_2953_12938)"/>
</g>
<defs>
<filter id="filter0_d_2953_12938" x="0" y="0" width="310" height="367" filterUnits="userSpaceOnUse" color-interpolation-filters="sRGB">
<feFlood flood-opacity="0" result="BackgroundImageFix"/>
<feColorMatrix in="SourceAlpha" type="matrix" values="0 0 0 0 0 0 0 0 0 0 0 0 0 0 0 0 0 0 127 0" result="hardAlpha"/>
<feOffset dy="2"/>
<feGaussianBlur stdDeviation="1"/>
<feComposite in2="hardAlpha" operator="out"/>
<feColorMatrix type="matrix" values="0 0 0 0 0 0 0 0 0 0 0 0 0 0 0 0 0 0 0.25 0"/>
<feBlend mode="normal" in2="BackgroundImageFix" result="effect1_dropShadow_2953_12938"/>
<feBlend mode="normal" in="SourceGraphic" in2="effect1_dropShadow_2953_12938" result="shape"/>
</filter>
<filter id="filter1_d_2953_12938" x="89.0002" y="0" width="132" height="132" filterUnits="userSpaceOnUse" color-interpolation-filters="sRGB">
<feFlood flood-opacity="0" result="BackgroundImageFix"/>
<feColorMatrix in="SourceAlpha" type="matrix" values="0 0 0 0 0 0 0 0 0 0 0 0 0 0 0 0 0 0 127 0" result="hardAlpha"/>
<feOffset dy="2"/>
<feGaussianBlur stdDeviation="1"/>
<feComposite in2="hardAlpha" operator="out"/>
<feColorMatrix type="matrix" values="0 0 0 0 0 0 0 0 0 0 0 0 0 0 0 0 0 0 0.25 0"/>
<feBlend mode="normal" in2="BackgroundImageFix" result="effect1_dropShadow_2953_12938"/>
<feBlend mode="normal" in="SourceGraphic" in2="effect1_dropShadow_2953_12938" result="shape"/>
</filter>
<filter id="filter2_d_2953_12938" x="114.305" y="23.8164" width="80.6174" height="83.7855" filterUnits="userSpaceOnUse" color-interpolation-filters="sRGB">
<feFlood flood-opacity="0" result="BackgroundImageFix"/>
<feColorMatrix in="SourceAlpha" type="matrix" values="0 0 0 0 0 0 0 0 0 0 0 0 0 0 0 0 0 0 127 0" result="hardAlpha"/>
<feOffset dy="2"/>
<feGaussianBlur stdDeviation="1"/>
<feComposite in2="hardAlpha" operator="out"/>
<feColorMatrix type="matrix" values="0 0 0 0 0 0 0 0 0 0 0 0 0 0 0 0 0 0 0.25 0"/>
<feBlend mode="normal" in2="BackgroundImageFix" result="effect1_dropShadow_2953_12938"/>
<feBlend mode="normal" in="SourceGraphic" in2="effect1_dropShadow_2953_12938" result="shape"/>
</filter>
<radialGradient id="paint0_radial_2953_12938" cx="0" cy="0" r="1" gradientUnits="userSpaceOnUse" gradientTransform="translate(155 64) rotate(91.0912) scale(78.1537)">
<stop stop-color="white"/>
<stop offset="1" stop-color="#FFDB55"/>
</radialGradient>
<linearGradient id="paint1_linear_2953_12938" x1="154.613" y1="28.0407" x2="154.613" y2="44.7583" gradientUnits="userSpaceOnUse">
<stop stop-color="#E85F43"/>
<stop offset="1" stop-color="#E83636"/>
</linearGradient>
<radialGradient id="paint2_radial_2953_12938" cx="0" cy="0" r="1" gradientUnits="userSpaceOnUse" gradientTransform="translate(129.127 34.0016) scale(2.36095)">
<stop stop-color="#8C1F1F"/>
<stop offset="0.84" stop-color="#450F0F"/>
<stop offset="1" stop-color="#2B0808"/>
</radialGradient>
<linearGradient id="paint3_linear_2953_12938" x1="127.703" y1="29.2136" x2="130.555" y2="29.2136" gradientUnits="userSpaceOnUse">
<stop stop-color="#4F4F4F"/>
<stop offset="0.29" stop-color="#BDBDBD"/>
<stop offset="0.62" stop-color="#BDBDBD"/>
<stop offset="1" stop-color="#4F4F4F"/>
</linearGradient>
<radialGradient id="paint4_radial_2953_12938" cx="0" cy="0" r="1" gradientUnits="userSpaceOnUse" gradientTransform="translate(146.096 23.8395) scale(0.0241505)">
<stop stop-color="#8C1F1F"/>
<stop offset="0.84" stop-color="#450F0F"/>
<stop offset="1" stop-color="#2B0808"/>
</radialGradient>
<linearGradient id="paint5_linear_2953_12938" x1="144.672" y1="23.8164" x2="147.524" y2="23.8164" gradientUnits="userSpaceOnUse">
<stop stop-color="#4F4F4F"/>
<stop offset="0.29" stop-color="#BDBDBD"/>
<stop offset="0.62" stop-color="#BDBDBD"/>
<stop offset="1" stop-color="#4F4F4F"/>
</linearGradient>
<radialGradient id="paint6_radial_2953_12938" cx="0" cy="0" r="1" gradientUnits="userSpaceOnUse" gradientTransform="translate(163.06 23.8395) scale(2.36095)">
<stop stop-color="#8C1F1F"/>
<stop offset="0.84" stop-color="#450F0F"/>
<stop offset="1" stop-color="#2B0808"/>
</radialGradient>
<linearGradient id="paint7_linear_2953_12938" x1="161.637" y1="23.8164" x2="164.489" y2="23.8164" gradientUnits="userSpaceOnUse">
<stop stop-color="#4F4F4F"/>
<stop offset="0.29" stop-color="#BDBDBD"/>
<stop offset="0.62" stop-color="#BDBDBD"/>
<stop offset="1" stop-color="#4F4F4F"/>
</linearGradient>
<radialGradient id="paint8_radial_2953_12938" cx="0" cy="0" r="1" gradientUnits="userSpaceOnUse" gradientTransform="translate(180.037 23.8395) scale(0.0241505)">
<stop stop-color="#8C1F1F"/>
<stop offset="0.84" stop-color="#450F0F"/>
<stop offset="1" stop-color="#2B0808"/>
</radialGradient>
<linearGradient id="paint9_linear_2953_12938" x1="178.614" y1="23.8164" x2="181.466" y2="23.8164" gradientUnits="userSpaceOnUse">
<stop stop-color="#4F4F4F"/>
<stop offset="0.29" stop-color="#BDBDBD"/>
<stop offset="0.62" stop-color="#BDBDBD"/>
<stop offset="1" stop-color="#4F4F4F"/>
</linearGradient>
<linearGradient id="paint10_linear_2953_12938" x1="70.5862" y1="302.5" x2="-4.85864" y2="302.5" gradientUnits="userSpaceOnUse">
<stop stop-color="#F9CC1A"/>
<stop offset="0.795" stop-color="#FFF5CF"/>
</linearGradient>
<linearGradient id="paint11_linear_2953_12938" x1="0" y1="0.499999" x2="75.4448" y2="0.499992" gradientUnits="userSpaceOnUse">
<stop stop-color="#F9CC1A"/>
<stop offset="0.795" stop-color="#FFF5CF"/>
</linearGradient>
<radialGradient id="paint12_radial_2953_12938" cx="0" cy="0" r="1" gradientUnits="userSpaceOnUse" gradientTransform="translate(155.527 303.501) scale(91.2724 2.63793)">
<stop stop-color="#FFF5CF"/>
<stop offset="1" stop-color="#F8C600"/>
</radialGradient>
</defs>
</svg>
