<svg width="39" height="39" viewBox="0 0 39 39" fill="none" xmlns="http://www.w3.org/2000/svg">
<g filter="url(#filter0_d_1319_300)">
<circle cx="19.5" cy="18.5" r="15.5" fill="white"/>
<circle cx="19.5" cy="18.5" r="15" stroke="#FDFDFD"/>
</g>
<path d="M26.0005 13.4342C25.9986 13.2386 26.0944 13.0799 26.2941 12.9703C26.8327 12.6752 27.3703 12.379 27.9174 12.0938C28.2521 11.9193 28.6649 11.9969 28.8791 12.2547C29.0932 12.5121 29.0193 12.8452 28.6864 13.0313C28.1577 13.3271 27.6219 13.6146 27.0847 13.8999C26.8448 14.0273 26.5872 14.0337 26.3376 13.9157C26.1131 13.8095 25.9991 13.6459 26 13.4338L26.0005 13.4342Z" fill="#FCCF7B"/>
<path d="M19.0013 9.49859C19.0013 9.23267 18.9983 8.96675 19.0019 8.70083C19.0073 8.3003 19.2183 8.00284 19.4934 8.00002C19.7772 7.9972 19.9941 8.29559 19.9971 8.70742C20.0011 9.23126 20.0008 9.75557 19.9971 10.2794C19.9941 10.687 19.7715 11.0019 19.4967 11C19.2216 10.9976 19.0053 10.6823 19.0013 10.2728C18.9986 10.0149 19.0009 9.75651 19.0009 9.49859H19.0013Z" fill="#F9BD16"/>
<path d="M12.9999 13.4282C13.0024 13.8653 12.6225 14.1481 12.311 13.9179C11.9233 13.6313 11.5484 13.3196 11.1764 13.0038C10.9818 12.8385 10.9478 12.5039 11.0766 12.2654C11.2072 12.0239 11.4702 11.9184 11.6741 12.0716C12.0733 12.371 12.461 12.6936 12.8474 13.0165C12.9581 13.1093 13.0024 13.2622 12.9999 13.4278V13.4282Z" fill="#FCCF7B"/>
<path d="M30 26.4671C29.7904 26.9169 29.4405 27.0038 29.0247 26.9999C27.6014 26.986 26.1776 26.9949 24.7543 26.9934C24.6687 26.9934 24.5796 27.0172 24.4979 26.9643C24.4996 24.8284 24.5009 22.6926 24.5027 20.5562C24.5027 20.2271 24.3559 20.0526 24.0625 20.0329C24.0415 20.0314 24.021 20.0205 24 20.0136C25.2657 20.0082 26.5314 19.9983 27.7971 20.0003C28.1128 20.0003 28.3277 20.2073 28.4382 20.5938C28.8592 22.0615 29.2754 23.5312 29.6938 24.9999C29.7733 25.2796 29.8563 25.5578 29.9384 25.8361C29.9402 25.842 29.9493 25.8455 29.9555 25.8504C29.9856 25.8751 29.9873 25.8385 29.9996 25.8247V25.9235C29.9799 25.9112 29.962 25.9156 29.9629 25.9413C29.9629 25.9522 29.9865 25.9626 29.9996 25.973V26.4671H30Z" fill="#F9BE15"/>
<path d="M13.994 26.9957C12.5245 26.9977 11.0549 27.0022 9.58542 26.9987C9.26635 26.9982 9.10502 26.7324 9 26.3947V25.9958C9.07827 25.9638 9.06429 25.8691 9.08226 25.7993C9.52352 24.0891 9.96398 22.379 10.402 20.6678C10.4895 20.3257 10.6201 20.0459 10.9399 20C11.8891 20.0015 12.8387 20.006 13.7884 20.0015C13.9381 20.001 14.0004 20.0499 14 20.2524C13.9944 22.5001 13.9952 24.7479 13.994 26.9957Z" fill="#FFD17C"/>
<path d="M14.0213 26.968C14.0225 24.7512 14.0217 22.5345 14.0272 20.3177C14.0276 20.118 13.966 20.0693 13.8179 20.0703C12.8784 20.0748 11.939 20.0703 11 20.0689C11.0743 20.0182 11.1545 20.0423 11.2319 20.0423C12.3206 20.0384 13.4094 20.0369 14.4977 20.0334C14.5688 20.0334 14.6427 20.0521 14.7087 20C14.7833 20.0408 14.8627 20.0325 14.9414 20.033C15.6757 20.0354 16.4105 20.0374 17.1449 20.0398C17.4068 20.1717 17.5463 20.4171 17.6312 20.752C18.0646 22.4646 18.5118 24.1718 18.9515 25.8825C19.1174 26.5283 18.8476 26.995 18.3008 26.997C16.9257 27.0024 15.5501 26.999 14.1746 26.9985C14.1224 26.9985 14.0687 27.0068 14.0213 26.968Z" fill="#F9BD17"/>
<path d="M22.0167 20C21.9236 19.9437 21.8225 19.9754 21.7258 19.9742C21.1504 19.967 20.5754 19.9644 20 19.9606C20 17.9759 20 15.9911 20 14.0063C21.0056 14.0038 22.0108 13.9978 23.0163 14.0008C23.2814 14.0017 23.4859 14.1951 23.5806 14.5071C23.821 15.2973 24.0581 16.0884 24.2973 16.8791C24.5066 17.5699 24.7175 18.2603 24.9268 18.9511C25.0816 19.4612 25.0024 19.6902 24.5774 19.967C24.4549 20.0203 24.3315 19.9644 24.2082 19.967C23.4775 19.9843 22.7465 19.9433 22.0163 19.9996L22.0167 20Z" fill="#F9BE15"/>
<path d="M19.9995 14.0052C19.9995 16.0002 19.9995 17.9952 19.9995 19.9902C19.1582 19.9936 18.3174 19.9966 17.4761 20C16.5865 19.9983 15.6964 19.9962 14.8067 19.994C14.7115 19.994 14.6153 20.0013 14.5249 19.9655C14.0841 19.8341 13.9023 19.5052 14.0511 19.0904C14.477 17.9029 14.9067 16.7167 15.335 15.5296C15.4585 15.1875 15.5772 14.8446 15.7045 14.5038C15.8241 14.1817 16.0778 14.0018 16.4434 14.0009C17.6288 13.9979 18.8146 14.003 20 14.0052H19.9995Z" fill="#FFD17C"/>
<path d="M21.8674 20.0383C22.6007 19.9723 23.3348 20.0205 24.0685 20.0001C24.1924 19.9967 24.3163 20.0622 24.4393 20.0001C24.4729 20.0056 24.5065 20.0106 24.54 20.016C24.5592 20.0225 24.578 20.0339 24.5972 20.0354C24.8657 20.0552 25 20.2304 25 20.5609C24.9988 22.7055 24.9972 24.8501 24.9956 26.9953C23.5266 26.9967 22.0576 27.0042 20.589 26.9967C20.1618 26.9943 19.9017 26.5114 20.0351 25.9889C20.4264 24.4537 20.8244 22.9213 21.2204 21.388C21.2891 21.1221 21.3623 20.8581 21.4286 20.5911C21.4981 20.3108 21.6392 20.1232 21.8674 20.0398V20.0383Z" fill="#FFD17C"/>
<defs>
<filter id="filter0_d_1319_300" x="0" y="0" width="39" height="39" filterUnits="userSpaceOnUse" color-interpolation-filters="sRGB">
<feFlood flood-opacity="0" result="BackgroundImageFix"/>
<feColorMatrix in="SourceAlpha" type="matrix" values="0 0 0 0 0 0 0 0 0 0 0 0 0 0 0 0 0 0 127 0" result="hardAlpha"/>
<feOffset dy="1"/>
<feGaussianBlur stdDeviation="2"/>
<feComposite in2="hardAlpha" operator="out"/>
<feColorMatrix type="matrix" values="0 0 0 0 0 0 0 0 0 0 0 0 0 0 0 0 0 0 0.25 0"/>
<feBlend mode="normal" in2="BackgroundImageFix" result="effect1_dropShadow_1319_300"/>
<feBlend mode="normal" in="SourceGraphic" in2="effect1_dropShadow_1319_300" result="shape"/>
</filter>
</defs>
</svg>
