<svg width="310" height="367" viewBox="0 0 310 367" fill="none" xmlns="http://www.w3.org/2000/svg">
<g filter="url(#filter0_d_2953_12891)">
<path d="M2.00024 76C2.00024 64.9543 10.9546 56 22.0002 56H288C299.046 56 308 64.9543 308 76V363H2.00024V76Z" fill="#DBFFCA"/>
<path d="M57.1252 269.129H53.3752L47.469 261.16H43.0627V269.129H40.1565V249.91H49.0627C53.3752 250.035 55.6565 251.879 55.9065 255.441C55.9065 258.691 54.1252 260.535 50.5627 260.973L57.1252 269.129ZM43.0627 252.254V258.816H48.4065C51.4065 258.816 52.8752 257.723 52.8127 255.535C52.8127 253.348 51.344 252.254 48.4065 252.254H43.0627ZM68.5627 249.91L76.2502 269.129H73.0627L71.094 263.973H62.5627L60.594 269.129H57.4065L65.094 249.91H68.5627ZM66.8752 252.441H66.7815C66.594 253.004 66.4065 253.566 66.219 254.129C66.1565 254.254 65.1877 256.754 63.3127 261.629H70.344C68.469 256.754 67.5002 254.254 67.4377 254.129C67.4377 254.066 67.4065 253.941 67.344 253.754C67.0315 253.004 66.8752 252.566 66.8752 252.441ZM87.0315 269.129H78.3127V249.91H86.5627C90.6252 250.035 92.7815 251.566 93.0315 254.504C92.969 256.941 91.6565 258.441 89.094 259.004C89.094 259.004 89.094 259.035 89.094 259.098C92.0315 259.598 93.6252 261.129 93.8752 263.691C93.8752 267.316 91.594 269.129 87.0315 269.129ZM86.3752 260.41H81.219V266.973H86.5627C89.3127 266.973 90.6877 265.816 90.6877 263.504C90.5627 261.504 89.1252 260.473 86.3752 260.41ZM86.0002 252.16H81.219V258.066H86.0002C88.5627 258.004 89.8752 256.973 89.9377 254.973C89.8752 253.098 88.5627 252.16 86.0002 252.16ZM97.5315 269.129V249.91H100.438V269.129H97.5315ZM106.625 249.629L106.25 256.566H104.375L103.906 249.629H106.625ZM125.75 249.91L133.438 269.129H130.25L128.281 263.973H119.75L117.781 269.129H114.594L122.281 249.91H125.75ZM124.063 252.441H123.969C123.781 253.004 123.594 253.566 123.406 254.129C123.344 254.254 122.375 256.754 120.5 261.629H127.531C125.656 256.754 124.688 254.254 124.625 254.129C124.625 254.066 124.594 253.941 124.531 253.754C124.219 253.004 124.063 252.566 124.063 252.441ZM148.625 269.129H135.5V249.91H138.406V266.879H148.625V269.129ZM164.281 260.691H151.156V258.629H164.281V260.691ZM177.031 249.91L184.719 269.129H181.531L179.563 263.973H171.031L169.063 269.129H165.875L173.563 249.91H177.031ZM175.344 252.441H175.25C175.063 253.004 174.875 253.566 174.688 254.129C174.625 254.254 173.656 256.754 171.781 261.629H178.813C176.938 256.754 175.969 254.254 175.906 254.129C175.906 254.066 175.875 253.941 175.813 253.754C175.5 253.004 175.344 252.566 175.344 252.441ZM184.906 249.91H188C189.75 257.598 190.813 262.379 191.188 264.254C191.25 264.441 191.375 265.004 191.563 265.941H191.656C191.844 265.191 192 264.598 192.125 264.16C192.688 262.223 193.938 257.473 195.875 249.91H199.063C201.438 259.223 202.719 264.129 202.906 264.629C202.969 264.941 203.063 265.504 203.188 266.316H203.281C203.406 265.629 203.5 265.16 203.563 264.91C203.625 264.535 204.719 259.535 206.844 249.91H209.938L204.875 269.129H201.781C199.219 259.566 197.875 254.629 197.75 254.316C197.688 254.129 197.625 253.691 197.563 253.004H197.469C197.406 253.566 197.344 253.973 197.281 254.223C197.219 254.473 195.844 259.441 193.156 269.129H189.875L184.906 249.91ZM210.219 249.91H213.313C215.063 257.598 216.125 262.379 216.5 264.254C216.563 264.441 216.688 265.004 216.875 265.941H216.969C217.156 265.191 217.313 264.598 217.438 264.16C218 262.223 219.25 257.473 221.188 249.91H224.375C226.75 259.223 228.031 264.129 228.219 264.629C228.281 264.941 228.375 265.504 228.5 266.316H228.594C228.719 265.629 228.813 265.16 228.875 264.91C228.938 264.535 230.031 259.535 232.156 249.91H235.25L230.188 269.129H227.094C224.531 259.566 223.188 254.629 223.063 254.316C223 254.129 222.938 253.691 222.875 253.004H222.781C222.719 253.566 222.656 253.973 222.594 254.223C222.531 254.473 221.156 259.441 218.469 269.129H215.188L210.219 249.91ZM246.5 249.91L254.188 269.129H251L249.031 263.973H240.5L238.531 269.129H235.344L243.031 249.91H246.5ZM244.813 252.441H244.719C244.531 253.004 244.344 253.566 244.156 254.129C244.094 254.254 243.125 256.754 241.25 261.629H248.281C246.406 256.754 245.438 254.254 245.375 254.129C245.375 254.066 245.344 253.941 245.281 253.754C244.969 253.004 244.813 252.566 244.813 252.441ZM269.375 269.129H256.25V249.91H259.156V266.879H269.375V269.129Z" fill="#242424"/>
<path d="M193.842 196.742C191.539 194.75 189.814 192.792 186.105 193.327C185.613 193.395 184.178 192.075 184.265 191.494C185.453 183.47 194.016 178.871 204.042 180.738C211.156 182.058 213.865 188.228 209.547 193.452C208.591 194.613 207.389 195.66 206.012 197.049C211.3 198.483 216.299 198.358 221.167 197.356C222.456 197.095 223.5 195.558 224.267 194.431C225.282 192.94 225.774 191.221 226.803 189.73C227.194 189.172 228.628 188.603 229.324 188.763C230.048 188.933 230.57 189.924 230.918 190.641C231.106 191.005 230.686 191.551 230.599 192.018C229.889 195.74 231.729 197.721 236.466 197.88C239.581 197.982 242.74 197.846 245.826 197.516C248.332 197.254 249.318 195.968 248.245 193.999C247.724 193.042 247.144 192.098 246.579 191.164C245.145 188.763 245.869 185.758 248.637 184.38C249.318 184.039 251.462 184.483 251.969 185.075C255.446 189.161 254.678 198.096 250.766 201.852C246.405 206.03 234.308 206.678 229.208 202.968C228.512 202.467 228.107 201.727 227.643 201.181C217.835 206.644 210.504 206.678 200.854 201.784C199.913 201.306 198.087 200.908 197.392 201.295C193.581 203.412 189.51 205.426 186.482 208.135C182.353 211.835 183.7 216.968 189.249 219.256C192.335 220.531 196.088 221.293 199.579 221.373C205.085 221.51 210.62 220.827 216.14 220.622C217.168 220.588 218.226 221.134 219.269 221.407C218.849 222.295 218.762 223.684 217.98 223.991C211.098 226.643 204.419 229.773 196.117 228.828C182.396 227.269 175.515 217.788 180.904 207.589C183.135 203.355 187.293 200.555 191.843 197.982C192.422 197.652 192.973 197.299 193.871 196.742H193.842ZM192.046 188.171C194.175 189.719 195.899 190.971 197.638 192.211C200.97 194.613 203.462 194.306 205.722 191.233C206.939 189.582 206.476 188.068 204.317 187.556C200.42 186.634 196.421 186.589 192.046 188.171Z" fill="#184103"/>
<path d="M132.242 182.83C131.778 177.207 131.025 171.595 130.996 165.972C130.996 164.037 132.329 161.863 133.807 160.224C134.98 158.927 136.429 159.701 137.154 161.226C137.849 162.694 138.718 164.185 139.921 165.426C141.515 167.065 141.312 168.34 140.051 170.07C138.921 171.618 138.414 173.473 137.907 175.249C137.588 176.342 138.023 177.548 137.733 178.641C136.313 183.956 135.748 188.896 138.458 194.428C141.268 200.199 136.27 204.593 127.91 205.15C122.883 205.48 117.768 205.264 112.726 205.002C111.423 204.934 109.017 203.477 109.148 203.124C109.858 201.223 108.873 198.48 112.625 197.786C119 196.614 122.868 192.709 127.2 189.363C127.577 189.067 127.389 187.781 126.896 187.417C120.854 182.966 115.247 177.935 106.41 176.865C104.063 176.581 102.788 175.568 103.019 173.837C103.338 171.561 104.106 169.33 104.686 167.088C107.018 167.907 109.713 168.385 111.625 169.615C117.305 173.257 122.68 177.195 128.156 181.043C129.098 181.714 129.924 182.499 130.793 183.228C131.271 183.103 131.764 182.978 132.242 182.841V182.83ZM131.532 191.548C128.475 193.745 125.911 195.578 123.346 197.41C123.477 197.661 123.607 197.911 123.738 198.162C126.447 198.002 129.171 197.979 131.836 197.627C133.894 197.365 134.575 196.158 133.691 194.633C133.169 193.711 132.445 192.846 131.532 191.548Z" fill="#184103"/>
<path d="M61.2464 184.591C61.2464 179.856 61.3043 175.11 61.2029 170.375C61.1739 169.168 60.5364 167.985 60.4785 166.778C60.406 165.332 60.2177 163.728 60.9131 162.475C61.5506 161.337 63.3037 160.586 64.5497 159.664C65.2596 160.643 65.7522 161.77 66.6939 162.578C70.5188 165.833 71.0404 168.986 67.4184 172.697C66.4187 173.721 67.1865 175.827 67.1865 177.443C67.1865 183.51 67.2735 189.577 67.1286 195.644C67.0706 198 66.8098 200.401 66.0999 202.678C62.8835 212.933 53.4952 216.667 40.8469 214.504C33.7332 213.286 28.7927 208.198 28.1263 202.029C27.6192 197.397 28.6334 192.935 31.3282 188.791C31.8498 187.995 33.4435 186.982 34.3417 187.095C36.457 187.357 35.9499 188.7 35.5153 190.009C34.8198 192.104 34.1969 194.255 34.052 196.406C33.4 206.298 43.1796 209.223 53.3938 206.889C59.3629 205.524 61.2174 203.088 61.2319 198.25C61.2319 193.697 61.2319 189.144 61.2319 184.603L61.2464 184.591Z" fill="#184103"/>
<path d="M95.3535 201.688C93.5714 202.258 92.1805 202.849 90.6882 203.145C84.5163 204.375 79.2426 201.393 78.663 196.43C77.9821 190.579 81.6331 185.4 87.3849 184.023C91.3112 183.09 94.8319 183.886 97.4108 186.368C98.0917 187.017 98.6713 187.756 99.1783 188.508C104.206 195.963 100.627 209.929 92.3254 215.233C88.3701 217.772 83.8353 218.341 79.0542 217.203C76.1855 216.52 73.3748 215.609 70.709 214.528C69.6803 214.107 69.1443 212.946 68.3909 212.115C69.5499 211.694 70.68 211.011 71.8825 210.897C76.2725 210.487 80.8218 210.703 85.0668 209.884C90.5144 208.837 94.2668 205.467 95.339 201.677L95.3535 201.688ZM94.9043 195.644C93.7163 190.807 87.7326 189.043 84.3714 191.968C82.5314 193.573 83.0385 195.531 85.6898 195.815C88.6019 196.122 91.6155 195.735 94.9043 195.656V195.644Z" fill="#184103"/>
<path d="M257.202 211.045C264.649 211.546 270.068 209.884 273.748 205.286C275.588 202.986 275.776 200.676 274.067 198.308C272.821 196.578 271.444 194.894 270.372 193.095C269.865 192.23 269.387 190.91 269.865 190.216C270.908 188.713 272.589 187.484 274.009 186.141C275.226 187.336 276.848 188.394 277.573 189.76C281.441 197.079 281.311 204.398 276.501 211.421C271.531 218.671 260.042 219.935 252.436 214.187C251.871 213.754 251.421 212.718 251.697 212.252C252.059 211.648 253.146 211.068 254.029 210.954C255.304 210.783 256.666 211.022 257.217 211.045H257.202Z" fill="#184103"/>
<path d="M154.625 178.862C154.19 185.475 153.886 192.088 153.234 198.69C153.06 200.534 151.959 202.332 151.09 204.097C150.872 204.541 149.858 204.757 149.206 205.075C148.859 204.62 148.409 204.199 148.207 203.698C148.033 203.266 148.12 202.753 148.12 202.287C148.12 189.766 148.047 177.246 148.221 164.725C148.236 163.393 149.409 161.982 150.409 160.787C150.887 160.229 152.205 160.104 153.133 159.785C153.48 160.548 154.132 161.299 154.147 162.062C154.234 167.662 154.19 173.25 154.19 178.851C154.335 178.851 154.48 178.851 154.625 178.862Z" fill="#184103"/>
<path d="M199.305 171.229C194.973 167.61 195.046 164.093 199.276 162.374C200.305 161.953 201.942 161.805 202.971 162.146C206.622 163.353 207.259 170.171 204.275 172.185C202.014 173.699 200.392 175.873 196.958 175.873C195.712 175.873 194.466 175.782 193.22 175.737C193.075 175.452 192.93 175.168 192.785 174.883C194.886 173.711 196.987 172.538 199.32 171.241L199.305 171.229Z" fill="#184103"/>
<path d="M109.888 164.753C109.888 162.112 109.772 159.893 109.917 157.696C110.091 155.112 111.612 152.87 114.944 152.494C116.639 152.301 118.726 153.462 120.392 154.315C120.986 154.623 120.812 155.829 120.986 156.626C120.001 156.671 119.015 156.774 118.045 156.74C117.349 156.706 116.523 156.227 116.002 156.398C115.118 156.683 114.437 157.332 113.669 157.832C114.336 158.254 114.944 158.959 115.683 159.05C117.089 159.221 118.566 158.948 119.986 159.062C120.928 159.141 122.58 159.585 122.594 159.881C122.609 160.735 122.203 162.203 121.522 162.374C117.552 163.376 113.452 164.07 109.888 164.764V164.753Z" fill="#184103"/>
<path d="M82.7333 171.883C84.5588 174.038 86.959 173.81 89.9339 171.2C90.7887 172.054 91.6146 172.862 92.8461 174.08C93.6139 173.055 94.0921 172.281 94.7295 171.587C95.1062 171.177 95.7582 170.608 96.2218 170.642C96.7144 170.676 97.3664 171.291 97.5403 171.746C98.5979 174.512 95.7292 177.597 92.0782 177.915C90.3251 178.063 88.63 178.53 86.8914 178.837C84.356 179.281 82.1538 178.758 81.2555 176.789C80.4876 175.081 80.024 173.146 82.7188 171.894L82.7333 171.883Z" fill="#184103"/>
<path d="M222.971 180.118C223.16 177.466 226.144 174.37 228.477 174.427C230.94 174.483 233.577 177.272 233.446 179.685C233.272 182.804 230.838 184.853 227.52 184.682C224.521 184.523 222.783 182.781 222.971 180.129V180.118Z" fill="#184103"/>
<path d="M236.624 211.052C234.538 212.873 233.698 213.966 232.452 214.569C231.67 214.944 229.931 214.922 229.279 214.478C227.627 213.328 226.512 213.556 224.947 214.569C222.832 215.935 221.513 214.478 220.122 213.419C218.326 212.042 219.181 210.904 220.543 209.777C221.846 208.707 223.208 207.614 225.048 209.139C226.41 210.255 227.54 210.289 229.018 209.196C229.656 208.73 231.075 208.4 231.8 208.639C233.423 209.185 234.828 210.13 236.61 211.063L236.624 211.052Z" fill="#184103"/>
<path d="M280.74 173.617C280.378 177.442 272.873 181.266 265.889 181.46C265.208 177.76 270.642 176.406 280.74 173.617Z" fill="#184103"/>
<path d="M237.68 224.608C238.086 220.954 244.431 217.653 252.284 216.766C253.588 220.67 247.257 222.297 237.68 224.608Z" fill="#184103"/>
<path d="M96.6706 161.938C96.5402 165.534 89.6149 169.143 81.9651 169.609C82.023 166.251 89.412 162.404 96.6706 161.938Z" fill="#184103"/>
<path d="M123.375 142C122.636 145.802 114.349 149.899 108.438 149.592C108.93 146.2 115.247 142.945 123.375 142Z" fill="#184103"/>
<path d="M245.14 207.039C247.067 209.111 249.428 210.556 249.428 212.002C249.428 213.14 246.56 214.301 244.951 215.451C243.503 214.187 240.996 212.958 240.924 211.649C240.851 210.351 243.242 208.974 245.125 207.039H245.14Z" fill="#184103"/>
<g filter="url(#filter1_d_2953_12891)">
<circle cx="155" cy="64" r="64" fill="url(#paint0_radial_2953_12891)"/>
<g filter="url(#filter2_d_2953_12891)">
<path d="M192.922 44.7021V97.1516C192.922 100.714 190.031 103.602 186.465 103.602H122.762C119.196 103.602 116.305 100.714 116.305 97.1516V44.7021L118.363 42.6056H190.582L192.922 44.7021Z" fill="white"/>
<path d="M192.922 33.4646V44.8409H116.305V33.4646C116.305 29.8879 119.173 26.9883 122.71 26.9883H186.517C190.054 26.9883 192.922 29.8879 192.922 33.4641L192.922 33.4646Z" fill="url(#paint1_linear_2953_12891)"/>
<path d="M129.127 36.3625C130.431 36.3625 131.488 35.3055 131.488 34.0016C131.488 32.6977 130.431 31.6406 129.127 31.6406C127.823 31.6406 126.766 32.6977 126.766 34.0016C126.766 35.3055 127.823 36.3625 129.127 36.3625Z" fill="url(#paint2_radial_2953_12891)"/>
<path d="M129.13 23.8164H129.129C128.342 23.8164 127.703 24.4548 127.703 25.2422V33.1849C127.703 33.9723 128.342 34.6107 129.129 34.6107H129.13C129.917 34.6107 130.556 33.9723 130.556 33.1849V25.2422C130.556 24.4548 129.917 23.8164 129.13 23.8164Z" fill="url(#paint3_linear_2953_12891)"/>
<path d="M146.096 36.3625C147.399 36.3625 148.457 35.3055 148.457 34.0016C148.457 32.6977 147.399 31.6406 146.096 31.6406C144.792 31.6406 143.735 32.6977 143.735 34.0016C143.735 35.3055 144.792 36.3625 146.096 36.3625Z" fill="url(#paint4_radial_2953_12891)"/>
<path d="M146.098 23.8164H146.098C145.31 23.8164 144.672 24.4548 144.672 25.2422V33.1849C144.672 33.9723 145.31 34.6107 146.098 34.6107H146.098C146.886 34.6107 147.524 33.9723 147.524 33.1849V25.2422C147.524 24.4548 146.886 23.8164 146.098 23.8164Z" fill="url(#paint5_linear_2953_12891)"/>
<path d="M163.06 36.3625C164.364 36.3625 165.421 35.3055 165.421 34.0016C165.421 32.6977 164.364 31.6406 163.06 31.6406C161.756 31.6406 160.699 32.6977 160.699 34.0016C160.699 35.3055 161.756 36.3625 163.06 36.3625Z" fill="url(#paint6_radial_2953_12891)"/>
<path d="M163.063 23.8164H163.063C162.275 23.8164 161.637 24.4548 161.637 25.2422V33.1849C161.637 33.9723 162.275 34.6107 163.063 34.6107H163.063C163.851 34.6107 164.489 33.9723 164.489 33.1849V25.2422C164.489 24.4548 163.851 23.8164 163.063 23.8164Z" fill="url(#paint7_linear_2953_12891)"/>
<path d="M180.037 36.3625C181.341 36.3625 182.398 35.3055 182.398 34.0016C182.398 32.6977 181.341 31.6406 180.037 31.6406C178.733 31.6406 177.676 32.6977 177.676 34.0016C177.676 35.3055 178.733 36.3625 180.037 36.3625Z" fill="url(#paint8_radial_2953_12891)"/>
<path d="M180.04 23.8164H180.039C179.252 23.8164 178.614 24.4548 178.614 25.2422V33.1849C178.614 33.9723 179.252 34.6107 180.039 34.6107H180.04C180.827 34.6107 181.466 33.9723 181.466 33.1849V25.2422C181.466 24.4548 180.827 23.8164 180.04 23.8164Z" fill="url(#paint9_linear_2953_12891)"/>
</g>
<path d="M144.052 86.892C143.62 86.892 143.176 86.868 142.72 86.82C142.288 86.748 141.856 86.628 141.424 86.46C140.776 86.196 140.152 85.848 139.552 85.416C138.976 84.96 138.448 84.456 137.968 83.904C136.816 82.608 135.94 81.084 135.34 79.332C134.74 77.556 134.44 75.756 134.44 73.932C134.44 71.436 134.92 69.024 135.88 66.696C136.048 66.288 136.264 65.856 136.528 65.4C136.816 64.944 137.128 64.512 137.464 64.104C137.824 63.672 138.184 63.288 138.544 62.952C138.928 62.616 139.312 62.364 139.696 62.196C140.224 61.956 140.8 61.716 141.424 61.476C142.192 61.236 143.056 61.128 144.016 61.152C144.976 61.176 145.852 61.284 146.644 61.476C147.748 61.74 148.696 62.22 149.488 62.916C150.28 63.588 150.952 64.404 151.504 65.364C152.056 66.3 152.488 67.332 152.8 68.46C153.112 69.564 153.34 70.692 153.484 71.844C153.58 72.612 153.616 73.38 153.592 74.148C153.568 74.892 153.508 75.648 153.412 76.416C153.316 77.112 153.196 77.808 153.052 78.504C152.932 79.2 152.764 79.872 152.548 80.52C152.332 81.168 152.056 81.792 151.72 82.392C151.384 82.968 150.964 83.508 150.46 84.012C149.548 84.9 148.552 85.596 147.472 86.1C146.416 86.58 145.276 86.844 144.052 86.892ZM144.016 65.904C143.68 65.904 143.344 65.94 143.008 66.012C142.696 66.06 142.396 66.18 142.108 66.372C141.772 66.588 141.472 66.852 141.208 67.164C140.944 67.476 140.716 67.8 140.524 68.136C140.02 69 139.672 69.924 139.48 70.908C139.288 71.892 139.192 72.888 139.192 73.896C139.192 74.928 139.3 75.996 139.516 77.1C139.756 78.204 140.176 79.212 140.776 80.124C141.064 80.556 141.4 80.94 141.784 81.276C142.192 81.588 142.66 81.816 143.188 81.96C143.668 82.08 144.148 82.116 144.628 82.068C145.132 82.02 145.6 81.864 146.032 81.6C146.728 81.168 147.28 80.592 147.688 79.872C148.096 79.152 148.396 78.372 148.588 77.532C148.804 76.692 148.924 75.828 148.948 74.94C148.996 74.052 148.996 73.248 148.948 72.528C148.9 71.808 148.78 71.052 148.588 70.26C148.396 69.468 148.108 68.748 147.724 68.1C147.364 67.452 146.872 66.924 146.248 66.516C145.648 66.084 144.904 65.88 144.016 65.904ZM157.095 65.004C156.783 64.716 156.627 64.284 156.627 63.708C156.651 63.444 156.699 63.192 156.771 62.952C156.843 62.688 156.975 62.46 157.167 62.268C157.695 61.788 158.259 61.512 158.859 61.44C159.459 61.368 160.107 61.308 160.803 61.26C161.355 61.236 161.847 61.236 162.279 61.26C162.711 61.26 163.203 61.26 163.755 61.26C164.595 61.26 165.507 61.272 166.491 61.296C167.499 61.32 168.447 61.356 169.335 61.404C169.695 61.428 170.055 61.476 170.415 61.548C170.775 61.62 171.099 61.752 171.387 61.944C171.675 62.112 171.903 62.34 172.071 62.628C172.263 62.892 172.371 63.228 172.395 63.636C172.419 64.116 172.347 64.572 172.179 65.004C172.035 65.436 171.831 65.856 171.567 66.264C171.303 66.648 171.003 67.02 170.667 67.38C170.355 67.716 170.055 68.028 169.767 68.316C169.239 68.868 168.639 69.456 167.967 70.08C167.295 70.704 166.695 71.292 166.167 71.844C167.103 71.964 168.003 72.18 168.867 72.492C169.755 72.804 170.535 73.236 171.207 73.788C171.879 74.34 172.407 75.036 172.791 75.876C173.199 76.692 173.403 77.676 173.403 78.828C173.403 79.98 173.175 81.048 172.719 82.032C172.287 83.016 171.675 83.88 170.883 84.624C170.091 85.344 169.155 85.908 168.075 86.316C166.995 86.724 165.807 86.928 164.511 86.928C163.959 86.928 163.359 86.88 162.711 86.784C162.087 86.688 161.463 86.544 160.839 86.352C160.215 86.16 159.615 85.92 159.039 85.632C158.487 85.32 158.007 84.948 157.599 84.516C157.311 84.228 157.059 83.892 156.843 83.508C156.651 83.1 156.531 82.692 156.483 82.284C156.459 81.852 156.543 81.468 156.735 81.132C156.927 80.772 157.263 80.508 157.743 80.34C158.103 80.22 158.451 80.172 158.787 80.196C159.123 80.22 159.447 80.304 159.759 80.448C160.071 80.568 160.371 80.712 160.659 80.88C160.971 81.048 161.271 81.216 161.559 81.384C162.447 81.936 163.371 82.26 164.331 82.356C165.315 82.452 166.275 82.224 167.211 81.672C167.739 81.36 168.123 80.976 168.363 80.52C168.603 80.04 168.699 79.56 168.651 79.08C168.627 78.6 168.471 78.144 168.183 77.712C167.919 77.28 167.547 76.92 167.067 76.632C166.611 76.368 166.107 76.188 165.555 76.092C165.003 75.996 164.451 75.9 163.899 75.804C163.347 75.708 162.819 75.576 162.315 75.408C161.811 75.24 161.379 74.952 161.019 74.544C160.611 74.088 160.479 73.596 160.623 73.068C160.767 72.54 161.031 72.024 161.415 71.52C161.823 71.016 162.267 70.536 162.747 70.08C163.251 69.624 163.647 69.24 163.935 68.928C164.103 68.76 164.295 68.556 164.511 68.316C164.751 68.076 164.967 67.836 165.159 67.596C165.375 67.356 165.555 67.128 165.699 66.912C165.867 66.672 165.975 66.456 166.023 66.264C166.095 66.072 166.059 65.94 165.915 65.868C165.771 65.772 165.591 65.724 165.375 65.724C165.159 65.7 164.919 65.7 164.655 65.724C164.415 65.724 164.223 65.724 164.079 65.724H161.667C161.331 65.724 160.959 65.736 160.551 65.76C160.143 65.76 159.723 65.748 159.291 65.724C158.883 65.676 158.475 65.604 158.067 65.508C157.683 65.412 157.359 65.244 157.095 65.004Z" fill="black"/>
</g>
<line x1="70.5862" y1="303.5" x2="1.99998" y2="303.5" stroke="url(#paint10_linear_2953_12891)"/>
<line y1="-0.5" x2="69.0003" y2="-0.5" transform="matrix(1 -0.000396372 -0.000396372 -1 239 303.027)" stroke="url(#paint11_linear_2953_12891)"/>
<rect x="64" y="301" width="182.545" height="5.27586" rx="2.63793" fill="url(#paint12_radial_2953_12891)"/>
</g>
<defs>
<filter id="filter0_d_2953_12891" x="0" y="0" width="310.001" height="367" filterUnits="userSpaceOnUse" color-interpolation-filters="sRGB">
<feFlood flood-opacity="0" result="BackgroundImageFix"/>
<feColorMatrix in="SourceAlpha" type="matrix" values="0 0 0 0 0 0 0 0 0 0 0 0 0 0 0 0 0 0 127 0" result="hardAlpha"/>
<feOffset dy="2"/>
<feGaussianBlur stdDeviation="1"/>
<feComposite in2="hardAlpha" operator="out"/>
<feColorMatrix type="matrix" values="0 0 0 0 0 0 0 0 0 0 0 0 0 0 0 0 0 0 0.25 0"/>
<feBlend mode="normal" in2="BackgroundImageFix" result="effect1_dropShadow_2953_12891"/>
<feBlend mode="normal" in="SourceGraphic" in2="effect1_dropShadow_2953_12891" result="shape"/>
</filter>
<filter id="filter1_d_2953_12891" x="89.0002" y="0" width="132" height="132" filterUnits="userSpaceOnUse" color-interpolation-filters="sRGB">
<feFlood flood-opacity="0" result="BackgroundImageFix"/>
<feColorMatrix in="SourceAlpha" type="matrix" values="0 0 0 0 0 0 0 0 0 0 0 0 0 0 0 0 0 0 127 0" result="hardAlpha"/>
<feOffset dy="2"/>
<feGaussianBlur stdDeviation="1"/>
<feComposite in2="hardAlpha" operator="out"/>
<feColorMatrix type="matrix" values="0 0 0 0 0 0 0 0 0 0 0 0 0 0 0 0 0 0 0.25 0"/>
<feBlend mode="normal" in2="BackgroundImageFix" result="effect1_dropShadow_2953_12891"/>
<feBlend mode="normal" in="SourceGraphic" in2="effect1_dropShadow_2953_12891" result="shape"/>
</filter>
<filter id="filter2_d_2953_12891" x="114.305" y="23.8164" width="80.6174" height="83.7855" filterUnits="userSpaceOnUse" color-interpolation-filters="sRGB">
<feFlood flood-opacity="0" result="BackgroundImageFix"/>
<feColorMatrix in="SourceAlpha" type="matrix" values="0 0 0 0 0 0 0 0 0 0 0 0 0 0 0 0 0 0 127 0" result="hardAlpha"/>
<feOffset dy="2"/>
<feGaussianBlur stdDeviation="1"/>
<feComposite in2="hardAlpha" operator="out"/>
<feColorMatrix type="matrix" values="0 0 0 0 0 0 0 0 0 0 0 0 0 0 0 0 0 0 0.25 0"/>
<feBlend mode="normal" in2="BackgroundImageFix" result="effect1_dropShadow_2953_12891"/>
<feBlend mode="normal" in="SourceGraphic" in2="effect1_dropShadow_2953_12891" result="shape"/>
</filter>
<radialGradient id="paint0_radial_2953_12891" cx="0" cy="0" r="1" gradientUnits="userSpaceOnUse" gradientTransform="translate(155 64) rotate(90) scale(105.674)">
<stop stop-color="#F7FFF3"/>
<stop offset="1" stop-color="#6EFB28"/>
</radialGradient>
<linearGradient id="paint1_linear_2953_12891" x1="154.613" y1="28.0407" x2="154.613" y2="44.7583" gradientUnits="userSpaceOnUse">
<stop stop-color="#E85F43"/>
<stop offset="1" stop-color="#E83636"/>
</linearGradient>
<radialGradient id="paint2_radial_2953_12891" cx="0" cy="0" r="1" gradientUnits="userSpaceOnUse" gradientTransform="translate(129.127 34.0016) scale(2.36095)">
<stop stop-color="#8C1F1F"/>
<stop offset="0.84" stop-color="#450F0F"/>
<stop offset="1" stop-color="#2B0808"/>
</radialGradient>
<linearGradient id="paint3_linear_2953_12891" x1="127.703" y1="29.2136" x2="130.555" y2="29.2136" gradientUnits="userSpaceOnUse">
<stop stop-color="#4F4F4F"/>
<stop offset="0.29" stop-color="#BDBDBD"/>
<stop offset="0.62" stop-color="#BDBDBD"/>
<stop offset="1" stop-color="#4F4F4F"/>
</linearGradient>
<radialGradient id="paint4_radial_2953_12891" cx="0" cy="0" r="1" gradientUnits="userSpaceOnUse" gradientTransform="translate(146.096 23.8395) scale(0.0241505)">
<stop stop-color="#8C1F1F"/>
<stop offset="0.84" stop-color="#450F0F"/>
<stop offset="1" stop-color="#2B0808"/>
</radialGradient>
<linearGradient id="paint5_linear_2953_12891" x1="144.672" y1="23.8164" x2="147.524" y2="23.8164" gradientUnits="userSpaceOnUse">
<stop stop-color="#4F4F4F"/>
<stop offset="0.29" stop-color="#BDBDBD"/>
<stop offset="0.62" stop-color="#BDBDBD"/>
<stop offset="1" stop-color="#4F4F4F"/>
</linearGradient>
<radialGradient id="paint6_radial_2953_12891" cx="0" cy="0" r="1" gradientUnits="userSpaceOnUse" gradientTransform="translate(163.06 23.8395) scale(2.36095)">
<stop stop-color="#8C1F1F"/>
<stop offset="0.84" stop-color="#450F0F"/>
<stop offset="1" stop-color="#2B0808"/>
</radialGradient>
<linearGradient id="paint7_linear_2953_12891" x1="161.637" y1="23.8164" x2="164.489" y2="23.8164" gradientUnits="userSpaceOnUse">
<stop stop-color="#4F4F4F"/>
<stop offset="0.29" stop-color="#BDBDBD"/>
<stop offset="0.62" stop-color="#BDBDBD"/>
<stop offset="1" stop-color="#4F4F4F"/>
</linearGradient>
<radialGradient id="paint8_radial_2953_12891" cx="0" cy="0" r="1" gradientUnits="userSpaceOnUse" gradientTransform="translate(180.037 23.8395) scale(0.0241505)">
<stop stop-color="#8C1F1F"/>
<stop offset="0.84" stop-color="#450F0F"/>
<stop offset="1" stop-color="#2B0808"/>
</radialGradient>
<linearGradient id="paint9_linear_2953_12891" x1="178.614" y1="23.8164" x2="181.466" y2="23.8164" gradientUnits="userSpaceOnUse">
<stop stop-color="#4F4F4F"/>
<stop offset="0.29" stop-color="#BDBDBD"/>
<stop offset="0.62" stop-color="#BDBDBD"/>
<stop offset="1" stop-color="#4F4F4F"/>
</linearGradient>
<linearGradient id="paint10_linear_2953_12891" x1="70.5862" y1="302.5" x2="-4.85864" y2="302.5" gradientUnits="userSpaceOnUse">
<stop stop-color="#2A5315"/>
<stop offset="0.795" stop-color="#DBFFCA"/>
</linearGradient>
<linearGradient id="paint11_linear_2953_12891" x1="0" y1="0.499999" x2="75.9003" y2="0.499992" gradientUnits="userSpaceOnUse">
<stop stop-color="#2A5315"/>
<stop offset="0.795" stop-color="#DBFFCA"/>
</linearGradient>
<radialGradient id="paint12_radial_2953_12891" cx="0" cy="0" r="1" gradientUnits="userSpaceOnUse" gradientTransform="translate(150 303.638) scale(134 3.87283)">
<stop stop-color="#DBFFCA"/>
<stop offset="1" stop-color="#184103"/>
</radialGradient>
</defs>
</svg>
