<svg width="37" height="37" viewBox="0 0 37 37" fill="none" xmlns="http://www.w3.org/2000/svg">
<path d="M15.1756 36.6897C14.4198 36.6219 13.6978 36.4012 12.9795 36.1774C10.6061 35.4383 8.45745 34.2714 6.57186 32.6532C3.34523 29.8835 1.2656 26.424 0.384098 22.2463C0.0385197 20.6096 -0.068049 18.9563 0.0409837 17.3023C0.275681 13.7553 1.42453 10.5134 3.53373 7.63949C6.18932 4.02093 9.70301 1.65376 14.0489 0.537987C14.9859 0.297571 15.9425 0.160103 16.909 0.0719508C17.8324 -0.0125028 18.757 -0.0199002 19.6737 0.0355803C21.8777 0.169966 23.9986 0.689017 26.0216 1.59397C28.3649 2.64193 30.4081 4.1097 32.1348 6.0022C34.4233 8.51115 35.9189 11.4325 36.6169 14.7675C36.9594 16.4048 37.0684 18.0581 36.9593 19.712C36.7259 23.2591 35.5659 26.4936 33.4703 29.3767C32.8974 30.1646 32.2882 30.9234 31.5638 31.5806C31.3291 31.5029 31.2034 31.2884 31.0266 31.1404C30.6373 30.8137 30.2708 30.4598 29.8987 30.1122C29.8094 30.0283 29.7244 29.9371 29.7293 29.7996C29.9307 27.7697 30.0952 25.7372 30.2726 23.706C30.447 21.705 30.6274 19.7053 30.7919 17.703C30.8708 16.7432 30.9638 15.784 31.0402 14.8236C31.0722 14.4235 31.0685 14.4161 30.6521 14.4155C29.3708 14.4137 28.0901 14.4149 26.8088 14.4155C26.6856 14.4155 26.563 14.4167 26.4398 14.4093C24.2173 14.4266 21.9948 14.4124 19.7722 14.4167C19.0934 14.418 19.1082 14.4186 19.1722 15.1121C19.285 16.3246 19.434 17.5347 19.4667 18.7541C19.357 18.9347 19.2264 18.8071 19.1217 18.7615C18.1269 18.3226 17.0871 18.0581 16.0084 17.949C13.9547 17.7406 11.928 17.8405 9.98391 18.6055C8.71556 19.1042 7.6973 19.921 7.02278 21.1311C6.69383 21.7223 6.50533 22.3591 6.40862 23.0236C6.36119 23.3497 6.41909 23.4095 6.74065 23.4138C7.07883 23.4181 7.41763 23.4114 7.75582 23.4169C7.88641 23.4188 8.02625 23.4015 8.1285 23.518C8.20427 23.6968 8.20735 23.8743 8.12296 24.0512C8.00715 24.1653 7.85746 24.1449 7.7164 24.1468C7.31599 24.1517 6.91621 24.1449 6.5158 24.1499C6.11294 24.1548 6.07536 24.1955 6.08152 24.5882C6.04087 24.672 5.9577 24.6923 5.8807 24.7139C5.50309 24.8206 5.29981 25.0943 5.22035 25.453C5.11501 25.9289 5.10577 26.4073 5.31152 26.8678C5.45566 27.1896 5.69837 27.3566 6.05503 27.3622C6.24784 27.3653 6.44435 27.3338 6.63284 27.4004C6.65933 27.4158 6.69629 27.4528 6.68582 27.4651C6.50964 27.6661 6.59835 27.8905 6.6236 28.1093C6.78808 28.8121 7.14598 29.386 7.7435 29.8015C7.90859 30.0413 8.14637 30.2083 8.35704 30.3988C9.81944 31.7168 11.2781 33.0391 12.7411 34.3564C13.4649 35.008 14.1764 35.6738 14.9163 36.3075C15.0327 36.4074 15.1965 36.4924 15.175 36.6928L15.1756 36.6897Z" fill="#B3D2FE"/>
<path d="M29.7686 29.9057C30.3704 30.4605 31.008 30.9765 31.5636 31.58C29.8973 33.2876 27.9508 34.584 25.764 35.5228C23.9307 36.31 22.0205 36.7847 20.0271 36.94C18.4372 37.0639 16.859 36.9961 15.2876 36.7347C15.2488 36.728 15.2124 36.7052 15.1748 36.6891C14.6937 36.1411 14.1104 35.7022 13.5812 35.2047C12.8728 34.5383 12.133 33.9059 11.4098 33.2555C10.1988 32.1669 8.99016 31.0757 7.78156 29.9852C7.74028 29.9483 7.66759 29.9205 7.70825 29.8398C7.79264 29.7769 7.88689 29.7917 7.97375 29.82C8.36245 29.9464 8.76347 29.931 9.16325 29.931C12.2211 29.9304 15.2789 29.9316 18.3368 29.9298C19.0852 29.9298 19.8343 29.9489 20.5827 29.9039C20.733 29.9452 20.8858 29.9378 21.0404 29.9372C22.8361 29.9304 24.6324 29.9199 26.428 29.9402C27.5411 29.9137 28.6555 29.963 29.7686 29.9057Z" fill="#73A7F1"/>
<path d="M19.4064 18.8053C20.3051 19.3213 21.0887 19.9593 21.6338 20.8618C22.0804 21.6009 22.3373 22.3968 22.4162 23.2567C22.4334 23.4447 22.3681 23.4934 22.2006 23.4916C21.8119 23.4873 21.4213 23.5132 21.0351 23.483C20.7191 23.4583 20.6033 23.5631 20.6569 23.8707C20.6673 23.9305 20.6606 23.9934 20.6618 24.0544C20.6224 24.0735 20.5891 24.0655 20.5626 24.0304C20.4641 23.7427 20.2602 23.5986 19.9509 23.5982C18.3746 23.5982 16.7982 23.5982 15.2219 23.5982C14.7851 23.5982 14.7851 23.5995 14.6675 24.0168C14.6502 24.0507 14.6219 24.0692 14.5837 24.0723C14.5215 24.0452 14.4888 23.9884 14.4907 23.9293C14.4987 23.621 14.3206 23.5582 14.0625 23.5939C12.1954 23.6136 10.3295 23.5995 8.46367 23.6013C8.32938 23.6013 8.19571 23.5939 8.08853 23.4959C7.60619 23.4947 7.12263 23.4712 6.64215 23.4996C6.3323 23.5175 6.27686 23.3923 6.30704 23.1291C6.43887 21.985 6.86822 20.9709 7.63576 20.1122C8.70083 18.92 10.0893 18.3183 11.6207 18.028C13.6997 17.6341 15.7756 17.6624 17.8325 18.2012C18.3789 18.3442 18.8982 18.5637 19.4076 18.8059L19.4064 18.8053Z" fill="#D1A97D"/>
<path d="M26.4417 30.0217C26.4417 24.788 26.4429 19.5544 26.4429 14.3207C27.941 14.3182 29.4391 14.3207 30.9373 14.3084C31.183 14.3065 31.1966 14.4163 31.1775 14.611C31.0931 15.4858 31.0204 16.3618 30.9397 17.2371C30.8652 18.0515 30.7814 18.8652 30.7093 19.6795C30.6379 20.484 30.5787 21.2903 30.5085 22.0948C30.4358 22.93 30.3539 23.7641 30.2794 24.5988C30.2301 25.1486 30.1882 25.6997 30.1395 26.2496C30.0625 27.1256 29.9788 28.0003 29.9061 28.8763C29.8777 29.2221 29.8894 29.5723 29.7675 29.9052C29.6689 29.981 29.5654 30.0334 29.4336 30.0328C28.4357 30.0266 27.4384 30.0248 26.4404 30.0211L26.4417 30.0217Z" fill="#C8C8CE"/>
<path d="M22.6278 24.595C23.1305 24.6283 23.4305 24.902 23.566 25.3772C23.6867 25.8007 23.6923 26.2267 23.5777 26.649C23.4237 27.2186 23.1064 27.4541 22.5126 27.4615C22.3487 27.4633 22.1855 27.4621 22.0217 27.4627C21.8985 27.5619 21.7506 27.5459 21.6083 27.5459C16.7659 27.5478 11.9235 27.5478 7.08108 27.5459C6.9394 27.5459 6.79156 27.5619 6.66713 27.4645C6.53407 27.4639 6.40101 27.4633 6.26796 27.4627C5.55524 27.4584 5.21274 27.1828 5.09509 26.4764C5.0378 26.1336 5.03841 25.7841 5.12712 25.4395C5.2651 24.9044 5.53183 24.664 6.07946 24.5913C6.19527 24.5007 6.33264 24.521 6.46385 24.521C7.49873 24.5185 8.53424 24.5013 9.56912 24.5253C10.6052 24.5487 11.5145 24.9692 12.3763 25.5116C12.8974 25.8396 13.3803 26.2218 13.8793 26.5812C14.2046 26.8154 14.4916 26.8302 14.8304 26.5886C15.447 26.1478 16.0452 25.6818 16.7055 25.3027C17.595 24.7916 18.5295 24.4865 19.5693 24.5161C20.4502 24.5407 21.3317 24.5198 22.2132 24.5228C22.3537 24.5228 22.5028 24.4951 22.6272 24.5956L22.6278 24.595Z" fill="#7E5736"/>
<path d="M22.1375 27.8801C22.1227 28.8849 21.5572 29.6481 20.5796 29.9828C20.3159 30.0285 20.0498 30.0334 19.7831 30.0328C16.1598 30.0315 12.5364 30.0297 8.9137 30.0352C8.49789 30.0352 8.09626 29.9933 7.70879 29.8404C7.05028 29.4613 6.7275 28.8578 6.57227 28.1415C6.94864 27.9942 7.33549 27.9258 7.70941 28.1169C8.07347 28.3036 8.69378 28.2747 8.98885 27.9899C9.19952 27.7864 9.39603 27.7057 9.66954 27.8604C9.84448 27.959 10.0324 27.8783 10.2079 27.8277C10.5658 27.7242 10.9065 27.6668 11.2077 27.9775C11.3106 28.0836 11.4732 28.1113 11.6118 28.0416C12.1305 27.7797 12.6485 27.8623 13.1629 28.0379C13.3378 28.0977 13.4752 28.0768 13.6181 27.9646C13.7703 27.8462 13.9458 27.7969 14.1386 27.8635C14.2896 27.9153 14.4448 27.8635 14.5963 27.8795C14.9191 27.9147 15.1594 28.1058 15.3922 28.3123C15.6115 28.5064 15.6688 28.4923 15.7058 28.2056C15.7359 27.972 15.8758 27.8857 16.0754 27.8709C16.3211 27.8524 16.5602 27.8123 16.8004 27.7538C17.0443 27.6946 17.2951 27.7254 17.5107 27.869C17.9277 28.1464 18.3435 28.1773 18.7772 27.9073C19.0038 27.7661 19.2379 27.8271 19.4492 27.9467C19.6242 28.046 19.7732 28.0934 19.9568 27.9603C20.1379 27.8284 20.2654 27.9504 20.3584 28.1002C20.4508 28.2488 20.5593 28.2642 20.6874 28.16C21.0268 27.8838 21.4297 27.866 21.8375 27.8771C21.9379 27.8795 22.0395 27.8271 22.1387 27.8808L22.1375 27.8801Z" fill="#D1A97D"/>
<path d="M26.4432 13.6863C23.8485 13.6888 21.2539 13.6931 18.6587 13.6919C18.3199 13.6919 18.225 13.5575 18.2786 13.2246C18.3581 12.7308 18.4339 12.2358 18.5041 11.7408C18.5632 11.3235 18.6538 11.239 19.0788 11.2378C19.1404 11.2378 19.2026 11.2316 19.2636 11.239C19.6098 11.2791 19.8439 11.2181 20.0232 10.8365C20.2425 10.3692 20.7199 10.1972 21.2355 10.1948C22.3018 10.1898 23.3687 10.1892 24.435 10.1867C24.8366 10.0326 25.2376 10.0376 25.6393 10.1867C25.9091 10.1917 26.1783 10.1966 26.4481 10.2015C26.562 10.3174 26.5448 10.4666 26.5454 10.6078C26.5491 11.4992 26.5491 12.3905 26.5454 13.2819C26.5454 13.4231 26.5614 13.5723 26.4438 13.6863H26.4432Z" fill="#D7D8D9"/>
<path d="M22.6278 24.5951C21.5923 24.6 20.5567 24.6253 19.5219 24.6037C18.5578 24.584 17.6868 24.8564 16.857 25.3169C16.1646 25.7016 15.5468 26.1947 14.8981 26.6435C14.3918 26.9943 14.3148 26.9955 13.8072 26.6374C13.2214 26.2237 12.6596 25.7762 12.0399 25.4112C11.1294 24.8743 10.1654 24.5716 9.0923 24.6018C8.08882 24.6308 7.08351 24.5981 6.07942 24.592C5.98024 24.4829 5.89215 24.3713 5.97839 24.2129C6.05971 24.0631 6.19954 24.0557 6.34676 24.0557C6.92642 24.0551 7.50608 24.0507 8.08574 24.0477C8.17876 23.9712 8.28964 23.9546 8.40422 23.9546C10.3009 23.9546 12.1976 23.9385 14.0949 23.962C14.2544 23.9626 14.4207 23.9324 14.555 24.0563C14.579 24.0563 14.6025 24.0557 14.6265 24.0551C14.7417 23.9441 14.8895 23.9527 15.0312 23.9521C16.7486 23.9496 18.4666 23.9496 20.1841 23.9521C20.3264 23.9521 20.4736 23.9435 20.5906 24.0514C20.614 24.0514 20.6381 24.0526 20.6615 24.0532C21.2251 24.0538 21.7894 24.0557 22.353 24.0544C22.5009 24.0544 22.6505 24.052 22.7257 24.2073C22.7978 24.3565 22.7411 24.4853 22.6278 24.5938V24.5951Z" fill="#EEDE7C"/>
<path d="M26.4434 13.6862C26.4446 12.5248 26.4458 11.3634 26.4471 10.202C27.3076 10.1989 28.1682 10.1786 29.0281 10.1995C29.6238 10.2137 30.0932 10.4776 30.3168 11.0657C30.3735 11.2142 30.4646 11.2407 30.5983 11.2383C30.8133 11.2346 31.0283 11.2383 31.2439 11.2376C31.5168 11.2376 31.6455 11.377 31.6831 11.6451C31.7509 12.129 31.8352 12.6105 31.9166 13.0925C31.9917 13.5395 31.8938 13.6936 31.4835 13.6942C29.8037 13.6973 28.1238 13.6899 26.4434 13.6868V13.6862Z" fill="#99999D"/>
<path d="M25.6379 10.1874C25.2363 10.1874 24.8352 10.1874 24.4336 10.1868C24.4336 9.2325 24.4268 8.27824 24.4367 7.32459C24.4385 7.12178 24.3732 6.98307 24.2322 6.84314C23.0747 5.69408 21.9252 4.53762 20.7696 3.38671C20.6902 3.3078 20.5854 3.25479 20.4678 3.1728C20.7653 2.88553 21.0099 2.66546 21.2341 2.42689C21.3511 2.30299 21.4152 2.32949 21.5211 2.43552C22.8449 3.76582 24.1712 5.09427 25.5018 6.41779C25.617 6.53245 25.641 6.65204 25.6404 6.80245C25.636 7.93117 25.6379 9.05989 25.6373 10.188L25.6379 10.1874Z" fill="#D44736"/>
<path d="M22.138 27.8801C22.0881 27.9153 22.0178 27.9923 21.9907 27.9794C21.692 27.8358 21.4105 28.0799 21.1197 28.0096C20.9509 27.9689 20.8868 28.1082 20.7895 28.1896C20.5025 28.4294 20.46 28.4214 20.2813 28.1002C20.2012 27.956 20.1125 27.8604 19.9641 28.0478C19.8353 28.2099 19.6887 28.2266 19.5144 28.0848C19.2631 27.8801 19.0056 27.858 18.7062 28.0392C18.3126 28.2784 17.9048 28.2284 17.5228 27.9745C17.2395 27.7858 16.9444 27.7205 16.6296 27.8943C16.4639 27.9862 16.2865 27.9208 16.1159 27.9393C15.9163 27.9609 15.7481 27.9997 15.7974 28.2691C15.8177 28.3813 15.7956 28.5114 15.6865 28.5706C15.5535 28.6433 15.4931 28.4972 15.4093 28.4356C15.3194 28.3684 15.2455 28.279 15.1537 28.2143C14.8993 28.0336 14.6344 27.9615 14.3018 27.9609C13.9962 27.9603 13.7252 27.8851 13.504 28.1631C13.4166 28.2734 13.3205 28.1705 13.2262 28.1477C12.8252 28.0521 12.4396 27.8308 12.0059 27.993C11.9585 28.0108 11.9012 28.0114 11.8612 28.0392C11.531 28.2642 11.2525 28.1939 10.9932 27.911C10.8682 27.7747 10.6914 27.7982 10.5294 27.8327C10.3495 27.8709 10.1727 27.9251 9.99466 27.9714C9.87392 28.0028 9.74025 28.0398 9.63861 27.9566C9.37434 27.739 9.20248 27.8789 9.01644 28.0756C8.74232 28.3653 8.01729 28.4177 7.68464 28.1859C7.57992 28.1132 7.46596 28.0756 7.33783 28.0848C7.08219 28.1033 6.82717 28.1224 6.57152 28.1415C6.5284 27.9054 6.37132 27.6533 6.667 27.4653C6.76926 27.4591 6.87152 27.448 6.97377 27.448C11.8876 27.4468 16.8015 27.4468 21.7154 27.4468C21.8176 27.4468 21.9199 27.4573 22.0215 27.4628C22.157 27.575 22.17 27.7211 22.1373 27.8801H22.138Z" fill="#5A9040"/>
<path d="M15.9215 11.2156C15.8907 12.0157 15.5458 12.6926 15.0899 13.3263C14.8102 13.7153 14.4794 14.0735 14.3599 14.5604C14.2195 15.1319 14.3827 15.5893 14.8435 15.9468C14.9162 16.0036 14.9913 16.0584 15.056 16.1238C15.1922 16.2606 15.2014 16.419 15.0837 16.567C14.9716 16.7088 14.8269 16.7544 14.647 16.6743C14.0064 16.387 13.5154 15.4722 13.5967 14.762C13.6645 14.1672 13.9287 13.6715 14.2836 13.2092C14.6914 12.6778 15.061 12.1304 15.1872 11.4498C15.2605 11.0565 15.1614 10.7175 14.9427 10.4062C14.7924 10.1923 14.7425 9.99625 14.9735 9.81748C15.1515 9.68001 15.364 9.75214 15.5402 10.0043C15.7934 10.3667 15.9332 10.7668 15.9209 11.2162L15.9215 11.2156Z" fill="white"/>
<path d="M12.1469 13.6252C12.1266 13.0882 12.3317 12.6395 12.6212 12.2178C12.8171 11.9324 13.0487 11.6698 13.1504 11.3252C13.2089 11.1267 13.2144 10.9461 13.098 10.7673C12.9686 10.5694 12.9668 10.374 13.167 10.2255C13.3413 10.0966 13.5957 10.1848 13.73 10.4252C14.0251 10.9547 13.9198 11.4756 13.6475 11.9737C13.5206 12.2061 13.3493 12.4138 13.2015 12.6352C12.9693 12.9816 12.7919 13.3478 12.8596 13.7811C12.8849 13.9433 12.9563 14.0906 13.074 14.2151C13.2304 14.3803 13.2582 14.5665 13.0777 14.7268C12.8916 14.8926 12.7025 14.8464 12.5374 14.6768C12.2492 14.3809 12.1315 14.0215 12.1469 13.6246V13.6252Z" fill="white"/>
<path d="M14.1283 24.0468C12.114 24.0468 10.1003 24.0475 8.08594 24.0481C8.08594 23.8638 8.08594 23.6794 8.08655 23.4951C10.1003 23.4951 12.114 23.4951 14.1277 23.4951C14.2454 23.6788 14.2614 23.8625 14.1277 24.0462L14.1283 24.0468Z" fill="#D44736"/>
<path d="M20.5905 24.0524C18.6027 24.0537 16.6142 24.0549 14.6264 24.0561C14.589 23.6789 14.7508 23.4902 15.1118 23.4902C16.7725 23.4915 18.4333 23.4927 20.094 23.4939C20.4509 23.4939 20.6164 23.6803 20.5905 24.0531V24.0524Z" fill="#D44736"/>
<path d="M10.7966 21.1503C10.9481 21.1392 11.014 21.2131 10.9678 21.3549C10.8939 21.5793 10.7997 21.7981 10.6253 21.9652C10.488 22.0971 10.3303 22.1027 10.1836 21.9782C10.0364 21.8536 10.0247 21.6995 10.1196 21.5368C10.2071 21.387 10.6235 21.1515 10.7966 21.1503Z" fill="#FEFDFB"/>
<path d="M10.2307 19.9968C10.1728 20.1867 10.0657 20.4493 9.81432 20.62C9.6825 20.7094 9.55375 20.657 9.45149 20.5621C9.33753 20.4567 9.28825 20.318 9.37942 20.1756C9.5439 19.9198 9.80015 19.7983 10.0878 19.7428C10.203 19.7206 10.2597 19.7872 10.2301 19.9968H10.2307Z" fill="#FEFDFC"/>
<path d="M8.14113 21.721C8.14668 21.48 8.69246 21.0725 8.91422 21.1267C9.01463 21.1514 9.0368 21.2285 9.02325 21.3154C8.98136 21.5872 8.84646 21.8128 8.64318 21.991C8.54461 22.0773 8.41772 22.0779 8.30129 22.0083C8.18733 21.9398 8.12943 21.8387 8.14113 21.721Z" fill="#FEFEFD"/>
<path d="M14.1279 24.0471C14.1279 23.8634 14.1279 23.6797 14.1279 23.496C14.5715 23.5009 14.5893 23.3523 14.5548 24.0569C14.4125 24.0539 14.2708 24.0502 14.1285 24.0471H14.1279Z" fill="#6E93C4"/>
</svg>
