<svg width="92" height="70" viewBox="0 0 92 70" fill="none" xmlns="http://www.w3.org/2000/svg">
<path d="M5.50565 0.765452L63.7286 0.765457C66.7568 0.765457 69.2344 3.24307 69.2344 6.27126L69.2344 64.4942C69.2344 67.5224 66.7568 70 63.7286 70L5.50564 70C2.47745 70 -0.000160001 67.5224 -0.000159736 64.4942L-0.000154646 6.27125C-0.000154381 3.24307 2.47745 0.765451 5.50565 0.765452Z" fill="#FDBE6F"/>
<path d="M28.2044 0.765452L86.4273 0.765457C89.4555 0.765457 91.9331 3.24307 91.9331 6.27126L91.9331 64.4942C91.9331 67.5224 89.4555 70 86.4273 70L28.2044 70C25.1762 70 22.6986 67.5224 22.6986 64.4942L22.6986 6.27125C22.6986 3.24307 25.1762 0.765451 28.2044 0.765452Z" fill="#FF7F00"/>
<path d="M10.1258 6.46119L12.6309 6.46119C15.6591 6.46119 18.1367 8.9388 18.1367 11.967L18.1367 58.7989C18.1367 61.8271 15.6591 64.3047 12.6309 64.3047L10.1258 64.3047C7.09759 64.3047 4.61998 61.8271 4.61998 58.7989L4.61998 11.967C4.61998 8.9388 7.0976 6.46119 10.1258 6.46119Z" fill="#FF7F00"/>
<path d="M33.6623 6.1565L80.4942 6.1565C83.5224 6.1565 86 8.63411 86 11.6623L86 58.4942C86 61.5224 83.5224 64 80.4942 64L33.6623 64C30.6341 64 28.1565 61.5224 28.1565 58.4942L28.1565 11.6623C28.1565 8.6341 30.6341 6.1565 33.6623 6.1565Z" fill="#FDBE6F"/>
<path d="M54.4516 14.3654C54.7072 14.0157 55.0557 13.9225 55.5204 14.0623C57.2165 14.6684 58.7267 15.5542 60.051 16.7431C60.3995 17.0927 60.446 17.4657 60.2369 17.862L57.2629 22.5708C56.9377 22.9904 56.5659 23.037 56.1477 22.7106C55.7295 22.3843 54.2425 21.4285 51.6867 19.9133C51.2685 19.6569 51.1988 19.3073 51.4776 18.8877L54.4516 14.3654ZM54.2657 36.9769C53.4293 36.6039 53.2667 35.7181 53.7778 34.2728C54.3122 32.8508 54.8233 31.6387 55.3577 30.6363C55.8689 29.6573 56.5427 29.4008 57.3094 29.8437C62.4441 32.8741 65.5343 37.1633 66.6263 42.7113C67.2071 45.6718 67.1142 48.2826 66.3243 50.5437C65.8596 51.8958 65.2555 52.735 64.4655 53.0613C60.144 54.8096 56.4265 55.7654 53.2899 55.9752C48.7592 56.2782 47.1328 53.8073 48.434 48.539C48.6663 47.5367 49.0613 47.0238 49.6189 47.0238C50.0139 47.0005 50.3624 47.2569 50.6644 47.7698C50.9665 48.2826 52.8484 48.3292 56.2871 47.863C59.7257 47.4201 62.4209 46.7208 64.3494 45.8116C63.7685 42.6647 60.3995 39.7275 54.2657 36.9769Z" fill="#FF7F00"/>
</svg>
