<svg width="92" height="70" viewBox="0 0 92 70" fill="none" xmlns="http://www.w3.org/2000/svg">
<path d="M5.50565 0.765452L63.7286 0.765457C66.7568 0.765457 69.2344 3.24307 69.2344 6.27126L69.2344 64.4942C69.2344 67.5224 66.7568 70 63.7286 70L5.50564 70C2.47745 70 -0.000160001 67.5224 -0.000159736 64.4942L-0.000154646 6.27125C-0.000154381 3.24307 2.47745 0.765451 5.50565 0.765452Z" fill="#FDBE6F"/>
<path d="M28.2044 0.765452L86.4273 0.765457C89.4555 0.765457 91.9331 3.24307 91.9331 6.27126L91.9331 64.4942C91.9331 67.5224 89.4555 70 86.4273 70L28.2044 70C25.1762 70 22.6986 67.5224 22.6986 64.4942L22.6986 6.27125C22.6986 3.24307 25.1762 0.765451 28.2044 0.765452Z" fill="#FF7F00"/>
<path d="M10.1258 6.46119L12.6309 6.46119C15.6591 6.46119 18.1367 8.9388 18.1367 11.967L18.1367 58.7989C18.1367 61.8271 15.6591 64.3047 12.6309 64.3047L10.1258 64.3047C7.09759 64.3047 4.61998 61.8271 4.61998 58.7989L4.61998 11.967C4.61998 8.9388 7.0976 6.46119 10.1258 6.46119Z" fill="#FF7F00"/>
<path d="M33.6623 6.1565L80.4942 6.1565C83.5224 6.1565 86 8.63411 86 11.6623L86 58.4942C86 61.5224 83.5224 64 80.4942 64L33.6623 64C30.6341 64 28.1565 61.5224 28.1565 58.4942L28.1565 11.6623C28.1565 8.6341 30.6341 6.1565 33.6623 6.1565Z" fill="#FDBE6F"/>
<path d="M64.3117 19.2172C64.4572 19.0145 64.6857 18.9537 64.9766 19.0347C66.0155 19.3996 66.9505 19.9469 67.7817 20.6361C67.9894 20.8388 68.031 21.082 67.9063 21.3253L66.0779 24.163C65.8701 24.4266 65.6415 24.4468 65.3714 24.2441C65.1013 24.0414 64.1871 23.4739 62.6079 22.5617C62.3378 22.3996 62.2963 22.1969 62.4833 21.9334L64.3117 19.2172ZM75.3241 32.6359C74.0566 31.7034 72.4359 31.4399 70.462 31.8048C68.4881 32.1696 66.3688 33.1426 64.1247 34.7034C69.2777 34.7439 73.0177 34.0547 75.3241 32.6359ZM73.5371 26.5954C75.5526 26.5752 77.0071 27.7914 77.8797 30.2643C78.1499 31.0143 77.9629 31.9872 77.3395 33.1832C76.7162 34.3993 76.1967 35.1899 75.8227 35.5953C73.8073 37.7439 70.3789 39.0006 65.5376 39.3655C62.7118 39.5884 60.1354 39.4668 57.829 39.0412C57.2888 42.8722 56.4577 45.3654 55.2941 46.5207C52.593 49.1964 49.2269 50.6761 45.1545 50.9599C42.3286 51.1626 40.147 50.595 38.6094 49.318C36.5316 47.5748 35.7005 45.1424 36.0953 42.0614C36.4069 39.6898 37.1342 37.5614 38.277 35.6763C38.8172 34.7642 39.2327 34.1764 39.4613 33.9129C39.7106 33.6291 39.9392 33.5683 40.1885 33.7304C40.4378 33.8926 40.4378 34.1966 40.1885 34.6628C38.8795 37.1155 38.3601 39.3655 38.6302 41.4127C39.0457 44.4735 41.3313 46.014 45.4661 45.9937C48.562 45.9937 51.284 45.2235 53.6319 43.683C54.8993 42.8519 55.6681 42.1424 55.8967 41.5343C55.6681 39.4263 54.9616 37.6425 53.7981 36.1831C53.4656 35.7574 53.3617 35.3723 53.5072 35.0074L54.9616 31.4602C55.2525 30.7305 55.6889 30.7913 56.2291 31.6629L57.5797 33.8723C58.3485 34.298 59.7821 34.5412 61.9015 34.6223C63.6053 32.6967 65.6 30.8926 67.9271 29.19C70.2958 27.467 72.145 26.6157 73.5371 26.5954Z" fill="#FF7F00"/>
</svg>
