<svg width="92" height="70" viewBox="0 0 92 70" fill="none" xmlns="http://www.w3.org/2000/svg">
<path d="M5.50565 -0.000173418L63.7286 -0.000168328C66.7568 -0.000168063 69.2344 2.47744 69.2344 5.50563L69.2344 63.7286C69.2344 66.7568 66.7568 69.2344 63.7286 69.2344L5.50564 69.2344C2.47745 69.2344 -0.000160001 66.7568 -0.000159736 63.7286L-0.000154646 5.50563C-0.000154381 2.47743 2.47745 -0.000173683 5.50565 -0.000173418Z" fill="#FFBBD9"/>
<path d="M28.2044 -0.000173418L86.4273 -0.000168328C89.4555 -0.000168063 91.9331 2.47745 91.9331 5.50563L91.9331 63.7286C91.9331 66.7568 89.4555 69.2344 86.4273 69.2344L28.2044 69.2344C25.1762 69.2344 22.6986 66.7568 22.6986 63.7286L22.6986 5.50563C22.6986 2.47744 25.1762 -0.000173683 28.2044 -0.000173418Z" fill="#F33287"/>
<path d="M10.1258 5.69556L12.6309 5.69556C15.6591 5.69556 18.1367 8.17318 18.1367 11.2014L18.1367 58.0333C18.1367 61.0615 15.6591 63.5391 12.6309 63.5391L10.1258 63.5391C7.09759 63.5391 4.61998 61.0615 4.61998 58.0333L4.61998 11.2014C4.61998 8.17317 7.0976 5.69556 10.1258 5.69556Z" fill="#F33287"/>
<path d="M33.905 5.70044L80.7369 5.70045C83.7651 5.70045 86.2427 8.17805 86.2427 11.2062L86.2427 58.0381C86.2427 61.0663 83.7651 63.5439 80.7369 63.5439L33.905 63.5439C30.8768 63.5439 28.3992 61.0663 28.3992 58.0381L28.3992 11.2062C28.3992 8.17805 30.8768 5.70044 33.905 5.70044Z" fill="#FFBBD9"/>
<path d="M57.5704 23.7243C57.4424 22.9719 57.2931 22.1568 57.1438 21.3207C56.8665 20.631 56.8665 20.0249 57.1651 19.4606L58.2102 17.4542C58.5942 16.7017 58.9994 16.8898 59.4047 17.9767C59.8099 19.0844 60.4285 19.9831 61.2817 20.6728C61.8362 21.1326 61.9002 21.6551 61.431 22.2194L60.4285 23.5153C60.5351 25.3127 60.7911 27.7581 61.175 30.8513C61.5589 33.9446 61.8362 36.3481 61.9429 38.0829C62.1562 40.9253 61.7722 43.4752 60.7911 45.7324C60.1299 47.2373 58.6582 48.5122 56.3333 49.5154C54.0297 50.5395 51.9181 51.0202 50.0198 50.9993C46.1805 50.9366 43.685 49.5363 42.5759 46.7565C42.192 45.7951 42 44.7501 42 43.6006C42 40.57 42.9811 37.853 44.9434 35.4285C45.3487 34.9269 45.69 34.7806 45.9246 35.0314C46.1592 35.2822 46.1379 35.6584 45.8393 36.16C44.5169 38.4382 43.941 40.1729 44.0476 41.3224C44.3462 44.2694 46.7991 45.6697 51.3849 45.5234C55.3308 45.398 58.1463 44.353 59.8099 42.3884C59.1061 37.4559 58.6368 33.7774 58.4022 31.3738C58.1249 29.033 57.8476 26.4622 57.5704 23.7243Z" fill="#F33287"/>
</svg>
