<svg width="39" height="39" viewBox="0 0 39 39" fill="none" xmlns="http://www.w3.org/2000/svg">
<g filter="url(#filter0_d_1999_140)">
<circle cx="19.5" cy="18.5" r="15.5" fill="white"/>
<circle cx="19.5" cy="18.5" r="15" stroke="#FDFDFD"/>
</g>
<path d="M30.3822 27.3485C30.5304 27.3583 30.6057 27.4644 30.6849 27.5639V27.7673C30.5836 27.9511 30.4195 28 30.2113 28C23.5632 27.9973 16.9145 27.9978 10.2663 27.9978C10.2454 27.9978 10.2239 27.9978 10.203 27.9978C10.0196 27.9984 9.86403 27.9511 9.80631 27.7624C9.74633 27.565 9.84592 27.4383 10.0236 27.3534C11.1072 27.2865 12.1919 27.2827 13.2772 27.2996C13.8289 27.2925 14.3806 27.2914 14.9323 27.2996C15.4976 27.2931 16.0629 27.2898 16.6287 27.3007C17.4616 27.3105 18.2946 27.2936 19.1269 27.3007C20.8618 27.305 22.5973 27.3018 24.3321 27.3018C25.9499 27.2985 27.5682 27.3126 29.186 27.2936C29.586 27.2887 29.9821 27.3632 30.3822 27.3474V27.3485Z" fill="#344A21"/>
<path d="M23.3553 9.98461C23.5301 10.0602 23.7146 10.0118 23.894 10.0172C24.2414 10.0276 24.3342 10.1091 24.3342 10.4371C24.3353 12.0081 24.3365 13.5787 24.3376 15.1497C24.3908 15.2416 24.401 15.3411 24.401 15.4439C24.401 17.4006 24.401 19.3572 24.3999 21.3138C24.3999 21.3747 24.3987 21.4356 24.3863 21.4955C24.3501 21.6374 24.2629 21.595 24.1814 21.5422C24.0122 21.4324 23.8482 21.3149 23.6852 21.1969C22.5999 20.41 21.4874 19.6585 20.3959 18.8803C20.1679 18.7182 20.1147 18.7177 19.8912 18.8759C19.1941 19.3702 18.4879 19.8526 17.7913 20.3475C17.5559 20.515 17.5282 20.5215 17.2906 20.3573C16.6104 19.8869 15.9325 19.4127 15.2575 18.9352C15.0928 18.8188 14.9412 18.7345 14.7403 18.8504C14.6797 18.8852 14.6164 18.8775 14.5915 18.7954C14.553 18.5257 14.5779 18.2554 14.5745 17.9852C14.5649 17.0813 14.5649 16.1775 14.5734 15.2737C14.5649 14.7674 14.5926 14.2622 14.6068 13.7565C14.6367 12.6672 14.6158 11.5769 14.6169 10.4865C14.6169 10.4131 14.6022 10.3375 14.6322 10.2658C14.6662 10.0879 14.7901 10.0238 14.9644 10.0238C15.1115 10.0238 15.2597 10.0161 15.4063 10.0254C15.5387 10.0335 15.5732 9.98189 15.5715 9.86171C15.5659 9.38968 15.5681 8.91765 15.5704 8.44562C15.5704 8.37384 15.5466 8.29553 15.6089 8.23354C15.6932 8.3162 15.6762 8.42224 15.6768 8.52176C15.6802 8.88774 15.6768 9.25373 15.6785 9.61971C15.6796 9.90739 15.6898 9.91881 15.9863 9.91935C17.2272 9.92044 18.4687 9.91935 19.7096 9.91935C20.8096 9.91935 21.9096 9.91881 23.0096 9.92044C23.1273 9.92044 23.2518 9.89923 23.3536 9.98352L23.3553 9.98461Z" fill="#3C987A"/>
<path d="M24.3317 21.5744C24.3317 19.5209 24.3329 17.4675 24.3334 15.4141C24.3334 15.326 24.3363 15.2379 24.338 15.1498C25.7288 15.8285 27.1202 16.5071 28.5111 17.1864C28.6729 17.2652 28.8319 17.3495 28.9926 17.4311C29.0532 17.536 29.0583 17.6508 29.0583 17.7666C29.0594 20.8565 29.0594 23.9465 29.0583 27.0364C29.0583 27.3317 29.0447 27.3404 28.7357 27.3404C27.2832 27.3399 25.8307 27.3415 24.3781 27.3393C24.3487 27.3382 24.325 27.3263 24.308 27.3029C24.2678 27.2354 24.2672 27.1604 24.2672 27.0864C24.2655 25.9928 24.265 24.8992 24.2672 23.8051C24.2672 23.7513 24.2701 23.6969 24.2848 23.6447C24.317 23.5408 24.3895 23.5582 24.4653 23.593C24.5473 23.6305 24.6198 23.6833 24.6894 23.7382C24.867 23.8785 25.0577 23.996 25.2795 24.0618C25.3254 24.1265 25.3175 24.201 25.3214 24.2733C25.3356 24.5186 25.3831 24.573 25.6411 24.642C26.2251 24.6823 26.8096 24.6507 27.393 24.6583C27.4139 24.6583 27.4354 24.6562 27.4563 24.6556C28.0047 24.6442 28.0799 24.5713 28.0805 24.0525C28.0805 23.5316 28.0822 23.01 28.0805 22.4891C28.0788 22.103 27.982 22.0116 27.5803 22.0111C27.4886 22.0111 27.3975 22.0056 27.3058 22.0089C26.8158 22.0105 26.3258 22.016 25.8363 22.0062C25.6207 22.0018 25.4357 22.0437 25.2875 22.1987C25.223 22.2313 25.163 22.2123 25.1098 22.1764C24.8614 22.0111 24.6141 21.8452 24.3804 21.6614C24.3527 21.6396 24.3351 21.6103 24.3334 21.5744H24.3317Z" fill="#99CA6E"/>
<path d="M13.2912 27.3377C12.7078 27.3421 12.1244 27.3475 11.5416 27.3502C11.0351 27.3529 10.5287 27.3529 10.0228 27.354C10.2124 27.2741 10.411 27.3263 10.6051 27.3219C10.742 27.3187 10.7879 27.2812 10.7867 27.1468C10.7811 25.9537 10.7816 24.7606 10.7805 23.5675C10.7794 23.4669 10.8693 23.4337 10.9338 23.3886C12.104 22.5609 13.277 21.737 14.4557 20.9197C14.5224 20.8734 14.5852 20.8093 14.6826 20.8332C15.0922 21.085 15.4719 21.377 15.8652 21.6505C16.6585 22.202 17.4462 22.7605 18.24 23.3108C18.4607 23.4636 18.5575 23.6403 18.5541 23.9068C18.5416 24.9357 18.549 25.9646 18.549 26.9935C18.549 27.068 18.5518 27.1425 18.5394 27.2164C18.5275 27.2904 18.4975 27.3415 18.4053 27.341C17.8208 27.3372 17.2362 27.3464 16.6517 27.3355C16.6285 27.3355 16.6149 27.3181 16.6002 27.3035C16.5493 27.2083 16.5623 27.1055 16.5617 27.0049C16.56 26.3154 16.5617 25.6258 16.5606 24.9357C16.5606 24.7764 16.5459 24.6219 16.379 24.5311C16.3156 24.4952 16.2471 24.4892 16.1753 24.4892C15.3661 24.4849 14.557 24.4936 13.7478 24.4985C13.4394 24.5007 13.35 24.5942 13.3483 24.896C13.3443 25.6062 13.3483 26.3159 13.346 27.0261C13.346 27.1322 13.3664 27.2442 13.2906 27.3394L13.2912 27.3377Z" fill="#ECD2A6"/>
<path d="M24.3321 21.5744C24.6326 21.7821 24.9336 21.9893 25.2341 22.1971C25.4881 22.3222 25.7269 22.4674 25.9097 22.6838C25.758 22.879 25.6075 23.0748 25.4519 23.2668C25.2742 23.4854 25.1198 23.5066 24.8923 23.3478C23.5405 22.407 22.1932 21.4602 20.8454 20.514C20.6632 20.3862 20.4747 20.2665 20.3005 20.1295C20.1907 20.043 20.1013 20.0403 19.983 20.1262C19.5733 20.4243 19.1507 20.7065 18.741 21.005C18.5797 21.1225 18.5797 21.1252 18.7432 21.2476C18.8157 21.302 18.8949 21.3466 18.9707 21.396C19.4613 21.7762 19.9819 22.1177 20.4872 22.4782C20.5647 22.5337 20.6598 22.5739 20.675 22.6827C20.5681 22.9541 20.3661 23.1651 20.1743 23.3788C20.0645 23.5011 19.8953 23.493 19.712 23.3706C19.3934 23.1585 19.0805 22.9388 18.7676 22.7191C17.551 21.8632 16.3316 21.011 15.1162 20.1534C14.9651 20.0468 14.8638 20.0914 14.7427 20.1779C13.9737 20.7277 13.1929 21.2617 12.4216 21.8077C11.7183 22.3058 11.007 22.7936 10.3037 23.2918C10.2358 23.3402 10.1667 23.388 10.0898 23.4228C9.9732 23.4761 9.84928 23.4843 9.75252 23.3962C9.52788 23.1906 9.33493 22.96 9.21497 22.6805C9.72592 22.3151 10.2369 21.9496 10.7473 21.5847C10.8418 21.433 11.0081 21.3618 11.1479 21.2634C12.0482 20.626 12.9524 19.993 13.8577 19.3622C14.0546 19.2328 14.2482 19.099 14.4383 18.9609C14.4994 18.9168 14.556 18.863 14.6397 18.8597C14.9555 18.6715 14.9708 18.6726 15.2729 18.8847C15.9729 19.3763 16.6762 19.863 17.3716 20.3606C17.4978 20.4509 17.5782 20.4417 17.6976 20.3563C18.4049 19.8516 19.119 19.3557 19.8302 18.8559C20.1273 18.6471 20.1511 18.646 20.4555 18.8603C21.7236 19.7521 22.9916 20.6434 24.2597 21.5347C24.2817 21.5505 24.3078 21.5608 24.3321 21.5739V21.5744Z" fill="#F9BE4B"/>
<path d="M13.8803 19.3931C12.8442 20.1343 11.8048 20.8712 10.7472 21.5841C10.7455 20.0946 10.7433 18.6046 10.7421 17.1151C10.7416 16.2145 10.7416 15.314 10.7421 14.4129C10.7421 14.0784 10.8508 13.9729 11.192 13.9735C12.0866 13.9746 12.9817 13.9767 13.8763 13.9789C13.8894 13.9947 13.9097 14.0083 13.9114 14.0284C13.9505 14.4433 13.9799 14.8577 13.895 15.271C13.8158 15.3455 13.7139 15.3357 13.6166 15.3363C13.3139 15.3395 13.0117 15.3346 12.709 15.3384C12.3797 15.3423 12.2908 15.4244 12.2891 15.7338C12.2858 16.3353 12.2858 16.9373 12.2891 17.5387C12.2908 17.8509 12.3786 17.9335 12.7056 17.9379C13.0078 17.9422 13.3105 17.9368 13.6132 17.94C13.7106 17.9411 13.8124 17.9308 13.8933 18.0026C13.9454 18.0809 13.9409 18.1695 13.9414 18.2565C13.9431 18.5453 13.9425 18.8341 13.9414 19.1223C13.9414 19.2164 13.9414 19.311 13.8792 19.3926L13.8803 19.3931Z" fill="#99CA6E"/>
<path d="M23.3552 9.98468C20.8485 9.98468 18.3418 9.98414 15.8351 9.98958C15.6643 9.98958 15.6032 9.95097 15.6071 9.77695C15.6179 9.26304 15.6099 8.7486 15.6094 8.23415C15.6439 8.08461 15.7627 8.03186 15.9002 8.00739C15.9619 7.99651 16.0264 8.00086 16.0898 8.00086C18.3385 8.00086 20.5871 8.00086 22.8352 8.00086C23.2624 8.00086 23.3592 8.09331 23.3586 8.50117C23.3581 8.99549 23.3558 9.49036 23.3547 9.98468H23.3552Z" fill="#FBBC41"/>
<path d="M9.215 22.6805C9.37231 22.8784 9.52112 23.0829 9.68861 23.2727C9.85554 23.4614 9.95004 23.4712 10.1583 23.3271C10.9601 22.7708 11.7579 22.209 12.5569 21.6494C13.288 21.1372 14.0207 20.6276 14.7484 20.111C14.8904 20.0098 14.9861 19.9979 15.1445 20.111C16.6332 21.1687 18.131 22.2144 19.6277 23.2624C19.8897 23.4456 20.0628 23.5267 20.2813 23.1824C20.3939 23.0046 20.5297 22.8398 20.6547 22.6691C20.8646 22.6995 20.9789 22.8545 20.9201 23.0329C20.8924 23.1172 20.842 23.1917 20.7888 23.2629C20.6202 23.4875 20.4482 23.7099 20.2767 23.9323C20.1087 24.151 19.927 24.1711 19.6933 24.0194C19.4953 23.8905 19.3063 23.7502 19.1139 23.6137C18.0716 22.8534 17.0005 22.1307 15.9486 21.3835C15.6996 21.2068 15.4421 21.0404 15.2 20.856C15.0472 20.7402 14.9085 20.663 14.7394 20.8207C14.7139 20.8446 14.6709 20.8326 14.6409 20.8511C13.3734 21.7375 12.1059 22.6234 10.839 23.5104C10.8169 23.5256 10.8005 23.5484 10.7818 23.568C10.5753 23.7078 10.3688 23.8481 10.1622 23.9878C9.9523 24.1292 9.81819 24.1091 9.66315 23.9084C9.47472 23.6642 9.28743 23.4184 9.1024 23.1716C8.93774 22.9513 8.96886 22.8257 9.21613 22.681L9.215 22.6805Z" fill="#FAA439"/>
<path d="M24.3373 27.3235C25.8045 27.3224 27.2718 27.3175 28.7396 27.3252C28.945 27.3262 28.9959 27.2702 28.9959 27.0761C28.9897 23.9644 28.9908 20.8522 28.9953 17.7405C28.9953 17.6372 28.9331 17.5333 28.9936 17.4305C29.1821 17.5213 29.3711 17.6111 29.5578 17.7046C29.6602 17.7557 29.7089 17.8438 29.714 17.9526C29.7174 18.0271 29.7168 18.1016 29.7168 18.1761C29.7168 21.1437 29.7191 24.1112 29.7123 27.0793C29.7123 27.2729 29.7592 27.3453 29.9669 27.3279C30.1033 27.3165 30.247 27.2942 30.3828 27.3491C29.8752 27.3523 29.3682 27.3578 28.8612 27.3583C27.4376 27.3594 26.0133 27.3589 24.5897 27.3583C24.5054 27.3583 24.421 27.3529 24.3367 27.3502C24.3367 27.3415 24.3379 27.3322 24.3384 27.3235H24.3373Z" fill="#5EA043"/>
<path d="M13.8768 15.2705C13.8768 14.8398 13.8768 14.4096 13.8768 13.9789C14.0522 13.9773 14.2288 13.9643 14.4031 13.9762C14.5655 13.9876 14.6022 13.9289 14.6017 13.781C14.5955 12.7347 14.5966 11.6884 14.6005 10.6421C14.6005 10.517 14.5632 10.3865 14.6328 10.2658C14.6328 11.9391 14.6317 13.6119 14.6317 15.2852C14.3787 15.3624 14.1264 15.3825 13.8774 15.2705H13.8768Z" fill="#5EA043"/>
<path d="M16.4155 24.4702C16.5955 24.5414 16.6237 24.6866 16.6237 24.8509C16.622 25.5986 16.6226 26.3463 16.6237 27.0946C16.6237 27.1686 16.6294 27.2425 16.6328 27.3165C16.6509 27.341 16.6447 27.3497 16.6141 27.3426C16.0573 27.3518 15.5 27.3627 14.9432 27.3366C14.8442 27.2523 14.8685 27.1376 14.8679 27.0326C14.8651 26.3898 14.8679 25.7476 14.8657 25.1048C14.8651 24.9232 14.8883 24.7394 14.8136 24.5632C14.7819 24.4876 14.8108 24.4501 14.899 24.4522C15.4043 24.4637 15.9102 24.4299 16.4155 24.4707V24.4702Z" fill="#3C987A"/>
<path d="M16.4165 24.4701H14.8197C14.9617 24.6175 14.9351 24.779 14.9357 24.9357C14.9385 25.7356 14.9408 26.5355 14.9436 27.3355C14.393 27.361 13.8425 27.3572 13.2919 27.3377C13.2891 26.4784 13.2851 25.6187 13.2828 24.7595C13.2828 24.561 13.4073 24.4468 13.5963 24.4446C14.5119 24.4332 15.4274 24.4353 16.3429 24.4348C16.3673 24.4348 16.3922 24.4576 16.4165 24.4701Z" fill="#3C987A"/>
<path d="M16.6139 27.3421C16.6195 27.3334 16.6258 27.3247 16.6325 27.3166C17.1888 27.3171 17.7456 27.3138 18.3018 27.3214C18.4512 27.3236 18.4936 27.2763 18.493 27.136C18.488 26.0054 18.4874 24.8748 18.4936 23.7443C18.4942 23.6007 18.4246 23.5131 18.321 23.4403C17.2629 22.6974 16.2025 21.9568 15.1438 21.215C14.974 21.0959 14.8077 20.9725 14.6402 20.8506C14.6476 20.8398 14.6526 20.8262 14.6634 20.8186C14.8467 20.6837 15.0331 20.6826 15.2225 20.8153C16.4832 21.6984 17.7444 22.5816 19.0046 23.4658C19.0487 23.4968 19.0866 23.5371 19.1274 23.573C19.1755 23.6507 19.193 23.7356 19.193 23.8258C19.1936 24.9243 19.1941 26.0228 19.1919 27.1213C19.1919 27.1757 19.1896 27.2301 19.1726 27.2823C19.1624 27.3078 19.1466 27.3301 19.1257 27.3492C18.2882 27.347 17.4513 27.3443 16.6139 27.3421Z" fill="#DAB849"/>
<path d="M19.1255 27.3492C19.125 27.3389 19.1255 27.3285 19.1261 27.3182C19.1946 27.2589 19.28 27.2557 19.3643 27.2562C20.7903 27.2573 22.2162 27.2475 23.6421 27.2606C23.8724 27.2758 24.1106 27.2024 24.3313 27.3193L24.3364 27.3242C24.3342 27.3329 24.3336 27.3416 24.3347 27.3508C23.5052 27.353 22.6757 27.3574 21.8461 27.3568C20.9391 27.3568 20.032 27.3525 19.1255 27.3497V27.3492Z" fill="#202629"/>
<path d="M13.8777 15.2706C14.129 15.2754 14.3808 15.2803 14.632 15.2852C14.632 16.1874 14.632 17.0901 14.6326 17.9923C14.3842 18.1125 14.1324 18.0891 13.8789 18.0103C13.4641 18.0081 13.0493 18.007 12.6346 18.0037C12.3398 18.0016 12.2255 17.8934 12.2249 17.6138C12.2238 16.9651 12.2238 16.3163 12.2249 15.6675C12.2249 15.3875 12.3409 15.2776 12.6334 15.276C13.0482 15.2738 13.463 15.2727 13.8777 15.2711V15.2706Z" fill="#F2D779"/>
<path d="M18.1468 14.6685C17.6608 14.6685 17.1747 14.6718 16.6881 14.669C16.425 14.6679 16.2959 14.551 16.2937 14.2971C16.2886 13.6336 16.2886 12.9696 16.2937 12.3062C16.2954 12.0615 16.4255 11.9402 16.6711 11.9391C17.2347 11.9369 17.7983 11.9391 18.3618 11.9402C18.5259 12.0065 18.591 12.1349 18.5927 12.2964C18.6001 12.9745 18.6029 13.6527 18.5916 14.3302C18.587 14.6065 18.4433 14.7049 18.1468 14.6685Z" fill="#F3D873"/>
<path d="M18.1468 18.0049C17.6608 18.0054 17.1747 18.0082 16.6881 18.006C16.425 18.0049 16.2959 17.8885 16.2937 17.634C16.2886 16.9706 16.2886 16.3066 16.2937 15.6431C16.2954 15.3984 16.4255 15.2766 16.6711 15.2761C17.2347 15.2739 17.7983 15.2761 18.3618 15.2771C18.5259 15.3435 18.591 15.4718 18.5927 15.6333C18.6001 16.3115 18.6029 16.9896 18.5916 17.6672C18.587 17.9435 18.4433 18.0419 18.1468 18.0054V18.0049Z" fill="#F3D874"/>
<path d="M21.619 14.6684C21.1324 14.6684 20.6464 14.6717 20.1597 14.669C19.9141 14.6679 19.8361 14.6021 19.7902 14.3688C19.7761 14.2965 19.7682 14.2214 19.7676 14.1475C19.7659 13.5716 19.7648 12.9957 19.7676 12.4198C19.7687 12.1299 19.8445 11.9151 20.2701 11.9325C20.7906 11.9537 21.3129 11.9391 21.8346 11.9396C21.9976 12.0027 22.0678 12.1212 22.0678 12.2876C22.0695 12.9625 22.0745 13.6374 22.0649 14.3123C22.061 14.6032 21.9218 14.7054 21.6185 14.6674L21.619 14.6684Z" fill="#F3D874"/>
<path d="M21.6201 18.0049C21.1334 18.0049 20.6474 18.0076 20.1608 18.0059C19.9146 18.0049 19.8371 17.9396 19.7913 17.7063C19.7771 17.634 19.7692 17.5589 19.7686 17.485C19.7669 16.9091 19.7658 16.3332 19.7686 15.7573C19.7698 15.4691 19.845 15.2521 20.2705 15.2695C20.7911 15.2907 21.3134 15.276 21.8351 15.2766C21.9981 15.3396 22.0682 15.4582 22.0682 15.6246C22.0699 16.2995 22.075 16.9743 22.0654 17.6492C22.0614 17.9407 21.9222 18.0424 21.6189 18.0043L21.6201 18.0049Z" fill="#F3D873"/>
<path d="M18.1475 14.6685C18.4412 14.6544 18.5323 14.5641 18.5329 14.2846C18.5329 13.6625 18.5267 13.0403 18.5368 12.4182C18.5402 12.2306 18.5012 12.0729 18.3631 11.9408C18.5176 11.9397 18.6726 11.9359 18.8271 11.9391C19.0269 11.9429 19.1638 12.0593 19.1655 12.248C19.1712 12.9512 19.17 13.6543 19.1655 14.3575C19.1644 14.5146 19.0744 14.6304 18.9137 14.668C18.6602 14.7267 18.4027 14.7272 18.147 14.6685H18.1475Z" fill="#DAB848"/>
<path d="M21.6188 14.6685C21.913 14.6544 22.0035 14.5647 22.0041 14.2835C22.0041 13.6598 21.9985 13.0366 22.0081 12.4128C22.0109 12.2274 21.9837 12.067 21.8349 11.9402C21.99 11.9392 22.145 11.9353 22.3001 11.9386C22.5021 11.9424 22.6362 12.0577 22.6379 12.2486C22.643 12.9593 22.6413 13.6706 22.639 14.3814C22.6384 14.5386 22.5326 14.6337 22.3878 14.6675C22.1343 14.7273 21.8762 14.7278 21.6199 14.6685H21.6188Z" fill="#DAB848"/>
<path d="M21.6198 18.0047C21.9141 17.9906 22.0046 17.9009 22.0052 17.6197C22.0052 16.996 21.9995 16.3728 22.0091 15.749C22.0119 15.5636 21.9848 15.4031 21.836 15.2764C21.991 15.2759 22.146 15.2715 22.3011 15.2748C22.5037 15.2792 22.6372 15.3934 22.6389 15.5848C22.644 16.2955 22.6429 17.0068 22.6395 17.7176C22.6389 17.884 22.5229 17.9792 22.3684 18.0096C22.1212 18.058 21.8694 18.0673 21.6209 18.0047H21.6198Z" fill="#DAB848"/>
<path d="M18.147 18.0049C18.4406 17.9913 18.5317 17.9005 18.5323 17.6209C18.5323 16.9988 18.5261 16.3767 18.5363 15.7546C18.5397 15.567 18.5006 15.4093 18.3626 15.2771C18.5244 15.2766 18.6862 15.2695 18.8475 15.2771C19.0387 15.2864 19.1644 15.4044 19.1655 15.5882C19.17 16.2908 19.1706 16.9934 19.1655 17.6954C19.1644 17.8613 19.0653 17.9793 18.8933 18.0109C18.646 18.0565 18.3954 18.068 18.1475 18.0049H18.147Z" fill="#DAB848"/>
<path d="M13.8784 18.0103C14.1297 18.0043 14.3809 17.9983 14.6321 17.9929C14.6344 18.2817 14.6372 18.571 14.6395 18.8597C14.4047 19.0615 14.1489 19.236 13.8801 19.3937C13.8796 18.9326 13.8784 18.4714 13.8779 18.0103H13.8784Z" fill="#5EA043"/>
<path d="M25.6436 21.3405C25.3754 21.3307 25.2656 21.2241 25.2645 20.9647C25.2628 20.3067 25.2628 19.6493 25.2645 18.9912C25.265 18.7231 25.3827 18.6128 25.6656 18.6122C26.2089 18.6111 26.7521 18.6133 27.2953 18.6138C27.4899 18.6894 27.5697 18.8363 27.5708 19.0293C27.5754 19.665 27.5805 20.3007 27.568 20.9365C27.5629 21.1931 27.4752 21.3802 27.117 21.3612C26.6264 21.3351 26.1336 21.3802 25.643 21.34L25.6436 21.3405Z" fill="#F3D874"/>
<path d="M25.9011 22.6816C25.6804 22.518 25.4349 22.3858 25.2346 22.1966C25.3607 21.9807 25.5571 21.9366 25.8021 21.9442C26.3 21.96 26.7986 21.9502 27.2971 21.9508C27.4917 22.0263 27.5715 22.1732 27.5726 22.3662C27.5772 23.0019 27.5817 23.6377 27.5704 24.2734C27.5658 24.5186 27.4861 24.7171 27.1188 24.6981C26.6141 24.672 26.1077 24.7166 25.6024 24.6763C25.3862 24.6562 25.2759 24.5507 25.2657 24.3511C25.2606 24.2516 25.2595 24.1516 25.2566 24.052C25.3443 23.8525 25.5141 23.7067 25.634 23.5284C25.6986 23.4326 25.7693 23.3402 25.8474 23.2548C26.0132 23.0743 26.072 22.8888 25.9017 22.6811L25.9011 22.6816Z" fill="#F3D874"/>
<path d="M25.901 22.6816C26.1137 22.8409 26.1392 22.9524 25.9819 23.1493C25.7408 23.4511 25.5451 23.7861 25.2565 24.0525C25.1314 24.0862 25.0296 24.0433 24.9294 23.9726C24.7348 23.8356 24.5362 23.7045 24.3387 23.5713C24.2459 23.5702 24.1859 23.5082 24.1186 23.4609C22.8573 22.5701 21.5887 21.6891 20.3263 20.8C20.135 20.6651 20.1339 20.6668 19.8583 20.8756C19.6246 21.0322 19.3954 21.1948 19.1663 21.358C19.1091 21.3987 19.0565 21.4705 18.966 21.4243C18.7996 21.3895 18.6983 21.2568 18.5614 21.1774C18.4986 21.141 18.5048 21.1002 18.5704 21.0545C19.0661 20.7124 19.5612 20.3698 20.0501 20.0191C20.152 19.9462 20.2029 20.0071 20.268 20.0528C20.8915 20.4895 21.514 20.9267 22.1375 21.3639C23.0836 22.0274 24.0297 22.6914 24.977 23.3532C25.1252 23.4565 25.278 23.4168 25.4115 23.2482C25.5434 23.0818 25.6735 22.9149 25.8014 22.7458C25.8286 22.7099 25.8557 22.6854 25.9015 22.6816H25.901Z" fill="#F8BC3F"/>
<path d="M19.8326 20.843C20.0223 20.6791 20.2213 20.6704 20.4295 20.8169C21.6908 21.7 22.9521 22.5826 24.2128 23.4663C24.2575 23.4973 24.2965 23.5365 24.3378 23.5713C24.3356 24.8204 24.3333 26.0696 24.3311 27.3181C24.1053 27.3176 23.8795 27.3171 23.6532 27.3165C23.5773 27.229 23.5989 27.1235 23.5983 27.0239C23.5966 25.9537 23.5932 24.8835 23.6011 23.8138C23.6022 23.6235 23.5355 23.5 23.3765 23.3902C22.2991 22.6495 21.2353 21.8904 20.1625 21.1437C20.0402 21.0589 19.888 20.998 19.8326 20.843Z" fill="#DAB848"/>
<path d="M25.602 24.6769C26.1096 24.6758 26.6171 24.6752 27.1247 24.6742C27.3714 24.6742 27.501 24.5784 27.5044 24.343C27.5151 23.6589 27.5078 22.9747 27.5083 22.2906C27.5083 22.1362 27.3708 22.0622 27.2961 21.9513C27.4438 21.9508 27.5921 21.9486 27.7398 21.9491C27.9751 21.9502 28.1398 22.096 28.1415 22.3227C28.146 22.9862 28.1466 23.6502 28.1415 24.3136C28.1398 24.5344 27.9718 24.7095 27.7471 24.7117C27.0568 24.7193 26.3659 24.7133 25.6755 24.7106C25.6512 24.7106 25.6263 24.6883 25.602 24.6769Z" fill="#DAB848"/>
<path d="M25.6432 21.3405C26.1367 21.3394 26.6301 21.3389 27.1235 21.3378C27.3702 21.3372 27.4998 21.2421 27.5032 21.0066C27.5139 20.3225 27.5066 19.6384 27.5077 18.9537C27.5077 18.7993 27.3702 18.7253 27.2955 18.6138C27.4432 18.6133 27.5915 18.6111 27.7391 18.6122C27.9745 18.6133 28.1392 18.759 28.1409 18.9858C28.1454 19.6493 28.146 20.3132 28.1409 20.9767C28.1392 21.1969 27.9706 21.3726 27.7465 21.3748C27.0703 21.3824 26.3936 21.3764 25.7174 21.3737C25.693 21.3737 25.6681 21.3519 25.6438 21.34L25.6432 21.3405Z" fill="#DAB848"/>
<path d="M19.8324 20.8429C21.0399 21.688 22.2468 22.5342 23.456 23.3771C23.5964 23.475 23.6626 23.5794 23.6609 23.7599C23.649 24.9454 23.6541 26.131 23.653 27.3165C22.1438 27.3165 20.6347 27.3176 19.1256 27.3181C19.1256 26.0695 19.1256 24.8209 19.1262 23.5723C19.3197 23.7045 19.5138 23.8361 19.7073 23.9693C19.9427 24.1308 20.0683 24.1156 20.2358 23.8986C20.4191 23.661 20.6013 23.4217 20.7807 23.1819C20.9629 22.9382 20.9335 22.8235 20.6534 22.6691C20.1407 22.3058 19.6275 21.9442 19.1166 21.5787C19.0583 21.5368 18.9728 21.5135 18.9644 21.4243C19.2535 21.2307 19.5427 21.0371 19.8318 20.8435L19.8324 20.8429Z" fill="#ECD2A7"/>
<defs>
<filter id="filter0_d_1999_140" x="0" y="0" width="39" height="39" filterUnits="userSpaceOnUse" color-interpolation-filters="sRGB">
<feFlood flood-opacity="0" result="BackgroundImageFix"/>
<feColorMatrix in="SourceAlpha" type="matrix" values="0 0 0 0 0 0 0 0 0 0 0 0 0 0 0 0 0 0 127 0" result="hardAlpha"/>
<feOffset dy="1"/>
<feGaussianBlur stdDeviation="2"/>
<feComposite in2="hardAlpha" operator="out"/>
<feColorMatrix type="matrix" values="0 0 0 0 0 0 0 0 0 0 0 0 0 0 0 0 0 0 0.25 0"/>
<feBlend mode="normal" in2="BackgroundImageFix" result="effect1_dropShadow_1999_140"/>
<feBlend mode="normal" in="SourceGraphic" in2="effect1_dropShadow_1999_140" result="shape"/>
</filter>
</defs>
</svg>
