<svg width="151" height="342" viewBox="0 0 151 342" fill="none" xmlns="http://www.w3.org/2000/svg">
<path d="M150.711 112.871V340.446H0V112.871C0 78.5698 15.9105 46.1475 43.1197 25.0214L75.3558 0L107.592 25.0214C134.801 46.1475 150.711 78.5698 150.711 112.871Z" fill="#FFB072"/>
<path d="M50.3395 64.7937C49.5821 63.9445 49.2148 62.5903 49.2148 60.7313V58.8952H52.8871V61.2132C52.8871 62.1313 53.1854 62.6133 53.7822 62.6133C54.1264 62.6133 54.356 62.5215 54.4707 62.3149C54.6084 62.1083 54.6773 61.787 54.6773 61.328C54.6773 60.7083 54.6084 60.2263 54.4707 59.8132C54.333 59.423 54.1494 59.0788 53.9199 58.8034C53.6904 58.5279 53.3002 58.1148 52.7035 57.564L51.0969 55.9574C49.8575 54.741 49.2378 53.3868 49.2378 51.9179C49.2378 50.3343 49.605 49.1179 50.3395 48.2687C51.0739 47.4424 52.1297 47.0293 53.5527 47.0293C55.2281 47.0293 56.4445 47.4654 57.179 48.3605C57.9134 49.2556 58.2806 50.6556 58.2806 52.5376H54.4707V51.2523C54.4707 50.9999 54.3789 50.8163 54.2412 50.6556C54.1035 50.5179 53.9199 50.449 53.6674 50.449C53.369 50.449 53.1625 50.5179 53.0248 50.6786C52.8871 50.8392 52.8182 51.0458 52.8182 51.3212C52.8182 51.9409 53.1625 52.5606 53.851 53.2032L56.0314 55.2918C56.5363 55.7738 56.9495 56.2557 57.2937 56.6918C57.638 57.1279 57.8905 57.6558 58.097 58.2525C58.3036 58.8492 58.3954 59.5607 58.3954 60.387C58.3954 62.2231 58.0511 63.6231 57.3855 64.5641C56.7199 65.5051 55.5953 65.9871 54.0576 65.9871C52.3592 65.9871 51.1428 65.574 50.3854 64.7248L50.3395 64.7937Z" fill="black"/>
<path d="M60.1158 64.8136C59.6568 63.9874 59.4272 62.8169 59.4272 61.3021C59.4272 60.0627 59.5879 59.0987 59.9092 58.4332C60.2306 57.7676 60.6896 57.2856 61.2634 56.9643C61.8371 56.6429 62.7323 56.2987 63.9257 55.9315L64.9585 55.5872V53.9576C64.9585 53.5445 64.8667 53.2232 64.7061 52.9937C64.5454 52.7642 64.3389 52.6494 64.1093 52.6494C63.9028 52.6494 63.7192 52.7412 63.5815 52.9248C63.4208 53.1084 63.3519 53.3609 63.3519 53.6822V54.6462H59.6568V54.1183C59.6568 52.5576 60.024 51.433 60.7584 50.7674C61.4929 50.1018 62.6863 49.7575 64.3388 49.7575C65.6471 49.7575 66.7258 50.1018 67.5521 50.7903C68.3783 51.4789 68.7914 52.4428 68.7914 53.7052V65.8464H65.0044V63.9644C64.8208 64.6071 64.5225 65.135 64.1093 65.4792C63.6962 65.8464 63.2142 66.0301 62.6405 66.0301C61.4011 66.0301 60.5748 65.6169 60.1158 64.7907V64.8136ZM64.7749 62.7251C64.8897 62.4955 64.9585 62.1972 64.9585 61.8529V57.4233C64.3848 57.6299 63.9716 57.9053 63.7192 58.2495C63.4438 58.5709 63.306 59.0528 63.306 59.6496V61.6922C63.306 62.6333 63.5815 63.1152 64.1553 63.1152C64.4536 63.1152 64.6602 63.0005 64.7749 62.748V62.7251Z" fill="black"/>
<path d="M72.1711 65.8717L70.2432 49.9664H73.5023L74.558 58.5043L75.4761 49.9664H78.804L79.8827 58.5043L80.7778 49.9664H84.3582L82.3156 65.8717H78.5057L77.381 56.8289L76.3712 65.8717H72.1481H72.1711Z" fill="black"/>
<path d="M85.8184 49.9704H89.5365V51.8295C89.7201 51.141 90.0185 50.636 90.4316 50.3147C90.8447 49.9704 91.4415 49.8098 92.2218 49.8098C92.8415 49.8098 93.3923 49.9475 93.8513 50.2459C94.3104 50.5213 94.6317 50.9114 94.8153 51.4164C95.1366 50.8655 95.4809 50.4524 95.8711 50.2C96.2612 49.9475 96.8121 49.8098 97.5006 49.8098C98.74 49.8098 99.6121 50.2 100.094 50.9574C100.576 51.7147 100.829 52.8164 100.829 54.2623L100.783 65.8987H96.9498V54.1935C96.9498 53.1607 96.6973 52.6558 96.1694 52.6558C95.8022 52.6558 95.5497 52.8394 95.3891 53.1836C95.2284 53.5279 95.1596 53.964 95.1596 54.446V65.8757H91.3496V54.1705C91.3496 53.7115 91.3038 53.3672 91.2119 53.0918C91.1201 52.8164 90.9136 52.6787 90.6152 52.6787C90.225 52.6787 89.9496 52.8623 89.789 53.2525C89.6283 53.6427 89.5594 54.1017 89.5594 54.6296V65.8757H85.8413V49.9704H85.8184Z" fill="black"/>
<path d="M39.9571 74.8243V78.4047H43.6523V79.231H39.9571V83.6376H39.085V73.998H44.5015V74.8243H39.9342H39.9571Z" fill="black"/>
<path d="M50.0844 83.64L49.6254 82.9515C49.4418 83.204 49.2122 83.3876 48.9139 83.5482C48.6155 83.7089 48.3171 83.7777 47.9958 83.7777H47.7893C47.5138 83.7777 47.2384 83.7318 47.0089 83.6171C46.7565 83.5023 46.5499 83.3646 46.3663 83.181C46.1827 82.9974 46.045 82.7908 45.9302 82.5384C45.8155 82.2859 45.7695 82.0334 45.7695 81.758V81.6892C45.7695 81.4137 45.8155 81.1383 45.9302 80.9088C46.045 80.6564 46.1827 80.4498 46.3663 80.2662C46.5499 80.0826 46.7565 79.9449 47.0089 79.8301C47.2614 79.7153 47.5138 79.6694 47.7893 79.6694H49.5336V78.6137C49.5336 78.453 49.5106 78.2924 49.4418 78.1547C49.3729 78.0169 49.3041 77.8792 49.1893 77.7645C49.0745 77.6497 48.9598 77.5809 48.7991 77.512C48.6614 77.4432 48.5007 77.4202 48.3401 77.4202H47.8581C47.6975 77.4202 47.5368 77.4432 47.3991 77.512C47.2614 77.5809 47.1237 77.6497 47.0089 77.7645C46.8942 77.8792 46.8253 77.994 46.7565 78.1547C46.6876 78.2924 46.6646 78.453 46.6646 78.6137V78.8661L45.8384 78.7284V78.6596C45.8384 78.3842 45.8843 78.1088 45.9991 77.8792C46.1138 77.6268 46.2515 77.4202 46.4351 77.2366C46.6188 77.053 46.8253 76.9153 47.0778 76.8005C47.3302 76.6858 47.5827 76.6399 47.8581 76.6399H48.3401C48.6155 76.6399 48.8909 76.6858 49.1204 76.8005C49.35 76.9153 49.5795 77.053 49.7631 77.2366C49.9467 77.4202 50.0844 77.6268 50.1992 77.8792C50.3139 78.1317 50.3598 78.3842 50.3598 78.6596V83.663H50.0844V83.64ZM49.5336 80.3121H47.7893C47.6286 80.3121 47.468 80.335 47.3302 80.4039C47.1925 80.4727 47.0548 80.5416 46.9401 80.6564C46.8253 80.7711 46.7565 80.8859 46.6876 81.0465C46.6188 81.1842 46.5958 81.3449 46.5958 81.5055V81.8039C46.5958 81.9646 46.6188 82.1252 46.6876 82.2629C46.7565 82.4007 46.8253 82.5384 46.9401 82.6531C47.0548 82.7679 47.1696 82.8367 47.3302 82.9056C47.468 82.9744 47.6286 82.9974 47.7893 82.9974H48.3401C48.5007 82.9974 48.6614 82.9744 48.7991 82.9056C48.9368 82.8367 49.0745 82.7679 49.1893 82.6531C49.3041 82.5384 49.3729 82.4236 49.4418 82.2629C49.5106 82.1252 49.5336 81.9646 49.5336 81.8039V80.3121Z" fill="black"/>
<path d="M56.8977 81.8944C56.8977 82.1698 56.8517 82.4223 56.737 82.6518C56.6222 82.8813 56.4616 83.0878 56.278 83.2485C56.0943 83.4092 55.8648 83.5469 55.6124 83.6387C55.3599 83.7305 55.0845 83.7764 54.8091 83.7764H54.2582C53.9828 83.7764 53.7074 83.7305 53.4549 83.6157C53.2025 83.501 52.973 83.3633 52.7893 83.1797C52.6057 82.996 52.4451 82.7895 52.3303 82.537C52.2156 82.2845 52.1697 82.0321 52.1697 81.7567V81.4813L52.9959 81.3435V81.8026C52.9959 81.9632 53.0418 82.1239 53.1107 82.2616C53.1795 82.3993 53.2713 82.537 53.3861 82.6518C53.5009 82.7665 53.6385 82.8354 53.7992 82.9042C53.9599 82.9731 54.1205 82.996 54.2812 82.996H54.832C54.9927 82.996 55.1533 82.9731 55.314 82.9272C55.4747 82.8813 55.6124 82.8124 55.7271 82.7206C55.8419 82.6288 55.9337 82.5141 56.0026 82.3764C56.0714 82.2386 56.1173 82.1009 56.1173 81.9403C56.1173 81.6878 56.0714 81.4812 55.9566 81.3435C55.8419 81.1829 55.7042 81.0452 55.5206 80.9534C55.3369 80.8386 55.1533 80.7698 54.9238 80.7009C54.6943 80.6321 54.4648 80.5632 54.2353 80.4943C54.0058 80.4255 53.7763 80.3566 53.5467 80.2648C53.3172 80.173 53.1107 80.0583 52.95 79.9206C52.7664 79.7829 52.6287 79.5992 52.5139 79.3697C52.3992 79.1402 52.3533 78.8878 52.3533 78.5435C52.3533 78.2681 52.3992 78.0156 52.5139 77.7861C52.6287 77.5566 52.7664 77.35 52.95 77.1893C53.1336 77.0287 53.3402 76.891 53.5927 76.7992C53.8451 76.7074 54.0976 76.6615 54.373 76.6615H54.855C55.1304 76.6615 55.4058 76.7074 55.6353 76.8221C55.8878 76.9369 56.0943 77.0746 56.278 77.2582C56.4616 77.4418 56.5993 77.6484 56.714 77.9008C56.8288 78.1533 56.8747 78.4058 56.8747 78.6812L56.0484 78.8418V78.6353C56.0484 78.4746 56.0255 78.314 55.9566 78.1763C55.8878 78.0386 55.8189 77.9008 55.7042 77.7861C55.5894 77.6713 55.4747 77.6025 55.314 77.5336C55.1763 77.4648 55.0156 77.4418 54.855 77.4418H54.373C54.2123 77.4418 54.0517 77.4648 53.914 77.5107C53.7763 77.5566 53.6386 77.6254 53.5238 77.7172C53.409 77.809 53.3402 77.9238 53.2713 78.0615C53.2025 78.1992 53.1795 78.3369 53.1795 78.4976C53.1795 78.7271 53.2254 78.9337 53.3402 79.0714C53.4549 79.232 53.5927 79.3468 53.7763 79.4615C53.9599 79.5763 54.1435 79.6451 54.373 79.714C54.6025 79.7829 54.832 79.8517 55.0615 79.9206C55.2911 79.9894 55.5206 80.0812 55.7501 80.173C55.9796 80.2648 56.1861 80.3796 56.3468 80.5402C56.5304 80.678 56.6681 80.8845 56.7829 81.0911C56.8976 81.3206 56.9435 81.596 56.9435 81.9173L56.8977 81.8944Z" fill="black"/>
<path d="M61.1199 83.6371C60.8675 83.6371 60.6379 83.5912 60.4084 83.4994C60.1789 83.4076 59.9953 83.2699 59.8346 83.1092C59.674 82.9486 59.5363 82.742 59.4445 82.5354C59.3527 82.3289 59.3068 82.0764 59.3068 81.824V77.532H58.0674V76.7517H59.3068V75.0992L60.133 74.9615V76.7517H61.8773V77.532H60.133V81.8469C60.133 81.9846 60.156 82.1223 60.2019 82.2371C60.2478 82.3518 60.3166 82.4666 60.4084 82.5584C60.5002 82.6502 60.592 82.7191 60.7298 82.765C60.8445 82.8109 60.9822 82.8338 61.1199 82.8338H61.8773V83.6142H61.1199V83.6371Z" fill="black"/>
<path d="M63.7419 75.0997V73.998H64.7059V75.0997H63.7419ZM63.8108 83.6376V76.7522H64.637V83.6376H63.8108Z" fill="black"/>
<path d="M70.4611 83.6409V78.5916C70.4611 78.431 70.4381 78.2703 70.3693 78.1326C70.3004 77.9949 70.2315 77.8572 70.1168 77.7424C70.002 77.6277 69.8873 77.5588 69.7266 77.49C69.5889 77.4211 69.4283 77.3982 69.2676 77.3982H68.7168C68.5561 77.3982 68.3954 77.4211 68.2577 77.49C68.12 77.5588 67.9823 77.6277 67.8676 77.7424C67.7528 77.8572 67.684 77.9719 67.6151 78.1326C67.5462 78.2703 67.5233 78.431 67.5233 78.5916V83.6409H66.697V76.7555H66.9725L67.4315 77.4441C67.6151 77.1916 67.8676 76.985 68.143 76.8244C68.4184 76.6637 68.7397 76.5948 69.084 76.5948H69.2905C69.566 76.5948 69.8414 76.6408 70.0709 76.7555C70.3233 76.8703 70.5299 77.008 70.7135 77.1916C70.8971 77.3752 71.0348 77.5818 71.1496 77.8342C71.2643 78.0867 71.3103 78.3392 71.3103 78.6146V83.618H70.484L70.4611 83.6409Z" fill="black"/>
<path d="M77.6015 85.2912C77.4867 85.5207 77.3491 85.7273 77.1654 85.8879C76.9818 86.0486 76.7753 86.1863 76.5228 86.2781C76.2703 86.3699 76.0178 86.4158 75.7424 86.4158H75.3982C75.1228 86.4158 74.8474 86.3699 74.6178 86.2781C74.3654 86.1863 74.1588 86.0486 73.9752 85.8879C73.7916 85.7273 73.6539 85.5207 73.5391 85.2912C73.4244 85.0617 73.3784 84.8092 73.3784 84.5338C73.3784 84.2354 73.4243 83.983 73.5161 83.7764C73.608 83.5469 73.7457 83.3633 73.9293 83.2026C73.7227 83.0649 73.5391 82.9042 73.4244 82.6747C73.2866 82.4452 73.2407 82.2157 73.2407 81.9403C73.2407 81.6878 73.2867 81.4813 73.4014 81.2747C73.5162 81.0681 73.6539 80.9075 73.8145 80.7698C73.608 80.5861 73.4243 80.3566 73.3096 80.0812C73.1948 79.8058 73.126 79.5304 73.126 79.2091V78.6812C73.126 78.4058 73.1719 78.1303 73.2867 77.9008C73.4014 77.6484 73.5391 77.4418 73.7227 77.2582C73.9063 77.0746 74.1129 76.9369 74.3654 76.8221C74.6178 76.7074 74.8703 76.6615 75.1457 76.6615H75.49C75.8342 76.6615 76.1326 76.7303 76.431 76.891C76.7293 77.0516 76.9589 77.2353 77.1425 77.5107L77.6015 76.8221H77.8769V79.232C77.8769 79.5074 77.831 79.7829 77.7163 80.0124C77.6015 80.2648 77.4638 80.4714 77.2802 80.655C77.0966 80.8386 76.89 80.9763 76.6375 81.0911C76.3851 81.2058 76.1326 81.2517 75.8572 81.2517H74.6637C74.6637 81.2517 74.4801 81.2517 74.3883 81.2976C74.2965 81.3435 74.2276 81.3895 74.1588 81.4583C74.0899 81.5272 74.044 81.596 73.9981 81.6878C73.9522 81.7796 73.9522 81.8714 73.9522 81.9632C73.9522 82.055 73.9522 82.1468 73.9981 82.2387C74.044 82.3305 74.0899 82.3993 74.1588 82.4682C74.2276 82.537 74.2965 82.5829 74.3883 82.6288C74.4801 82.6747 74.5719 82.6747 74.6637 82.6747H75.7883C76.0638 82.6747 76.3392 82.7206 76.5687 82.8124C76.8211 82.9042 77.0277 83.0419 77.2113 83.2026C77.3949 83.3633 77.5326 83.5698 77.6474 83.7993C77.7622 84.0289 77.8081 84.2813 77.8081 84.5567C77.8081 84.8551 77.7622 85.1076 77.6474 85.36L77.6015 85.2912ZM77.0048 78.6123C77.0048 78.4517 76.9818 78.291 76.913 78.1533C76.8441 78.0156 76.7753 77.8779 76.6605 77.7631C76.5458 77.6484 76.431 77.5795 76.2703 77.5107C76.1326 77.4418 75.9719 77.4189 75.8113 77.4189H75.1228C74.9621 77.4189 74.8014 77.4418 74.6637 77.5107C74.526 77.5795 74.3883 77.6484 74.2735 77.7631C74.1588 77.8779 74.0899 77.9926 74.0211 78.1533C73.9522 78.291 73.9293 78.4517 73.9293 78.6123V79.232C73.9293 79.3927 73.9522 79.5533 74.0211 79.691C74.0899 79.8288 74.1588 79.9665 74.2735 80.0812C74.3883 80.196 74.5031 80.2648 74.6637 80.3337C74.8014 80.4025 74.9621 80.4255 75.1228 80.4255H75.8113C75.9719 80.4255 76.1326 80.4025 76.2703 80.3337C76.408 80.2648 76.5458 80.196 76.6605 80.0812C76.7753 79.9665 76.8671 79.8517 76.913 79.691C76.9818 79.5533 77.0048 79.3927 77.0048 79.232V78.6123ZM76.9818 84.442C76.9818 84.2813 76.9589 84.1207 76.89 84.0059C76.8211 83.8682 76.7523 83.7534 76.6375 83.6616C76.5228 83.5698 76.408 83.501 76.2474 83.4551C76.1097 83.4092 75.949 83.3862 75.7883 83.3862H75.3752C75.2146 83.3862 75.0539 83.4092 74.9162 83.4551C74.7785 83.501 74.6408 83.5698 74.526 83.6616C74.4113 83.7534 74.3424 83.8682 74.2735 84.0059C74.2047 84.1436 74.1818 84.2813 74.1818 84.442V84.5567C74.1818 84.7174 74.2047 84.8781 74.2735 84.9928C74.3424 85.1305 74.4113 85.2223 74.526 85.3141C74.6408 85.4059 74.7555 85.4748 74.9162 85.5207C75.0539 85.5666 75.2146 85.5896 75.3752 85.5896H75.7883C75.949 85.5896 76.1097 85.5666 76.2474 85.5207C76.3851 85.4748 76.5228 85.4059 76.6375 85.3141C76.7523 85.2223 76.8211 85.1076 76.89 84.9928C76.9589 84.8551 76.9818 84.7174 76.9818 84.5567V84.442Z" fill="black"/>
<path d="M82.991 75.0997V73.998H83.9549V75.0997H82.991ZM83.0598 83.6376V76.7522H83.8861V83.6376H83.0598Z" fill="black"/>
<path d="M89.7213 83.6409V78.5916C89.7213 78.431 89.6983 78.2703 89.6295 78.1326C89.5606 77.9949 89.4918 77.8572 89.377 77.7424C89.2623 77.6277 89.1475 77.5588 89.0098 77.49C88.8721 77.4211 88.7114 77.3982 88.5508 77.3982H88C87.8393 77.3982 87.6786 77.4211 87.5409 77.49C87.4032 77.5588 87.2655 77.6277 87.1507 77.7424C87.036 77.8572 86.9671 77.9719 86.8983 78.1326C86.8294 78.2933 86.8065 78.431 86.8065 78.5916V83.6409H85.9802V76.7555H86.2556L86.7147 77.4441C86.8983 77.1916 87.1508 76.985 87.4262 76.8244C87.7016 76.6637 88.0229 76.5948 88.3672 76.5948H88.5737C88.8492 76.5948 89.1246 76.6408 89.3541 76.7555C89.6065 76.8703 89.8131 77.008 89.9967 77.1916C90.1803 77.3752 90.318 77.5818 90.4328 77.8342C90.5476 78.0867 90.5934 78.3392 90.5934 78.6146V83.618H89.7672L89.7213 83.6409Z" fill="black"/>
<path d="M98.1648 83.6371C97.9124 83.6371 97.6829 83.5912 97.4534 83.4994C97.2238 83.4076 97.0402 83.2699 96.8796 83.1092C96.7189 82.9486 96.5812 82.742 96.4894 82.5354C96.3976 82.3059 96.3517 82.0764 96.3517 81.824V77.532H95.1123V76.7517H96.3517V75.0992L97.1779 74.9615V76.7517H98.9222V77.532H97.1779V81.8469C97.1779 81.9846 97.2009 82.1223 97.2468 82.2371C97.2927 82.3518 97.3615 82.4666 97.4534 82.5584C97.5452 82.6502 97.637 82.7191 97.7747 82.765C97.9124 82.8109 98.0271 82.8338 98.1648 82.8338H98.9222V83.6142H98.1648V83.6371Z" fill="black"/>
<path d="M104.336 83.6376V78.5883C104.336 78.4277 104.313 78.267 104.244 78.1293C104.176 77.9916 104.107 77.8539 103.992 77.7391C103.877 77.6244 103.762 77.5555 103.602 77.4866C103.464 77.4178 103.303 77.3948 103.143 77.3948H102.592C102.431 77.3948 102.271 77.4178 102.133 77.4866C101.995 77.5555 101.858 77.6244 101.743 77.7391C101.628 77.8539 101.559 77.9686 101.49 78.1293C101.421 78.267 101.399 78.4277 101.399 78.5883V83.6376H100.572V73.998H101.399V77.326C101.582 77.0965 101.812 76.9358 102.087 76.7981C102.362 76.6834 102.638 76.6145 102.936 76.6145H103.143C103.418 76.6145 103.694 76.6604 103.923 76.7752C104.176 76.8899 104.382 77.0276 104.566 77.2112C104.749 77.3948 104.887 77.6014 105.002 77.8539C105.117 78.1063 105.163 78.3588 105.163 78.6342V83.6376H104.336Z" fill="black"/>
<path d="M111.411 82.5384C111.296 82.7908 111.159 82.9974 110.975 83.181C110.791 83.3646 110.585 83.5023 110.332 83.6171C110.08 83.7318 109.827 83.7777 109.552 83.7777H109.001C108.726 83.7777 108.45 83.7318 108.221 83.6171C107.968 83.5023 107.762 83.3646 107.578 83.181C107.395 82.9974 107.257 82.7908 107.142 82.5384C107.027 82.2859 106.981 82.0334 106.981 81.758V78.6596C106.981 78.3842 107.027 78.1088 107.142 77.8792C107.257 77.6268 107.395 77.4202 107.578 77.2366C107.762 77.053 107.968 76.9153 108.221 76.8005C108.473 76.6858 108.726 76.6399 109.001 76.6399H109.552C109.827 76.6399 110.103 76.6858 110.332 76.8005C110.562 76.9153 110.791 77.053 110.975 77.2366C111.159 77.4202 111.296 77.6268 111.411 77.8792C111.526 78.1317 111.572 78.3842 111.572 78.6596V80.2891H107.808V81.8269C107.808 81.9875 107.831 82.1482 107.9 82.2859C107.968 82.4236 108.037 82.5613 108.152 82.6761C108.267 82.7908 108.381 82.8597 108.519 82.9285C108.657 82.9974 108.818 83.0203 108.978 83.0203H109.529C109.69 83.0203 109.85 82.9974 109.988 82.9285C110.126 82.8597 110.264 82.7908 110.378 82.6761C110.493 82.5613 110.562 82.4466 110.631 82.2859C110.7 82.1482 110.723 81.9875 110.723 81.8269V81.3678L111.549 81.5055V81.781C111.549 82.0564 111.503 82.3318 111.388 82.5613L111.411 82.5384ZM110.745 78.6137C110.745 78.453 110.723 78.2924 110.654 78.1547C110.585 78.0169 110.516 77.8792 110.401 77.7645C110.286 77.6497 110.172 77.5809 110.011 77.512C109.873 77.4432 109.713 77.4202 109.552 77.4202H109.001C108.841 77.4202 108.68 77.4432 108.542 77.512C108.404 77.5809 108.267 77.6497 108.175 77.7645C108.06 77.8792 107.991 77.994 107.922 78.1547C107.854 78.2924 107.831 78.453 107.831 78.6137V79.6465H110.768V78.6137H110.745Z" fill="black"/>
<path d="M32.6163 97.4085V90.7985L32.5474 91.2117L30.2982 97.4085H29.8391L27.5899 91.2117L27.544 90.7985V97.4085H26.6719V87.769H27.1309L30.0457 95.6872V96.0544L30.0916 95.6872L33.0064 87.769H33.4655V97.4085H32.5933H32.6163Z" fill="black"/>
<path d="M39.8463 96.3057C39.7316 96.5581 39.5939 96.7647 39.4103 96.9483C39.2267 97.1319 39.0201 97.2696 38.7676 97.3844C38.5152 97.4991 38.2627 97.545 37.9873 97.545H37.4364C37.161 97.545 36.8856 97.4991 36.6561 97.3844C36.4266 97.2696 36.1971 97.1319 36.0135 96.9483C35.8299 96.7647 35.6921 96.5581 35.5774 96.3057C35.4626 96.0532 35.4167 95.8007 35.4167 95.5253V92.4269C35.4167 92.1515 35.4626 91.8761 35.5774 91.6465C35.6921 91.3941 35.8299 91.1875 36.0135 91.0039C36.1971 90.8203 36.4036 90.6826 36.6561 90.5678C36.9086 90.4531 37.161 90.4072 37.4364 90.4072H37.9873C38.2627 90.4072 38.5381 90.4531 38.7676 90.5678C39.0201 90.6826 39.2267 90.8203 39.4103 91.0039C39.5939 91.1875 39.7316 91.3941 39.8463 91.6465C39.9611 91.899 40.007 92.1515 40.007 92.4269V95.5253C40.007 95.8007 39.9611 96.0762 39.8463 96.3057ZM39.1808 92.381C39.1808 92.2203 39.1578 92.0597 39.0889 91.922C39.0201 91.7842 38.9512 91.6465 38.8365 91.5318C38.7217 91.417 38.607 91.3482 38.4463 91.2793C38.3086 91.2105 38.1479 91.1875 37.9873 91.1875H37.4364C37.2758 91.1875 37.1151 91.2105 36.9774 91.2793C36.8397 91.3482 36.702 91.417 36.5873 91.5318C36.4725 91.6465 36.4036 91.7613 36.3348 91.922C36.2659 92.0597 36.243 92.2203 36.243 92.381V95.5712C36.243 95.7319 36.2659 95.8925 36.3348 96.0303C36.4036 96.168 36.4725 96.3057 36.5873 96.4204C36.702 96.5352 36.8168 96.604 36.9774 96.6729C37.1381 96.7417 37.2758 96.7647 37.4364 96.7647H37.9873C38.1479 96.7647 38.3086 96.7417 38.4463 96.6729C38.584 96.604 38.7217 96.5352 38.8365 96.4204C38.9512 96.3057 39.0201 96.1909 39.0889 96.0303C39.1578 95.8925 39.1808 95.7319 39.1808 95.5712V92.381Z" fill="black"/>
<path d="M45.5809 97.4118V92.3625C45.5809 92.2018 45.558 92.0412 45.4891 91.9035C45.4203 91.7658 45.3514 91.628 45.2367 91.5133C45.1219 91.3985 45.0072 91.3297 44.8465 91.2608C44.7088 91.192 44.5481 91.169 44.3875 91.169H43.8366C43.676 91.169 43.5153 91.192 43.3776 91.2608C43.2399 91.3297 43.1022 91.3985 42.9874 91.5133C42.8727 91.628 42.8038 91.7428 42.735 91.9035C42.6661 92.0641 42.6431 92.2018 42.6431 92.3625V97.4118H41.8169V90.5264H42.0923L42.5514 91.2149C42.735 90.9625 42.9874 90.7559 43.2628 90.5952C43.5383 90.4346 43.8596 90.3657 44.2039 90.3657H44.4104C44.6858 90.3657 44.9612 90.4116 45.1907 90.5264C45.4203 90.6411 45.6498 90.7789 45.8334 90.9625C46.017 91.1461 46.1547 91.3526 46.2695 91.6051C46.3842 91.8576 46.4301 92.11 46.4301 92.3854V97.3888H45.6039L45.5809 97.4118Z" fill="black"/>
<path d="M50.7039 97.408C50.4514 97.408 50.2219 97.3621 49.9924 97.2703C49.7629 97.1785 49.5793 97.0408 49.4186 96.8801C49.2579 96.7195 49.1202 96.5129 49.0284 96.3063C48.9366 96.0998 48.8907 95.8473 48.8907 95.5949V91.3029H47.6514V90.5226H48.8907V88.8701L49.717 88.7324V90.5226H51.4613V91.3029H49.717V95.6178C49.717 95.7555 49.7399 95.8932 49.7858 96.008C49.8317 96.1227 49.9006 96.2375 49.9924 96.3293C50.0842 96.4211 50.176 96.49 50.3137 96.5359C50.4285 96.5818 50.5662 96.6047 50.7039 96.6047H51.4613V97.3851H50.7039V97.408Z" fill="black"/>
<path d="M56.899 97.4085V92.3592C56.899 92.1986 56.8761 92.0379 56.8072 91.9002C56.7384 91.7625 56.6695 91.6248 56.5547 91.51C56.44 91.3953 56.3252 91.3264 56.1646 91.2576C56.0269 91.1887 55.8662 91.1658 55.7056 91.1658H55.1547C54.994 91.1658 54.8334 91.1887 54.6957 91.2576C54.558 91.3264 54.4203 91.3953 54.3055 91.51C54.1908 91.6248 54.1219 91.7395 54.0531 91.9002C53.9842 92.0379 53.9613 92.1986 53.9613 92.3592V97.4085H53.135V87.769H53.9613V91.0969C54.1449 90.8674 54.3744 90.7067 54.6498 90.569C54.9252 90.4543 55.2006 90.3854 55.499 90.3854H55.7056C55.981 90.3854 56.2564 90.4313 56.4859 90.5461C56.7384 90.6608 56.9449 90.7985 57.1285 90.9821C57.3121 91.1657 57.4499 91.3723 57.5646 91.6248C57.6794 91.8772 57.7253 92.1297 57.7253 92.4051V97.4085H56.899Z" fill="black"/>
<path d="M67.2531 96.3057C67.1383 96.5581 67.0006 96.7647 66.817 96.9483C66.6334 97.1319 66.4268 97.2696 66.1744 97.3844C65.9219 97.4991 65.6694 97.545 65.394 97.545H64.8432C64.5678 97.545 64.2924 97.4991 64.0628 97.3844C63.8104 97.2696 63.6038 97.1319 63.4202 96.9483C63.2366 96.7647 63.0989 96.5581 62.9841 96.3057C62.8694 96.0532 62.8235 95.8007 62.8235 95.5253V92.4269C62.8235 92.1515 62.8694 91.8761 62.9841 91.6465C63.0989 91.3941 63.2366 91.1875 63.4202 91.0039C63.6038 90.8203 63.8104 90.6826 64.0628 90.5678C64.3153 90.4531 64.5678 90.4072 64.8432 90.4072H65.394C65.6694 90.4072 65.9449 90.4531 66.1744 90.5678C66.4039 90.6826 66.6334 90.8203 66.817 91.0039C67.0006 91.1875 67.1383 91.3941 67.2531 91.6465C67.3678 91.899 67.4138 92.1515 67.4138 92.4269V95.5253C67.4138 95.8007 67.3678 96.0762 67.2531 96.3057ZM66.5875 92.381C66.5875 92.2203 66.5645 92.0597 66.4957 91.922C66.4268 91.7842 66.358 91.6465 66.2432 91.5318C66.1285 91.417 66.0137 91.3482 65.853 91.2793C65.7153 91.2105 65.5547 91.1875 65.394 91.1875H64.8432C64.6825 91.1875 64.5219 91.2105 64.3842 91.2793C64.2465 91.3482 64.1088 91.417 63.994 91.5318C63.8792 91.6465 63.8104 91.7613 63.7415 91.922C63.6727 92.0597 63.6497 92.2203 63.6497 92.381V95.5712C63.6497 95.7319 63.6727 95.8925 63.7415 96.0303C63.8104 96.168 63.8792 96.3057 63.994 96.4204C64.1088 96.5352 64.2235 96.604 64.3842 96.6729C64.5448 96.7417 64.6825 96.7647 64.8432 96.7647H65.394C65.5547 96.7647 65.7153 96.7417 65.853 96.6729C65.9908 96.604 66.1285 96.5352 66.2432 96.4204C66.358 96.3057 66.4268 96.1909 66.4957 96.0303C66.5645 95.8925 66.5875 95.7319 66.5875 95.5712V92.381Z" fill="black"/>
<path d="M71.5684 88.5722C71.4307 88.5722 71.293 88.5952 71.1782 88.6411C71.0635 88.687 70.9487 88.7559 70.8569 88.8477C70.7651 88.9395 70.6962 89.0542 70.6503 89.169C70.6044 89.2837 70.5815 89.4214 70.5815 89.5592V90.5231H72.1881V91.3035H70.5815V97.4085H69.7552V91.3035H68.5159V90.5231H69.7552V89.5821C69.7552 89.3296 69.8012 89.1001 69.893 88.8706C69.9848 88.6411 70.1225 88.4575 70.2831 88.2968C70.4438 88.1362 70.6504 87.9985 70.8569 87.9067C71.0864 87.8148 71.3159 87.769 71.5684 87.769H72.3258V88.5493H71.5684V88.5722Z" fill="black"/>
<path d="M81.4133 97.4085L78.7968 93.3002H77.6033V97.4085H76.7312V87.769H79.7837C80.1051 87.769 80.4264 87.8378 80.7018 87.9526C80.9772 88.0673 81.2297 88.2509 81.4592 88.4575C81.6887 88.6641 81.8494 88.9165 81.9641 89.2149C82.0789 89.5132 82.1477 89.8116 82.1477 90.1329V90.9133C82.1477 91.2346 82.0789 91.5559 81.9641 91.8313C81.8494 92.1297 81.6657 92.3822 81.4592 92.5887C81.2526 92.7953 81.0001 92.9789 80.7018 93.0937C80.4034 93.2084 80.1051 93.2773 79.7837 93.2773L82.4002 97.3856H81.3903L81.4133 97.4085ZM81.2985 90.1559C81.2985 89.9493 81.2526 89.7428 81.1838 89.5592C81.092 89.3755 81.0002 89.2149 80.8625 89.0772C80.7247 88.9395 80.5641 88.8247 80.3805 88.7329C80.1968 88.6411 79.9903 88.6181 79.7837 88.6181H77.6263V92.4969H79.7837C79.9903 92.4969 80.1968 92.451 80.3805 92.3822C80.5641 92.2904 80.7247 92.1986 80.8625 92.0379C81.0002 91.9002 81.1149 91.7395 81.1838 91.5559C81.2756 91.3723 81.2985 91.1658 81.2985 90.9592V90.1788V90.1559Z" fill="black"/>
<path d="M88.2511 97.4073L87.7921 96.7188C87.6085 96.9713 87.379 97.1549 87.0806 97.3155C86.8052 97.4762 86.4839 97.545 86.1626 97.545H85.956C85.6806 97.545 85.4052 97.4991 85.1756 97.3844C84.9232 97.2696 84.7166 97.1319 84.533 96.9483C84.3494 96.7647 84.2117 96.5581 84.0969 96.3057C83.9822 96.0532 83.9363 95.8007 83.9363 95.5253V95.4565C83.9363 95.1811 83.9822 94.9056 84.0969 94.6761C84.2117 94.4237 84.3494 94.2171 84.533 94.0335C84.7166 93.8499 84.9232 93.7122 85.1756 93.5974C85.4281 93.4826 85.6806 93.4367 85.956 93.4367H87.7003V92.381C87.7003 92.2203 87.6773 92.0597 87.6085 91.922C87.5396 91.7842 87.4708 91.6465 87.356 91.5318C87.2413 91.417 87.1265 91.3482 86.9658 91.2793C86.8281 91.2105 86.6675 91.1875 86.5068 91.1875H86.0249C85.8642 91.1875 85.7035 91.2105 85.5658 91.2793C85.4281 91.3482 85.2904 91.417 85.1986 91.5318C85.0839 91.6465 85.015 91.7613 84.9461 91.922C84.8773 92.0597 84.8543 92.2203 84.8543 92.381V92.6335L84.0281 92.4957V92.4269C84.0281 92.1515 84.074 91.8761 84.1887 91.6465C84.3035 91.3941 84.4412 91.1875 84.6248 91.0039C84.8084 90.8203 85.015 90.6826 85.2675 90.5678C85.5199 90.4531 85.7724 90.4072 86.0478 90.4072H86.5298C86.8052 90.4072 87.0806 90.4531 87.3101 90.5678C87.5626 90.6826 87.7692 90.8203 87.9528 91.0039C88.1364 91.1875 88.2741 91.3941 88.3889 91.6465C88.5036 91.899 88.5495 92.1515 88.5495 92.4269V97.4303H88.2741L88.2511 97.4073ZM87.7003 94.0794H85.956C85.7954 94.0794 85.6347 94.1023 85.497 94.1712C85.3592 94.24 85.2216 94.3089 85.1298 94.4237C85.015 94.5384 84.9461 94.6532 84.8773 94.8138C84.8084 94.9515 84.7855 95.1122 84.7855 95.2729V95.5712C84.7855 95.7319 84.8084 95.8925 84.8773 96.0303C84.9461 96.168 85.015 96.3057 85.1298 96.4204C85.2445 96.5352 85.3592 96.604 85.497 96.6729C85.6347 96.7417 85.7954 96.7647 85.956 96.7647H86.5068C86.6675 96.7647 86.8281 96.7417 86.9658 96.6729C87.1035 96.604 87.2413 96.5352 87.356 96.4204C87.4708 96.3057 87.5396 96.1909 87.6085 96.0303C87.6773 95.8925 87.7003 95.7319 87.7003 95.5712V94.0794Z" fill="black"/>
<path d="M97.5949 97.4118V92.3625C97.5949 92.2018 97.572 92.0412 97.5031 91.9035C97.4343 91.7658 97.3654 91.628 97.2506 91.5133C97.1359 91.3985 97.0211 91.3297 96.8834 91.2608C96.7457 91.192 96.5851 91.169 96.4244 91.169H96.0113C95.8506 91.169 95.6899 91.192 95.5522 91.2608C95.4145 91.3297 95.2768 91.3985 95.1621 91.5133C95.0473 91.628 94.9555 91.7428 94.9096 91.9035C94.8407 92.0412 94.8178 92.2018 94.8178 92.3625V97.4118H93.9916V92.3625C93.9916 92.2018 93.9686 92.0412 93.8997 91.9035C93.8309 91.7658 93.762 91.628 93.6473 91.5133C93.5325 91.3985 93.4178 91.3297 93.2571 91.2608C93.1194 91.192 92.9587 91.169 92.7981 91.169H92.3849C92.2243 91.169 92.0636 91.192 91.9259 91.2608C91.7882 91.3297 91.6505 91.3985 91.5357 91.5133C91.421 91.628 91.3521 91.7428 91.2833 91.9035C91.2144 92.0412 91.1915 92.2018 91.1915 92.3625V97.4118H90.3652V90.5264H90.6406L91.0997 91.2149C91.2833 90.9625 91.5357 90.7559 91.8111 90.5952C92.0866 90.4346 92.4079 90.3657 92.7522 90.3657H92.821C93.2112 90.3657 93.5555 90.4575 93.8768 90.6641C94.1981 90.8477 94.4276 91.1231 94.6112 91.4215C94.703 91.2608 94.7948 91.1231 94.9325 90.9854C95.0473 90.8477 95.208 90.733 95.3457 90.6411C95.4834 90.5493 95.667 90.4805 95.8506 90.4346C96.0342 90.3887 96.2178 90.3657 96.4014 90.3657H96.4703C96.7457 90.3657 97.0211 90.4116 97.2506 90.5264C97.5031 90.6411 97.7097 90.7789 97.8933 90.9625C98.0769 91.1461 98.2146 91.3526 98.3294 91.6051C98.4441 91.8576 98.49 92.11 98.49 92.3854V97.3888H97.6638L97.5949 97.4118Z" fill="black"/>
<path d="M104.522 97.4073L104.063 96.7188C103.879 96.9713 103.649 97.1549 103.351 97.3155C103.076 97.4762 102.754 97.545 102.433 97.545H102.227C101.951 97.545 101.676 97.4991 101.446 97.3844C101.217 97.2696 100.987 97.1319 100.804 96.9483C100.62 96.7647 100.482 96.5581 100.367 96.3057C100.253 96.0532 100.207 95.8007 100.207 95.5253V95.4565C100.207 95.1811 100.253 94.9056 100.367 94.6761C100.482 94.4237 100.62 94.2171 100.804 94.0335C100.987 93.8499 101.194 93.7122 101.446 93.5974C101.699 93.4826 101.951 93.4367 102.227 93.4367H103.971V92.381C103.971 92.2203 103.948 92.0597 103.879 91.922C103.81 91.7842 103.741 91.6465 103.627 91.5318C103.512 91.417 103.397 91.3482 103.236 91.2793C103.099 91.2105 102.938 91.1875 102.777 91.1875H102.295C102.135 91.1875 101.974 91.2105 101.836 91.2793C101.699 91.3482 101.561 91.417 101.469 91.5318C101.354 91.6465 101.286 91.7613 101.217 91.922C101.148 92.0597 101.125 92.2203 101.125 92.381V92.6335L100.299 92.4957V92.4269C100.299 92.1515 100.344 91.8761 100.459 91.6465C100.574 91.3941 100.712 91.1875 100.895 91.0039C101.079 90.8203 101.286 90.6826 101.538 90.5678C101.79 90.4531 102.043 90.4072 102.318 90.4072H102.8C103.076 90.4072 103.351 90.4531 103.581 90.5678C103.833 90.6826 104.04 90.8203 104.223 91.0039C104.407 91.1875 104.545 91.3941 104.659 91.6465C104.774 91.899 104.82 92.1515 104.82 92.4269V97.4303H104.545L104.522 97.4073ZM103.971 94.0794H102.227C102.066 94.0794 101.905 94.1023 101.767 94.1712C101.63 94.24 101.492 94.3089 101.4 94.4237C101.286 94.5384 101.217 94.6532 101.148 94.8138C101.079 94.9515 101.056 95.1122 101.056 95.2729V95.5712C101.056 95.7319 101.079 95.8925 101.148 96.0303C101.217 96.168 101.286 96.3057 101.4 96.4204C101.515 96.5352 101.63 96.604 101.767 96.6729C101.905 96.7417 102.066 96.7647 102.227 96.7647H102.777C102.938 96.7647 103.099 96.7417 103.236 96.6729C103.374 96.604 103.512 96.5352 103.627 96.4204C103.741 96.3057 103.81 96.1909 103.879 96.0303C103.948 95.8925 103.971 95.7319 103.971 95.5712V94.0794Z" fill="black"/>
<path d="M110.923 97.4094L110.464 96.7209C110.281 96.9734 110.051 97.1799 109.753 97.3406C109.455 97.5012 109.156 97.5701 108.835 97.5701H108.628C108.353 97.5701 108.078 97.5242 107.848 97.4094C107.596 97.2947 107.389 97.157 107.205 96.9734C107.022 96.7898 106.884 96.5832 106.769 96.3307C106.655 96.0783 106.609 95.8258 106.609 95.5504V92.4519C106.609 92.1765 106.655 91.9011 106.769 91.6716C106.884 91.4191 107.022 91.2126 107.205 91.029C107.389 90.8453 107.596 90.7076 107.848 90.5929C108.1 90.4781 108.353 90.4322 108.628 90.4322H108.835C109.133 90.4322 109.432 90.5011 109.707 90.6158C109.982 90.7306 110.189 90.9142 110.396 91.1437V87.8158H111.222V97.4553H110.946L110.923 97.4094ZM110.373 92.3831C110.373 92.2224 110.35 92.0618 110.281 91.9241C110.212 91.7864 110.143 91.6487 110.028 91.5339C109.914 91.4191 109.799 91.3503 109.638 91.2814C109.5 91.2126 109.34 91.1896 109.179 91.1896H108.628C108.468 91.1896 108.307 91.2126 108.169 91.2814C108.032 91.3503 107.894 91.4191 107.779 91.5339C107.664 91.6487 107.596 91.7634 107.527 91.9241C107.458 92.0618 107.435 92.2224 107.435 92.3831V95.5733C107.435 95.734 107.458 95.8947 107.527 96.0324C107.596 96.1701 107.664 96.3078 107.779 96.4225C107.894 96.5373 108.009 96.6061 108.169 96.675C108.33 96.7438 108.468 96.7668 108.628 96.7668H109.179C109.34 96.7668 109.5 96.7438 109.638 96.675C109.776 96.6061 109.914 96.5373 110.028 96.4225C110.143 96.3078 110.212 96.193 110.281 96.0324C110.35 95.8947 110.373 95.734 110.373 95.5733V92.3831Z" fill="black"/>
<path d="M117.306 97.4073L116.847 96.7188C116.663 96.9713 116.433 97.1549 116.135 97.3155C115.86 97.4762 115.538 97.545 115.217 97.545H115.01C114.735 97.545 114.46 97.4991 114.23 97.3844C113.978 97.2696 113.771 97.1319 113.587 96.9483C113.404 96.7647 113.266 96.5581 113.151 96.3057C113.037 96.0532 112.991 95.8007 112.991 95.5253V95.4565C112.991 95.1811 113.037 94.9056 113.151 94.6761C113.266 94.4237 113.404 94.2171 113.587 94.0335C113.771 93.8499 113.978 93.7122 114.23 93.5974C114.483 93.4826 114.735 93.4367 115.01 93.4367H116.755V92.381C116.755 92.2203 116.732 92.0597 116.663 91.922C116.594 91.7842 116.525 91.6465 116.41 91.5318C116.296 91.417 116.181 91.3482 116.043 91.2793C115.906 91.2105 115.745 91.1875 115.584 91.1875H115.102C114.942 91.1875 114.781 91.2105 114.643 91.2793C114.506 91.3482 114.368 91.417 114.253 91.5318C114.138 91.6465 114.069 91.7613 114.001 91.922C113.932 92.0597 113.909 92.2203 113.909 92.381V92.6335L113.083 92.4957V92.4269C113.083 92.1515 113.128 91.8761 113.243 91.6465C113.358 91.3941 113.496 91.1875 113.679 91.0039C113.863 90.8203 114.069 90.6826 114.322 90.5678C114.574 90.4531 114.827 90.4072 115.102 90.4072H115.584C115.86 90.4072 116.135 90.4531 116.365 90.5678C116.617 90.6826 116.824 90.8203 117.007 91.0039C117.191 91.1875 117.329 91.3941 117.443 91.6465C117.558 91.899 117.604 92.1515 117.604 92.4269V97.4303H117.329L117.306 97.4073ZM116.755 94.0794H115.01C114.85 94.0794 114.689 94.1023 114.551 94.1712C114.414 94.24 114.276 94.3089 114.161 94.4237C114.046 94.5384 113.978 94.6532 113.909 94.8138C113.84 94.9515 113.817 95.1122 113.817 95.2729V95.5712C113.817 95.7319 113.84 95.8925 113.909 96.0303C113.978 96.168 114.046 96.3057 114.161 96.4204C114.276 96.5352 114.391 96.604 114.551 96.6729C114.689 96.7417 114.85 96.7647 115.01 96.7647H115.561C115.722 96.7647 115.883 96.7417 116.02 96.6729C116.158 96.604 116.296 96.5352 116.388 96.4204C116.479 96.3057 116.571 96.1909 116.64 96.0303C116.709 95.8925 116.732 95.7319 116.732 95.5712V94.0794H116.755Z" fill="black"/>
<path d="M123.163 97.4118V92.3625C123.163 92.2018 123.14 92.0412 123.071 91.9035C123.002 91.7658 122.933 91.628 122.818 91.5133C122.704 91.3985 122.589 91.3297 122.428 91.2608C122.291 91.192 122.13 91.169 121.969 91.169H121.418C121.258 91.169 121.097 91.192 120.959 91.2608C120.822 91.3297 120.684 91.3985 120.592 91.5133C120.477 91.628 120.409 91.7428 120.34 91.9035C120.271 92.0412 120.248 92.2018 120.248 92.3625V97.4118H119.422V90.5264H119.697L120.156 91.2149C120.34 90.9625 120.569 90.7559 120.868 90.5952C121.166 90.4346 121.464 90.3657 121.809 90.3657H122.015C122.291 90.3657 122.566 90.4116 122.795 90.5264C123.025 90.6411 123.255 90.7789 123.438 90.9625C123.622 91.1461 123.759 91.3526 123.874 91.6051C123.989 91.8576 124.035 92.11 124.035 92.3854V97.3888H123.209L123.163 97.4118Z" fill="black"/>
<path d="M97.852 197.798C91.242 195.526 85.8485 194.195 85.8485 194.195C85.8485 194.195 80.8909 202.021 72.1235 201.516C64.7791 201.103 60.5561 197.798 58.7658 193.942C58.7658 193.942 51.1919 194.791 45.4311 198.28C39.6703 201.769 35.6309 211.569 35.6309 211.569L113.229 211.087C106.826 202.044 104.462 200.047 97.852 197.798Z" fill="#F8989A"/>
<path d="M104.463 341.015H79.607L75.6364 292.794C75.4758 291.922 74.2364 291.945 74.0987 292.817L70.4035 341.015H44.7898L49.8391 258.757L100.814 259.676L104.463 341.015Z" fill="#7B2838"/>
<path d="M79.1726 190.918C78.4611 189.931 78.6217 187.062 78.7365 185.823C77.0381 186.167 75.202 186.373 73.1593 186.396C70.3363 186.419 67.8575 186.144 65.6083 185.662C65.746 187.154 65.8149 190.597 64.2542 191.606C62.1197 192.983 58.7229 193.97 58.7229 193.97C60.5131 197.826 64.7362 201.131 72.0806 201.544C80.848 202.049 85.8055 194.223 85.8055 194.223C85.8055 194.223 80.848 193.282 79.1496 190.964L79.1726 190.918Z" fill="#FFCFAE"/>
<path d="M72.0984 199.63C65.7868 199.263 61.7932 196.784 59.6588 193.64C59.1079 193.823 58.7407 193.938 58.7407 193.938C60.5309 197.794 64.754 201.099 72.0984 201.512C80.8658 202.017 85.8233 194.19 85.8233 194.19C85.8233 194.19 85.3184 194.076 84.6069 193.892C82.6331 196.141 78.3412 199.997 72.0984 199.63Z" fill="#EF6270"/>
<path d="M48.8337 159.244C49.9813 163.445 49.4993 169.389 49.9125 175.655C50.2797 181.14 57.211 191.468 74.2639 190.068C91.3167 188.668 95.1955 175.701 93.8643 169.894C92.5561 164.087 92.3496 156.628 92.3496 156.628C92.3496 156.628 69.1228 159.061 58.7487 144.165C59.6209 154.539 48.8337 159.244 48.8337 159.244Z" fill="#FFCFAE"/>
<path d="M70.1797 182.695C66.5763 182.489 64.0746 181.41 63.8681 181.318C63.6156 181.203 63.4779 180.905 63.5927 180.63C63.7074 180.377 64.0058 180.24 64.2812 180.354C64.373 180.377 72.6125 183.912 80.5996 179.184C80.8521 179.046 81.1734 179.115 81.3111 179.367C81.4488 179.62 81.38 179.918 81.1275 180.079C77.2028 182.397 73.2781 182.879 70.1567 182.695H70.1797Z" fill="#7B2838"/>
<path d="M100.177 136.817C96.6886 132.985 88.977 132.709 88.977 132.709C88.977 132.709 72.7504 116.207 55.9959 131.975C55.9959 131.975 45.2776 130.965 41.3758 143.382C39.3332 149.762 41.9267 156.257 41.9267 156.257C41.9267 156.257 36.6249 164.13 46.8842 169.936C47.7793 170.441 48.6973 170.946 49.6154 171.428C49.5236 166.792 49.5924 162.546 48.6973 159.31C48.6973 159.31 59.4615 154.605 58.6123 144.231C68.9863 159.126 92.2131 156.693 92.2131 156.693C92.2131 156.693 92.3738 162.087 93.223 167.297C95.564 164.91 96.9641 163.051 96.9641 163.051C96.9641 163.051 103.574 155.018 99.5805 151.3C99.5805 151.3 105.961 143.175 100.177 136.817Z" fill="#7B2838"/>
<path d="M96.2511 161.627C94.5756 160.961 93.3133 162.109 92.6477 162.981C92.8772 165.207 93.2215 167.709 93.7264 169.958C93.8412 170.463 93.8871 171.037 93.933 171.634C95.2642 171.749 96.8937 170.624 97.4446 168.788C97.9265 167.158 98.7987 162.637 96.2511 161.627Z" fill="#FFCFAE"/>
<path d="M49.4089 164.287C48.6286 163.529 47.3433 162.657 45.8285 163.437C43.3956 164.677 44.7039 169.106 45.3465 170.667C46.1957 172.687 48.3302 173.651 49.6384 172.962C49.5466 169.864 49.5466 166.926 49.386 164.287H49.4089Z" fill="#FFCFAE"/>
<path d="M98.1103 241.887C99.6481 260.156 105.294 280.147 105.294 280.147C74.2409 294.996 43.7615 279.573 43.7615 279.573C48.3977 259.33 50.3715 230.962 50.3715 230.962L98.1103 241.887Z" fill="#F8989A"/>
<path d="M143.621 274.821C98.6826 274.362 53.7438 275.325 8.87386 277.689C7.63449 254.004 6.37219 230.318 5.13281 206.632C51.4946 204.199 97.9252 203.212 144.356 203.671C144.103 227.38 143.874 251.112 143.621 274.821Z" fill="white"/>
<path d="M116.127 204.721C115.783 202.839 115.92 201.737 117.022 201.232C118.101 200.727 119.891 201.599 120.855 204.767C121.819 207.934 120.533 209.288 119.57 209.517C118.629 209.747 116.93 209.013 116.127 204.721Z" fill="#FFCFAE"/>
<path d="M118.902 201.349C118.902 201.349 118.902 201.44 118.902 201.578C119.636 202.106 120.348 203.139 120.83 204.768C121.426 206.765 121.151 208.05 120.6 208.762C121.954 210.116 123.882 209.588 124.318 207.913C124.754 206.214 124.662 201.922 123.584 201.073C121.38 199.444 118.856 201.349 118.856 201.349H118.902Z" fill="#FFCFAE"/>
<path d="M123.767 201.281C124.685 202.451 124.754 206.307 124.34 207.913C124.294 208.12 124.203 208.304 124.111 208.487C124.822 209.245 126.406 210.691 127.691 209.727C129.413 208.464 128.678 203.851 128.311 202.405C127.944 200.959 127.049 200.064 125.809 200.271C124.96 200.408 124.18 200.959 123.79 201.281H123.767Z" fill="#FFCFAE"/>
<path d="M127.512 200.887C127.856 201.254 128.155 201.782 128.316 202.425C128.568 203.458 129.004 206.097 128.614 208.002C129.142 208.484 129.945 209.012 130.817 208.691C132.309 208.14 132.562 204.996 132.102 202.769C131.666 200.543 130.565 199.579 129.188 199.74C128.361 199.854 127.834 200.428 127.512 200.91V200.887Z" fill="#FFCFAE"/>
<path d="M36.1599 204.336C36.0681 202.408 35.6779 201.398 34.5074 201.145C33.3369 200.893 31.7991 202.155 31.5926 205.46C31.386 208.765 32.9467 209.798 33.9107 209.798C34.8746 209.798 36.3664 208.719 36.1599 204.336Z" fill="#FFCFAE"/>
<path d="M32.6945 201.696C32.6945 201.696 32.6945 201.787 32.7404 201.925C32.1666 202.614 31.6846 203.761 31.5928 205.46C31.4551 207.548 32.0289 208.719 32.7174 209.316C31.7076 210.945 29.7108 210.853 28.8845 209.316C28.0583 207.778 27.1862 203.578 28.0354 202.476C29.8026 200.387 32.6945 201.673 32.6945 201.673V201.696Z" fill="#FFCFAE"/>
<path d="M27.946 202.752C27.3263 204.083 28.1296 207.87 28.91 209.339C29.0018 209.523 29.1395 209.706 29.2542 209.844C28.7493 210.762 27.5329 212.507 26.064 211.864C24.1131 211.015 23.7689 206.378 23.7918 204.887C23.7918 203.395 24.4804 202.316 25.7198 202.247C26.5919 202.201 27.464 202.546 27.9231 202.775L27.946 202.752Z" fill="#FFCFAE"/>
<path d="M24.2276 203.212C23.9751 203.648 23.8145 204.222 23.7915 204.888C23.7915 205.966 23.9522 208.629 24.7785 210.373C24.3653 210.97 23.6997 211.658 22.7817 211.544C21.221 211.337 20.257 208.353 20.1652 206.058C20.0734 203.763 20.9226 202.593 22.3226 202.455C23.1489 202.363 23.7915 202.822 24.2276 203.212Z" fill="#FFCFAE"/>
<path d="M70.1578 236.53C70.1578 249.154 59.9215 259.367 47.3212 259.367C34.7209 259.367 24.4846 249.131 24.4846 236.53C24.4846 223.93 34.7209 213.694 47.3212 213.694C59.9215 213.694 70.1578 223.93 70.1578 236.53Z" fill="#E6E6E6"/>
<path d="M63.663 236.531C63.663 245.551 56.3415 252.872 47.3216 252.872C38.3017 252.872 30.9802 245.551 30.9802 236.531C30.9802 227.511 38.3017 220.189 47.3216 220.189C56.3415 220.189 63.663 227.511 63.663 236.531Z" fill="#CCCCCC"/>
<path d="M63.0899 236.531C63.0899 245.23 56.0208 252.299 47.3223 252.299C38.6237 252.299 31.5547 245.23 31.5547 236.531C31.5547 227.833 38.6007 220.764 47.3223 220.764C56.0438 220.764 63.0899 227.833 63.0899 236.531Z" fill="#F2F2F2"/>
<g style="mix-blend-mode:multiply" opacity="0.2">
<path d="M37.843 228.471C37.843 225.121 40.0463 221.012 42.7546 221.012C45.4629 221.012 47.6432 225.121 47.6432 228.449C47.6432 231.34 46.0137 233.727 43.8333 234.347L44.4071 251.675C44.4071 252.593 43.6727 253.328 42.7546 253.328C41.8366 253.328 41.1021 252.593 41.1021 251.675L41.6759 234.347C39.4955 233.727 37.866 231.34 37.866 228.449L37.843 228.471Z" fill="#B3B3B3"/>
<path d="M57.8352 221.381C57.4909 221.381 57.2155 221.725 57.2155 222.139V230.057C57.1926 230.447 56.9401 230.768 56.6188 230.768C56.3434 230.768 56.1139 230.516 56.045 230.194V222.139C56.045 221.702 55.7696 221.381 55.4483 221.381C55.104 221.381 54.8286 221.725 54.8286 222.139V230.194C54.7597 230.516 54.5302 230.768 54.2548 230.768C53.9335 230.768 53.681 230.447 53.6581 230.057V222.139C53.6581 221.702 53.3826 221.381 53.0613 221.358C52.7171 221.358 52.4646 221.702 52.4417 222.139V230.034C52.4417 230.447 52.1662 230.768 51.8449 230.768C51.5695 230.768 51.34 230.539 51.2711 230.217V222.139C51.2711 221.702 50.9957 221.381 50.6744 221.381C50.3301 221.381 50.0776 221.725 50.0776 222.139V230.447C50.0776 232.398 51.5695 234.05 53.199 234.601L52.6252 251.975C52.6252 252.893 53.3597 253.628 54.2777 253.628C55.1958 253.628 55.9532 252.893 55.9532 251.975L55.3794 234.601C57.009 234.096 58.5008 232.513 58.5008 230.424V222.116C58.5008 221.679 58.2254 221.358 57.9041 221.358L57.8352 221.381Z" fill="#B3B3B3"/>
</g>
<path d="M37.0203 227.668C37.0203 224.317 39.2236 220.209 41.9089 220.209C44.5942 220.209 46.8205 224.317 46.7975 227.668C46.7975 230.537 45.168 232.947 42.9876 233.544L43.5614 250.872C43.5614 251.79 42.8269 252.525 41.9089 252.525C40.9908 252.525 40.2564 251.767 40.2564 250.872L40.8302 233.544C38.6498 232.924 37.0203 230.537 37.0203 227.668Z" fill="#B3B3B3"/>
<path d="M57.0085 220.557C56.6643 220.557 56.3888 220.901 56.3888 221.337V229.255C56.3659 229.645 56.1134 229.944 55.7921 229.967C55.5167 229.967 55.2872 229.714 55.2183 229.393V221.36C55.2183 220.924 54.9429 220.603 54.6216 220.58C54.2773 220.58 54.0019 220.924 54.0019 221.36V229.393C53.9331 229.714 53.7035 229.967 53.4281 229.967C53.1068 229.967 52.8544 229.645 52.8314 229.255V221.36C52.8314 220.924 52.556 220.58 52.2347 220.58C51.8904 220.58 51.6379 220.924 51.615 221.36V229.232C51.615 229.645 51.3396 229.967 51.0182 229.967C50.7428 229.967 50.5133 229.737 50.4444 229.416V221.337C50.4444 220.901 50.1691 220.557 49.8248 220.557C49.4805 220.557 49.228 220.901 49.228 221.337V229.645C49.228 231.596 50.6969 233.249 52.3494 233.8L51.7756 251.174C51.7756 252.092 52.5101 252.826 53.4281 252.826C54.3462 252.826 55.0806 252.092 55.0806 251.174L54.5068 233.8C56.1364 233.295 57.6282 231.711 57.6282 229.622V221.337C57.6282 220.901 57.3528 220.557 57.0085 220.557Z" fill="#B3B3B3"/>
<g style="mix-blend-mode:multiply" opacity="0.3">
<path d="M43.5763 250.872L43.0025 233.544C45.1829 232.924 46.8124 230.537 46.8124 227.668C46.8124 224.34 44.6091 220.209 41.9238 220.209V252.548C42.8419 252.548 43.5763 251.79 43.5763 250.895V250.872Z" fill="#CCCCCC"/>
</g>
<g style="mix-blend-mode:multiply" opacity="0.3">
<path d="M55.08 251.174L54.5062 233.8C56.1358 233.295 57.6276 231.711 57.6276 229.622V221.337C57.6276 220.901 57.3522 220.557 57.0079 220.557C56.6636 220.557 56.3882 220.901 56.3882 221.337V229.255C56.3653 229.645 56.1128 229.944 55.7915 229.967C55.5161 229.967 55.2865 229.714 55.2177 229.393V221.36C55.2177 220.924 54.9423 220.603 54.621 220.58C54.2767 220.58 54.0013 220.924 54.0013 221.36V229.393C53.9324 229.714 53.7029 229.967 53.4275 229.967V252.849C54.3455 252.849 55.08 252.115 55.08 251.197V251.174Z" fill="#CCCCCC"/>
</g>
<path d="M55.3499 260.84C55.3499 265.27 51.7465 268.873 47.3169 268.873C42.8873 268.873 39.2839 265.27 39.2839 260.84C39.2839 256.41 42.8873 252.83 47.3169 252.83C51.7465 252.83 55.3499 256.41 55.3499 260.84Z" fill="#EB402E"/>
<path d="M48.5795 260.835L50.9434 258.494C51.2877 258.15 51.2877 257.576 50.9434 257.232C50.5992 256.888 50.0254 256.888 49.6582 257.232L47.2942 259.573L44.9531 257.232C44.6089 256.888 44.0351 256.888 43.6679 257.232C43.3236 257.576 43.3236 258.15 43.6679 258.494L46.0089 260.835L43.6679 263.199C43.3236 263.543 43.3236 264.117 43.6679 264.462C44.0121 264.806 44.5859 264.806 44.9531 264.462L47.2942 262.12L49.6582 264.462C50.0024 264.806 50.5762 264.806 50.9434 264.462C51.2877 264.117 51.2877 263.543 50.9434 263.199L48.5795 260.835Z" fill="white"/>
<path d="M123.099 236.529C123.099 249.152 112.885 259.365 100.262 259.365C87.6389 259.365 77.4255 249.129 77.4255 236.529C77.4255 223.928 87.6389 213.692 100.262 213.692C112.885 213.692 123.099 223.905 123.099 236.529Z" fill="#E6E6E6"/>
<path d="M100.86 250.596V248.393C109.008 240.245 107.769 221.586 107.769 221.586H92.0699C92.0699 221.586 90.8305 240.245 98.9783 248.393V250.596C98.9783 250.596 94.9388 250.55 94.2273 253.213C94.2273 253.213 95.3519 253.259 99.8734 253.259H99.9422C104.464 253.259 105.611 253.213 105.611 253.213C104.923 250.573 100.86 250.596 100.86 250.596Z" fill="#BAC7BA"/>
<path d="M93.0559 226.295C93.0789 231.16 93.8133 241.42 99.0003 246.699H100.836C106.023 241.397 106.735 231.16 106.781 226.295H93.0559Z" fill="#00B0D8"/>
<path opacity="0.5" d="M95.3107 223.534H93.9336C93.8189 226.449 93.6812 237.879 98.455 245.315C98.455 245.315 93.4517 235.951 95.3107 223.534Z" fill="white"/>
<path d="M108.294 260.838C108.294 265.268 104.691 268.871 100.261 268.871C95.8314 268.871 92.228 265.268 92.228 260.838C92.228 256.409 95.8314 252.828 100.261 252.828C104.691 252.828 108.294 256.409 108.294 260.838Z" fill="#EB402E"/>
<path d="M101.54 260.832L103.904 258.491C104.248 258.147 104.248 257.573 103.904 257.229C103.559 256.884 102.986 256.884 102.618 257.229L100.254 259.57L97.9133 257.229C97.5691 256.884 96.9953 256.884 96.6281 257.229C96.2838 257.573 96.2838 258.147 96.6281 258.491L98.9691 260.832L96.6281 263.196C96.2838 263.54 96.2838 264.114 96.6281 264.458C96.9723 264.802 97.5461 264.802 97.9133 264.458L100.254 262.117L102.618 264.458C102.963 264.802 103.536 264.802 103.904 264.458C104.248 264.114 104.248 263.54 103.904 263.196L101.54 260.832Z" fill="white"/>
</svg>
