<svg width="92" height="70" viewBox="0 0 92 70" fill="none" xmlns="http://www.w3.org/2000/svg">
<path d="M5.50565 0.765452L63.7286 0.765457C66.7568 0.765457 69.2344 3.24307 69.2344 6.27126L69.2344 64.4942C69.2344 67.5224 66.7568 70 63.7286 70L5.50564 70C2.47745 70 -0.000160001 67.5224 -0.000159736 64.4942L-0.000154646 6.27125C-0.000154381 3.24307 2.47745 0.765451 5.50565 0.765452Z" fill="#FDBE6F"/>
<path d="M28.2044 0.765452L86.4273 0.765457C89.4555 0.765457 91.9331 3.24307 91.9331 6.27126L91.9331 64.4942C91.9331 67.5224 89.4555 70 86.4273 70L28.2044 70C25.1762 70 22.6986 67.5224 22.6986 64.4942L22.6986 6.27125C22.6986 3.24307 25.1762 0.765451 28.2044 0.765452Z" fill="#FF7F00"/>
<path d="M10.1258 6.46119L12.6309 6.46119C15.6591 6.46119 18.1367 8.9388 18.1367 11.967L18.1367 58.7989C18.1367 61.8271 15.6591 64.3047 12.6309 64.3047L10.1258 64.3047C7.09759 64.3047 4.61998 61.8271 4.61998 58.7989L4.61998 11.967C4.61998 8.9388 7.0976 6.46119 10.1258 6.46119Z" fill="#FF7F00"/>
<path d="M33.905 6.46607L80.7369 6.46607C83.7651 6.46607 86.2427 8.94368 86.2427 11.9719L86.2427 58.8038C86.2427 61.832 83.7651 64.3096 80.7369 64.3096L33.905 64.3096C30.8768 64.3096 28.3992 61.832 28.3992 58.8038L28.3992 11.9719C28.3992 8.94367 30.8768 6.46607 33.905 6.46607Z" fill="#FDBE6F"/>
<path d="M54.8065 25.4258C56.1252 21.7607 57.5878 19.9495 59.1942 20.0011C60.4284 20.0269 61.4936 20.8079 62.3896 22.327C63.2773 23.8377 63.8016 25.5545 63.962 27.4513C64.1142 29.3567 63.8099 31.8716 63.0321 35.0131C62.2543 38.1458 60.7749 41.0557 58.6022 43.7335C56.4381 46.3857 54.595 47.7933 53.0734 47.9565C51.8983 48.0938 50.1144 47.9049 47.6967 47.407C45.389 46.9178 43.6387 46.4371 42.4468 45.9479C42.0663 45.7934 41.931 45.5102 42.0326 45.0811C42.1256 44.6519 42.4468 44.48 42.9963 44.5661C44.9914 44.8837 47.4091 44.6948 50.2497 44.0082C51.5855 43.6906 53.6143 42.3601 56.3194 39.9997C59.0247 37.648 60.6479 35.7338 61.172 34.2576C61.1044 33.8713 60.9691 33.365 60.7493 32.7469C59.3121 34.5923 57.5961 35.0471 55.6009 34.1287C53.3523 33.1078 53.0905 30.2067 54.8065 25.4258ZM59.6169 27.872C58.6362 26.2584 57.588 26.1813 56.472 27.6404C57.3257 28.6101 58.3739 28.6875 59.6169 27.872Z" fill="#FF7F00"/>
</svg>
