<svg width="92" height="70" viewBox="0 0 92 70" fill="none" xmlns="http://www.w3.org/2000/svg">
<path d="M5.50565 -0.000173418L63.7286 -0.000168328C66.7568 -0.000168063 69.2344 2.47744 69.2344 5.50563L69.2344 63.7286C69.2344 66.7568 66.7568 69.2344 63.7286 69.2344L5.50564 69.2344C2.47745 69.2344 -0.000160001 66.7568 -0.000159736 63.7286L-0.000154646 5.50563C-0.000154381 2.47743 2.47745 -0.000173683 5.50565 -0.000173418Z" fill="#FFBBD9"/>
<path d="M28.2044 -0.000173418L86.4273 -0.000168328C89.4555 -0.000168063 91.9331 2.47745 91.9331 5.50563L91.9331 63.7286C91.9331 66.7568 89.4555 69.2344 86.4273 69.2344L28.2044 69.2344C25.1762 69.2344 22.6986 66.7568 22.6986 63.7286L22.6986 5.50563C22.6986 2.47744 25.1762 -0.000173683 28.2044 -0.000173418Z" fill="#F33287"/>
<path d="M10.1258 5.69556L12.6309 5.69556C15.6591 5.69556 18.1367 8.17318 18.1367 11.2014L18.1367 58.0333C18.1367 61.0615 15.6591 63.5391 12.6309 63.5391L10.1258 63.5391C7.09759 63.5391 4.61998 61.0615 4.61998 58.0333L4.61998 11.2014C4.61998 8.17317 7.0976 5.69556 10.1258 5.69556Z" fill="#F33287"/>
<path d="M33.6623 5.70044L80.4942 5.70045C83.5224 5.70045 86 8.17805 86 11.2062L86 58.0381C86 61.0663 83.5224 63.5439 80.4942 63.5439L33.6623 63.5439C30.6341 63.5439 28.1565 61.0663 28.1565 58.0381L28.1565 11.2062C28.1565 8.17805 30.6341 5.70044 33.6623 5.70044Z" fill="#FFBBD9"/>
<path d="M64.5148 24.3945C64.7006 24.1476 64.9562 24.0803 65.2814 24.17C66.5125 24.5964 67.6043 25.2248 68.5566 26.0327C68.8122 26.2795 68.8586 26.5488 68.696 26.8181L66.559 30.0946C66.3267 30.3863 66.0479 30.4087 65.7459 30.1843C65.444 29.9599 64.3754 29.2867 62.5171 28.2319C62.2152 28.0524 62.1687 27.8055 62.3545 27.5138L64.5148 24.3945ZM69.0444 40.2605C68.1385 39.2282 66.1641 39.0935 63.1443 39.879C60.1013 40.642 57.5926 41.9436 55.5717 43.7389C61.3557 43.0881 65.8389 41.9211 69.0444 40.2605ZM53.365 24.1027C52.9701 21.3425 52.7378 19.8389 52.6913 19.5696C52.6216 19.3227 52.7145 18.9861 52.9004 18.5148C52.9701 18.47 53.272 17.8192 53.8063 16.54C53.9457 16.1809 54.178 16.0014 54.4799 16.0014C54.7819 15.979 55.0374 16.2258 55.2465 16.742C55.5485 17.505 55.7808 18.066 55.9898 18.4251C56.1756 18.7841 56.5473 19.2778 57.1048 19.8838C57.6623 20.5121 57.7784 21.0507 57.4068 21.522C56.5938 22.487 56.1756 22.9807 56.1756 23.0031C56.8493 30.0048 57.1048 34.4482 56.919 36.2884C56.7564 38.151 56.617 39.4302 56.5473 40.1707C61.0769 36.2435 64.84 34.1116 67.8598 33.7974C68.8586 33.7076 69.7645 33.9096 70.5775 34.4706C72.041 35.4356 72.8308 36.4679 72.9701 37.5675C73.1095 38.6672 72.7611 39.9912 71.9248 41.5621C71.0886 43.133 70.4149 44.1877 69.8807 44.7263C69.0444 45.5566 66.6054 46.6114 62.5636 47.8456C58.5218 49.0799 54.2012 49.8205 49.6483 50C47.8597 49.7083 46.3963 49.1472 45.3045 48.3169C44.1895 47.509 43.3765 46.7909 42.8655 46.185C41.5182 44.5692 41.7505 43.8511 43.5159 44.053C45.9085 44.3223 48.7656 44.3672 52.1106 44.1428L54.7122 41.6967C54.8748 37.747 54.4103 31.845 53.365 24.1027Z" fill="#F33287"/>
</svg>
