<svg width="271" height="27" viewBox="0 0 271 27" fill="none" xmlns="http://www.w3.org/2000/svg">
<mask id="path-1-outside-1_3185_892" maskUnits="userSpaceOnUse" x="-2" y="-2" width="275" height="32" fill="black">
<rect fill="white" x="-2" y="-2" width="275" height="32"/>
<path d="M0.91325 2.6L21.9373 5.16L21.9373 11.24L0.24125 13.384L0.91325 2.6ZM2.00125 11.88L12.4013 10.856L11.2493 25L1.00925 25L2.00125 11.88ZM10.3533 16.136L20.3373 15.048L19.9853 20.232L10.0333 19.656L10.3533 16.136ZM23.8663 4.232C25.3703 3.24 29.2423 2.184 33.2743 2.184C51.5783 2.184 48.8263 20.008 31.6743 20.008C30.8103 20.008 30.4903 17.352 31.3542 17.352C39.1623 17.352 39.9943 8.648 32.9863 8.648C29.5303 8.648 26.5543 9.608 24.6983 10.952C24.3463 8.68 24.2183 6.504 23.8663 4.232ZM26.4263 7.912L33.6263 6.984L34.6503 25.896L25.4663 25L26.4263 7.912ZM35.5143 17.576L40.2823 15.272L45.9463 23.752L37.9463 26.952L35.5143 17.576ZM47.8663 16.2L48.2183 9.8L57.0823 10.184L58.4583 25L48.1223 25L49.5623 16.008L47.8663 16.2ZM49.2423 4.328C49.2423 2.184 50.9703 0.455999 53.1143 0.455999C55.2583 0.455999 56.9863 2.184 56.9863 4.328C56.9863 6.472 55.2583 8.2 53.1143 8.2C50.9703 8.2 49.2423 6.472 49.2423 4.328ZM70.0943 9.96C70.3503 14.504 70.5743 18.088 70.8303 22.216C76.3983 20.296 78.5423 9.928 70.7343 9.928C70.5103 9.928 70.2863 9.928 70.0943 9.96ZM60.3663 4.072C62.1263 2.888 66.4783 1.832 69.5823 1.832C88.1103 1.832 88.0463 25.96 69.2623 25.96C66.4463 25.96 63.4062 25.352 61.8063 24.424C62.2543 20.552 62.7663 15.976 63.1823 12.136C62.4463 12.584 61.8063 13.032 61.2943 13.48C60.9743 10.376 60.6863 7.176 60.3663 4.072ZM89.8288 16.968L93.9888 16.744L92.5168 8.584L89.8288 16.968ZM94.6608 20.52L88.6128 20.744L87.1408 25.384L83.4288 22.824L89.0928 2.6L100.965 3.464L105.061 23.528L95.6208 25.864L94.6608 20.52ZM105.048 9.704L103.96 3.656L113.4 3.656L115.512 11.336L119.064 3.432L125.336 3.08L117.56 16.168L118.84 25.64L109.048 25L110.328 15.272L107.192 7.72L108.952 8.136L105.048 9.704ZM146.249 14.952C146.057 13.832 145.545 12.968 144.713 12.936C142.249 12.872 141.961 17.128 144.937 17.288C145.001 17.288 145.065 17.288 145.129 17.288C147.177 17.288 148.713 15.464 150.793 15.464C156.969 15.464 156.201 25.672 145.161 25.672C140.105 25.672 136.681 23.624 135.241 22.056L137.609 19.112C139.113 20.424 142.313 22.28 145.225 22.28C146.793 22.28 147.081 21.48 147.081 21.128C147.081 18.632 135.945 21.8 135.945 12.04C135.945 7.272 140.169 2.728 145.641 2.728C152.265 2.728 153.449 8.136 153.769 10.12L146.249 14.952ZM155.71 12.104V3.496L165.15 3.848C165.086 8.232 164.35 18.76 167.838 18.76C171.358 18.76 171.07 9.288 170.75 3.56L175.454 3.176C175.838 10.44 177.95 25.64 165.566 25.64C157.502 25.64 157.086 17.256 157.47 12.296L155.71 12.104ZM191.309 25L185.997 16.968L185.549 25H178.125L178.989 12.104L177.773 12.008V5.736L186.797 3.112L191.917 14.824L193.037 3.336L199.821 3.336L199.149 25H191.309ZM215.277 25L209.965 16.968L209.517 25L202.093 25L202.957 12.104L201.741 12.008V5.736L210.765 3.112L215.885 14.824L217.005 3.336L223.789 3.336L223.117 25H215.277ZM232.11 16.968L236.27 16.744L234.798 8.584L232.11 16.968ZM236.942 20.52L230.894 20.744L229.422 25.384L225.71 22.824L231.374 2.6L243.246 3.464L247.342 23.528L237.902 25.864L236.942 20.52ZM249.305 3.56L258.425 3.432L259.769 25L249.273 25L251.193 10.856L252.281 12.296H249.305V3.56ZM264.569 3.592L270.745 3.496V25H262.809L264.569 3.592ZM255.513 14.024L265.657 13.128V17.768L255.385 19.688L255.513 14.024Z"/>
</mask>
<path d="M0.91325 2.6L21.9373 5.16L21.9373 11.24L0.24125 13.384L0.91325 2.6ZM2.00125 11.88L12.4013 10.856L11.2493 25L1.00925 25L2.00125 11.88ZM10.3533 16.136L20.3373 15.048L19.9853 20.232L10.0333 19.656L10.3533 16.136ZM23.8663 4.232C25.3703 3.24 29.2423 2.184 33.2743 2.184C51.5783 2.184 48.8263 20.008 31.6743 20.008C30.8103 20.008 30.4903 17.352 31.3542 17.352C39.1623 17.352 39.9943 8.648 32.9863 8.648C29.5303 8.648 26.5543 9.608 24.6983 10.952C24.3463 8.68 24.2183 6.504 23.8663 4.232ZM26.4263 7.912L33.6263 6.984L34.6503 25.896L25.4663 25L26.4263 7.912ZM35.5143 17.576L40.2823 15.272L45.9463 23.752L37.9463 26.952L35.5143 17.576ZM47.8663 16.2L48.2183 9.8L57.0823 10.184L58.4583 25L48.1223 25L49.5623 16.008L47.8663 16.2ZM49.2423 4.328C49.2423 2.184 50.9703 0.455999 53.1143 0.455999C55.2583 0.455999 56.9863 2.184 56.9863 4.328C56.9863 6.472 55.2583 8.2 53.1143 8.2C50.9703 8.2 49.2423 6.472 49.2423 4.328ZM70.0943 9.96C70.3503 14.504 70.5743 18.088 70.8303 22.216C76.3983 20.296 78.5423 9.928 70.7343 9.928C70.5103 9.928 70.2863 9.928 70.0943 9.96ZM60.3663 4.072C62.1263 2.888 66.4783 1.832 69.5823 1.832C88.1103 1.832 88.0463 25.96 69.2623 25.96C66.4463 25.96 63.4062 25.352 61.8063 24.424C62.2543 20.552 62.7663 15.976 63.1823 12.136C62.4463 12.584 61.8063 13.032 61.2943 13.48C60.9743 10.376 60.6863 7.176 60.3663 4.072ZM89.8288 16.968L93.9888 16.744L92.5168 8.584L89.8288 16.968ZM94.6608 20.52L88.6128 20.744L87.1408 25.384L83.4288 22.824L89.0928 2.6L100.965 3.464L105.061 23.528L95.6208 25.864L94.6608 20.52ZM105.048 9.704L103.96 3.656L113.4 3.656L115.512 11.336L119.064 3.432L125.336 3.08L117.56 16.168L118.84 25.64L109.048 25L110.328 15.272L107.192 7.72L108.952 8.136L105.048 9.704ZM146.249 14.952C146.057 13.832 145.545 12.968 144.713 12.936C142.249 12.872 141.961 17.128 144.937 17.288C145.001 17.288 145.065 17.288 145.129 17.288C147.177 17.288 148.713 15.464 150.793 15.464C156.969 15.464 156.201 25.672 145.161 25.672C140.105 25.672 136.681 23.624 135.241 22.056L137.609 19.112C139.113 20.424 142.313 22.28 145.225 22.28C146.793 22.28 147.081 21.48 147.081 21.128C147.081 18.632 135.945 21.8 135.945 12.04C135.945 7.272 140.169 2.728 145.641 2.728C152.265 2.728 153.449 8.136 153.769 10.12L146.249 14.952ZM155.71 12.104V3.496L165.15 3.848C165.086 8.232 164.35 18.76 167.838 18.76C171.358 18.76 171.07 9.288 170.75 3.56L175.454 3.176C175.838 10.44 177.95 25.64 165.566 25.64C157.502 25.64 157.086 17.256 157.47 12.296L155.71 12.104ZM191.309 25L185.997 16.968L185.549 25H178.125L178.989 12.104L177.773 12.008V5.736L186.797 3.112L191.917 14.824L193.037 3.336L199.821 3.336L199.149 25H191.309ZM215.277 25L209.965 16.968L209.517 25L202.093 25L202.957 12.104L201.741 12.008V5.736L210.765 3.112L215.885 14.824L217.005 3.336L223.789 3.336L223.117 25H215.277ZM232.11 16.968L236.27 16.744L234.798 8.584L232.11 16.968ZM236.942 20.52L230.894 20.744L229.422 25.384L225.71 22.824L231.374 2.6L243.246 3.464L247.342 23.528L237.902 25.864L236.942 20.52ZM249.305 3.56L258.425 3.432L259.769 25L249.273 25L251.193 10.856L252.281 12.296H249.305V3.56ZM264.569 3.592L270.745 3.496V25H262.809L264.569 3.592ZM255.513 14.024L265.657 13.128V17.768L255.385 19.688L255.513 14.024Z" fill="#0A678F"/>
<path d="M0.91325 2.6L1.155 0.614663L-0.950935 0.358232L-1.08288 2.47561L0.91325 2.6ZM21.9373 5.16L23.9373 5.16V3.38876L22.179 3.17466L21.9373 5.16ZM21.9373 11.24L22.1339 13.2303L23.9373 13.0521V11.24H21.9373ZM0.24125 13.384L-1.75488 13.2596L-1.90106 15.6054L0.437932 15.3743L0.24125 13.384ZM2.00125 11.88L1.80527 9.88962L0.133588 10.0542L0.00694251 11.7292L2.00125 11.88ZM12.4013 10.856L14.3946 11.0184L14.5891 8.63091L12.2053 8.86562L12.4013 10.856ZM11.2493 25L11.2493 27H13.093L13.2426 25.1624L11.2493 25ZM1.00925 25L-0.985058 24.8492L-1.14768 27H1.00925L1.00925 25ZM10.3533 16.136L10.1366 14.1478L8.50963 14.3251L8.36146 15.9549L10.3533 16.136ZM20.3373 15.048L22.3327 15.1835L22.4944 12.8011L20.1206 13.0598L20.3373 15.048ZM19.9853 20.232L19.8697 22.2287L21.8465 22.3431L21.9807 20.3675L19.9853 20.232ZM10.0333 19.656L8.04146 19.4749L7.85435 21.5332L9.91769 21.6527L10.0333 19.656ZM0.671504 4.58533L21.6955 7.14534L22.179 3.17466L1.155 0.614663L0.671504 4.58533ZM19.9373 5.16L19.9373 11.24H23.9373L23.9373 5.16L19.9373 5.16ZM21.7406 9.24969L0.0445679 11.3937L0.437932 15.3743L22.1339 13.2303L21.7406 9.24969ZM2.23738 13.5084L2.90938 2.72439L-1.08288 2.47561L-1.75488 13.2596L2.23738 13.5084ZM2.19723 13.8704L12.5972 12.8464L12.2053 8.86562L1.80527 9.88962L2.19723 13.8704ZM10.4079 10.6936L9.25585 24.8376L13.2426 25.1624L14.3946 11.0184L10.4079 10.6936ZM11.2493 23L1.00925 23L1.00925 27L11.2493 27L11.2493 23ZM3.00356 25.1508L3.99556 12.0308L0.00694251 11.7292L-0.985058 24.8492L3.00356 25.1508ZM10.5699 18.1242L20.5539 17.0362L20.1206 13.0598L10.1366 14.1478L10.5699 18.1242ZM18.3418 14.9125L17.9898 20.0965L21.9807 20.3675L22.3327 15.1835L18.3418 14.9125ZM20.1008 18.2353L10.1488 17.6593L9.91769 21.6527L19.8697 22.2287L20.1008 18.2353ZM12.025 19.8371L12.345 16.3171L8.36146 15.9549L8.04146 19.4749L12.025 19.8371ZM23.8662 4.232L22.7651 2.56245L21.6933 3.26939L21.8898 4.5382L23.8662 4.232ZM24.6982 10.952L22.7218 11.2582L23.2225 14.4899L25.8713 12.5719L24.6982 10.952ZM26.4263 7.912L26.1706 5.92841L24.5226 6.14081L24.4294 7.79982L26.4263 7.912ZM33.6263 6.984L35.6233 6.87587L35.5069 4.72506L33.3706 5.00041L33.6263 6.984ZM34.6502 25.896L34.4561 27.8865L36.7732 28.1126L36.6473 25.7879L34.6502 25.896ZM25.4662 25L23.4694 24.8878L23.3617 26.8042L25.2721 26.9905L25.4662 25ZM35.5143 17.576L34.6441 15.7752L33.1662 16.4894L33.5783 18.0782L35.5143 17.576ZM40.2822 15.272L41.9454 14.1612L40.9789 12.7141L39.4121 13.4712L40.2822 15.272ZM45.9463 23.752L46.689 25.609L48.9797 24.6927L47.6094 22.6412L45.9463 23.752ZM37.9463 26.952L36.0103 27.4542L36.5805 29.6524L38.689 28.809L37.9463 26.952ZM24.9674 5.90154C25.4277 5.59795 26.5028 5.15157 28.0775 4.78351C29.6008 4.42745 31.4239 4.184 33.2743 4.184V0.183998C31.0926 0.183998 28.9637 0.468544 27.167 0.88849C25.4217 1.29643 23.8088 1.87405 22.7651 2.56245L24.9674 5.90154ZM33.2743 4.184C37.5533 4.184 40.3119 5.2279 41.8939 6.51863C43.4312 7.77294 43.9705 9.33386 43.785 10.8536C43.4092 13.9321 39.6679 18.008 31.6743 18.008L31.6743 22.008C40.8326 22.008 47.0433 17.1719 47.7555 11.3384C48.114 8.40214 46.9813 5.50706 44.4226 3.41937C41.9086 1.36809 38.1472 0.183998 33.2743 0.183998V4.184ZM31.6743 18.008C32.1149 18.008 32.4463 18.1864 32.6351 18.3391C32.8055 18.477 32.8761 18.6028 32.8876 18.6235C32.9079 18.6603 32.8704 18.5944 32.8519 18.4408C32.832 18.2754 32.8623 18.2514 32.8268 18.3649C32.808 18.4248 32.7321 18.6457 32.5024 18.8767C32.3798 18.9999 32.2136 19.1249 32.001 19.217C31.7857 19.3103 31.5635 19.352 31.3542 19.352V15.352C29.8088 15.352 29.1809 16.6225 29.0097 17.1691C28.8182 17.7806 28.8205 18.4206 28.8806 18.9192C28.9421 19.4296 29.0926 20.0277 29.3889 20.5625C29.6304 20.9981 30.3323 22.008 31.6743 22.008L31.6743 18.008ZM31.3542 19.352C36.0279 19.352 39.2293 16.6516 39.7065 13.2803C39.9401 11.63 39.4706 9.9132 38.2266 8.62097C36.9831 7.32918 35.1529 6.648 32.9863 6.648V10.648C34.3236 10.648 35.0174 11.0548 35.3449 11.395C35.6719 11.7348 35.8204 12.194 35.746 12.7197C35.6072 13.7004 34.4886 15.352 31.3542 15.352V19.352ZM32.9863 6.648C29.201 6.648 25.7901 7.69203 23.5252 9.33212L25.8713 12.5719C27.3184 11.524 29.8595 10.648 32.9863 10.648V6.648ZM26.6747 10.6458C26.5069 9.56276 26.3914 8.49614 26.2707 7.37742C26.1514 6.27214 26.0269 5.11476 25.8427 3.92579L21.8898 4.5382C22.0576 5.62124 22.1731 6.68786 22.2938 7.80658C22.4131 8.91186 22.5376 10.0692 22.7218 11.2582L26.6747 10.6458ZM26.6819 9.89559L33.8819 8.96759L33.3706 5.00041L26.1706 5.92841L26.6819 9.89559ZM31.6292 7.09213L32.6532 26.0041L36.6473 25.7879L35.6233 6.87587L31.6292 7.09213ZM34.8445 23.9055L25.6604 23.0095L25.2721 26.9905L34.4561 27.8865L34.8445 23.9055ZM27.4631 25.1122L28.4231 8.02418L24.4294 7.79982L23.4694 24.8878L27.4631 25.1122ZM36.3844 19.3768L41.1524 17.0728L39.4121 13.4712L34.6441 15.7752L36.3844 19.3768ZM38.6191 16.3828L44.2831 24.8628L47.6094 22.6412L41.9454 14.1612L38.6191 16.3828ZM45.2035 21.895L37.2035 25.095L38.689 28.809L46.689 25.609L45.2035 21.895ZM39.8822 26.4498L37.4502 17.0738L33.5783 18.0782L36.0103 27.4542L39.8822 26.4498ZM47.8662 16.2L45.8693 16.0902L45.7393 18.4536L48.0912 18.1873L47.8662 16.2ZM48.2183 9.8L48.3048 7.80187L46.3298 7.71631L46.2213 9.69017L48.2183 9.8ZM57.0823 10.184L59.0737 9.99905L58.9123 8.2614L57.1688 8.18587L57.0823 10.184ZM58.4583 25V27H60.6526L60.4497 24.8151L58.4583 25ZM48.1222 25L46.1474 24.6837L45.7765 27H48.1222V25ZM49.5622 16.008L51.5371 16.3243L51.9534 13.7245L49.3373 14.0207L49.5622 16.008ZM49.8632 16.3098L50.2152 9.90983L46.2213 9.69017L45.8693 16.0902L49.8632 16.3098ZM48.1317 11.7981L56.9957 12.1821L57.1688 8.18587L48.3048 7.80187L48.1317 11.7981ZM55.0908 10.3689L56.4668 25.1849L60.4497 24.8151L59.0737 9.99905L55.0908 10.3689ZM58.4583 23L48.1222 23V27L58.4583 27V23ZM50.0971 25.3163L51.5371 16.3243L47.5874 15.6917L46.1474 24.6837L50.0971 25.3163ZM49.3373 14.0207L47.6413 14.2127L48.0912 18.1873L49.7872 17.9953L49.3373 14.0207ZM51.2422 4.328C51.2422 3.28857 52.0748 2.456 53.1143 2.456V-1.544C49.8657 -1.544 47.2422 1.07943 47.2422 4.328H51.2422ZM53.1143 2.456C54.1537 2.456 54.9863 3.28857 54.9863 4.328L58.9863 4.328C58.9863 1.07943 56.3628 -1.544 53.1143 -1.544V2.456ZM54.9863 4.328C54.9863 5.36743 54.1537 6.2 53.1143 6.2V10.2C56.3628 10.2 58.9863 7.57657 58.9863 4.328L54.9863 4.328ZM53.1143 6.2C52.0748 6.2 51.2422 5.36743 51.2422 4.328H47.2422C47.2422 7.57657 49.8657 10.2 53.1143 10.2V6.2ZM70.0943 9.96L69.7655 7.98721L67.9965 8.28203L68.0974 10.0725L70.0943 9.96ZM70.8303 22.216L68.8341 22.3398L68.9968 24.9638L71.4822 24.1067L70.8303 22.216ZM60.3662 4.072L59.2499 2.41255L58.2537 3.08275L58.3768 4.2771L60.3662 4.072ZM61.8063 24.424L59.8195 24.1941L59.6688 25.4964L60.8028 26.1541L61.8063 24.424ZM63.1823 12.136L65.1706 12.3514L65.6075 8.31837L62.1424 10.4276L63.1823 12.136ZM61.2943 13.48L59.3048 13.6851L59.7013 17.5314L62.6113 14.9852L61.2943 13.48ZM68.0974 10.0725C68.3538 14.6231 68.5781 18.2128 68.8341 22.3398L72.8264 22.0922C72.5704 17.9632 72.3467 14.3849 72.0911 9.8475L68.0974 10.0725ZM71.4822 24.1067C75.1762 22.833 77.4805 18.9577 77.7901 15.5321C77.9501 13.7622 77.6089 11.8389 76.3816 10.3207C75.1129 8.75128 73.1523 7.928 70.7343 7.928V11.928C72.2202 11.928 72.9196 12.4007 73.2709 12.8353C73.6636 13.3211 73.9024 14.1098 73.8064 15.1719C73.604 17.4103 72.0523 19.679 70.1783 20.3253L71.4822 24.1067ZM70.7343 7.928C70.5555 7.928 70.1532 7.92258 69.7655 7.98721L70.423 11.9328C70.402 11.9363 70.4124 11.933 70.4763 11.9306C70.5408 11.9282 70.6151 11.928 70.7343 11.928V7.928ZM61.4826 5.73144C62.0624 5.3414 63.3106 4.84788 64.9424 4.45148C66.5248 4.06707 68.2266 3.832 69.5823 3.832V-0.168001C67.8339 -0.168001 65.8077 0.124927 63.9981 0.564521C62.2379 0.992122 60.4301 1.6186 59.2499 2.41255L61.4826 5.73144ZM69.5823 3.832C73.7631 3.832 76.7064 5.1824 78.5897 7.02977C80.4882 8.89207 81.4342 11.3779 81.4143 13.8801C81.3944 16.3818 80.4088 18.875 78.4577 20.7467C76.5209 22.6046 73.5141 23.96 69.2623 23.96V27.96C74.4024 27.96 78.4476 26.2994 81.2268 23.6333C83.9917 20.981 85.3861 17.4422 85.4142 13.9119C85.4423 10.3821 84.1043 6.83593 81.3908 4.17423C78.6621 1.4976 74.6654 -0.168001 69.5823 -0.168001V3.832ZM69.2623 23.96C66.6102 23.96 63.9752 23.3699 62.8097 22.6939L60.8028 26.1541C62.8373 27.3341 66.2823 27.96 69.2623 27.96V23.96ZM63.793 24.6539C64.2416 20.7769 64.7541 16.1961 65.1706 12.3514L61.1939 11.9206C60.7784 15.7559 60.2669 20.3271 59.8195 24.1941L63.793 24.6539ZM62.1424 10.4276C61.3487 10.9107 60.6051 11.4255 59.9772 11.9748L62.6113 14.9852C63.0074 14.6385 63.5438 14.2573 64.2221 13.8444L62.1424 10.4276ZM63.2837 13.2749C63.1245 11.7306 62.9731 10.1612 62.821 8.584C62.6691 7.00916 62.5165 5.42656 62.3557 3.8669L58.3768 4.2771C58.536 5.82144 58.6874 7.39084 58.8395 8.968C58.9914 10.5428 59.144 12.1254 59.3048 13.6851L63.2837 13.2749ZM89.8288 16.968L87.9242 16.3574L87.0381 19.1212L89.9363 18.9651L89.8288 16.968ZM93.9888 16.744L94.0963 18.7411L96.3593 18.6193L95.957 16.3889L93.9888 16.744ZM92.5168 8.584L94.485 8.22895L90.6122 7.97339L92.5168 8.584ZM94.6608 20.52L96.6292 20.1664L96.3222 18.4571L94.5867 18.5214L94.6608 20.52ZM88.6127 20.744L88.5387 18.7454L87.132 18.7975L86.7064 20.1392L88.6127 20.744ZM87.1407 25.384L86.0053 27.0304L88.2299 28.5647L89.0471 25.9888L87.1407 25.384ZM83.4287 22.824L81.5029 22.2846L81.1177 23.6597L82.2933 24.4704L83.4287 22.824ZM89.0928 2.6L89.2379 0.605274L87.6077 0.486631L87.1669 2.06063L89.0928 2.6ZM100.965 3.464L102.924 3.06396L102.621 1.57926L101.11 1.46927L100.965 3.464ZM105.061 23.528L105.541 25.4694L107.404 25.0084L107.02 23.128L105.061 23.528ZM95.6208 25.864L93.6523 26.2176L94.0296 28.3181L96.1012 27.8054L95.6208 25.864ZM89.9363 18.9651L94.0963 18.7411L93.8812 14.7469L89.7212 14.9709L89.9363 18.9651ZM95.957 16.3889L94.485 8.22895L90.5485 8.93905L92.0205 17.0991L95.957 16.3889ZM90.6122 7.97339L87.9242 16.3574L91.7333 17.5786L94.4213 9.19461L90.6122 7.97339ZM94.5867 18.5214L88.5387 18.7454L88.6868 22.7426L94.7348 22.5186L94.5867 18.5214ZM86.7064 20.1392L85.2344 24.7792L89.0471 25.9888L90.5191 21.3488L86.7064 20.1392ZM88.2762 23.7376L84.5642 21.1776L82.2933 24.4704L86.0053 27.0304L88.2762 23.7376ZM85.3546 23.3634L91.0186 3.13937L87.1669 2.06063L81.5029 22.2846L85.3546 23.3634ZM88.9476 4.59472L100.82 5.45872L101.11 1.46927L89.2379 0.605274L88.9476 4.59472ZM99.0052 3.86404L103.101 23.928L107.02 23.128L102.924 3.06396L99.0052 3.86404ZM104.58 21.5866L95.1403 23.9226L96.1012 27.8054L105.541 25.4694L104.58 21.5866ZM97.5892 25.5104L96.6292 20.1664L92.6923 20.8736L93.6523 26.2176L97.5892 25.5104ZM105.048 9.704L103.08 10.0581L103.514 12.4752L105.793 11.5599L105.048 9.704ZM103.96 3.656V1.656L101.568 1.656L101.992 4.0101L103.96 3.656ZM113.4 3.656L115.328 3.12569L114.924 1.656L113.4 1.656V3.656ZM115.512 11.336L113.584 11.8663L115.058 17.2263L117.336 12.1558L115.512 11.336ZM119.064 3.432L118.952 1.43514L117.738 1.50327L117.24 2.61219L119.064 3.432ZM125.336 3.08L127.055 4.10156L128.974 0.872688L125.224 1.08314L125.336 3.08ZM117.56 16.168L115.841 15.1464L115.485 15.7454L115.578 16.4358L117.56 16.168ZM118.84 25.64L118.71 27.6357L121.149 27.7952L120.822 25.3722L118.84 25.64ZM109.048 25L107.065 24.7391L106.786 26.8565L108.918 26.9957L109.048 25ZM110.328 15.272L112.311 15.5329L112.381 15.0007L112.175 14.505L110.328 15.272ZM107.192 7.72L107.652 5.77363L103.844 4.87365L105.345 8.48701L107.192 7.72ZM108.952 8.136L109.697 9.9919L115.551 7.64073L109.412 6.18963L108.952 8.136ZM107.016 9.3499L105.928 3.30189L101.992 4.0101L103.08 10.0581L107.016 9.3499ZM103.96 5.656L113.4 5.656V1.656L103.96 1.656V5.656ZM111.472 4.18631L113.584 11.8663L117.44 10.8057L115.328 3.12569L111.472 4.18631ZM117.336 12.1558L120.888 4.25181L117.24 2.61219L113.688 10.5162L117.336 12.1558ZM119.176 5.42886L125.448 5.07686L125.224 1.08314L118.952 1.43514L119.176 5.42886ZM123.617 2.05843L115.841 15.1464L119.279 17.1896L127.055 4.10156L123.617 2.05843ZM115.578 16.4358L116.858 25.9078L120.822 25.3722L119.542 15.9002L115.578 16.4358ZM118.97 23.6443L109.178 23.0043L108.918 26.9957L118.71 27.6357L118.97 23.6443ZM111.031 25.2609L112.311 15.5329L108.345 15.0111L107.065 24.7391L111.031 25.2609ZM112.175 14.505L109.039 6.95299L105.345 8.48701L108.481 16.039L112.175 14.505ZM106.732 9.66637L108.492 10.0824L109.412 6.18963L107.652 5.77363L106.732 9.66637ZM108.207 6.2801L104.303 7.8481L105.793 11.5599L109.697 9.9919L108.207 6.2801ZM146.249 14.952L144.278 15.2899L144.789 18.2679L147.33 16.6346L146.249 14.952ZM144.713 12.936L144.79 10.9375L144.778 10.937L144.765 10.9367L144.713 12.936ZM144.937 17.288L144.83 19.2851L144.884 19.288H144.937V17.288ZM135.241 22.056L133.683 20.8025L132.605 22.1423L133.768 23.4088L135.241 22.056ZM137.609 19.112L138.924 17.6049L137.355 16.2365L136.051 17.8585L137.609 19.112ZM153.769 10.12L154.85 11.8026L155.952 11.0946L155.744 9.80153L153.769 10.12ZM148.22 14.6141C148.095 13.8792 147.84 13.065 147.351 12.377C146.835 11.6505 145.979 10.9832 144.79 10.9375L144.636 14.9345C144.491 14.9289 144.347 14.8828 144.232 14.8121C144.127 14.7478 144.087 14.6892 144.091 14.695C144.096 14.7019 144.128 14.7506 144.168 14.86C144.208 14.9673 144.247 15.1108 144.278 15.2899L148.22 14.6141ZM144.765 10.9367C143.508 10.904 142.453 11.4467 141.754 12.2863C141.091 13.0819 140.792 14.0785 140.785 15.0131C140.778 15.9546 141.066 16.9812 141.768 17.8174C142.501 18.6899 143.571 19.2174 144.83 19.2851L145.045 15.2909C144.914 15.2839 144.856 15.2581 144.843 15.2518C144.838 15.2498 144.836 15.2482 144.834 15.2474C144.833 15.2465 144.832 15.2461 144.832 15.2461C144.832 15.2461 144.833 15.2462 144.833 15.2463C144.833 15.2464 144.833 15.2462 144.832 15.2456C144.828 15.2408 144.784 15.1774 144.785 15.0429C144.786 14.9015 144.836 14.8361 144.827 14.8467C144.817 14.859 144.787 14.8882 144.736 14.9117C144.683 14.9367 144.649 14.935 144.661 14.9353L144.765 10.9367ZM144.937 19.288C144.937 19.288 144.938 19.288 144.938 19.288C144.938 19.288 144.938 19.288 144.938 19.288C144.938 19.288 144.938 19.288 144.938 19.288C144.939 19.288 144.939 19.288 144.939 19.288C144.939 19.288 144.939 19.288 144.939 19.288C144.939 19.288 144.939 19.288 144.939 19.288C144.94 19.288 144.94 19.288 144.94 19.288C144.94 19.288 144.94 19.288 144.94 19.288C144.94 19.288 144.941 19.288 144.941 19.288C144.941 19.288 144.941 19.288 144.941 19.288C144.941 19.288 144.941 19.288 144.941 19.288C144.941 19.288 144.942 19.288 144.942 19.288C144.942 19.288 144.942 19.288 144.942 19.288C144.942 19.288 144.942 19.288 144.943 19.288C144.943 19.288 144.943 19.288 144.943 19.288C144.943 19.288 144.943 19.288 144.943 19.288C144.943 19.288 144.943 19.288 144.944 19.288C144.944 19.288 144.944 19.288 144.944 19.288C144.944 19.288 144.944 19.288 144.944 19.288C144.945 19.288 144.945 19.288 144.945 19.288C144.945 19.288 144.945 19.288 144.945 19.288C144.945 19.288 144.945 19.288 144.945 19.288C144.946 19.288 144.946 19.288 144.946 19.288C144.946 19.288 144.946 19.288 144.946 19.288C144.946 19.288 144.947 19.288 144.947 19.288C144.947 19.288 144.947 19.288 144.947 19.288C144.947 19.288 144.947 19.288 144.947 19.288C144.947 19.288 144.948 19.288 144.948 19.288C144.948 19.288 144.948 19.288 144.948 19.288C144.948 19.288 144.948 19.288 144.949 19.288C144.949 19.288 144.949 19.288 144.949 19.288C144.949 19.288 144.949 19.288 144.949 19.288C144.949 19.288 144.949 19.288 144.95 19.288C144.95 19.288 144.95 19.288 144.95 19.288C144.95 19.288 144.95 19.288 144.95 19.288C144.951 19.288 144.951 19.288 144.951 19.288C144.951 19.288 144.951 19.288 144.951 19.288C144.951 19.288 144.951 19.288 144.952 19.288C144.952 19.288 144.952 19.288 144.952 19.288C144.952 19.288 144.952 19.288 144.952 19.288C144.952 19.288 144.952 19.288 144.953 19.288C144.953 19.288 144.953 19.288 144.953 19.288C144.953 19.288 144.953 19.288 144.953 19.288C144.954 19.288 144.954 19.288 144.954 19.288C144.954 19.288 144.954 19.288 144.954 19.288C144.954 19.288 144.954 19.288 144.954 19.288C144.955 19.288 144.955 19.288 144.955 19.288C144.955 19.288 144.955 19.288 144.955 19.288C144.955 19.288 144.956 19.288 144.956 19.288C144.956 19.288 144.956 19.288 144.956 19.288C144.956 19.288 144.956 19.288 144.956 19.288C144.956 19.288 144.957 19.288 144.957 19.288C144.957 19.288 144.957 19.288 144.957 19.288C144.957 19.288 144.957 19.288 144.958 19.288C144.958 19.288 144.958 19.288 144.958 19.288C144.958 19.288 144.958 19.288 144.958 19.288C144.958 19.288 144.958 19.288 144.959 19.288C144.959 19.288 144.959 19.288 144.959 19.288C144.959 19.288 144.959 19.288 144.959 19.288C144.96 19.288 144.96 19.288 144.96 19.288C144.96 19.288 144.96 19.288 144.96 19.288C144.96 19.288 144.96 19.288 144.96 19.288C144.961 19.288 144.961 19.288 144.961 19.288C144.961 19.288 144.961 19.288 144.961 19.288C144.961 19.288 144.962 19.288 144.962 19.288C144.962 19.288 144.962 19.288 144.962 19.288C144.962 19.288 144.962 19.288 144.962 19.288C144.962 19.288 144.963 19.288 144.963 19.288C144.963 19.288 144.963 19.288 144.963 19.288C144.963 19.288 144.963 19.288 144.964 19.288C144.964 19.288 144.964 19.288 144.964 19.288C144.964 19.288 144.964 19.288 144.964 19.288C144.964 19.288 144.964 19.288 144.965 19.288C144.965 19.288 144.965 19.288 144.965 19.288C144.965 19.288 144.965 19.288 144.965 19.288C144.965 19.288 144.966 19.288 144.966 19.288C144.966 19.288 144.966 19.288 144.966 19.288C144.966 19.288 144.966 19.288 144.967 19.288C144.967 19.288 144.967 19.288 144.967 19.288C144.967 19.288 144.967 19.288 144.967 19.288C144.967 19.288 144.967 19.288 144.968 19.288C144.968 19.288 144.968 19.288 144.968 19.288C144.968 19.288 144.968 19.288 144.968 19.288C144.969 19.288 144.969 19.288 144.969 19.288C144.969 19.288 144.969 19.288 144.969 19.288C144.969 19.288 144.969 19.288 144.969 19.288C144.97 19.288 144.97 19.288 144.97 19.288C144.97 19.288 144.97 19.288 144.97 19.288C144.97 19.288 144.971 19.288 144.971 19.288C144.971 19.288 144.971 19.288 144.971 19.288C144.971 19.288 144.971 19.288 144.971 19.288C144.971 19.288 144.972 19.288 144.972 19.288C144.972 19.288 144.972 19.288 144.972 19.288C144.972 19.288 144.972 19.288 144.973 19.288C144.973 19.288 144.973 19.288 144.973 19.288C144.973 19.288 144.973 19.288 144.973 19.288C144.973 19.288 144.973 19.288 144.974 19.288C144.974 19.288 144.974 19.288 144.974 19.288C144.974 19.288 144.974 19.288 144.974 19.288C144.975 19.288 144.975 19.288 144.975 19.288C144.975 19.288 144.975 19.288 144.975 19.288C144.975 19.288 144.975 19.288 144.975 19.288C144.976 19.288 144.976 19.288 144.976 19.288C144.976 19.288 144.976 19.288 144.976 19.288C144.976 19.288 144.977 19.288 144.977 19.288C144.977 19.288 144.977 19.288 144.977 19.288C144.977 19.288 144.977 19.288 144.977 19.288C144.977 19.288 144.978 19.288 144.978 19.288C144.978 19.288 144.978 19.288 144.978 19.288C144.978 19.288 144.978 19.288 144.979 19.288C144.979 19.288 144.979 19.288 144.979 19.288C144.979 19.288 144.979 19.288 144.979 19.288C144.979 19.288 144.98 19.288 144.98 19.288C144.98 19.288 144.98 19.288 144.98 19.288C144.98 19.288 144.98 19.288 144.98 19.288C144.98 19.288 144.981 19.288 144.981 19.288C144.981 19.288 144.981 19.288 144.981 19.288C144.981 19.288 144.981 19.288 144.982 19.288C144.982 19.288 144.982 19.288 144.982 19.288C144.982 19.288 144.982 19.288 144.982 19.288C144.982 19.288 144.982 19.288 144.983 19.288C144.983 19.288 144.983 19.288 144.983 19.288C144.983 19.288 144.983 19.288 144.983 19.288C144.984 19.288 144.984 19.288 144.984 19.288C144.984 19.288 144.984 19.288 144.984 19.288C144.984 19.288 144.984 19.288 144.984 19.288C144.985 19.288 144.985 19.288 144.985 19.288C144.985 19.288 144.985 19.288 144.985 19.288C144.985 19.288 144.986 19.288 144.986 19.288C144.986 19.288 144.986 19.288 144.986 19.288C144.986 19.288 144.986 19.288 144.986 19.288C144.986 19.288 144.987 19.288 144.987 19.288C144.987 19.288 144.987 19.288 144.987 19.288C144.987 19.288 144.987 19.288 144.988 19.288C144.988 19.288 144.988 19.288 144.988 19.288C144.988 19.288 144.988 19.288 144.988 19.288C144.988 19.288 144.988 19.288 144.989 19.288C144.989 19.288 144.989 19.288 144.989 19.288C144.989 19.288 144.989 19.288 144.989 19.288C144.99 19.288 144.99 19.288 144.99 19.288C144.99 19.288 144.99 19.288 144.99 19.288C144.99 19.288 144.99 19.288 144.99 19.288C144.991 19.288 144.991 19.288 144.991 19.288C144.991 19.288 144.991 19.288 144.991 19.288C144.991 19.288 144.992 19.288 144.992 19.288C144.992 19.288 144.992 19.288 144.992 19.288C144.992 19.288 144.992 19.288 144.992 19.288C144.992 19.288 144.993 19.288 144.993 19.288C144.993 19.288 144.993 19.288 144.993 19.288C144.993 19.288 144.993 19.288 144.993 19.288C144.994 19.288 144.994 19.288 144.994 19.288C144.994 19.288 144.994 19.288 144.994 19.288C144.994 19.288 144.995 19.288 144.995 19.288C144.995 19.288 144.995 19.288 144.995 19.288C144.995 19.288 144.995 19.288 144.995 19.288C144.995 19.288 144.996 19.288 144.996 19.288C144.996 19.288 144.996 19.288 144.996 19.288C144.996 19.288 144.996 19.288 144.997 19.288C144.997 19.288 144.997 19.288 144.997 19.288C144.997 19.288 144.997 19.288 144.997 19.288C144.997 19.288 144.997 19.288 144.998 19.288C144.998 19.288 144.998 19.288 144.998 19.288C144.998 19.288 144.998 19.288 144.998 19.288C144.999 19.288 144.999 19.288 144.999 19.288C144.999 19.288 144.999 19.288 144.999 19.288C144.999 19.288 144.999 19.288 144.999 19.288C145 19.288 145 19.288 145 19.288C145 19.288 145 19.288 145 19.288C145 19.288 145.001 19.288 145.001 19.288C145.001 19.288 145.001 19.288 145.001 19.288C145.001 19.288 145.001 19.288 145.001 19.288C145.001 19.288 145.002 19.288 145.002 19.288C145.002 19.288 145.002 19.288 145.002 19.288C145.002 19.288 145.002 19.288 145.003 19.288C145.003 19.288 145.003 19.288 145.003 19.288C145.003 19.288 145.003 19.288 145.003 19.288C145.003 19.288 145.003 19.288 145.004 19.288C145.004 19.288 145.004 19.288 145.004 19.288C145.004 19.288 145.004 19.288 145.004 19.288C145.005 19.288 145.005 19.288 145.005 19.288C145.005 19.288 145.005 19.288 145.005 19.288C145.005 19.288 145.005 19.288 145.005 19.288C145.006 19.288 145.006 19.288 145.006 19.288C145.006 19.288 145.006 19.288 145.006 19.288C145.006 19.288 145.007 19.288 145.007 19.288C145.007 19.288 145.007 19.288 145.007 19.288C145.007 19.288 145.007 19.288 145.007 19.288C145.008 19.288 145.008 19.288 145.008 19.288C145.008 19.288 145.008 19.288 145.008 19.288C145.008 19.288 145.008 19.288 145.008 19.288C145.009 19.288 145.009 19.288 145.009 19.288C145.009 19.288 145.009 19.288 145.009 19.288C145.009 19.288 145.01 19.288 145.01 19.288C145.01 19.288 145.01 19.288 145.01 19.288C145.01 19.288 145.01 19.288 145.01 19.288C145.01 19.288 145.011 19.288 145.011 19.288C145.011 19.288 145.011 19.288 145.011 19.288C145.011 19.288 145.011 19.288 145.012 19.288C145.012 19.288 145.012 19.288 145.012 19.288C145.012 19.288 145.012 19.288 145.012 19.288C145.012 19.288 145.012 19.288 145.013 19.288C145.013 19.288 145.013 19.288 145.013 19.288C145.013 19.288 145.013 19.288 145.013 19.288C145.014 19.288 145.014 19.288 145.014 19.288C145.014 19.288 145.014 19.288 145.014 19.288C145.014 19.288 145.014 19.288 145.014 19.288C145.015 19.288 145.015 19.288 145.015 19.288C145.015 19.288 145.015 19.288 145.015 19.288C145.015 19.288 145.016 19.288 145.016 19.288C145.016 19.288 145.016 19.288 145.016 19.288C145.016 19.288 145.016 19.288 145.016 19.288C145.016 19.288 145.017 19.288 145.017 19.288C145.017 19.288 145.017 19.288 145.017 19.288C145.017 19.288 145.017 19.288 145.018 19.288C145.018 19.288 145.018 19.288 145.018 19.288C145.018 19.288 145.018 19.288 145.018 19.288C145.018 19.288 145.018 19.288 145.019 19.288C145.019 19.288 145.019 19.288 145.019 19.288C145.019 19.288 145.019 19.288 145.019 19.288C145.02 19.288 145.02 19.288 145.02 19.288C145.02 19.288 145.02 19.288 145.02 19.288C145.02 19.288 145.02 19.288 145.021 19.288C145.021 19.288 145.021 19.288 145.021 19.288C145.021 19.288 145.021 19.288 145.021 19.288C145.021 19.288 145.021 19.288 145.022 19.288C145.022 19.288 145.022 19.288 145.022 19.288C145.022 19.288 145.022 19.288 145.022 19.288C145.023 19.288 145.023 19.288 145.023 19.288C145.023 19.288 145.023 19.288 145.023 19.288C145.023 19.288 145.023 19.288 145.023 19.288C145.024 19.288 145.024 19.288 145.024 19.288C145.024 19.288 145.024 19.288 145.024 19.288C145.024 19.288 145.025 19.288 145.025 19.288C145.025 19.288 145.025 19.288 145.025 19.288C145.025 19.288 145.025 19.288 145.025 19.288C145.025 19.288 145.026 19.288 145.026 19.288C145.026 19.288 145.026 19.288 145.026 19.288C145.026 19.288 145.026 19.288 145.027 19.288C145.027 19.288 145.027 19.288 145.027 19.288C145.027 19.288 145.027 19.288 145.027 19.288C145.027 19.288 145.027 19.288 145.028 19.288C145.028 19.288 145.028 19.288 145.028 19.288C145.028 19.288 145.028 19.288 145.028 19.288C145.029 19.288 145.029 19.288 145.029 19.288C145.029 19.288 145.029 19.288 145.029 19.288C145.029 19.288 145.029 19.288 145.029 19.288C145.03 19.288 145.03 19.288 145.03 19.288C145.03 19.288 145.03 19.288 145.03 19.288C145.03 19.288 145.031 19.288 145.031 19.288C145.031 19.288 145.031 19.288 145.031 19.288C145.031 19.288 145.031 19.288 145.031 19.288C145.031 19.288 145.032 19.288 145.032 19.288C145.032 19.288 145.032 19.288 145.032 19.288C145.032 19.288 145.032 19.288 145.033 19.288C145.033 19.288 145.033 19.288 145.033 19.288C145.033 19.288 145.033 19.288 145.033 19.288C145.033 19.288 145.033 19.288 145.034 19.288C145.034 19.288 145.034 19.288 145.034 19.288C145.034 19.288 145.034 19.288 145.034 19.288C145.035 19.288 145.035 19.288 145.035 19.288C145.035 19.288 145.035 19.288 145.035 19.288C145.035 19.288 145.035 19.288 145.036 19.288C145.036 19.288 145.036 19.288 145.036 19.288C145.036 19.288 145.036 19.288 145.036 19.288C145.036 19.288 145.036 19.288 145.037 19.288C145.037 19.288 145.037 19.288 145.037 19.288C145.037 19.288 145.037 19.288 145.037 19.288C145.038 19.288 145.038 19.288 145.038 19.288C145.038 19.288 145.038 19.288 145.038 19.288C145.038 19.288 145.038 19.288 145.038 19.288C145.039 19.288 145.039 19.288 145.039 19.288C145.039 19.288 145.039 19.288 145.039 19.288C145.039 19.288 145.04 19.288 145.04 19.288C145.04 19.288 145.04 19.288 145.04 19.288C145.04 19.288 145.04 19.288 145.04 19.288C145.04 19.288 145.041 19.288 145.041 19.288C145.041 19.288 145.041 19.288 145.041 19.288C145.041 19.288 145.041 19.288 145.042 19.288C145.042 19.288 145.042 19.288 145.042 19.288C145.042 19.288 145.042 19.288 145.042 19.288C145.042 19.288 145.042 19.288 145.043 19.288C145.043 19.288 145.043 19.288 145.043 19.288C145.043 19.288 145.043 19.288 145.043 19.288C145.044 19.288 145.044 19.288 145.044 19.288C145.044 19.288 145.044 19.288 145.044 19.288C145.044 19.288 145.044 19.288 145.044 19.288C145.045 19.288 145.045 19.288 145.045 19.288C145.045 19.288 145.045 19.288 145.045 19.288C145.045 19.288 145.046 19.288 145.046 19.288C145.046 19.288 145.046 19.288 145.046 19.288C145.046 19.288 145.046 19.288 145.046 19.288C145.046 19.288 145.047 19.288 145.047 19.288C145.047 19.288 145.047 19.288 145.047 19.288C145.047 19.288 145.047 19.288 145.048 19.288C145.048 19.288 145.048 19.288 145.048 19.288C145.048 19.288 145.048 19.288 145.048 19.288C145.048 19.288 145.049 19.288 145.049 19.288C145.049 19.288 145.049 19.288 145.049 19.288C145.049 19.288 145.049 19.288 145.049 19.288C145.049 19.288 145.05 19.288 145.05 19.288C145.05 19.288 145.05 19.288 145.05 19.288C145.05 19.288 145.05 19.288 145.051 19.288C145.051 19.288 145.051 19.288 145.051 19.288C145.051 19.288 145.051 19.288 145.051 19.288C145.051 19.288 145.051 19.288 145.052 19.288C145.052 19.288 145.052 19.288 145.052 19.288C145.052 19.288 145.052 19.288 145.052 19.288C145.053 19.288 145.053 19.288 145.053 19.288C145.053 19.288 145.053 19.288 145.053 19.288C145.053 19.288 145.053 19.288 145.053 19.288C145.054 19.288 145.054 19.288 145.054 19.288C145.054 19.288 145.054 19.288 145.054 19.288C145.054 19.288 145.055 19.288 145.055 19.288C145.055 19.288 145.055 19.288 145.055 19.288C145.055 19.288 145.055 19.288 145.055 19.288C145.055 19.288 145.056 19.288 145.056 19.288C145.056 19.288 145.056 19.288 145.056 19.288C145.056 19.288 145.056 19.288 145.057 19.288C145.057 19.288 145.057 19.288 145.057 19.288C145.057 19.288 145.057 19.288 145.057 19.288C145.057 19.288 145.057 19.288 145.058 19.288C145.058 19.288 145.058 19.288 145.058 19.288C145.058 19.288 145.058 19.288 145.058 19.288C145.059 19.288 145.059 19.288 145.059 19.288C145.059 19.288 145.059 19.288 145.059 19.288C145.059 19.288 145.059 19.288 145.059 19.288C145.06 19.288 145.06 19.288 145.06 19.288C145.06 19.288 145.06 19.288 145.06 19.288C145.06 19.288 145.061 19.288 145.061 19.288C145.061 19.288 145.061 19.288 145.061 19.288C145.061 19.288 145.061 19.288 145.061 19.288C145.061 19.288 145.062 19.288 145.062 19.288C145.062 19.288 145.062 19.288 145.062 19.288C145.062 19.288 145.062 19.288 145.062 19.288C145.063 19.288 145.063 19.288 145.063 19.288C145.063 19.288 145.063 19.288 145.063 19.288C145.063 19.288 145.064 19.288 145.064 19.288C145.064 19.288 145.064 19.288 145.064 19.288C145.064 19.288 145.064 19.288 145.064 19.288C145.064 19.288 145.065 19.288 145.065 19.288C145.065 19.288 145.065 19.288 145.065 19.288C145.065 19.288 145.065 19.288 145.066 19.288C145.066 19.288 145.066 19.288 145.066 19.288C145.066 19.288 145.066 19.288 145.066 19.288C145.066 19.288 145.066 19.288 145.067 19.288C145.067 19.288 145.067 19.288 145.067 19.288C145.067 19.288 145.067 19.288 145.067 19.288C145.068 19.288 145.068 19.288 145.068 19.288C145.068 19.288 145.068 19.288 145.068 19.288C145.068 19.288 145.068 19.288 145.068 19.288C145.069 19.288 145.069 19.288 145.069 19.288C145.069 19.288 145.069 19.288 145.069 19.288C145.069 19.288 145.07 19.288 145.07 19.288C145.07 19.288 145.07 19.288 145.07 19.288C145.07 19.288 145.07 19.288 145.07 19.288C145.07 19.288 145.071 19.288 145.071 19.288C145.071 19.288 145.071 19.288 145.071 19.288C145.071 19.288 145.071 19.288 145.072 19.288C145.072 19.288 145.072 19.288 145.072 19.288C145.072 19.288 145.072 19.288 145.072 19.288C145.072 19.288 145.072 19.288 145.073 19.288C145.073 19.288 145.073 19.288 145.073 19.288C145.073 19.288 145.073 19.288 145.073 19.288C145.074 19.288 145.074 19.288 145.074 19.288C145.074 19.288 145.074 19.288 145.074 19.288C145.074 19.288 145.074 19.288 145.074 19.288C145.075 19.288 145.075 19.288 145.075 19.288C145.075 19.288 145.075 19.288 145.075 19.288C145.075 19.288 145.076 19.288 145.076 19.288C145.076 19.288 145.076 19.288 145.076 19.288C145.076 19.288 145.076 19.288 145.076 19.288C145.077 19.288 145.077 19.288 145.077 19.288C145.077 19.288 145.077 19.288 145.077 19.288C145.077 19.288 145.077 19.288 145.077 19.288C145.078 19.288 145.078 19.288 145.078 19.288C145.078 19.288 145.078 19.288 145.078 19.288C145.078 19.288 145.079 19.288 145.079 19.288C145.079 19.288 145.079 19.288 145.079 19.288C145.079 19.288 145.079 19.288 145.079 19.288C145.079 19.288 145.08 19.288 145.08 19.288C145.08 19.288 145.08 19.288 145.08 19.288C145.08 19.288 145.08 19.288 145.081 19.288C145.081 19.288 145.081 19.288 145.081 19.288C145.081 19.288 145.081 19.288 145.081 19.288C145.081 19.288 145.081 19.288 145.082 19.288C145.082 19.288 145.082 19.288 145.082 19.288C145.082 19.288 145.082 19.288 145.082 19.288C145.083 19.288 145.083 19.288 145.083 19.288C145.083 19.288 145.083 19.288 145.083 19.288C145.083 19.288 145.083 19.288 145.083 19.288C145.084 19.288 145.084 19.288 145.084 19.288C145.084 19.288 145.084 19.288 145.084 19.288C145.084 19.288 145.085 19.288 145.085 19.288C145.085 19.288 145.085 19.288 145.085 19.288C145.085 19.288 145.085 19.288 145.085 19.288C145.085 19.288 145.086 19.288 145.086 19.288C145.086 19.288 145.086 19.288 145.086 19.288C145.086 19.288 145.086 19.288 145.087 19.288C145.087 19.288 145.087 19.288 145.087 19.288C145.087 19.288 145.087 19.288 145.087 19.288C145.087 19.288 145.087 19.288 145.088 19.288C145.088 19.288 145.088 19.288 145.088 19.288C145.088 19.288 145.088 19.288 145.088 19.288C145.089 19.288 145.089 19.288 145.089 19.288C145.089 19.288 145.089 19.288 145.089 19.288C145.089 19.288 145.089 19.288 145.09 19.288C145.09 19.288 145.09 19.288 145.09 19.288C145.09 19.288 145.09 19.288 145.09 19.288C145.09 19.288 145.09 19.288 145.091 19.288C145.091 19.288 145.091 19.288 145.091 19.288C145.091 19.288 145.091 19.288 145.091 19.288C145.092 19.288 145.092 19.288 145.092 19.288C145.092 19.288 145.092 19.288 145.092 19.288C145.092 19.288 145.092 19.288 145.092 19.288C145.093 19.288 145.093 19.288 145.093 19.288C145.093 19.288 145.093 19.288 145.093 19.288C145.093 19.288 145.094 19.288 145.094 19.288C145.094 19.288 145.094 19.288 145.094 19.288C145.094 19.288 145.094 19.288 145.094 19.288C145.094 19.288 145.095 19.288 145.095 19.288C145.095 19.288 145.095 19.288 145.095 19.288C145.095 19.288 145.095 19.288 145.096 19.288C145.096 19.288 145.096 19.288 145.096 19.288C145.096 19.288 145.096 19.288 145.096 19.288C145.096 19.288 145.096 19.288 145.097 19.288C145.097 19.288 145.097 19.288 145.097 19.288C145.097 19.288 145.097 19.288 145.097 19.288C145.098 19.288 145.098 19.288 145.098 19.288C145.098 19.288 145.098 19.288 145.098 19.288C145.098 19.288 145.098 19.288 145.098 19.288C145.099 19.288 145.099 19.288 145.099 19.288C145.099 19.288 145.099 19.288 145.099 19.288C145.099 19.288 145.1 19.288 145.1 19.288C145.1 19.288 145.1 19.288 145.1 19.288C145.1 19.288 145.1 19.288 145.1 19.288C145.1 19.288 145.101 19.288 145.101 19.288C145.101 19.288 145.101 19.288 145.101 19.288C145.101 19.288 145.101 19.288 145.102 19.288C145.102 19.288 145.102 19.288 145.102 19.288C145.102 19.288 145.102 19.288 145.102 19.288C145.102 19.288 145.102 19.288 145.103 19.288C145.103 19.288 145.103 19.288 145.103 19.288C145.103 19.288 145.103 19.288 145.103 19.288C145.104 19.288 145.104 19.288 145.104 19.288C145.104 19.288 145.104 19.288 145.104 19.288C145.104 19.288 145.104 19.288 145.105 19.288C145.105 19.288 145.105 19.288 145.105 19.288C145.105 19.288 145.105 19.288 145.105 19.288C145.105 19.288 145.105 19.288 145.106 19.288C145.106 19.288 145.106 19.288 145.106 19.288C145.106 19.288 145.106 19.288 145.106 19.288C145.107 19.288 145.107 19.288 145.107 19.288C145.107 19.288 145.107 19.288 145.107 19.288C145.107 19.288 145.107 19.288 145.107 19.288C145.108 19.288 145.108 19.288 145.108 19.288C145.108 19.288 145.108 19.288 145.108 19.288C145.108 19.288 145.109 19.288 145.109 19.288C145.109 19.288 145.109 19.288 145.109 19.288C145.109 19.288 145.109 19.288 145.109 19.288C145.109 19.288 145.11 19.288 145.11 19.288C145.11 19.288 145.11 19.288 145.11 19.288C145.11 19.288 145.11 19.288 145.111 19.288C145.111 19.288 145.111 19.288 145.111 19.288C145.111 19.288 145.111 19.288 145.111 19.288C145.111 19.288 145.111 19.288 145.112 19.288C145.112 19.288 145.112 19.288 145.112 19.288C145.112 19.288 145.112 19.288 145.112 19.288C145.113 19.288 145.113 19.288 145.113 19.288C145.113 19.288 145.113 19.288 145.113 19.288C145.113 19.288 145.113 19.288 145.113 19.288C145.114 19.288 145.114 19.288 145.114 19.288C145.114 19.288 145.114 19.288 145.114 19.288C145.114 19.288 145.115 19.288 145.115 19.288C145.115 19.288 145.115 19.288 145.115 19.288C145.115 19.288 145.115 19.288 145.115 19.288C145.115 19.288 145.116 19.288 145.116 19.288C145.116 19.288 145.116 19.288 145.116 19.288C145.116 19.288 145.116 19.288 145.117 19.288C145.117 19.288 145.117 19.288 145.117 19.288C145.117 19.288 145.117 19.288 145.117 19.288C145.117 19.288 145.118 19.288 145.118 19.288C145.118 19.288 145.118 19.288 145.118 19.288C145.118 19.288 145.118 19.288 145.118 19.288C145.118 19.288 145.119 19.288 145.119 19.288C145.119 19.288 145.119 19.288 145.119 19.288C145.119 19.288 145.119 19.288 145.12 19.288C145.12 19.288 145.12 19.288 145.12 19.288C145.12 19.288 145.12 19.288 145.12 19.288C145.12 19.288 145.12 19.288 145.121 19.288C145.121 19.288 145.121 19.288 145.121 19.288C145.121 19.288 145.121 19.288 145.121 19.288C145.122 19.288 145.122 19.288 145.122 19.288C145.122 19.288 145.122 19.288 145.122 19.288C145.122 19.288 145.122 19.288 145.122 19.288C145.123 19.288 145.123 19.288 145.123 19.288C145.123 19.288 145.123 19.288 145.123 19.288C145.123 19.288 145.124 19.288 145.124 19.288C145.124 19.288 145.124 19.288 145.124 19.288C145.124 19.288 145.124 19.288 145.124 19.288C145.124 19.288 145.125 19.288 145.125 19.288C145.125 19.288 145.125 19.288 145.125 19.288C145.125 19.288 145.125 19.288 145.126 19.288C145.126 19.288 145.126 19.288 145.126 19.288C145.126 19.288 145.126 19.288 145.126 19.288C145.126 19.288 145.126 19.288 145.127 19.288C145.127 19.288 145.127 19.288 145.127 19.288C145.127 19.288 145.127 19.288 145.127 19.288C145.128 19.288 145.128 19.288 145.128 19.288C145.128 19.288 145.128 19.288 145.128 19.288C145.128 19.288 145.128 19.288 145.128 19.288C145.129 19.288 145.129 19.288 145.129 19.288C145.129 19.288 145.129 19.288 145.129 19.288V15.288C145.129 15.288 145.129 15.288 145.129 15.288C145.129 15.288 145.129 15.288 145.128 15.288C145.128 15.288 145.128 15.288 145.128 15.288C145.128 15.288 145.128 15.288 145.128 15.288C145.128 15.288 145.128 15.288 145.127 15.288C145.127 15.288 145.127 15.288 145.127 15.288C145.127 15.288 145.127 15.288 145.127 15.288C145.126 15.288 145.126 15.288 145.126 15.288C145.126 15.288 145.126 15.288 145.126 15.288C145.126 15.288 145.126 15.288 145.126 15.288C145.125 15.288 145.125 15.288 145.125 15.288C145.125 15.288 145.125 15.288 145.125 15.288C145.125 15.288 145.124 15.288 145.124 15.288C145.124 15.288 145.124 15.288 145.124 15.288C145.124 15.288 145.124 15.288 145.124 15.288C145.124 15.288 145.123 15.288 145.123 15.288C145.123 15.288 145.123 15.288 145.123 15.288C145.123 15.288 145.123 15.288 145.122 15.288C145.122 15.288 145.122 15.288 145.122 15.288C145.122 15.288 145.122 15.288 145.122 15.288C145.122 15.288 145.122 15.288 145.121 15.288C145.121 15.288 145.121 15.288 145.121 15.288C145.121 15.288 145.121 15.288 145.121 15.288C145.12 15.288 145.12 15.288 145.12 15.288C145.12 15.288 145.12 15.288 145.12 15.288C145.12 15.288 145.12 15.288 145.12 15.288C145.119 15.288 145.119 15.288 145.119 15.288C145.119 15.288 145.119 15.288 145.119 15.288C145.119 15.288 145.118 15.288 145.118 15.288C145.118 15.288 145.118 15.288 145.118 15.288C145.118 15.288 145.118 15.288 145.118 15.288C145.118 15.288 145.117 15.288 145.117 15.288C145.117 15.288 145.117 15.288 145.117 15.288C145.117 15.288 145.117 15.288 145.117 15.288C145.116 15.288 145.116 15.288 145.116 15.288C145.116 15.288 145.116 15.288 145.116 15.288C145.116 15.288 145.115 15.288 145.115 15.288C145.115 15.288 145.115 15.288 145.115 15.288C145.115 15.288 145.115 15.288 145.115 15.288C145.115 15.288 145.114 15.288 145.114 15.288C145.114 15.288 145.114 15.288 145.114 15.288C145.114 15.288 145.114 15.288 145.113 15.288C145.113 15.288 145.113 15.288 145.113 15.288C145.113 15.288 145.113 15.288 145.113 15.288C145.113 15.288 145.113 15.288 145.112 15.288C145.112 15.288 145.112 15.288 145.112 15.288C145.112 15.288 145.112 15.288 145.112 15.288C145.111 15.288 145.111 15.288 145.111 15.288C145.111 15.288 145.111 15.288 145.111 15.288C145.111 15.288 145.111 15.288 145.111 15.288C145.11 15.288 145.11 15.288 145.11 15.288C145.11 15.288 145.11 15.288 145.11 15.288C145.11 15.288 145.109 15.288 145.109 15.288C145.109 15.288 145.109 15.288 145.109 15.288C145.109 15.288 145.109 15.288 145.109 15.288C145.109 15.288 145.108 15.288 145.108 15.288C145.108 15.288 145.108 15.288 145.108 15.288C145.108 15.288 145.108 15.288 145.107 15.288C145.107 15.288 145.107 15.288 145.107 15.288C145.107 15.288 145.107 15.288 145.107 15.288C145.107 15.288 145.107 15.288 145.106 15.288C145.106 15.288 145.106 15.288 145.106 15.288C145.106 15.288 145.106 15.288 145.106 15.288C145.105 15.288 145.105 15.288 145.105 15.288C145.105 15.288 145.105 15.288 145.105 15.288C145.105 15.288 145.105 15.288 145.105 15.288C145.104 15.288 145.104 15.288 145.104 15.288C145.104 15.288 145.104 15.288 145.104 15.288C145.104 15.288 145.104 15.288 145.103 15.288C145.103 15.288 145.103 15.288 145.103 15.288C145.103 15.288 145.103 15.288 145.103 15.288C145.102 15.288 145.102 15.288 145.102 15.288C145.102 15.288 145.102 15.288 145.102 15.288C145.102 15.288 145.102 15.288 145.102 15.288C145.101 15.288 145.101 15.288 145.101 15.288C145.101 15.288 145.101 15.288 145.101 15.288C145.101 15.288 145.1 15.288 145.1 15.288C145.1 15.288 145.1 15.288 145.1 15.288C145.1 15.288 145.1 15.288 145.1 15.288C145.1 15.288 145.099 15.288 145.099 15.288C145.099 15.288 145.099 15.288 145.099 15.288C145.099 15.288 145.099 15.288 145.098 15.288C145.098 15.288 145.098 15.288 145.098 15.288C145.098 15.288 145.098 15.288 145.098 15.288C145.098 15.288 145.098 15.288 145.097 15.288C145.097 15.288 145.097 15.288 145.097 15.288C145.097 15.288 145.097 15.288 145.097 15.288C145.096 15.288 145.096 15.288 145.096 15.288C145.096 15.288 145.096 15.288 145.096 15.288C145.096 15.288 145.096 15.288 145.096 15.288C145.095 15.288 145.095 15.288 145.095 15.288C145.095 15.288 145.095 15.288 145.095 15.288C145.095 15.288 145.094 15.288 145.094 15.288C145.094 15.288 145.094 15.288 145.094 15.288C145.094 15.288 145.094 15.288 145.094 15.288C145.094 15.288 145.093 15.288 145.093 15.288C145.093 15.288 145.093 15.288 145.093 15.288C145.093 15.288 145.093 15.288 145.092 15.288C145.092 15.288 145.092 15.288 145.092 15.288C145.092 15.288 145.092 15.288 145.092 15.288C145.092 15.288 145.092 15.288 145.091 15.288C145.091 15.288 145.091 15.288 145.091 15.288C145.091 15.288 145.091 15.288 145.091 15.288C145.09 15.288 145.09 15.288 145.09 15.288C145.09 15.288 145.09 15.288 145.09 15.288C145.09 15.288 145.09 15.288 145.09 15.288C145.089 15.288 145.089 15.288 145.089 15.288C145.089 15.288 145.089 15.288 145.089 15.288C145.089 15.288 145.089 15.288 145.088 15.288C145.088 15.288 145.088 15.288 145.088 15.288C145.088 15.288 145.088 15.288 145.088 15.288C145.087 15.288 145.087 15.288 145.087 15.288C145.087 15.288 145.087 15.288 145.087 15.288C145.087 15.288 145.087 15.288 145.087 15.288C145.086 15.288 145.086 15.288 145.086 15.288C145.086 15.288 145.086 15.288 145.086 15.288C145.086 15.288 145.085 15.288 145.085 15.288C145.085 15.288 145.085 15.288 145.085 15.288C145.085 15.288 145.085 15.288 145.085 15.288C145.085 15.288 145.084 15.288 145.084 15.288C145.084 15.288 145.084 15.288 145.084 15.288C145.084 15.288 145.084 15.288 145.083 15.288C145.083 15.288 145.083 15.288 145.083 15.288C145.083 15.288 145.083 15.288 145.083 15.288C145.083 15.288 145.083 15.288 145.082 15.288C145.082 15.288 145.082 15.288 145.082 15.288C145.082 15.288 145.082 15.288 145.082 15.288C145.081 15.288 145.081 15.288 145.081 15.288C145.081 15.288 145.081 15.288 145.081 15.288C145.081 15.288 145.081 15.288 145.081 15.288C145.08 15.288 145.08 15.288 145.08 15.288C145.08 15.288 145.08 15.288 145.08 15.288C145.08 15.288 145.079 15.288 145.079 15.288C145.079 15.288 145.079 15.288 145.079 15.288C145.079 15.288 145.079 15.288 145.079 15.288C145.079 15.288 145.078 15.288 145.078 15.288C145.078 15.288 145.078 15.288 145.078 15.288C145.078 15.288 145.078 15.288 145.077 15.288C145.077 15.288 145.077 15.288 145.077 15.288C145.077 15.288 145.077 15.288 145.077 15.288C145.077 15.288 145.077 15.288 145.076 15.288C145.076 15.288 145.076 15.288 145.076 15.288C145.076 15.288 145.076 15.288 145.076 15.288C145.076 15.288 145.075 15.288 145.075 15.288C145.075 15.288 145.075 15.288 145.075 15.288C145.075 15.288 145.075 15.288 145.074 15.288C145.074 15.288 145.074 15.288 145.074 15.288C145.074 15.288 145.074 15.288 145.074 15.288C145.074 15.288 145.074 15.288 145.073 15.288C145.073 15.288 145.073 15.288 145.073 15.288C145.073 15.288 145.073 15.288 145.073 15.288C145.072 15.288 145.072 15.288 145.072 15.288C145.072 15.288 145.072 15.288 145.072 15.288C145.072 15.288 145.072 15.288 145.072 15.288C145.071 15.288 145.071 15.288 145.071 15.288C145.071 15.288 145.071 15.288 145.071 15.288C145.071 15.288 145.07 15.288 145.07 15.288C145.07 15.288 145.07 15.288 145.07 15.288C145.07 15.288 145.07 15.288 145.07 15.288C145.07 15.288 145.069 15.288 145.069 15.288C145.069 15.288 145.069 15.288 145.069 15.288C145.069 15.288 145.069 15.288 145.068 15.288C145.068 15.288 145.068 15.288 145.068 15.288C145.068 15.288 145.068 15.288 145.068 15.288C145.068 15.288 145.068 15.288 145.067 15.288C145.067 15.288 145.067 15.288 145.067 15.288C145.067 15.288 145.067 15.288 145.067 15.288C145.066 15.288 145.066 15.288 145.066 15.288C145.066 15.288 145.066 15.288 145.066 15.288C145.066 15.288 145.066 15.288 145.066 15.288C145.065 15.288 145.065 15.288 145.065 15.288C145.065 15.288 145.065 15.288 145.065 15.288C145.065 15.288 145.064 15.288 145.064 15.288C145.064 15.288 145.064 15.288 145.064 15.288C145.064 15.288 145.064 15.288 145.064 15.288C145.064 15.288 145.063 15.288 145.063 15.288C145.063 15.288 145.063 15.288 145.063 15.288C145.063 15.288 145.063 15.288 145.062 15.288C145.062 15.288 145.062 15.288 145.062 15.288C145.062 15.288 145.062 15.288 145.062 15.288C145.062 15.288 145.061 15.288 145.061 15.288C145.061 15.288 145.061 15.288 145.061 15.288C145.061 15.288 145.061 15.288 145.061 15.288C145.061 15.288 145.06 15.288 145.06 15.288C145.06 15.288 145.06 15.288 145.06 15.288C145.06 15.288 145.06 15.288 145.059 15.288C145.059 15.288 145.059 15.288 145.059 15.288C145.059 15.288 145.059 15.288 145.059 15.288C145.059 15.288 145.059 15.288 145.058 15.288C145.058 15.288 145.058 15.288 145.058 15.288C145.058 15.288 145.058 15.288 145.058 15.288C145.057 15.288 145.057 15.288 145.057 15.288C145.057 15.288 145.057 15.288 145.057 15.288C145.057 15.288 145.057 15.288 145.057 15.288C145.056 15.288 145.056 15.288 145.056 15.288C145.056 15.288 145.056 15.288 145.056 15.288C145.056 15.288 145.055 15.288 145.055 15.288C145.055 15.288 145.055 15.288 145.055 15.288C145.055 15.288 145.055 15.288 145.055 15.288C145.055 15.288 145.054 15.288 145.054 15.288C145.054 15.288 145.054 15.288 145.054 15.288C145.054 15.288 145.054 15.288 145.053 15.288C145.053 15.288 145.053 15.288 145.053 15.288C145.053 15.288 145.053 15.288 145.053 15.288C145.053 15.288 145.053 15.288 145.052 15.288C145.052 15.288 145.052 15.288 145.052 15.288C145.052 15.288 145.052 15.288 145.052 15.288C145.051 15.288 145.051 15.288 145.051 15.288C145.051 15.288 145.051 15.288 145.051 15.288C145.051 15.288 145.051 15.288 145.051 15.288C145.05 15.288 145.05 15.288 145.05 15.288C145.05 15.288 145.05 15.288 145.05 15.288C145.05 15.288 145.049 15.288 145.049 15.288C145.049 15.288 145.049 15.288 145.049 15.288C145.049 15.288 145.049 15.288 145.049 15.288C145.049 15.288 145.048 15.288 145.048 15.288C145.048 15.288 145.048 15.288 145.048 15.288C145.048 15.288 145.048 15.288 145.048 15.288C145.047 15.288 145.047 15.288 145.047 15.288C145.047 15.288 145.047 15.288 145.047 15.288C145.047 15.288 145.046 15.288 145.046 15.288C145.046 15.288 145.046 15.288 145.046 15.288C145.046 15.288 145.046 15.288 145.046 15.288C145.046 15.288 145.045 15.288 145.045 15.288C145.045 15.288 145.045 15.288 145.045 15.288C145.045 15.288 145.045 15.288 145.044 15.288C145.044 15.288 145.044 15.288 145.044 15.288C145.044 15.288 145.044 15.288 145.044 15.288C145.044 15.288 145.044 15.288 145.043 15.288C145.043 15.288 145.043 15.288 145.043 15.288C145.043 15.288 145.043 15.288 145.043 15.288C145.042 15.288 145.042 15.288 145.042 15.288C145.042 15.288 145.042 15.288 145.042 15.288C145.042 15.288 145.042 15.288 145.042 15.288C145.041 15.288 145.041 15.288 145.041 15.288C145.041 15.288 145.041 15.288 145.041 15.288C145.041 15.288 145.04 15.288 145.04 15.288C145.04 15.288 145.04 15.288 145.04 15.288C145.04 15.288 145.04 15.288 145.04 15.288C145.04 15.288 145.039 15.288 145.039 15.288C145.039 15.288 145.039 15.288 145.039 15.288C145.039 15.288 145.039 15.288 145.038 15.288C145.038 15.288 145.038 15.288 145.038 15.288C145.038 15.288 145.038 15.288 145.038 15.288C145.038 15.288 145.038 15.288 145.037 15.288C145.037 15.288 145.037 15.288 145.037 15.288C145.037 15.288 145.037 15.288 145.037 15.288C145.036 15.288 145.036 15.288 145.036 15.288C145.036 15.288 145.036 15.288 145.036 15.288C145.036 15.288 145.036 15.288 145.036 15.288C145.035 15.288 145.035 15.288 145.035 15.288C145.035 15.288 145.035 15.288 145.035 15.288C145.035 15.288 145.035 15.288 145.034 15.288C145.034 15.288 145.034 15.288 145.034 15.288C145.034 15.288 145.034 15.288 145.034 15.288C145.033 15.288 145.033 15.288 145.033 15.288C145.033 15.288 145.033 15.288 145.033 15.288C145.033 15.288 145.033 15.288 145.033 15.288C145.032 15.288 145.032 15.288 145.032 15.288C145.032 15.288 145.032 15.288 145.032 15.288C145.032 15.288 145.031 15.288 145.031 15.288C145.031 15.288 145.031 15.288 145.031 15.288C145.031 15.288 145.031 15.288 145.031 15.288C145.031 15.288 145.03 15.288 145.03 15.288C145.03 15.288 145.03 15.288 145.03 15.288C145.03 15.288 145.03 15.288 145.029 15.288C145.029 15.288 145.029 15.288 145.029 15.288C145.029 15.288 145.029 15.288 145.029 15.288C145.029 15.288 145.029 15.288 145.028 15.288C145.028 15.288 145.028 15.288 145.028 15.288C145.028 15.288 145.028 15.288 145.028 15.288C145.027 15.288 145.027 15.288 145.027 15.288C145.027 15.288 145.027 15.288 145.027 15.288C145.027 15.288 145.027 15.288 145.027 15.288C145.026 15.288 145.026 15.288 145.026 15.288C145.026 15.288 145.026 15.288 145.026 15.288C145.026 15.288 145.025 15.288 145.025 15.288C145.025 15.288 145.025 15.288 145.025 15.288C145.025 15.288 145.025 15.288 145.025 15.288C145.025 15.288 145.024 15.288 145.024 15.288C145.024 15.288 145.024 15.288 145.024 15.288C145.024 15.288 145.024 15.288 145.023 15.288C145.023 15.288 145.023 15.288 145.023 15.288C145.023 15.288 145.023 15.288 145.023 15.288C145.023 15.288 145.023 15.288 145.022 15.288C145.022 15.288 145.022 15.288 145.022 15.288C145.022 15.288 145.022 15.288 145.022 15.288C145.021 15.288 145.021 15.288 145.021 15.288C145.021 15.288 145.021 15.288 145.021 15.288C145.021 15.288 145.021 15.288 145.021 15.288C145.02 15.288 145.02 15.288 145.02 15.288C145.02 15.288 145.02 15.288 145.02 15.288C145.02 15.288 145.02 15.288 145.019 15.288C145.019 15.288 145.019 15.288 145.019 15.288C145.019 15.288 145.019 15.288 145.019 15.288C145.018 15.288 145.018 15.288 145.018 15.288C145.018 15.288 145.018 15.288 145.018 15.288C145.018 15.288 145.018 15.288 145.018 15.288C145.017 15.288 145.017 15.288 145.017 15.288C145.017 15.288 145.017 15.288 145.017 15.288C145.017 15.288 145.016 15.288 145.016 15.288C145.016 15.288 145.016 15.288 145.016 15.288C145.016 15.288 145.016 15.288 145.016 15.288C145.016 15.288 145.015 15.288 145.015 15.288C145.015 15.288 145.015 15.288 145.015 15.288C145.015 15.288 145.015 15.288 145.014 15.288C145.014 15.288 145.014 15.288 145.014 15.288C145.014 15.288 145.014 15.288 145.014 15.288C145.014 15.288 145.014 15.288 145.013 15.288C145.013 15.288 145.013 15.288 145.013 15.288C145.013 15.288 145.013 15.288 145.013 15.288C145.012 15.288 145.012 15.288 145.012 15.288C145.012 15.288 145.012 15.288 145.012 15.288C145.012 15.288 145.012 15.288 145.012 15.288C145.011 15.288 145.011 15.288 145.011 15.288C145.011 15.288 145.011 15.288 145.011 15.288C145.011 15.288 145.01 15.288 145.01 15.288C145.01 15.288 145.01 15.288 145.01 15.288C145.01 15.288 145.01 15.288 145.01 15.288C145.01 15.288 145.009 15.288 145.009 15.288C145.009 15.288 145.009 15.288 145.009 15.288C145.009 15.288 145.009 15.288 145.008 15.288C145.008 15.288 145.008 15.288 145.008 15.288C145.008 15.288 145.008 15.288 145.008 15.288C145.008 15.288 145.008 15.288 145.007 15.288C145.007 15.288 145.007 15.288 145.007 15.288C145.007 15.288 145.007 15.288 145.007 15.288C145.007 15.288 145.006 15.288 145.006 15.288C145.006 15.288 145.006 15.288 145.006 15.288C145.006 15.288 145.006 15.288 145.005 15.288C145.005 15.288 145.005 15.288 145.005 15.288C145.005 15.288 145.005 15.288 145.005 15.288C145.005 15.288 145.005 15.288 145.004 15.288C145.004 15.288 145.004 15.288 145.004 15.288C145.004 15.288 145.004 15.288 145.004 15.288C145.003 15.288 145.003 15.288 145.003 15.288C145.003 15.288 145.003 15.288 145.003 15.288C145.003 15.288 145.003 15.288 145.003 15.288C145.002 15.288 145.002 15.288 145.002 15.288C145.002 15.288 145.002 15.288 145.002 15.288C145.002 15.288 145.001 15.288 145.001 15.288C145.001 15.288 145.001 15.288 145.001 15.288C145.001 15.288 145.001 15.288 145.001 15.288C145.001 15.288 145 15.288 145 15.288C145 15.288 145 15.288 145 15.288C145 15.288 145 15.288 144.999 15.288C144.999 15.288 144.999 15.288 144.999 15.288C144.999 15.288 144.999 15.288 144.999 15.288C144.999 15.288 144.999 15.288 144.998 15.288C144.998 15.288 144.998 15.288 144.998 15.288C144.998 15.288 144.998 15.288 144.998 15.288C144.997 15.288 144.997 15.288 144.997 15.288C144.997 15.288 144.997 15.288 144.997 15.288C144.997 15.288 144.997 15.288 144.997 15.288C144.996 15.288 144.996 15.288 144.996 15.288C144.996 15.288 144.996 15.288 144.996 15.288C144.996 15.288 144.995 15.288 144.995 15.288C144.995 15.288 144.995 15.288 144.995 15.288C144.995 15.288 144.995 15.288 144.995 15.288C144.995 15.288 144.994 15.288 144.994 15.288C144.994 15.288 144.994 15.288 144.994 15.288C144.994 15.288 144.994 15.288 144.993 15.288C144.993 15.288 144.993 15.288 144.993 15.288C144.993 15.288 144.993 15.288 144.993 15.288C144.993 15.288 144.992 15.288 144.992 15.288C144.992 15.288 144.992 15.288 144.992 15.288C144.992 15.288 144.992 15.288 144.992 15.288C144.992 15.288 144.991 15.288 144.991 15.288C144.991 15.288 144.991 15.288 144.991 15.288C144.991 15.288 144.991 15.288 144.99 15.288C144.99 15.288 144.99 15.288 144.99 15.288C144.99 15.288 144.99 15.288 144.99 15.288C144.99 15.288 144.99 15.288 144.989 15.288C144.989 15.288 144.989 15.288 144.989 15.288C144.989 15.288 144.989 15.288 144.989 15.288C144.988 15.288 144.988 15.288 144.988 15.288C144.988 15.288 144.988 15.288 144.988 15.288C144.988 15.288 144.988 15.288 144.988 15.288C144.987 15.288 144.987 15.288 144.987 15.288C144.987 15.288 144.987 15.288 144.987 15.288C144.987 15.288 144.986 15.288 144.986 15.288C144.986 15.288 144.986 15.288 144.986 15.288C144.986 15.288 144.986 15.288 144.986 15.288C144.986 15.288 144.985 15.288 144.985 15.288C144.985 15.288 144.985 15.288 144.985 15.288C144.985 15.288 144.985 15.288 144.984 15.288C144.984 15.288 144.984 15.288 144.984 15.288C144.984 15.288 144.984 15.288 144.984 15.288C144.984 15.288 144.984 15.288 144.983 15.288C144.983 15.288 144.983 15.288 144.983 15.288C144.983 15.288 144.983 15.288 144.983 15.288C144.982 15.288 144.982 15.288 144.982 15.288C144.982 15.288 144.982 15.288 144.982 15.288C144.982 15.288 144.982 15.288 144.982 15.288C144.981 15.288 144.981 15.288 144.981 15.288C144.981 15.288 144.981 15.288 144.981 15.288C144.981 15.288 144.98 15.288 144.98 15.288C144.98 15.288 144.98 15.288 144.98 15.288C144.98 15.288 144.98 15.288 144.98 15.288C144.98 15.288 144.979 15.288 144.979 15.288C144.979 15.288 144.979 15.288 144.979 15.288C144.979 15.288 144.979 15.288 144.979 15.288C144.978 15.288 144.978 15.288 144.978 15.288C144.978 15.288 144.978 15.288 144.978 15.288C144.978 15.288 144.977 15.288 144.977 15.288C144.977 15.288 144.977 15.288 144.977 15.288C144.977 15.288 144.977 15.288 144.977 15.288C144.977 15.288 144.976 15.288 144.976 15.288C144.976 15.288 144.976 15.288 144.976 15.288C144.976 15.288 144.976 15.288 144.975 15.288C144.975 15.288 144.975 15.288 144.975 15.288C144.975 15.288 144.975 15.288 144.975 15.288C144.975 15.288 144.975 15.288 144.974 15.288C144.974 15.288 144.974 15.288 144.974 15.288C144.974 15.288 144.974 15.288 144.974 15.288C144.973 15.288 144.973 15.288 144.973 15.288C144.973 15.288 144.973 15.288 144.973 15.288C144.973 15.288 144.973 15.288 144.973 15.288C144.972 15.288 144.972 15.288 144.972 15.288C144.972 15.288 144.972 15.288 144.972 15.288C144.972 15.288 144.971 15.288 144.971 15.288C144.971 15.288 144.971 15.288 144.971 15.288C144.971 15.288 144.971 15.288 144.971 15.288C144.971 15.288 144.97 15.288 144.97 15.288C144.97 15.288 144.97 15.288 144.97 15.288C144.97 15.288 144.97 15.288 144.969 15.288C144.969 15.288 144.969 15.288 144.969 15.288C144.969 15.288 144.969 15.288 144.969 15.288C144.969 15.288 144.969 15.288 144.968 15.288C144.968 15.288 144.968 15.288 144.968 15.288C144.968 15.288 144.968 15.288 144.968 15.288C144.967 15.288 144.967 15.288 144.967 15.288C144.967 15.288 144.967 15.288 144.967 15.288C144.967 15.288 144.967 15.288 144.967 15.288C144.966 15.288 144.966 15.288 144.966 15.288C144.966 15.288 144.966 15.288 144.966 15.288C144.966 15.288 144.965 15.288 144.965 15.288C144.965 15.288 144.965 15.288 144.965 15.288C144.965 15.288 144.965 15.288 144.965 15.288C144.964 15.288 144.964 15.288 144.964 15.288C144.964 15.288 144.964 15.288 144.964 15.288C144.964 15.288 144.964 15.288 144.964 15.288C144.963 15.288 144.963 15.288 144.963 15.288C144.963 15.288 144.963 15.288 144.963 15.288C144.963 15.288 144.962 15.288 144.962 15.288C144.962 15.288 144.962 15.288 144.962 15.288C144.962 15.288 144.962 15.288 144.962 15.288C144.962 15.288 144.961 15.288 144.961 15.288C144.961 15.288 144.961 15.288 144.961 15.288C144.961 15.288 144.961 15.288 144.96 15.288C144.96 15.288 144.96 15.288 144.96 15.288C144.96 15.288 144.96 15.288 144.96 15.288C144.96 15.288 144.96 15.288 144.959 15.288C144.959 15.288 144.959 15.288 144.959 15.288C144.959 15.288 144.959 15.288 144.959 15.288C144.958 15.288 144.958 15.288 144.958 15.288C144.958 15.288 144.958 15.288 144.958 15.288C144.958 15.288 144.958 15.288 144.958 15.288C144.957 15.288 144.957 15.288 144.957 15.288C144.957 15.288 144.957 15.288 144.957 15.288C144.957 15.288 144.956 15.288 144.956 15.288C144.956 15.288 144.956 15.288 144.956 15.288C144.956 15.288 144.956 15.288 144.956 15.288C144.956 15.288 144.955 15.288 144.955 15.288C144.955 15.288 144.955 15.288 144.955 15.288C144.955 15.288 144.955 15.288 144.954 15.288C144.954 15.288 144.954 15.288 144.954 15.288C144.954 15.288 144.954 15.288 144.954 15.288C144.954 15.288 144.954 15.288 144.953 15.288C144.953 15.288 144.953 15.288 144.953 15.288C144.953 15.288 144.953 15.288 144.953 15.288C144.952 15.288 144.952 15.288 144.952 15.288C144.952 15.288 144.952 15.288 144.952 15.288C144.952 15.288 144.952 15.288 144.952 15.288C144.951 15.288 144.951 15.288 144.951 15.288C144.951 15.288 144.951 15.288 144.951 15.288C144.951 15.288 144.951 15.288 144.95 15.288C144.95 15.288 144.95 15.288 144.95 15.288C144.95 15.288 144.95 15.288 144.95 15.288C144.949 15.288 144.949 15.288 144.949 15.288C144.949 15.288 144.949 15.288 144.949 15.288C144.949 15.288 144.949 15.288 144.949 15.288C144.948 15.288 144.948 15.288 144.948 15.288C144.948 15.288 144.948 15.288 144.948 15.288C144.948 15.288 144.947 15.288 144.947 15.288C144.947 15.288 144.947 15.288 144.947 15.288C144.947 15.288 144.947 15.288 144.947 15.288C144.947 15.288 144.946 15.288 144.946 15.288C144.946 15.288 144.946 15.288 144.946 15.288C144.946 15.288 144.946 15.288 144.945 15.288C144.945 15.288 144.945 15.288 144.945 15.288C144.945 15.288 144.945 15.288 144.945 15.288C144.945 15.288 144.945 15.288 144.944 15.288C144.944 15.288 144.944 15.288 144.944 15.288C144.944 15.288 144.944 15.288 144.944 15.288C144.943 15.288 144.943 15.288 144.943 15.288C144.943 15.288 144.943 15.288 144.943 15.288C144.943 15.288 144.943 15.288 144.943 15.288C144.942 15.288 144.942 15.288 144.942 15.288C144.942 15.288 144.942 15.288 144.942 15.288C144.942 15.288 144.941 15.288 144.941 15.288C144.941 15.288 144.941 15.288 144.941 15.288C144.941 15.288 144.941 15.288 144.941 15.288C144.941 15.288 144.94 15.288 144.94 15.288C144.94 15.288 144.94 15.288 144.94 15.288C144.94 15.288 144.94 15.288 144.939 15.288C144.939 15.288 144.939 15.288 144.939 15.288C144.939 15.288 144.939 15.288 144.939 15.288C144.939 15.288 144.939 15.288 144.938 15.288C144.938 15.288 144.938 15.288 144.938 15.288C144.938 15.288 144.938 15.288 144.938 15.288C144.938 15.288 144.937 15.288 144.937 15.288V19.288ZM145.129 19.288C146.711 19.288 148.033 18.5756 148.853 18.1601C149.823 17.6687 150.307 17.464 150.793 17.464V13.464C149.2 13.464 147.875 14.1713 147.045 14.5919C146.065 15.0884 145.596 15.288 145.129 15.288V19.288ZM150.793 17.464C151.741 17.464 152.183 17.8245 152.396 18.1514C152.642 18.5295 152.776 19.168 152.525 19.9697C152.056 21.4661 150.064 23.672 145.161 23.672V27.672C151.299 27.672 155.211 24.7739 156.342 21.1663C156.89 19.416 156.748 17.5025 155.747 15.9666C154.712 14.3795 152.933 13.464 150.793 13.464V17.464ZM145.161 23.672C140.628 23.672 137.751 21.8322 136.714 20.7032L133.768 23.4088C135.611 25.4158 139.582 27.672 145.161 27.672V23.672ZM136.8 23.3095L139.168 20.3655L136.051 17.8585L133.683 20.8025L136.8 23.3095ZM136.295 20.6191C137.197 21.4065 138.534 22.2992 140.047 23.0019C141.549 23.6997 143.375 24.28 145.225 24.28V20.28C144.164 20.28 142.934 19.9323 141.732 19.3741C140.54 18.8208 139.525 18.1295 138.924 17.6049L136.295 20.6191ZM145.225 24.28C146.34 24.28 147.344 23.9922 148.088 23.3149C148.822 22.6462 149.081 21.7954 149.081 21.128H145.081C145.081 20.8126 145.196 20.5378 145.395 20.3571C145.603 20.1678 145.679 20.28 145.225 20.28V24.28ZM149.081 21.128C149.081 19.8569 148.28 19.0701 147.583 18.6781C146.979 18.3381 146.269 18.1723 145.729 18.0655C144.396 17.8017 143.376 17.7336 142.027 17.3751C140.804 17.05 139.824 16.584 139.145 15.8592C138.51 15.182 137.945 14.0715 137.945 12.04L133.945 12.04C133.945 14.8885 134.772 17.042 136.226 18.5938C137.635 20.098 139.439 20.826 140.999 21.2409C142.435 21.6224 144.199 21.8403 144.953 21.9895C145.18 22.0343 145.349 22.0753 145.475 22.1133C145.606 22.1529 145.641 22.1751 145.622 22.1643C145.534 22.1149 145.081 21.7751 145.081 21.128H149.081ZM137.945 12.04C137.945 8.38525 141.265 4.728 145.641 4.728V0.727999C139.073 0.727999 133.945 6.15875 133.945 12.04L137.945 12.04ZM145.641 4.728C148.303 4.728 149.658 5.76532 150.452 6.85658C151.329 8.0617 151.647 9.51999 151.795 10.4385L155.744 9.80153C155.572 8.73601 155.138 6.4983 153.687 4.50342C152.152 2.39468 149.604 0.727999 145.641 0.727999V4.728ZM152.688 8.43741L145.168 13.2694L147.33 16.6346L154.85 11.8026L152.688 8.43741ZM155.71 12.104H153.71V13.8977L155.493 14.0922L155.71 12.104ZM155.71 3.496L155.785 1.49739L153.71 1.42003V3.496H155.71ZM165.15 3.848L167.15 3.87719L167.178 1.92224L165.225 1.84939L165.15 3.848ZM170.75 3.56L170.587 1.56663L168.644 1.72523L168.753 3.67156L170.75 3.56ZM175.454 3.176L177.451 3.07042L177.343 1.01518L175.291 1.18263L175.454 3.176ZM157.47 12.296L159.464 12.4504L159.614 10.518L157.687 10.3078L157.47 12.296ZM157.71 12.104V3.496L153.71 3.496V12.104H157.71ZM155.635 5.49461L165.075 5.84661L165.225 1.84939L155.785 1.49739L155.635 5.49461ZM163.15 3.81881C163.12 5.88886 162.915 9.79971 163.168 13.101C163.294 14.7426 163.544 16.4419 164.08 17.7867C164.588 19.0642 165.691 20.76 167.838 20.76V16.76C168.241 16.76 168.128 17.1398 167.795 16.3063C167.49 15.5401 167.274 14.3334 167.156 12.795C166.921 9.73629 167.116 6.19114 167.15 3.87719L163.15 3.81881ZM167.838 20.76C169.844 20.76 171.021 19.3344 171.63 18.0466C172.239 16.7615 172.551 15.1303 172.723 13.5195C173.07 10.2551 172.907 6.30609 172.747 3.44844L168.753 3.67156C168.913 6.54191 169.054 10.1929 168.745 13.0965C168.589 14.5697 168.333 15.6645 168.016 16.3344C167.699 17.0016 167.592 16.76 167.838 16.76V20.76ZM170.913 5.55337L175.617 5.16937L175.291 1.18263L170.587 1.56663L170.913 5.55337ZM173.457 3.28158C173.659 7.11142 174.244 12.3477 173.339 16.7276C172.896 18.8743 172.133 20.5793 170.975 21.7377C169.868 22.8449 168.216 23.64 165.566 23.64V27.64C169.108 27.64 171.836 26.5351 173.804 24.5653C175.721 22.6467 176.728 20.0977 177.257 17.5364C178.296 12.5003 177.633 6.50458 177.451 3.07042L173.457 3.28158ZM165.566 23.64C163.914 23.64 162.809 23.2178 162.035 22.6448C161.244 22.0597 160.645 21.2033 160.212 20.0985C159.32 17.8202 159.277 14.8615 159.464 12.4504L155.476 12.1416C155.279 14.6905 155.252 18.4038 156.488 21.5575C157.119 23.1687 158.112 24.7183 159.655 25.8602C161.215 27.0142 163.186 27.64 165.566 27.64V23.64ZM157.687 10.3078L155.927 10.1158L155.493 14.0922L157.253 14.2842L157.687 10.3078ZM191.309 25L189.64 26.1033L190.233 27H191.309V25ZM185.997 16.968L187.665 15.8647L184.336 10.8311L184 16.8566L185.997 16.968ZM185.548 25V27L187.44 27L187.545 25.1114L185.548 25ZM178.124 25L176.129 24.8663L175.986 27H178.124V25ZM178.988 12.104L180.984 12.2377L181.116 10.2657L179.146 10.1102L178.988 12.104ZM177.773 12.008H175.773V13.8563L177.615 14.0018L177.773 12.008ZM177.773 5.736L177.214 3.81554L175.773 4.23472V5.736H177.773ZM186.796 3.112L188.629 2.31089L187.925 0.700946L186.238 1.19154L186.796 3.112ZM191.917 14.824L190.084 15.6251L193.162 22.6651L193.907 15.0181L191.917 14.824ZM193.036 3.336V1.336H191.222L191.046 3.14193L193.036 3.336ZM199.82 3.336L201.82 3.39801L201.883 1.336H199.82V3.336ZM199.148 25V27H201.087L201.148 25.062L199.148 25ZM192.977 23.8967L187.665 15.8647L184.328 18.0713L189.64 26.1033L192.977 23.8967ZM184 16.8566L183.552 24.8886L187.545 25.1114L187.993 17.0794L184 16.8566ZM185.548 23H178.124V27H185.548V23ZM180.12 25.1337L180.984 12.2377L176.993 11.9703L176.129 24.8663L180.12 25.1337ZM179.146 10.1102L177.93 10.0142L177.615 14.0018L178.831 14.0978L179.146 10.1102ZM179.773 12.008V5.736L175.773 5.736V12.008H179.773ZM178.331 7.65646L187.355 5.03246L186.238 1.19154L177.214 3.81554L178.331 7.65646ZM184.964 3.91311L190.084 15.6251L193.749 14.0229L188.629 2.31089L184.964 3.91311ZM193.907 15.0181L195.027 3.53006L191.046 3.14193L189.926 14.6299L193.907 15.0181ZM193.036 5.336L199.82 5.336V1.336L193.036 1.336V5.336ZM197.821 3.27399L197.149 24.938L201.148 25.062L201.82 3.39801L197.821 3.27399ZM199.148 23H191.309V27H199.148V23ZM215.277 25L213.609 26.1033L214.202 27H215.277V25ZM209.965 16.968L211.633 15.8647L208.304 10.8311L207.968 16.8566L209.965 16.968ZM209.517 25V27H211.409L211.514 25.1114L209.517 25ZM202.093 25L200.098 24.8663L199.955 27H202.093V25ZM202.957 12.104L204.953 12.2377L205.085 10.2657L203.115 10.1102L202.957 12.104ZM201.741 12.008H199.741V13.8563L201.584 14.0018L201.741 12.008ZM201.741 5.736L201.183 3.81554L199.741 4.23472V5.736L201.741 5.736ZM210.765 3.112L212.598 2.31089L211.894 0.700946L210.207 1.19154L210.765 3.112ZM215.885 14.824L214.053 15.6251L217.13 22.6651L217.876 15.0181L215.885 14.824ZM217.005 3.336V1.336L215.191 1.336L215.015 3.14193L217.005 3.336ZM223.789 3.336L225.788 3.39801L225.852 1.336L223.789 1.336V3.336ZM223.117 25V27H225.056L225.116 25.062L223.117 25ZM216.945 23.8967L211.633 15.8647L208.297 18.0713L213.609 26.1033L216.945 23.8967ZM207.968 16.8566L207.52 24.8886L211.514 25.1114L211.962 17.0794L207.968 16.8566ZM209.517 23L202.093 23V27L209.517 27V23ZM204.089 25.1337L204.953 12.2377L200.962 11.9703L200.098 24.8663L204.089 25.1337ZM203.115 10.1102L201.899 10.0142L201.584 14.0018L202.8 14.0978L203.115 10.1102ZM203.741 12.008V5.736L199.741 5.736V12.008L203.741 12.008ZM202.3 7.65646L211.324 5.03246L210.207 1.19154L201.183 3.81554L202.3 7.65646ZM208.933 3.91311L214.053 15.6251L217.718 14.0229L212.598 2.31089L208.933 3.91311ZM217.876 15.0181L218.996 3.53006L215.015 3.14193L213.895 14.6299L217.876 15.0181ZM217.005 5.336L223.789 5.336V1.336L217.005 1.336V5.336ZM221.79 3.27399L221.118 24.938L225.116 25.062L225.788 3.39801L221.79 3.27399ZM223.117 23H215.277V27H223.117V23ZM232.11 16.968L230.205 16.3574L229.319 19.1212L232.218 18.9651L232.11 16.968ZM236.27 16.744L236.378 18.7411L238.641 18.6193L238.238 16.3889L236.27 16.744ZM234.798 8.584L236.766 8.22895L232.893 7.97339L234.798 8.584ZM236.942 20.52L238.91 20.1664L238.603 18.4571L236.868 18.5214L236.942 20.52ZM230.894 20.744L230.82 18.7454L229.413 18.7975L228.988 20.1392L230.894 20.744ZM229.422 25.384L228.287 27.0304L230.511 28.5647L231.328 25.9888L229.422 25.384ZM225.71 22.824L223.784 22.2846L223.399 23.6597L224.575 24.4704L225.71 22.824ZM231.374 2.6L231.519 0.605274L229.889 0.486631L229.448 2.06063L231.374 2.6ZM243.246 3.464L245.206 3.06396L244.902 1.57926L243.391 1.46927L243.246 3.464ZM247.342 23.528L247.822 25.4694L249.685 25.0084L249.302 23.128L247.342 23.528ZM237.902 25.864L235.934 26.2176L236.311 28.3181L238.382 27.8054L237.902 25.864ZM232.218 18.9651L236.378 18.7411L236.162 14.7469L232.002 14.9709L232.218 18.9651ZM238.238 16.3889L236.766 8.22895L232.83 8.93905L234.302 17.0991L238.238 16.3889ZM232.893 7.97339L230.205 16.3574L234.015 17.5786L236.703 9.19461L232.893 7.97339ZM236.868 18.5214L230.82 18.7454L230.968 22.7426L237.016 22.5186L236.868 18.5214ZM228.988 20.1392L227.516 24.7792L231.328 25.9888L232.8 21.3488L228.988 20.1392ZM230.557 23.7376L226.845 21.1776L224.575 24.4704L228.287 27.0304L230.557 23.7376ZM227.636 23.3634L233.3 3.13937L229.448 2.06063L223.784 22.2846L227.636 23.3634ZM231.229 4.59472L243.101 5.45872L243.391 1.46927L231.519 0.605274L231.229 4.59472ZM241.286 3.86404L245.382 23.928L249.302 23.128L245.206 3.06396L241.286 3.86404ZM246.862 21.5866L237.422 23.9226L238.382 27.8054L247.822 25.4694L246.862 21.5866ZM239.87 25.5104L238.91 20.1664L234.974 20.8736L235.934 26.2176L239.87 25.5104ZM249.305 3.56L249.276 1.5602L247.305 1.58787V3.56H249.305ZM258.424 3.432L260.421 3.30761L260.302 1.40545L258.396 1.4322L258.424 3.432ZM259.768 25V27H261.897L261.765 24.8756L259.768 25ZM249.273 25L247.291 24.731L246.983 27H249.273V25ZM251.193 10.856L252.788 9.65033L249.863 5.77913L249.211 10.587L251.193 10.856ZM252.281 12.296V14.296H256.298L253.876 11.0903L252.281 12.296ZM249.305 12.296L247.305 12.296V14.296L249.305 14.296V12.296ZM264.569 3.592L264.537 1.59224L262.724 1.62043L262.575 3.42813L264.569 3.592ZM270.745 3.496L272.745 3.496V1.46467L270.713 1.49624L270.745 3.496ZM270.745 25V27H272.745V25H270.745ZM262.809 25L260.815 24.8361L260.637 27H262.809V25ZM255.513 14.024L255.337 12.0318L253.553 12.1893L253.513 13.9788L255.513 14.024ZM265.656 13.128H267.656V10.9436L265.481 11.1358L265.656 13.128ZM265.656 17.768L266.024 19.734L267.656 19.4288V17.768H265.656ZM255.384 19.688L253.385 19.6428L253.329 22.1068L255.752 21.654L255.384 19.688ZM249.333 5.5598L258.453 5.4318L258.396 1.4322L249.276 1.5602L249.333 5.5598ZM256.428 3.55639L257.772 25.1244L261.765 24.8756L260.421 3.30761L256.428 3.55639ZM259.768 23L249.273 23V27L259.768 27V23ZM251.254 25.269L253.174 11.125L249.211 10.587L247.291 24.731L251.254 25.269ZM249.597 12.0617L250.685 13.5017L253.876 11.0903L252.788 9.65033L249.597 12.0617ZM252.281 10.296H249.305V14.296H252.281V10.296ZM251.305 12.296V3.56L247.305 3.56V12.296L251.305 12.296ZM264.6 5.59176L270.776 5.49576L270.713 1.49624L264.537 1.59224L264.6 5.59176ZM268.745 3.496V25H272.745V3.496L268.745 3.496ZM270.745 23H262.809V27H270.745V23ZM264.802 25.1639L266.562 3.75587L262.575 3.42813L260.815 24.8361L264.802 25.1639ZM255.688 16.0162L265.832 15.1202L265.481 11.1358L255.337 12.0318L255.688 16.0162ZM263.656 13.128V17.768H267.656V13.128H263.656ZM265.289 15.802L255.017 17.722L255.752 21.654L266.024 19.734L265.289 15.802ZM257.384 19.7332L257.512 14.0692L253.513 13.9788L253.385 19.6428L257.384 19.7332Z" fill="#F5DE68" mask="url(#path-1-outside-1_3185_892)"/>
</svg>
