<svg width="92" height="70" viewBox="0 0 92 70" fill="none" xmlns="http://www.w3.org/2000/svg">
<path d="M5.50565 -0.000173418L63.7286 -0.000168328C66.7568 -0.000168063 69.2344 2.47745 69.2344 5.50563L69.2344 63.7286C69.2344 66.7568 66.7568 69.2344 63.7286 69.2344L5.50564 69.2344C2.47745 69.2344 -0.000160001 66.7568 -0.000159736 63.7286L-0.000154646 5.50563C-0.000154381 2.47744 2.47745 -0.000173683 5.50565 -0.000173418Z" fill="#CAB2D6"/>
<path d="M28.2044 -0.000173418L86.4273 -0.000168328C89.4555 -0.000168063 91.9331 2.47745 91.9331 5.50563L91.9331 63.7286C91.9331 66.7568 89.4555 69.2344 86.4273 69.2344L28.2044 69.2344C25.1762 69.2344 22.6986 66.7568 22.6986 63.7286L22.6986 5.50563C22.6986 2.47744 25.1762 -0.000173683 28.2044 -0.000173418Z" fill="#55317B"/>
<path d="M10.1258 5.69556L12.6309 5.69556C15.6591 5.69556 18.1367 8.17318 18.1367 11.2014L18.1367 58.0333C18.1367 61.0615 15.6591 63.5391 12.6309 63.5391L10.1258 63.5391C7.09759 63.5391 4.61998 61.0615 4.61998 58.0333L4.61998 11.2014C4.61998 8.17317 7.0976 5.69556 10.1258 5.69556Z" fill="#55317B"/>
<path d="M33.6623 6.1565L80.4942 6.1565C83.5224 6.1565 86 8.63411 86 11.6623L86 58.4942C86 61.5224 83.5224 64 80.4942 64L33.6623 64C30.6341 64 28.1565 61.5224 28.1565 58.4942L28.1565 11.6623C28.1565 8.6341 30.6341 6.1565 33.6623 6.1565Z" fill="#CAB2D6"/>
<path d="M58.5941 24.808C58.7711 24.5269 59.0491 24.4503 59.4282 24.578C60.7677 25.0634 61.9557 25.7532 62.9919 26.6985C63.2699 26.9795 63.3205 27.2605 63.1183 27.5926L60.793 31.3225C60.5655 31.6801 60.2875 31.7312 59.9842 31.4757C59.6809 31.2203 58.9227 30.7349 57.7348 29.994L56.2183 32.4465C55.9655 32.7787 55.6622 32.8042 55.3337 32.5487C55.0051 32.2932 53.8425 31.5268 51.8205 30.3261C51.4919 30.1217 51.4413 29.8407 51.6435 29.5086L53.9941 25.9576C54.3732 25.3955 55.4601 25.7277 57.204 26.9028L58.5941 24.808ZM55.1315 19.2898C55.3084 19.0088 55.5864 18.9321 55.9655 19.0599C57.3051 19.5453 58.493 20.235 59.5293 21.1803C59.8073 21.4613 59.8579 21.7423 59.6557 22.0744L57.3304 25.8043C57.0776 26.1364 56.7743 26.1875 56.4458 25.9065C56.1172 25.651 54.9293 24.9101 52.9073 23.6839C52.5787 23.4795 52.5281 23.224 52.7556 22.8919L55.1315 19.2898ZM39.4358 46.2675C37.8435 44.2493 37.5655 41.6946 38.6523 38.5778C39.1072 37.326 39.9413 35.9976 41.205 34.5669C41.66 34.056 42.0644 33.9794 42.393 34.3115C42.7215 34.6436 42.6457 35.0268 42.2413 35.4866C41.0787 36.7384 40.5732 37.9136 40.7501 39.0121C41.3567 42.7931 46.26 44.6836 55.3842 44.6836C63.1183 44.7091 69.5381 43.2529 74.6183 40.3917C74.3403 39.191 73.6326 38.0669 72.4447 37.045C72.1414 36.764 72.0656 36.3808 72.2425 35.8954L73.7084 31.5524C74.0117 30.6582 74.5172 30.7349 75.1997 31.8334C76.8425 34.4137 77.3733 37.607 76.7414 41.388C76.4128 43.2529 75.7304 44.5303 74.6436 45.2201C69.3359 48.6178 62.8403 50.5338 55.182 50.9426C47.4985 51.3258 42.2413 49.793 39.4358 46.2675Z" fill="#6A3D9A"/>
</svg>
