<svg width="92" height="70" viewBox="0 0 92 70" fill="none" xmlns="http://www.w3.org/2000/svg">
<path d="M5.50565 -0.000173418L63.7286 -0.000168328C66.7568 -0.000168063 69.2344 2.47745 69.2344 5.50563L69.2344 63.7286C69.2344 66.7568 66.7568 69.2344 63.7286 69.2344L5.50564 69.2344C2.47745 69.2344 -0.000160001 66.7568 -0.000159736 63.7286L-0.000154646 5.50563C-0.000154381 2.47744 2.47745 -0.000173683 5.50565 -0.000173418Z" fill="#CAB2D6"/>
<path d="M28.2044 -0.000173418L86.4273 -0.000168328C89.4555 -0.000168063 91.9331 2.47745 91.9331 5.50563L91.9331 63.7286C91.9331 66.7568 89.4555 69.2344 86.4273 69.2344L28.2044 69.2344C25.1762 69.2344 22.6986 66.7568 22.6986 63.7286L22.6986 5.50563C22.6986 2.47744 25.1762 -0.000173683 28.2044 -0.000173418Z" fill="#55317B"/>
<path d="M10.1258 5.69556L12.6309 5.69556C15.6591 5.69556 18.1367 8.17318 18.1367 11.2014L18.1367 58.0333C18.1367 61.0615 15.6591 63.5391 12.6309 63.5391L10.1258 63.5391C7.09759 63.5391 4.61998 61.0615 4.61998 58.0333L4.61998 11.2014C4.61998 8.17317 7.0976 5.69556 10.1258 5.69556Z" fill="#55317B"/>
<path d="M33.905 5.70044L80.7369 5.70045C83.7651 5.70045 86.2427 8.17805 86.2427 11.2062L86.2427 58.0381C86.2427 61.0663 83.7651 63.5439 80.7369 63.5439L33.905 63.5439C30.8768 63.5439 28.3992 61.0663 28.3992 58.0381L28.3992 11.2062C28.3992 8.17805 30.8768 5.70044 33.905 5.70044Z" fill="#CAB2D6"/>
<path d="M68.9169 42.4011C67.9817 41.2777 65.9436 41.1312 62.8264 41.9859C59.6853 42.8163 57.0956 44.2327 55.0095 46.1864C60.9801 45.4782 65.6319 44.2083 68.9169 42.4011ZM52.7316 24.8177C52.324 21.8139 52.0842 20.1776 52.0362 19.8845C51.9643 19.6159 52.0602 19.2496 52.252 18.7367C52.324 18.6879 52.6356 17.9797 53.1871 16.5876C53.331 16.1969 53.5708 16.0015 53.8825 16.0015C54.1942 15.9771 54.458 16.2458 54.6738 16.8074C54.9855 17.6378 55.2253 18.2483 55.4411 18.6391C55.6329 19.0298 56.0166 19.5671 56.5921 20.2264C57.1675 20.8858 57.2874 21.4964 56.9038 22.0092C56.0645 23.0593 55.6329 23.5966 55.6329 23.621C56.3283 31.2405 56.5921 36.076 56.4002 38.0785C56.2324 40.1055 56.0885 41.4975 56.0166 42.3034C60.6923 38.0297 64.5768 35.7096 67.694 35.3677C68.725 35.2701 69.6602 35.4898 70.4994 36.1004C72.0101 37.1505 72.8253 38.2739 72.9692 39.4705C73.113 40.6672 72.7534 42.108 71.8902 43.8175C71.0269 45.527 70.3316 46.6748 69.7801 47.261C68.9169 48.1646 66.3992 49.3124 62.2269 50.6555C58.0547 51.9987 53.5948 52.8046 48.8951 53C47.0487 52.6825 45.5381 52.072 44.4111 51.1684C43.2602 50.2892 42.4209 49.5077 41.8934 48.8484C40.5027 47.09 40.7425 46.3085 42.5648 46.5283C45.0346 46.8214 47.9839 46.8702 51.4368 46.626L54.1223 43.9641C54.2901 39.6659 53.8346 33.2431 52.7316 24.8177Z" fill="#6A3D9A"/>
</svg>
