<svg width="342" height="192" viewBox="0 0 342 192" fill="none" xmlns="http://www.w3.org/2000/svg">
<path d="M0 37C0 25.9543 8.95431 17 20 17H322C333.046 17 342 25.9543 342 37V172C342 183.046 333.046 192 322 192H20C8.95431 192 0 183.046 0 172V37Z" fill="#FFE1D1"/>
<path d="M176.048 105L171.053 87.5455H175.085L177.974 99.6733H178.119L181.306 87.5455H184.758L187.937 99.6989H188.09L190.979 87.5455H195.011L190.016 105H186.42L183.096 93.5881H182.96L179.644 105H176.048ZM201.477 105.256C200.131 105.256 198.972 104.983 198 104.438C197.034 103.886 196.29 103.108 195.767 102.102C195.244 101.091 194.983 99.8949 194.983 98.5142C194.983 97.1676 195.244 95.9858 195.767 94.9688C196.29 93.9517 197.026 93.1591 197.974 92.5909C198.929 92.0227 200.048 91.7386 201.332 91.7386C202.196 91.7386 203 91.8778 203.744 92.1562C204.494 92.429 205.148 92.8409 205.705 93.392C206.267 93.9432 206.705 94.6364 207.017 95.4716C207.33 96.3011 207.486 97.2727 207.486 98.3864V99.3835H196.432V97.1335H204.068C204.068 96.6108 203.955 96.1477 203.727 95.7443C203.5 95.3409 203.185 95.0256 202.781 94.7983C202.384 94.5653 201.92 94.4489 201.392 94.4489C200.841 94.4489 200.352 94.5767 199.926 94.8324C199.506 95.0824 199.176 95.4205 198.938 95.8466C198.699 96.267 198.577 96.7358 198.571 97.2528V99.392C198.571 100.04 198.69 100.599 198.929 101.071C199.173 101.543 199.517 101.906 199.96 102.162C200.403 102.418 200.929 102.545 201.537 102.545C201.94 102.545 202.31 102.489 202.645 102.375C202.98 102.261 203.267 102.091 203.506 101.864C203.744 101.636 203.926 101.358 204.051 101.028L207.409 101.25C207.239 102.057 206.889 102.761 206.361 103.364C205.838 103.96 205.162 104.426 204.332 104.761C203.509 105.091 202.557 105.256 201.477 105.256ZM213.588 105.247C212.753 105.247 212.009 105.102 211.355 104.812C210.702 104.517 210.185 104.082 209.804 103.509C209.429 102.929 209.241 102.207 209.241 101.344C209.241 100.616 209.375 100.006 209.642 99.5114C209.909 99.017 210.273 98.6193 210.733 98.3182C211.193 98.017 211.716 97.7898 212.301 97.6364C212.892 97.483 213.511 97.375 214.159 97.3125C214.92 97.233 215.534 97.1591 216 97.0909C216.466 97.017 216.804 96.9091 217.014 96.767C217.224 96.625 217.33 96.4148 217.33 96.1364V96.0852C217.33 95.5455 217.159 95.1278 216.818 94.8324C216.483 94.5369 216.006 94.3892 215.386 94.3892C214.733 94.3892 214.213 94.5341 213.827 94.8239C213.44 95.108 213.185 95.4659 213.06 95.8977L209.702 95.625C209.872 94.8295 210.207 94.142 210.707 93.5625C211.207 92.9773 211.852 92.5284 212.642 92.2159C213.438 91.8977 214.358 91.7386 215.403 91.7386C216.131 91.7386 216.827 91.8239 217.491 91.9943C218.162 92.1648 218.756 92.429 219.273 92.7869C219.795 93.1449 220.207 93.6051 220.509 94.1676C220.81 94.7244 220.96 95.392 220.96 96.1705V105H217.517V103.185H217.415C217.205 103.594 216.923 103.955 216.571 104.267C216.219 104.574 215.795 104.815 215.301 104.991C214.807 105.162 214.236 105.247 213.588 105.247ZM214.628 102.741C215.162 102.741 215.634 102.636 216.043 102.426C216.452 102.21 216.773 101.92 217.006 101.557C217.239 101.193 217.355 100.781 217.355 100.321V98.9318C217.241 99.0057 217.085 99.0739 216.886 99.1364C216.693 99.1932 216.474 99.2472 216.23 99.2983C215.986 99.3437 215.741 99.3864 215.497 99.4261C215.253 99.4602 215.031 99.4915 214.832 99.5199C214.406 99.5824 214.034 99.6818 213.716 99.8182C213.398 99.9545 213.151 100.139 212.974 100.372C212.798 100.599 212.71 100.884 212.71 101.224C212.71 101.719 212.889 102.097 213.247 102.358C213.611 102.614 214.071 102.741 214.628 102.741ZM223.777 105V91.9091H227.297V94.1932H227.433C227.672 93.3807 228.072 92.767 228.635 92.3523C229.197 91.9318 229.845 91.7216 230.578 91.7216C230.76 91.7216 230.956 91.733 231.166 91.7557C231.376 91.7784 231.561 91.8097 231.72 91.8494V95.071C231.55 95.0199 231.314 94.9744 231.013 94.9347C230.712 94.8949 230.436 94.875 230.186 94.875C229.652 94.875 229.175 94.9915 228.754 95.2244C228.339 95.4517 228.01 95.7699 227.766 96.179C227.527 96.5881 227.408 97.0597 227.408 97.5938V105H223.777ZM242.885 105.247C242.05 105.247 241.305 105.102 240.652 104.812C239.999 104.517 239.482 104.082 239.101 103.509C238.726 102.929 238.538 102.207 238.538 101.344C238.538 100.616 238.672 100.006 238.939 99.5114C239.206 99.017 239.57 98.6193 240.03 98.3182C240.49 98.017 241.013 97.7898 241.598 97.6364C242.189 97.483 242.808 97.375 243.456 97.3125C244.217 97.233 244.831 97.1591 245.297 97.0909C245.763 97.017 246.101 96.9091 246.311 96.767C246.521 96.625 246.626 96.4148 246.626 96.1364V96.0852C246.626 95.5455 246.456 95.1278 246.115 94.8324C245.78 94.5369 245.303 94.3892 244.683 94.3892C244.03 94.3892 243.51 94.5341 243.124 94.8239C242.737 95.108 242.482 95.4659 242.357 95.8977L238.999 95.625C239.169 94.8295 239.504 94.142 240.004 93.5625C240.504 92.9773 241.149 92.5284 241.939 92.2159C242.734 91.8977 243.655 91.7386 244.7 91.7386C245.428 91.7386 246.124 91.8239 246.788 91.9943C247.459 92.1648 248.053 92.429 248.57 92.7869C249.092 93.1449 249.504 93.6051 249.805 94.1676C250.107 94.7244 250.257 95.392 250.257 96.1705V105H246.814V103.185H246.712C246.501 103.594 246.22 103.955 245.868 104.267C245.516 104.574 245.092 104.815 244.598 104.991C244.104 105.162 243.533 105.247 242.885 105.247ZM243.925 102.741C244.459 102.741 244.93 102.636 245.339 102.426C245.749 102.21 246.07 101.92 246.303 101.557C246.536 101.193 246.652 100.781 246.652 100.321V98.9318C246.538 99.0057 246.382 99.0739 246.183 99.1364C245.99 99.1932 245.771 99.2472 245.527 99.2983C245.283 99.3437 245.038 99.3864 244.794 99.4261C244.55 99.4602 244.328 99.4915 244.129 99.5199C243.703 99.5824 243.331 99.6818 243.013 99.8182C242.695 99.9545 242.447 100.139 242.271 100.372C242.095 100.599 242.007 100.884 242.007 101.224C242.007 101.719 242.186 102.097 242.544 102.358C242.908 102.614 243.368 102.741 243.925 102.741ZM264.543 105.256C263.202 105.256 262.049 104.972 261.083 104.403C260.123 103.83 259.384 103.034 258.867 102.017C258.356 101 258.1 99.8295 258.1 98.5057C258.1 97.1648 258.359 95.9886 258.876 94.9773C259.398 93.9602 260.14 93.1676 261.1 92.5994C262.06 92.0256 263.202 91.7386 264.526 91.7386C265.668 91.7386 266.668 91.946 267.526 92.3608C268.384 92.7756 269.063 93.358 269.563 94.108C270.063 94.858 270.339 95.7386 270.39 96.75H266.964C266.867 96.0966 266.612 95.571 266.197 95.1733C265.788 94.7699 265.251 94.5682 264.586 94.5682C264.023 94.5682 263.532 94.7216 263.112 95.0284C262.697 95.3295 262.373 95.7699 262.14 96.3494C261.907 96.929 261.79 97.6307 261.79 98.4545C261.79 99.2898 261.904 100 262.131 100.585C262.364 101.17 262.691 101.616 263.112 101.923C263.532 102.23 264.023 102.384 264.586 102.384C265.001 102.384 265.373 102.298 265.702 102.128C266.038 101.957 266.313 101.71 266.529 101.386C266.751 101.057 266.896 100.662 266.964 100.202H270.39C270.333 101.202 270.06 102.082 269.572 102.844C269.089 103.599 268.421 104.19 267.569 104.616C266.717 105.043 265.708 105.256 264.543 105.256ZM276.345 87.5455V105H272.714V87.5455H276.345ZM285.219 105.256C283.873 105.256 282.714 104.983 281.742 104.438C280.776 103.886 280.032 103.108 279.509 102.102C278.987 101.091 278.725 99.8949 278.725 98.5142C278.725 97.1676 278.987 95.9858 279.509 94.9688C280.032 93.9517 280.768 93.1591 281.717 92.5909C282.671 92.0227 283.79 91.7386 285.075 91.7386C285.938 91.7386 286.742 91.8778 287.487 92.1562C288.237 92.429 288.89 92.8409 289.447 93.392C290.009 93.9432 290.447 94.6364 290.759 95.4716C291.072 96.3011 291.228 97.2727 291.228 98.3864V99.3835H280.174V97.1335H287.81C287.81 96.6108 287.697 96.1477 287.469 95.7443C287.242 95.3409 286.927 95.0256 286.523 94.7983C286.126 94.5653 285.663 94.4489 285.134 94.4489C284.583 94.4489 284.094 94.5767 283.668 94.8324C283.248 95.0824 282.918 95.4205 282.68 95.8466C282.441 96.267 282.319 96.7358 282.313 97.2528V99.392C282.313 100.04 282.433 100.599 282.671 101.071C282.915 101.543 283.259 101.906 283.702 102.162C284.146 102.418 284.671 102.545 285.279 102.545C285.683 102.545 286.052 102.489 286.387 102.375C286.722 102.261 287.009 102.091 287.248 101.864C287.487 101.636 287.668 101.358 287.793 101.028L291.151 101.25C290.981 102.057 290.631 102.761 290.103 103.364C289.58 103.96 288.904 104.426 288.075 104.761C287.251 105.091 286.299 105.256 285.219 105.256ZM297.33 105.247C296.495 105.247 295.751 105.102 295.097 104.812C294.444 104.517 293.927 104.082 293.546 103.509C293.171 102.929 292.984 102.207 292.984 101.344C292.984 100.616 293.117 100.006 293.384 99.5114C293.651 99.017 294.015 98.6193 294.475 98.3182C294.935 98.017 295.458 97.7898 296.043 97.6364C296.634 97.483 297.254 97.375 297.901 97.3125C298.663 97.233 299.276 97.1591 299.742 97.0909C300.208 97.017 300.546 96.9091 300.756 96.767C300.967 96.625 301.072 96.4148 301.072 96.1364V96.0852C301.072 95.5455 300.901 95.1278 300.56 94.8324C300.225 94.5369 299.748 94.3892 299.129 94.3892C298.475 94.3892 297.955 94.5341 297.569 94.8239C297.183 95.108 296.927 95.4659 296.802 95.8977L293.444 95.625C293.614 94.8295 293.95 94.142 294.45 93.5625C294.95 92.9773 295.594 92.5284 296.384 92.2159C297.18 91.8977 298.1 91.7386 299.146 91.7386C299.873 91.7386 300.569 91.8239 301.234 91.9943C301.904 92.1648 302.498 92.429 303.015 92.7869C303.538 93.1449 303.95 93.6051 304.251 94.1676C304.552 94.7244 304.702 95.392 304.702 96.1705V105H301.259V103.185H301.157C300.947 103.594 300.665 103.955 300.313 104.267C299.961 104.574 299.538 104.815 299.043 104.991C298.549 105.162 297.978 105.247 297.33 105.247ZM298.37 102.741C298.904 102.741 299.376 102.636 299.785 102.426C300.194 102.21 300.515 101.92 300.748 101.557C300.981 101.193 301.097 100.781 301.097 100.321V98.9318C300.984 99.0057 300.827 99.0739 300.629 99.1364C300.435 99.1932 300.217 99.2472 299.972 99.2983C299.728 99.3437 299.484 99.3864 299.239 99.4261C298.995 99.4602 298.773 99.4915 298.575 99.5199C298.148 99.5824 297.776 99.6818 297.458 99.8182C297.14 99.9545 296.893 100.139 296.717 100.372C296.54 100.599 296.452 100.884 296.452 101.224C296.452 101.719 296.631 102.097 296.989 102.358C297.353 102.614 297.813 102.741 298.37 102.741ZM311.15 97.4318V105H307.519V91.9091H310.979V94.2188H311.133C311.423 93.4574 311.908 92.8551 312.59 92.4119C313.272 91.9631 314.099 91.7386 315.07 91.7386C315.979 91.7386 316.772 91.9375 317.448 92.3352C318.124 92.733 318.65 93.3011 319.025 94.0398C319.4 94.7727 319.587 95.6477 319.587 96.6648V105H315.957V97.3125C315.962 96.5114 315.758 95.8864 315.343 95.4375C314.928 94.983 314.357 94.7557 313.63 94.7557C313.141 94.7557 312.71 94.8608 312.335 95.071C311.965 95.2812 311.675 95.5881 311.465 95.9915C311.261 96.3892 311.156 96.8693 311.15 97.4318ZM231.778 134.256C230.437 134.256 229.283 133.972 228.317 133.403C227.357 132.83 226.619 132.034 226.102 131.017C225.59 130 225.335 128.83 225.335 127.506C225.335 126.165 225.593 124.989 226.11 123.977C226.633 122.96 227.374 122.168 228.335 121.599C229.295 121.026 230.437 120.739 231.761 120.739C232.903 120.739 233.903 120.946 234.761 121.361C235.619 121.776 236.298 122.358 236.798 123.108C237.298 123.858 237.573 124.739 237.624 125.75H234.198C234.102 125.097 233.846 124.571 233.431 124.173C233.022 123.77 232.485 123.568 231.82 123.568C231.258 123.568 230.766 123.722 230.346 124.028C229.931 124.33 229.607 124.77 229.374 125.349C229.141 125.929 229.025 126.631 229.025 127.455C229.025 128.29 229.138 129 229.366 129.585C229.599 130.17 229.925 130.616 230.346 130.923C230.766 131.23 231.258 131.384 231.82 131.384C232.235 131.384 232.607 131.298 232.937 131.128C233.272 130.957 233.548 130.71 233.763 130.386C233.985 130.057 234.13 129.662 234.198 129.202H237.624C237.567 130.202 237.295 131.082 236.806 131.844C236.323 132.599 235.656 133.19 234.803 133.616C233.951 134.043 232.942 134.256 231.778 134.256ZM243.58 116.545V134H239.949V116.545H243.58ZM252.403 134.256C251.079 134.256 249.934 133.974 248.968 133.412C248.008 132.844 247.266 132.054 246.744 131.043C246.221 130.026 245.96 128.847 245.96 127.506C245.96 126.153 246.221 124.972 246.744 123.96C247.266 122.943 248.008 122.153 248.968 121.591C249.934 121.023 251.079 120.739 252.403 120.739C253.727 120.739 254.869 121.023 255.829 121.591C256.795 122.153 257.539 122.943 258.062 123.96C258.585 124.972 258.846 126.153 258.846 127.506C258.846 128.847 258.585 130.026 258.062 131.043C257.539 132.054 256.795 132.844 255.829 133.412C254.869 133.974 253.727 134.256 252.403 134.256ZM252.42 131.443C253.022 131.443 253.525 131.273 253.928 130.932C254.332 130.585 254.636 130.114 254.84 129.517C255.05 128.92 255.156 128.241 255.156 127.48C255.156 126.719 255.05 126.04 254.84 125.443C254.636 124.847 254.332 124.375 253.928 124.028C253.525 123.682 253.022 123.509 252.42 123.509C251.812 123.509 251.3 123.682 250.886 124.028C250.477 124.375 250.167 124.847 249.957 125.443C249.752 126.04 249.65 126.719 249.65 127.48C249.65 128.241 249.752 128.92 249.957 129.517C250.167 130.114 250.477 130.585 250.886 130.932C251.3 131.273 251.812 131.443 252.42 131.443ZM268.17 120.909V123.636H260.286V120.909H268.17ZM262.076 117.773H265.707V129.977C265.707 130.312 265.758 130.574 265.86 130.761C265.962 130.943 266.104 131.071 266.286 131.145C266.474 131.219 266.69 131.256 266.934 131.256C267.104 131.256 267.275 131.241 267.445 131.213C267.616 131.179 267.746 131.153 267.837 131.136L268.408 133.838C268.227 133.895 267.971 133.96 267.641 134.034C267.312 134.114 266.911 134.162 266.44 134.179C265.565 134.213 264.798 134.097 264.138 133.83C263.485 133.562 262.977 133.148 262.613 132.585C262.249 132.023 262.07 131.312 262.076 130.455V117.773ZM274.447 126.432V134H270.816V116.545H274.344V123.219H274.498C274.793 122.446 275.271 121.841 275.93 121.403C276.589 120.96 277.415 120.739 278.41 120.739C279.319 120.739 280.112 120.938 280.788 121.335C281.469 121.727 281.998 122.293 282.373 123.031C282.754 123.764 282.941 124.642 282.935 125.665V134H279.305V126.312C279.31 125.506 279.106 124.878 278.691 124.429C278.282 123.98 277.708 123.756 276.969 123.756C276.475 123.756 276.038 123.861 275.657 124.071C275.282 124.281 274.987 124.588 274.771 124.991C274.56 125.389 274.452 125.869 274.447 126.432ZM285.793 134V120.909H289.423V134H285.793ZM287.616 119.222C287.077 119.222 286.614 119.043 286.227 118.685C285.847 118.321 285.656 117.886 285.656 117.381C285.656 116.881 285.847 116.452 286.227 116.094C286.614 115.73 287.077 115.548 287.616 115.548C288.156 115.548 288.616 115.73 288.997 116.094C289.384 116.452 289.577 116.881 289.577 117.381C289.577 117.886 289.384 118.321 288.997 118.685C288.616 119.043 288.156 119.222 287.616 119.222ZM295.962 126.432V134H292.332V120.909H295.792V123.219H295.945C296.235 122.457 296.721 121.855 297.403 121.412C298.085 120.963 298.911 120.739 299.883 120.739C300.792 120.739 301.585 120.938 302.261 121.335C302.937 121.733 303.462 122.301 303.837 123.04C304.212 123.773 304.4 124.648 304.4 125.665V134H300.769V126.312C300.775 125.511 300.57 124.886 300.156 124.438C299.741 123.983 299.17 123.756 298.442 123.756C297.954 123.756 297.522 123.861 297.147 124.071C296.778 124.281 296.488 124.588 296.278 124.991C296.073 125.389 295.968 125.869 295.962 126.432ZM313.159 139.182C311.983 139.182 310.974 139.02 310.134 138.696C309.298 138.378 308.634 137.943 308.139 137.392C307.645 136.841 307.324 136.222 307.176 135.534L310.534 135.082C310.636 135.344 310.798 135.588 311.02 135.815C311.241 136.043 311.534 136.224 311.898 136.361C312.267 136.503 312.716 136.574 313.244 136.574C314.034 136.574 314.685 136.381 315.196 135.994C315.713 135.614 315.972 134.974 315.972 134.077V131.682H315.818C315.659 132.045 315.42 132.389 315.102 132.713C314.784 133.037 314.375 133.301 313.875 133.506C313.375 133.71 312.778 133.812 312.085 133.812C311.102 133.812 310.207 133.585 309.401 133.131C308.599 132.67 307.96 131.969 307.483 131.026C307.011 130.077 306.776 128.878 306.776 127.429C306.776 125.946 307.017 124.707 307.5 123.713C307.983 122.719 308.625 121.974 309.426 121.48C310.233 120.986 311.116 120.739 312.077 120.739C312.81 120.739 313.423 120.864 313.918 121.114C314.412 121.358 314.81 121.665 315.111 122.034C315.418 122.398 315.653 122.756 315.818 123.108H315.955V120.909H319.56V134.128C319.56 135.241 319.287 136.173 318.741 136.923C318.196 137.673 317.44 138.236 316.474 138.611C315.514 138.991 314.409 139.182 313.159 139.182ZM313.236 131.085C313.821 131.085 314.315 130.94 314.719 130.651C315.128 130.355 315.44 129.935 315.656 129.389C315.878 128.838 315.989 128.179 315.989 127.412C315.989 126.645 315.881 125.98 315.665 125.418C315.449 124.849 315.136 124.409 314.727 124.097C314.318 123.784 313.821 123.628 313.236 123.628C312.639 123.628 312.136 123.79 311.727 124.114C311.318 124.432 311.009 124.875 310.798 125.443C310.588 126.011 310.483 126.668 310.483 127.412C310.483 128.168 310.588 128.821 310.798 129.372C311.014 129.918 311.324 130.341 311.727 130.642C312.136 130.937 312.639 131.085 313.236 131.085Z" fill="#511D01"/>
<path opacity="0.11" d="M68.2947 177.092C84.066 177.092 96.8512 176.029 96.8512 174.718C96.8512 173.407 84.066 172.344 68.2947 172.344C52.5234 172.344 39.7383 173.407 39.7383 174.718C39.7383 176.029 52.5234 177.092 68.2947 177.092Z" fill="black"/>
<path d="M34.1225 91.7438C33.472 91.4353 36.0902 86.3731 36.7601 86.6432C46.771 90.6792 59.5726 95.0328 62.2733 95.7553L59.0942 102.51C53.3649 100.079 42.7123 95.8142 34.1225 91.7442V91.7438Z" fill="#FFC19F"/>
<path d="M40.4871 87.6211C39.3892 89.7546 38.1041 93.1429 37.2734 95.7754C42.286 98.0309 56.6009 105.001 57.0141 104.911C61.3143 103.975 63.8635 95.3689 64.1593 94.8719C61.3622 94.2744 45.7623 89.4789 40.4871 87.6211Z" fill="#1AA7D3"/>
<path d="M44.4245 88.5861L40.5977 86.9688L36.7695 96.0268L40.5964 97.6441L44.4245 88.5861Z" fill="#52BCDD"/>
<path d="M106.022 93.7253C106.699 93.4842 104.606 88.1833 103.912 88.3845C93.5456 91.3894 80.3694 94.4285 77.6094 94.8745L80.0904 101.915C86.0355 100.076 97.0643 96.9078 106.022 93.7253Z" fill="#FFC19F"/>
<path d="M100.107 88.9766C100.984 91.2098 101.922 94.7104 102.482 97.4136C97.2666 99.152 82.3214 104.641 81.9195 104.51C77.7359 103.145 76.0683 94.325 75.8242 93.8011C78.6672 93.4888 94.6719 90.2928 100.107 88.977V88.9766Z" fill="#1AA7D3"/>
<path d="M75.7863 169.563C75.8233 169.795 84.5511 168.803 84.5432 168.519C84.4737 166.042 83.9141 161.083 83.8476 159.648L74.5234 160.7C74.9783 163.126 75.5186 167.887 75.7863 169.563Z" fill="#FFC19F"/>
<path d="M75.0093 170.512C75.0341 170.654 85.149 169.99 85.1616 169.816C85.2735 168.296 85.0135 165.255 85.0475 164.375L74.2422 165.079C74.5203 166.701 74.8309 169.485 75.0093 170.512Z" fill="white"/>
<path d="M86.3067 167.569C86.1666 167.055 85.8754 166.405 85.6507 165.81C85.4836 165.369 81.1654 165.439 81.1532 166.5C81.1502 166.771 81.1612 167.011 81.1835 167.228C80.4445 167.236 79.6429 167.227 78.7971 167.196C76.9569 167.129 75.3078 166.979 74.151 166.795C74.0757 168.473 74.2226 171.378 74.1544 173.243C74.1544 173.243 93.42 176.85 96.4561 174.056C97.3115 173.268 92.4748 169.769 86.3067 167.568V167.569Z" fill="#ED3A3A"/>
<path d="M74.1731 172.07C74.1731 172.485 74.1693 172.885 74.1562 173.24C74.1562 173.24 93.4218 176.847 96.4579 174.052C96.5787 173.941 96.5842 173.775 96.4907 173.568C91.1747 174.721 78.9631 172.876 74.1731 172.07Z" fill="#992020"/>
<path d="M87.6559 168.11C87.8027 168.139 87.9454 168.05 87.9769 167.905C88.0093 167.759 87.9172 167.615 87.772 167.583C86.6531 167.34 85.349 167.858 84.6013 168.85C84.5116 168.969 84.5352 169.138 84.6543 169.228C84.6997 169.262 84.7532 169.28 84.8066 169.282C84.8916 169.285 84.9766 169.248 85.0317 169.174C85.6575 168.345 86.7364 167.903 87.6563 168.11H87.6559ZM89.1371 168.792C89.2835 168.819 89.419 168.703 89.4358 168.555C89.4531 168.407 89.3471 168.273 89.1985 168.257C88.019 168.118 86.8542 168.56 86.0017 169.462C85.8994 169.57 85.9041 169.741 86.0122 169.844C86.0614 169.891 86.1246 169.915 86.1877 169.917C86.2626 169.92 86.3379 169.891 86.3934 169.833C87.4 168.769 88.5437 168.723 89.1371 168.792ZM90.7639 169.007C89.701 168.822 88.3338 169.311 87.4332 170.191C87.3268 170.295 87.3247 170.465 87.4286 170.572C87.4791 170.624 87.5452 170.651 87.6117 170.653C87.6828 170.656 87.7547 170.63 87.8099 170.577C88.5942 169.811 89.7754 169.371 90.6722 169.538C90.8236 169.566 90.9587 169.465 90.984 169.318C91.0088 169.171 90.9103 169.032 90.7639 169.007Z" fill="#D3DAE5"/>
<path d="M60.4053 169.563C60.3683 169.795 51.6404 168.803 51.6484 168.519C51.7179 166.042 52.2775 161.083 52.344 159.648L61.6682 160.7C61.2133 163.126 60.673 167.887 60.4049 169.563H60.4053Z" fill="#FFC19F"/>
<path d="M61.1883 170.512C61.1634 170.654 51.0486 169.99 51.036 169.816C50.9241 168.296 51.1841 165.255 51.15 164.375L61.9554 165.079C61.6776 166.701 61.3667 169.485 61.1883 170.512Z" fill="white"/>
<path d="M49.8844 167.569C50.0245 167.055 50.3153 166.405 50.5404 165.81C50.7075 165.369 55.0258 165.439 55.038 166.5C55.0413 166.771 55.03 167.011 55.0077 167.228C55.7466 167.236 56.5478 167.227 57.394 167.196C59.2342 167.129 60.8833 166.979 62.0401 166.795C62.1154 168.473 61.9686 171.378 62.0367 173.243C62.0367 173.243 42.7712 176.85 39.7351 174.056C38.8796 173.268 43.7163 169.769 49.8848 167.568L49.8844 167.569Z" fill="#ED3A3A"/>
<path d="M62.0188 172.07C62.0188 172.485 62.0226 172.885 62.0356 173.24C62.0356 173.24 42.77 176.847 39.734 174.052C39.6136 173.941 39.6077 173.775 39.7011 173.568C45.0171 174.721 57.2288 172.876 62.0188 172.07Z" fill="#992020"/>
<path d="M51.1592 169.174C51.2143 169.247 51.2993 169.284 51.3843 169.282C51.4373 169.279 51.4908 169.262 51.5367 169.228C51.6557 169.138 51.6793 168.969 51.5897 168.85C50.8415 167.858 49.5383 167.34 48.4189 167.583C48.2733 167.615 48.1816 167.759 48.214 167.905C48.246 168.05 48.3886 168.139 48.5351 168.11C49.455 167.903 50.5339 168.345 51.1596 169.174H51.1592ZM49.7975 169.832C49.853 169.891 49.9284 169.919 50.0033 169.917C50.0664 169.914 50.1291 169.89 50.1787 169.843C50.2869 169.741 50.2915 169.57 50.1897 169.462C49.3367 168.559 48.1719 168.117 46.9924 168.256C46.8443 168.273 46.7383 168.407 46.7551 168.554C46.7723 168.702 46.9074 168.819 47.0539 168.791C47.6476 168.723 48.7913 168.768 49.7975 169.832ZM45.207 169.318C45.2322 169.465 45.3677 169.566 45.5188 169.538C46.4151 169.371 47.5963 169.81 48.3811 170.576C48.4366 170.63 48.5081 170.655 48.5793 170.653C48.6462 170.65 48.7118 170.623 48.7623 170.572C48.8667 170.466 48.8641 170.295 48.7577 170.19C47.8572 169.311 46.49 168.822 45.427 169.007C45.2806 169.032 45.1821 169.171 45.207 169.318Z" fill="#D3DAE5"/>
<path d="M84.6697 161.512C83.2083 161.899 76.2882 162.313 74.366 162.339C74.068 158.431 71.8096 139.845 70.6335 133.965C70.3418 132.507 66.9409 132.41 66.5521 133.933C66.3118 134.873 62.8878 156.976 61.8404 162.579C58.7386 162.748 54.3392 162.114 51.6523 161.447C51.6523 161.447 54.0492 123.261 54.3509 117.425C59.5777 116.835 77.275 116.84 82.8952 117.493C83.8576 123.522 83.975 152.886 84.6693 161.512L84.6697 161.512Z" fill="#224966"/>
<path d="M54.1513 120.965C56.7783 121.053 58.8849 123.197 58.8849 125.845C58.8849 128.494 56.6925 130.742 53.988 130.742C53.8479 130.742 53.7157 130.713 53.5781 130.701C53.8054 126.889 54.0065 123.47 54.1513 120.965Z" fill="#001D26"/>
<path d="M83.2265 120.965C83.3923 123.488 83.5269 126.907 83.6456 130.717C83.5522 130.722 83.4642 130.744 83.3695 130.744C80.665 130.744 78.4727 128.552 78.4727 125.847C78.4727 123.143 80.5897 121.043 83.2265 120.965V120.965Z" fill="#001D26"/>
<path d="M63.0686 159.239L50.9453 158.34L50.6527 162.287L62.776 163.186L63.0686 159.239Z" fill="#3F8CB2"/>
<path d="M73.6267 163.145L85.75 162.246L85.4574 158.299L73.3341 159.198L73.6267 163.145Z" fill="#3F8CB2"/>
<path opacity="0.37" d="M53.8168 125.47C54.076 121.086 54.2755 117.638 54.3496 116.21C59.5763 115.62 77.2736 115.625 82.8938 116.278C83.2014 118.206 83.4224 122.702 83.6037 128.192C75.9359 131.087 63.3804 129.941 53.8164 125.47H53.8168Z" fill="black"/>
<path d="M60.9219 96.1041H76.4394V91.3516H61.3069L60.9219 96.1041Z" fill="#0F7DA8"/>
<path d="M83.6682 125.965C76.4224 130.47 62.2553 130.066 53.4883 125.616C53.4883 125.616 56.274 100.354 57.4064 94.4383C63.4954 92.6655 74.8431 93.1448 80.4171 94.1396C81.2195 101.684 82.7294 114.822 83.6682 125.965Z" fill="#E2F4F7"/>
<path d="M61.413 94.6738C61.3954 94.2828 61.461 93.9066 61.5548 93.5363C65.5659 93.2653 71.5901 93.1782 75.8861 93.5208C75.9193 93.6891 75.9905 93.8469 75.9985 94.0219C76.1335 97.0429 72.9779 99.638 68.9504 99.8181C64.9225 99.9982 61.5481 97.6951 61.413 94.6738Z" fill="white"/>
<path d="M62.0588 130.366C62.2687 130.381 54.7919 129.855 52.2734 128.863C52.2734 128.863 54.6527 101.233 55.5149 94.547C56.8804 94.1603 59.005 93.8279 61.035 93.6032C61.7987 93.519 62.4371 96.8025 63.128 96.7516L62.0588 130.366Z" fill="#1AA7D3"/>
<path d="M74.5742 96.8965C75.1545 96.121 76.2406 94.357 76.2995 93.4531C78.6333 93.6261 81.0213 93.9265 82.4845 94.1824C83.3547 102.104 83.7401 117.029 84.7593 128.729C82.3889 130.091 78.6265 130.634 74.5742 130.623V96.8965Z" fill="#1AA7D3"/>
<path d="M63.4932 86.0781L63.383 94.9579C63.359 96.8675 65.7668 98.4455 68.7604 98.4829C71.754 98.52 74.2001 97.0021 74.2237 95.0925L74.3339 86.2128L63.4932 86.0781Z" fill="#FFC19F"/>
<path opacity="0.22" d="M58.9922 98.8424C59.0452 97.5653 59.1306 94.0966 59.4286 93.3514C59.4286 93.3514 61.437 91.3299 61.554 91.1914C60.8997 92.4761 60.8757 94.5671 63.1636 96.8945C62.2484 96.6046 60.0884 98.0757 58.9922 98.842V98.8424Z" fill="#470A04"/>
<path d="M63.1602 96.8972L60.6914 94.8752L61.0958 93.875C61.0958 93.875 62.229 94.9762 62.7239 95.4631C62.9911 95.7261 63.1602 96.8968 63.1602 96.8968V96.8972Z" fill="#0F7DA8"/>
<path d="M59.4711 98.1266C59.3431 97.049 59.1306 94.0966 59.4286 93.3514C59.4286 93.3514 61.437 91.3299 61.554 91.1914C60.8997 92.4761 61.9239 94.4556 62.7272 95.4609C61.812 95.1709 60.2344 97.4336 59.4711 98.1266Z" fill="#1AA7D3"/>
<path opacity="0.22" d="M78.799 98.8849C78.7459 97.6078 78.6075 94.0966 78.3096 93.3514C78.3096 93.3514 76.3011 91.3299 76.1841 91.1914C76.8384 92.4761 76.8582 94.5671 74.5703 96.8945C75.4856 96.6046 77.7032 98.1182 78.799 98.8845V98.8849Z" fill="#470A04"/>
<path d="M74.5703 96.8972L77.0434 94.8752L76.639 93.875C76.639 93.875 75.5058 94.9762 75.0109 95.4631C74.7437 95.7261 74.5703 96.8968 74.5703 96.8968V96.8972Z" fill="#0F7DA8"/>
<path d="M78.2677 98.1266C78.3957 97.049 78.6082 94.0966 78.3102 93.3514C78.3102 93.3514 76.3017 91.3299 76.1848 91.1914C76.8391 92.4761 75.8153 94.4556 75.0116 95.4609C75.9268 95.1709 77.5044 97.4336 78.2677 98.1266Z" fill="#1AA7D3"/>
<path opacity="0.16" d="M60.8582 89.5878C60.841 89.1969 60.9066 88.8207 61.0005 88.4504C65.0111 88.1794 71.0353 88.0923 75.3317 88.4348C75.3645 88.6031 75.4361 88.7609 75.4441 88.936C75.5787 91.9569 72.4235 94.552 68.3956 94.7321C64.3677 94.9122 60.9933 92.6092 60.8582 89.5878Z" fill="#6D0F03"/>
<path opacity="0.46" d="M74.5825 101.646C77.9249 101.715 80.3752 101.721 82.5125 101.625C82.5209 101.758 82.5289 101.895 82.5373 102.029C80.7859 102.107 79.0396 102.121 76.4007 102.085C75.8082 102.077 75.1985 102.065 74.582 102.053V101.646H74.5825Z" fill="#006993"/>
<path opacity="0.46" d="M55.0994 100.75C56.9472 100.901 59.6176 101.078 62.9869 101.239L62.9743 101.645C59.6049 101.484 56.9139 101.306 55.0586 101.156C55.0725 101.019 55.0855 100.885 55.0994 100.75V100.75Z" fill="#006993"/>
<path d="M98.9861 98.9458L102.957 97.7227L100.115 88.4964L96.1442 89.7195L98.9861 98.9458Z" fill="#52BCDD"/>
<path d="M76.8122 100.077C77.1766 100.077 77.472 99.782 77.472 99.4176C77.472 99.0532 77.1766 98.7578 76.8122 98.7578C76.4478 98.7578 76.1523 99.0532 76.1523 99.4176C76.1523 99.782 76.4478 100.077 76.8122 100.077Z" fill="#D5DDE0"/>
<path d="M76.1289 108.109C76.1289 108.473 76.4243 108.769 76.7887 108.769C77.1531 108.769 77.4481 108.473 77.4481 108.109C77.4481 107.745 77.1527 107.449 76.7887 107.449C76.4247 107.449 76.1289 107.745 76.1289 108.109Z" fill="#D5DDE0"/>
<path d="M75.5664 123.191C75.5664 123.555 75.8618 123.85 76.2262 123.85C76.5906 123.85 76.886 123.555 76.886 123.191C76.886 122.827 76.5906 122.531 76.2262 122.531C75.8618 122.531 75.5664 122.827 75.5664 123.191Z" fill="#D5DDE0"/>
<path d="M75.8203 114.882C75.8203 115.246 76.1157 115.542 76.4801 115.542C76.8445 115.542 77.1399 115.246 77.1399 114.882C77.1399 114.518 76.8445 114.223 76.4801 114.223C76.1157 114.223 75.8203 114.518 75.8203 114.882Z" fill="#D5DDE0"/>
<g opacity="0.8">
<path d="M60.7653 108.473C61.2053 108.473 61.5619 108.305 61.5619 108.098C61.5619 107.891 61.2053 107.723 60.7653 107.723C60.3254 107.723 59.9688 107.891 59.9688 108.098C59.9688 108.305 60.3254 108.473 60.7653 108.473Z" fill="#006993"/>
<path d="M60.0273 99.3827C60.0273 99.5902 60.3842 99.7581 60.8239 99.7581C61.2637 99.7581 61.6205 99.5902 61.6205 99.3827C61.6205 99.1753 61.2641 99.0078 60.8239 99.0078C60.3838 99.0078 60.0273 99.1757 60.0273 99.3827Z" fill="#006993"/>
<path d="M59.7305 114.848C59.7305 115.055 60.0873 115.223 60.5275 115.223C60.9676 115.223 61.324 115.055 61.324 114.848C61.324 114.64 60.9672 114.473 60.5275 114.473C60.0877 114.473 59.7305 114.641 59.7305 114.848Z" fill="#006993"/>
<path d="M59.4336 123.196C59.4336 123.403 59.7904 123.571 60.2306 123.571C60.6707 123.571 61.0272 123.403 61.0272 123.196C61.0272 122.989 60.6703 122.82 60.2306 122.82C59.7909 122.82 59.4336 122.988 59.4336 123.196Z" fill="#006993"/>
</g>
<path opacity="0.2" d="M104.191 89.7164C104.49 92.558 107.583 93.4047 110.149 92.4158C109.905 91.9003 110.657 87.1221 109.554 85.4536C107.88 84.1963 106.559 86.2031 106.178 85.6266C106.63 87.0194 106.048 88.7414 104.191 89.7164Z" fill="#6D261D"/>
<path d="M106.186 84.0469C103.535 85.6859 102.698 86.687 102.065 88.297C101.213 90.4637 102.307 92.7411 104.026 93.8532C104.967 94.4617 108.29 94.0931 111.912 93.6403C111.398 91.756 111.097 87.763 109.871 84.8578C108.623 85.7078 107.016 84.4248 106.186 84.0469Z" fill="#FFC19F"/>
<path d="M86.9741 112.988L98.7271 106.914L92.8161 96.6758L81.3711 103.283L86.9741 112.988Z" fill="#F95006"/>
<path d="M127.398 112.988L115.645 106.914L121.556 96.6758L133 103.283L127.398 112.988Z" fill="#F95006"/>
<path d="M113.471 96.2822C113.471 95.893 113.308 95.5765 113.042 95.3085C109.265 95.0257 105.029 95.0577 101.291 95.3556C101.052 95.6153 100.898 95.9144 100.898 96.2822C100.898 97.9894 103.713 99.3734 107.184 99.3734C110.656 99.3734 113.47 97.9894 113.47 96.2822H113.471Z" fill="#DD3900"/>
<path d="M114.411 94.9877C113.252 94.1629 100.545 94.1196 99.9188 95.0399C99.8679 95.1552 99.8688 95.2978 99.8359 95.4228H101.242C101.26 95.4013 101.269 95.3757 101.288 95.355C105.025 95.0567 109.261 95.0251 113.038 95.3079C113.073 95.3428 113.089 95.3862 113.12 95.4228H114.515C114.476 95.2801 114.473 95.1177 114.411 94.9877Z" fill="#A02E07"/>
<path d="M115.541 95.63H108.056V92.8397C110.762 92.2198 112.791 89.8032 112.791 86.9123C112.791 83.5534 110.059 80.8203 106.699 80.8203C103.787 80.8203 101.272 82.894 100.716 85.7504C100.572 86.4856 101.055 87.1971 101.789 87.3406C102.507 87.477 103.236 87.0027 103.381 86.2672C103.689 84.6841 105.082 83.5341 106.699 83.5341C108.562 83.5341 110.078 85.0498 110.078 86.9127C110.078 88.7756 108.562 90.2913 106.699 90.2913C105.949 90.2913 105.342 90.8981 105.342 91.648L105.356 91.7157L105.342 91.7835V95.6309H97.8566C97.1068 95.6309 96.5 96.2377 96.5 96.9875C96.5 97.7374 97.1068 98.3442 97.8566 98.3442H115.542C116.292 98.3442 116.898 97.7374 116.898 96.9875C116.898 96.2377 116.292 95.6309 115.542 95.6309L115.541 95.63Z" fill="#999999"/>
<path d="M121.589 96.6845C119.953 95.8661 117.373 95.3144 114.411 94.9883C114.547 95.2727 114.639 95.582 114.639 95.9401C114.639 98.3787 111.301 100.355 107.182 100.355C103.064 100.355 99.7247 98.3787 99.7247 95.9401C99.7247 95.6052 99.8 95.3106 99.9191 95.0405C96.8519 95.3868 94.2366 95.941 92.7204 96.6845C92.1822 106.876 91.4062 126.041 91.4062 129.648C97.3278 134.23 117.833 133.818 122.834 129.648C123.254 126.453 121.804 99.8692 121.589 96.6845Z" fill="#F95006"/>
<path d="M113.118 95.4258C113.326 95.6707 113.466 95.9463 113.466 96.2846C113.466 97.9918 110.652 99.3758 107.18 99.3758C103.708 99.3758 100.894 97.9918 100.894 96.2846C100.894 95.9463 101.033 95.6707 101.241 95.4258H99.8346C99.7908 95.5945 99.7227 95.7502 99.7227 95.9425C99.7227 98.3811 103.061 100.358 107.18 100.358C111.299 100.358 114.637 98.3811 114.637 95.9425C114.637 95.7481 114.56 95.5954 114.513 95.4258H113.119H113.118Z" fill="#A02E07"/>
<path opacity="0.2" d="M106.016 90.0855C106.813 92.6856 109.586 93.2958 111.563 92.2442C111.258 91.783 111.404 87.0911 110.153 85.6149C108.499 84.549 107.341 86.7199 106.908 86.2095C107.557 87.4677 107.396 89.0852 106.016 90.0855Z" fill="#870B02"/>
<path d="M111.95 86.6628C110.379 86.5731 109.096 87.0718 109.082 87.7775C109.068 88.4832 110.33 89.1278 111.9 89.2174C113.47 89.3071 114.754 88.8084 114.767 88.1027C114.781 87.3971 113.519 86.7524 111.949 86.6628H111.95Z" fill="#FFC19F"/>
<path d="M111.925 84.2651C110.367 84.3733 109.188 85.0318 109.291 85.7367C109.395 86.4415 110.742 86.9246 112.299 86.8164C113.858 86.7083 115.037 86.0497 114.933 85.3449C114.83 84.6405 113.483 84.157 111.925 84.2651Z" fill="#FFC19F"/>
<path d="M112.089 89.0226C110.531 88.75 109.165 89.1245 109.04 89.86C108.915 90.5952 110.078 91.412 111.637 91.6846C113.195 91.9573 114.561 91.5828 114.686 90.8477C114.81 90.1125 113.648 89.2953 112.089 89.0226Z" fill="#FFC19F"/>
<path d="M111.166 91.1076C109.822 90.5455 108.481 90.606 108.17 91.2431C107.86 91.8807 108.698 92.8527 110.042 93.4149C111.387 93.9767 112.728 93.9161 113.038 93.279C113.349 92.6419 112.511 91.6698 111.166 91.1076Z" fill="#FFC19F"/>
<path opacity="0.21" d="M109.825 87.9212C109.197 88.5116 107.941 89.0043 107.005 87.9658C106.139 87.0043 105.679 85.234 106.306 84.6431C106.933 84.0528 108.262 84.3625 109.274 85.3349C110.286 86.3078 110.452 87.3304 109.825 87.9212Z" fill="#541000"/>
<path d="M109.826 87.9138C109.23 88.4756 107.88 88.0981 106.811 87.071C105.743 86.0438 105.361 84.7557 105.958 84.1939C106.555 83.6322 107.905 84.0096 108.973 85.0364C110.041 86.0636 110.423 87.3516 109.826 87.9138H109.826Z" fill="#FFC19F"/>
<path d="M47.4912 67.2387C51.2603 66.775 54.8009 70.4507 55.3959 75.4203C55.9897 80.39 55.2087 84.6048 51.4383 85.0563C47.6671 85.5074 42.7062 82.2049 41.4388 77.0375C40.2475 72.181 42.3397 67.8728 47.4916 67.2387H47.4912Z" fill="#FFC19F"/>
<path d="M46.1282 78.9812C46.8718 81.046 48.9506 82.1889 50.7718 81.5337C52.5922 80.8786 53.4662 78.6731 52.7226 76.6083C51.9795 74.5434 49.9011 73.4009 48.0803 74.0557C46.2587 74.7109 45.3855 76.9163 46.1278 78.9812H46.1282Z" fill="#E0956C"/>
<path d="M91.6575 67.2387C87.8884 66.775 84.3478 70.4507 83.7528 75.4203C83.159 80.39 83.94 84.6048 87.7104 85.0563C91.4812 85.5074 96.4425 82.2049 97.7099 77.0375C98.9012 72.181 96.809 67.8728 91.6571 67.2387H91.6575Z" fill="#FFC19F"/>
<path d="M93.0158 78.9812C92.2722 81.046 90.1935 82.1889 88.3722 81.5337C86.5518 80.8786 85.6778 78.6731 86.4214 76.6083C87.1645 74.5434 89.2429 73.4009 91.0637 74.0557C92.8853 74.7109 93.7585 76.9163 93.0162 78.9812H93.0158Z" fill="#E0956C"/>
<path d="M44.1216 57.8806C42.5406 75.3775 55.2598 86.708 69.692 86.4274C84.1243 86.1467 95.7637 73.1961 93.9706 56.223C92.9746 46.7988 83.193 38.5586 69.4071 38.9176C54.977 39.2929 45.2455 45.437 44.1216 57.8806Z" fill="#84220F"/>
<path d="M90.084 55.4286C86.9503 46.7218 79.3982 46.5977 69.5106 46.5977C59.623 46.5977 52.0705 46.7218 48.9367 55.4286C47.992 58.0548 48.8054 79.7122 51.5116 84.5675C53.7987 88.6703 62.5829 92.7024 68.709 92.7024H70.3122C76.4378 92.7024 85.2225 88.6703 87.5095 84.5675C90.2153 79.7122 91.0287 58.0548 90.084 55.4286Z" fill="#FFC19F"/>
<path d="M51.7714 79.2304C51.7117 80.2428 53.0696 81.1467 54.8054 81.2498C56.5408 81.3525 57.9968 80.6152 58.0565 79.6032C58.1167 78.5907 56.7579 77.6869 55.0225 77.5838C53.2867 77.4811 51.8312 78.2183 51.771 79.2304H51.7714Z" fill="#FF9797"/>
<path d="M80.691 79.6879C80.7731 80.6991 82.2442 81.4044 83.9771 81.2642C85.7095 81.1241 87.0485 80.1908 86.9669 79.18C86.8848 78.1692 85.4133 77.4635 83.6808 77.6037C81.9476 77.7438 80.6094 78.6771 80.691 79.6879Z" fill="#FF9797"/>
<path d="M77.9056 80.4274C77.5727 78.6941 74.909 79.1431 70.5579 79.1137C70.3303 79.1124 69.4449 79.1124 69.2168 79.1137C64.8657 79.1431 62.2017 78.6937 61.8696 80.4274C61.2292 83.7661 65.43 87.4132 69.8493 87.4262H69.9259C74.3447 87.4127 78.546 83.7661 77.9056 80.4274Z" fill="#701608"/>
<path d="M69.9205 87.4942H69.8439C68.4106 87.4892 66.9244 87.0822 65.5416 86.3223L65.457 86.2777L65.5281 86.2141C66.6765 85.1849 68.223 84.6172 69.8834 84.6172C71.5439 84.6172 73.0879 85.1844 74.2387 86.2141L74.3103 86.2777L74.2257 86.3223C72.84 87.0822 71.3512 87.4892 69.9205 87.4942Z" fill="#DD6B5B"/>
<path d="M69.8877 81.3405C66.847 81.3405 64.3158 80.3984 63.999 79.1469L63.9805 79.0703H75.7949L75.7764 79.1469C75.457 80.3979 72.9259 81.3405 69.8877 81.3405Z" fill="white"/>
<path d="M67.6565 76.9961C67.7684 76.994 67.8656 76.9115 67.8825 76.7971C68.0007 75.9841 68.6311 75.4484 69.4878 75.4316C70.3496 75.4152 71.0153 75.9361 71.1445 76.7285C71.1656 76.8552 71.2859 76.9418 71.4121 76.9208C71.5392 76.9002 71.6255 76.7807 71.6049 76.6532C71.4395 75.6382 70.5647 74.9439 69.479 74.9653C68.3988 74.9864 67.5719 75.6954 67.4204 76.7298C67.4019 76.8573 67.4903 76.9755 67.6174 76.9944L67.6561 76.9965L67.6565 76.9961Z" fill="#C4735B"/>
<path d="M40.1844 66.5898C43.1827 65.5277 45.0527 63.5907 45.224 58.7036C43.4936 58.3328 42.6705 57.8266 41.0012 57.2724C47.4828 55.6325 46.5297 46.3783 54.9916 42.5094C68.8629 37.2624 81.5106 41.1191 85.1543 43.2387C91.869 47.145 92.6963 52.4092 93.1806 58.3101C94.1081 63.6551 95.2998 65.2378 98.0944 66.4539C95.0886 67.3245 93.3107 66.5439 92.2923 65.5054C92.5907 68.8697 94.1544 69.9352 95.8826 71.4252C91.1915 71.6638 88.5788 67.7457 87.7342 64.3608C86.7967 60.6014 88.2615 56.459 87.669 54.9862C87.3265 54.1341 84.2369 49.2124 82.9413 49.1745C80.1177 49.0929 77.0176 58.9039 67.0219 58.7448C71.0566 56.573 73.2578 53.4995 75.4784 49.1185C74.6948 49.586 73.9088 50.1533 73.1294 50.843C64.9267 58.1094 56.1556 59.1521 49.1059 58.5449C50.2711 64.2733 51.9816 70.2764 43.0732 73.0133C43.8816 72.0135 45.0615 69.0094 45.2341 66.6357C44.2797 67.2252 42.5317 67.7436 40.1836 66.5894L40.1844 66.5898Z" fill="#84220F"/>
<path d="M53.2064 62.5545C53.0057 62.5566 52.8054 62.4771 52.6598 62.3167C52.3875 62.0188 52.409 61.5572 52.7069 61.2849C54.8732 59.3084 58.7946 58.7231 62.031 59.8895C62.411 60.0276 62.6075 60.4463 62.4704 60.825C62.3323 61.2058 61.9132 61.4023 61.5349 61.2643C58.8224 60.283 55.4505 60.7551 53.6916 62.3634C53.554 62.4897 53.3806 62.5532 53.2064 62.5549V62.5545Z" fill="#4C0B00"/>
<path d="M85.6162 62.5545C85.817 62.5566 86.0177 62.4771 86.1629 62.3167C86.4351 62.0188 86.4137 61.5572 86.1157 61.2849C83.9495 59.3084 80.028 58.7231 76.7916 59.8895C76.4116 60.0276 76.2151 60.4463 76.3523 60.825C76.4903 61.2058 76.9094 61.4023 77.2877 61.2643C80.0002 60.283 83.3721 60.7551 85.1311 62.3634C85.2687 62.4897 85.442 62.5532 85.6162 62.5549V62.5545Z" fill="#4C0B00"/>
<path d="M74.7705 75.4093C74.7705 75.4093 81.731 77.6295 84.3812 73.9634C87.6105 69.4962 82.6627 65.9707 79.4557 66.6608C76.4882 67.2996 73.7934 69.8728 74.7701 75.4093H74.7705Z" fill="#F9FEFF"/>
<path d="M84.9057 68.2613C83.6156 66.6395 81.8814 66.1299 80.0009 66.3185C78.0782 66.5112 76.132 67.8759 75.582 69.2826C76.6151 67.6979 78.3976 67.1171 79.5069 66.879C81.2734 66.4969 83.5912 67.2897 84.6339 68.8862C85.5613 70.3068 85.4835 72.4378 84.2981 74.0772C85.6981 72.9625 86.2502 69.9513 84.9057 68.2617V68.2613Z" fill="#773220"/>
<path d="M76.3511 70.7271C75.7128 72.3324 76.4967 74.1511 78.1017 74.7895C79.707 75.4279 81.5257 74.6439 82.1641 73.0385C82.8024 71.4332 82.0185 69.6145 80.4131 68.9761C78.8078 68.3378 76.9891 69.1217 76.3507 70.7267L76.3511 70.7271Z" fill="#63190D"/>
<path d="M76.6046 70.2348C76.4275 70.68 76.645 71.1845 77.0902 71.3621C77.5355 71.5388 78.04 71.3217 78.2176 70.8765C78.3943 70.4309 78.1772 69.9263 77.7315 69.7492C77.2863 69.572 76.7814 69.7896 76.6046 70.2348Z" fill="#FEFFFE"/>
<path d="M64.2547 75.4405C64.2547 75.4405 57.2955 77.6657 54.6432 74.0014C51.4106 69.5363 56.3558 66.0074 59.5632 66.6954C62.5315 67.3321 65.2276 69.9036 64.2547 75.4405Z" fill="#F9FEFF"/>
<path d="M54.1205 68.2993C55.4098 66.6767 57.1431 66.1659 59.0237 66.3531C60.9463 66.5446 62.8938 67.908 63.4442 69.3143C62.4103 67.7304 60.6273 67.151 59.5177 66.9132C57.7507 66.5324 55.4338 67.3269 54.3919 68.9238C53.4657 70.3453 53.5453 72.4762 54.7315 74.1148C53.3306 73.001 52.7769 69.9901 54.1201 68.2993H54.1205Z" fill="#773220"/>
<path d="M57.0113 70.8009C56.3729 72.4062 57.1569 74.2249 58.7618 74.8633C60.3672 75.5016 62.1863 74.7177 62.8242 73.1128C63.4626 71.5074 62.6786 69.6883 61.0733 69.0503C59.4679 68.412 57.6492 69.1959 57.0109 70.8013L57.0113 70.8009Z" fill="#63190D"/>
<path d="M57.2609 70.3012C57.0837 70.7468 57.3013 71.2514 57.7465 71.4285C58.1921 71.6057 58.6967 71.3881 58.8738 70.9429C59.051 70.4977 58.8334 69.9927 58.3882 69.8156C57.9426 69.6384 57.438 69.856 57.2609 70.3012Z" fill="#FEFFFE"/>
<path d="M34.0856 82.5469C36.7363 84.1855 37.5737 85.1866 38.2066 86.7966C39.0583 88.9633 37.9646 91.2406 36.2452 92.3532C35.3047 92.9617 31.9816 92.5927 28.3594 92.1403C28.874 90.256 29.1745 86.263 30.4007 83.3578C31.6484 84.2078 33.2558 82.9248 34.0856 82.5473V82.5469Z" fill="#FFC19F"/>
<path d="M40.4432 94.4738H28.9907V91.683C31.6969 91.0632 33.726 88.6469 33.726 85.756C33.726 82.3972 30.9941 79.6641 27.634 79.6641C24.7221 79.6641 22.2074 81.7378 21.6507 84.5942C21.5076 85.3293 21.9898 86.0409 22.7237 86.1844C23.442 86.3207 24.1704 85.8465 24.316 85.1113C24.6236 83.5279 26.0173 82.3778 27.6336 82.3778C29.4965 82.3778 31.0122 83.8935 31.0122 85.7564C31.0122 87.6193 29.4965 89.1351 27.6336 89.1351C26.8837 89.1351 26.277 89.7419 26.277 90.4917L26.2904 90.5595L26.277 90.6272V94.4746H15.1728C14.423 94.4746 13.8162 95.0814 13.8162 95.8313C13.8162 96.5811 14.423 97.1879 15.1728 97.1879H40.4437C41.1935 97.1879 41.8003 96.5811 41.8003 95.8313C41.8003 95.0814 41.1935 94.4746 40.4437 94.4746L40.4432 94.4738Z" fill="#8C8C8C"/>
<path d="M23.4401 122.735C24.5338 115.923 25.5644 111.341 25.6919 110.841C26.0803 109.318 29.4816 109.415 29.7732 110.873C30.3232 113.622 31.1084 117.231 31.8204 122.736L43.2587 121.803C43.0297 113.256 42.8454 104.194 42.5025 97.8281H13.1789C12.7972 104.216 12.166 113.484 11.6484 121.803L23.4401 122.736V122.735Z" fill="#1B6168"/>
<path d="M12.832 103.617C12.9179 103.63 13.0025 103.647 13.0912 103.647C15.425 103.647 17.3169 101.455 17.3169 98.7505C17.3169 98.4345 17.2875 98.1269 17.2382 97.8281H13.1199C13.0328 99.5223 12.944 101.492 12.832 103.617Z" fill="#084649"/>
<path d="M42.538 103.648C42.6041 103.648 42.6668 103.634 42.7312 103.626C42.6655 101.504 42.5835 99.5273 42.5031 97.8281H38.3187C38.2682 98.1273 38.2383 98.4345 38.2383 98.7505C38.2383 101.455 40.163 103.647 42.538 103.647V103.648Z" fill="#084649"/>
<path d="M42.5026 95.582H13.1172V97.8295H42.5026V95.582Z" fill="#1B6168"/>
<path d="M26.4688 106.809H26.7494L26.9325 98.3516L26.4688 98.3819V106.809Z" fill="#084649"/>
<path d="M26.5186 95.582H25.9102V98.7625L29.1289 98.2053H26.5186V95.582Z" fill="#084649"/>
<path d="M18.6285 95.4219H17.2344V97.99H18.6285V95.4219Z" fill="#227B7F"/>
<path d="M38.2379 95.4219H36.8438V97.99H38.2379V95.4219Z" fill="#227B7F"/>
<path d="M28.4791 96.8895C28.4791 97.2602 28.1786 97.5607 27.8079 97.5607C27.4372 97.5607 27.1367 97.2602 27.1367 96.8895C27.1367 96.5188 27.4372 96.2188 27.8079 96.2188C28.1786 96.2188 28.4791 96.5192 28.4791 96.8895Z" fill="#BFBFBF"/>
<path opacity="0.2" d="M34.2545 88.5855C33.4575 91.1856 30.684 91.7958 28.707 90.7442C29.0121 90.283 28.8657 85.5911 30.1167 84.1149C31.7713 83.049 32.9294 85.2199 33.3615 84.7095C32.7131 85.9677 32.8734 87.5852 34.254 88.5855H34.2545Z" fill="#870B02"/>
<path d="M29.2605 85.1745C30.7459 85.6904 31.7424 86.6418 31.4861 87.2991C31.2298 87.9564 29.8176 88.0713 28.3322 87.555C26.8468 87.0391 25.8503 86.0876 26.1066 85.4303C26.3629 84.7731 27.7755 84.6586 29.2605 85.1745Z" fill="#FFC19F"/>
<path d="M30.1994 82.9741C31.5981 83.6684 32.4368 84.7272 32.0724 85.339C31.708 85.9509 30.2789 85.884 28.8802 85.1896C27.4814 84.4953 26.6428 83.4361 27.0068 82.8247C27.3712 82.2129 28.8002 82.2798 30.1994 82.9741Z" fill="#FFC19F"/>
<path d="M28.0413 87.2098C29.5865 87.5524 30.705 88.4196 30.54 89.1468C30.3751 89.8739 28.989 90.1857 27.4442 89.8432C25.8994 89.5007 24.7805 88.6334 24.9459 87.9058C25.1104 87.1787 26.497 86.8669 28.0417 87.2094L28.0413 87.2098Z" fill="#FFC19F"/>
<path d="M27.5289 89.1954C28.9861 89.1886 30.2031 89.7567 30.2468 90.4641C30.2906 91.1715 29.1447 91.7501 27.6875 91.7572C26.2303 91.7635 25.0133 91.1959 24.97 90.4885C24.9262 89.7811 26.072 89.2025 27.5289 89.1954Z" fill="#FFC19F"/>
<path opacity="0.21" d="M30.4466 86.4173C31.0741 87.0077 32.3306 87.5004 33.266 86.4619C34.132 85.5004 34.5928 83.73 33.9654 83.1392C33.338 82.5489 32.0095 82.8586 30.9979 83.831C29.9859 84.8039 29.8197 85.8265 30.4466 86.4173Z" fill="#541000"/>
<path d="M30.4462 86.4216C31.0433 86.9834 32.3933 86.6059 33.4613 85.5792C34.5297 84.552 34.9118 83.2639 34.3146 82.7017C33.7179 82.14 32.368 82.5174 31.2996 83.5446C30.2312 84.5718 29.8491 85.8599 30.4458 86.4216H30.4462Z" fill="#FFC19F"/>
<g opacity="0.34">
<path d="M108.875 107.122L110.265 109.938C110.388 110.188 110.627 110.362 110.904 110.402L114.011 110.853C114.707 110.955 114.986 111.81 114.481 112.301L112.233 114.493C112.033 114.688 111.941 114.969 111.989 115.244L112.519 118.339C112.638 119.032 111.91 119.561 111.288 119.233L108.508 117.772C108.261 117.642 107.965 117.642 107.718 117.772L104.939 119.233C104.316 119.561 103.589 119.032 103.707 118.339L104.238 115.244C104.285 114.969 104.194 114.688 103.994 114.493L101.745 112.301C101.242 111.81 101.52 110.954 102.215 110.853L105.323 110.402C105.6 110.362 105.839 110.188 105.962 109.938L107.352 107.122C107.664 106.491 108.563 106.491 108.874 107.122H108.875Z" fill="white"/>
</g>
<rect x="274.5" y="1.5" width="45" height="30" rx="8.5" fill="#ED7B3E" stroke="white" stroke-width="3"/>
<path d="M290.195 25.2898C288.849 25.2841 287.698 24.929 286.744 24.2244C285.789 23.5199 285.059 22.4943 284.553 21.1477C284.047 19.8011 283.795 18.179 283.795 16.2812C283.795 14.3892 284.047 12.7727 284.553 11.4318C285.065 10.0909 285.797 9.06818 286.752 8.36364C287.712 7.65909 288.86 7.30682 290.195 7.30682C291.53 7.30682 292.675 7.66193 293.63 8.37216C294.584 9.0767 295.315 10.0994 295.82 11.4403C296.332 12.7756 296.587 14.3892 296.587 16.2812C296.587 18.1847 296.334 19.8097 295.829 21.1562C295.323 22.4972 294.593 23.5227 293.638 24.233C292.684 24.9375 291.536 25.2898 290.195 25.2898ZM290.195 23.0142C291.377 23.0142 292.3 22.4375 292.965 21.2841C293.636 20.1307 293.971 18.4631 293.971 16.2812C293.971 14.8324 293.817 13.608 293.511 12.608C293.209 11.6023 292.775 10.8409 292.207 10.3239C291.644 9.80114 290.974 9.53977 290.195 9.53977C289.019 9.53977 288.096 10.1193 287.425 11.2784C286.755 12.4375 286.417 14.1051 286.411 16.2812C286.411 17.7358 286.562 18.9659 286.863 19.9716C287.17 20.9716 287.604 21.7301 288.167 22.2472C288.729 22.7585 289.405 23.0142 290.195 23.0142ZM303.767 25.2386C302.597 25.2386 301.551 25.0369 300.631 24.6335C299.716 24.2301 298.992 23.6705 298.458 22.9545C297.929 22.233 297.645 21.3977 297.605 20.4489H300.282C300.316 20.9659 300.489 21.4148 300.801 21.7955C301.12 22.1705 301.534 22.4602 302.046 22.6648C302.557 22.8693 303.125 22.9716 303.75 22.9716C304.438 22.9716 305.046 22.8523 305.574 22.6136C306.108 22.375 306.526 22.0426 306.827 21.6165C307.128 21.1847 307.279 20.6875 307.279 20.125C307.279 19.5398 307.128 19.0256 306.827 18.5824C306.532 18.1335 306.097 17.7812 305.523 17.5256C304.955 17.2699 304.267 17.142 303.461 17.142H301.986V14.9943H303.461C304.108 14.9943 304.676 14.8778 305.165 14.6449C305.659 14.4119 306.046 14.0881 306.324 13.6733C306.603 13.2528 306.742 12.7614 306.742 12.1989C306.742 11.6591 306.62 11.1903 306.375 10.7926C306.137 10.3892 305.796 10.0739 305.353 9.84659C304.915 9.61932 304.398 9.50568 303.801 9.50568C303.233 9.50568 302.702 9.6108 302.208 9.82102C301.719 10.0256 301.321 10.321 301.015 10.7074C300.708 11.0881 300.543 11.5455 300.52 12.0795H297.972C298 11.1364 298.279 10.3068 298.807 9.59091C299.341 8.875 300.046 8.31534 300.921 7.91193C301.796 7.50852 302.767 7.30682 303.836 7.30682C304.955 7.30682 305.921 7.52557 306.733 7.96307C307.551 8.39489 308.182 8.97159 308.625 9.69318C309.074 10.4148 309.296 11.2045 309.29 12.0625C309.296 13.0398 309.023 13.8693 308.472 14.5511C307.926 15.233 307.199 15.6903 306.29 15.9233V16.0597C307.449 16.2358 308.347 16.696 308.983 17.4403C309.625 18.1847 309.944 19.108 309.938 20.2102C309.944 21.1705 309.676 22.0312 309.137 22.7926C308.603 23.554 307.873 24.1534 306.946 24.5909C306.02 25.0227 304.961 25.2386 303.767 25.2386Z" fill="white"/>
<path d="M290.195 25.2898C288.849 25.2841 287.698 24.929 286.744 24.2244C285.789 23.5199 285.059 22.4943 284.553 21.1477C284.047 19.8011 283.795 18.179 283.795 16.2812C283.795 14.3892 284.047 12.7727 284.553 11.4318C285.065 10.0909 285.797 9.06818 286.752 8.36364C287.712 7.65909 288.86 7.30682 290.195 7.30682C291.53 7.30682 292.675 7.66193 293.63 8.37216C294.584 9.0767 295.315 10.0994 295.82 11.4403C296.332 12.7756 296.587 14.3892 296.587 16.2812C296.587 18.1847 296.334 19.8097 295.829 21.1562C295.323 22.4972 294.593 23.5227 293.638 24.233C292.684 24.9375 291.536 25.2898 290.195 25.2898ZM290.195 23.0142C291.377 23.0142 292.3 22.4375 292.965 21.2841C293.636 20.1307 293.971 18.4631 293.971 16.2812C293.971 14.8324 293.817 13.608 293.511 12.608C293.209 11.6023 292.775 10.8409 292.207 10.3239C291.644 9.80114 290.974 9.53977 290.195 9.53977C289.019 9.53977 288.096 10.1193 287.425 11.2784C286.755 12.4375 286.417 14.1051 286.411 16.2812C286.411 17.7358 286.562 18.9659 286.863 19.9716C287.17 20.9716 287.604 21.7301 288.167 22.2472C288.729 22.7585 289.405 23.0142 290.195 23.0142ZM303.767 25.2386C302.597 25.2386 301.551 25.0369 300.631 24.6335C299.716 24.2301 298.992 23.6705 298.458 22.9545C297.929 22.233 297.645 21.3977 297.605 20.4489H300.282C300.316 20.9659 300.489 21.4148 300.801 21.7955C301.12 22.1705 301.534 22.4602 302.046 22.6648C302.557 22.8693 303.125 22.9716 303.75 22.9716C304.438 22.9716 305.046 22.8523 305.574 22.6136C306.108 22.375 306.526 22.0426 306.827 21.6165C307.128 21.1847 307.279 20.6875 307.279 20.125C307.279 19.5398 307.128 19.0256 306.827 18.5824C306.532 18.1335 306.097 17.7812 305.523 17.5256C304.955 17.2699 304.267 17.142 303.461 17.142H301.986V14.9943H303.461C304.108 14.9943 304.676 14.8778 305.165 14.6449C305.659 14.4119 306.046 14.0881 306.324 13.6733C306.603 13.2528 306.742 12.7614 306.742 12.1989C306.742 11.6591 306.62 11.1903 306.375 10.7926C306.137 10.3892 305.796 10.0739 305.353 9.84659C304.915 9.61932 304.398 9.50568 303.801 9.50568C303.233 9.50568 302.702 9.6108 302.208 9.82102C301.719 10.0256 301.321 10.321 301.015 10.7074C300.708 11.0881 300.543 11.5455 300.52 12.0795H297.972C298 11.1364 298.279 10.3068 298.807 9.59091C299.341 8.875 300.046 8.31534 300.921 7.91193C301.796 7.50852 302.767 7.30682 303.836 7.30682C304.955 7.30682 305.921 7.52557 306.733 7.96307C307.551 8.39489 308.182 8.97159 308.625 9.69318C309.074 10.4148 309.296 11.2045 309.29 12.0625C309.296 13.0398 309.023 13.8693 308.472 14.5511C307.926 15.233 307.199 15.6903 306.29 15.9233V16.0597C307.449 16.2358 308.347 16.696 308.983 17.4403C309.625 18.1847 309.944 19.108 309.938 20.2102C309.944 21.1705 309.676 22.0312 309.137 22.7926C308.603 23.554 307.873 24.1534 306.946 24.5909C306.02 25.0227 304.961 25.2386 303.767 25.2386Z" fill="white"/>
</svg>
