<svg width="166" height="27" viewBox="0 0 166 27" fill="none" xmlns="http://www.w3.org/2000/svg">
<mask id="path-1-outside-1_2893_17791" maskUnits="userSpaceOnUse" x="-3" y="-2" width="166" height="32" fill="black">
<rect fill="white" x="-3" y="-2" width="166" height="32"/>
<path d="M0.163125 2.856L20.9311 4.68L20.9311 11.528L3.84313 12.904L5.37913 11.272L5.21913 15.816L3.68313 14.888C5.98713 14.6 6.75513 14.376 9.85913 14.376C23.3631 14.376 25.0911 26.664 10.6591 26.664C6.46713 26.664 2.43513 25.32 0.451125 24.488L0.451125 19.72C2.56313 20.84 5.47513 21.832 8.13113 21.832C16.1951 21.832 14.7231 17.16 8.45113 17.16C5.28313 17.16 2.69113 17.672 0.163125 18.408L0.163125 2.856ZM30.8506 4.232C32.3546 3.24 36.2266 2.184 40.2586 2.184C58.5626 2.184 55.8106 20.008 38.6586 20.008C37.7946 20.008 37.4746 17.352 38.3386 17.352C46.1466 17.352 46.9786 8.168 39.9706 8.168C36.5146 8.168 33.5386 9.608 31.6826 10.952C31.3306 8.68 31.2026 6.504 30.8506 4.232ZM33.4106 7.912L40.6106 6.984L41.6346 25.896L32.4506 25L33.4106 7.912ZM54.7569 16.2L55.1089 9.8L63.9729 10.184L65.3489 25H55.0129L56.4529 16.008L54.7569 16.2ZM56.1329 4.328C56.1329 2.184 57.8609 0.455999 60.0049 0.455999C62.1489 0.455999 63.8769 2.184 63.8769 4.328C63.8769 6.472 62.1489 8.2 60.0049 8.2C57.8609 8.2 56.1329 6.472 56.1329 4.328ZM67.2569 12.68L67.8329 3.784L76.5689 3.592L78.0089 21L88.4089 19.656L88.7929 25L68.2489 25L69.8489 12.68H67.2569ZM90.7256 12.68L91.3016 3.784L100.038 3.592L101.478 21L111.878 19.656L112.262 25L91.7176 25L93.3176 12.68L90.7256 12.68ZM120.594 16.968L124.754 16.744L123.282 8.584L120.594 16.968ZM125.426 20.52L119.378 20.744L117.906 25.384L114.194 22.824L119.858 2.6L131.73 3.464L135.826 23.528L126.386 25.864L125.426 20.52ZM137.757 4.232C139.261 3.24 143.133 2.184 147.165 2.184C165.469 2.184 162.717 20.008 145.565 20.008C144.701 20.008 144.381 17.352 145.245 17.352C153.053 17.352 153.885 8.648 146.877 8.648C143.421 8.648 140.445 9.608 138.589 10.952C138.237 8.68 138.109 6.504 137.757 4.232ZM140.317 7.912L147.517 6.984L148.541 25.896L139.357 25L140.317 7.912ZM149.405 17.576L154.173 15.272L159.837 23.752L151.837 26.952L149.405 17.576Z"/>
</mask>
<path d="M0.163125 2.856L20.9311 4.68L20.9311 11.528L3.84313 12.904L5.37913 11.272L5.21913 15.816L3.68313 14.888C5.98713 14.6 6.75513 14.376 9.85913 14.376C23.3631 14.376 25.0911 26.664 10.6591 26.664C6.46713 26.664 2.43513 25.32 0.451125 24.488L0.451125 19.72C2.56313 20.84 5.47513 21.832 8.13113 21.832C16.1951 21.832 14.7231 17.16 8.45113 17.16C5.28313 17.16 2.69113 17.672 0.163125 18.408L0.163125 2.856ZM30.8506 4.232C32.3546 3.24 36.2266 2.184 40.2586 2.184C58.5626 2.184 55.8106 20.008 38.6586 20.008C37.7946 20.008 37.4746 17.352 38.3386 17.352C46.1466 17.352 46.9786 8.168 39.9706 8.168C36.5146 8.168 33.5386 9.608 31.6826 10.952C31.3306 8.68 31.2026 6.504 30.8506 4.232ZM33.4106 7.912L40.6106 6.984L41.6346 25.896L32.4506 25L33.4106 7.912ZM54.7569 16.2L55.1089 9.8L63.9729 10.184L65.3489 25H55.0129L56.4529 16.008L54.7569 16.2ZM56.1329 4.328C56.1329 2.184 57.8609 0.455999 60.0049 0.455999C62.1489 0.455999 63.8769 2.184 63.8769 4.328C63.8769 6.472 62.1489 8.2 60.0049 8.2C57.8609 8.2 56.1329 6.472 56.1329 4.328ZM67.2569 12.68L67.8329 3.784L76.5689 3.592L78.0089 21L88.4089 19.656L88.7929 25L68.2489 25L69.8489 12.68H67.2569ZM90.7256 12.68L91.3016 3.784L100.038 3.592L101.478 21L111.878 19.656L112.262 25L91.7176 25L93.3176 12.68L90.7256 12.68ZM120.594 16.968L124.754 16.744L123.282 8.584L120.594 16.968ZM125.426 20.52L119.378 20.744L117.906 25.384L114.194 22.824L119.858 2.6L131.73 3.464L135.826 23.528L126.386 25.864L125.426 20.52ZM137.757 4.232C139.261 3.24 143.133 2.184 147.165 2.184C165.469 2.184 162.717 20.008 145.565 20.008C144.701 20.008 144.381 17.352 145.245 17.352C153.053 17.352 153.885 8.648 146.877 8.648C143.421 8.648 140.445 9.608 138.589 10.952C138.237 8.68 138.109 6.504 137.757 4.232ZM140.317 7.912L147.517 6.984L148.541 25.896L139.357 25L140.317 7.912ZM149.405 17.576L154.173 15.272L159.837 23.752L151.837 26.952L149.405 17.576Z" fill="#0A8F46"/>
<path d="M0.163125 2.856L0.338106 0.863668L-1.83687 0.672645L-1.83687 2.856H0.163125ZM20.9311 4.68H22.9311V2.84795L21.1061 2.68767L20.9311 4.68ZM20.9311 11.528L21.0917 13.5215L22.9311 13.3734V11.528H20.9311ZM3.84313 12.904L2.38673 11.5333L-1.17189 15.3143L4.00365 14.8975L3.84313 12.904ZM5.37913 11.272L7.37789 11.3424L7.56489 6.03147L3.92273 9.90127L5.37913 11.272ZM5.21913 15.816L4.18489 17.5278L7.09811 19.2879L7.21789 15.8864L5.21913 15.816ZM3.68313 14.888L3.43506 12.9034L-2.28566 13.6185L2.64889 16.5998L3.68313 14.888ZM0.451125 24.488H-1.54887L-1.54887 25.818L-0.322328 26.3324L0.451125 24.488ZM0.451125 19.72L1.38813 17.9531L-1.54887 16.3956L-1.54887 19.72H0.451125ZM0.163125 18.408H-1.83687L-1.83687 21.0733L0.722192 20.3283L0.163125 18.408ZM-0.0118562 4.84833L20.7561 6.67233L21.1061 2.68767L0.338106 0.863668L-0.0118562 4.84833ZM18.9311 4.68L18.9311 11.528H22.9311L22.9311 4.68H18.9311ZM20.7706 9.53445L3.6826 10.9105L4.00365 14.8975L21.0917 13.5215L20.7706 9.53445ZM5.29953 14.2747L6.83553 12.6427L3.92273 9.90127L2.38673 11.5333L5.29953 14.2747ZM3.38036 11.2016L3.22036 15.7456L7.21789 15.8864L7.37789 11.3424L3.38036 11.2016ZM6.25336 14.1042L4.71736 13.1762L2.64889 16.5998L4.18489 17.5278L6.25336 14.1042ZM3.93119 16.8726C6.30812 16.5754 6.91358 16.376 9.85913 16.376L9.85913 12.376C6.59667 12.376 5.66614 12.6246 3.43506 12.9034L3.93119 16.8726ZM9.85913 16.376C12.9448 16.376 15.1961 17.0791 16.6474 17.99C18.113 18.9098 18.6669 19.9597 18.7456 20.7246C18.8169 21.4176 18.544 22.2924 17.3797 23.102C16.1683 23.9445 14.0172 24.664 10.6591 24.664L10.6591 28.664C14.5171 28.664 17.5619 27.8475 19.6635 26.386C21.8123 24.8916 22.9693 22.6944 22.7246 20.3153C22.4873 18.0083 20.9792 15.9862 18.7738 14.602C16.5541 13.2089 13.5254 12.376 9.85913 12.376L9.85913 16.376ZM10.6591 24.664C6.83884 24.664 3.08542 23.424 1.22458 22.6436L-0.322328 26.3324C1.78483 27.216 6.09541 28.664 10.6591 28.664L10.6591 24.664ZM2.45113 24.488L2.45113 19.72H-1.54887L-1.54887 24.488H2.45113ZM-0.48588 21.4869C1.80625 22.7024 5.04447 23.832 8.13113 23.832V19.832C5.90578 19.832 3.32 18.9776 1.38813 17.9531L-0.48588 21.4869ZM8.13113 23.832C10.2956 23.832 12.059 23.5253 13.3419 22.8996C14.6005 22.2857 15.8749 21.0585 15.6521 19.2513C15.4572 17.6703 14.1909 16.6475 13.0611 16.094C11.8326 15.4921 10.2488 15.16 8.45113 15.16L8.45113 19.16C9.78949 19.16 10.7416 19.4119 11.3012 19.686C11.5805 19.8229 11.7135 19.941 11.7576 19.9892C11.8014 20.037 11.709 19.9583 11.6822 19.7407C11.6687 19.6315 11.6764 19.5157 11.7063 19.406C11.7357 19.2981 11.7788 19.2241 11.8072 19.1846C11.8571 19.1154 11.8369 19.1832 11.5884 19.3044C11.347 19.4222 10.9548 19.5578 10.3676 19.6621C9.78539 19.7655 9.04601 19.832 8.13113 19.832V23.832ZM8.45113 15.16C5.04682 15.16 2.26211 15.7139 -0.395941 16.4877L0.722192 20.3283C3.12014 19.6301 5.51943 19.16 8.45113 19.16L8.45113 15.16ZM2.16313 18.408L2.16313 2.856L-1.83687 2.856L-1.83687 18.408H2.16313ZM30.8506 4.232L29.7494 2.56245L28.6776 3.26939L28.8742 4.5382L30.8506 4.232ZM31.6826 10.952L29.7062 11.2582L30.2069 14.4899L32.8556 12.5719L31.6826 10.952ZM33.4106 7.912L33.155 5.92841L31.507 6.14081L31.4138 7.79982L33.4106 7.912ZM40.6106 6.984L42.6077 6.87587L42.4912 4.72506L40.355 5.00041L40.6106 6.984ZM41.6346 25.896L41.4404 27.8865L43.7576 28.1126L43.6317 25.7879L41.6346 25.896ZM32.4506 25L30.4538 24.8878L30.3461 26.8042L32.2564 26.9905L32.4506 25ZM31.9518 5.90154C32.4121 5.59795 33.4871 5.15157 35.0618 4.78351C36.5852 4.42745 38.4082 4.184 40.2586 4.184V0.183998C38.077 0.183998 35.9481 0.468544 34.1514 0.88849C32.4061 1.29643 30.7931 1.87405 29.7494 2.56245L31.9518 5.90154ZM40.2586 4.184C44.5377 4.184 47.2963 5.2279 48.8783 6.51863C50.4155 7.77294 50.9549 9.33386 50.7694 10.8536C50.3935 13.9321 46.6523 18.008 38.6586 18.008L38.6586 22.008C47.817 22.008 54.0277 17.1719 54.7399 11.3384C55.0983 8.40214 53.9657 5.50706 51.407 3.41937C48.8929 1.36809 45.1316 0.183998 40.2586 0.183998V4.184ZM38.6586 18.008C39.0992 18.008 39.4307 18.1864 39.6195 18.3391C39.7899 18.477 39.8605 18.6028 39.8719 18.6235C39.8923 18.6603 39.8548 18.5944 39.8363 18.4408C39.8163 18.2754 39.8467 18.2514 39.8112 18.3649C39.7924 18.4248 39.7165 18.6457 39.4867 18.8767C39.3642 18.9999 39.1979 19.1249 38.9853 19.217C38.7701 19.3103 38.5478 19.352 38.3386 19.352V15.352C36.7931 15.352 36.1653 16.6225 35.9941 17.1691C35.8025 17.7806 35.8049 18.4206 35.865 18.9192C35.9265 19.4296 36.077 20.0277 36.3733 20.5625C36.6148 20.9981 37.3167 22.008 38.6586 22.008L38.6586 18.008ZM38.3386 19.352C43.1012 19.352 46.2335 16.4505 46.6929 13.0259C46.9172 11.3533 46.4717 9.59678 45.2476 8.25505C44.0122 6.90086 42.1701 6.168 39.9706 6.168V10.168C41.2751 10.168 41.9571 10.5831 42.2926 10.9509C42.6395 11.3312 42.812 11.8707 42.7284 12.4941C42.5718 13.6615 41.384 15.352 38.3386 15.352V19.352ZM39.9706 6.168C35.975 6.168 32.5966 7.82087 30.5096 9.33212L32.8556 12.5719C34.4807 11.3951 37.0542 10.168 39.9706 10.168V6.168ZM33.659 10.6458C33.4913 9.56276 33.3758 8.49614 33.2551 7.37742C33.1358 6.27214 33.0113 5.11476 32.827 3.92579L28.8742 4.5382C29.042 5.62124 29.1574 6.68786 29.2782 7.80658C29.3974 8.91186 29.522 10.0692 29.7062 11.2582L33.659 10.6458ZM33.6663 9.89559L40.8663 8.96759L40.355 5.00041L33.155 5.92841L33.6663 9.89559ZM38.6136 7.09213L39.6376 26.0041L43.6317 25.7879L42.6077 6.87587L38.6136 7.09213ZM41.8288 23.9055L32.6448 23.0095L32.2564 26.9905L41.4404 27.8865L41.8288 23.9055ZM34.4475 25.1122L35.4075 8.02418L31.4138 7.79982L30.4538 24.8878L34.4475 25.1122ZM54.7569 16.2L52.7599 16.0902L52.6299 18.4536L54.9819 18.1873L54.7569 16.2ZM55.1089 9.8L55.1954 7.80187L53.2205 7.71631L53.1119 9.69017L55.1089 9.8ZM63.9729 10.184L65.9643 9.99905L65.8029 8.2614L64.0594 8.18587L63.9729 10.184ZM65.3489 25V27H67.5432L67.3403 24.8151L65.3489 25ZM55.0129 25L53.038 24.6837L52.6671 27L55.0129 27V25ZM56.4529 16.008L58.4277 16.3243L58.844 13.7245L56.2279 14.0207L56.4529 16.008ZM56.7539 16.3098L57.1059 9.90983L53.1119 9.69017L52.7599 16.0902L56.7539 16.3098ZM55.0223 11.7981L63.8863 12.1821L64.0594 8.18587L55.1954 7.80187L55.0223 11.7981ZM61.9814 10.3689L63.3574 25.1849L67.3403 24.8151L65.9643 9.99905L61.9814 10.3689ZM65.3489 23H55.0129V27H65.3489V23ZM56.9877 25.3163L58.4277 16.3243L54.478 15.6917L53.038 24.6837L56.9877 25.3163ZM56.2279 14.0207L54.5319 14.2127L54.9819 18.1873L56.6779 17.9953L56.2279 14.0207ZM58.1329 4.328C58.1329 3.28857 58.9654 2.456 60.0049 2.456V-1.544C56.7563 -1.544 54.1329 1.07943 54.1329 4.328L58.1329 4.328ZM60.0049 2.456C61.0443 2.456 61.8769 3.28857 61.8769 4.328L65.8769 4.328C65.8769 1.07943 63.2534 -1.544 60.0049 -1.544V2.456ZM61.8769 4.328C61.8769 5.36743 61.0443 6.2 60.0049 6.2V10.2C63.2534 10.2 65.8769 7.57657 65.8769 4.328L61.8769 4.328ZM60.0049 6.2C58.9654 6.2 58.1329 5.36743 58.1329 4.328L54.1329 4.328C54.1329 7.57657 56.7563 10.2 60.0049 10.2V6.2ZM67.2569 12.68L65.2611 12.5508L65.1232 14.68H67.2569V12.68ZM67.8329 3.784L67.7889 1.78448L65.9555 1.82478L65.8371 3.65477L67.8329 3.784ZM76.5689 3.592L78.5621 3.42712L78.4069 1.55112L76.5249 1.59248L76.5689 3.592ZM78.0089 21L76.0157 21.1649L76.1883 23.2519L78.2652 22.9835L78.0089 21ZM88.4089 19.656L90.4037 19.5127L90.252 17.4012L88.1525 17.6725L88.4089 19.656ZM88.7929 25V27H90.9417L90.7877 24.8567L88.7929 25ZM68.2489 25L66.2655 24.7424L65.9723 27H68.2489V25ZM69.8489 12.68L71.8322 12.9376L72.1254 10.68L69.8489 10.68V12.68ZM69.2527 12.8092L69.8287 3.91322L65.8371 3.65477L65.2611 12.5508L69.2527 12.8092ZM67.8768 5.78352L76.6128 5.59152L76.5249 1.59248L67.7889 1.78448L67.8768 5.78352ZM74.5757 3.75688L76.0157 21.1649L80.0021 20.8351L78.5621 3.42712L74.5757 3.75688ZM78.2652 22.9835L88.6652 21.6395L88.1525 17.6725L77.7525 19.0165L78.2652 22.9835ZM86.414 19.7993L86.798 25.1433L90.7877 24.8567L90.4037 19.5127L86.414 19.7993ZM88.7929 23L68.2489 23V27L88.7929 27V23ZM70.2322 25.2576L71.8322 12.9376L67.8655 12.4224L66.2655 24.7424L70.2322 25.2576ZM69.8489 10.68H67.2569V14.68H69.8489V10.68ZM90.7256 12.68L88.7298 12.5508L88.5919 14.68H90.7256V12.68ZM91.3016 3.784L91.2577 1.78448L89.4243 1.82478L89.3058 3.65477L91.3016 3.784ZM100.038 3.592L102.031 3.42712L101.876 1.55112L99.9937 1.59248L100.038 3.592ZM101.478 21L99.4844 21.1649L99.6571 23.2519L101.734 22.9835L101.478 21ZM111.878 19.656L113.872 19.5127L113.721 17.4012L111.621 17.6725L111.878 19.656ZM112.262 25V27H114.41L114.256 24.8567L112.262 25ZM91.7176 25L89.7343 24.7424L89.4411 27H91.7176V25ZM93.3176 12.68L95.301 12.9376L95.5942 10.68H93.3176V12.68ZM92.7214 12.8092L93.2974 3.91322L89.3058 3.65477L88.7298 12.5508L92.7214 12.8092ZM91.3456 5.78352L100.082 5.59152L99.9937 1.59248L91.2577 1.78448L91.3456 5.78352ZM98.0444 3.75688L99.4844 21.1649L103.471 20.8351L102.031 3.42712L98.0444 3.75688ZM101.734 22.9835L112.134 21.6395L111.621 17.6725L101.221 19.0165L101.734 22.9835ZM109.883 19.7993L110.267 25.1433L114.256 24.8567L113.872 19.5127L109.883 19.7993ZM112.262 23L91.7176 23V27L112.262 27V23ZM93.701 25.2576L95.301 12.9376L91.3343 12.4224L89.7343 24.7424L93.701 25.2576ZM93.3176 10.68L90.7256 10.68V14.68L93.3176 14.68V10.68ZM120.594 16.968L118.69 16.3574L117.804 19.1212L120.702 18.9651L120.594 16.968ZM124.754 16.744L124.862 18.7411L127.125 18.6193L126.723 16.3889L124.754 16.744ZM123.282 8.584L125.251 8.22895L121.378 7.97339L123.282 8.584ZM125.426 20.52L127.395 20.1664L127.088 18.4571L125.352 18.5214L125.426 20.52ZM119.378 20.744L119.304 18.7454L117.898 18.7975L117.472 20.1392L119.378 20.744ZM117.906 25.384L116.771 27.0304L118.996 28.5647L119.813 25.9888L117.906 25.384ZM114.194 22.824L112.268 22.2846L111.883 23.6597L113.059 24.4704L114.194 22.824ZM119.858 2.6L120.004 0.605274L118.373 0.486631L117.932 2.06063L119.858 2.6ZM131.73 3.464L133.69 3.06396L133.387 1.57926L131.876 1.46927L131.73 3.464ZM135.826 23.528L136.307 25.4694L138.17 25.0084L137.786 23.128L135.826 23.528ZM126.386 25.864L124.418 26.2176L124.795 28.3181L126.867 27.8054L126.386 25.864ZM120.702 18.9651L124.862 18.7411L124.647 14.7469L120.487 14.9709L120.702 18.9651ZM126.723 16.3889L125.251 8.22895L121.314 8.93905L122.786 17.0991L126.723 16.3889ZM121.378 7.97339L118.69 16.3574L122.499 17.5786L125.187 9.19461L121.378 7.97339ZM125.352 18.5214L119.304 18.7454L119.452 22.7426L125.5 22.5186L125.352 18.5214ZM117.472 20.1392L116 24.7792L119.813 25.9888L121.285 21.3488L117.472 20.1392ZM119.042 23.7376L115.33 21.1776L113.059 24.4704L116.771 27.0304L119.042 23.7376ZM116.12 23.3634L121.784 3.13937L117.932 2.06063L112.268 22.2846L116.12 23.3634ZM119.713 4.59472L131.585 5.45872L131.876 1.46927L120.004 0.605274L119.713 4.59472ZM129.771 3.86404L133.867 23.928L137.786 23.128L133.69 3.06396L129.771 3.86404ZM135.346 21.5866L125.906 23.9226L126.867 27.8054L136.307 25.4694L135.346 21.5866ZM128.355 25.5104L127.395 20.1664L123.458 20.8736L124.418 26.2176L128.355 25.5104ZM137.757 4.232L136.656 2.56245L135.584 3.26939L135.78 4.5382L137.757 4.232ZM138.589 10.952L136.612 11.2582L137.113 14.4899L139.762 12.5719L138.589 10.952ZM140.317 7.912L140.061 5.92841L138.413 6.14081L138.32 7.79982L140.317 7.912ZM147.517 6.984L149.514 6.87587L149.397 4.72506L147.261 5.00041L147.517 6.984ZM148.541 25.896L148.347 27.8865L150.664 28.1126L150.538 25.7879L148.541 25.896ZM139.357 25L137.36 24.8878L137.252 26.8042L139.163 26.9905L139.357 25ZM149.405 17.576L148.535 15.7752L147.057 16.4894L147.469 18.0782L149.405 17.576ZM154.173 15.272L155.836 14.1612L154.869 12.7141L153.303 13.4712L154.173 15.272ZM159.837 23.752L160.58 25.609L162.87 24.6927L161.5 22.6412L159.837 23.752ZM151.837 26.952L149.901 27.4542L150.471 29.6524L152.58 28.809L151.837 26.952ZM138.858 5.90154C139.318 5.59795 140.393 5.15157 141.968 4.78351C143.491 4.42745 145.314 4.184 147.165 4.184V0.183998C144.983 0.183998 142.854 0.468544 141.058 0.88849C139.312 1.29643 137.699 1.87405 136.656 2.56245L138.858 5.90154ZM147.165 4.184C151.444 4.184 154.203 5.2279 155.785 6.51863C157.322 7.77294 157.861 9.33386 157.676 10.8536C157.3 13.9321 153.559 18.008 145.565 18.008V22.008C154.723 22.008 160.934 17.1719 161.646 11.3384C162.005 8.40214 160.872 5.50706 158.313 3.41937C155.799 1.36809 152.038 0.183998 147.165 0.183998V4.184ZM145.565 18.008C146.005 18.008 146.337 18.1864 146.526 18.3391C146.696 18.477 146.767 18.6028 146.778 18.6235C146.799 18.6603 146.761 18.5944 146.743 18.4408C146.723 18.2754 146.753 18.2514 146.717 18.3649C146.699 18.4248 146.623 18.6457 146.393 18.8767C146.27 18.9999 146.104 19.1249 145.892 19.217C145.676 19.3103 145.454 19.352 145.245 19.352V15.352C143.699 15.352 143.072 16.6225 142.9 17.1691C142.709 17.7806 142.711 18.4206 142.771 18.9192C142.833 19.4296 142.983 20.0277 143.28 20.5625C143.521 20.9981 144.223 22.008 145.565 22.008V18.008ZM145.245 19.352C149.919 19.352 153.12 16.6516 153.597 13.2803C153.831 11.63 153.361 9.9132 152.117 8.62097C150.874 7.32918 149.043 6.648 146.877 6.648V10.648C148.214 10.648 148.908 11.0548 149.235 11.395C149.563 11.7348 149.711 12.194 149.637 12.7197C149.498 13.7004 148.379 15.352 145.245 15.352V19.352ZM146.877 6.648C143.092 6.648 139.681 7.69203 137.416 9.33212L139.762 12.5719C141.209 11.524 143.75 10.648 146.877 10.648V6.648ZM140.565 10.6458C140.398 9.56276 140.282 8.49614 140.161 7.37742C140.042 6.27214 139.917 5.11476 139.733 3.92579L135.78 4.5382C135.948 5.62124 136.064 6.68786 136.184 7.80658C136.304 8.91186 136.428 10.0692 136.612 11.2582L140.565 10.6458ZM140.573 9.89559L147.773 8.96759L147.261 5.00041L140.061 5.92841L140.573 9.89559ZM145.52 7.09213L146.544 26.0041L150.538 25.7879L149.514 6.87587L145.52 7.09213ZM148.735 23.9055L139.551 23.0095L139.163 26.9905L148.347 27.8865L148.735 23.9055ZM141.354 25.1122L142.314 8.02418L138.32 7.79982L137.36 24.8878L141.354 25.1122ZM150.275 19.3768L155.043 17.0728L153.303 13.4712L148.535 15.7752L150.275 19.3768ZM152.51 16.3828L158.174 24.8628L161.5 22.6412L155.836 14.1612L152.51 16.3828ZM159.094 21.895L151.094 25.095L152.58 28.809L160.58 25.609L159.094 21.895ZM153.773 26.4498L151.341 17.0738L147.469 18.0782L149.901 27.4542L153.773 26.4498Z" fill="#F5DE68" mask="url(#path-1-outside-1_2893_17791)"/>
</svg>
