<svg width="151" height="342" viewBox="0 0 151 342" fill="none" xmlns="http://www.w3.org/2000/svg">
<path d="M150.71 113.061V341.02H0V113.061C0 78.7022 15.9103 46.2252 43.1193 25.0635L75.355 0L107.591 25.0635C134.8 46.2252 150.71 78.7022 150.71 113.061Z" fill="#96FFC1"/>
<path d="M28.0558 238.427C27.2063 243.762 28.4691 246.373 28.4691 246.373C30.1451 244.839 31.4309 243.098 32.4411 241.312C31.5227 240.763 30.0074 239.801 28.0558 238.427Z" fill="#EF6270"/>
<path d="M36.1559 226.499C36.1559 226.499 28.2577 221.278 26.2373 217.591C24.1938 213.905 20.8647 191.006 20.3136 181.595L10.969 182.511C10.969 182.511 11.2445 206.142 11.9792 216.103C12.7139 226.064 31.7706 244.337 31.7706 244.337C31.7706 244.337 38.6815 236.689 36.1559 226.499Z" fill="#F3B18E"/>
<path d="M101.064 339.934H76.5894L73.926 322.348L71.1249 339.934H46.8794L49.0376 304.075L99.5262 304.877L101.064 339.934Z" fill="#7B2838"/>
<path d="M111.809 255.757C111.809 255.757 111.809 257.795 110.271 259.283L108.388 256.284L109.421 255.528L111.809 255.757Z" fill="#EF6270"/>
<path d="M147.101 299.334C145.402 294.64 142.325 293.128 139.248 291.32C136.172 289.511 134.128 290.724 131.832 288.64C122.855 280.557 112.408 261.116 109.263 256.812C109.194 256.72 109.125 256.651 109.056 256.583C103.431 259.124 99.5968 263.75 97.8289 266.292C101.502 271.65 110.457 283.145 126.873 295.098C128.251 296.105 128.526 298.716 129.904 301.372C131.281 304.028 135.414 307.829 135.667 305.288C135.919 302.746 133.439 299.677 133.348 298.212C133.256 296.746 133.784 295.785 135.276 296.151C136.769 296.517 140.901 300.135 142.417 301.967C143.932 303.799 145.654 304.257 146.159 303.639C146.894 302.746 146.435 301.853 146.435 301.853C146.435 301.853 147.56 301.028 147.101 299.357V299.334Z" fill="#F3B18E"/>
<path d="M47.3669 195.72C48.7675 199.842 48.6297 205.795 49.4104 212.001C50.0992 217.451 57.63 227.32 74.5743 224.916C91.5186 222.511 94.6182 209.39 92.9651 203.666C91.312 197.964 90.6691 190.545 90.6691 190.545C90.6691 190.545 67.6175 194.346 56.3672 180.126C57.8366 190.408 47.3669 195.72 47.3669 195.72Z" fill="#F3B18E"/>
<path d="M70.185 217.748C66.5803 217.748 64.0088 216.809 63.8022 216.74C63.5267 216.648 63.3889 216.351 63.5037 216.076C63.5956 215.801 63.894 215.664 64.1696 215.778C64.2614 215.801 72.6876 218.847 80.4021 213.649C80.6317 213.488 80.9532 213.557 81.1139 213.786C81.2746 214.015 81.2057 214.336 80.9761 214.496C77.1878 217.038 73.3076 217.748 70.185 217.748Z" fill="#7B2838"/>
<path d="M97.461 170.299C93.7416 166.681 86.0271 166.865 86.0271 166.865C86.0271 166.865 68.8532 151.385 53.0568 168.078C53.0568 168.078 42.2887 167.712 39.1202 180.306C37.4442 186.786 40.4289 193.083 40.4289 193.083C40.4289 193.083 35.6074 201.235 46.1919 206.433C47.1332 206.891 48.0516 207.326 48.9929 207.761C48.6256 203.159 48.4419 198.899 47.3628 195.739C47.3628 195.739 57.8325 190.404 56.363 180.146C67.6133 194.366 90.665 190.564 90.665 190.564C90.665 190.564 91.1471 195.946 92.2951 201.052C94.4992 198.533 95.785 196.61 95.785 196.61C95.785 196.61 101.915 188.206 97.7136 184.748C97.7136 184.748 103.614 176.276 97.461 170.299Z" fill="#7B2838"/>
<path d="M94.9838 195.235C93.2618 194.686 92.0909 195.9 91.4709 196.793C91.8383 198.991 92.3205 201.464 92.9633 203.685C93.1011 204.189 93.1929 204.738 93.2618 205.334C94.5935 205.357 96.1547 204.143 96.591 202.288C96.9813 200.64 97.5783 196.083 94.9608 195.235H94.9838Z" fill="#F3B18E"/>
<path d="M48.3719 200.645C47.5454 199.935 46.2137 199.156 44.7443 200.004C42.3794 201.378 43.9636 205.728 44.6983 207.24C45.6627 209.209 47.8668 210.033 49.1296 209.278C48.8541 206.209 48.6934 203.278 48.3719 200.645Z" fill="#F3B18E"/>
<path d="M96.8366 268.237C98.329 285.778 103.77 304.989 103.77 304.989C73.8769 319.255 44.5113 304.44 44.5113 304.44C48.9885 284.999 50.8712 257.75 50.8712 257.75C35.9014 252.575 28.4624 246.392 28.4624 246.392C36.659 238.859 36.1539 226.516 36.1539 226.516C46.2792 233.157 57.5065 232.218 61.9607 231.462C63.2235 231.233 63.9353 231.05 63.9353 231.05L81.2929 231.233C81.2929 231.233 82.349 231.325 83.9332 231.554C87.9971 232.172 95.6198 233.706 98.1913 237.004C101.773 241.584 111.806 255.781 111.806 255.781C102.14 258.62 96.8366 268.26 96.8366 268.26V268.237Z" fill="#F8989A"/>
<path d="M83.9322 231.553C82.945 232.4 79.2484 234.438 72.5212 234.713C66.5976 234.942 62.9011 232.24 61.9597 231.461C63.2225 231.232 63.9343 231.049 63.9343 231.049L81.2918 231.232C81.2918 231.232 82.348 231.324 83.9322 231.553Z" fill="#EF6270"/>
<path d="M78.4979 223.997C76.7989 224.271 74.985 224.661 72.9416 224.684C70.4849 224.684 68.2808 224.523 66.2833 224.226C66.2833 229.79 63.9644 231.004 63.9644 231.004C72.3217 235.446 81.299 231.21 81.299 231.21C78.8653 229.561 78.5209 227.408 78.5209 223.997H78.4979Z" fill="#F3B18E"/>
<path d="M96.748 268.031C96.3577 268.031 96.0363 267.756 95.9903 267.367C95.9903 267.298 95.3016 261.162 95.2097 256.536C95.2097 256.124 95.5312 255.78 95.9444 255.758C96.3577 255.758 96.7021 256.078 96.7021 256.49C96.7939 261.047 97.4598 267.115 97.4598 267.184C97.5057 267.596 97.2072 267.985 96.7939 268.031C96.771 268.031 96.748 268.031 96.7021 268.031H96.748Z" fill="#EF6270"/>
<path d="M51.0128 258.212C51.0128 258.212 50.9669 258.212 50.921 258.212C50.5077 258.166 50.2092 257.799 50.2552 257.364C50.2552 257.364 50.4847 255.304 50.6914 252.67C50.7143 252.258 51.0358 251.915 51.5179 251.983C51.9312 252.006 52.2527 252.372 52.2067 252.808C52.0001 255.464 51.7705 257.548 51.7705 257.548C51.7246 257.937 51.4031 258.212 51.0128 258.212Z" fill="#EF6270"/>
<path d="M22.225 153.609C22.6612 154.135 22.6612 155.051 22.5923 155.761C22.4775 156.814 22.202 159.631 22.1102 163.295C22.0642 166.249 22.1561 168.836 22.179 169.454C21.5362 169.202 20.8014 169.111 19.929 169.18C19.6764 169.18 19.4239 169.225 19.1943 169.225L18.2988 164.508C18.2988 164.508 18.2988 164.462 18.3218 164.44L18.5514 162.676C18.7351 161.463 18.9417 159.974 19.1713 157.707C19.5157 154.318 20.0438 153.196 21.3066 153.219C21.6969 153.219 21.9724 153.357 22.179 153.586L22.225 153.609Z" fill="#F3B18E"/>
<path d="M10.2848 170.488C10.3536 171.312 10.17 171.976 9.75669 172.297C9.43525 172.549 9.02197 172.594 8.53982 172.434C7.73623 172.182 6.90967 170.854 6.40456 169.068C6.01424 167.648 6.01424 166.549 6.3816 165.977C6.56528 165.702 6.81784 165.542 7.16223 165.473C8.58574 165.244 9.20565 166.664 9.32045 166.984C9.55005 167.946 9.94037 169.32 10.2848 170.465V170.488Z" fill="#F3B18E"/>
<path d="M14.5567 170.593C14.8093 171.99 14.4419 172.905 13.5235 173.203C12.8807 173.409 11.6408 172.997 11.2275 171.852C10.8602 170.845 10.1714 168.486 9.80404 166.975C9.80404 166.975 9.80404 166.952 9.80404 166.929C9.80404 166.929 9.80404 166.883 9.80404 166.86C9.75812 166.631 9.68924 166.425 9.66628 166.242C9.43668 165.234 9.4826 163.952 10.9061 163.54C12.1689 163.174 13.0643 163.998 13.6842 166.059C14.2353 167.937 14.5797 170.57 14.6026 170.593H14.5567Z" fill="#F3B18E"/>
<path d="M17.7227 163.759C17.7227 163.759 18.5493 168.156 18.7559 169.255C16.8043 169.415 15.5645 169.621 14.9905 170.285C14.8987 169.575 14.5543 167.491 14.0951 165.934C14.0721 165.82 14.0262 165.728 14.0032 165.637C14.0032 165.614 14.0032 165.568 14.0032 165.545C13.2456 162.774 14.5313 162.087 15.1283 161.904C15.6793 161.744 16.2074 161.813 16.6436 162.087C17.1717 162.408 17.562 163.003 17.7227 163.759Z" fill="#F3B18E"/>
<path d="M18.9408 173.647C18.9408 173.647 15.382 173.899 14.0044 176.785C13.9815 176.83 14.0044 176.922 14.0503 176.945C14.0963 176.968 14.1881 176.945 14.211 176.899C15.5198 174.151 18.9178 173.899 18.9408 173.899C19.0096 173.899 19.0556 173.831 19.0556 173.785C19.0556 173.716 18.9867 173.67 18.9178 173.67L18.9408 173.647ZM10.0553 172.686C10.3538 172.457 10.5604 172.113 10.6752 171.678C10.7212 171.793 10.7671 171.907 10.79 172.022C11.2722 173.35 12.7187 173.968 13.683 173.67C14.0963 173.533 14.6932 173.19 14.9687 172.411C15.7494 173.556 17.8846 173.487 19.6525 173.441H20.2265C20.3643 173.441 20.4561 173.304 20.4561 173.19C20.4561 173.052 20.3413 172.961 20.2265 172.961H19.6525C17.7469 173.029 15.382 173.075 15.1754 171.61C15.1065 171.152 15.1754 170.831 15.359 170.602C15.8871 169.938 17.5402 169.823 20.0199 169.64C21.3745 169.549 22.4307 169.869 23.1424 170.602C23.9001 171.358 24.2674 172.571 24.1526 173.831C24.0378 175.136 23.1883 176.281 22.3618 177.403C21.9944 177.884 21.6271 178.387 21.3286 178.891C20.4332 180.38 20.4332 182.647 20.4561 183.265C16.5529 184.478 12.1447 183.746 10.9967 183.288C10.9967 183.059 10.9508 182.12 10.9508 182.12C10.9048 181.089 10.9048 180.471 10.4227 179.67C10.4227 179.67 10.4227 179.647 10.4227 179.624C8.63182 177.472 8.19559 175.365 7.82823 173.487C7.75935 173.098 7.66751 172.732 7.59863 172.365C7.87415 172.617 8.14967 172.823 8.42519 172.915C9.0451 173.121 9.64205 173.029 10.0783 172.686H10.0553Z" fill="#F3B18E"/>
<path d="M33.2159 70.4857C32.4582 69.6385 32.0908 68.2875 32.0908 66.4327V64.6008H35.7644V66.9135C35.7644 67.8295 36.0629 68.3104 36.6598 68.3104C37.0042 68.3104 37.2338 68.2188 37.3486 68.0127C37.4864 67.8066 37.5552 67.486 37.5552 67.028C37.5552 66.4098 37.4864 65.9289 37.3486 65.5167C37.2109 65.1275 37.0272 64.784 36.7976 64.5092C36.568 64.2344 36.1777 63.8223 35.5807 63.2498L33.9735 61.6469C32.7337 60.4333 32.0908 59.0823 32.0908 57.6168C32.0908 56.0368 32.4582 54.8232 33.1929 53.9759C33.9276 53.1516 34.9838 52.7394 36.4073 52.7394C38.0833 52.7394 39.3002 53.1745 40.0349 54.0675C40.7696 54.9606 41.137 56.3574 41.137 58.235H37.3256V56.9527C37.3256 56.7008 37.2338 56.5177 37.0961 56.3574C36.9583 56.1971 36.7746 56.1513 36.5221 56.1513C36.2236 56.1513 36.0169 56.22 35.8792 56.3803C35.7414 56.5406 35.6725 56.7466 35.6725 57.0214C35.6725 57.6397 36.0169 58.2579 36.7057 58.8991L38.8869 60.9829C39.392 61.4637 39.8053 61.9446 40.1497 62.3797C40.4941 62.8147 40.7467 63.3414 40.9533 63.9367C41.1599 64.5321 41.2518 65.242 41.2518 66.0663C41.2518 67.8982 40.9074 69.295 40.2415 70.2338C39.5757 71.1727 38.4507 71.6535 36.9124 71.6535C35.2134 71.6535 33.9965 71.2414 33.2388 70.3941L33.2159 70.4857Z" fill="black"/>
<path d="M42.626 52.8319H46.5521V57.2513C46.9654 56.1064 47.723 55.511 48.871 55.511C49.9501 55.511 50.7537 55.8545 51.3048 56.5414C51.8558 57.2284 52.1313 58.1443 52.1313 59.335V71.5628H48.32V59.564C48.32 59.2205 48.2282 58.9458 48.0904 58.7168C47.9297 58.5107 47.7001 58.3962 47.4016 58.3962C47.1491 58.3962 46.9424 58.5107 46.7817 58.7397C46.621 58.9687 46.5521 59.2434 46.5521 59.564V71.5857H42.626V52.8548V52.8319Z" fill="black"/>
<path d="M54.2037 70.5031C53.7445 69.6788 53.5149 68.5109 53.5149 66.9996C53.5149 65.7631 53.6756 64.8014 53.997 64.1373C54.3185 63.4733 54.7777 62.9924 55.3517 62.6718C55.9257 62.3513 56.8211 62.0078 58.015 61.6414L59.0482 61.2979V59.6721C59.0482 59.26 58.9564 58.9394 58.7956 58.7104C58.6349 58.4814 58.4283 58.3669 58.1987 58.3669C57.992 58.3669 57.8084 58.4585 57.6706 58.6417C57.5099 58.8249 57.441 59.0768 57.441 59.3974V60.3591H53.7445V59.8324C53.7445 58.2753 54.1118 57.1533 54.8466 56.4892C55.5813 55.8252 56.7752 55.4817 58.4283 55.4817C59.737 55.4817 60.8161 55.8252 61.6427 56.5121C62.4692 57.1991 62.8825 58.1608 62.8825 59.4203V71.5335H59.0941V69.6559C58.9104 70.297 58.612 70.8237 58.1987 71.1672C57.7854 71.5335 57.3033 71.7167 56.7293 71.7167C55.4894 71.7167 54.6629 71.3045 54.2037 70.4802V70.5031ZM58.8416 68.4193C58.9564 68.1904 59.0252 67.8927 59.0252 67.5492V63.1298C58.4512 63.3359 58.038 63.6107 57.7854 63.9541C57.5099 64.2747 57.3721 64.7556 57.3721 65.3509V67.3889C57.3721 68.3277 57.6477 68.8086 58.2216 68.8086C58.5201 68.8086 58.7268 68.6941 58.8416 68.4422V68.4193Z" fill="black"/>
<path d="M64.5581 52.8319H68.4842V57.2513C68.8975 56.1064 69.6552 55.511 70.8032 55.511C71.8823 55.511 72.6859 55.8545 73.2369 56.5414C73.7879 57.2284 74.0635 58.1443 74.0635 59.335V71.5628H70.2521V59.564C70.2521 59.2205 70.1603 58.9458 70.0225 58.7168C69.8618 58.5107 69.6322 58.3962 69.3337 58.3962C69.0812 58.3962 68.8745 58.5107 68.7138 58.7397C68.5531 58.9687 68.4842 59.2434 68.4842 59.564V71.5857H64.5581V52.8548V52.8319Z" fill="black"/>
<path d="M76.1016 70.5031C75.6424 69.6788 75.4128 68.5109 75.4128 66.9996C75.4128 65.7631 75.5736 64.8014 75.895 64.1373C76.2164 63.4733 76.6756 62.9924 77.2496 62.6718C77.8236 62.3513 78.719 62.0078 79.913 61.6414L80.9461 61.2979V59.6721C80.9461 59.26 80.8543 58.9394 80.6936 58.7104C80.5329 58.4814 80.3262 58.3669 80.0966 58.3669C79.89 58.3669 79.7063 58.4585 79.5686 58.6417C79.4078 58.8249 79.339 59.0768 79.339 59.3974V60.3591H75.6424V59.8324C75.6424 58.2753 76.0098 57.1533 76.7445 56.4892C77.4792 55.8252 78.6731 55.4817 80.3262 55.4817C81.6349 55.4817 82.714 55.8252 83.5406 56.5121C84.3671 57.1991 84.7804 58.1608 84.7804 59.4203V71.5335H80.9921V69.6559C80.8084 70.297 80.5099 70.8237 80.0966 71.1672C79.6834 71.5335 79.2012 71.7167 78.6272 71.7167C77.3874 71.7167 76.5608 71.3045 76.1016 70.4802V70.5031ZM80.7625 68.4193C80.8773 68.1904 80.9461 67.8927 80.9461 67.5492V63.1298C80.3722 63.3359 79.9589 63.6107 79.7063 63.9541C79.4308 64.2747 79.293 64.7556 79.293 65.3509V67.3889C79.293 68.3277 79.5686 68.8086 80.1426 68.8086C80.441 68.8086 80.6477 68.6941 80.7625 68.4422V68.4193Z" fill="black"/>
<path d="M87.5137 71.0774C87.0316 70.6424 86.7331 70.047 86.5724 69.3143C86.4116 68.5815 86.3428 67.6427 86.3428 66.4977L86.3887 59.3305C86.3887 58.2085 86.6642 57.2926 87.2382 56.5598C87.8122 55.85 88.6158 55.4836 89.6719 55.4836C90.7281 55.4836 91.4628 55.8271 91.9679 56.514V52.8045H95.7792V71.5354H91.9679V69.8409C91.7613 70.4592 91.4628 70.94 91.0954 71.2377C90.7281 71.5583 90.223 71.6957 89.6031 71.6957C88.6847 71.6957 87.9729 71.4667 87.5137 71.0316V71.0774ZM91.8072 68.2151C91.922 67.8488 91.9909 67.345 91.9909 66.7267V60.0862C91.9909 59.6282 91.922 59.2389 91.7842 58.9184C91.6465 58.5978 91.4169 58.4375 91.0954 58.4375C90.7281 58.4375 90.4755 58.5978 90.3378 58.8726C90.2 59.1473 90.1541 59.5595 90.1541 60.0862V66.7725C90.1541 68.1006 90.4526 68.7647 91.0725 68.7647C91.4398 68.7647 91.6924 68.5815 91.8072 68.2151Z" fill="black"/>
<path d="M97.8931 70.5031C97.4339 69.6788 97.2043 68.5109 97.2043 66.9996C97.2043 65.7631 97.3651 64.8014 97.6865 64.1373C98.0079 63.4733 98.4671 62.9924 99.0411 62.6718C99.6151 62.3513 100.511 62.0078 101.704 61.6414L102.738 61.2979V59.6721C102.738 59.26 102.646 58.9394 102.485 58.7104C102.324 58.4814 102.118 58.3669 101.888 58.3669C101.682 58.3669 101.498 58.4585 101.36 58.6417C101.199 58.8249 101.13 59.0768 101.13 59.3974V60.3591H97.4339V59.8324C97.4339 58.2753 97.8013 57.1533 98.536 56.4892C99.2707 55.8252 100.465 55.4817 102.118 55.4817C103.426 55.4817 104.506 55.8252 105.332 56.5121C106.159 57.1991 106.572 58.1608 106.572 59.4203V71.5335H102.784V69.6559C102.6 70.297 102.301 70.8237 101.888 71.1672C101.475 71.5335 100.993 71.7167 100.419 71.7167C99.1789 71.7167 98.3523 71.3045 97.8931 70.4802V70.5031ZM102.531 68.4193C102.646 68.1904 102.715 67.8927 102.715 67.5492V63.1298C102.141 63.3359 101.727 63.6107 101.475 63.9541C101.199 64.2747 101.062 64.7556 101.062 65.3509V67.3889C101.062 68.3277 101.337 68.8086 101.911 68.8086C102.21 68.8086 102.416 68.6941 102.531 68.4422V68.4193Z" fill="black"/>
<path d="M108.247 52.8319H112.173V57.2513C112.587 56.1064 113.344 55.511 114.492 55.511C115.571 55.511 116.375 55.8545 116.926 56.5414C117.477 57.2284 117.753 58.1443 117.753 59.335V71.5628H113.941V59.564C113.941 59.2205 113.85 58.9458 113.712 58.7168C113.551 58.5107 113.321 58.3962 113.023 58.3962C112.77 58.3962 112.564 58.5107 112.403 58.7397C112.242 58.9687 112.173 59.2434 112.173 59.564V71.5857H108.247V52.8548V52.8319Z" fill="black"/>
<path d="M71.9276 46.5323C71.9276 46.8529 71.8587 47.1735 71.721 47.4482C71.5832 47.723 71.4225 47.9749 71.1929 48.2039C70.9633 48.41 70.7108 48.5932 70.4123 48.7076C70.1138 48.8221 69.8153 48.8908 69.4709 48.8908H68.7821C68.4607 48.8908 68.1393 48.8221 67.8408 48.7076C67.5423 48.5932 67.2897 48.41 67.0602 48.2039C66.8306 47.9978 66.6698 47.7459 66.5321 47.4482C66.3943 47.1735 66.3254 46.8529 66.3254 46.5323V46.143L67.1979 46.0056V46.5323C67.1979 46.7384 67.2438 46.9445 67.3357 47.1277C67.4275 47.3108 67.5423 47.4711 67.6801 47.6085C67.8178 47.7459 68.0015 47.8604 68.1852 47.9291C68.3689 48.0207 68.5755 48.0436 68.8051 48.0436H69.4021C69.6087 48.0436 69.8153 47.9978 70.022 47.9291C70.2056 47.8375 70.3893 47.7459 70.5271 47.6085C70.6648 47.4711 70.8026 47.3108 70.8715 47.1277C70.9633 46.9445 71.0092 46.7384 71.0092 46.5323V46.2346C71.0092 45.914 70.9404 45.6393 70.8256 45.4103C70.7108 45.1813 70.5271 44.9981 70.2975 44.8607C70.0908 44.7004 69.8383 44.5859 69.5628 44.4714C69.2873 44.3569 69.0117 44.2654 68.7362 44.1509C68.4607 44.0364 68.1622 43.9219 67.9097 43.7845C67.6341 43.6471 67.4045 43.4868 67.1749 43.3036C66.9683 43.0975 66.7846 42.8685 66.6469 42.5938C66.5091 42.319 66.4632 41.9755 66.4632 41.5633V41.3801C66.4632 41.0596 66.5321 40.739 66.6469 40.4642C66.7617 40.1894 66.9454 39.9375 67.152 39.7086C67.3586 39.5025 67.6112 39.3193 67.9097 39.2048C68.2081 39.0903 68.5066 39.0216 68.8281 39.0216H69.448C69.7694 39.0216 70.0908 39.0903 70.3664 39.2048C70.6419 39.3193 70.8944 39.5025 71.124 39.7086C71.3307 39.9146 71.5143 40.1665 71.6291 40.4642C71.7439 40.739 71.8128 41.0596 71.8128 41.3801V41.632L70.9404 41.7694V41.3801C70.9404 41.1741 70.8944 40.968 70.8256 40.7848C70.7337 40.6016 70.6419 40.4413 70.5041 40.3039C70.3664 40.1665 70.2056 40.052 70.022 39.9833C69.8383 39.9146 69.6316 39.8689 69.425 39.8689H68.8969C68.6903 39.8689 68.4837 39.9146 68.3 39.9833C68.1163 40.0749 67.9556 40.1665 67.8178 40.3039C67.6801 40.4413 67.5653 40.6016 67.4734 40.7848C67.3816 40.968 67.3586 41.1741 67.3586 41.3801V41.5633C67.3586 41.861 67.4275 42.1358 67.5423 42.3419C67.6571 42.548 67.8408 42.7312 68.0704 42.8914C68.277 43.0517 68.5296 43.1662 68.8051 43.2807C69.0806 43.3952 69.3561 43.5097 69.6316 43.6242C69.9072 43.7387 70.2056 43.8532 70.4582 43.9906C70.7108 44.128 70.9633 44.2882 71.1929 44.4943C71.3995 44.7004 71.5832 44.9294 71.721 45.2271C71.8587 45.5248 71.9047 45.8682 71.9047 46.2804V46.5781L71.9276 46.5323Z" fill="black"/>
<path d="M77.9641 48.7479L77.5049 48.061C77.3213 48.3129 77.0917 48.4961 76.7932 48.6563C76.5177 48.8166 76.1962 48.8853 75.8748 48.8853H75.6682C75.3926 48.8853 75.1171 48.8395 74.8875 48.725C74.635 48.6105 74.4283 48.4732 74.2447 48.29C74.061 48.1068 73.9232 47.9007 73.8084 47.6488C73.6936 47.3969 73.6477 47.145 73.6477 46.8703V46.8016C73.6477 46.5268 73.6936 46.252 73.8084 46.023C73.9232 45.7711 74.061 45.5651 74.2447 45.3819C74.4283 45.1987 74.635 45.0613 74.8875 44.9468C75.1401 44.8323 75.3926 44.7865 75.6682 44.7865H77.4131V43.7332C77.4131 43.5729 77.3901 43.4126 77.3213 43.2752C77.2524 43.1378 77.1835 43.0004 77.0687 42.8859C76.9539 42.7714 76.8391 42.7028 76.6784 42.6341C76.5406 42.5654 76.3799 42.5425 76.2192 42.5425H75.737C75.5763 42.5425 75.4156 42.5654 75.2778 42.6341C75.1401 42.7028 75.0023 42.7714 74.8875 42.8859C74.7727 43.0004 74.7039 43.1149 74.635 43.2752C74.5661 43.4126 74.5431 43.5729 74.5431 43.7332V43.9851L73.7166 43.8477V43.779C73.7166 43.5042 73.7625 43.2294 73.8773 43.0004C73.9921 42.7485 74.1299 42.5425 74.3135 42.3593C74.4972 42.1761 74.7039 42.0387 74.9564 41.9242C75.209 41.8097 75.4615 41.7639 75.737 41.7639H76.2192C76.4947 41.7639 76.7702 41.8097 76.9998 41.9242C77.2524 42.0387 77.459 42.1761 77.6427 42.3593C77.8264 42.5425 77.9641 42.7485 78.0789 43.0004C78.1937 43.2523 78.2397 43.5042 78.2397 43.779V48.7708H77.9641V48.7479ZM77.4131 45.4277H75.6682C75.5074 45.4277 75.3467 45.4506 75.209 45.5193C75.0712 45.588 74.9334 45.6567 74.8187 45.7711C74.7039 45.8856 74.635 46.0001 74.5661 46.1604C74.4972 46.2978 74.4743 46.4581 74.4743 46.6184V46.9161C74.4743 47.0764 74.4972 47.2366 74.5661 47.374C74.635 47.5114 74.7039 47.6488 74.8187 47.7633C74.9334 47.8778 75.0483 47.9465 75.209 48.0152C75.3467 48.0839 75.5074 48.1068 75.6682 48.1068H76.2192C76.3799 48.1068 76.5406 48.0839 76.6784 48.0152C76.8162 47.9465 76.9539 47.8778 77.0687 47.7633C77.1835 47.6488 77.2524 47.5343 77.3213 47.374C77.3901 47.2366 77.4131 47.0764 77.4131 46.9161V45.4277Z" fill="black"/>
<path d="M81.1564 51.4977H80.3528L81.5696 48.1545L79.3425 41.8803H80.1691L81.9599 47.0783V47.4447L82.0059 47.0783L83.7967 41.8803H84.6233L81.1334 51.4977H81.1564Z" fill="black"/>
<path d="M87.391 142.254C91.9645 134.199 89.1243 123.971 81.0473 119.41C72.9702 114.848 62.7149 117.681 58.1414 125.737C53.5679 133.792 56.4081 144.02 64.4851 148.581C72.5622 153.142 82.8175 150.31 87.391 142.254Z" fill="white"/>
<path d="M79.9023 132.332C81.3258 132.332 82.4968 131.165 82.4968 129.745V128.371C82.4968 126.791 81.211 125.509 79.6268 125.509H79.2824C77.6982 125.509 76.4125 126.791 76.4125 128.371V129.607C76.4125 129.951 76.1369 130.203 75.8155 130.203H73.9557C72.647 130.203 71.5909 131.256 71.5909 132.561V133.409C71.5909 134.599 72.5552 135.584 73.7721 135.584H79.8564C80.4075 135.584 80.3845 135.905 80.3845 135.905V136.317C80.3845 136.477 80.2927 136.752 79.8335 136.752H73.9787H68.675C68.1699 136.752 67.7336 136.34 67.7336 135.813V132.813C67.7336 132.241 67.2515 131.76 66.6775 131.76C66.1035 131.76 65.6214 132.241 65.6214 132.813V135.882C65.6214 136.363 65.231 136.752 64.7489 136.752H62.407C61.833 136.752 61.3508 137.233 61.3508 137.805C61.3508 138.378 61.833 138.858 62.407 138.858H67.55C68.0092 138.858 68.3536 139.225 68.3536 139.66V140.69C68.3536 142.27 69.6393 143.553 71.2235 143.553H71.5679C73.1522 143.553 74.4379 142.27 74.4379 140.69V139.591C74.4379 139.179 74.7823 138.836 75.1956 138.836H79.9942C81.3488 138.836 82.4509 137.736 82.4509 136.385V136.042C82.4968 134.485 81.3029 133.386 79.8564 133.454H74.2083C73.6114 133.454 73.6343 132.951 73.6343 132.951V132.745C73.6343 132.561 73.7262 132.287 74.2313 132.287H79.8564L79.9023 132.332ZM79.4661 127.615C79.9712 127.615 80.3845 128.027 80.3845 128.531V129.287C80.3845 129.791 79.9712 130.203 79.4661 130.203C78.961 130.203 78.5477 129.791 78.5477 129.287V128.531C78.5477 128.027 78.961 127.615 79.4661 127.615ZM71.4302 141.469C70.9251 141.469 70.5118 141.057 70.5118 140.553V139.797C70.5118 139.294 70.9251 138.881 71.4302 138.881C71.9353 138.881 72.3486 139.294 72.3486 139.797V140.553C72.3486 141.057 71.9353 141.469 71.4302 141.469Z" fill="#EF6270"/>
<path d="M72.0049 127.179H71.0177V129.332H70.0534V127.179H69.0661V129.332H68.1018V127.179H67.1145V129.652C67.1145 130.019 67.413 130.316 67.7803 130.316H71.2932C71.6605 130.316 71.959 130.019 71.959 129.652V127.179H72.0049Z" fill="#EF6270"/>
<path d="M86.9313 102.848C90.9521 94.5046 87.4297 84.49 79.0638 80.4799C70.6979 76.4698 60.6565 79.9827 56.6356 88.3263C52.6148 96.6699 56.1371 106.684 64.503 110.695C72.869 114.705 82.9104 111.192 86.9313 102.848Z" fill="white"/>
<path d="M74.1371 87.276H73.1039V89.52H72.1166V87.276H71.0834V89.52H70.0962V87.276H69.063V89.8406C69.063 90.2299 69.3844 90.5276 69.7518 90.5276H73.4024C73.7927 90.5276 74.0912 90.207 74.0912 89.8406V87.276H74.1371Z" fill="#EF6270"/>
<path d="M80.314 91.7396C79.717 91.7396 79.2349 92.2205 79.2349 92.8159V101.403C79.2349 101.998 79.717 102.479 80.314 102.479C80.9109 102.479 81.3931 101.998 81.3931 101.403V92.8159C81.3931 92.2205 80.9109 91.7396 80.314 91.7396Z" fill="#EF6270"/>
<path d="M76.4546 91.7396C75.8576 91.7396 75.3755 92.2205 75.3755 92.8159V99.777C75.3755 100.166 75.054 100.464 74.6867 100.464H72.6662V92.8159C72.6662 92.2205 72.1841 91.7396 71.5871 91.7396C70.9902 91.7396 70.508 92.2205 70.508 92.8159V100.464H68.4187C68.0054 100.464 67.661 100.12 67.661 99.7083V94.0066C67.661 93.4112 67.1788 92.9303 66.5819 92.9303C66.1456 92.9303 65.7783 93.1822 65.5946 93.5486C65.1125 93.3196 64.5844 93.1593 64.0333 93.1593C62.1047 93.1593 60.5435 94.7164 60.5435 96.6399C60.5435 98.5634 62.1047 100.12 64.0333 100.12C64.5614 100.12 65.0436 100.006 65.5028 99.7999C65.5487 101.38 66.8344 102.662 68.4416 102.662H74.7096C76.2939 102.662 77.5796 101.38 77.5796 99.7999V92.8387C77.5796 92.2434 77.0975 91.7625 76.5005 91.7625L76.4546 91.7396ZM63.9874 97.9451C63.2527 97.9451 62.6787 97.3498 62.6787 96.6399C62.6787 95.93 63.2757 95.3347 63.9874 95.3347C64.6992 95.3347 65.2961 95.93 65.2961 96.6399C65.2961 97.3498 64.6992 97.9451 63.9874 97.9451Z" fill="#EF6270"/>
</svg>
