<svg width="53" height="71" viewBox="0 0 53 71" fill="none" xmlns="http://www.w3.org/2000/svg">
<path d="M52.7257 25.2769C52.5671 29.7071 51.6306 33.9566 50.1541 38.1275C47.718 45.0027 43.8764 51.1632 39.2998 56.9564C35.6976 61.5147 31.7156 65.7596 27.2777 69.6279C26.0787 70.6729 26.338 70.5263 25.3685 69.6696C17.7992 62.9796 11.3645 55.4637 6.45925 46.8489C3.71923 42.0343 1.66133 36.9821 0.662112 31.5918C-0.309032 26.3513 -0.422992 21.1339 1.77695 16.1048C5.54921 7.47757 12.3423 2.14286 22.2073 0.702671C31.633 -0.672684 39.6962 2.14286 46.111 8.7634C49.2292 11.9818 51.2475 15.7914 52.0419 20.0997C52.3574 21.8115 52.5027 23.5512 52.7257 25.2785V25.2769ZM26.2967 44.3405C36.4111 44.572 46.4644 37.1411 47.1564 26.0426C47.8369 15.1092 39.052 6.33684 28.2869 5.56195C16.2219 4.69444 6.27922 12.803 5.59711 23.9108C4.94307 34.5448 13.8981 44.2031 26.2983 44.3405H26.2967Z" fill="#20685D"/>
<path d="M26.2967 44.3403C13.8965 44.2029 4.9431 34.5445 5.59549 23.9106C6.2776 12.8028 16.2203 4.69575 28.2852 5.56172C39.0504 6.33507 47.8369 15.1089 47.1548 26.0423C46.4645 37.1393 36.4111 44.5718 26.2951 44.3403H26.2967ZM37.9818 14.882C37.6796 15.1151 37.3592 15.271 37.1923 15.518C37.0437 15.7372 36.9182 16.1617 37.0404 16.313C37.4517 16.8223 37.4632 17.2623 37.085 17.7701C37.0041 17.8782 37.0454 18.0696 37.0454 18.2224C37.052 19.1748 37.052 20.1257 37.0734 21.0781C37.0883 21.7341 37.1874 22.421 35.8446 22.3284C37.0536 23.5988 36.9149 24.9664 36.8901 26.3155C36.8802 26.8558 36.8571 27.3976 36.8967 27.9363C36.9479 28.6294 36.8769 29.1928 35.7753 29.0879C35.8826 29.4305 35.9388 29.693 36.0478 29.9338C36.2278 30.3305 36.4921 30.7009 36.6176 31.11C36.6737 31.2921 36.5433 31.658 36.3798 31.7413C35.7621 32.0593 34.6951 31.3693 34.6406 30.6994C34.6175 30.3984 34.5366 29.9029 34.3582 29.8473C33.6777 29.6389 33.686 29.1928 33.6959 28.6896C33.7075 28.1494 33.7273 27.6075 33.6893 27.0688C33.5241 24.7009 32.7132 22.6479 30.4241 21.3312C29.8146 20.9808 29.1523 20.6814 28.6304 20.2384C27.8955 19.6132 27.2646 18.88 26.6072 18.1792C26.5395 18.1066 26.6006 17.9353 26.589 17.8103C26.5494 17.4058 26.5032 17.0029 26.4602 16.5985C26.3776 16.5985 26.2951 16.5985 26.2125 16.5985C25.8855 17.4089 26.1761 18.4972 25.0712 18.9618C25.0382 18.9757 25.0217 19.0559 25.0233 19.1053C25.0415 19.7027 24.5675 19.9281 24.1166 20.1828C23.4576 20.5548 22.8036 20.9361 22.1561 21.3251C20.7077 22.1941 19.6308 23.358 19.3236 24.9633C19.0775 26.2445 19.0495 27.5612 18.881 28.8563C18.8447 29.1388 18.6993 29.5401 18.4747 29.642C18.0354 29.8427 17.9049 30.1082 17.9726 30.4941C18.1031 31.2381 17.7546 31.6117 16.9833 31.658C16.7025 31.675 16.4168 31.6148 16.1327 31.5901C16.1724 31.3246 16.1658 31.0436 16.2599 30.7951C16.473 30.2348 16.7339 29.6899 17.0428 28.9875C15.9131 29.128 15.7826 28.6819 15.8173 28.0027C15.8701 26.9762 15.7661 25.9404 15.8569 24.9186C15.9131 24.2826 16.1988 23.6621 16.3937 23.0385C16.4647 22.81 16.5688 22.5924 16.6959 22.2744C15.6686 22.3485 15.6686 21.8236 15.6125 21.1692C15.4985 19.8108 16.0452 18.4123 15.34 17.0817C15.2838 16.9752 15.5018 16.7297 15.6125 16.5615C15.9411 16.0629 15.885 15.6399 15.3664 15.2849C15.1253 15.1197 14.8924 14.9438 14.6545 14.7724C14.3639 14.9916 14.0203 15.1583 13.8337 15.4207C13.6619 15.6616 13.4968 16.0938 13.6157 16.2883C13.9278 16.7961 14.1046 17.2314 13.6884 17.7485C13.6173 17.8365 13.6339 17.997 13.6372 18.1236C13.6553 19.1254 13.6487 20.1288 13.7164 21.129C13.7627 21.8221 13.7098 22.3716 12.666 22.2867C12.742 22.5569 12.7436 22.7822 12.8576 22.9273C13.3712 23.5772 13.5348 24.2919 13.5001 25.0884C13.4604 25.9868 13.4654 26.8898 13.5001 27.7897C13.5265 28.4951 13.581 29.1697 12.4067 29.0539C12.4695 29.3827 12.4331 29.6837 12.5752 29.8566C13.1631 30.5744 13.2622 31.3786 13.2507 32.2415C13.2259 34.0675 13.2375 35.8952 13.249 37.7213C13.249 37.9667 13.2441 38.3048 13.401 38.4437C14.4894 39.41 15.6951 40.2296 17.1617 40.8903C17.1617 39.6508 17.1518 38.5471 17.165 37.4434C17.1749 36.613 17.6687 36.1082 18.4235 36.1144C19.175 36.1205 19.6341 36.6207 19.6457 37.4697C19.6573 38.3696 19.6506 39.2711 19.649 40.171C19.6468 41.4614 20.3184 42.2497 21.664 42.5358C21.6887 42.5404 21.7185 42.5296 21.8489 42.5095C21.8489 42.2502 21.8489 41.9739 21.8489 41.6992C21.8506 40.2327 21.8308 38.7663 21.8605 37.2999C21.9067 35.091 23.4807 33.5798 26.1415 33.1383C27.7749 32.8682 29.8939 34.1401 30.5612 35.8659C30.7709 36.4077 30.8551 37.0143 30.87 37.5932C30.9096 39.2 30.8832 40.8085 30.8832 42.4617C31.3308 42.3753 31.6496 42.2981 31.9749 42.2564C32.7727 42.1545 33.0518 41.7686 33.0055 40.9984C32.9296 39.7681 32.9675 38.5286 32.9907 37.2952C33.0072 36.4123 33.8264 35.8412 34.6753 36.1097C35.3409 36.3197 35.5655 36.8198 35.5622 37.445C35.554 38.5332 35.5606 39.6215 35.5606 40.9598C36.8009 40.1308 37.8563 39.4841 38.8291 38.7416C39.1363 38.507 39.3659 38.0176 39.3758 37.6395C39.4286 35.6343 39.3642 33.6261 39.4253 31.6209C39.4418 31.0637 39.7457 30.5126 39.9225 29.96C40.0067 29.6945 40.1008 29.4305 40.233 29.0446C39.2205 29.1882 39.0801 28.7483 39.1231 28.1046C39.166 27.464 39.128 26.8188 39.133 26.1751C39.1412 25.0081 38.9282 23.8025 39.8283 22.7838C39.8762 22.7297 39.6466 22.4334 39.5129 22.2744C39.3378 22.0691 38.9662 21.8931 38.9596 21.6955C38.915 20.5656 38.9629 19.4341 38.9596 18.3027C38.9596 18.0341 38.9563 17.7176 38.8126 17.5093C38.5599 17.1419 38.5714 16.8764 38.8671 16.546C39.2849 16.0799 39.1991 15.6538 38.6425 15.3173C38.436 15.1938 38.2428 15.0518 37.9884 14.882H37.9818ZM29.1854 14.5116C27.4132 15.2046 26.5857 15.1228 25.6608 14.2075C24.7921 13.3492 24.7558 12.4215 25.5304 10.9752C24.4601 11.2407 23.821 12.136 23.8292 13.3631C23.8375 14.6119 24.6616 15.6307 25.902 15.9271C27.1027 16.2142 28.4834 15.6477 29.187 14.5116H29.1854Z" fill="white"/>
<path d="M37.9821 14.8826C38.2364 15.0524 38.4297 15.1944 38.6361 15.3179C39.1927 15.6529 39.2786 16.0804 38.8608 16.5466C38.5651 16.8769 38.5536 17.1424 38.8063 17.5098C38.9499 17.7182 38.9516 18.0347 38.9532 18.3032C38.9582 19.4347 38.9103 20.5662 38.9532 21.6961C38.9615 21.8937 39.3315 22.0681 39.5065 22.275C39.642 22.4324 39.8699 22.7303 39.822 22.7843C38.9235 23.8031 39.1366 25.0087 39.1267 26.1756C39.1217 26.8193 39.158 27.4646 39.1168 28.1052C39.0738 28.7488 39.2142 29.1888 40.2266 29.0452C40.0962 29.4311 40.0004 29.6935 39.9161 29.9606C39.7394 30.5132 39.4372 31.0627 39.419 31.6215C39.3579 33.6266 39.4223 35.6349 39.3694 37.64C39.3595 38.0182 39.13 38.5075 38.8228 38.7422C37.8516 39.4846 36.7946 40.1314 35.5542 40.9603C35.5542 39.622 35.5493 38.5338 35.5559 37.4455C35.5608 36.8204 35.3346 36.3202 34.669 36.1103C33.8201 35.8417 33.0025 36.4129 32.9843 37.2958C32.9612 38.5307 32.9232 39.7687 32.9992 40.9989C33.0471 41.7692 32.768 42.1551 31.9686 42.257C31.6449 42.2986 31.3245 42.3774 30.8769 42.4623C30.8769 40.8091 30.9033 39.2006 30.8637 37.5937C30.8488 37.0149 30.7646 36.4082 30.5548 35.8664C29.8892 34.1422 27.7702 32.8687 26.1351 33.1389C23.4744 33.5803 21.9021 35.0915 21.8542 37.3004C21.8228 38.7669 21.8443 40.2333 21.8426 41.6997C21.8426 41.976 21.8426 42.2508 21.8426 42.5101C21.7121 42.5302 21.6824 42.541 21.6576 42.5364C20.3121 42.2493 19.6405 41.461 19.6427 40.1716C19.6427 39.2716 19.6509 38.3702 19.6394 37.4702C19.6295 36.6197 19.1687 36.1196 18.4172 36.1149C17.6624 36.1088 17.1686 36.6135 17.1587 37.444C17.1438 38.5477 17.1554 39.6514 17.1554 40.8909C15.6871 40.2302 14.4831 39.4106 13.3947 38.4443C13.2378 38.3053 13.2444 37.9673 13.2427 37.7218C13.2311 35.8958 13.2196 34.0681 13.2444 32.242C13.2559 31.3792 13.1568 30.5749 12.5689 29.8572C12.4268 29.6843 12.4632 29.3833 12.4004 29.0545C13.5747 29.1703 13.5202 28.4957 13.4938 27.7903C13.4607 26.8903 13.4541 25.9889 13.4938 25.089C13.5284 24.2924 13.3649 23.5778 12.8513 22.9279C12.7357 22.7828 12.7357 22.5574 12.6597 22.2873C13.7035 22.3722 13.7564 21.8227 13.7101 21.1296C13.644 20.1309 13.6507 19.126 13.6308 18.1242C13.6292 17.9976 13.6127 17.8371 13.682 17.7491C14.0982 17.232 13.9215 16.7967 13.6094 16.2888C13.4904 16.0943 13.6556 15.6621 13.8274 15.4213C14.014 15.1589 14.3575 14.9937 14.6482 14.773C14.8861 14.9444 15.1189 15.1203 15.3601 15.2855C15.877 15.6405 15.9332 16.0635 15.6062 16.5621C15.4955 16.7303 15.2758 16.9773 15.3336 17.0822C16.0389 18.4128 15.4938 19.8114 15.6062 21.1697C15.6607 21.8242 15.6607 22.349 16.6896 22.275C16.5624 22.5914 16.4584 22.8106 16.3874 23.039C16.1925 23.6627 15.9084 24.2832 15.8506 24.9192C15.7598 25.941 15.8622 26.9768 15.811 28.0033C15.7763 28.6825 15.9067 29.1286 17.0364 28.9881C16.7276 29.6904 16.465 30.2353 16.2536 30.7957C16.1594 31.0427 16.166 31.3236 16.1264 31.5906C16.4105 31.6153 16.6962 31.6755 16.977 31.6586C17.7483 31.6122 18.0968 31.2387 17.9663 30.4947C17.8986 30.1088 18.0291 29.8417 18.4684 29.6426C18.6914 29.5407 18.8367 29.1394 18.8747 28.8569C19.0431 27.5603 19.0712 26.2436 19.3173 24.9639C19.6262 23.3601 20.703 22.1962 22.1498 21.3256C22.7972 20.9366 23.4513 20.5554 24.1103 20.1834C24.5612 19.9287 25.0352 19.7033 25.017 19.1059C25.017 19.0565 25.0319 18.9763 25.0649 18.9624C26.1698 18.4977 25.8808 17.411 26.2062 16.5991C26.2887 16.5991 26.3713 16.5991 26.4539 16.5991C26.4968 17.0035 26.5431 17.4064 26.5827 17.8108C26.5943 17.9359 26.5332 18.1072 26.6009 18.1798C27.2582 18.8806 27.8891 19.6138 28.6241 20.2389C29.1444 20.6819 29.8083 20.9814 30.4177 21.3318C32.7069 22.6485 33.5178 24.703 33.683 27.0694C33.721 27.6081 33.7011 28.1499 33.6896 28.6902C33.6797 29.1934 33.6714 29.6395 34.3519 29.8479C34.5302 29.9019 34.6112 30.399 34.6343 30.7C34.6871 31.3684 35.7557 32.0599 36.3734 31.7419C36.5369 31.6585 36.6658 31.2927 36.6113 31.1106C36.4857 30.7015 36.2215 30.3326 36.0415 29.9343C35.9325 29.6935 35.878 29.4311 35.769 29.0884C36.8706 29.1934 36.9416 28.6315 36.8904 27.9369C36.8508 27.3997 36.8739 26.8564 36.8838 26.3161C36.9086 24.967 37.0473 23.5994 35.8383 22.329C37.1811 22.42 37.082 21.7347 37.0671 21.0787C37.044 20.1278 37.044 19.1754 37.039 18.223C37.039 18.0702 36.9977 17.8772 37.0787 17.7707C37.4569 17.2629 37.447 16.8245 37.0341 16.3135C36.9119 16.1623 37.0374 15.7378 37.186 15.5186C37.3528 15.2716 37.6733 15.1157 37.9755 14.8826H37.9821ZM25.0566 20.1864C25.0038 20.1911 24.9427 20.1818 24.8997 20.2034C21.6808 21.8752 19.8805 25.2896 20.4206 28.718C20.4437 28.8692 20.5511 29.0807 20.6815 29.1347C21.3422 29.4111 22.1531 28.8677 22.1961 28.1762C22.2654 27.0493 22.31 25.9163 22.4653 24.7988C22.7163 22.9757 23.6346 21.4615 25.0583 20.1864H25.0566ZM27.7967 31.0658C28.0659 30.6953 28.3499 30.4592 28.3037 30.3326C28.2162 30.098 27.9337 29.9282 27.7339 29.7306C27.5836 29.9143 27.3193 30.0964 27.316 30.2801C27.3144 30.4839 27.5522 30.6907 27.7983 31.0643L27.7967 31.0658ZM29.2947 29.5886C29.0387 29.9513 28.7761 30.1597 28.8058 30.3249C28.8405 30.5209 29.1229 30.6799 29.298 30.8543C29.4516 30.7123 29.7373 30.5626 29.7274 30.4298C29.7125 30.2029 29.5127 29.9853 29.2947 29.5886ZM26.4126 30.9593C26.6323 30.6012 26.8651 30.3943 26.8354 30.2261C26.8024 30.0362 26.5348 29.8819 26.368 29.7121C26.2128 29.8911 25.9518 30.0594 25.932 30.2508C25.9138 30.4206 26.1632 30.6135 26.411 30.9593H26.4126ZM30.7431 31.1646C30.9661 30.859 31.2072 30.6706 31.1742 30.5441C31.1213 30.3403 30.8885 30.1782 30.7299 29.9992C30.5647 30.1597 30.2856 30.3094 30.2675 30.4839C30.2493 30.6506 30.5036 30.842 30.7431 31.1646ZM25.4844 30.2461C25.1987 30.0424 24.9922 29.7954 24.8601 29.8263C24.6883 29.8664 24.4687 30.1273 24.4703 30.294C24.4703 30.4391 24.7379 30.683 24.9047 30.6969C25.0517 30.7092 25.2235 30.4638 25.4861 30.2477L25.4844 30.2461ZM23.367 30.9979C23.5966 30.6722 23.8146 30.5008 23.7981 30.3511C23.7799 30.1829 23.5487 30.0347 23.41 29.8788C23.2746 30.0424 23.0731 30.1921 23.0268 30.3758C22.9954 30.5008 23.1788 30.6737 23.367 30.9979ZM21.9186 29.8309C21.7402 30.1798 21.5751 30.3619 21.5817 30.5394C21.585 30.6567 21.8344 30.7679 21.9731 30.8821C22.1052 30.7262 22.3133 30.5827 22.3431 30.4129C22.3645 30.2894 22.1482 30.1304 21.9202 29.8309H21.9186ZM32.7977 30.6722C32.5004 30.4499 32.3154 30.2122 32.1718 30.2323C32.0033 30.2554 31.7704 30.4978 31.7572 30.6598C31.7456 30.788 32.0082 31.0241 32.1784 31.0504C32.3204 31.0735 32.5054 30.862 32.7994 30.6737L32.7977 30.6722Z" fill="#7DC193"/>
<path d="M29.185 14.5114C28.4815 15.6491 27.1007 16.214 25.9 15.9269C24.6596 15.6305 23.8355 14.6102 23.8272 13.363C23.819 12.1358 24.4565 11.2405 25.5284 10.975C24.7538 12.4214 24.7918 13.3491 25.6589 14.2073C26.5838 15.1227 27.4112 15.2045 29.1834 14.5114H29.185Z" fill="#28807F"/>
<path d="M25.0564 20.1859C23.6343 21.4594 22.7161 22.9752 22.4634 24.7982C22.3098 25.9158 22.2652 27.0488 22.1941 28.1756C22.1512 28.8656 21.3403 29.4105 20.6796 29.1342C20.5491 29.0802 20.4418 28.8687 20.4187 28.7174C19.8786 25.2891 21.6788 21.8746 24.8978 20.2029C24.9408 20.1813 25.0019 20.1905 25.0547 20.1859H25.0564Z" fill="white"/>
<path d="M27.7967 31.0654C27.5523 30.6903 27.3128 30.485 27.3145 30.2813C27.3161 30.096 27.582 29.9139 27.7323 29.7318C27.9338 29.9293 28.2162 30.0991 28.3021 30.3338C28.35 30.4603 28.0643 30.6965 27.7951 31.067L27.7967 31.0654Z" fill="white"/>
<path d="M29.2942 29.5882C29.5138 29.9864 29.712 30.2026 29.7269 30.4295C29.7352 30.5622 29.4494 30.7119 29.2975 30.854C29.1224 30.6795 28.8383 30.5205 28.8053 30.3245C28.7772 30.1593 29.0382 29.9509 29.2942 29.5882Z" fill="white"/>
<path d="M26.4125 30.9587C26.1648 30.6129 25.9154 30.42 25.9336 30.2502C25.9534 30.0588 26.2127 29.8905 26.3696 29.7115C26.5347 29.8813 26.8023 30.0356 26.837 30.2255C26.8667 30.3922 26.6338 30.6006 26.4142 30.9587H26.4125Z" fill="white"/>
<path d="M30.743 31.1639C30.5036 30.8413 30.2509 30.6499 30.2674 30.4832C30.2855 30.3087 30.5647 30.159 30.7298 29.9985C30.8867 30.1775 31.1213 30.3396 31.1741 30.5434C31.2071 30.6699 30.966 30.8583 30.743 31.1639Z" fill="white"/>
<path d="M25.484 30.2461C25.2214 30.4622 25.0496 30.7076 24.9026 30.6952C24.7358 30.6814 24.4699 30.4375 24.4683 30.2924C24.4683 30.1272 24.6863 29.8648 24.858 29.8247C24.9902 29.7938 25.1966 30.0408 25.4823 30.2445L25.484 30.2461Z" fill="white"/>
<path d="M23.3672 30.9978C23.1789 30.6721 22.9956 30.4993 23.027 30.3758C23.0732 30.1921 23.2747 30.0439 23.4101 29.8787C23.5489 30.0346 23.7784 30.1828 23.7983 30.3511C23.8148 30.5008 23.5968 30.6721 23.3672 30.9978Z" fill="white"/>
<path d="M21.9184 29.8303C22.1479 30.1282 22.3626 30.2888 22.3412 30.4123C22.3114 30.5836 22.1033 30.7272 21.9712 30.8815C21.8325 30.7673 21.5847 30.6562 21.5798 30.5388C21.5732 30.3613 21.7383 30.1792 21.9167 29.8303H21.9184Z" fill="white"/>
<path d="M32.7978 30.6723C32.5038 30.8621 32.3188 31.0721 32.1768 31.0489C32.0067 31.0227 31.7457 30.7865 31.7556 30.6584C31.7689 30.4963 32.0017 30.2555 32.1702 30.2308C32.3139 30.2107 32.4989 30.45 32.7962 30.6707L32.7978 30.6723Z" fill="white"/>
</svg>
