<svg width="342" height="192" viewBox="0 0 342 192" fill="none" xmlns="http://www.w3.org/2000/svg">
<path d="M0 37C0 25.9543 8.95431 17 20 17H322C333.046 17 342 25.9543 342 37V172C342 183.046 333.046 192 322 192H20C8.95431 192 0 183.046 0 172V37Z" fill="#FFE1D1"/>
<path d="M22.5256 102H18.571L24.5966 84.5455H29.3523L35.3693 102H31.4148L27.0426 88.5341H26.9062L22.5256 102ZM22.2784 95.1392H31.6193V98.0199H22.2784V95.1392ZM43.5447 88.9091V91.6364H35.6612V88.9091H43.5447ZM37.451 85.7727H41.0817V97.9773C41.0817 98.3125 41.1328 98.5739 41.2351 98.7614C41.3374 98.9432 41.4794 99.071 41.6612 99.1449C41.8487 99.2187 42.0646 99.2557 42.3089 99.2557C42.4794 99.2557 42.6499 99.2415 42.8203 99.2131C42.9908 99.179 43.1214 99.1534 43.2124 99.1364L43.7834 101.838C43.6016 101.895 43.3459 101.96 43.0163 102.034C42.6868 102.114 42.2862 102.162 41.8146 102.179C40.9396 102.213 40.1726 102.097 39.5135 101.83C38.8601 101.562 38.3516 101.148 37.9879 100.585C37.6243 100.023 37.4453 99.3125 37.451 98.4545V85.7727ZM52.8729 88.9091V91.6364H44.9893V88.9091H52.8729ZM46.7791 85.7727H50.4098V97.9773C50.4098 98.3125 50.4609 98.5739 50.5632 98.7614C50.6655 98.9432 50.8075 99.071 50.9893 99.1449C51.1768 99.2187 51.3928 99.2557 51.6371 99.2557C51.8075 99.2557 51.978 99.2415 52.1484 99.2131C52.3189 99.179 52.4496 99.1534 52.5405 99.1364L53.1115 101.838C52.9297 101.895 52.674 101.96 52.3445 102.034C52.0149 102.114 51.6143 102.162 51.1428 102.179C50.2678 102.213 49.5007 102.097 48.8416 101.83C48.1882 101.562 47.6797 101.148 47.3161 100.585C46.9524 100.023 46.7734 99.3125 46.7791 98.4545V85.7727ZM61.0632 102.256C59.7166 102.256 58.5575 101.983 57.5859 101.438C56.62 100.886 55.8757 100.108 55.353 99.1023C54.8303 98.0909 54.5689 96.8949 54.5689 95.5142C54.5689 94.1676 54.8303 92.9858 55.353 91.9688C55.8757 90.9517 56.6115 90.1591 57.5604 89.5909C58.5149 89.0227 59.6342 88.7386 60.9183 88.7386C61.782 88.7386 62.5859 88.8778 63.3303 89.1562C64.0803 89.429 64.7337 89.8409 65.2905 90.392C65.853 90.9432 66.2905 91.6364 66.603 92.4716C66.9155 93.3011 67.0717 94.2727 67.0717 95.3864V96.3835H56.0178V94.1335H63.6541C63.6541 93.6108 63.5405 93.1477 63.3132 92.7443C63.0859 92.3409 62.7706 92.0256 62.3672 91.7983C61.9695 91.5653 61.5064 91.4489 60.978 91.4489C60.4268 91.4489 59.9382 91.5767 59.5121 91.8324C59.0916 92.0824 58.7621 92.4205 58.5234 92.8466C58.2848 93.267 58.1626 93.7358 58.157 94.2528V96.392C58.157 97.0398 58.2763 97.5994 58.5149 98.071C58.7592 98.5426 59.103 98.9062 59.5462 99.1619C59.9893 99.4176 60.5149 99.5455 61.1229 99.5455C61.5263 99.5455 61.8956 99.4886 62.2308 99.375C62.5661 99.2614 62.853 99.0909 63.0916 98.8636C63.3303 98.6364 63.5121 98.358 63.6371 98.0284L66.995 98.25C66.8246 99.0568 66.4751 99.7614 65.9467 100.364C65.424 100.96 64.7479 101.426 63.9183 101.761C63.0945 102.091 62.1428 102.256 61.0632 102.256ZM73.0717 94.4318V102H69.4411V88.9091H72.9013V91.2188H73.0547C73.3445 90.4574 73.8303 89.8551 74.5121 89.4119C75.1939 88.9631 76.0206 88.7386 76.9922 88.7386C77.9013 88.7386 78.6939 88.9375 79.37 89.3352C80.0462 89.733 80.5717 90.3011 80.9467 91.0398C81.3217 91.7727 81.5092 92.6477 81.5092 93.6648V102H77.8786V94.3125C77.8842 93.5114 77.6797 92.8864 77.2649 92.4375C76.8501 91.983 76.2791 91.7557 75.5518 91.7557C75.0632 91.7557 74.6314 91.8608 74.2564 92.071C73.8871 92.2812 73.5973 92.5881 73.3871 92.9915C73.1825 93.3892 73.0774 93.8693 73.0717 94.4318ZM89.1946 102.213C88.2003 102.213 87.2997 101.957 86.4929 101.446C85.6918 100.929 85.0554 100.17 84.5838 99.1705C84.1179 98.1648 83.8849 96.9318 83.8849 95.4716C83.8849 93.9716 84.1264 92.7244 84.6094 91.7301C85.0923 90.7301 85.7344 89.983 86.5355 89.4886C87.3423 88.9886 88.2259 88.7386 89.1861 88.7386C89.919 88.7386 90.5298 88.8636 91.0185 89.1136C91.5128 89.358 91.9105 89.6648 92.2116 90.0341C92.5185 90.3977 92.7514 90.7557 92.9105 91.108H93.0213V84.5455H96.6435V102H93.0639V99.9034H92.9105C92.7401 100.267 92.4986 100.628 92.1861 100.986C91.8793 101.338 91.4787 101.631 90.9844 101.864C90.4957 102.097 89.8991 102.213 89.1946 102.213ZM90.3452 99.3239C90.9304 99.3239 91.4247 99.1648 91.8281 98.8466C92.2372 98.5227 92.5497 98.071 92.7656 97.4915C92.9872 96.9119 93.098 96.233 93.098 95.4545C93.098 94.6761 92.9901 94 92.7741 93.4261C92.5582 92.8523 92.2457 92.4091 91.8366 92.0966C91.4276 91.7841 90.9304 91.6278 90.3452 91.6278C89.7486 91.6278 89.2457 91.7898 88.8366 92.1136C88.4276 92.4375 88.1179 92.8864 87.9077 93.4602C87.6974 94.0341 87.5923 94.6989 87.5923 95.4545C87.5923 96.2159 87.6974 96.8892 87.9077 97.4744C88.1236 98.054 88.4332 98.5085 88.8366 98.8381C89.2457 99.1619 89.7486 99.3239 90.3452 99.3239ZM105.251 102V84.5455H116.808V87.5881H108.942V91.7472H116.041V94.7898H108.942V102H105.251ZM119.011 102V88.9091H122.531V91.1932H122.668C122.906 90.3807 123.307 89.767 123.869 89.3523C124.432 88.9318 125.08 88.7216 125.812 88.7216C125.994 88.7216 126.19 88.733 126.401 88.7557C126.611 88.7784 126.795 88.8097 126.955 88.8494V92.071C126.784 92.0199 126.548 91.9744 126.247 91.9347C125.946 91.8949 125.67 91.875 125.42 91.875C124.886 91.875 124.409 91.9915 123.989 92.2244C123.574 92.4517 123.244 92.7699 123 93.179C122.761 93.5881 122.642 94.0597 122.642 94.5938V102H119.011ZM128.832 102V88.9091H132.462V102H128.832ZM130.656 87.2216C130.116 87.2216 129.653 87.0426 129.266 86.6847C128.886 86.321 128.695 85.8864 128.695 85.3807C128.695 84.8807 128.886 84.4517 129.266 84.0938C129.653 83.7301 130.116 83.5483 130.656 83.5483C131.195 83.5483 131.656 83.7301 132.036 84.0938C132.423 84.4517 132.616 84.8807 132.616 85.3807C132.616 85.8864 132.423 86.321 132.036 86.6847C131.656 87.0426 131.195 87.2216 130.656 87.2216ZM140.195 102.213C139.2 102.213 138.3 101.957 137.493 101.446C136.692 100.929 136.055 100.17 135.584 99.1705C135.118 98.1648 134.885 96.9318 134.885 95.4716C134.885 93.9716 135.126 92.7244 135.609 91.7301C136.092 90.7301 136.734 89.983 137.536 89.4886C138.342 88.9886 139.226 88.7386 140.186 88.7386C140.919 88.7386 141.53 88.8636 142.018 89.1136C142.513 89.358 142.911 89.6648 143.212 90.0341C143.518 90.3977 143.751 90.7557 143.911 91.108H144.021V84.5455H147.643V102H144.064V99.9034H143.911C143.74 100.267 143.499 100.628 143.186 100.986C142.879 101.338 142.479 101.631 141.984 101.864C141.496 102.097 140.899 102.213 140.195 102.213ZM141.345 99.3239C141.93 99.3239 142.425 99.1648 142.828 98.8466C143.237 98.5227 143.55 98.071 143.766 97.4915C143.987 96.9119 144.098 96.233 144.098 95.4545C144.098 94.6761 143.99 94 143.774 93.4261C143.558 92.8523 143.246 92.4091 142.837 92.0966C142.428 91.7841 141.93 91.6278 141.345 91.6278C140.749 91.6278 140.246 91.7898 139.837 92.1136C139.428 92.4375 139.118 92.8864 138.908 93.4602C138.697 94.0341 138.592 94.6989 138.592 95.4545C138.592 96.2159 138.697 96.8892 138.908 97.4744C139.124 98.054 139.433 98.5085 139.837 98.8381C140.246 99.1619 140.749 99.3239 141.345 99.3239ZM154.362 102.247C153.526 102.247 152.782 102.102 152.129 101.812C151.475 101.517 150.958 101.082 150.577 100.509C150.202 99.929 150.015 99.2074 150.015 98.3438C150.015 97.6165 150.148 97.0057 150.415 96.5114C150.683 96.017 151.046 95.6193 151.506 95.3182C151.967 95.017 152.489 94.7898 153.075 94.6364C153.665 94.483 154.285 94.375 154.933 94.3125C155.694 94.233 156.308 94.1591 156.773 94.0909C157.239 94.017 157.577 93.9091 157.788 93.767C157.998 93.625 158.103 93.4148 158.103 93.1364V93.0852C158.103 92.5455 157.933 92.1278 157.592 91.8324C157.256 91.5369 156.779 91.3892 156.16 91.3892C155.506 91.3892 154.987 91.5341 154.6 91.8239C154.214 92.108 153.958 92.4659 153.833 92.8977L150.475 92.625C150.646 91.8295 150.981 91.142 151.481 90.5625C151.981 89.9773 152.626 89.5284 153.415 89.2159C154.211 88.8977 155.131 88.7386 156.177 88.7386C156.904 88.7386 157.6 88.8239 158.265 88.9943C158.935 89.1648 159.529 89.429 160.046 89.7869C160.569 90.1449 160.981 90.6051 161.282 91.1676C161.583 91.7244 161.734 92.392 161.734 93.1705V102H158.29V100.185H158.188C157.978 100.594 157.697 100.955 157.344 101.267C156.992 101.574 156.569 101.815 156.075 101.991C155.58 102.162 155.009 102.247 154.362 102.247ZM155.401 99.7415C155.935 99.7415 156.407 99.6364 156.816 99.4261C157.225 99.2102 157.546 98.9205 157.779 98.5568C158.012 98.1932 158.129 97.7812 158.129 97.321V95.9318C158.015 96.0057 157.859 96.0739 157.66 96.1364C157.467 96.1932 157.248 96.2472 157.004 96.2983C156.759 96.3437 156.515 96.3864 156.271 96.4261C156.026 96.4602 155.805 96.4915 155.606 96.5199C155.18 96.5824 154.808 96.6818 154.489 96.8182C154.171 96.9545 153.924 97.1392 153.748 97.3722C153.572 97.5994 153.484 97.8835 153.484 98.2244C153.484 98.7188 153.663 99.0966 154.021 99.358C154.384 99.6136 154.844 99.7415 155.401 99.7415ZM166.323 106.909C165.863 106.909 165.431 106.872 165.028 106.798C164.63 106.73 164.3 106.642 164.039 106.534L164.857 103.824C165.283 103.955 165.667 104.026 166.008 104.037C166.354 104.048 166.653 103.969 166.903 103.798C167.158 103.628 167.366 103.338 167.525 102.929L167.738 102.375L163.042 88.9091H166.86L169.57 98.5227H169.707L172.442 88.9091H176.286L171.198 103.415C170.954 104.119 170.621 104.733 170.201 105.256C169.786 105.784 169.261 106.19 168.624 106.474C167.988 106.764 167.221 106.909 166.323 106.909ZM19.517 131V113.545H26.4034C27.7273 113.545 28.8551 113.798 29.7869 114.304C30.7188 114.804 31.429 115.5 31.9176 116.392C32.4119 117.278 32.6591 118.301 32.6591 119.46C32.6591 120.619 32.4091 121.642 31.9091 122.528C31.4091 123.415 30.6847 124.105 29.7358 124.599C28.7926 125.094 27.6506 125.341 26.3097 125.341H21.9205V122.384H25.7131C26.4233 122.384 27.0085 122.261 27.4688 122.017C27.9347 121.767 28.2813 121.423 28.5085 120.986C28.7415 120.543 28.858 120.034 28.858 119.46C28.858 118.881 28.7415 118.375 28.5085 117.943C28.2813 117.506 27.9347 117.168 27.4688 116.929C27.0028 116.685 26.4119 116.562 25.696 116.562H23.2074V131H19.517ZM34.9879 131V117.909H38.5078V120.193H38.6442C38.8828 119.381 39.2834 118.767 39.8459 118.352C40.4084 117.932 41.0561 117.722 41.7891 117.722C41.9709 117.722 42.1669 117.733 42.3771 117.756C42.5874 117.778 42.772 117.81 42.9311 117.849V121.071C42.7607 121.02 42.5249 120.974 42.2237 120.935C41.9226 120.895 41.647 120.875 41.397 120.875C40.8629 120.875 40.3857 120.991 39.9652 121.224C39.5504 121.452 39.2209 121.77 38.9766 122.179C38.7379 122.588 38.6186 123.06 38.6186 123.594V131H34.9879ZM48.1662 131.247C47.331 131.247 46.5866 131.102 45.9332 130.812C45.2798 130.517 44.7628 130.082 44.3821 129.509C44.0071 128.929 43.8196 128.207 43.8196 127.344C43.8196 126.616 43.9531 126.006 44.2202 125.511C44.4872 125.017 44.8509 124.619 45.3111 124.318C45.7713 124.017 46.294 123.79 46.8793 123.636C47.4702 123.483 48.0895 123.375 48.7372 123.312C49.4986 123.233 50.1122 123.159 50.5781 123.091C51.044 123.017 51.3821 122.909 51.5923 122.767C51.8026 122.625 51.9077 122.415 51.9077 122.136V122.085C51.9077 121.545 51.7372 121.128 51.3963 120.832C51.0611 120.537 50.5838 120.389 49.9645 120.389C49.3111 120.389 48.7912 120.534 48.4048 120.824C48.0185 121.108 47.7628 121.466 47.6378 121.898L44.2798 121.625C44.4503 120.83 44.7855 120.142 45.2855 119.562C45.7855 118.977 46.4304 118.528 47.2202 118.216C48.0156 117.898 48.9361 117.739 49.9815 117.739C50.7088 117.739 51.4048 117.824 52.0696 117.994C52.7401 118.165 53.3338 118.429 53.8509 118.787C54.3736 119.145 54.7855 119.605 55.0866 120.168C55.3878 120.724 55.5384 121.392 55.5384 122.17V131H52.0952V129.185H51.9929C51.7827 129.594 51.5014 129.955 51.1491 130.267C50.7969 130.574 50.3736 130.815 49.8793 130.991C49.3849 131.162 48.8139 131.247 48.1662 131.247ZM49.206 128.741C49.7401 128.741 50.2116 128.636 50.6207 128.426C51.0298 128.21 51.3509 127.92 51.5838 127.557C51.8168 127.193 51.9332 126.781 51.9332 126.321V124.932C51.8196 125.006 51.6634 125.074 51.4645 125.136C51.2713 125.193 51.0526 125.247 50.8082 125.298C50.5639 125.344 50.3196 125.386 50.0753 125.426C49.831 125.46 49.6094 125.491 49.4105 125.52C48.9844 125.582 48.6122 125.682 48.294 125.818C47.9759 125.955 47.7287 126.139 47.5526 126.372C47.3764 126.599 47.2884 126.884 47.2884 127.224C47.2884 127.719 47.4673 128.097 47.8253 128.358C48.1889 128.614 48.6491 128.741 49.206 128.741ZM60.1278 135.909C59.6676 135.909 59.2358 135.872 58.8324 135.798C58.4347 135.73 58.1051 135.642 57.8438 135.534L58.6619 132.824C59.0881 132.955 59.4716 133.026 59.8125 133.037C60.1591 133.048 60.4574 132.969 60.7074 132.798C60.9631 132.628 61.1705 132.338 61.3295 131.929L61.5426 131.375L56.8466 117.909H60.6648L63.375 127.523H63.5114L66.2472 117.909H70.0909L65.0028 132.415C64.7585 133.119 64.4261 133.733 64.0057 134.256C63.5909 134.784 63.0653 135.19 62.429 135.474C61.7926 135.764 61.0256 135.909 60.1278 135.909ZM77.4929 131.256C76.1463 131.256 74.9872 130.983 74.0156 130.438C73.0497 129.886 72.3054 129.108 71.7827 128.102C71.2599 127.091 70.9986 125.895 70.9986 124.514C70.9986 123.168 71.2599 121.986 71.7827 120.969C72.3054 119.952 73.0412 119.159 73.9901 118.591C74.9446 118.023 76.0639 117.739 77.348 117.739C78.2116 117.739 79.0156 117.878 79.7599 118.156C80.5099 118.429 81.1634 118.841 81.7202 119.392C82.2827 119.943 82.7202 120.636 83.0327 121.472C83.3452 122.301 83.5014 123.273 83.5014 124.386V125.384H72.4474V123.134H80.0838C80.0838 122.611 79.9702 122.148 79.7429 121.744C79.5156 121.341 79.2003 121.026 78.7969 120.798C78.3991 120.565 77.9361 120.449 77.4077 120.449C76.8565 120.449 76.3679 120.577 75.9418 120.832C75.5213 121.082 75.1918 121.42 74.9531 121.847C74.7145 122.267 74.5923 122.736 74.5866 123.253V125.392C74.5866 126.04 74.706 126.599 74.9446 127.071C75.1889 127.543 75.5327 127.906 75.9759 128.162C76.419 128.418 76.9446 128.545 77.5526 128.545C77.956 128.545 78.3253 128.489 78.6605 128.375C78.9957 128.261 79.2827 128.091 79.5213 127.864C79.7599 127.636 79.9418 127.358 80.0668 127.028L83.4247 127.25C83.2543 128.057 82.9048 128.761 82.3764 129.364C81.8537 129.96 81.1776 130.426 80.348 130.761C79.5241 131.091 78.5724 131.256 77.4929 131.256ZM85.8707 131V117.909H89.3906V120.193H89.527C89.7656 119.381 90.1662 118.767 90.7287 118.352C91.2912 117.932 91.9389 117.722 92.6719 117.722C92.8537 117.722 93.0497 117.733 93.2599 117.756C93.4702 117.778 93.6548 117.81 93.8139 117.849V121.071C93.6435 121.02 93.4077 120.974 93.1065 120.935C92.8054 120.895 92.5298 120.875 92.2798 120.875C91.7457 120.875 91.2685 120.991 90.848 121.224C90.4332 121.452 90.1037 121.77 89.8594 122.179C89.6207 122.588 89.5014 123.06 89.5014 123.594V131H85.8707Z" fill="#511D01"/>
<path d="M271.484 117.094H221.66V136.233H271.484V117.094Z" fill="#EEF3F9"/>
<path d="M283.229 132.133H209V190.159H283.229V132.133Z" fill="#EEF3F9"/>
<path d="M216.194 133.957H209V183.805H216.194V133.957Z" fill="#BCC5E4"/>
<path d="M283.604 133.957H276.41V183.805H283.604V133.957Z" fill="#BCC5E4"/>
<path d="M261.778 155.843H257.306C258.306 153.709 258.391 149.886 257.451 147.617L257.393 147.476C256.566 145.48 251.793 142.428 249.537 140.031C249.139 139.609 248.389 138.87 247.948 138.319C247.666 137.966 247.289 137.77 246.892 137.77C246.516 137.77 246.155 137.945 245.878 138.269C245.425 138.8 244.636 139.523 244.227 139.926C241.756 142.362 236.628 145.356 235.751 147.476L235.692 147.617C234.752 149.886 234.838 153.709 235.837 155.843H231.365C229.177 155.843 227.402 158.101 227.402 160.886V190.16H265.742V160.886C265.742 158.101 263.967 155.843 261.779 155.843H261.778Z" fill="#BCC5E4"/>
<path d="M230.655 132.742V122.084C230.655 121.849 230.544 121.625 230.346 121.463L227.743 119.318C227.564 119.17 227.281 119.17 227.101 119.318L224.5 121.463C224.303 121.625 224.191 121.849 224.191 122.084V132.742H230.654H230.655Z" fill="#BCC5E4"/>
<path d="M240.229 132.742V122.084C240.229 121.849 240.118 121.625 239.921 121.463L237.318 119.318C237.138 119.17 236.855 119.17 236.675 119.318L234.074 121.463C233.877 121.625 233.766 121.849 233.766 122.084V132.742H240.228H240.229Z" fill="#BCC5E4"/>
<path d="M249.803 132.742V122.084C249.803 121.849 249.692 121.625 249.495 121.463L246.892 119.318C246.713 119.17 246.429 119.17 246.25 119.318L243.648 121.463C243.451 121.625 243.34 121.849 243.34 122.084V132.742H249.803H249.803Z" fill="#BCC5E4"/>
<path d="M259.377 132.742V122.084C259.377 121.849 259.266 121.625 259.069 121.463L256.466 119.318C256.287 119.17 256.004 119.17 255.824 119.318L253.222 121.463C253.026 121.625 252.914 121.849 252.914 122.084V132.742H259.377H259.377Z" fill="#BCC5E4"/>
<path d="M268.952 132.742V122.084C268.952 121.849 268.84 121.625 268.643 121.463L266.04 119.318C265.861 119.17 265.578 119.17 265.398 119.318L262.797 121.463C262.6 121.625 262.488 121.849 262.488 122.084V132.742H268.951H268.952Z" fill="#BCC5E4"/>
<path d="M217.506 179.523H208V190.156H217.506V179.523Z" fill="#EEF3F9"/>
<path d="M284.572 179.523H275.445V190.156H284.572V179.523Z" fill="#EEF3F9"/>
<path d="M217.35 152.094H207.844V154.78H217.35V152.094Z" fill="#EEF3F9"/>
<path d="M284.572 152.094H275.445V154.78H284.572V152.094Z" fill="#EEF3F9"/>
<path d="M284.558 130.918H208V133.956H284.558V130.918Z" fill="#BCC5E4"/>
<path d="M272.594 113.398H220.543V117.955H272.594V113.398Z" fill="#BCC5E4"/>
<path d="M272.545 97.5225L272.406 97.2586C270.269 93.2038 257.076 82.5099 252.435 78.5965C251.579 77.8749 250.495 77.4805 249.376 77.4805H245.093C244.03 77.4805 243 77.8361 242.163 78.4916C236.92 82.5988 222.984 92.9929 220.736 97.2586L220.597 97.5225C217.838 102.757 218.779 109.175 222.925 113.398H270.218C274.364 109.175 275.305 102.758 272.546 97.5225H272.545Z" fill="#EEF3F9"/>
<path d="M248.737 65.358C250.016 65.0327 250.983 64.1048 251.409 62.9561C251.268 63.0114 251.12 63.0583 250.97 63.0966C248.898 63.6234 246.794 62.3707 246.268 60.3007C246.066 59.5076 246.125 58.7113 246.392 58C244.586 58.6914 243.546 60.6422 244.034 62.5622C244.38 63.9232 245.41 64.9263 246.663 65.307V66.2656C246.294 66.4859 246.046 66.8879 246.046 67.349V69.478C246.046 69.9391 246.294 70.3411 246.663 70.5615V71.2273C246.294 71.4477 246.046 71.8497 246.046 72.3108V74.4398C246.046 74.9009 246.294 75.3029 246.663 75.5233V76.1158H245.779C245.363 76.1158 245.025 76.4535 245.025 76.8701V77.3998C245.025 77.6296 245.211 77.8155 245.441 77.8155H249.174C249.404 77.8155 249.59 77.6292 249.59 77.3998V76.8701C249.59 76.4535 249.252 76.1158 248.836 76.1158H247.952V75.5233C248.321 75.3029 248.569 74.9009 248.569 74.4398V72.3108C248.569 71.8497 248.321 71.4477 247.952 71.2273V70.5615C248.321 70.3411 248.569 69.9391 248.569 69.478V67.349C248.569 66.8879 248.321 66.4859 247.952 66.2656V65.4734C248.211 65.4616 248.474 65.4242 248.736 65.3576L248.737 65.358Z" fill="#BCC5E4"/>
<path d="M225.077 104.311C225.021 104.348 223.99 107.253 223.99 107.253L221.281 106.049L222.443 104.325C222.443 104.325 225.126 104.202 225.102 104.256" fill="#FCC0A9"/>
<path d="M222.385 104.429C222.385 104.429 221.707 103.657 221.771 102.81C221.836 101.963 221.663 101.269 221.754 100.643C221.846 100.016 222.305 100.737 222.471 101.17C222.638 101.603 222.831 102.092 223.136 101.914C223.441 101.736 224.955 99.1053 225.407 98.9072C225.857 98.7086 225.746 99.2108 225.746 99.2108C225.746 99.2108 226.09 98.6234 226.421 98.6665C226.753 98.7095 226.648 99.1432 226.648 99.1432C226.648 99.1432 226.893 98.7568 227.146 98.9606C227.398 99.1644 226.515 101.473 226.531 101.599C226.531 101.599 226.751 100.202 227.169 100.18C227.587 100.158 227.361 101.055 227.197 101.774C227.032 102.494 226.629 103.202 226.026 103.653C225.423 104.105 224.649 105.18 223.805 104.962C222.962 104.744 222.385 104.429 222.385 104.429Z" fill="#FCC0A9"/>
<path d="M210.787 101.723C210.787 101.723 212.759 101.704 213.902 102.957C215.755 104.958 217.782 108.786 218.939 110.319L221.671 104.388L224.803 105.567L222.429 113.28C221.877 115.362 220.075 117.213 217.725 116.41C217.306 116.266 216.659 115.72 216.608 115.659L213.462 111.804C210.994 105.866 209.68 103.164 210.787 101.723H210.787Z" fill="#FF7274"/>
<path d="M203.037 101.78C203.037 101.78 203.316 99.7776 202.144 96.3054C202.144 96.3017 202.325 96.2113 202.325 96.2075C202.164 95.7219 201.994 95.274 201.836 94.8862C201.832 94.8749 201.832 94.8711 201.832 94.8711L206.771 97.6343C206.707 98.7636 207.205 100.919 207.486 101.826C207.486 101.826 207.847 103.239 205.64 103.408C204.027 103.531 203.037 101.78 203.037 101.78Z" fill="#FCC0A9"/>
<path d="M206.924 99.2107L204.129 98.707C204.417 99.5569 205.224 100.544 207.154 100.544C207.154 100.544 206.92 99.5885 206.924 99.2107Z" fill="#FC9A73"/>
<path d="M201.694 92.5372C202.151 95.5723 202.347 97.2937 204.029 98.7091C206.558 100.839 210.123 99.1499 210.583 96.0301C210.997 93.2219 210.18 88.7302 207.082 87.8085C204.03 86.9005 201.237 89.5015 201.694 92.5367V92.5372Z" fill="#FCC0A9"/>
<path d="M200.983 88.901C201.253 87.182 205.466 86.7913 206.72 87.5471C206.907 87.6601 208.675 88.7591 208.822 88.6906L203.632 89.4501C203.448 89.4259 203.007 89.7953 202.872 90.3741C202.872 90.3741 203.419 95.0413 202.213 96.513C201.101 96.0874 200.875 94.2383 200.442 93.1638C199.796 91.563 199.716 89.2514 200.982 88.9015L200.983 88.901Z" fill="#1A2E35"/>
<path d="M200.983 88.901C201.253 87.182 205.466 86.7913 206.72 87.5471C206.907 87.6601 208.675 88.7591 208.822 88.6906L203.632 89.4501C203.448 89.4259 203.007 89.7953 202.872 90.3741C202.872 90.3741 203.419 95.0413 202.213 96.513C201.101 96.0874 200.875 94.2383 200.442 93.1638C199.796 91.563 199.716 89.2514 200.982 88.9015L200.983 88.901Z" fill="#0A0A0C"/>
<path d="M200.715 95.185C201.028 95.9493 201.666 96.4941 202.298 96.7409C203.249 97.1126 203.501 96.0869 203.329 95.133C203.175 94.2747 202.829 93.2423 201.831 93.2783C200.847 93.3137 200.357 94.3111 200.715 95.1846V95.185Z" fill="#FCC0A9"/>
<path d="M200.191 92.5086C200.191 92.5086 202.796 88.0429 207.414 88.5073C208.184 88.5848 208.837 88.7958 209.278 89.4309C209.307 89.4725 209.334 89.5136 209.359 89.5548C209.359 89.5548 208.245 85.6968 204.131 86.0103C200.016 86.3239 199.525 90.6401 200.191 92.5081V92.5086Z" fill="#D3B39E"/>
<path d="M208.989 88.6938C208.985 88.6881 208.982 88.6819 208.977 88.6763C208.536 88.0407 207.883 87.8302 207.113 87.7527C203.009 87.3398 200.497 90.8181 199.988 91.5984C200.029 91.937 200.099 92.2467 200.192 92.5073C200.192 92.5073 202.796 88.0416 207.414 88.506C208.184 88.5836 208.837 88.7945 209.279 89.4296C209.307 89.4707 209.334 89.5124 209.36 89.5535C209.36 89.5535 209.254 89.1889 208.989 88.6933V88.6938Z" fill="#BC9983"/>
<path d="M224.067 184.028C224.104 183.592 224.076 183.228 223.608 183.201L222.944 183.164C222.694 183.164 222.515 183.331 222.314 183.471C220.795 184.527 220.172 183.164 219.582 183.164C218.824 183.164 219.312 185.584 219.276 185.712L218.448 188.521C218.376 188.756 218.522 189.262 218.773 189.329C218.818 189.341 218.865 189.347 218.911 189.346H227.684C229.08 189.346 229.096 187.638 228.521 187.517C225.937 186.984 224.917 186.138 224.065 185.52C224.065 185.52 224.01 184.698 224.067 184.028H224.067Z" fill="#007CFF"/>
<g opacity="0.4">
<path d="M227.685 189.346H218.912C218.865 189.347 218.819 189.34 218.774 189.329C218.603 189.283 218.484 189.035 218.445 188.808L218.449 188.594H228.805C228.668 188.991 228.321 189.346 227.685 189.346V189.346Z" fill="white"/>
</g>
<path d="M225.315 186.426C225.093 186.63 224.91 186.874 224.776 187.145C224.744 187.21 224.841 187.267 224.873 187.202C225.003 186.939 225.179 186.704 225.395 186.506C225.448 186.456 225.368 186.376 225.315 186.426H225.315Z" fill="#1A2E35"/>
<path d="M224.51 185.938C224.306 186.133 224.133 186.358 223.999 186.606C223.965 186.669 224.062 186.727 224.097 186.662C224.227 186.423 224.392 186.206 224.59 186.018C224.642 185.968 224.562 185.888 224.51 185.938V185.938Z" fill="#1A2E35"/>
<path d="M223.949 185.504C223.748 185.614 223.582 185.788 223.483 185.995C223.47 186.022 223.476 186.056 223.504 186.072C223.528 186.086 223.568 186.08 223.581 186.052C223.672 185.861 223.82 185.703 224.006 185.601C224.07 185.566 224.013 185.469 223.95 185.504H223.949Z" fill="#1A2E35"/>
<path d="M223.977 184.602C223.736 184.604 223.498 184.653 223.276 184.745C223.248 184.757 223.228 184.782 223.237 184.814C223.244 184.841 223.278 184.865 223.306 184.854C223.519 184.765 223.746 184.717 223.977 184.715C224.049 184.714 224.05 184.601 223.977 184.602H223.977Z" fill="#1A2E35"/>
<path d="M196.171 189.038H201.517C201.517 189.038 201.634 188.813 201.5 188.215C201.48 188.122 201.454 188.02 201.419 187.908C201.417 187.903 201.416 187.897 201.414 187.892C201.364 187.726 201.307 187.523 201.246 187.303C201.001 186.409 200.835 184.35 200.835 184.35C200.835 184.35 199.824 183.335 198.783 183.811C197.87 184.228 198.012 184.756 198.012 184.756C198.012 184.756 197.997 186.122 197.305 186.74C196.877 187.121 196.451 187.417 196.246 187.892C196.208 187.981 196.178 188.075 196.157 188.178C196.154 188.19 196.151 188.203 196.15 188.216C196.107 188.445 196.11 188.713 196.172 189.039L196.171 189.038Z" fill="#007CFF"/>
<g opacity="0.4">
<path d="M201.501 188.215C201.635 188.813 201.518 189.037 201.518 189.037H196.172C196.11 188.712 196.107 188.444 196.15 188.215H201.501H201.501Z" fill="white"/>
</g>
<path d="M198.303 185.72C198.604 185.486 198.998 185.516 199.269 185.78C199.342 185.851 199.453 185.739 199.38 185.668C199.043 185.339 198.561 185.321 198.191 185.608C198.112 185.671 198.224 185.782 198.303 185.72Z" fill="#1A2E35"/>
<path d="M198.151 186.22C198.452 185.986 198.846 186.016 199.117 186.28C199.189 186.351 199.301 186.239 199.228 186.168C198.891 185.839 198.409 185.821 198.039 186.108C197.959 186.171 198.071 186.281 198.151 186.22Z" fill="#1A2E35"/>
<path d="M197.998 186.681C198.299 186.447 198.694 186.477 198.964 186.741C199.037 186.812 199.149 186.7 199.076 186.629C198.738 186.3 198.256 186.282 197.887 186.569C197.807 186.632 197.919 186.743 197.998 186.681Z" fill="#1A2E35"/>
<path d="M197.197 130.926L207.036 131.18L214.753 130.926C214.753 130.926 219.566 152.933 219.985 156.938C220.403 160.943 224.548 184.071 224.548 184.071L218.444 184.66C218.444 184.66 212.328 160.683 211.88 158.516C211.49 156.628 207.174 144.521 206.072 141.442C205.962 142.072 205.848 142.706 205.732 143.334C205.453 146.172 204.559 155.222 204.17 158.59C204.17 158.59 202.85 179.179 201.869 184.766L197.309 184.62C196.631 176.689 196.089 147.635 196.089 147.635H196.09C195.709 141.584 197.196 130.926 197.196 130.926L197.197 130.926Z" fill="#1A2E35"/>
<g opacity="0.5">
<path d="M199.156 159.438C198.384 159.723 197.556 159.727 196.782 159.452C196.67 159.412 196.719 159.233 196.831 159.273C197.578 159.539 198.363 159.534 199.106 159.26C199.219 159.219 199.267 159.398 199.156 159.438Z" fill="black"/>
</g>
<path d="M210.675 101.714C209.062 101.676 205.029 100.884 198.755 101.982L195.918 106.852L197.459 120.599C194.292 132.854 195.218 174.432 194.992 180.975C196.385 181.165 197.818 181.286 199.73 181.365L201.805 172.012L204.399 181.464C211.776 181.415 221.852 181.016 224.828 179.873C224.782 179.978 215.481 129.944 215.064 126.013C214.329 119.084 213.215 108.574 212.072 102.343C211.947 102.207 211.127 101.713 210.676 101.713L210.675 101.714Z" fill="#FF7274"/>
<path d="M203.007 113.11L202.516 113.278L203.154 115.67C204.928 115.278 207.112 114.022 208.73 113.194C209.78 112.647 210.051 111.029 210.051 111.029C210.051 111.029 210.694 109.968 210.202 109.679C209.482 109.256 208.478 110.896 208.086 111.114C206.865 111.791 205.941 112.159 205.724 112.131C205.507 112.103 207.256 111.29 207.394 110.58C207.532 109.87 205.836 110.669 204.855 111.254C204.131 111.685 202.9 112.645 203.007 113.109V113.11Z" fill="#FCC0A9"/>
<path d="M198.923 101.949C198.923 101.949 195.693 102.061 194.784 105.419C194.315 107.155 191.347 116.76 191.325 118.259C191.292 120.44 193.117 121.902 194.994 121.707C196.871 121.513 203.372 116.485 203.372 116.485L202.256 112.305L196.755 114.406L198.924 101.949H198.923Z" fill="#FF7274"/>
<path d="M228.098 124.574H222.441V125.642H228.098V124.574Z" fill="#967762"/>
<path d="M226.052 125.009L225.76 125.002C225.762 124.921 225.946 116.872 225.867 116.078C225.783 115.226 223.301 113.069 222.352 112.31L222.534 112.082C222.893 112.37 226.046 114.921 226.158 116.049C226.238 116.86 226.059 124.677 226.052 125.009L226.052 125.009Z" fill="#D3B39E"/>
<path d="M223.162 112.701C222.898 113.015 222.224 112.881 221.658 112.403C221.091 111.925 220.846 111.284 221.11 110.97C221.375 110.657 222.048 110.79 222.615 111.269C223.181 111.747 223.427 112.388 223.162 112.701Z" fill="#D3B39E"/>
<path d="M194.991 171.727H187.344V177.032H194.991V171.727Z" fill="#EEF3F9"/>
<path d="M230.185 190.317H192.953V128.985L230.185 125.258V190.317Z" fill="#D3B39E"/>
<path d="M230.184 190.317H210.391V125.442L230.184 125.258V190.317Z" fill="#BC9983"/>
<path d="M231.223 128.044L210.388 127.466L191.048 129.969L190.969 127.27L210.388 124.57L231.363 125.26L231.223 128.044Z" fill="#BC9983"/>
<path d="M210.391 124.57V127.466L231.226 128.044L231.365 125.26L210.391 124.57Z" fill="#967762"/>
<path d="M192.952 190.318H171V183.682H178.431V177.031H192.952V190.318Z" fill="#EEF3F9"/>
<path d="M192.95 177.031H178.43V183.682H192.95V177.031Z" fill="#BCC5E4"/>
<path d="M324.272 185.483C323.78 185.595 323.36 185.621 323.255 185.091L323.105 184.34C323.065 184.054 323.227 183.823 323.354 183.571C324.315 181.666 322.657 181.174 322.563 180.501C322.44 179.636 325.283 179.802 325.422 179.741L328.497 178.342C328.754 178.222 329.356 178.307 329.472 178.583C329.493 178.632 329.507 178.684 329.514 178.737C329.731 180.273 329.834 180.999 330.103 182.91L330.929 188.755C331.154 190.348 329.206 190.642 328.975 190.005C327.95 187.14 326.82 186.112 325.976 185.24C325.976 185.24 325.028 185.309 324.272 185.482L324.272 185.483Z" fill="#0A0A0C"/>
<path d="M330.927 188.756L330.101 182.911C329.831 181 329.728 180.274 329.512 178.738C329.505 178.685 329.491 178.633 329.47 178.584C329.391 178.397 329.089 178.3 328.822 178.293L328.578 178.332L330.249 190.157C330.68 189.936 331.029 189.482 330.927 188.757V188.756Z" fill="#0A0A0C"/>
<path d="M325.033 185.275C324.999 185.01 325.015 184.742 325.081 184.484C325.099 184.414 324.99 184.384 324.972 184.454C324.903 184.722 324.885 185.001 324.92 185.275C324.924 185.306 324.943 185.332 324.976 185.332C325.004 185.332 325.036 185.306 325.033 185.275V185.275Z" fill="#1A2E35"/>
<g opacity="0.3">
<path d="M324.813 182.428C325.097 182.372 325.397 182.226 325.495 181.953C325.555 181.784 325.526 181.598 325.495 181.42C325.405 180.891 325.314 180.362 325.223 179.832L325.207 179.828C324.44 179.851 322.566 179.886 322.66 180.545C322.732 181.063 323.867 181.459 323.712 182.587C324.11 182.521 324.622 182.466 324.813 182.428Z" fill="black"/>
</g>
<path d="M320.642 168.687L319.025 166.316L310.048 167.59L308.801 169.299C308.801 169.299 294.995 175.11 292.97 176.462C290.841 177.882 288.977 179.53 289.821 182.874C290.666 186.218 294.324 187.005 298.503 187.512C302.682 188.019 321.275 186.147 321.275 186.147L320.135 180.587L305.97 179.92C305.97 179.92 317.73 179.295 318.794 178.331C322.531 174.943 320.642 168.686 320.642 168.686L320.642 168.687Z" fill="#1A2E35"/>
<g opacity="0.2">
<path d="M320.638 168.687L319.021 166.316L310.044 167.59L308.797 169.299C308.797 169.299 294.991 175.11 292.966 176.462C290.837 177.882 288.973 179.53 289.817 182.874C290.662 186.218 294.32 187.005 298.499 187.512C302.678 188.019 321.271 186.147 321.271 186.147L320.131 180.587L305.966 179.92C305.966 179.92 317.726 179.295 318.79 178.331C322.527 174.943 320.638 168.686 320.638 168.686L320.638 168.687Z" fill="black"/>
</g>
<path d="M320.642 168.687L319.025 166.316L310.048 167.59L308.801 169.299C308.801 169.299 294.995 175.11 292.97 176.462C290.841 177.882 288.977 179.53 289.821 182.874C290.666 186.218 294.324 187.005 298.503 187.512C302.682 188.019 321.275 186.147 321.275 186.147L320.135 180.587L305.97 179.92C305.97 179.92 317.73 179.295 318.794 178.331C322.531 174.943 320.642 168.686 320.642 168.686L320.642 168.687Z" fill="#483C8E"/>
<path d="M327.217 168.925L325.6 166.555L312.945 168.195L313.468 170.115C313.468 170.115 301.57 175.348 299.544 176.7C297.415 178.121 295.551 179.768 296.395 183.112C297.24 186.456 300.898 187.243 305.077 187.75C309.256 188.257 326.17 186.324 326.17 186.324L325.804 179.234L312.544 180.158C312.544 180.158 324.296 179.524 325.369 178.569C329.239 175.127 328.046 170.485 327.217 168.925H327.217Z" fill="#483C8E"/>
<path d="M299.692 187.586L300.244 186.787C300.244 186.787 303.724 187.452 305.444 185.283C307.164 183.115 307.406 180.841 307.406 180.841C307.406 180.841 323.658 179.917 325.369 178.568C327.08 177.218 330.353 174.399 328.021 166.813C327.948 166.575 309.377 168.508 309.377 168.508L308.801 169.297C308.801 169.297 295.283 174.8 294.16 175.426C293.037 176.051 288.254 177.437 289.819 183.686C290.858 187.833 299.692 187.586 299.692 187.586L299.692 187.586Z" fill="#007CFF"/>
<path d="M299.692 187.586L300.244 186.787C300.244 186.787 303.724 187.452 305.444 185.283C307.164 183.115 307.406 180.841 307.406 180.841C307.406 180.841 323.658 179.917 325.369 178.568C327.08 177.218 330.353 174.399 328.021 166.813C327.948 166.575 309.377 168.508 309.377 168.508L308.801 169.297C308.801 169.297 295.283 174.8 294.16 175.426C293.037 176.051 288.254 177.437 289.819 183.686C290.858 187.833 299.692 187.586 299.692 187.586L299.692 187.586Z" fill="#483C8E"/>
<g opacity="0.2">
<path d="M323.054 179.387L306.059 181.047C306.059 181.047 310.064 181.264 311.904 181.042C313.744 180.821 323.054 179.387 323.054 179.387Z" fill="black"/>
</g>
<path d="M311.976 158.21L311.268 158.129C311.42 157.969 311.54 157.802 311.54 157.672C311.542 157.31 311.156 145.117 309.664 145.708C306.549 146.944 306.74 150.21 306.658 151.652L306.905 162.982C306.588 163.318 303.277 172.79 303.277 172.79L303.604 173.18C303.604 173.18 309.675 169.344 310.377 168.153C311.078 166.961 311.88 164.386 311.976 163.532C312.072 162.678 311.976 158.21 311.976 158.21Z" fill="#007CFF"/>
<path d="M311.976 158.21L311.268 158.129C311.42 157.969 311.54 157.802 311.54 157.672C311.542 157.31 311.156 145.117 309.664 145.708C306.549 146.944 306.74 150.21 306.658 151.652L306.905 162.982C306.588 163.318 303.277 172.79 303.277 172.79L303.604 173.18C303.604 173.18 309.675 169.344 310.377 168.153C311.078 166.961 311.88 164.386 311.976 163.532C312.072 162.678 311.976 158.21 311.976 158.21Z" fill="#FF7274"/>
<path d="M303.766 171.404C303.858 171.343 305.359 170.294 306.653 169.389C307.87 168.538 308.694 167.989 309.082 166.556C309.424 165.777 309.722 164.317 309.956 163.072C310.048 162.58 310.077 162.08 310.042 161.58L309.332 151.512L311.343 162.257L310.23 168.891L303.473 171.58" fill="#BF5657"/>
<path d="M326.207 159.853L322.89 144.958C318.55 143.513 310.28 144.609 308.978 146.236C308.971 146.245 308.961 146.25 308.955 146.26L310.801 161.915C311.215 165.513 309.419 168.197 308.804 169.3C308.034 173.409 320.362 170.614 328.531 170.287C328.019 165.04 326.208 159.853 326.208 159.853L326.207 159.853Z" fill="#007CFF"/>
<path d="M326.207 159.853L322.89 144.958C318.55 143.513 310.28 144.609 308.978 146.236C308.971 146.245 308.961 146.25 308.955 146.26L310.801 161.915C311.215 165.513 309.419 168.197 308.804 169.3C308.034 173.409 320.362 170.614 328.531 170.287C328.019 165.04 326.208 159.853 326.208 159.853L326.207 159.853Z" fill="#FF7274"/>
<path d="M308.172 172.511C308.172 172.511 308.299 171.24 308.81 170.772C309.321 170.304 313.719 168.653 313.719 168.653L315.018 171.579C315.018 171.579 313.791 172.262 313.238 172.177C312.684 172.092 309.067 171.568 308.172 172.511H308.172Z" fill="#FCC0A9"/>
<path d="M329.191 156.265C329.191 156.265 327.436 149.851 326.189 147.68C324.843 145.338 322.492 144.879 322.492 144.879L319.754 150.509L320.875 153.037L323.277 158.454L324.341 161.802L313.41 167.83L314.894 171.803C314.894 171.803 323.216 168.536 327.911 166.011C329.539 165.136 330.721 164.322 330.951 163.719C331.288 162.834 329.674 157.745 329.192 156.265H329.191Z" fill="#007CFF"/>
<path d="M329.191 156.265C329.191 156.265 327.436 149.851 326.189 147.68C324.843 145.338 322.492 144.879 322.492 144.879L319.754 150.509L320.875 153.037L323.277 158.454L324.341 161.802L313.41 167.83L314.894 171.803C314.894 171.803 323.216 168.536 327.911 166.011C329.539 165.136 330.721 164.322 330.951 163.719C331.288 162.834 329.674 157.745 329.192 156.265H329.191Z" fill="#FF7274"/>
<path d="M317.137 170.96L327.883 166.105L328.065 167.045L317.137 170.96Z" fill="#BF5657"/>
<path d="M318.338 145.413C316.525 144.041 316.359 139.767 316.539 137.527L311.867 142.079C312.001 142.323 312.117 142.576 312.216 142.837C312.41 143.3 312.482 143.806 312.424 144.306C312.359 144.718 311.97 145.882 311.97 145.882C311.97 145.882 311.797 147.167 315.141 146.912C316.62 146.958 318.338 145.414 318.338 145.414V145.413Z" fill="#FCC0A9"/>
<path d="M315.787 139.836C316.232 142.41 313.708 143.817 312.419 144.308C312.477 143.808 312.405 143.303 312.211 142.839L315.787 139.836Z" fill="#FC9A73"/>
<path d="M317.884 136.257C316.982 139.252 316.535 140.959 314.592 142.143C311.667 143.924 308.207 141.704 308.169 138.492C308.134 135.6 309.615 131.19 312.959 130.709C316.253 130.236 318.785 133.263 317.884 136.258V136.257Z" fill="#FCC0A9"/>
<path d="M319.133 132.695C319.095 130.923 313.004 127.816 310.625 131.35C310.498 131.539 312.007 132.125 311.865 132.035L316.398 133.007C316.592 133.009 316.908 133.303 316.966 133.906C316.966 133.906 315.741 138.533 316.785 140.192C317.998 139.924 318.494 138.092 319.095 137.072C319.99 135.551 321.169 133.293 319.134 132.695H319.133Z" fill="#0A0A0C"/>
<path d="M318.526 139.071C318.093 139.796 317.354 140.252 316.663 140.41C315.624 140.647 315.508 139.577 315.82 138.639C316.101 137.796 316.605 136.805 317.636 136.986C318.653 137.165 319.021 138.241 318.526 139.071H318.526Z" fill="#FCC0A9"/>
<path d="M274.248 185.483C273.756 185.595 273.336 185.621 273.231 185.091L273.081 184.34C273.041 184.054 273.203 183.823 273.33 183.571C274.292 181.666 272.634 181.174 272.539 180.501C272.416 179.636 275.259 179.802 275.399 179.741L278.474 178.342C278.73 178.222 279.332 178.307 279.449 178.583C279.47 178.632 279.484 178.684 279.49 178.737C279.707 180.273 279.81 180.999 280.08 182.91L280.905 188.755C281.13 190.348 279.182 190.642 278.951 190.005C277.926 187.14 276.796 186.112 275.953 185.24C275.953 185.24 275.005 185.309 274.249 185.482L274.248 185.483Z" fill="#0A0A0C"/>
<path d="M280.903 188.756L280.077 182.911C279.807 181 279.705 180.274 279.488 178.738C279.482 178.685 279.467 178.633 279.447 178.584C279.367 178.397 279.065 178.3 278.798 178.293L278.555 178.332L280.225 190.157C280.657 189.936 281.006 189.482 280.903 188.757V188.756Z" fill="#0A0A0C"/>
<path d="M275.009 185.275C274.975 185.01 274.991 184.742 275.058 184.484C275.076 184.414 274.967 184.384 274.949 184.454C274.88 184.722 274.861 185.001 274.896 185.275C274.9 185.306 274.92 185.332 274.953 185.332C274.98 185.332 275.013 185.306 275.009 185.275V185.275Z" fill="#1A2E35"/>
<g opacity="0.3">
<path d="M274.785 182.428C275.07 182.372 275.37 182.226 275.467 181.953C275.527 181.784 275.498 181.598 275.467 181.42C275.377 180.891 275.286 180.362 275.196 179.832L275.18 179.828C274.413 179.851 272.539 179.886 272.632 180.545C272.705 181.063 273.84 181.459 273.684 182.587C274.083 182.521 274.594 182.466 274.785 182.428Z" fill="black"/>
</g>
<path d="M270.623 168.687L269.005 166.316L260.028 167.59L258.782 169.299C258.782 169.299 244.976 175.11 242.95 176.462C240.821 177.882 238.957 179.53 239.802 182.874C240.646 186.218 244.305 187.005 248.483 187.512C252.663 188.019 271.256 186.147 271.256 186.147L270.115 180.587L255.95 179.92C255.95 179.92 267.711 179.295 268.775 178.331C272.511 174.943 270.622 168.686 270.622 168.686L270.623 168.687Z" fill="#1A2E35"/>
<g opacity="0.2">
<path d="M270.623 168.687L269.005 166.316L260.028 167.59L258.782 169.299C258.782 169.299 244.976 175.11 242.95 176.462C240.821 177.882 238.957 179.53 239.802 182.874C240.646 186.218 244.305 187.005 248.483 187.512C252.663 188.019 271.256 186.147 271.256 186.147L270.115 180.587L255.95 179.92C255.95 179.92 267.711 179.295 268.775 178.331C272.511 174.943 270.622 168.686 270.622 168.686L270.623 168.687Z" fill="black"/>
</g>
<path d="M270.623 168.687L269.005 166.316L260.028 167.59L258.782 169.299C258.782 169.299 244.976 175.11 242.95 176.462C240.821 177.882 238.957 179.53 239.802 182.874C240.646 186.218 244.305 187.005 248.483 187.512C252.663 188.019 271.256 186.147 271.256 186.147L270.115 180.587L255.95 179.92C255.95 179.92 267.711 179.295 268.775 178.331C272.511 174.943 270.622 168.686 270.622 168.686L270.623 168.687Z" fill="#483C8E"/>
<path d="M277.197 168.925L275.58 166.555L262.925 168.195L263.449 170.115C263.449 170.115 251.55 175.348 249.525 176.7C247.395 178.121 245.531 179.768 246.376 183.112C247.221 186.456 250.879 187.243 255.058 187.75C259.237 188.257 276.151 186.324 276.151 186.324L275.785 179.234L262.525 180.158C262.525 180.158 274.276 179.524 275.349 178.569C279.22 175.127 278.026 170.485 277.197 168.925H277.197Z" fill="#483C8E"/>
<path d="M249.672 187.586L250.224 186.787C250.224 186.787 253.704 187.452 255.424 185.283C257.144 183.115 257.386 180.841 257.386 180.841C257.386 180.841 273.639 179.917 275.35 178.568C277.061 177.218 280.334 174.399 278.002 166.813C277.928 166.575 259.358 168.508 259.358 168.508L258.782 169.297C258.782 169.297 245.264 174.8 244.141 175.426C243.018 176.051 238.235 177.437 239.8 183.686C240.839 187.833 249.672 187.586 249.672 187.586L249.672 187.586Z" fill="#007CFF"/>
<path d="M249.672 187.586L250.224 186.787C250.224 186.787 253.704 187.452 255.424 185.283C257.144 183.115 257.386 180.841 257.386 180.841C257.386 180.841 273.639 179.917 275.35 178.568C277.061 177.218 280.334 174.399 278.002 166.813C277.928 166.575 259.358 168.508 259.358 168.508L258.782 169.297C258.782 169.297 245.264 174.8 244.141 175.426C243.018 176.051 238.235 177.437 239.8 183.686C240.839 187.833 249.672 187.586 249.672 187.586L249.672 187.586Z" fill="#4082A3"/>
<g opacity="0.2">
<path d="M273.034 179.387L256.039 181.047C256.039 181.047 260.045 181.264 261.885 181.042C263.725 180.821 273.034 179.387 273.034 179.387Z" fill="black"/>
</g>
<path d="M261.952 158.21L261.244 158.129C261.397 157.969 261.516 157.802 261.517 157.672C261.519 157.31 261.133 145.117 259.641 145.708C256.526 146.944 256.717 150.21 256.635 151.652L256.881 162.982C256.564 163.318 253.254 172.79 253.254 172.79L253.581 173.18C253.581 173.18 259.652 169.344 260.353 168.153C261.055 166.961 261.857 164.386 261.953 163.532C262.049 162.678 261.953 158.21 261.953 158.21H261.952Z" fill="#007CFF"/>
<path d="M261.952 158.21L261.244 158.129C261.397 157.969 261.516 157.802 261.517 157.672C261.519 157.31 261.133 145.117 259.641 145.708C256.526 146.944 256.717 150.21 256.635 151.652L256.881 162.982C256.564 163.318 253.254 172.79 253.254 172.79L253.581 173.18C253.581 173.18 259.652 169.344 260.353 168.153C261.055 166.961 261.857 164.386 261.953 163.532C262.049 162.678 261.953 158.21 261.953 158.21H261.952Z" fill="#4082A3"/>
<path d="M253.743 171.404C253.834 171.343 255.336 170.294 256.63 169.389C257.846 168.538 258.67 167.989 259.058 166.556C259.4 165.777 259.699 164.317 259.932 163.072C260.025 162.58 260.053 162.08 260.018 161.58L259.309 151.512L261.32 162.257L260.207 168.891L253.449 171.58" fill="#30627A"/>
<path d="M276.18 159.853L272.863 144.958C268.522 143.513 260.253 144.609 258.951 146.236C258.944 146.245 258.934 146.25 258.927 146.26L260.774 161.915C261.188 165.513 259.391 168.197 258.777 169.3C258.007 173.409 270.335 170.614 278.504 170.287C277.991 165.04 276.18 159.853 276.18 159.853L276.18 159.853Z" fill="#007CFF"/>
<path d="M276.18 159.853L272.863 144.958C268.522 143.513 260.253 144.609 258.951 146.236C258.944 146.245 258.934 146.25 258.927 146.26L260.774 161.915C261.188 165.513 259.391 168.197 258.777 169.3C258.007 173.409 270.335 170.614 278.504 170.287C277.991 165.04 276.18 159.853 276.18 159.853L276.18 159.853Z" fill="#4082A3"/>
<path d="M258.148 172.511C258.148 172.511 258.275 171.24 258.786 170.772C259.297 170.304 263.695 168.653 263.695 168.653L264.994 171.579C264.994 171.579 263.768 172.262 263.214 172.177C262.661 172.092 259.044 171.568 258.149 172.511H258.148Z" fill="#FCC0A9"/>
<path d="M279.168 156.265C279.168 156.265 277.412 149.851 276.166 147.68C274.82 145.338 272.469 144.879 272.469 144.879L269.73 150.509L270.851 153.037L273.254 158.454L274.317 161.802L263.387 167.83L264.87 171.803C264.87 171.803 273.192 168.536 277.887 166.011C279.516 165.136 280.698 164.322 280.927 163.719C281.265 162.834 279.651 157.745 279.168 156.265H279.168Z" fill="#007CFF"/>
<path d="M279.168 156.265C279.168 156.265 277.412 149.851 276.166 147.68C274.82 145.338 272.469 144.879 272.469 144.879L269.73 150.509L270.851 153.037L273.254 158.454L274.317 161.802L263.387 167.83L264.87 171.803C264.87 171.803 273.192 168.536 277.887 166.011C279.516 165.136 280.698 164.322 280.927 163.719C281.265 162.834 279.651 157.745 279.168 156.265H279.168Z" fill="#4082A3"/>
<path d="M267.113 170.96L277.859 166.105L278.042 167.045L267.113 170.96Z" fill="#30627A"/>
<path d="M268.318 145.413C266.506 144.041 266.339 139.767 266.52 137.527L261.848 142.079C261.981 142.323 262.097 142.576 262.196 142.837C262.391 143.3 262.462 143.806 262.404 144.306C262.339 144.718 261.95 145.882 261.95 145.882C261.95 145.882 261.778 147.167 265.121 146.912C266.6 146.958 268.318 145.414 268.318 145.414V145.413Z" fill="#FCC0A9"/>
<path d="M265.767 139.836C266.213 142.41 263.688 143.817 262.399 144.308C262.458 143.808 262.386 143.303 262.191 142.839L265.767 139.836Z" fill="#FC9A73"/>
<path d="M267.864 136.257C266.962 139.252 266.516 140.959 264.572 142.143C261.648 143.924 258.187 141.704 258.149 138.492C258.115 135.6 259.595 131.19 262.939 130.709C266.234 130.236 268.765 133.263 267.864 136.258V136.257Z" fill="#FCC0A9"/>
<path d="M269.114 132.695C269.076 130.923 262.984 127.816 260.605 131.35C260.478 131.539 261.988 132.125 261.845 132.035L266.378 133.007C266.573 133.009 266.888 133.303 266.947 133.906C266.947 133.906 265.722 138.533 266.766 140.192C267.979 139.924 268.474 138.092 269.075 137.072C269.971 135.551 271.149 133.293 269.114 132.695H269.114Z" fill="#0A0A0C"/>
<path d="M268.51 139.071C268.077 139.796 267.338 140.252 266.648 140.41C265.609 140.647 265.492 139.577 265.804 138.639C266.085 137.796 266.589 136.805 267.621 136.986C268.637 137.165 269.005 138.241 268.51 139.071H268.51Z" fill="#FCC0A9"/>
<path d="M319.06 136.347C317.064 133.432 314.377 131.824 311 131.523L311.339 130.882C312.584 128.527 315.389 127.643 317.608 128.96C317.634 128.976 317.661 128.992 317.688 129.008C319.897 130.342 320.644 133.352 319.399 135.707L319.06 136.348V136.347Z" fill="#FF7274"/>
<rect x="22.5" y="1.5" width="45" height="30" rx="8.5" fill="#FB7831" stroke="white" stroke-width="3"/>
<path d="M38.8476 25.2898C37.501 25.2841 36.3504 24.929 35.3959 24.2244C34.4413 23.5199 33.7112 22.4943 33.2055 21.1477C32.6998 19.8011 32.447 18.179 32.447 16.2812C32.447 14.3892 32.6998 12.7727 33.2055 11.4318C33.7169 10.0909 34.4498 9.06818 35.4044 8.36364C36.3646 7.65909 37.5123 7.30682 38.8476 7.30682C40.1828 7.30682 41.3277 7.66193 42.2822 8.37216C43.2368 9.0767 43.9669 10.0994 44.4726 11.4403C44.9839 12.7756 45.2396 14.3892 45.2396 16.2812C45.2396 18.1847 44.9868 19.8097 44.4811 21.1562C43.9754 22.4972 43.2453 23.5227 42.2907 24.233C41.3362 24.9375 40.1885 25.2898 38.8476 25.2898ZM38.8476 23.0142C40.0294 23.0142 40.9527 22.4375 41.6174 21.2841C42.2879 20.1307 42.6231 18.4631 42.6231 16.2812C42.6231 14.8324 42.4697 13.608 42.1629 12.608C41.8618 11.6023 41.4271 10.8409 40.8589 10.3239C40.2964 9.80114 39.626 9.53977 38.8476 9.53977C37.6714 9.53977 36.7481 10.1193 36.0777 11.2784C35.4072 12.4375 35.0691 14.1051 35.0635 16.2812C35.0635 17.7358 35.214 18.9659 35.5152 19.9716C35.822 20.9716 36.2566 21.7301 36.8191 22.2472C37.3816 22.7585 38.0578 23.0142 38.8476 23.0142ZM52.2408 25.2386C51.0192 25.2386 49.9396 25.0284 49.0021 24.608C48.0703 24.1875 47.3402 23.608 46.8118 22.8693C46.2834 22.1307 46.022 21.2898 46.0277 20.3466C46.022 19.608 46.1726 18.929 46.4794 18.3097C46.7919 17.6847 47.2152 17.1648 47.7493 16.75C48.2834 16.3295 48.88 16.0625 49.5391 15.9489V15.8466C48.6697 15.6364 47.9737 15.1705 47.451 14.4489C46.9283 13.7273 46.6697 12.8977 46.6754 11.9602C46.6697 11.0682 46.9055 10.2727 47.3828 9.57386C47.8658 8.86932 48.5277 8.31534 49.3686 7.91193C50.2095 7.50852 51.1669 7.30682 52.2408 7.30682C53.3033 7.30682 54.2521 7.51136 55.0874 7.92045C55.9283 8.32386 56.5902 8.87784 57.0732 9.58239C57.5561 10.2812 57.8004 11.0739 57.8061 11.9602C57.8004 12.8977 57.5334 13.7273 57.005 14.4489C56.4766 15.1705 55.7891 15.6364 54.9425 15.8466V15.9489C55.5959 16.0625 56.1839 16.3295 56.7067 16.75C57.2351 17.1648 57.6555 17.6847 57.968 18.3097C58.2862 18.929 58.4482 19.608 58.4538 20.3466C58.4482 21.2898 58.1811 22.1307 57.6527 22.8693C57.1243 23.608 56.3913 24.1875 55.4538 24.608C54.522 25.0284 53.451 25.2386 52.2408 25.2386ZM52.2408 23.0824C52.9624 23.0824 53.5874 22.9631 54.1158 22.7244C54.6442 22.4801 55.0533 22.142 55.343 21.7102C55.6328 21.2727 55.7805 20.7614 55.7862 20.1761C55.7805 19.5682 55.6214 19.0312 55.3089 18.5653C55.0021 18.0994 54.5845 17.733 54.0561 17.4659C53.5277 17.1989 52.9226 17.0653 52.2408 17.0653C51.5533 17.0653 50.9425 17.1989 50.4084 17.4659C49.8743 17.733 49.4538 18.0994 49.147 18.5653C48.8402 19.0312 48.6896 19.5682 48.6953 20.1761C48.6896 20.7614 48.8288 21.2727 49.1129 21.7102C49.4027 22.142 49.8146 22.4801 50.3487 22.7244C50.8828 22.9631 51.5135 23.0824 52.2408 23.0824ZM52.2408 14.9602C52.8203 14.9602 53.3345 14.8437 53.7834 14.6108C54.2322 14.3778 54.5845 14.054 54.8402 13.6392C55.1016 13.2244 55.2351 12.7386 55.2408 12.1818C55.2351 11.6364 55.1044 11.1591 54.8487 10.75C54.5987 10.3409 54.2493 10.0256 53.8004 9.80398C53.3516 9.5767 52.8317 9.46307 52.2408 9.46307C51.6385 9.46307 51.1101 9.5767 50.6555 9.80398C50.2067 10.0256 49.8572 10.3409 49.6072 10.75C49.3572 11.1591 49.2351 11.6364 49.2408 12.1818C49.2351 12.7386 49.3601 13.2244 49.6158 13.6392C49.8714 14.054 50.2237 14.3778 50.6726 14.6108C51.1271 14.8437 51.6499 14.9602 52.2408 14.9602Z" fill="white"/>
</svg>
