<svg width="70" height="58" viewBox="0 0 70 58" fill="none" xmlns="http://www.w3.org/2000/svg">
<path d="M69.2063 8.69647L15.5866 28.1196L14.4088 29.4095C19.6086 28.6188 19.3312 30.7574 22.3461 31.0729C19.2672 32.846 16.438 37.4906 13.3484 38.1795C10.8327 38.7406 6.1365 39.8788 4.48075 40.2822L0 45.1824L1.02844 47.0015L68.5363 26.0229L70 9.57308L69.2041 8.69647H69.2063Z" fill="#20685D"/>
<path d="M56.7415 46.1128C54.5203 44.3396 55.1071 39.0001 53.6049 36.2265C56.5985 37.0991 58.9264 35.3799 63.6354 38.9202L63.7912 35.921L17.9382 3.53857L1.22496 14.6169L0.34375 15.7172L61.3737 57.9999L62.6966 57.0514L62.9953 51.2886C61.7941 50.2782 58.5316 47.5405 56.7415 46.1128Z" fill="#7DC193"/>
<path d="M63.6352 38.9199L62.4916 39.7526C62.4916 39.7526 61.1004 38.3648 59.0179 37.8137C56.9354 37.2625 56.0457 38.1471 53.2036 37.1148C52.3224 36.2442 53.0329 35.4175 53.0329 35.4175L59.4532 35.6232L63.6352 38.9199Z" fill="#381D0B"/>
<path d="M56.7411 46.1125C54.5199 44.3393 55.1067 38.9999 53.6046 36.2263C56.5982 37.0989 58.926 35.3796 63.6351 38.92L63.7908 35.9208L15.2728 2.35419L1.22461 14.6167L62.6941 57.0531L62.9928 51.2903C61.7916 50.2799 58.5292 47.5423 56.739 46.1145L56.7411 46.1125Z" fill="#0E4B42"/>
<path d="M39.8237 19.3392L18.9946 26.8832L33.5144 36.9052L55.389 30.108L39.8237 19.3392Z" fill="#7DC193"/>
<path d="M14.4089 29.4074L15.0468 30.7693C15.0468 30.7693 16.5916 29.9725 18.1343 30.7693C19.677 31.566 20.9764 32.7341 23.4024 32.1391C23.8931 30.7633 23.4024 29.703 23.4024 29.703C23.4024 29.703 17.9124 28.1255 17.7908 28.1255C17.6692 28.1255 14.4067 29.4094 14.4067 29.4094L14.4089 29.4074Z" fill="#381D0B"/>
<path d="M15.5866 28.1174L14.4088 29.4073C19.6086 28.6166 19.3312 30.7552 22.3461 31.0707C19.2672 32.8438 16.438 37.4885 13.3484 38.1774C10.8327 38.7385 6.1365 39.8767 4.48075 40.28L0 45.1822L67.4076 24.9424L69.2041 8.69629L15.5845 28.1194L15.5866 28.1174Z" fill="#0E4B42"/>
<path d="M39.9432 18.3987L15.2734 26.0605L29.9468 36.2264L31.5471 35.7072L39.9432 18.3987Z" fill="#7DC193"/>
<path d="M39.9424 18.3987L17.001 25.5254L31.5464 35.7072L39.9424 18.3987Z" fill="#7DC193"/>
<path d="M2.61816 14.1977C2.61816 14.1977 27.7616 32.3627 28.694 33.0037C29.6243 33.6467 31.5361 34.7469 34.5275 33.8743C37.5168 33.0037 66.4475 24.2996 66.4475 24.2996L68.5343 7.91366L68.3465 7.47835L39.674 15.7572L17.9103 0.802979L2.61816 13.7144V14.1957V14.1977Z" fill="#381D0B"/>
<path d="M2.61816 13.7142C2.61816 13.7142 27.7616 31.8793 28.694 32.5203C29.6243 33.1632 31.5361 34.2635 34.5275 33.3909C37.5168 32.5203 66.0421 23.9419 66.0421 23.9419L68.3465 7.47415L39.674 15.2717L17.9103 0.321533L2.61816 13.7142Z" fill="#844914"/>
<path d="M19.1372 0L3.40332 13.5764L28.5467 31.7415C28.5467 31.7415 29.9187 31.1444 30.9002 31.1444C31.8817 31.1444 33.9876 32.9336 33.9876 32.9336L64.8173 23.5305L67.269 7.24646L64.6232 6.14622L40.361 14.3112L20.0674 0H19.1372Z" fill="#ECB67B"/>
<path d="M65.1156 6.35205C64.8788 7.68992 64.6206 9.0238 64.3582 10.3557L63.5495 14.3513L62.6981 18.339L62.2565 20.3298L61.7935 22.3166L62.1605 20.3118L62.5488 18.311L63.3575 14.3154L64.2109 10.3297C64.5032 9.00183 64.7977 7.67594 65.1156 6.35205Z" fill="#E2A05D"/>
<path d="M65.4921 6.57983C65.283 7.89774 65.0547 9.21164 64.8221 10.5256L64.101 14.4633L63.335 18.393L62.936 20.3559L62.5156 22.3148L62.84 20.3399L63.1856 18.3691L63.9089 14.4313L64.6749 10.5016C64.9395 9.19367 65.2062 7.88376 65.4943 6.57983H65.4921Z" fill="#E2A05D"/>
<path d="M65.9828 6.78516C65.7844 8.10506 65.5646 9.42096 65.3427 10.7369L64.6514 14.6786L63.9153 18.6143L63.5312 20.5792L63.1279 22.5421L63.4373 20.5652L63.768 18.5924L64.4594 14.6506L65.1955 10.7149C65.4494 9.40499 65.7054 8.09507 65.9828 6.78715V6.78516Z" fill="#E2A05D"/>
<path d="M66.4587 6.97882C66.271 8.29872 66.064 9.61662 65.8528 10.9325L65.1956 14.8782L64.4936 18.818L64.1266 20.7848L63.7383 22.7497L64.0306 20.7709L64.3442 18.796L65.0014 14.8503L65.7034 10.9126C65.9445 9.60065 66.192 8.28874 66.4566 6.98082L66.4587 6.97882Z" fill="#E2A05D"/>
<path d="M66.9301 7.18665C66.753 8.52252 66.5546 9.85639 66.3519 11.1883L65.7225 15.1819L65.0482 19.1696L64.6961 21.1604L64.3228 23.1492L64.6023 21.1464L64.901 19.1476L65.5304 15.154L66.2047 11.1663C66.4372 9.83842 66.6741 8.51054 66.9301 7.18665Z" fill="#E2A05D"/>
<path d="M5.95166 12.8895C5.95166 12.8895 11.6379 16.6974 16.4409 19.2194C21.2438 21.7414 30.2629 27.9795 30.8988 31.1444C33.7899 28.3928 37.4663 24.8604 44.3773 24.1715C51.2883 23.4826 59.8658 22.6579 61.0414 22.015C61.6303 19.2633 64.6196 6.14422 64.6196 6.14422C64.6196 6.14422 61.1887 6.78719 57.5123 7.01483C53.836 7.24447 42.4164 9.49089 40.3574 14.3072C38.691 10.4534 36.2394 8.16101 31.4855 6.14222C26.7338 4.12743 20.0682 0 20.0682 0L5.95166 12.8895Z" fill="#FFE6BD"/>
<path d="M30.9009 31.144C33.792 28.3924 37.4684 24.86 44.3794 24.1711C51.2904 23.4822 59.8679 22.6575 61.0435 22.0145C61.6324 19.2629 64.6217 6.1438 64.6217 6.1438C64.6217 6.1438 61.1908 6.78678 57.5144 7.01441C53.8381 7.24405 42.4185 9.49047 40.3595 14.3068L30.9009 31.14V31.144Z" fill="#FFE9D2"/>
<path d="M49.3786 24.2658C36.3077 26.7119 30.9009 31.1468 30.9009 31.1468C31.8802 31.1468 33.9883 32.936 33.9883 32.936L64.818 23.5329C64.818 23.5329 62.2533 22.4926 61.0435 22.0193C59.5414 22.8301 56.7975 22.84 49.3786 24.2678V24.2658Z" fill="#FFC892"/>
<path d="M23.0077 22.2922C18.8406 19.6325 5.95095 12.8892 5.95095 12.8892L3.40332 13.5781L28.5467 31.7432C28.5467 31.7432 29.9187 31.1462 30.9002 31.1462C31.3909 28.3027 27.1748 24.954 23.0098 22.2942L23.0077 22.2922Z" fill="#FFC892"/>
<path d="M23.0084 22.2924C18.8413 19.6327 5.95166 12.8894 5.95166 12.8894C5.95166 12.8894 22.5667 23.3008 24.6748 24.6327C26.7829 25.9626 30.7516 29.3572 30.8988 31.1463C31.3895 28.3029 27.1734 24.9542 23.0084 22.2944V22.2924Z" fill="#ECB67B"/>
<path d="M5.70801 13.4866C5.70801 13.4866 27.126 27.6601 30.9005 31.1465C28.1566 27.706 12.619 17.2626 5.70801 13.4866Z" fill="#ECB67B"/>
<path d="M5.00391 13.4866L8.1255 15.6192L11.2343 17.7678L17.4305 22.0889L23.6012 26.444L26.6779 28.6345L29.7398 30.839L26.6203 28.7064L23.5115 26.5578L17.3132 22.2367L11.1425 17.8796L8.06789 15.6911L5.00391 13.4866Z" fill="#ECB67B"/>
<path d="M31.8804 31.1444C33.0176 30.5673 34.1741 30.0261 35.3327 29.487C36.4955 28.9578 37.6669 28.4447 38.849 27.9494C39.44 27.7018 40.0332 27.4582 40.6328 27.2306C41.2302 26.999 41.8319 26.7733 42.4507 26.5756C43.6861 26.1883 44.9428 25.8827 46.1996 25.5972C47.4627 25.3276 48.728 25.074 49.9954 24.8364C51.2628 24.5988 52.5302 24.3592 53.804 24.1455C55.0757 23.9259 56.3453 23.7062 57.6127 23.4746C58.8801 23.2429 60.1518 23.0233 61.3851 22.6619C60.7834 22.8835 60.1624 23.0592 59.5351 23.211C58.91 23.3707 58.2805 23.5085 57.6511 23.6503C56.3901 23.9199 55.1248 24.1695 53.8617 24.4231C51.3332 24.9243 48.7963 25.3895 46.2892 25.9546C45.0346 26.2282 43.7821 26.5237 42.5638 26.8931C41.9578 27.0808 41.3561 27.3005 40.7587 27.5261L38.9664 28.211C37.7736 28.6743 36.5916 29.1575 35.4116 29.6527C34.2274 30.138 33.056 30.6452 31.8804 31.1484V31.1444Z" fill="#ECB67B"/>
<path d="M32.884 31.3975C35.199 30.4131 37.5589 29.5245 39.955 28.7258C41.152 28.3244 42.3597 27.949 43.578 27.6055C44.184 27.4278 44.7985 27.2721 45.4109 27.1083C46.0254 26.9566 46.642 26.8028 47.2586 26.661C49.7252 26.092 52.1853 25.4929 54.6412 24.8859C55.8702 24.5844 57.0971 24.2748 58.3218 23.9554C58.9342 23.7976 59.5466 23.6399 60.1568 23.4721C60.767 23.3044 61.3752 23.1367 61.9726 22.933C59.585 23.7517 57.127 24.3747 54.6818 25.0217C52.2323 25.6566 49.77 26.2537 47.3056 26.8388C44.8348 27.3899 42.4066 28.0868 40.0041 28.8576C38.8028 29.2409 37.608 29.6483 36.4216 30.0736C35.2332 30.4929 34.0511 30.9303 32.8818 31.3975H32.884Z" fill="#ECB67B"/>
<path d="M30.8385 27.3322L30.6401 27.0008C29.9744 25.9245 26.8571 23.3027 23.68 21.4057C20.6438 19.5926 11.6801 14.1213 11.5884 14.0654L11.375 13.9256L22.8159 2.83325L22.9972 2.94907C23.074 2.991 30.6806 7.08448 33.655 8.89959C36.64 10.7227 38.9508 13.5402 38.9722 13.5682L39.1258 13.8098L39.0938 13.8617C39.049 13.9356 34.5426 21.3917 30.9239 27.1945L30.8385 27.3302V27.3322ZM11.7953 13.9735C12.7896 14.5806 20.9233 19.5407 23.7845 21.2519C26.6608 22.9692 29.8208 25.4952 30.7212 26.7771C34.1628 21.2519 38.3662 14.307 38.7759 13.6301C38.4601 13.2527 36.2901 10.7267 33.5462 9.05135C30.7254 7.33009 23.7227 3.55011 22.9652 3.14276L11.7953 13.9735Z" fill="#E2A05D"/>
<path d="M34.1542 27.2504L33.6934 27.6877L41.3917 13.706L41.4003 13.696C41.4259 13.67 44.0332 11.1141 47.0588 10.0797C51.627 8.62405 59.4214 7.89521 59.5003 7.88921L60.0146 7.83929L59.9698 7.97108C59.9698 7.97108 56.8823 17.2363 55.6576 20.9065L55.6384 20.9664L55.2031 21.0063C38.0013 22.0906 34.1905 27.1985 34.1542 27.2504ZM41.556 13.8138L34.5063 26.6174C36.0084 25.2596 41.2018 21.7172 55.1263 20.8286C56.2763 17.3821 58.9947 9.22509 59.3745 8.0869C58.2756 8.19473 51.324 8.91758 47.1271 10.2554C44.2381 11.2439 41.7288 13.6461 41.556 13.8158V13.8138Z" fill="#E2A05D"/>
<path d="M25.0955 55.2019L25.0039 55.1919C25.7494 48.854 25.0124 45.7569 25.0039 45.7269L25.0955 45.707C25.104 45.7369 25.8453 48.846 25.0955 55.2019Z" fill="#992B2B"/>
<path d="M25.3753 55.1981L25.2837 55.1881C26.0292 48.8502 25.2922 45.7532 25.2837 45.7232L25.3753 45.7032C25.3838 45.7332 26.1251 48.8422 25.3753 55.1981Z" fill="#992B2B"/>
<path d="M24.5799 55.1344L24.4883 55.1244C25.2338 48.7845 24.5543 45.6096 24.5458 45.5796L24.6374 45.5616C24.6438 45.5936 25.3275 48.7805 24.5799 55.1344Z" fill="#992B2B"/>
<path d="M22.0988 54.6515L22.0049 54.6435C22.0134 54.5736 22.7751 47.6187 24.6187 45.56L24.6891 45.6159C22.8626 47.6547 22.1052 54.5816 22.0966 54.6515H22.0988Z" fill="#992B2B"/>
<path d="M22.254 54.6515L22.1602 54.6435C22.1666 54.5736 22.9304 47.6187 24.7739 45.56L24.8443 45.6159C23.0179 47.6547 22.2604 54.5816 22.2519 54.6515H22.254Z" fill="#992B2B"/>
<path d="M22.5421 54.8907L22.4482 54.8827C23.1502 47.9797 24.8828 45.5057 24.8999 45.4817L24.9767 45.5296C24.9596 45.5536 23.242 48.0137 22.54 54.8907H22.5421Z" fill="#992B2B"/>
<path d="M22.7902 54.9732L22.6963 54.9652C23.3983 48.0622 25.1308 45.5881 25.1479 45.5641L25.2247 45.6121C25.2076 45.636 23.49 48.0961 22.788 54.9732H22.7902Z" fill="#992B2B"/>
<path d="M24.3641 55.1879L24.2725 55.1759C24.2831 55.102 25.3801 47.7318 24.6708 45.715L24.7603 45.687C25.476 47.7218 24.4109 54.8824 24.3662 55.1859L24.3641 55.1879Z" fill="#992B2B"/>
<path d="M24.742 55.2684L24.6504 55.2584C24.661 55.1845 25.6025 47.7903 24.8506 45.7915L24.938 45.7615C25.6963 47.7803 24.7825 54.9629 24.742 55.2684Z" fill="#992B2B"/>
<path d="M23.0224 54.883L22.9307 54.871C22.9819 54.5375 24.1831 46.674 24.7635 45.7695L24.8446 45.8134C24.2749 46.702 23.0352 54.8011 23.0245 54.881L23.0224 54.883Z" fill="#992B2B"/>
<path d="M24.0039 55.0365L23.9121 55.0226C23.9228 54.9626 24.9534 49.068 24.8595 45.931H24.9534C25.0472 49.074 24.0145 54.9786 24.0039 55.0365Z" fill="#992B2B"/>
<path d="M23.8525 55.0349L23.7607 55.0209C23.7714 54.961 24.802 49.0664 24.7081 45.9294H24.802C24.8959 49.0724 23.8632 54.977 23.8525 55.0349Z" fill="#992B2B"/>
<path d="M23.5558 55.0182L23.4619 55.0102C23.814 51.8492 24.9086 45.4015 24.9192 45.3376L25.011 45.3516C25.0003 45.4155 23.9057 51.8612 23.5537 55.0202L23.5558 55.0182Z" fill="#992B2B"/>
<path d="M23.4 55.0182L23.3062 55.0102C23.6582 51.8492 24.7528 45.4015 24.7635 45.3376L24.8552 45.3516C24.8445 45.4155 23.75 51.8612 23.3979 55.0202L23.4 55.0182Z" fill="#992B2B"/>
<path d="M25.2498 55.2039L25.1519 55.1919C25.9762 48.854 25.1604 45.7589 25.1519 45.7289L25.2477 45.707C25.2562 45.7369 26.0742 48.846 25.2477 55.2039H25.2498Z" fill="#BC4646"/>
<path d="M24.6776 55.1343L24.5796 55.1223C25.4039 48.7844 24.5881 45.6894 24.5796 45.6594L24.6754 45.6375C24.684 45.6674 25.5019 48.7764 24.6754 55.1343H24.6776Z" fill="#BC4646"/>
<path d="M21.938 54.653L21.8398 54.643C21.8484 54.5731 22.6912 47.6162 24.7289 45.5575L24.8014 45.6194C22.7851 47.6562 21.9465 54.5831 21.938 54.653Z" fill="#BC4646"/>
<path d="M22.1089 54.653L22.0107 54.643C22.0193 54.5731 22.8621 47.6162 24.8998 45.5575L24.9723 45.6194C22.956 47.6562 22.1174 54.5831 22.1089 54.653Z" fill="#BC4646"/>
<path d="M22.3823 54.8747L22.2842 54.8647C23.0608 47.9597 24.9726 45.4856 24.9918 45.4617L25.0708 45.5156C25.0516 45.5395 23.1547 47.9996 22.3802 54.8747H22.3823Z" fill="#BC4646"/>
<path d="M22.6191 54.9546L22.521 54.9447C23.2977 48.0396 25.2094 45.5656 25.2286 45.5416L25.3076 45.5955C25.2884 45.6195 23.3915 48.0796 22.617 54.9546H22.6191Z" fill="#BC4646"/>
<path d="M24.5114 55.2045L24.4155 55.1905C24.4283 55.1166 25.6403 47.7483 24.8565 45.7335L24.948 45.7016C25.7404 47.7384 24.5625 54.901 24.5114 55.2045Z" fill="#992B2B"/>
<path d="M24.8597 55.2679L24.7617 55.2559C24.7724 55.182 25.8119 47.7898 24.9832 45.793L25.0748 45.759C25.9141 47.7798 24.9023 54.9624 24.8597 55.2679Z" fill="#BC4646"/>
<path d="M22.8426 54.8548L22.7466 54.8409C22.8021 54.5074 24.1313 46.6419 24.7715 45.7374L24.8525 45.7873C24.2231 46.6739 22.8554 54.773 22.8426 54.8529V54.8548Z" fill="#BC4646"/>
<path d="M24.1404 55.0711L24.0444 55.0552C24.0551 54.9953 25.1945 49.1006 25.0921 45.9656H25.1902C25.2926 49.1086 24.1533 55.0132 24.1426 55.0731L24.1404 55.0711Z" fill="#BC4646"/>
<path d="M23.6243 55.0248L23.5283 55.0068C23.5411 54.9449 24.8917 48.8107 24.7893 45.6736H24.8875C24.9899 48.8166 23.6371 54.9629 23.6243 55.0248Z" fill="#BC4646"/>
<path d="M23.5474 55.0189L23.4492 55.0089C23.8376 51.8479 25.0474 45.4002 25.058 45.3363L25.154 45.3523C25.1412 45.4162 23.9336 51.8619 23.5452 55.0209L23.5474 55.0189Z" fill="#BC4646"/>
<path d="M23.2056 55.0189L23.1074 55.0089C23.4958 51.8479 24.7056 45.4002 24.7162 45.3363L24.8122 45.3523C24.7994 45.4162 23.5918 51.8619 23.2034 55.0209L23.2056 55.0189Z" fill="#BC4646"/>
<g style="mix-blend-mode:multiply">
<path d="M28.854 10.0603C29.1698 9.95246 29.4024 9.72282 29.5133 9.44726C29.5218 9.53312 29.5389 9.62098 29.5709 9.70685C29.7757 10.256 30.4095 10.5415 30.9834 10.3458C31.216 10.266 31.4038 10.1202 31.5318 9.93648C31.4998 10.1122 31.5104 10.2979 31.5787 10.4756C31.7836 11.0247 32.4173 11.3103 32.9912 11.1146C33.0211 11.1046 33.051 11.0926 33.0808 11.0787C33.0808 11.1925 33.1022 11.3063 33.1448 11.4201C33.3497 11.9692 33.9834 12.2548 34.5574 12.0591C34.6299 12.0351 34.6982 12.0032 34.7622 11.9653C34.5936 12.2268 34.5467 12.5563 34.664 12.8698C34.8582 13.389 35.4343 13.6725 35.9848 13.5348C35.7266 13.8123 35.6306 14.2137 35.7714 14.5891C35.9763 15.1382 36.61 15.4237 37.1839 15.2281C37.76 15.0324 38.0587 14.4293 37.8539 13.8802C37.6597 13.361 37.0836 13.0775 36.5332 13.2153C36.7913 12.9377 36.8873 12.5363 36.7465 12.1629C36.5417 11.6138 35.908 11.3283 35.334 11.524C35.2615 11.5479 35.1932 11.5799 35.1292 11.6178C35.2977 11.3562 35.3447 11.0267 35.2273 10.7132C35.0225 10.1641 34.3888 9.87857 33.8148 10.0743C33.785 10.0842 33.7551 10.0962 33.7252 10.1102C33.7252 9.99639 33.7039 9.88257 33.6612 9.76875C33.4564 9.21962 32.8227 8.93408 32.2487 9.12977C32.0161 9.20964 31.8284 9.35541 31.7003 9.53911C31.7323 9.36339 31.7217 9.17769 31.6534 8.99997C31.4486 8.45085 30.8149 8.1653 30.2409 8.36099C29.9251 8.46882 29.6925 8.69845 29.5816 8.97401C29.573 8.88815 29.556 8.80029 29.524 8.71443C29.3191 8.1653 28.6854 7.87975 28.1115 8.07544C27.5354 8.27113 27.2367 8.87417 27.4415 9.4233C27.6463 9.97242 28.28 10.258 28.854 10.0623V10.0603Z" fill="#FFE6BD"/>
<path d="M24.6509 11.0387C25.2227 10.845 25.5214 10.248 25.3251 9.70282C25.5918 10.1222 26.1381 10.3198 26.6416 10.1501C27.2177 9.95442 27.5164 9.35138 27.3116 8.80226C27.1067 8.25313 26.473 7.96758 25.8991 8.16327C25.3272 8.35696 25.0285 8.95401 25.2248 9.49915C24.9581 9.07981 24.4119 8.88213 23.9083 9.05186C23.3322 9.24755 23.0335 9.85059 23.2384 10.3997C23.4432 10.9488 24.0769 11.2344 24.6509 11.0387Z" fill="#FFE6BD"/>
<path d="M30.6244 28.235C30.5027 27.9115 30.2339 27.6819 29.916 27.5861C30.4281 27.3584 30.6862 26.7933 30.4921 26.2761C30.3321 25.8488 29.9117 25.5812 29.4615 25.5773C29.7239 25.2977 29.8221 24.8943 29.6813 24.5169C29.4892 24.0058 28.9259 23.7222 28.384 23.846C28.5782 23.5764 28.64 23.225 28.5163 22.8915C28.3328 22.4003 27.8058 22.1208 27.283 22.2086C27.3278 22.0209 27.3193 21.8192 27.2467 21.6255C27.0462 21.0924 26.4423 20.8088 25.8812 20.9726C25.9302 20.7789 25.9238 20.5712 25.8492 20.3695C25.6571 19.8544 25.0874 19.5708 24.5433 19.7006C24.5903 19.5089 24.5839 19.3032 24.5092 19.1036C24.3364 18.6403 23.8563 18.3647 23.3655 18.4087C23.4829 18.167 23.5042 17.8835 23.404 17.6119C23.2589 17.2265 22.9025 16.971 22.5057 16.921C22.6401 16.6714 22.6721 16.3719 22.5654 16.0864C22.4737 15.8408 22.2966 15.6491 22.0768 15.5273C22.4459 15.2557 22.6102 14.7784 22.4438 14.3371C22.3862 14.1834 22.2944 14.0516 22.1814 13.9438C22.719 13.7281 22.9943 13.149 22.7959 12.6179C22.7809 12.5799 22.766 12.544 22.7468 12.5101C22.8279 12.5001 22.9068 12.4841 22.9879 12.4561C23.564 12.2605 23.8627 11.6574 23.6579 11.1083C23.453 10.5592 22.8193 10.2736 22.2454 10.4693C21.6693 10.665 21.3705 11.268 21.5754 11.8172C21.5903 11.8551 21.6053 11.891 21.6245 11.925C21.5434 11.935 21.4644 11.9509 21.3834 11.9789C20.8073 12.1746 20.5085 12.7776 20.7134 13.3268C20.771 13.4805 20.8627 13.6123 20.9758 13.7201C20.4381 13.9358 20.1629 14.5149 20.3613 15.046C20.4531 15.2916 20.6302 15.4833 20.8499 15.6031C20.4808 15.8747 20.3165 16.3519 20.4829 16.7932C20.628 17.1786 20.9843 17.4342 21.3812 17.4841C21.2468 17.7337 21.2148 18.0333 21.3215 18.3188C21.4943 18.7821 21.9744 19.0576 22.4651 19.0137C22.3478 19.2553 22.3264 19.5389 22.4267 19.8104C22.6188 20.3256 23.1885 20.6092 23.7325 20.4794C23.6856 20.6711 23.692 20.8767 23.7667 21.0764C23.9672 21.6096 24.5711 21.8931 25.1322 21.7294C25.0832 21.9231 25.0896 22.1307 25.1643 22.3324C25.3477 22.8236 25.8748 23.1032 26.3975 23.0153C26.3527 23.203 26.3613 23.4047 26.4338 23.5984C26.6258 24.1096 27.1891 24.3931 27.7311 24.2693C27.5369 24.5389 27.475 24.8903 27.5988 25.2238C27.7588 25.6511 28.1792 25.9187 28.6294 25.9227C28.3669 26.2023 28.2688 26.6056 28.4096 26.983C28.5312 27.3065 28.8001 27.5361 29.118 27.632C28.6059 27.8596 28.3477 28.4247 28.5419 28.9419C28.6187 29.1476 28.7553 29.3173 28.9281 29.4371C28.7595 29.4151 28.5846 29.4311 28.4139 29.489C27.8378 29.6847 27.539 30.2878 27.7439 30.8369C27.8335 31.0745 28.0042 31.2642 28.2133 31.386C27.9551 31.2642 27.6479 31.2402 27.3556 31.3401C26.7795 31.5358 26.4807 32.1388 26.6856 32.6879C26.7795 32.9375 26.963 33.1332 27.187 33.253C26.9928 33.2131 26.7859 33.2211 26.5853 33.291C26.0092 33.4867 25.7105 34.0897 25.9153 34.6388C26.0177 34.9104 26.2226 35.1181 26.4765 35.2339C26.342 35.2299 26.2034 35.2479 26.0689 35.2938C25.4928 35.4895 25.1941 36.0925 25.399 36.6416C25.5483 37.043 25.9281 37.3026 26.3463 37.3365C26.325 37.3425 26.3015 37.3485 26.2802 37.3545C25.7041 37.5502 25.4054 38.1532 25.6102 38.7024C25.6955 38.93 25.8577 39.1097 26.0561 39.2315C26.613 39.0658 27.1465 38.8441 27.7012 38.6724C27.7738 38.4587 27.778 38.2211 27.6927 37.9935C27.5433 37.5921 27.1635 37.3325 26.7453 37.2986C26.7667 37.2926 26.7901 37.2866 26.8115 37.2806C27.3876 37.0849 27.6863 36.4819 27.4814 35.9328C27.379 35.6612 27.1742 35.4535 26.9203 35.3377C27.0547 35.3417 27.1934 35.3237 27.3278 35.2778C27.9039 35.0821 28.2026 34.4791 27.9978 33.93C27.9039 33.6804 27.7204 33.4847 27.4964 33.3649C27.6905 33.4048 27.8975 33.3968 28.0981 33.3269C28.6742 33.1312 28.9729 32.5282 28.7681 31.9791C28.6784 31.7414 28.5077 31.5517 28.2986 31.4299C28.5568 31.5517 28.8641 31.5757 29.1564 31.4779C29.7325 31.2822 30.0312 30.6791 29.8264 30.13C29.7496 29.9243 29.613 29.7546 29.4402 29.6348C29.6087 29.6568 29.7837 29.6408 29.9544 29.5829C30.5305 29.3872 30.8292 28.7841 30.6244 28.235Z" fill="#FFE6BD"/>
<path d="M37.7448 19.4471C37.8258 19.4371 37.9069 19.4211 37.9859 19.3932C38.562 19.1975 38.8607 18.5945 38.6559 18.0453C38.4809 17.5761 37.9901 17.2985 37.4909 17.3524C37.5079 17.3484 37.5229 17.3445 37.5399 17.3385C38.116 17.1428 38.4147 16.5397 38.2099 15.9906C38.0051 15.4415 37.3714 15.1559 36.7974 15.3516C36.2213 15.5473 35.9226 16.1504 36.1274 16.6995C36.3024 17.1687 36.7931 17.4463 37.2924 17.3924C37.2754 17.3964 37.2604 17.4004 37.2433 17.4064C36.6673 17.602 36.3685 18.2051 36.5734 18.7542C36.6886 19.0617 36.9361 19.2854 37.2348 19.3892C37.1537 19.3992 37.0727 19.4152 36.9937 19.4431C36.4176 19.6388 36.1189 20.2418 36.3237 20.791C36.4368 21.0925 36.6801 21.3141 36.9702 21.422C36.8507 21.422 36.7313 21.4419 36.6118 21.4819C36.0357 21.6776 35.737 22.2806 35.9418 22.8297C36.0293 23.0634 36.1957 23.2491 36.4005 23.3709C36.1338 23.2351 35.8116 23.2011 35.5065 23.305C34.9304 23.5007 34.6317 24.1037 34.8365 24.6528C34.939 24.9264 35.1459 25.1341 35.3998 25.2499C35.2014 25.2059 34.988 25.2139 34.7811 25.2838C34.205 25.4795 33.9063 26.0825 34.1111 26.6317C34.1495 26.7335 34.2007 26.8254 34.2647 26.9072C33.998 26.7675 33.6737 26.7335 33.3643 26.8393C32.7882 27.035 32.4895 27.6381 32.6943 28.1872C32.769 28.3869 32.9013 28.5526 33.0656 28.6724C32.7946 28.5227 32.4575 28.4827 32.1396 28.5906C31.5635 28.7862 31.2647 29.3893 31.4696 29.9384C31.5272 30.0902 31.6168 30.22 31.7278 30.3278C31.4909 30.2419 31.2221 30.2319 30.9639 30.3198C30.3878 30.5155 30.0891 31.1185 30.2939 31.6677C30.4241 32.0151 30.7249 32.2567 31.0748 32.3386C30.9703 32.3446 30.8657 32.3625 30.7633 32.3985C30.1872 32.5942 29.8885 33.1972 30.0933 33.7463C30.2534 34.1737 30.6737 34.4412 31.1239 34.4452C31.0706 34.4552 31.0172 34.4672 30.9639 34.4852C30.3878 34.6809 30.0891 35.2839 30.2939 35.833C30.4987 36.3821 31.1325 36.6677 31.7064 36.472C32.2825 36.2763 32.5812 35.6733 32.3764 35.1241C32.2164 34.6968 31.796 34.4293 31.3458 34.4253C31.3992 34.4153 31.4525 34.4033 31.5059 34.3853C32.0819 34.1896 32.3807 33.5866 32.1758 33.0375C32.0457 32.69 31.7448 32.4484 31.3949 32.3665C31.4995 32.3605 31.604 32.3426 31.7064 32.3066C32.2825 32.1109 32.5812 31.5079 32.3764 30.9588C32.3188 30.807 32.2292 30.6772 32.1182 30.5694C32.3551 30.6553 32.6239 30.6653 32.8821 30.5774C33.4582 30.3817 33.7569 29.7787 33.5521 29.2295C33.4774 29.0299 33.3451 28.8641 33.1808 28.7443C33.4518 28.8941 33.7889 28.934 34.1068 28.8262C34.6829 28.6305 34.9816 28.0274 34.7768 27.4783C34.7384 27.3765 34.6872 27.2846 34.6232 27.2028C34.8899 27.3425 35.2142 27.3765 35.5236 27.2707C36.0997 27.075 36.3984 26.4719 36.1936 25.9228C36.0912 25.6492 35.8842 25.4416 35.6303 25.3258C35.8287 25.3697 36.0421 25.3617 36.249 25.2918C36.8251 25.0961 37.1239 24.4931 36.919 23.944C36.8315 23.7103 36.6651 23.5246 36.4603 23.4028C36.727 23.5386 37.0492 23.5725 37.3543 23.4687C37.9304 23.273 38.2291 22.67 38.0243 22.1209C37.9112 21.8193 37.668 21.5977 37.3778 21.4899C37.4973 21.4899 37.6167 21.4699 37.7362 21.43C38.3123 21.2343 38.611 20.6312 38.4062 20.0821C38.291 19.7746 38.0435 19.5509 37.7448 19.4471Z" fill="#FFE6BD"/>
</g>
<path d="M25.5646 45.7778C25.4089 46.0114 25.0568 46.0673 24.7794 45.9036C24.5021 45.7399 24.406 45.4184 24.5618 45.1867C24.7176 44.9551 25.0696 44.8972 25.347 45.0609C25.6244 45.2247 25.7204 45.5462 25.5646 45.7778Z" fill="#A85000"/>
<path d="M25.3481 45.0604C25.1607 44.9486 24.9391 44.9426 24.7666 45.0205C24.7666 45.2002 24.8667 45.3839 25.0563 45.4957C25.2437 45.6075 25.4653 45.6135 25.6378 45.5357C25.6378 45.3559 25.5377 45.1722 25.3481 45.0604Z" fill="#A0510A"/>
<path d="M25.1905 45.2923C24.8171 45.0727 24.7062 44.6074 24.9409 44.2599L26.3704 42.1393C26.6052 41.7899 27.1023 41.686 27.4736 41.9057C27.847 42.1253 27.9579 42.5906 27.7232 42.9381L26.2936 45.0587C26.0589 45.4081 25.5618 45.512 25.1905 45.2923Z" fill="#A85000"/>
<path d="M26.3937 42.1092C26.4513 42.3309 26.6156 42.5485 26.8674 42.6963C27.1789 42.88 27.5353 42.9059 27.7977 42.7941C27.9257 42.4706 27.7977 42.0932 27.4734 41.9015C27.1128 41.6879 26.6348 41.7837 26.3916 42.1072L26.3937 42.1092Z" fill="#A0510A"/>
<path d="M25.304 44.8796C25.1824 44.8077 25.144 44.654 25.2208 44.5401L26.5971 42.4974C26.6739 42.3836 26.8382 42.3476 26.9598 42.4195C27.0814 42.4914 27.1198 42.6452 27.043 42.759L25.6668 44.8017C25.59 44.9155 25.4257 44.9515 25.304 44.8796Z" fill="#D67116"/>
<path d="M28.3336 42.3075C28.1117 42.637 27.5676 42.6929 27.1217 42.4293C26.6757 42.1658 26.4944 41.6845 26.7163 41.355C26.9382 41.0256 27.4823 40.9697 27.9282 41.2332C28.3742 41.4968 28.5555 41.9781 28.3336 42.3075Z" fill="#A85000"/>
<path d="M28.1317 41.7895C28.0465 41.9173 27.793 41.9113 27.5651 41.7776C27.3372 41.6438 27.2222 41.4301 27.3095 41.3043C27.3947 41.1765 27.6482 41.1825 27.8761 41.3163C28.104 41.4501 28.2191 41.6637 28.1317 41.7895Z" fill="#D67116"/>
<path d="M27.6753 41.5307C27.9676 40.7619 27.7286 40.1608 27.7265 40.1529L27.8182 40.1209C27.8289 40.1449 28.0359 40.666 27.8311 41.3729C28.1703 41.0814 28.7251 40.8038 28.9128 40.7958L28.9171 40.8877C28.7592 40.8957 28.0551 41.2351 27.7585 41.5746L27.6753 41.5307Z" fill="#773A08"/>
<path d="M31.2731 9.65889C31.4865 10.22 32.1458 10.5135 32.7475 10.3118C33.3471 10.1122 33.6607 9.49515 33.4452 8.93404C33.2318 8.37293 32.5725 8.0794 31.9708 8.28108C31.3713 8.48076 31.0576 9.09778 31.2731 9.66088V9.65889Z" fill="#B75F08"/>
<path d="M31.8125 8.82638C31.8253 9.068 32.0814 9.25171 32.3822 9.23573C32.6831 9.22175 32.9178 9.01408 32.905 8.77247C32.8922 8.53085 32.6361 8.34914 32.3353 8.36312C32.0344 8.3771 31.7997 8.58477 31.8125 8.82638Z" fill="#D67116"/>
<path d="M29.1811 8.87049C29.3945 9.4316 30.0538 9.72513 30.6555 9.52346C31.2551 9.32377 31.5687 8.70676 31.3532 8.14565C31.1399 7.58454 30.4806 7.29101 29.881 7.49269C29.2814 7.69237 28.9678 8.30939 29.1833 8.87249L29.1811 8.87049Z" fill="#B75F08"/>
<path d="M29.7207 8.0375C29.7335 8.27912 29.9896 8.46283 30.2904 8.44685C30.5913 8.43287 30.826 8.22521 30.8132 7.98359C30.8004 7.74197 30.5443 7.56026 30.2435 7.57424C29.9426 7.58822 29.7079 7.79589 29.7207 8.0375Z" fill="#D67116"/>
<path d="M26.9592 8.57856C27.1725 9.13967 27.8318 9.4332 28.4335 9.23152C29.0352 9.02985 29.3468 8.41482 29.1312 7.85372C28.9179 7.29261 28.2586 6.99908 27.6569 7.20076C27.0573 7.40044 26.7436 8.01746 26.9592 8.58056V8.57856Z" fill="#B75F08"/>
<path d="M27.5 7.74606C27.5128 7.98768 27.7689 8.17138 28.0697 8.15541C28.3706 8.14143 28.6053 7.93376 28.5925 7.69215C28.5797 7.45053 28.3236 7.26882 28.0228 7.2828C27.7219 7.29678 27.4872 7.50445 27.5 7.74606Z" fill="#D67116"/>
<path d="M24.6523 8.6706C24.8657 9.23171 25.525 9.52524 26.1267 9.32357C26.7263 9.12388 27.0399 8.50687 26.8244 7.94576C26.6111 7.38465 25.9517 7.09112 25.3522 7.2928C24.7526 7.49248 24.439 8.1095 24.6545 8.6726L24.6523 8.6706Z" fill="#B75F08"/>
<path d="M25.1919 7.83767C25.2047 8.07929 25.4608 8.263 25.7616 8.24702C26.0625 8.23305 26.2972 8.02538 26.2844 7.78376C26.2716 7.54215 26.0155 7.36043 25.7147 7.37441C25.4138 7.38839 25.1791 7.59606 25.1919 7.83767Z" fill="#D67116"/>
<path d="M22.5776 9.57928C22.791 10.1404 23.4503 10.4339 24.052 10.2322C24.6516 10.0326 24.9652 9.41554 24.7497 8.85244C24.5364 8.29133 23.877 7.9978 23.2775 8.19948C22.6779 8.39916 22.3643 9.01618 22.5798 9.57928H22.5776Z" fill="#B75F08"/>
<path d="M23.1172 8.74728C23.13 8.9889 23.386 9.1726 23.6869 9.15663C23.9877 9.14265 24.2225 8.93498 24.2096 8.69337C24.1968 8.45175 23.9408 8.27004 23.64 8.28402C23.3391 8.298 23.1044 8.50567 23.1172 8.74728Z" fill="#D67116"/>
<path d="M20.8437 11.0286C21.0571 11.5897 21.7164 11.8833 22.3181 11.6816C22.9177 11.4819 23.2313 10.8649 23.0158 10.3018C22.8025 9.74067 22.1432 9.44714 21.5436 9.64882C20.944 9.8505 20.6304 10.4655 20.8459 11.0286H20.8437Z" fill="#B75F08"/>
<path d="M21.3843 10.1962C21.3971 10.4378 21.6531 10.6215 21.954 10.6055C22.2548 10.5916 22.4895 10.3839 22.4767 10.1423C22.4639 9.90067 22.2079 9.71896 21.907 9.73293C21.6062 9.74691 21.3715 9.95458 21.3843 10.1962Z" fill="#D67116"/>
<path d="M19.946 12.5724C20.1593 13.1336 20.8186 13.4271 21.4203 13.2254C22.0199 13.0257 22.3336 12.4087 22.1181 11.8456C21.9047 11.2845 21.2454 10.991 20.6437 11.1926C20.0441 11.3923 19.7305 12.0093 19.946 12.5724Z" fill="#B75F08"/>
<path d="M20.4859 11.7404C20.4987 11.982 20.7547 12.1657 21.0555 12.1497C21.3564 12.1358 21.5911 11.9281 21.5783 11.6865C21.5655 11.4449 21.3095 11.2631 21.0086 11.2771C20.7078 11.2911 20.473 11.4988 20.4859 11.7404Z" fill="#D67116"/>
<path d="M19.5791 14.3311C19.7925 14.8922 20.4518 15.1857 21.0535 14.9841C21.653 14.7844 21.9667 14.1674 21.7512 13.6043C21.5378 13.0432 20.8785 12.7496 20.2789 12.9513C19.6794 13.153 19.3657 13.768 19.5812 14.3311H19.5791Z" fill="#B75F08"/>
<path d="M20.1187 13.4986C20.1315 13.7402 20.3875 13.9239 20.6884 13.908C20.9892 13.894 21.2239 13.6863 21.2111 13.4447C21.1983 13.2031 20.9423 13.0214 20.6414 13.0354C20.3406 13.0493 20.1059 13.257 20.1187 13.4986Z" fill="#D67116"/>
<path d="M19.7046 16.1205C19.9179 16.6816 20.5773 16.9751 21.179 16.7735C21.7807 16.5718 22.0922 15.9568 21.8767 15.3956C21.6633 14.8345 21.004 14.541 20.4044 14.7427C19.8049 14.9424 19.4912 15.5594 19.7067 16.1225L19.7046 16.1205Z" fill="#B75F08"/>
<path d="M20.2427 15.2876C20.2555 15.5292 20.5115 15.7129 20.8124 15.6969C21.1132 15.6809 21.3479 15.4753 21.3351 15.2337C21.3223 14.992 21.0663 14.8103 20.7654 14.8243C20.4646 14.8383 20.2299 15.0459 20.2427 15.2876Z" fill="#D67116"/>
<path d="M20.5791 17.6818C20.7925 18.2429 21.4518 18.5364 22.0535 18.3347C22.653 18.135 22.9667 17.518 22.7512 16.9549C22.5378 16.3938 21.8785 16.1003 21.2789 16.302C20.6794 16.5036 20.3657 17.1187 20.5812 17.6818H20.5791Z" fill="#B75F08"/>
<path d="M21.1196 16.8485C21.1324 17.0901 21.3885 17.2738 21.6893 17.2578C21.9902 17.2419 22.2249 17.0362 22.2121 16.7946C22.1993 16.5529 21.9432 16.3712 21.6424 16.3852C21.3415 16.3992 21.1068 16.6069 21.1196 16.8485Z" fill="#D67116"/>
<path d="M21.7336 19.2057C21.9469 19.7668 22.6062 20.0603 23.2079 19.8587C23.8075 19.659 24.1212 19.042 23.9057 18.4809C23.6923 17.9197 23.033 17.6262 22.4313 17.8279C21.8317 18.0276 21.5181 18.6446 21.7336 19.2077V19.2057Z" fill="#B75F08"/>
<path d="M22.2739 18.3752C22.2867 18.6168 22.5428 18.8005 22.8436 18.7846C23.1445 18.7706 23.3792 18.5629 23.3664 18.3213C23.3536 18.0797 23.0975 17.898 22.7967 17.9119C22.4958 17.9259 22.2611 18.1336 22.2739 18.3752Z" fill="#D67116"/>
<path d="M23.1294 20.5013C23.3427 21.0624 24.0021 21.3559 24.6038 21.1542C25.2033 20.9546 25.517 20.3375 25.3015 19.7744C25.0881 19.2133 24.4288 18.9198 23.8292 19.1215C23.2297 19.3212 22.916 19.9382 23.1315 20.5013H23.1294Z" fill="#B75F08"/>
<path d="M23.6699 19.6693C23.6827 19.9109 23.9388 20.0946 24.2396 20.0786C24.5405 20.0646 24.7752 19.857 24.7624 19.6154C24.7496 19.3737 24.4935 19.192 24.1927 19.206C23.8918 19.22 23.6571 19.4277 23.6699 19.6693Z" fill="#D67116"/>
<path d="M24.5889 21.7873C24.8022 22.3485 25.4615 22.642 26.0632 22.4403C26.6628 22.2406 26.9765 21.6236 26.761 21.0605C26.5476 20.4994 25.8883 20.2059 25.2887 20.4075C24.6891 20.6092 24.3755 21.2242 24.591 21.7873H24.5889Z" fill="#B75F08"/>
<path d="M25.1294 20.9549C25.1422 21.1965 25.3983 21.3802 25.6991 21.3643C26 21.3503 26.2347 21.1426 26.2219 20.901C26.2091 20.6594 25.953 20.4777 25.6522 20.4917C25.3513 20.5056 25.1166 20.7133 25.1294 20.9549Z" fill="#D67116"/>
<path d="M25.9111 23.0831C26.1245 23.6442 26.7838 23.9377 27.3855 23.736C27.9851 23.5364 28.2987 22.9193 28.0832 22.3582C27.8698 21.7971 27.2105 21.5036 26.611 21.7053C26.0114 21.905 25.6977 22.522 25.9133 23.0851L25.9111 23.0831Z" fill="#B75F08"/>
<path d="M26.4502 22.2505C26.463 22.4921 26.7191 22.6758 27.0199 22.6599C27.3208 22.6459 27.5555 22.4382 27.5427 22.1966C27.5299 21.955 27.2738 21.7733 26.973 21.7873C26.6721 21.8012 26.4374 22.0089 26.4502 22.2505Z" fill="#D67116"/>
<path d="M27.126 24.7448C27.3393 25.3059 27.9986 25.5995 28.6003 25.3978C29.1999 25.1981 29.5136 24.5811 29.2981 24.02C29.0847 23.4589 28.4254 23.1653 27.8258 23.367C27.2262 23.5667 26.9126 24.1837 27.1281 24.7468L27.126 24.7448Z" fill="#B75F08"/>
<path d="M27.6636 23.9125C27.6764 24.1541 27.9324 24.3378 28.2333 24.3218C28.5341 24.3078 28.7688 24.1002 28.756 23.8586C28.7432 23.6169 28.4872 23.4332 28.1863 23.4492C27.8855 23.4652 27.6508 23.6709 27.6636 23.9125Z" fill="#D67116"/>
<path d="M27.9702 26.5456C28.1836 27.1067 28.8429 27.4002 29.4446 27.1986C30.0441 26.9989 30.3578 26.3819 30.1423 25.8208C29.9268 25.2597 29.2696 24.9661 28.67 25.1678C28.0705 25.3675 27.7568 25.9845 27.9723 26.5476L27.9702 26.5456Z" fill="#B75F08"/>
<path d="M28.5108 25.7131C28.5236 25.9547 28.7796 26.1384 29.0804 26.1225C29.3813 26.1085 29.616 25.9008 29.6032 25.6592C29.5904 25.4176 29.3344 25.2359 29.0335 25.2498C28.7327 25.2638 28.498 25.4715 28.5108 25.7131Z" fill="#D67116"/>
<path d="M28.1069 28.5508C28.3203 29.1119 28.9796 29.4055 29.5813 29.2038C30.1809 29.0041 30.4945 28.3871 30.279 27.824C30.0656 27.2629 29.4063 26.9694 28.8068 27.171C28.2072 27.3707 27.8936 27.9877 28.1091 28.5508H28.1069Z" fill="#B75F08"/>
<path d="M28.6475 27.7179C28.6603 27.9595 28.9163 28.1432 29.2172 28.1273C29.518 28.1133 29.7527 27.9056 29.7399 27.664C29.7271 27.4224 29.4711 27.2407 29.1702 27.2547C28.8694 27.2686 28.6347 27.4763 28.6475 27.7179Z" fill="#D67116"/>
<path d="M27.2754 30.4896C27.4887 31.0507 28.1481 31.3442 28.7498 31.1425C29.3493 30.9428 29.663 30.3258 29.4475 29.7627C29.2341 29.2016 28.5748 28.9081 27.9752 29.1098C27.3757 29.3094 27.062 29.9265 27.2775 30.4896H27.2754Z" fill="#A85000"/>
<path d="M27.8135 29.6566C27.8263 29.8982 28.0823 30.0819 28.3832 30.0659C28.684 30.0519 28.9187 29.8443 28.9059 29.6026C28.8931 29.361 28.6371 29.1773 28.3362 29.1933C28.0333 29.2073 27.8007 29.4149 27.8135 29.6566Z" fill="#D67116"/>
<path d="M26.1723 32.3812C26.3857 32.9423 27.045 33.2359 27.6467 33.0342C28.2463 32.8345 28.5599 32.2175 28.3444 31.6564C28.1311 31.0953 27.4718 30.8018 26.8722 31.0034C26.2726 31.2031 25.959 31.8201 26.1745 32.3832L26.1723 32.3812Z" fill="#A85000"/>
<path d="M26.7129 31.5482C26.7257 31.7899 26.9818 31.9736 27.2826 31.9576C27.5835 31.9436 27.8182 31.7359 27.8054 31.4943C27.7926 31.2527 27.5365 31.071 27.2357 31.085C26.9327 31.099 26.7001 31.3066 26.7129 31.5482Z" fill="#D67116"/>
<path d="M25.3693 34.376C25.5827 34.9371 26.242 35.2307 26.8437 35.029C27.4433 34.8293 27.7569 34.2123 27.5414 33.6492C27.328 33.0881 26.6687 32.7946 26.067 32.9962C25.4675 33.1959 25.1538 33.8129 25.3693 34.376Z" fill="#A85000"/>
<path d="M25.9102 33.5427C25.923 33.7843 26.179 33.968 26.4799 33.952C26.7807 33.9381 27.0154 33.7304 27.0026 33.4888C26.9898 33.2472 26.7338 33.0655 26.4329 33.0794C26.1321 33.0934 25.8974 33.3011 25.9102 33.5427Z" fill="#D67116"/>
<path d="M24.8301 36.4247C25.0434 36.9858 25.7027 37.2793 26.3044 37.0776C26.904 36.878 27.2177 36.2609 27.0022 35.6978C26.7888 35.1367 26.1295 34.8432 25.5299 35.0449C24.9303 35.2446 24.6167 35.8616 24.8322 36.4247H24.8301Z" fill="#A85000"/>
<path d="M25.3706 35.5923C25.3834 35.8339 25.6395 36.0176 25.9403 36.0016C26.2412 35.9876 26.4759 35.78 26.4631 35.5383C26.4503 35.2967 26.1942 35.115 25.8934 35.129C25.5925 35.143 25.3578 35.3506 25.3706 35.5923Z" fill="#D67116"/>
<path d="M25.0498 38.5346C25.2632 39.0957 25.9225 39.3893 26.5242 39.1876C27.1259 38.9859 27.4374 38.3709 27.2219 37.8098C27.0085 37.2487 26.3492 36.9551 25.7496 37.1568C25.1501 37.3565 24.8364 37.9735 25.0519 38.5366L25.0498 38.5346Z" fill="#A85000"/>
<path d="M25.5903 37.7017C25.6031 37.9433 25.8592 38.127 26.16 38.111C26.4609 38.0971 26.6956 37.8894 26.6828 37.6478C26.67 37.4062 26.4139 37.2244 26.1131 37.2384C25.8122 37.2524 25.5775 37.4601 25.5903 37.7017Z" fill="#D67116"/>
<path d="M26.2588 40.332C26.4721 40.8931 27.1315 41.1867 27.7332 40.985C28.3327 40.7853 28.6464 40.1683 28.4309 39.6052C28.2175 39.0441 27.5582 38.7505 26.9586 38.9522C26.3591 39.1519 26.0454 39.7689 26.2609 40.332H26.2588Z" fill="#A85000"/>
<path d="M26.7993 39.4996C26.8121 39.7412 27.0682 39.9249 27.369 39.9089C27.6699 39.893 27.9046 39.6873 27.8918 39.4457C27.879 39.2041 27.6229 39.0224 27.3221 39.0363C27.0212 39.0503 26.7865 39.258 26.7993 39.4996Z" fill="#D67116"/>
<path d="M28.3598 41.165C28.5732 41.7261 29.2325 42.0196 29.8342 41.8179C30.4359 41.6163 30.7474 41.0012 30.5319 40.4381C30.3186 39.877 29.6593 39.5835 29.0597 39.7852C28.4601 39.9849 28.1465 40.6019 28.362 41.165H28.3598Z" fill="#A85000"/>
<path d="M28.8994 40.3329C28.9122 40.5745 29.1683 40.7582 29.4691 40.7423C29.77 40.7283 30.0047 40.5206 29.9919 40.279C29.9791 40.0374 29.723 39.8557 29.4222 39.8697C29.1213 39.8836 28.8866 40.0913 28.8994 40.3329Z" fill="#D67116"/>
<path d="M30.1728 39.8803C30.3862 40.4414 31.0455 40.7349 31.6472 40.5332C32.2468 40.3335 32.5604 39.7165 32.3449 39.1554C32.1316 38.5943 31.4723 38.3008 30.8727 38.5025C30.2731 38.7021 29.9595 39.3192 30.175 39.8823L30.1728 39.8803Z" fill="#A85000"/>
<path d="M30.7124 39.0478C30.7252 39.2894 30.9813 39.4731 31.2821 39.4571C31.583 39.4411 31.8177 39.2355 31.8049 38.9938C31.7921 38.7522 31.536 38.5705 31.2352 38.5845C30.9343 38.5985 30.6996 38.8061 30.7124 39.0478Z" fill="#D67116"/>
<path d="M29.9355 37.7567C30.1489 38.3178 30.8082 38.6113 31.4099 38.4096C32.0095 38.2099 32.3231 37.5929 32.1076 37.0318C31.8943 36.4707 31.235 36.1772 30.6354 36.3789C30.0358 36.5785 29.7222 37.1956 29.9377 37.7587L29.9355 37.7567Z" fill="#A85000"/>
<path d="M30.4751 36.9237C30.4879 37.1654 30.744 37.3491 31.0448 37.3331C31.3457 37.3191 31.5804 37.1114 31.5676 36.8698C31.5548 36.6282 31.2987 36.4465 30.9979 36.4605C30.697 36.4744 30.4623 36.6821 30.4751 36.9237Z" fill="#D67116"/>
<path d="M29.9355 35.5955C30.1489 36.1566 30.8082 36.4502 31.4099 36.2485C32.0095 36.0488 32.3231 35.4318 32.1076 34.8687C31.8943 34.3076 31.235 34.014 30.6354 34.2157C30.0358 34.4154 29.7222 35.0324 29.9377 35.5955H29.9355Z" fill="#A85000"/>
<path d="M30.4751 34.7648C30.4879 35.0064 30.744 35.1901 31.0448 35.1741C31.3457 35.1602 31.5804 34.9525 31.5676 34.7109C31.5548 34.4693 31.2987 34.2876 30.9979 34.3015C30.697 34.3155 30.4623 34.5232 30.4751 34.7648Z" fill="#D67116"/>
<path d="M29.727 33.4611C29.9404 34.0222 30.5997 34.3157 31.2014 34.114C31.801 33.9143 32.1146 33.2973 31.8991 32.7342C31.6858 32.1731 31.0265 31.8796 30.4269 32.0813C29.8273 32.2809 29.5137 32.898 29.7292 33.4611H29.727Z" fill="#A85000"/>
<path d="M30.2676 32.6278C30.2804 32.8694 30.5364 33.0531 30.8373 33.0371C31.1381 33.0231 31.3728 32.8155 31.36 32.5739C31.3472 32.3322 31.0912 32.1505 30.7903 32.1645C30.4895 32.1785 30.2548 32.3862 30.2676 32.6278Z" fill="#D67116"/>
<path d="M29.9355 31.3346C30.1489 31.8957 30.8082 32.1892 31.4099 31.9876C32.0095 31.7879 32.3231 31.1709 32.1076 30.6077C31.8943 30.0466 31.235 29.7531 30.6354 29.9548C30.0358 30.1545 29.7222 30.7715 29.9377 31.3346H29.9355Z" fill="#A85000"/>
<path d="M30.4751 30.5025C30.4879 30.7441 30.744 30.9279 31.0448 30.9119C31.3457 30.8979 31.5804 30.6902 31.5676 30.4486C31.5548 30.207 31.2987 30.0253 30.9979 30.0393C30.697 30.0532 30.4623 30.2609 30.4751 30.5025Z" fill="#D67116"/>
<path d="M31.1601 29.5674C31.3735 30.1285 32.0328 30.4221 32.6345 30.2204C33.2341 30.0207 33.5477 29.4037 33.3322 28.8406C33.1189 28.2795 32.4596 27.986 31.86 28.1876C31.2604 28.3873 30.9468 29.0043 31.1623 29.5674H31.1601Z" fill="#B75F08"/>
<path d="M31.7007 28.735C31.7135 28.9766 31.9695 29.1603 32.2704 29.1443C32.5712 29.1303 32.8059 28.9227 32.7931 28.681C32.7803 28.4394 32.5243 28.2577 32.2234 28.2717C31.9226 28.2857 31.6879 28.4933 31.7007 28.735Z" fill="#D67116"/>
<path d="M32.4355 27.7762C32.6489 28.3373 33.3082 28.6309 33.9099 28.4292C34.5095 28.2295 34.8231 27.6125 34.6076 27.0494C34.3943 26.4883 33.735 26.1948 33.1354 26.3964C32.5358 26.5981 32.2222 27.2131 32.4377 27.7762H32.4355Z" fill="#B75F08"/>
<path d="M32.9761 26.9438C32.9889 27.1854 33.2449 27.3691 33.5458 27.3531C33.8466 27.3391 34.0813 27.1315 34.0685 26.8898C34.0557 26.6482 33.7997 26.4665 33.4988 26.4805C33.198 26.4945 32.9633 26.7021 32.9761 26.9438Z" fill="#D67116"/>
<path d="M33.9152 26.1866C34.1286 26.7477 34.7879 27.0412 35.3896 26.8396C35.9913 26.6379 36.3028 26.0229 36.0873 25.4618C35.8739 24.9006 35.2146 24.6071 34.6129 24.8088C34.0134 25.0085 33.6997 25.6255 33.9152 26.1886V26.1866Z" fill="#B75F08"/>
<path d="M34.4556 25.3541C34.4684 25.5957 34.7244 25.7794 35.0253 25.7634C35.3261 25.7495 35.5608 25.5418 35.548 25.3002C35.5352 25.0586 35.2792 24.8769 34.9783 24.8908C34.6775 24.9048 34.4428 25.1125 34.4556 25.3541Z" fill="#D67116"/>
<path d="M34.6709 24.1621C34.8843 24.7232 35.5436 25.0168 36.1453 24.8151C36.7448 24.6154 37.0585 23.9984 36.843 23.4373C36.6296 22.8762 35.9703 22.5826 35.3707 22.7843C34.7712 22.984 34.4575 23.601 34.673 24.1641L34.6709 24.1621Z" fill="#B75F08"/>
<path d="M35.2105 23.3291C35.2233 23.5707 35.4793 23.7545 35.7802 23.7385C36.081 23.7245 36.3157 23.5168 36.3029 23.2752C36.2901 23.0336 36.0341 22.8519 35.7332 22.8659C35.4324 22.8798 35.1977 23.0875 35.2105 23.3291Z" fill="#D67116"/>
<path d="M35.8232 22.2972C36.0366 22.8583 36.6959 23.1518 37.2976 22.9502C37.8972 22.7505 38.2108 22.1335 37.9953 21.5723C37.782 21.0112 37.1226 20.7177 36.5231 20.9194C35.9235 21.1191 35.6099 21.7361 35.8254 22.2992L35.8232 22.2972Z" fill="#B75F08"/>
<path d="M36.3638 21.4645C36.3766 21.7061 36.6326 21.8898 36.9335 21.8738C37.2343 21.8598 37.469 21.6522 37.4562 21.4106C37.4434 21.1689 37.1874 20.9852 36.8865 21.0012C36.5857 21.0152 36.351 21.2229 36.3638 21.4645Z" fill="#D67116"/>
<path d="M36.2222 20.2101C36.4355 20.7712 37.0948 21.0648 37.6965 20.8631C38.2961 20.6634 38.6098 20.0464 38.3943 19.4833C38.1809 18.9222 37.5216 18.6287 36.922 18.8303C36.3224 19.03 36.0088 19.647 36.2243 20.2101H36.2222Z" fill="#B75F08"/>
<path d="M36.7617 19.3797C36.7745 19.6213 37.0306 19.805 37.3314 19.7891C37.6323 19.7751 37.867 19.5674 37.8542 19.3258C37.8414 19.0842 37.5853 18.9025 37.2845 18.9165C36.9815 18.9304 36.7489 19.1381 36.7617 19.3797Z" fill="#D67116"/>
<path d="M36.4816 18.1274C36.695 18.6885 37.3543 18.982 37.956 18.7803C38.5556 18.5807 38.8692 17.9636 38.6537 17.4005C38.4403 16.8394 37.781 16.5459 37.1793 16.7476C36.5798 16.9473 36.2661 17.5643 36.4816 18.1274Z" fill="#B75F08"/>
<path d="M37.0225 17.295C37.0353 17.5366 37.2913 17.7203 37.5922 17.7044C37.893 17.6904 38.1277 17.4827 38.1149 17.2411C38.1021 16.9995 37.8461 16.8178 37.5452 16.8317C37.2444 16.8457 37.0097 17.0534 37.0225 17.295Z" fill="#D67116"/>
<path d="M36.0185 16.025C36.2319 16.5861 36.8912 16.8797 37.4929 16.678C38.0925 16.4783 38.4061 15.8613 38.1906 15.2982C37.9773 14.7371 37.318 14.4435 36.7184 14.6452C36.1188 14.8469 35.8052 15.4619 36.0207 16.025H36.0185Z" fill="#B75F08"/>
<path d="M36.5591 15.1926C36.5719 15.4342 36.8279 15.6179 37.1288 15.6019C37.4296 15.586 37.6643 15.3803 37.6515 15.1387C37.6387 14.8971 37.3827 14.7154 37.0818 14.7293C36.781 14.7433 36.5463 14.951 36.5591 15.1926Z" fill="#D67116"/>
<path d="M35.6435 13.8661C35.8569 14.4272 36.5162 14.7207 37.1179 14.5191C37.7175 14.3194 38.0311 13.7024 37.8156 13.1413C37.6023 12.5801 36.943 12.2866 36.3434 12.4883C35.7438 12.69 35.4302 13.305 35.6457 13.8681L35.6435 13.8661Z" fill="#B75F08"/>
<path d="M36.1841 13.0333C36.1969 13.2749 36.4529 13.4586 36.7538 13.4427C37.0546 13.4287 37.2893 13.221 37.2765 12.9794C37.2637 12.7378 37.0077 12.5541 36.7069 12.5701C36.4039 12.584 36.1713 12.7917 36.1841 13.0333Z" fill="#D67116"/>
<path d="M34.4917 12.1069C34.7051 12.6681 35.3644 12.9616 35.9661 12.7599C36.5656 12.5602 36.8793 11.9432 36.6638 11.3821C36.4504 10.821 35.7911 10.5275 35.1915 10.7291C34.592 10.9308 34.2783 11.5458 34.4938 12.1089L34.4917 12.1069Z" fill="#B75F08"/>
<path d="M35.0298 11.274C35.0426 11.5156 35.2986 11.6993 35.5995 11.6834C35.9003 11.6694 36.135 11.4617 36.1222 11.2201C36.1094 10.9785 35.8534 10.7968 35.5526 10.8108C35.2517 10.8247 35.017 11.0324 35.0298 11.274Z" fill="#D67116"/>
<path d="M32.9057 10.6251C33.1191 11.1862 33.7784 11.4798 34.3801 11.2781C34.9797 11.0784 35.2933 10.4614 35.0778 9.90029C34.8645 9.33918 34.2052 9.04565 33.6056 9.24733C33.006 9.44701 32.6924 10.064 32.9079 10.6271L32.9057 10.6251Z" fill="#B75F08"/>
<path d="M33.4463 9.79226C33.4591 10.0339 33.7151 10.2176 34.016 10.2016C34.3168 10.1876 34.5516 9.97997 34.5387 9.73835C34.5259 9.49673 34.2699 9.31502 33.9691 9.329C33.6682 9.34298 33.4335 9.55065 33.4463 9.79226Z" fill="#D67116"/>
</svg>
