<svg width="70" height="70" viewBox="0 0 70 70" fill="none" xmlns="http://www.w3.org/2000/svg">
<path d="M23.6283 56.322C23.5807 56.3126 23.5331 56.3126 23.4945 56.269C22.8846 55.6057 22.2806 54.9392 21.6588 54.2883C21.1441 53.7495 20.6324 53.2076 20.1207 52.6657C19.8024 52.3262 19.4751 51.9929 19.1598 51.6535C19.0705 51.5569 18.9842 51.5632 18.889 51.6628C18.5261 52.049 18.1572 52.4321 17.7942 52.8183C17.4551 53.1764 17.1189 53.5408 16.7797 53.899C16.4257 54.2727 16.0627 54.6402 15.7087 55.0139C15.3189 55.425 14.9381 55.8424 14.5484 56.2504C14.4592 56.3438 14.358 56.3594 14.2539 56.2472C13.9653 55.9296 13.6767 55.615 13.3792 55.3098C13.2602 55.1883 13.287 55.0918 13.3881 54.9921C13.9445 54.4409 14.4562 53.8429 15.0006 53.2854C15.6343 52.6376 16.2501 51.968 16.8809 51.314C17.1694 51.0119 17.458 50.7098 17.7436 50.4015C17.8329 50.3049 17.7853 50.2146 17.705 50.1305C17.3688 49.7817 17.0326 49.4329 16.7024 49.0778C16.146 48.4799 15.5927 47.8788 15.0185 47.3026C14.5692 46.851 14.1587 46.3527 13.7124 45.8949C13.5964 45.7734 13.4863 45.6426 13.3614 45.5305C13.2721 45.4495 13.278 45.3374 13.3554 45.2564C13.6618 44.917 13.9802 44.5868 14.2985 44.2598C14.3759 44.1789 14.4681 44.2131 14.5216 44.2847C14.9233 44.8453 15.4439 45.2845 15.8991 45.789C16.3989 46.3434 16.9225 46.8759 17.4372 47.4179C17.9132 47.9193 18.3982 48.4145 18.8652 48.9252C18.9783 49.0498 19.0556 49.0249 19.1419 48.9315C19.5079 48.5484 19.8678 48.1591 20.2308 47.7729C20.7782 47.1905 21.3286 46.6143 21.876 46.0319C22.2241 45.6644 22.5722 45.2938 22.9173 44.9232C23.1196 44.7083 23.3457 44.5183 23.5212 44.2754C23.5807 44.1944 23.6849 44.1882 23.7473 44.2629C24.0478 44.6149 24.381 44.9325 24.6934 45.2689C24.7618 45.3437 24.7767 45.4402 24.6934 45.5274C23.9705 46.2686 23.2594 47.0286 22.5484 47.7822C21.8314 48.5453 21.0936 49.2834 20.4093 50.0776C20.3855 50.1025 20.3439 50.1118 20.32 50.1367C20.2189 50.2458 20.1594 50.3423 20.3052 50.4824C20.8526 50.9963 21.3464 51.5663 21.8611 52.1113C22.1467 52.4134 22.4383 52.7124 22.7239 53.0145C23.316 53.6436 23.9348 54.2478 24.4971 54.9112C24.5209 54.9361 24.5595 54.9485 24.5863 54.9703C24.7827 55.1385 24.7767 55.2319 24.5923 55.4126C24.3186 55.6804 24.0508 55.9576 23.789 56.241C23.7384 56.2971 23.6968 56.3251 23.6283 56.322Z" fill="#20685D"/>
<rect width="70" height="70" rx="12" fill="url(#paint0_radial_1744_3255)"/>
<mask id="path-3-inside-1_1744_3255" fill="white">
<path d="M35 1.8421H56.1579C62.7853 1.8421 68.1579 7.21468 68.1579 13.8421V35H35V1.8421Z"/>
</mask>
<path d="M35 1.8421H56.1579C62.7853 1.8421 68.1579 7.21468 68.1579 13.8421V35H35V1.8421Z" fill="#9FD19A"/>
<path d="M35 1.8421H68.1579H35ZM68.1579 35.25H34.75L35.25 34.75H68.1579V35.25ZM34.75 35.25V1.8421H35.25V34.75L34.75 35.25ZM68.1579 1.8421V35V1.8421Z" fill="black" mask="url(#path-3-inside-1_1744_3255)"/>
<mask id="path-5-inside-2_1744_3255" fill="white">
<path d="M35 34.9998H68.1579V56.1577C68.1579 62.7851 62.7853 68.1577 56.1579 68.1577H35V34.9998Z"/>
</mask>
<path d="M35 34.9998H68.1579V56.1577C68.1579 62.7851 62.7853 68.1577 56.1579 68.1577H35V34.9998Z" fill="#186057"/>
<path d="M34.75 34.7498H68.1579V35.2498H35.25L34.75 34.7498ZM68.1579 68.1577H35H68.1579ZM34.75 68.1577V34.7498L35.25 35.2498V68.1577H34.75ZM68.1579 34.9998V68.1577V34.9998Z" fill="black" mask="url(#path-5-inside-2_1744_3255)"/>
<mask id="path-7-inside-3_1744_3255" fill="white">
<path d="M1.84229 13.8421C1.84229 7.21466 7.21487 1.84207 13.8423 1.84207H35.0002V35H1.84229V13.8421Z"/>
</mask>
<path d="M1.84229 13.8421C1.84229 7.21466 7.21487 1.84207 13.8423 1.84207H35.0002V35H1.84229V13.8421Z" fill="#9FD19A"/>
<path d="M1.84229 1.84207H35.0002H1.84229ZM35.2502 35.25H1.84229V34.75H34.7502L35.2502 35.25ZM1.84229 35V1.84207V35ZM35.2502 1.84207V35.25L34.7502 34.75V1.84207H35.2502Z" fill="black" mask="url(#path-7-inside-3_1744_3255)"/>
<mask id="path-9-inside-4_1744_3255" fill="white">
<path d="M1.84229 34.9998H35.0002V68.1577H13.8423C7.21487 68.1577 1.84229 62.7851 1.84229 56.1577V34.9998Z"/>
</mask>
<path d="M1.84229 34.9998H35.0002V68.1577H13.8423C7.21487 68.1577 1.84229 62.7851 1.84229 56.1577V34.9998Z" fill="#9FD19A"/>
<path d="M1.84229 34.7498H35.2502L34.7502 35.2498H1.84229V34.7498ZM35.0002 68.1577H1.84229H35.0002ZM1.84229 68.1577V34.9998V68.1577ZM35.2502 34.7498V68.1577H34.7502V35.2498L35.2502 34.7498Z" fill="black" mask="url(#path-9-inside-4_1744_3255)"/>
<path d="M49.4661 58.4292C49.3762 58.4191 49.2865 58.4091 49.1966 58.3987C48.3887 58.3069 47.6146 58.0847 46.8735 57.7328C46.2665 57.4442 45.7048 57.0779 45.1872 56.6364C44.8704 56.3662 44.5772 56.0693 44.3043 55.7498C43.9023 55.2794 43.5578 54.7657 43.2697 54.2097C43.0047 53.6981 42.7946 53.1623 42.639 52.6023C42.5027 52.1123 42.413 51.6127 42.3648 51.1051C42.3307 50.7451 42.3225 50.384 42.334 50.0228C42.355 49.3621 42.4514 48.7129 42.6234 48.077C42.7333 47.6709 42.8726 47.2767 43.0413 46.8937C43.2623 46.3924 43.5283 45.9196 43.8402 45.4756C44.0146 45.2273 44.2024 44.9907 44.4022 44.7648C44.7214 44.4043 45.0686 44.0774 45.4436 43.783C45.9081 43.4184 46.4055 43.1137 46.9354 42.8673C47.353 42.6734 47.7836 42.5209 48.2271 42.4078C48.2407 42.4043 48.2546 42.3957 48.2739 42.4046C48.2331 42.4423 48.1944 42.4783 48.1557 42.514C47.6563 42.9727 47.2317 43.4984 46.8822 44.0918C46.5173 44.7116 46.2523 45.3758 46.0866 46.0842C45.995 46.4753 45.9364 46.8718 45.9119 47.2738C45.8999 47.4709 45.8917 47.6683 45.8961 47.866C45.9138 48.6536 46.0455 49.4188 46.306 50.1584C46.5778 50.9296 46.9667 51.6277 47.4737 52.2518C47.9106 52.7902 48.4132 53.2492 48.9832 53.6256C49.4193 53.9136 49.8807 54.145 50.3678 54.3185C50.8538 54.4918 51.3528 54.6011 51.8636 54.6512C52.1405 54.6782 52.4183 54.6843 52.6957 54.6742C53.2886 54.6529 53.8689 54.549 54.4353 54.3608C54.7909 54.2426 55.1349 54.0946 55.4661 53.9142C55.8616 53.6987 56.2325 53.4426 56.5798 53.1482C56.8229 52.9419 57.048 52.7157 57.2628 52.4777C57.35 52.3813 57.4307 52.2783 57.5147 52.1784V52.257C57.4765 52.56 57.374 52.8437 57.2778 53.1289C57.1726 53.4397 57.0461 53.7413 56.9025 54.0345C56.7493 54.3476 56.5787 54.6497 56.3893 54.9398C56.2271 55.1876 56.0529 55.4255 55.8668 55.6534C55.6942 55.8647 55.5094 56.0638 55.3184 56.2557C54.9872 56.5881 54.6282 56.8842 54.2455 57.1484C54.0264 57.2994 53.8002 57.4373 53.5677 57.5645C53.2965 57.7127 53.0187 57.8448 52.7325 57.9564C52.3788 58.0945 52.0182 58.2079 51.6486 58.2893C51.4289 58.3377 51.2081 58.3786 50.9854 58.407C50.9017 58.4177 50.8167 58.4177 50.7322 58.4217C50.6897 58.4237 50.6466 58.4226 50.6044 58.4298H49.4661V58.4292Z" fill="white"/>
<path d="M57.5139 44.953C57.4226 45.0508 57.3307 45.1481 57.2403 45.2468C56.941 45.5728 56.6422 45.8994 56.3432 46.2257C56.2288 46.3509 56.1154 46.4769 55.9998 46.6013C55.9736 46.6292 55.9649 46.6571 55.9709 46.6962C56.0827 47.4182 56.1933 48.1402 56.304 48.8625C56.3122 48.9154 56.3195 48.9684 56.3272 49.0216C56.3288 49.0328 56.3337 49.0464 56.3239 49.055C56.3114 49.0659 56.3007 49.0538 56.2904 49.0478C56.078 48.9232 55.866 48.798 55.6537 48.6731C55.241 48.4306 54.8283 48.1883 54.4162 47.9451C54.3911 47.9304 54.3707 47.933 54.347 47.9471C54.097 48.0947 53.8468 48.2415 53.5969 48.3888C53.2235 48.6087 52.8498 48.8282 52.4764 49.0478C52.466 49.0538 52.4546 49.0656 52.4426 49.0564C52.429 49.0461 52.4374 49.0297 52.4393 49.0161C52.5244 48.4593 52.6099 47.9025 52.695 47.346C52.728 47.1302 52.7601 46.9143 52.7942 46.6988C52.8005 46.6585 52.7912 46.6295 52.7642 46.6004C52.5235 46.34 52.2842 46.0784 52.0444 45.8174C51.8116 45.5636 51.5786 45.3101 51.3458 45.0563C51.3139 45.0214 51.2826 44.986 51.2515 44.9507C51.2444 44.9426 51.2305 44.9357 51.2354 44.9225C51.24 44.9101 51.2545 44.9124 51.2651 44.9107C51.4513 44.8802 51.6374 44.8499 51.8236 44.8197C52.3246 44.7386 52.8255 44.6566 53.3271 44.5774C53.3818 44.5688 53.4143 44.5463 53.4377 44.492C53.5805 44.1625 53.7266 43.8344 53.8716 43.5058C53.9984 43.2189 54.1251 42.9317 54.2519 42.6448C54.2887 42.5619 54.3249 42.4788 54.3623 42.3959C54.3672 42.385 54.3696 42.3671 54.3849 42.3683C54.3969 42.3691 54.399 42.3853 54.4037 42.3953C54.5345 42.6917 54.6653 42.9884 54.7959 43.2851C54.9196 43.5662 55.0437 43.8477 55.1674 44.1288C55.2216 44.2523 55.2781 44.3746 55.3299 44.4992C55.3495 44.5466 55.3778 44.5676 55.4263 44.5754C55.9153 44.6528 56.4043 44.7325 56.893 44.8117C57.1002 44.8453 57.307 44.8799 57.5139 44.9141V44.9532V44.953Z" fill="white"/>
<path d="M18.5296 23.2806C18.5296 22.3757 18.5296 21.4673 18.5296 20.5624C18.5296 20.2885 18.5197 20.2781 18.2586 20.2781C16.5666 20.2781 14.8778 20.2781 13.1858 20.2781C12.895 20.2781 12.895 20.2781 12.895 19.9765C12.895 19.6852 12.9016 19.394 12.895 19.1062C12.8884 18.9121 12.9545 18.8531 13.1395 18.8531C14.8448 18.8601 16.5468 18.8566 18.252 18.8566C18.4393 18.8566 18.5329 18.7549 18.5329 18.5515C18.5329 16.8318 18.5329 15.1087 18.5329 13.389C18.5329 13.3197 18.5362 13.2469 18.5329 13.1775C18.5197 12.9764 18.5792 12.8794 18.794 12.8967C19.0683 12.914 19.3426 12.9002 19.6169 12.9002C19.9639 12.9002 19.9672 12.9036 19.9672 13.2642C19.9672 15.022 19.9672 16.7763 19.9672 18.5342C19.9672 18.7514 20.0685 18.8601 20.2712 18.8601C21.9501 18.8601 23.6256 18.8601 25.3044 18.8601C25.5159 18.8601 25.6217 18.9745 25.6217 19.2033C25.6217 19.4945 25.6151 19.7858 25.6217 20.0735C25.625 20.2226 25.5655 20.2816 25.4333 20.2781C25.3077 20.2781 25.1788 20.2781 25.0533 20.2781C23.4637 20.2781 21.8708 20.2781 20.2812 20.2781C19.9837 20.2781 19.9672 20.2954 19.9672 20.6144C19.9672 22.3653 19.9672 24.1127 19.9672 25.8635C19.9672 26.2623 19.9308 26.3801 19.4979 26.3524C19.2864 26.3385 19.0716 26.3524 18.8568 26.3524C18.5428 26.3524 18.5362 26.3455 18.5362 26.0022C18.5362 25.4128 18.5362 24.8269 18.5362 24.2375C18.5362 23.9185 18.5362 23.5995 18.5362 23.2806H18.5296Z" fill="#20685D"/>
<path d="M23.6283 58.164C23.5807 58.1547 23.5331 58.1547 23.4945 58.1111C22.8846 57.4477 22.2806 56.7812 21.6588 56.1303C21.1441 55.5915 20.6324 55.0496 20.1207 54.5077C19.8024 54.1682 19.4751 53.835 19.1598 53.4955C19.0705 53.399 18.9842 53.4052 18.889 53.5049C18.5261 53.891 18.1572 54.2741 17.7942 54.6603C17.4551 55.0185 17.1189 55.3829 16.7797 55.741C16.4257 56.1147 16.0627 56.4822 15.7087 56.856C15.3189 57.2671 14.9381 57.6844 14.5484 58.0924C14.4592 58.1858 14.358 58.2014 14.2539 58.0893C13.9653 57.7716 13.6767 57.4571 13.3792 57.1518C13.2602 57.0304 13.287 56.9338 13.3881 56.8342C13.9445 56.2829 14.4562 55.685 15.0006 55.1275C15.6343 54.4797 16.2501 53.8101 16.8809 53.156C17.1694 52.8539 17.458 52.5518 17.7436 52.2435C17.8329 52.147 17.7853 52.0567 17.705 51.9726C17.3688 51.6237 17.0326 51.2749 16.7024 50.9199C16.146 50.3219 15.5927 49.7208 15.0185 49.1447C14.5692 48.6931 14.1587 48.1948 13.7124 47.7369C13.5964 47.6155 13.4863 47.4847 13.3614 47.3726C13.2721 47.2916 13.278 47.1795 13.3554 47.0985C13.6618 46.759 13.9802 46.4289 14.2985 46.1019C14.3759 46.0209 14.4681 46.0552 14.5216 46.1268C14.9233 46.6874 15.4439 47.1265 15.8991 47.6311C16.3989 48.1854 16.9225 48.718 17.4372 49.2599C17.9132 49.7613 18.3982 50.2565 18.8652 50.7673C18.9783 50.8919 19.0556 50.8669 19.1419 50.7735C19.5079 50.3904 19.8678 50.0011 20.2308 49.6149C20.7782 49.0325 21.3286 48.4564 21.876 47.874C22.2241 47.5065 22.5722 47.1359 22.9173 46.7652C23.1196 46.5504 23.3457 46.3604 23.5212 46.1174C23.5807 46.0365 23.6849 46.0302 23.7473 46.105C24.0478 46.4569 24.381 46.7746 24.6934 47.1109C24.7618 47.1857 24.7767 47.2822 24.6934 47.3694C23.9705 48.1107 23.2594 48.8706 22.5484 49.6243C21.8314 50.3873 21.0936 51.1254 20.4093 51.9196C20.3855 51.9445 20.3439 51.9539 20.32 51.9788C20.2189 52.0878 20.1594 52.1843 20.3052 52.3245C20.8526 52.8384 21.3464 53.4083 21.8611 53.9533C22.1467 54.2554 22.4383 54.5544 22.7239 54.8565C23.316 55.4856 23.9348 56.0898 24.4971 56.7532C24.5209 56.7781 24.5595 56.7906 24.5863 56.8124C24.7827 56.9806 24.7767 57.074 24.5923 57.2546C24.3186 57.5225 24.0508 57.7996 23.789 58.0831C23.7384 58.1391 23.6968 58.1671 23.6283 58.164Z" fill="#20685D"/>
<path d="M48.8837 21.996C48.8837 21.4376 48.8719 20.8827 48.8896 20.3243C48.8956 20.1197 48.8007 20.0053 48.6851 19.9533C48.2434 19.7556 47.8373 19.4712 47.443 19.1764C47.1347 18.944 46.8234 18.6874 46.604 18.3233C46.4795 18.1186 46.3461 17.914 46.2631 17.6851C46.106 17.2412 46.0704 16.7522 46.1653 16.2944C46.275 15.7673 46.5507 15.3234 46.8946 14.9488C47.0487 14.7823 47.2147 14.6401 47.3896 14.5084C47.4667 14.4494 47.5645 14.4112 47.6416 14.387C47.7958 14.3419 47.9321 14.2378 48.0981 14.217C48.3145 14.1893 48.5191 14.0818 48.7414 14.0852C48.8541 14.0852 48.8778 13.95 48.8807 13.8355C48.8837 13.6136 48.8807 13.3882 48.8807 13.1662C48.8837 12.9026 48.8926 12.8957 49.109 12.8957C49.2928 12.8957 49.4766 12.9061 49.6574 12.8957C49.7997 12.8853 49.8412 12.9581 49.8353 13.1142C49.8294 13.3569 49.8353 13.5962 49.8353 13.839C49.8353 14.0852 49.8442 14.1095 50.0428 14.0922C50.4608 14.054 50.858 14.217 51.2701 14.2552C51.3857 14.2656 51.4895 14.3627 51.614 14.3592C51.6792 14.3592 51.6822 14.4251 51.6822 14.4806C51.6822 14.8413 51.6822 15.1985 51.6822 15.5592C51.6822 15.7014 51.614 15.6979 51.5221 15.6598C51.282 15.5661 51.0359 15.5037 50.7869 15.4447C50.5379 15.3858 50.2948 15.306 50.0369 15.3164C49.8383 15.3234 49.8323 15.3164 49.8323 15.5488C49.8323 16.6586 49.8323 17.7649 49.8323 18.8747C49.8323 19.0481 49.9005 19.1313 50.025 19.2041C50.3185 19.3741 50.609 19.5475 50.8877 19.7521C51.1219 19.922 51.3561 20.085 51.5725 20.2862C51.777 20.4769 51.9579 20.685 52.1001 20.9521C52.2039 21.1463 52.2721 21.3578 52.3669 21.559C52.3877 21.6006 52.3936 21.6526 52.3966 21.7012C52.4144 22.0341 52.4292 22.3705 52.3966 22.7035C52.3669 22.967 52.2632 23.2098 52.1565 23.4456C52.0171 23.7543 51.8067 23.997 51.5903 24.2294C51.4213 24.4098 51.2256 24.5415 51.027 24.6768C50.8017 24.8329 50.5438 24.8675 50.3155 25.0097C50.2503 25.0479 50.1614 25.0305 50.0843 25.0375C49.9183 25.0513 49.8501 25.1346 49.8501 25.3288C49.8501 25.5958 49.8501 25.8629 49.8501 26.1265C49.8501 26.286 49.7968 26.3658 49.6515 26.3554C49.4736 26.3449 49.2958 26.3554 49.1179 26.3554C48.9104 26.3554 48.9015 26.3415 48.8985 26.0883C48.8985 25.8768 48.8985 25.6687 48.8985 25.4571C48.8985 25.2664 48.8185 25.1762 48.6584 25.1727C48.439 25.1658 48.2167 25.1381 48.0003 25.1554C47.6712 25.1831 47.3629 25.0652 47.0487 25.0063C46.7523 24.9508 46.4529 24.8294 46.1772 24.6629C46.0971 24.604 46.0527 24.5138 46.0527 24.3993C46.0527 24.0595 46.0527 23.7196 46.0527 23.3763C46.0527 23.3173 46.0438 23.2445 46.109 23.2167C46.1653 23.1959 46.2068 23.2167 46.2631 23.2583C46.3758 23.3416 46.5121 23.3728 46.6337 23.4318C46.8946 23.5601 47.1673 23.6641 47.4371 23.7751C47.4459 23.7786 47.4578 23.782 47.4667 23.782C47.8254 23.8063 48.1693 23.952 48.5339 23.9485C48.8837 23.945 48.8837 23.9658 48.8837 23.5358C48.8837 23.0225 48.8837 22.5092 48.8837 21.996ZM48.8837 16.8597C48.8837 16.4158 48.8837 15.9684 48.8837 15.5245C48.8837 15.3719 48.8363 15.3164 48.7058 15.3234C48.5962 15.3268 48.5132 15.4031 48.4153 15.4274C48.1811 15.4898 47.9973 15.6459 47.8254 15.8262C47.6149 16.0482 47.5141 16.3638 47.5201 16.6724C47.526 16.9811 47.6416 17.2794 47.8254 17.5291C48.0626 17.8516 48.3649 18.0701 48.6466 18.3233C48.6969 18.3683 48.7622 18.3891 48.8274 18.3579C48.8956 18.3233 48.8807 18.2435 48.8807 18.1776C48.8807 17.7371 48.8807 17.3002 48.8807 16.8597H48.8837ZM49.8412 22.3289C49.8412 22.7624 49.8412 23.1959 49.8412 23.6294C49.8412 23.6849 49.8412 23.7404 49.8501 23.7959C49.8561 23.834 49.8649 23.8826 49.9242 23.8514C50.1229 23.7439 50.3422 23.6745 50.5231 23.5358C50.8373 23.2896 50.9885 22.8977 51.0418 22.478C51.0952 22.0549 50.944 21.6838 50.6831 21.4029C50.4904 21.1948 50.2711 21.011 50.0458 20.8446C49.9924 20.8029 49.942 20.7787 49.8887 20.7995C49.8234 20.8203 49.8412 20.9 49.8412 20.959C49.8412 21.4168 49.8412 21.8746 49.8412 22.3324V22.3289Z" fill="#20685D"/>
<defs>
<radialGradient id="paint0_radial_1744_3255" cx="0" cy="0" r="1" gradientUnits="userSpaceOnUse" gradientTransform="translate(79.2105 82.8947) rotate(-131.009) scale(140.366)">
<stop stop-color="#9FD19A"/>
<stop offset="0.48" stop-color="#51B478"/>
<stop offset="1" stop-color="#186057"/>
</radialGradient>
</defs>
</svg>
