<svg width="92" height="70" viewBox="0 0 92 70" fill="none" xmlns="http://www.w3.org/2000/svg">
<path d="M5.50565 -0.000173418L63.7286 -0.000168328C66.7568 -0.000168063 69.2344 2.47745 69.2344 5.50563L69.2344 63.7286C69.2344 66.7568 66.7568 69.2344 63.7286 69.2344L5.50564 69.2344C2.47745 69.2344 -0.000160001 66.7568 -0.000159736 63.7286L-0.000154646 5.50563C-0.000154381 2.47744 2.47745 -0.000173683 5.50565 -0.000173418Z" fill="#CAB2D6"/>
<path d="M28.2044 -0.000173418L86.4273 -0.000168328C89.4555 -0.000168063 91.9331 2.47745 91.9331 5.50563L91.9331 63.7286C91.9331 66.7568 89.4555 69.2344 86.4273 69.2344L28.2044 69.2344C25.1762 69.2344 22.6986 66.7568 22.6986 63.7286L22.6986 5.50563C22.6986 2.47744 25.1762 -0.000173683 28.2044 -0.000173418Z" fill="#55317B"/>
<path d="M10.1258 5.69556L12.6309 5.69556C15.6591 5.69556 18.1367 8.17318 18.1367 11.2014L18.1367 58.0333C18.1367 61.0615 15.6591 63.5391 12.6309 63.5391L10.1258 63.5391C7.09759 63.5391 4.61998 61.0615 4.61998 58.0333L4.61998 11.2014C4.61998 8.17317 7.0976 5.69556 10.1258 5.69556Z" fill="#55317B"/>
<path d="M33.905 5.70044L80.7369 5.70045C83.7651 5.70045 86.2427 8.17805 86.2427 11.2062L86.2427 58.0381C86.2427 61.0663 83.7651 63.5439 80.7369 63.5439L33.905 63.5439C30.8768 63.5439 28.3992 61.0663 28.3992 58.0381L28.3992 11.2062C28.3992 8.17805 30.8768 5.70044 33.905 5.70044Z" fill="#CAB2D6"/>
<path d="M67.1817 24.4856C65.8462 23.785 64.0123 24.0428 61.6735 25.2589C59.7799 26.2504 58.6301 27.4597 58.2316 28.8807C58.1784 29.0726 58.1983 29.2772 58.2848 29.4953C58.7567 30.5332 60.431 31.1212 63.3214 31.2666C66.2049 31.4186 67.7333 32.139 67.906 33.4278C68.2516 35.9724 67.7131 37.8099 66.2914 38.9466C62.3579 42.0859 57.9062 43.7515 52.9361 43.9433C46.7569 44.1878 43.4612 41.8746 43.0427 37.01C42.8368 34.558 43.375 32.0267 44.6639 29.4226C45.3483 28.0147 46.139 26.7459 47.0359 25.6288C47.4678 25.0802 47.8134 24.9613 48.0791 25.2587C48.3448 25.5561 48.2651 26.0122 47.833 26.6335C45.501 30.0638 44.7566 32.8661 45.6137 35.0339C46.6901 37.77 49.2482 39.1118 53.2881 39.0456C58.0854 38.9531 61.979 37.77 64.9622 35.503C64.3443 35.2784 63.0353 35.1064 61.0552 34.9742C58.4706 34.7957 56.9357 34.0224 56.4507 32.6543C55.9589 31.2862 55.9856 29.8454 56.517 28.3384C57.673 25.0666 59.4804 22.5486 61.9455 20.764C64.0385 19.2703 65.8525 18.7217 67.3872 19.1316C68.9287 19.5348 69.3605 20.9822 68.7028 23.4739C68.4174 24.5119 67.9125 24.8424 67.1817 24.4856ZM56.0125 46.6531C56.1719 46.4349 56.3977 46.369 56.6969 46.4615C57.7867 46.8446 58.7567 47.4131 59.6138 48.1666C59.8331 48.3848 59.8729 48.6227 59.7333 48.8805L57.8265 51.8812C57.6138 52.1523 57.3879 52.1854 57.1353 51.987C56.8762 51.7887 56.1784 51.3393 55.0224 50.6455L53.6803 52.7736C53.4675 53.0447 53.2283 53.071 52.9561 52.8596C52.6836 52.6482 51.7269 52.0467 50.0791 51.0685C49.8066 50.9033 49.7602 50.6783 49.9394 50.4075L51.8663 47.5457C52.0259 47.3276 52.2517 47.2616 52.5507 47.3539C53.3548 47.6315 54.0922 48.0149 54.77 48.4908L56.0125 46.6531Z" fill="#6A3D9A"/>
</svg>
