<svg width="39" height="39" viewBox="0 0 39 39" fill="none" xmlns="http://www.w3.org/2000/svg">
<g filter="url(#filter0_d_1319_304)">
<circle cx="19.5" cy="18.5" r="15.5" fill="white"/>
<circle cx="19.5" cy="18.5" r="15" stroke="#FDFDFD"/>
</g>
<path d="M14.964 17.5947C15.9301 17.6139 16.9287 17.852 17.9369 18.1016C20.4236 18.7179 22.8729 19.4534 25.4357 19.8388C25.6967 19.8781 25.9657 19.8808 26.2277 19.917C26.6335 19.9733 26.7278 20.1139 26.6314 20.4498C26.5313 20.7977 26.2794 21.0089 25.8831 21.1389C25.1503 21.38 24.426 21.3867 23.6729 21.2001C22.4586 20.8991 21.2608 20.5512 20.0268 20.3064C19.2061 20.1439 18.3821 19.9951 17.5316 20.0175C17.0832 20.0291 16.6523 20.105 16.2566 20.2921C16.0824 20.3743 15.9743 20.4833 16.083 20.6548C16.1911 20.8258 16.3418 20.8138 16.5287 20.728C17.1567 20.4386 17.8352 20.4904 18.5057 20.5614C19.9203 20.7106 21.2608 21.1089 22.6189 21.4475C23.0774 21.5618 23.5397 21.6641 24.0031 21.7641C24.9074 21.9597 25.7452 21.7824 26.5329 21.4095C27.1699 21.1081 27.417 20.3341 27.0735 19.7727C27.0287 19.6995 27.0415 19.6736 27.1102 19.6316C28.2862 18.9113 29.3023 18.0306 30.4607 17.291C31.0274 16.9293 31.3927 16.8958 31.9813 17.241C32.1373 17.3326 32.2875 17.275 32.3919 17.2473C32.6342 17.183 32.7642 17.2634 32.8733 17.4089C33.1002 17.7122 33.0587 18.2342 32.7972 18.5205C32.0798 19.3056 31.3374 20.0755 30.6572 20.8825C30.3334 21.2666 30.049 21.6605 29.5665 21.9235C28.9412 22.2643 28.2718 22.5389 27.6204 22.8399C26.371 23.4169 25.1279 24.006 23.8582 24.5504C22.7302 25.0336 21.5191 25.1582 20.3314 24.7536C19.0335 24.3115 17.6924 24.0243 16.3365 23.7639C16.0254 23.7045 15.708 23.6572 15.4098 23.5674C14.7238 23.3611 14.0469 23.4218 13.37 23.5786C12.0869 23.8756 10.9089 24.374 9.77125 24.9407C9.56834 25.0416 9.48099 25.0113 9.35051 24.8684C8.25178 23.6661 7.49923 22.325 7.0199 20.8691C6.96664 20.7075 7.01883 20.6516 7.19406 20.6016C8.68317 20.1783 10.0631 19.5959 11.2822 18.7429C11.9543 18.2726 12.6962 17.868 13.5798 17.7055C14.0064 17.6269 14.4378 17.592 14.9645 17.5938L14.964 17.5947Z" fill="#EBB968"/>
<path d="M28.1019 14.0866C26.153 13.9839 24.9009 14.9547 24.3239 17C24.0104 15.9075 23.568 14.8971 22.5478 14.1764C22.2763 13.9847 21.9991 13.7365 21.5893 13.724C22.1219 14.0036 22.5562 14.3686 22.9217 14.7956C23.1403 15.0514 23.3216 15.3254 23.4472 15.6243C23.476 15.6932 23.5029 15.7645 23.5156 15.837C23.5742 16.1625 23.4826 16.2535 23.103 16.2559C22.3589 16.2604 21.7801 15.8616 21.5232 15.1622C21.4458 14.9511 21.3943 14.7328 21.3051 14.5257C21.061 13.9577 20.7041 13.4654 20.0105 13.206C20.679 13.1464 21.3325 13.1939 21.9708 13.3627C22.6153 13.5331 23.1752 13.8187 23.6034 14.2735C24.0303 14.7267 24.255 15.2512 24.3253 15.8567C24.8999 15.1558 25.0029 14.4024 24.6979 13.484C24.6006 13.1911 24.432 12.9329 24.2503 12.6787C24.2092 12.6215 24.1662 12.5292 24.0279 12.5377C24.0477 12.6815 24.1573 12.7886 24.2215 12.9071C24.4646 13.3546 24.5713 13.8219 24.5524 14.3122C24.543 14.5555 24.4193 14.6119 24.1766 14.4814C23.874 14.3187 23.6813 14.0725 23.5147 13.8119C23.2829 13.4489 23.1577 13.0553 23.0737 12.6501C22.9203 11.9104 22.7121 11.5446 22.17 11C23.1327 11.1889 24.0066 11.5253 24.5883 12.2452C25.1686 12.9635 25.1842 13.7913 25.0916 14.618C25.1417 14.6377 25.1657 14.6212 25.187 14.601C26.0675 13.7672 27.1898 13.577 28.4334 13.7168C29.1949 13.8022 29.9168 14.0048 30.6184 14.2675C30.7129 14.3029 30.7733 14.3654 30.8526 14.4113C30.77 14.4758 30.6741 14.4395 30.584 14.4347C29.634 14.3855 28.8248 14.6566 28.1459 15.2182C27.5963 15.673 26.9523 15.9776 26.203 16.1149C26.0732 16.1387 25.9377 16.1564 25.806 16.152C25.2484 16.1339 25.1469 15.9147 25.2923 15.5018C25.415 15.1525 25.7394 14.9241 26.0878 14.7324C26.6161 14.4419 27.2016 14.2703 27.8097 14.1487C27.8904 14.1325 27.9712 14.1148 28.1019 14.0874V14.0866Z" fill="#3C987A"/>
<path d="M18.9263 17.6738C19.5782 17.1687 20.3374 17.0619 21.1495 17.3571C21.2807 17.4046 21.3626 17.4001 21.4805 17.3424C22.5485 16.8203 23.7038 16.8958 24.6227 17.5654C24.8257 17.7132 24.9664 17.7253 25.2249 17.6494C26.0836 17.3977 26.8788 17.5085 27.6 17.9811C27.0924 18.3238 26.6086 18.6673 26.0323 18.9215C25.8837 18.9869 25.733 19.0104 25.5549 18.9958C24.1025 18.8781 22.7204 18.5321 21.3256 18.2304C20.5315 18.0587 19.7453 17.8646 18.9268 17.6738H18.9263Z" fill="#8B5F3C"/>
<defs>
<filter id="filter0_d_1319_304" x="0" y="0" width="39" height="39" filterUnits="userSpaceOnUse" color-interpolation-filters="sRGB">
<feFlood flood-opacity="0" result="BackgroundImageFix"/>
<feColorMatrix in="SourceAlpha" type="matrix" values="0 0 0 0 0 0 0 0 0 0 0 0 0 0 0 0 0 0 127 0" result="hardAlpha"/>
<feOffset dy="1"/>
<feGaussianBlur stdDeviation="2"/>
<feComposite in2="hardAlpha" operator="out"/>
<feColorMatrix type="matrix" values="0 0 0 0 0 0 0 0 0 0 0 0 0 0 0 0 0 0 0.25 0"/>
<feBlend mode="normal" in2="BackgroundImageFix" result="effect1_dropShadow_1319_304"/>
<feBlend mode="normal" in="SourceGraphic" in2="effect1_dropShadow_1319_304" result="shape"/>
</filter>
</defs>
</svg>
