<svg width="306" height="363" viewBox="0 0 306 363" fill="none" xmlns="http://www.w3.org/2000/svg">
<path d="M0.000244141 76C0.000244141 64.9543 8.95455 56 20.0002 56H286C297.046 56 306 64.9543 306 76V363H0.000244141V76Z" fill="#BDE5FF"/>
<path d="M80.3125 283.105L74.3125 266.23H74.2188V283.105H71.4062V263.887H76.1875L81.625 279.918H81.7188L86.9688 263.887H91.8438V283.105H88.9375V266.23H88.8438C88.4688 267.668 86.5625 273.293 83.125 283.105H80.3125ZM96.5312 275.043V263.887H99.5312V275.043C99.5312 279.105 101.25 281.105 104.688 281.043C108.125 281.043 109.844 279.012 109.844 274.949V263.887H112.844V274.949C112.844 280.574 110.094 283.387 104.594 283.387C99.2188 283.387 96.5312 280.605 96.5312 275.043ZM133.094 283.105H130.094V274.574H119.875V283.105H116.969V263.887H119.875V272.043H130.094V263.887H133.094V283.105ZM146.312 263.887L154 283.105H150.812L148.844 277.949H140.312L138.344 283.105H135.156L142.844 263.887H146.312ZM144.625 266.418H144.531C144.344 266.98 144.156 267.543 143.969 268.105C143.906 268.23 142.938 270.73 141.062 275.605H148.094C146.219 270.73 145.25 268.23 145.188 268.105C145.188 268.043 145.156 267.918 145.094 267.73C144.781 266.98 144.625 266.543 144.625 266.418ZM173.125 283.105H169.375L163.469 275.137H159.062V283.105H156.156V263.887H165.062C169.375 264.012 171.656 265.855 171.906 269.418C171.906 272.668 170.125 274.512 166.562 274.949L173.125 283.105ZM159.062 266.23V272.793H164.406C167.406 272.793 168.875 271.699 168.812 269.512C168.812 267.324 167.344 266.23 164.406 266.23H159.062ZM192.531 283.105H188.781L182.875 275.137H178.469V283.105H175.562V263.887H184.469C188.781 264.012 191.062 265.855 191.312 269.418C191.312 272.668 189.531 274.512 185.969 274.949L192.531 283.105ZM178.469 266.23V272.793H183.812C186.812 272.793 188.281 271.699 188.219 269.512C188.219 267.324 186.75 266.23 183.812 266.23H178.469ZM203.969 263.887L211.656 283.105H208.469L206.5 277.949H197.969L196 283.105H192.812L200.5 263.887H203.969ZM202.281 266.418H202.188C202 266.98 201.812 267.543 201.625 268.105C201.562 268.23 200.594 270.73 198.719 275.605H205.75C203.875 270.73 202.906 268.23 202.844 268.105C202.844 268.043 202.812 267.918 202.75 267.73C202.438 266.98 202.281 266.543 202.281 266.418ZM221.969 283.105L215.969 266.23H215.875V283.105H213.062V263.887H217.844L223.281 279.918H223.375L228.625 263.887H233.5V283.105H230.594V266.23H230.5C230.125 267.668 228.219 273.293 224.781 283.105H221.969Z" fill="#242424"/>
<path d="M184.938 186.473C167.232 192.529 152.008 206.501 132.244 200.191C129.735 205.994 128.071 211.628 125.083 216.417C119.275 225.825 104.586 226.727 97.1708 218.501C96.4096 217.656 95.9303 215.825 96.325 214.867C96.7197 213.938 98.3832 213.121 99.5391 213.036C103.035 212.783 106.588 213.29 110.027 212.867C121.587 211.431 127.366 200.698 121.756 190.839C118.429 184.98 119.19 180.529 124.716 176.67C128.522 180.98 131.595 187.712 135.712 188.417C143.69 189.769 152.29 188.135 160.522 186.896C165.005 186.22 169.234 183.853 174.647 181.853C164.582 175.656 154.883 173.543 144.395 176.248C143.521 169.543 146.341 165.29 152.402 164.445C155.504 164.022 159 164.417 161.96 165.431C174.393 169.712 185.981 177.065 200.416 173.403C200.754 174.22 201.121 175.008 201.459 175.825C199.26 179.572 197.061 183.318 194.665 187.403C198.64 191.262 210.566 190.529 214.71 184.811C216.487 182.36 217.812 179.628 219.475 177.093C224.353 169.628 229.681 166.839 235.489 168.642C241.325 170.445 245.921 178.755 245.329 186.36C244.342 198.896 235.405 204.614 223.817 199.684C219.644 197.91 216.571 197.741 212.286 199.797C200.106 205.656 187.616 199.741 184.966 186.417L184.938 186.473ZM222.379 187.177C226.411 188.022 229.597 188.98 232.839 189.234C234.361 189.346 236.927 188.445 237.35 187.403C237.857 186.079 237.012 183.797 236.025 182.445C232.19 177.234 227.877 178.332 222.379 187.205V187.177Z" fill="#08456D"/>
<path d="M91.1349 187.767C87.4979 176.133 82.1975 174.838 74.1623 182.697C73.4574 183.373 71.8504 184.105 71.3429 183.767C70.3843 183.119 69.3975 181.795 69.313 180.669C68.6363 171.739 80.5622 163.908 88.7666 167.767C95.1666 170.781 100.805 182.105 99.311 189.007C97.4784 197.598 94.208 200.021 85.2142 199.486C67.0575 198.415 67.283 198.556 70.1306 216.021C71.3429 223.598 70.4125 231.514 70.2152 239.288C70.187 240.556 68.8619 241.824 66.3526 242.979C65.5632 238.894 64.7456 234.81 64.0125 230.725C62.8284 224.359 61.8134 217.965 60.5447 211.626C57.8381 197.908 65.394 188.246 79.2935 187.852C83.1561 187.739 87.0468 187.852 91.1631 187.852L91.1349 187.767Z" fill="#08456D"/>
<path d="M220.711 158.98C224.545 156.304 227.139 154.529 230.24 152.36C225.391 148.698 224.151 144.36 228.098 139.796C231.002 136.444 235.174 135.627 237.204 140.022C238.868 143.656 240.249 149.543 238.445 152.191C235.118 157.064 230.212 162.304 220.711 158.923V158.98Z" fill="#08456D"/>
<path d="M124.315 154.949C125.95 158.02 126.711 159.4 127.783 161.4C130.01 158.527 131.194 157.006 132.463 155.372C133.168 155.822 134.126 156.104 134.239 156.555C135.649 163.118 133.14 166.724 126.542 167.766C125.189 167.991 123.808 168.668 122.511 168.527C119.748 168.189 115.97 168.301 114.588 166.639C113.038 164.724 113.658 161.062 113.348 158.16L115.208 157.569C116.59 158.808 117.971 160.02 120.875 162.583C121.862 160.414 122.877 158.16 124.315 154.949Z" fill="#08456D"/>
<path d="M114.141 154.446C116.396 147.263 118.567 145.826 133.143 141.234C133.03 148.079 128.999 150.953 114.141 154.446Z" fill="#08456D"/>
<path d="M182.845 145.203C180.787 155.485 170.948 154.274 164.266 157.851C166.549 148.133 176.022 148.583 182.845 145.203Z" fill="#08456D"/>
<g filter="url(#filter0_d_3069_56)">
<circle cx="153" cy="64" r="64" fill="url(#paint0_radial_3069_56)"/>
<circle cx="153" cy="64" r="64" stroke="white"/>
<g filter="url(#filter1_d_3069_56)">
<path d="M190.922 44.7022V97.1518C190.922 100.714 188.031 103.602 184.465 103.602H120.762C117.196 103.602 114.305 100.714 114.305 97.1518V44.7022L116.363 42.6057H188.582L190.922 44.7022Z" fill="white"/>
<path d="M190.922 33.4646V44.8409H114.305V33.4646C114.305 29.8879 117.173 26.9883 120.71 26.9883H184.517C188.054 26.9883 190.922 29.8879 190.922 33.4641L190.922 33.4646Z" fill="url(#paint1_linear_3069_56)"/>
<path d="M127.127 36.3625C128.431 36.3625 129.488 35.3055 129.488 34.0016C129.488 32.6977 128.431 31.6406 127.127 31.6406C125.823 31.6406 124.766 32.6977 124.766 34.0016C124.766 35.3055 125.823 36.3625 127.127 36.3625Z" fill="url(#paint2_radial_3069_56)"/>
<path d="M127.13 23.8164H127.129C126.342 23.8164 125.703 24.4548 125.703 25.2422V33.1849C125.703 33.9723 126.342 34.6107 127.129 34.6107H127.13C127.917 34.6107 128.556 33.9723 128.556 33.1849V25.2422C128.556 24.4548 127.917 23.8164 127.13 23.8164Z" fill="url(#paint3_linear_3069_56)"/>
<path d="M144.096 36.3625C145.399 36.3625 146.457 35.3055 146.457 34.0016C146.457 32.6977 145.399 31.6406 144.096 31.6406C142.792 31.6406 141.735 32.6977 141.735 34.0016C141.735 35.3055 142.792 36.3625 144.096 36.3625Z" fill="url(#paint4_radial_3069_56)"/>
<path d="M144.098 23.8164H144.098C143.31 23.8164 142.672 24.4548 142.672 25.2422V33.1849C142.672 33.9723 143.31 34.6107 144.098 34.6107H144.098C144.886 34.6107 145.524 33.9723 145.524 33.1849V25.2422C145.524 24.4548 144.886 23.8164 144.098 23.8164Z" fill="url(#paint5_linear_3069_56)"/>
<path d="M161.06 36.3625C162.364 36.3625 163.421 35.3055 163.421 34.0016C163.421 32.6977 162.364 31.6406 161.06 31.6406C159.756 31.6406 158.699 32.6977 158.699 34.0016C158.699 35.3055 159.756 36.3625 161.06 36.3625Z" fill="url(#paint6_radial_3069_56)"/>
<path d="M161.063 23.8164H161.063C160.275 23.8164 159.637 24.4548 159.637 25.2422V33.1849C159.637 33.9723 160.275 34.6107 161.063 34.6107H161.063C161.851 34.6107 162.489 33.9723 162.489 33.1849V25.2422C162.489 24.4548 161.851 23.8164 161.063 23.8164Z" fill="url(#paint7_linear_3069_56)"/>
<path d="M178.037 36.3625C179.341 36.3625 180.398 35.3055 180.398 34.0016C180.398 32.6977 179.341 31.6406 178.037 31.6406C176.733 31.6406 175.676 32.6977 175.676 34.0016C175.676 35.3055 176.733 36.3625 178.037 36.3625Z" fill="url(#paint8_radial_3069_56)"/>
<path d="M178.04 23.8164H178.039C177.252 23.8164 176.614 24.4548 176.614 25.2422V33.1849C176.614 33.9723 177.252 34.6107 178.039 34.6107H178.04C178.827 34.6107 179.466 33.9723 179.466 33.1849V25.2422C179.466 24.4548 178.827 23.8164 178.04 23.8164Z" fill="url(#paint9_linear_3069_56)"/>
</g>
<path d="M145.052 86.892C144.62 86.892 144.176 86.868 143.72 86.82C143.288 86.748 142.856 86.628 142.424 86.46C141.776 86.196 141.152 85.848 140.552 85.416C139.976 84.96 139.448 84.456 138.968 83.904C137.816 82.608 136.94 81.084 136.34 79.332C135.74 77.556 135.44 75.756 135.44 73.932C135.44 71.436 135.92 69.024 136.88 66.696C137.048 66.288 137.264 65.856 137.528 65.4C137.816 64.944 138.128 64.512 138.464 64.104C138.824 63.672 139.184 63.288 139.544 62.952C139.928 62.616 140.312 62.364 140.696 62.196C141.224 61.956 141.8 61.716 142.424 61.476C143.192 61.236 144.056 61.128 145.016 61.152C145.976 61.176 146.852 61.284 147.644 61.476C148.748 61.74 149.696 62.22 150.488 62.916C151.28 63.588 151.952 64.404 152.504 65.364C153.056 66.3 153.488 67.332 153.8 68.46C154.112 69.564 154.34 70.692 154.484 71.844C154.58 72.612 154.616 73.38 154.592 74.148C154.568 74.892 154.508 75.648 154.412 76.416C154.316 77.112 154.196 77.808 154.052 78.504C153.932 79.2 153.764 79.872 153.548 80.52C153.332 81.168 153.056 81.792 152.72 82.392C152.384 82.968 151.964 83.508 151.46 84.012C150.548 84.9 149.552 85.596 148.472 86.1C147.416 86.58 146.276 86.844 145.052 86.892ZM145.016 65.904C144.68 65.904 144.344 65.94 144.008 66.012C143.696 66.06 143.396 66.18 143.108 66.372C142.772 66.588 142.472 66.852 142.208 67.164C141.944 67.476 141.716 67.8 141.524 68.136C141.02 69 140.672 69.924 140.48 70.908C140.288 71.892 140.192 72.888 140.192 73.896C140.192 74.928 140.3 75.996 140.516 77.1C140.756 78.204 141.176 79.212 141.776 80.124C142.064 80.556 142.4 80.94 142.784 81.276C143.192 81.588 143.66 81.816 144.188 81.96C144.668 82.08 145.148 82.116 145.628 82.068C146.132 82.02 146.6 81.864 147.032 81.6C147.728 81.168 148.28 80.592 148.688 79.872C149.096 79.152 149.396 78.372 149.588 77.532C149.804 76.692 149.924 75.828 149.948 74.94C149.996 74.052 149.996 73.248 149.948 72.528C149.9 71.808 149.78 71.052 149.588 70.26C149.396 69.468 149.108 68.748 148.724 68.1C148.364 67.452 147.872 66.924 147.248 66.516C146.648 66.084 145.904 65.88 145.016 65.904ZM163.531 61.008C163.699 60.96 163.855 60.924 163.999 60.9C164.143 60.852 164.287 60.816 164.431 60.792C164.599 60.744 164.803 60.72 165.043 60.72C165.307 60.696 165.547 60.708 165.763 60.756C166.003 60.78 166.219 60.852 166.411 60.972C166.627 61.068 166.783 61.224 166.879 61.44C166.975 61.68 167.035 61.968 167.059 62.304C167.107 62.616 167.131 62.94 167.131 63.276C167.131 63.612 167.119 63.948 167.095 64.284C167.095 64.596 167.095 64.884 167.095 65.148V83.544C167.095 83.808 167.095 84.084 167.095 84.372C167.119 84.636 167.119 84.912 167.095 85.2C167.071 85.488 166.999 85.764 166.879 86.028C166.759 86.268 166.579 86.472 166.339 86.64C166.003 86.904 165.547 87.036 164.971 87.036C164.419 87.06 163.939 87 163.531 86.856C163.099 86.712 162.835 86.436 162.739 86.028C162.667 85.62 162.631 85.212 162.631 84.804C162.463 81.636 162.379 78.54 162.379 75.516C162.403 72.468 162.415 69.336 162.415 66.12C162.367 66.24 162.199 66.348 161.911 66.444C161.647 66.54 161.335 66.624 160.975 66.696C160.639 66.768 160.315 66.828 160.003 66.876C159.691 66.924 159.487 66.948 159.391 66.948C158.767 67.02 158.191 66.96 157.663 66.768C157.159 66.552 156.871 66.072 156.799 65.328C156.703 64.56 156.871 63.96 157.303 63.528C157.759 63.096 158.335 62.772 159.031 62.556C159.799 62.292 160.543 62.028 161.263 61.764C162.007 61.476 162.763 61.224 163.531 61.008Z" fill="black"/>
</g>
<line x1="68.5862" y1="303.473" x2="-2.29319e-05" y2="303.473" stroke="url(#paint10_linear_3069_56)"/>
<line x1="237.414" y1="303.527" x2="306.001" y2="303.527" stroke="url(#paint11_linear_3069_56)"/>
<rect x="62.2542" y="300.863" width="182.545" height="5.27586" rx="2.63793" fill="url(#paint12_radial_3069_56)"/>
<defs>
<filter id="filter0_d_3069_56" x="87.0002" y="0" width="132" height="132" filterUnits="userSpaceOnUse" color-interpolation-filters="sRGB">
<feFlood flood-opacity="0" result="BackgroundImageFix"/>
<feColorMatrix in="SourceAlpha" type="matrix" values="0 0 0 0 0 0 0 0 0 0 0 0 0 0 0 0 0 0 127 0" result="hardAlpha"/>
<feOffset dy="2"/>
<feGaussianBlur stdDeviation="1"/>
<feComposite in2="hardAlpha" operator="out"/>
<feColorMatrix type="matrix" values="0 0 0 0 0 0 0 0 0 0 0 0 0 0 0 0 0 0 0.25 0"/>
<feBlend mode="normal" in2="BackgroundImageFix" result="effect1_dropShadow_3069_56"/>
<feBlend mode="normal" in="SourceGraphic" in2="effect1_dropShadow_3069_56" result="shape"/>
</filter>
<filter id="filter1_d_3069_56" x="112.305" y="23.8164" width="80.6174" height="83.7856" filterUnits="userSpaceOnUse" color-interpolation-filters="sRGB">
<feFlood flood-opacity="0" result="BackgroundImageFix"/>
<feColorMatrix in="SourceAlpha" type="matrix" values="0 0 0 0 0 0 0 0 0 0 0 0 0 0 0 0 0 0 127 0" result="hardAlpha"/>
<feOffset dy="2"/>
<feGaussianBlur stdDeviation="1"/>
<feComposite in2="hardAlpha" operator="out"/>
<feColorMatrix type="matrix" values="0 0 0 0 0 0 0 0 0 0 0 0 0 0 0 0 0 0 0.25 0"/>
<feBlend mode="normal" in2="BackgroundImageFix" result="effect1_dropShadow_3069_56"/>
<feBlend mode="normal" in="SourceGraphic" in2="effect1_dropShadow_3069_56" result="shape"/>
</filter>
<radialGradient id="paint0_radial_3069_56" cx="0" cy="0" r="1" gradientUnits="userSpaceOnUse" gradientTransform="translate(153 64) rotate(90) scale(64)">
<stop stop-color="#F0F8FD"/>
<stop offset="1" stop-color="#0D5D91"/>
</radialGradient>
<linearGradient id="paint1_linear_3069_56" x1="152.613" y1="28.0407" x2="152.613" y2="44.7583" gradientUnits="userSpaceOnUse">
<stop stop-color="#E85F43"/>
<stop offset="1" stop-color="#E83636"/>
</linearGradient>
<radialGradient id="paint2_radial_3069_56" cx="0" cy="0" r="1" gradientUnits="userSpaceOnUse" gradientTransform="translate(127.127 34.0016) scale(2.36095)">
<stop stop-color="#8C1F1F"/>
<stop offset="0.84" stop-color="#450F0F"/>
<stop offset="1" stop-color="#2B0808"/>
</radialGradient>
<linearGradient id="paint3_linear_3069_56" x1="125.703" y1="29.2136" x2="128.555" y2="29.2136" gradientUnits="userSpaceOnUse">
<stop stop-color="#4F4F4F"/>
<stop offset="0.29" stop-color="#BDBDBD"/>
<stop offset="0.62" stop-color="#BDBDBD"/>
<stop offset="1" stop-color="#4F4F4F"/>
</linearGradient>
<radialGradient id="paint4_radial_3069_56" cx="0" cy="0" r="1" gradientUnits="userSpaceOnUse" gradientTransform="translate(144.096 23.8395) scale(0.0241505)">
<stop stop-color="#8C1F1F"/>
<stop offset="0.84" stop-color="#450F0F"/>
<stop offset="1" stop-color="#2B0808"/>
</radialGradient>
<linearGradient id="paint5_linear_3069_56" x1="142.672" y1="23.8164" x2="145.524" y2="23.8164" gradientUnits="userSpaceOnUse">
<stop stop-color="#4F4F4F"/>
<stop offset="0.29" stop-color="#BDBDBD"/>
<stop offset="0.62" stop-color="#BDBDBD"/>
<stop offset="1" stop-color="#4F4F4F"/>
</linearGradient>
<radialGradient id="paint6_radial_3069_56" cx="0" cy="0" r="1" gradientUnits="userSpaceOnUse" gradientTransform="translate(161.06 23.8395) scale(2.36095)">
<stop stop-color="#8C1F1F"/>
<stop offset="0.84" stop-color="#450F0F"/>
<stop offset="1" stop-color="#2B0808"/>
</radialGradient>
<linearGradient id="paint7_linear_3069_56" x1="159.637" y1="23.8164" x2="162.489" y2="23.8164" gradientUnits="userSpaceOnUse">
<stop stop-color="#4F4F4F"/>
<stop offset="0.29" stop-color="#BDBDBD"/>
<stop offset="0.62" stop-color="#BDBDBD"/>
<stop offset="1" stop-color="#4F4F4F"/>
</linearGradient>
<radialGradient id="paint8_radial_3069_56" cx="0" cy="0" r="1" gradientUnits="userSpaceOnUse" gradientTransform="translate(178.037 23.8395) scale(0.0241505)">
<stop stop-color="#8C1F1F"/>
<stop offset="0.84" stop-color="#450F0F"/>
<stop offset="1" stop-color="#2B0808"/>
</radialGradient>
<linearGradient id="paint9_linear_3069_56" x1="176.614" y1="23.8164" x2="179.466" y2="23.8164" gradientUnits="userSpaceOnUse">
<stop stop-color="#4F4F4F"/>
<stop offset="0.29" stop-color="#BDBDBD"/>
<stop offset="0.62" stop-color="#BDBDBD"/>
<stop offset="1" stop-color="#4F4F4F"/>
</linearGradient>
<linearGradient id="paint10_linear_3069_56" x1="68.5862" y1="302.473" x2="-6.85864" y2="302.473" gradientUnits="userSpaceOnUse">
<stop stop-color="#08456D"/>
<stop offset="0.795" stop-color="#BDE5FF"/>
</linearGradient>
<linearGradient id="paint11_linear_3069_56" x1="237.414" y1="304.527" x2="312.859" y2="304.527" gradientUnits="userSpaceOnUse">
<stop stop-color="#08456D"/>
<stop offset="0.795" stop-color="#BDE5FF"/>
</linearGradient>
<radialGradient id="paint12_radial_3069_56" cx="0" cy="0" r="1" gradientUnits="userSpaceOnUse" gradientTransform="translate(153.527 303.501) scale(91.2724 2.63793)">
<stop stop-color="#08456D"/>
<stop offset="1" stop-color="#1085D3"/>
</radialGradient>
</defs>
</svg>
