<svg width="342" height="192" viewBox="0 0 342 192" fill="none" xmlns="http://www.w3.org/2000/svg">
<path d="M0 37C0 25.9543 8.95431 17 20 17H322C333.046 17 342 25.9543 342 37V172C342 183.046 333.046 192 322 192H20C8.95431 192 0 183.046 0 172V37Z" fill="#F7DFFD"/>
<path d="M28.0909 89.1875C27.9716 88.7727 27.804 88.4062 27.5881 88.0881C27.3722 87.7642 27.108 87.4915 26.7955 87.2699C26.4886 87.0426 26.1364 86.8693 25.7386 86.75C25.3466 86.6307 24.9119 86.571 24.4347 86.571C23.5426 86.571 22.7585 86.7926 22.0824 87.2358C21.4119 87.679 20.8892 88.3239 20.5142 89.1705C20.1392 90.0114 19.9517 91.0398 19.9517 92.2557C19.9517 93.4716 20.1364 94.5057 20.5057 95.358C20.875 96.2102 21.3977 96.8608 22.0739 97.3097C22.75 97.7528 23.5483 97.9744 24.4688 97.9744C25.304 97.9744 26.017 97.8267 26.608 97.5312C27.2045 97.2301 27.6591 96.8068 27.9716 96.2614C28.2898 95.7159 28.4489 95.071 28.4489 94.3267L29.1989 94.4375H24.6989V91.6591H32.0028V93.858C32.0028 95.392 31.679 96.7102 31.0312 97.8125C30.3835 98.9091 29.4915 99.7557 28.3551 100.352C27.2188 100.943 25.9176 101.239 24.4517 101.239C22.8153 101.239 21.3778 100.878 20.1392 100.156C18.9006 99.429 17.9347 98.3977 17.2415 97.0625C16.554 95.7216 16.2102 94.1307 16.2102 92.2898C16.2102 90.875 16.4148 89.6136 16.8239 88.5057C17.2386 87.392 17.8182 86.4489 18.5625 85.6761C19.3068 84.9034 20.1733 84.3153 21.1619 83.9119C22.1506 83.5085 23.2216 83.3068 24.375 83.3068C25.3636 83.3068 26.2841 83.4517 27.1364 83.7415C27.9886 84.0256 28.7443 84.429 29.4034 84.9517C30.0682 85.4744 30.6108 86.0966 31.0312 86.8182C31.4517 87.5341 31.7216 88.3239 31.8409 89.1875H28.0909ZM35.527 101V87.9091H39.1577V101H35.527ZM37.3509 86.2216C36.8111 86.2216 36.348 86.0426 35.9616 85.6847C35.581 85.321 35.3906 84.8864 35.3906 84.3807C35.3906 83.8807 35.581 83.4517 35.9616 83.0938C36.348 82.7301 36.8111 82.5483 37.3509 82.5483C37.8906 82.5483 38.3509 82.7301 38.7315 83.0938C39.1179 83.4517 39.3111 83.8807 39.3111 84.3807C39.3111 84.8864 39.1179 85.321 38.7315 85.6847C38.3509 86.0426 37.8906 86.2216 37.3509 86.2216ZM54.2706 87.9091L49.6939 101H45.603L41.0263 87.9091H44.8615L47.5803 97.2756H47.7166L50.4268 87.9091H54.2706ZM61.6726 101.256C60.326 101.256 59.1669 100.983 58.1953 100.438C57.2294 99.8864 56.4851 99.108 55.9624 98.1023C55.4396 97.0909 55.1783 95.8949 55.1783 94.5142C55.1783 93.1676 55.4396 91.9858 55.9624 90.9688C56.4851 89.9517 57.2209 89.1591 58.1697 88.5909C59.1243 88.0227 60.2436 87.7386 61.5277 87.7386C62.3913 87.7386 63.1953 87.8778 63.9396 88.1562C64.6896 88.429 65.343 88.8409 65.8999 89.392C66.4624 89.9432 66.8999 90.6364 67.2124 91.4716C67.5249 92.3011 67.6811 93.2727 67.6811 94.3864V95.3835H56.6271V93.1335H64.2635C64.2635 92.6108 64.1499 92.1477 63.9226 91.7443C63.6953 91.3409 63.38 91.0256 62.9766 90.7983C62.5788 90.5653 62.1158 90.4489 61.5874 90.4489C61.0362 90.4489 60.5476 90.5767 60.1214 90.8324C59.701 91.0824 59.3714 91.4205 59.1328 91.8466C58.8942 92.267 58.772 92.7358 58.7663 93.2528V95.392C58.7663 96.0398 58.8857 96.5994 59.1243 97.071C59.3686 97.5426 59.7124 97.9062 60.1555 98.1619C60.5987 98.4176 61.1243 98.5455 61.7322 98.5455C62.1357 98.5455 62.505 98.4886 62.8402 98.375C63.1754 98.2614 63.4624 98.0909 63.701 97.8636C63.9396 97.6364 64.1214 97.358 64.2464 97.0284L67.6044 97.25C67.4339 98.0568 67.0845 98.7614 66.5561 99.3636C66.0334 99.9602 65.3572 100.426 64.5277 100.761C63.7038 101.091 62.7521 101.256 61.6726 101.256ZM91.0739 89.6562H87.3409C87.2727 89.1733 87.1335 88.7443 86.9233 88.3693C86.7131 87.9886 86.4432 87.6648 86.1136 87.3977C85.7841 87.1307 85.4034 86.9261 84.9716 86.7841C84.5455 86.642 84.0824 86.571 83.5824 86.571C82.679 86.571 81.892 86.7955 81.2216 87.2443C80.5511 87.6875 80.0313 88.3352 79.6619 89.1875C79.2926 90.0341 79.108 91.0625 79.108 92.2727C79.108 93.517 79.2926 94.5625 79.6619 95.4091C80.0369 96.2557 80.5597 96.8949 81.2301 97.3267C81.9006 97.7585 82.6761 97.9744 83.5568 97.9744C84.0511 97.9744 84.5085 97.9091 84.929 97.7784C85.3551 97.6477 85.733 97.4574 86.0625 97.2074C86.392 96.9517 86.6648 96.642 86.8807 96.2784C87.1023 95.9148 87.2557 95.5 87.3409 95.0341L91.0739 95.0511C90.9773 95.8523 90.7358 96.625 90.3494 97.3693C89.9688 98.108 89.4545 98.7699 88.8068 99.3551C88.1648 99.9347 87.3977 100.395 86.5057 100.736C85.6193 101.071 84.6165 101.239 83.4972 101.239C81.9403 101.239 80.5483 100.886 79.321 100.182C78.0994 99.4773 77.1335 98.4574 76.4233 97.1222C75.7188 95.7869 75.3665 94.1705 75.3665 92.2727C75.3665 90.3693 75.7244 88.75 76.4403 87.4148C77.1563 86.0795 78.1278 85.0625 79.3551 84.3636C80.5824 83.6591 81.9631 83.3068 83.4972 83.3068C84.5085 83.3068 85.446 83.4489 86.3097 83.733C87.179 84.017 87.9489 84.4318 88.6193 84.9773C89.2898 85.517 89.8352 86.179 90.2557 86.9631C90.6818 87.7472 90.9545 88.6449 91.0739 89.6562ZM97.2827 93.4318V101H93.652V83.5455H97.1804V90.2188H97.3338C97.6293 89.446 98.1065 88.8409 98.7656 88.4034C99.4247 87.9602 100.251 87.7386 101.246 87.7386C102.155 87.7386 102.947 87.9375 103.624 88.3352C104.305 88.7273 104.834 89.2926 105.209 90.0312C105.589 90.7642 105.777 91.642 105.771 92.6648V101H102.141V93.3125C102.146 92.5057 101.942 91.8778 101.527 91.429C101.118 90.9801 100.544 90.7557 99.8054 90.7557C99.3111 90.7557 98.8736 90.8608 98.4929 91.071C98.1179 91.2812 97.8224 91.5881 97.6065 91.9915C97.3963 92.3892 97.2884 92.8693 97.2827 93.4318ZM112.362 101.247C111.526 101.247 110.782 101.102 110.129 100.812C109.475 100.517 108.958 100.082 108.577 99.5085C108.202 98.929 108.015 98.2074 108.015 97.3438C108.015 96.6165 108.148 96.0057 108.415 95.5114C108.683 95.017 109.046 94.6193 109.506 94.3182C109.967 94.017 110.489 93.7898 111.075 93.6364C111.665 93.483 112.285 93.375 112.933 93.3125C113.694 93.233 114.308 93.1591 114.773 93.0909C115.239 93.017 115.577 92.9091 115.788 92.767C115.998 92.625 116.103 92.4148 116.103 92.1364V92.0852C116.103 91.5455 115.933 91.1278 115.592 90.8324C115.256 90.5369 114.779 90.3892 114.16 90.3892C113.506 90.3892 112.987 90.5341 112.6 90.8239C112.214 91.108 111.958 91.4659 111.833 91.8977L108.475 91.625C108.646 90.8295 108.981 90.142 109.481 89.5625C109.981 88.9773 110.626 88.5284 111.415 88.2159C112.211 87.8977 113.131 87.7386 114.177 87.7386C114.904 87.7386 115.6 87.8239 116.265 87.9943C116.935 88.1648 117.529 88.429 118.046 88.7869C118.569 89.1449 118.981 89.6051 119.282 90.1676C119.583 90.7244 119.734 91.392 119.734 92.1705V101H116.29V99.1847H116.188C115.978 99.5938 115.697 99.9545 115.344 100.267C114.992 100.574 114.569 100.815 114.075 100.991C113.58 101.162 113.009 101.247 112.362 101.247ZM113.401 98.7415C113.935 98.7415 114.407 98.6364 114.816 98.4261C115.225 98.2102 115.546 97.9205 115.779 97.5568C116.012 97.1932 116.129 96.7812 116.129 96.321V94.9318C116.015 95.0057 115.859 95.0739 115.66 95.1364C115.467 95.1932 115.248 95.2472 115.004 95.2983C114.759 95.3437 114.515 95.3864 114.271 95.4261C114.026 95.4602 113.805 95.4915 113.606 95.5199C113.18 95.5824 112.808 95.6818 112.489 95.8182C112.171 95.9545 111.924 96.1392 111.748 96.3722C111.572 96.5994 111.484 96.8835 111.484 97.2244C111.484 97.7188 111.663 98.0966 112.021 98.358C112.384 98.6136 112.844 98.7415 113.401 98.7415ZM122.55 101V87.9091H126.07V90.1932H126.207C126.445 89.3807 126.846 88.767 127.408 88.3523C127.971 87.9318 128.619 87.7216 129.352 87.7216C129.533 87.7216 129.729 87.733 129.94 87.7557C130.15 87.7784 130.335 87.8097 130.494 87.8494V91.071C130.323 91.0199 130.087 90.9744 129.786 90.9347C129.485 90.8949 129.21 90.875 128.96 90.875C128.425 90.875 127.948 90.9915 127.528 91.2244C127.113 91.4517 126.783 91.7699 126.539 92.179C126.3 92.5881 126.181 93.0597 126.181 93.5938V101H122.55ZM132.371 101V87.9091H136.001V101H132.371ZM134.195 86.2216C133.655 86.2216 133.192 86.0426 132.805 85.6847C132.425 85.321 132.234 84.8864 132.234 84.3807C132.234 83.8807 132.425 83.4517 132.805 83.0938C133.192 82.7301 133.655 82.5483 134.195 82.5483C134.734 82.5483 135.195 82.7301 135.575 83.0938C135.962 83.4517 136.155 83.8807 136.155 84.3807C136.155 84.8864 135.962 85.321 135.575 85.6847C135.195 86.0426 134.734 86.2216 134.195 86.2216ZM145.873 87.9091V90.6364H137.989V87.9091H145.873ZM139.779 84.7727H143.41V96.9773C143.41 97.3125 143.461 97.5739 143.563 97.7614C143.665 97.9432 143.808 98.071 143.989 98.1449C144.177 98.2187 144.393 98.2557 144.637 98.2557C144.808 98.2557 144.978 98.2415 145.148 98.2131C145.319 98.179 145.45 98.1534 145.54 98.1364L146.112 100.838C145.93 100.895 145.674 100.96 145.344 101.034C145.015 101.114 144.614 101.162 144.143 101.179C143.268 101.213 142.501 101.097 141.842 100.83C141.188 100.562 140.68 100.148 140.316 99.5852C139.952 99.0227 139.773 98.3125 139.779 97.4545V84.7727ZM150.479 105.909C150.019 105.909 149.587 105.872 149.184 105.798C148.786 105.73 148.457 105.642 148.195 105.534L149.013 102.824C149.44 102.955 149.823 103.026 150.164 103.037C150.511 103.048 150.809 102.969 151.059 102.798C151.315 102.628 151.522 102.338 151.681 101.929L151.894 101.375L147.198 87.9091H151.016L153.727 97.5227H153.863L156.599 87.9091H160.442L155.354 102.415C155.11 103.119 154.778 103.733 154.357 104.256C153.942 104.784 153.417 105.19 152.781 105.474C152.144 105.764 151.377 105.909 150.479 105.909Z" fill="#32003F"/>
<path d="M17.1307 118.727C17.1307 116.937 17.3627 115.292 17.8267 113.791C18.2955 112.286 18.9631 110.901 19.8295 109.636H21.3068C20.9659 110.105 20.6463 110.683 20.348 111.369C20.0545 112.051 19.7964 112.802 19.5739 113.621C19.3513 114.435 19.1761 115.278 19.0483 116.149C18.9252 117.02 18.8636 117.88 18.8636 118.727C18.8636 119.854 18.9725 120.998 19.1903 122.158C19.4081 123.318 19.7017 124.395 20.071 125.389C20.4403 126.384 20.8523 127.193 21.3068 127.818H19.8295C18.9631 126.554 18.2955 125.171 17.8267 123.67C17.3627 122.165 17.1307 120.517 17.1307 118.727ZM31.962 115.091C31.8768 114.371 31.5311 113.812 30.9251 113.415C30.319 113.017 29.5756 112.818 28.695 112.818C28.051 112.818 27.4876 112.922 27.0046 113.131C26.5264 113.339 26.1523 113.625 25.8825 113.99C25.6173 114.355 25.4847 114.769 25.4847 115.233C25.4847 115.621 25.5771 115.955 25.7617 116.234C25.9511 116.509 26.1926 116.739 26.4862 116.923C26.7797 117.103 27.0875 117.252 27.4094 117.371C27.7314 117.484 28.0273 117.577 28.2972 117.648L29.7745 118.045C30.1533 118.145 30.5747 118.282 31.0387 118.457C31.5075 118.633 31.9549 118.872 32.381 119.175C32.8119 119.473 33.167 119.857 33.4464 120.325C33.7257 120.794 33.8654 121.369 33.8654 122.051C33.8654 122.837 33.6594 123.547 33.2475 124.182C32.8403 124.816 32.2437 125.321 31.4577 125.695C30.6765 126.069 29.7272 126.256 28.6097 126.256C27.5681 126.256 26.6661 126.088 25.9038 125.751C25.1462 125.415 24.5496 124.946 24.114 124.345C23.6831 123.744 23.4393 123.045 23.3825 122.25H25.2006C25.248 122.799 25.4326 123.254 25.7546 123.614C26.0813 123.969 26.4933 124.234 26.9904 124.409C27.4923 124.58 28.0321 124.665 28.6097 124.665C29.2821 124.665 29.8858 124.556 30.4208 124.338C30.9558 124.116 31.3796 123.808 31.6921 123.415C32.0046 123.017 32.1609 122.553 32.1609 122.023C32.1609 121.54 32.0259 121.147 31.756 120.844C31.4862 120.541 31.131 120.295 30.6907 120.105C30.2504 119.916 29.7745 119.75 29.2631 119.608L27.4734 119.097C26.337 118.77 25.4374 118.304 24.7745 117.697C24.1116 117.091 23.7802 116.298 23.7802 115.318C23.7802 114.504 24.0004 113.794 24.4407 113.188C24.8858 112.577 25.4824 112.103 26.2305 111.767C26.9833 111.426 27.8237 111.256 28.7518 111.256C29.6893 111.256 30.5226 111.424 31.2518 111.76C31.9809 112.091 32.5586 112.546 32.9847 113.124C33.4156 113.701 33.6429 114.357 33.6665 115.091H31.962ZM39.7443 126.256C39.053 126.256 38.4257 126.125 37.8622 125.865C37.2988 125.6 36.8513 125.219 36.5199 124.722C36.1884 124.22 36.0227 123.614 36.0227 122.903C36.0227 122.278 36.1458 121.772 36.392 121.384C36.6383 120.991 36.9673 120.683 37.3793 120.46C37.7912 120.238 38.2457 120.072 38.7429 119.963C39.2448 119.849 39.7491 119.759 40.2557 119.693C40.9186 119.608 41.456 119.544 41.8679 119.501C42.2846 119.454 42.5876 119.376 42.777 119.267C42.9711 119.158 43.0682 118.969 43.0682 118.699V118.642C43.0682 117.941 42.8764 117.397 42.4929 117.009C42.1141 116.62 41.5388 116.426 40.767 116.426C39.9669 116.426 39.3395 116.601 38.8849 116.952C38.4304 117.302 38.1108 117.676 37.9261 118.074L36.3352 117.506C36.6193 116.843 36.9981 116.327 37.4716 115.957C37.9498 115.583 38.4706 115.323 39.0341 115.176C39.6023 115.025 40.161 114.949 40.7102 114.949C41.0606 114.949 41.4631 114.991 41.9176 115.077C42.3769 115.157 42.8196 115.325 43.2457 115.581C43.6766 115.837 44.0341 116.223 44.3182 116.739C44.6023 117.255 44.7443 117.946 44.7443 118.812V126H43.0682V124.523H42.983C42.8693 124.759 42.6799 125.013 42.4148 125.283C42.1496 125.553 41.7969 125.782 41.3565 125.972C40.9162 126.161 40.3788 126.256 39.7443 126.256ZM40 124.75C40.6629 124.75 41.2216 124.62 41.6761 124.359C42.1354 124.099 42.4811 123.763 42.7131 123.351C42.9498 122.939 43.0682 122.506 43.0682 122.051V120.517C42.9972 120.602 42.8409 120.68 42.5994 120.751C42.3627 120.818 42.0881 120.877 41.7756 120.929C41.4678 120.976 41.1671 121.019 40.8736 121.057C40.5848 121.09 40.3504 121.118 40.1705 121.142C39.7348 121.199 39.3277 121.291 38.9489 121.419C38.5748 121.542 38.2718 121.729 38.0398 121.98C37.8125 122.226 37.6989 122.562 37.6989 122.989C37.6989 123.571 37.9143 124.011 38.3452 124.31C38.7808 124.603 39.3324 124.75 40 124.75ZM51.9229 126.227C51.0138 126.227 50.2113 125.998 49.5153 125.538C48.8192 125.074 48.2747 124.421 47.8817 123.578C47.4888 122.731 47.2923 121.729 47.2923 120.574C47.2923 119.428 47.4888 118.434 47.8817 117.591C48.2747 116.748 48.8216 116.097 49.5224 115.638C50.2231 115.179 51.0328 114.949 51.9513 114.949C52.6616 114.949 53.2227 115.067 53.6346 115.304C54.0513 115.536 54.3685 115.801 54.5863 116.099C54.8088 116.393 54.9817 116.634 55.1048 116.824H55.2468V111.455H56.9229V126H55.3036V124.324H55.1048C54.9817 124.523 54.8065 124.774 54.5792 125.077C54.3519 125.375 54.0276 125.643 53.6062 125.879C53.1848 126.111 52.6237 126.227 51.9229 126.227ZM52.1502 124.722C52.8226 124.722 53.3907 124.546 53.8548 124.196C54.3188 123.841 54.6715 123.351 54.913 122.726C55.1545 122.096 55.2752 121.369 55.2752 120.545C55.2752 119.731 55.1568 119.018 54.9201 118.408C54.6834 117.792 54.333 117.314 53.869 116.973C53.4049 116.627 52.832 116.455 52.1502 116.455C51.44 116.455 50.8481 116.637 50.3746 117.001C49.9059 117.361 49.5531 117.851 49.3164 118.472C49.0844 119.087 48.9684 119.778 48.9684 120.545C48.9684 121.322 49.0868 122.027 49.3235 122.662C49.565 123.292 49.9201 123.794 50.3888 124.168C50.8623 124.537 51.4495 124.722 52.1502 124.722ZM67.6687 130.091V124.324H67.5266C67.4035 124.523 67.2283 124.774 67.0011 125.077C66.7738 125.375 66.4495 125.643 66.0281 125.879C65.6067 126.111 65.0456 126.227 64.3448 126.227C63.4357 126.227 62.6332 125.998 61.9371 125.538C61.2411 125.074 60.6966 124.421 60.3036 123.578C59.9106 122.731 59.7141 121.729 59.7141 120.574C59.7141 119.428 59.9106 118.434 60.3036 117.591C60.6966 116.748 61.2435 116.097 61.9442 115.638C62.645 115.179 63.4547 114.949 64.3732 114.949C65.0835 114.949 65.6445 115.067 66.0565 115.304C66.4731 115.536 66.7904 115.801 67.0082 116.099C67.2307 116.393 67.4035 116.634 67.5266 116.824H67.7255V115.091H69.3448V130.091H67.6687ZM64.5721 124.722C65.2444 124.722 65.8126 124.546 66.2766 124.196C66.7406 123.841 67.0934 123.351 67.3349 122.726C67.5763 122.096 67.6971 121.369 67.6971 120.545C67.6971 119.731 67.5787 119.018 67.342 118.408C67.1052 117.792 66.7549 117.314 66.2908 116.973C65.8268 116.627 65.2539 116.455 64.5721 116.455C63.8619 116.455 63.27 116.637 62.7965 117.001C62.3278 117.361 61.975 117.851 61.7383 118.472C61.5063 119.087 61.3903 119.778 61.3903 120.545C61.3903 121.322 61.5086 122.027 61.7454 122.662C61.9869 123.292 62.342 123.794 62.8107 124.168C63.2842 124.537 63.8713 124.722 64.5721 124.722ZM75.6232 126.256C74.9319 126.256 74.3046 126.125 73.7411 125.865C73.1777 125.6 72.7302 125.219 72.3988 124.722C72.0674 124.22 71.9016 123.614 71.9016 122.903C71.9016 122.278 72.0247 121.772 72.271 121.384C72.5172 120.991 72.8462 120.683 73.2582 120.46C73.6701 120.238 74.1246 120.072 74.6218 119.963C75.1237 119.849 75.628 119.759 76.1346 119.693C76.7975 119.608 77.3349 119.544 77.7468 119.501C78.1635 119.454 78.4665 119.376 78.6559 119.267C78.85 119.158 78.9471 118.969 78.9471 118.699V118.642C78.9471 117.941 78.7553 117.397 78.3718 117.009C77.993 116.62 77.4177 116.426 76.646 116.426C75.8458 116.426 75.2184 116.601 74.7638 116.952C74.3093 117.302 73.9897 117.676 73.805 118.074L72.2141 117.506C72.4982 116.843 72.877 116.327 73.3505 115.957C73.8287 115.583 74.3496 115.323 74.913 115.176C75.4812 115.025 76.0399 114.949 76.5891 114.949C76.9395 114.949 77.342 114.991 77.7965 115.077C78.2558 115.157 78.6985 115.325 79.1246 115.581C79.5555 115.837 79.913 116.223 80.1971 116.739C80.4812 117.255 80.6232 117.946 80.6232 118.812V126H78.9471V124.523H78.8619C78.7482 124.759 78.5588 125.013 78.2937 125.283C78.0285 125.553 77.6758 125.782 77.2354 125.972C76.7951 126.161 76.2577 126.256 75.6232 126.256ZM75.8789 124.75C76.5418 124.75 77.1005 124.62 77.555 124.359C78.0143 124.099 78.36 123.763 78.592 123.351C78.8287 122.939 78.9471 122.506 78.9471 122.051V120.517C78.8761 120.602 78.7198 120.68 78.4783 120.751C78.2416 120.818 77.967 120.877 77.6545 120.929C77.3467 120.976 77.046 121.019 76.7525 121.057C76.4637 121.09 76.2293 121.118 76.0494 121.142C75.6138 121.199 75.2066 121.291 74.8278 121.419C74.4537 121.542 74.1507 121.729 73.9187 121.98C73.6914 122.226 73.5778 122.562 73.5778 122.989C73.5778 123.571 73.7932 124.011 74.2241 124.31C74.6597 124.603 75.2113 124.75 75.8789 124.75ZM85.3587 119.438V126H83.6825V111.455H85.3587V116.795H85.5007C85.7564 116.232 86.1399 115.785 86.6513 115.453C87.1674 115.117 87.8539 114.949 88.7109 114.949C89.4543 114.949 90.1054 115.098 90.6641 115.396C91.2228 115.69 91.656 116.142 91.9638 116.753C92.2763 117.359 92.4325 118.131 92.4325 119.068V126H90.7564V119.182C90.7564 118.315 90.5315 117.645 90.0817 117.172C89.6366 116.694 89.0187 116.455 88.228 116.455C87.6787 116.455 87.1863 116.571 86.7507 116.803C86.3198 117.035 85.9789 117.373 85.728 117.818C85.4818 118.263 85.3587 118.803 85.3587 119.438ZM99.0785 119.864C99.0785 121.653 98.8441 123.301 98.3754 124.807C97.9113 126.308 97.2461 127.69 96.3796 128.955H94.9023C95.2433 128.486 95.5605 127.908 95.854 127.222C96.1523 126.54 96.4128 125.792 96.6353 124.977C96.8578 124.158 97.0307 123.313 97.1538 122.442C97.2816 121.566 97.3455 120.706 97.3455 119.864C97.3455 118.737 97.2366 117.593 97.0188 116.433C96.801 115.273 96.5075 114.196 96.1381 113.202C95.7688 112.207 95.3569 111.398 94.9023 110.773H96.3796C97.2461 112.037 97.9113 113.422 98.3754 114.928C98.8441 116.429 99.0785 118.074 99.0785 119.864Z" fill="#7D069A"/>
<path fill-rule="evenodd" clip-rule="evenodd" d="M225.966 49.112C226.226 48.1681 226.403 47.1588 226.46 46.0952L226.465 46L226.557 46.0245C228.046 46.4189 229.621 46.7943 231.262 47.1371C232.862 47.4744 234.522 47.7818 236.216 48.0511C239.991 48.655 243.945 49.0794 247.809 49.2371C251.318 49.3786 254.754 49.2997 257.911 48.9325L258 48.9216V49.0113C257.951 50.4041 257.669 52.5939 257.284 55.1075C256.899 57.6156 256.411 60.4555 255.95 63.1432L255.606 65.1453L255.597 65.1589H255.603L255.595 65.2133C255.364 66.5571 255.153 67.8248 254.976 68.9401C254.797 70.0636 254.654 71.051 254.561 71.8399C253.997 76.0019 252.01 78.7276 249.236 80.3C246.885 81.6329 243.967 82.1334 240.878 81.9702C237.792 81.807 234.53 80.9855 231.484 79.6743C225.288 77.0084 219.973 72.3159 218.804 67.0305L218.582 67.0032C218.289 66.9679 217.736 66.7992 217.061 66.5027C216.529 66.2715 215.919 65.9587 215.295 65.5669C214.791 65.2514 214.284 64.8869 213.804 64.4734C213.381 64.1089 212.982 63.7063 212.632 63.2656C211.778 62.1938 211.298 61.1628 211.103 60.2134C210.881 59.1253 211.032 58.146 211.426 57.3327C211.672 56.824 212.011 56.3833 212.413 56.0188C212.828 55.6434 213.31 55.3523 213.823 55.1646C214.335 54.9769 214.875 54.8926 215.409 54.9279C215.916 54.9633 216.415 55.1048 216.876 55.3741C217.6 55.793 218.235 56.5193 218.661 57.6074C219.032 58.5595 219.246 59.7918 219.219 61.3424L219.208 62.0523L219.677 61.5192C219.903 61.2635 220.117 60.9289 220.307 60.5317C220.486 60.1536 220.64 59.7184 220.754 59.2477C220.849 58.8506 220.917 58.4262 220.949 57.9828C220.979 57.5666 220.976 57.1368 220.936 56.6961L220.93 56.6472L220.971 56.6227C221.543 56.2826 222.278 55.6461 223.021 54.7566C223.647 54.0085 224.282 53.0863 224.833 52.0173C225.283 51.1413 225.679 50.1675 225.969 49.112H225.966Z" fill="#F5BD8C"/>
<path fill-rule="evenodd" clip-rule="evenodd" d="M246.29 49.2361C246.823 49.2687 247.353 49.2958 247.884 49.3148C251.367 49.4559 254.778 49.3772 257.911 49.0109L258 49V49.0896C257.952 50.479 257.672 52.6637 257.289 55.1712C256.907 57.6734 256.423 60.5066 255.965 63.1879C255.636 65.1147 255.303 67.0361 254.998 68.971C254.274 73.5656 254.083 77.5793 249.3 80.304C246.966 81.6338 244.069 82.1331 241.003 81.9703C239.041 81.8671 237.006 81.4926 235 80.8929C237.827 81.0639 244.287 80.7436 243.488 76.7977C244.89 75.7828 245.972 73.7718 245.929 73.7582C242.502 72.7216 247.189 66.99 244.651 67.1935C239.802 67.5789 252.527 53.4371 246.293 49.2388L246.29 49.2361Z" fill="#E7A776"/>
<path fill-rule="evenodd" clip-rule="evenodd" d="M216.657 59.2292C215.77 56.9975 213.8 58.1475 214.016 59.962C214.237 61.8284 214.881 62.6273 216.209 63.7937C216.841 64.3499 216.629 63.6641 216.77 63.1198C216.823 62.9171 217.064 60.3061 216.984 60.1906C216.982 60.1883 216.736 59.4248 216.659 59.2292H216.657Z" fill="#B67D5D"/>
<path fill-rule="evenodd" clip-rule="evenodd" d="M229.501 80C224.994 82.688 215.019 86.7201 212.311 90.1572C206.546 96.9692 209.488 97.2423 207.921 105.269C206.995 114.266 201.1 130.267 199.37 142.641C198.625 147.966 199.038 152.95 200.312 155.87C206.313 169.638 235.42 169.995 240.72 165.238C240.798 163.483 240.375 160.854 240.817 160.433C241.866 159.429 247.128 158.153 248.624 157.588C247.839 153.082 247.065 148.196 247.356 143.436C247.329 143.401 245.357 140.316 239.277 137.852C240.654 134.485 246.093 131.108 247.91 131.676C247.994 128.677 250.224 120.51 250.599 119.428C250.599 119.393 251.542 123.341 254.91 127.07C256.114 128.401 257.85 129.542 260.311 129.639C260.449 129.645 271.418 125.372 272.467 124.942C275.202 123.82 277.59 122.776 276.87 119.258C276.493 117.408 276.987 118.701 275.871 115.677C274.98 116.229 274.314 116.789 272.758 117.538C271.522 116.94 270.859 112.443 271.445 110.06C270.112 110.72 265.548 112.762 263.329 113.663C259.724 109.731 255.5 94.7598 250.01 89.665C249.062 88.6725 242.349 82.3419 241.559 82.3419C238.37 82.1391 239.141 82.515 238.552 84.124C239.261 84.9434 241.086 88.1371 238.324 92.4396C235.477 87.5151 229.061 87.4069 228.838 84.8298C228.677 82.9747 228.949 81.509 229.498 80H229.501Z" fill="#808285"/>
<path fill-rule="evenodd" clip-rule="evenodd" d="M232.378 168C236.125 167.599 239.095 166.717 240.467 165.496C240.546 163.75 240.121 161.136 240.566 160.717C241.618 159.719 246.902 158.449 248.404 157.887C247.616 153.406 246.839 148.546 247.131 143.812C247.103 143.777 245.123 140.708 239.019 138.258C240.402 134.91 245.862 131.55 247.687 132.115C247.772 129.132 250.011 121.01 250.387 119.934C250.387 119.899 251.334 123.826 254.716 127.535C255.924 128.858 257.667 129.993 260.138 130.09C260.214 130.093 263.635 128.788 266.848 127.551C267.903 122.376 263.316 114.95 257.891 119.065C258.673 117.336 261.796 115.197 261.826 115.068C256.189 108.347 254.71 95.7569 246.127 88.8311C243.514 86.7224 241.684 84.9069 239.764 83C238.375 83.0565 238.76 83.5541 238.294 84.8182C239 85.6304 240.819 88.7773 238.108 93.0242C239.625 98.3308 241.307 104.396 239.434 108.901C236.013 117.123 240.62 126.384 238.389 133.422C237.98 134.711 234.592 141.389 233.853 142.543C231.527 146.185 231.633 151.158 232.844 155.149C233.943 158.772 234.412 164.283 232.375 167.997L232.378 168Z" fill="#808285"/>
<path fill-rule="evenodd" clip-rule="evenodd" d="M232.378 168C236.125 167.599 239.095 166.717 240.467 165.496C240.546 163.75 240.121 161.136 240.566 160.717C241.618 159.719 246.902 158.449 248.404 157.887C247.616 153.406 246.839 148.546 247.131 143.812C247.103 143.777 245.123 140.708 239.019 138.258C240.402 134.91 245.862 131.55 247.687 132.115C247.772 129.132 250.011 121.01 250.387 119.934C250.387 119.899 251.334 123.826 254.716 127.535C255.924 128.858 257.667 129.993 260.138 130.09C260.214 130.093 263.635 128.788 266.848 127.551C267.903 122.376 263.316 114.95 257.891 119.065C258.673 117.336 261.796 115.197 261.826 115.068C256.189 108.347 254.71 95.7569 246.127 88.8311C243.514 86.7224 241.684 84.9069 239.764 83C238.375 83.0565 238.76 83.5541 238.294 84.8182C239 85.6304 240.819 88.7773 238.108 93.0242C239.625 98.3308 241.307 104.396 239.434 108.901C236.013 117.123 240.62 126.384 238.389 133.422C237.98 134.711 234.592 141.389 233.853 142.543C231.527 146.185 231.633 151.158 232.844 155.149C233.943 158.772 234.412 164.283 232.375 167.997L232.378 168Z" fill="#6D6E70"/>
<path fill-rule="evenodd" clip-rule="evenodd" d="M250.89 112.138C245.357 113.992 233.664 113.748 229 112C229.401 113.152 230.387 114.23 231.016 115.551C233.943 117.937 246.79 116.862 250.89 115.954C251.086 114.047 250.977 112.825 250.893 112.141L250.89 112.138Z" fill="#BCBDC0"/>
<path fill-rule="evenodd" clip-rule="evenodd" d="M309.912 157.003C310.064 157.483 309.971 161.121 309.98 161.823C309.985 162.238 309.988 162.639 309.99 162.998C309.99 163.283 309.936 163.583 309.798 163.845C309.678 164.069 309.499 164.267 309.241 164.404L307.828 165.151C306.663 165.765 305.377 166.444 304.273 167.035C303.195 167.612 302.202 168.148 301.461 168.549C300.815 168.9 300.343 169.161 300.14 169.28C299.209 169.826 297.499 169.805 296.083 169.789H296.075C295.643 169.784 295.241 169.779 294.891 169.789C284.202 170.127 273.602 169.992 263 169.842C276.259 169.18 276.837 163.375 283.459 163.594C287.09 163.715 294.031 163.486 298.156 163.636C300.585 163.726 306.468 160.755 309.912 157V157.003Z" fill="#D2C36F"/>
<path fill-rule="evenodd" clip-rule="evenodd" d="M280.114 154.175C279.79 152.604 279.503 151.043 279.241 149.477C279.012 148.125 278.803 146.775 278.6 145.414C278.399 144.056 278.206 142.679 278.011 141.27L278 141.191L278.078 141.18C278.173 141.166 278.296 141.149 278.438 141.129C278.574 141.112 278.719 141.093 278.856 141.079C278.998 141.062 279.146 141.048 279.291 141.034C279.425 141.022 279.548 141.011 279.654 141.006L279.729 141L279.737 141.076C279.885 142.566 280.105 144.349 280.376 146.23C280.627 147.981 280.922 149.812 281.246 151.569C281.516 153.048 281.809 154.479 282.116 155.769C282.395 156.948 282.679 158.005 282.967 158.871L283 158.975C282.406 158.983 281.812 158.992 281.218 159L281.204 158.938C280.797 157.327 280.44 155.744 280.117 154.17L280.114 154.175Z" fill="#00A651"/>
<path fill-rule="evenodd" clip-rule="evenodd" d="M270.77 148.814C270.885 148.794 270.995 148.744 271.094 148.666C271.18 148.598 271.251 148.509 271.312 148.4C271.372 148.288 271.422 148.16 271.455 148.011C271.474 147.928 271.488 147.835 271.496 147.738C271.504 147.64 271.51 147.536 271.507 147.427V147.332L271.598 147.346C271.763 147.371 271.906 147.346 272.035 147.279C272.186 147.201 272.316 147.069 272.42 146.916C272.53 146.756 272.607 146.572 272.665 146.41C272.72 146.245 272.753 146.099 272.77 146.024C272.995 144.903 273.014 143.953 272.83 143.106C272.649 142.261 272.263 141.518 271.683 140.811L271.592 140.699L272.302 140.612C273.543 140.458 275.408 140.229 277.594 140.008L277.669 140L277.68 140.075C277.9 141.708 278.12 143.304 278.348 144.892C278.577 146.471 278.813 148.023 279.072 149.566C279.328 151.098 279.608 152.627 279.919 154.17C280.233 155.71 280.579 157.267 280.975 158.857L281 158.955H280.901C278.97 158.978 277.014 158.989 275.072 158.994C273.13 159 271.199 159 269.315 159H269.238H267.158L267.147 158.933C267.119 158.74 267.053 158.402 266.96 157.971C266.855 157.482 266.718 156.876 266.567 156.227C266.396 155.5 266.214 154.734 266.041 154.033C265.846 153.236 265.667 152.509 265.54 152.012L265.513 151.903L265.623 151.914C265.661 151.917 265.703 151.919 265.741 151.919C265.78 151.919 265.818 151.917 265.857 151.911C265.959 151.897 266.058 151.866 266.154 151.822C266.245 151.777 266.333 151.718 266.412 151.64C266.522 151.536 266.619 151.399 266.693 151.232C266.762 151.075 266.814 150.888 266.839 150.673C266.869 150.413 266.875 150.116 266.855 149.806C266.836 149.479 266.792 149.13 266.729 148.775C266.666 148.417 266.578 148.053 266.476 147.704C266.374 147.357 266.256 147.022 266.126 146.714C266.049 146.536 265.758 146.127 265.392 145.652C265.023 145.174 264.58 144.626 264.204 144.168L264 143.919L264.294 144.045C264.6 144.176 264.913 144.316 265.224 144.456H265.232C265.871 144.744 266.5 145.029 266.949 145.183C267.227 145.28 267.469 145.406 267.686 145.549C267.901 145.694 268.088 145.856 268.25 146.03C268.415 146.206 268.558 146.396 268.679 146.583C268.8 146.77 268.905 146.96 268.993 147.139C269.227 147.615 269.466 147.978 269.697 148.246C269.945 148.534 270.184 148.708 270.398 148.777C270.53 148.822 270.657 148.833 270.772 148.814H270.77Z" fill="#7DC242"/>
<path fill-rule="evenodd" clip-rule="evenodd" d="M263.265 136.72C265.217 136.904 267.318 137.59 269.517 139.312C270.553 140.121 271.269 140.897 271.657 141.801C272.046 142.707 272.104 143.738 271.831 145.057C271.821 145.115 271.794 145.22 271.754 145.341C271.711 145.462 271.654 145.596 271.574 145.709C271.518 145.788 271.443 145.851 271.346 145.872C271.266 145.89 271.172 145.877 271.068 145.819L271.036 145.803L271.03 145.769C270.969 145.451 270.867 145.099 270.72 144.726C270.583 144.379 270.412 144.014 270.195 143.633C269.726 142.807 268.753 141.79 267.671 141.059C266.9 140.539 266.075 140.163 265.338 140.111C266.067 140.463 266.953 141.052 267.754 141.717C268.603 142.418 269.361 143.207 269.747 143.882C270.098 144.5 270.328 145.065 270.46 145.556C270.612 146.127 270.634 146.595 270.559 146.92C270.54 146.997 270.519 147.062 270.492 147.118C270.462 147.175 270.428 147.223 270.39 147.252C270.363 147.273 270.331 147.283 270.294 147.286C270.264 147.286 270.229 147.286 270.192 147.273C270.037 147.223 269.86 147.089 269.667 146.855C269.498 146.65 269.313 146.363 269.123 145.987C269.027 145.798 268.914 145.601 268.78 145.401C268.646 145.204 268.494 145.007 268.311 144.82C268.127 144.631 267.915 144.45 267.671 144.292C267.427 144.134 267.152 143.998 266.838 143.89C266.42 143.751 265.818 143.488 265.207 143.225L265.003 143.136C264.004 142.702 263.49 142.479 262.448 142.332C262.745 142.613 263.2 143.138 263.667 143.706C264.47 144.689 265.306 145.806 265.394 146.008C265.515 146.282 265.622 146.581 265.716 146.889C265.809 147.199 265.887 147.52 265.949 147.838C266.005 148.143 266.045 148.445 266.061 148.723C266.077 148.994 266.075 149.246 266.048 149.47C266.032 149.609 266.002 149.725 265.962 149.819C265.917 149.927 265.86 150.009 265.796 150.069C265.759 150.103 265.718 150.129 265.678 150.15C265.635 150.172 265.587 150.185 265.542 150.19C265.493 150.195 265.448 150.195 265.4 150.19C265.351 150.182 265.306 150.169 265.26 150.15C265.209 150.129 265.161 150.098 265.118 150.064C265.076 150.03 265.038 149.988 265.006 149.94L264.995 149.924V149.906C264.974 149.696 264.939 149.467 264.883 149.223C264.832 148.991 264.762 148.752 264.679 148.505C264.382 147.641 263.851 146.713 263.042 145.856C262.405 145.183 261.596 144.552 260.589 144.037C260.846 144.376 261.189 144.676 261.569 145.004C262.442 145.764 263.506 146.686 264.192 148.668C264.277 148.918 264.344 149.16 264.392 149.386C264.443 149.627 264.475 149.853 264.489 150.056V150.072V150.106C264.497 150.271 264.494 150.419 264.481 150.545C264.465 150.684 264.435 150.797 264.395 150.879L264.387 150.897C264.379 150.928 264.376 150.944 264.334 150.96C263.91 151.102 263.49 150.852 263.091 150.434C262.705 150.032 262.335 149.475 261.998 148.965C261.797 148.663 261.607 148.376 261.422 148.135C261.24 147.898 261.065 147.709 260.891 147.598C260.482 147.333 260.19 147.128 259.951 146.96L259.932 146.947C258.88 146.203 258.781 146.135 256.413 146.135C255.62 146.135 254.433 146.095 253.19 145.945C252.301 145.838 251.382 145.672 250.551 145.422C249.893 145.225 249.292 144.976 248.818 144.663C248.392 144.382 248.066 144.05 247.886 143.656C247.669 143.183 247.407 142.76 247.109 142.376C246.812 141.995 246.477 141.653 246.118 141.341C245.762 141.033 245.379 140.755 244.977 140.497C244.575 140.239 244.157 140 243.729 139.772C243.576 139.69 243.3 139.535 242.96 139.338C242.59 139.125 242.162 138.873 241.738 138.623C241.42 138.434 241.096 138.242 240.796 138.061C240.522 137.898 240.273 137.743 240.064 137.614L240 137.574L240.04 137.511C240.204 137.264 240.372 137.02 240.549 136.781C240.729 136.539 240.913 136.305 241.104 136.079C242.095 134.899 243.217 133.932 244.329 133.233C245.486 132.505 246.633 132.071 247.605 132H247.637L248.162 132.457C248.703 132.988 250.375 134.368 251.859 135.593L251.869 135.601C252.778 136.35 253.613 137.041 254.074 137.443L254.208 137.296L254.187 137.482C254.728 137.538 255.298 137.511 255.901 137.446C256.536 137.375 257.203 137.259 257.902 137.136C259.517 136.852 261.32 136.536 263.27 136.72H263.265Z" fill="#F5BD8C"/>
<path fill-rule="evenodd" clip-rule="evenodd" d="M256 147C253.918 146.988 250.434 146.695 248.656 145.389C248.238 145.081 247.917 144.718 247.741 144.287C247.123 142.785 246.129 141.72 244.885 140.831C243.892 140.117 242.737 139.461 241.706 138.782C241.136 138.405 240.563 138.026 240 137.634C240.174 137.338 240.35 137.05 240.539 136.768C240.715 136.504 240.897 136.247 241.083 136C245.006 138.313 246.818 139.001 249.49 143.516C250.583 145.363 254.104 145.881 255.997 147H256Z" fill="#BD855F"/>
<path fill-rule="evenodd" clip-rule="evenodd" d="M275.821 108.122C275.775 107.87 275.729 107.622 275.68 107.37C275.527 106.597 275.44 106.169 275.44 104.876C275.44 104.448 275.546 103.978 275.71 103.486C275.871 102.997 276.083 102.492 276.296 101.984C276.432 101.658 276.569 101.332 276.694 101.006C276.817 100.683 276.929 100.365 277.016 100.05C277.139 99.6107 277.243 99.166 277.327 98.7157C277.414 98.2627 277.483 97.8069 277.532 97.3456C277.583 96.8815 277.616 96.4119 277.63 95.9423C277.646 95.4671 277.641 94.9865 277.622 94.5031C277.616 94.3622 277.638 94.2572 277.684 94.1771C277.72 94.1163 277.763 94.0749 277.818 94.0445C277.87 94.0169 277.93 94.0031 277.993 94.0003C278.154 93.9948 278.347 94.0638 278.511 94.1578C278.808 94.329 279.114 94.6384 279.362 95.0915C279.572 95.4727 279.741 95.9561 279.834 96.55C279.951 97.3041 279.984 97.8179 279.97 98.2544C279.956 98.6909 279.891 99.0472 279.815 99.4864V99.492C279.749 99.8483 279.678 100.257 279.616 100.765C279.55 101.299 279.624 101.741 279.771 102.147C279.921 102.558 280.153 102.939 280.398 103.348C281.746 105.583 281.923 106.478 282.018 107.906C282.125 106.782 282.029 105.906 281.833 105.188C281.593 104.31 281.2 103.658 280.846 103.069C280.644 102.732 280.453 102.417 280.316 102.086C280.18 101.752 280.098 101.401 280.12 101V100.959L280.158 100.937C280.739 100.605 281.757 100.058 282.981 99.4367C283.966 98.9339 285.087 98.3842 286.222 97.8538C287.174 97.4091 288.139 96.9754 289.05 96.5997C289.852 96.2655 290.61 95.9754 291.276 95.7572C291.881 95.5583 292.367 95.445 292.749 95.4008C293.185 95.3511 293.491 95.3898 293.69 95.4892C293.747 95.5169 293.791 95.5528 293.826 95.5914C293.864 95.6356 293.889 95.6826 293.9 95.7351C293.913 95.7959 293.913 95.8677 293.903 95.9423C293.892 96.0169 293.867 96.097 293.834 96.1798C293.72 96.4699 293.491 96.7793 293.188 97.05C292.907 97.3041 292.563 97.5251 292.187 97.6715C292.04 97.7295 291.57 97.9505 290.998 98.2295C290.479 98.4837 289.877 98.7875 289.347 99.0638C288.911 99.2931 288.518 99.514 288.243 99.7019C288.016 99.8538 287.875 99.9754 287.861 100.044C287.855 100.078 287.861 100.216 287.894 100.379C287.916 100.489 287.948 100.608 287.995 100.71C288.016 100.76 288.044 100.81 288.074 100.857C288.093 100.887 288.117 100.92 288.142 100.948L288.166 100.973C288.21 101.02 288.259 101.061 288.314 101.091C288.363 101.122 288.42 101.141 288.48 101.155C288.54 101.166 288.6 101.169 288.663 101.16C288.723 101.152 288.786 101.136 288.851 101.105C288.963 101.053 289.563 100.89 290.335 100.688C291.126 100.481 292.053 100.243 292.841 100.042L293.952 99.7571C294.254 99.6798 294.467 99.6218 294.546 99.5969C294.702 99.55 294.89 99.5251 295.086 99.5251C295.277 99.5251 295.474 99.5527 295.659 99.6024C295.76 99.6301 295.853 99.666 295.937 99.7102C296.019 99.7516 296.09 99.8013 296.15 99.8566C296.202 99.9063 296.246 99.9616 296.273 100.025C296.3 100.086 296.316 100.152 296.316 100.224C296.316 100.304 296.3 100.395 296.265 100.492C296.232 100.583 296.183 100.683 296.115 100.79C295.855 101.205 294.936 101.685 293.856 102.147C292.787 102.6 291.551 103.036 290.643 103.354C290.384 103.445 290.155 103.525 289.931 103.608C289.727 103.683 289.563 103.743 289.451 103.793C289.337 103.843 289.247 103.934 289.187 104.047C289.118 104.177 289.083 104.334 289.086 104.497C289.086 104.555 289.091 104.616 289.099 104.677C289.107 104.738 289.121 104.796 289.137 104.851C289.157 104.912 289.181 104.973 289.211 105.031C289.238 105.083 289.271 105.136 289.309 105.18C289.394 105.285 289.497 105.362 289.62 105.401C289.732 105.437 289.858 105.439 290.002 105.401C290.144 105.362 290.409 105.287 290.747 105.188L291.952 104.837C293 104.531 294.194 104.182 294.972 103.973C295.307 103.881 295.64 103.854 295.935 103.879C296.254 103.906 296.532 103.992 296.734 104.122C296.794 104.16 296.846 104.202 296.886 104.249C296.93 104.296 296.96 104.345 296.979 104.395C296.996 104.442 297.004 104.492 296.998 104.547C296.993 104.597 296.979 104.649 296.952 104.705C296.859 104.901 296.655 105.116 296.311 105.334C296.008 105.528 295.599 105.727 295.056 105.926C294.816 106.014 294.5 106.111 294.137 106.216C293.78 106.318 293.376 106.428 292.964 106.539C292.419 106.685 291.862 106.837 291.371 106.984C290.88 107.13 290.452 107.274 290.163 107.406C290.046 107.461 289.953 107.533 289.882 107.616C289.806 107.707 289.757 107.815 289.727 107.931C289.708 108.011 289.699 108.097 289.699 108.18C289.699 108.271 289.713 108.362 289.735 108.45C289.754 108.531 289.781 108.611 289.814 108.685C289.841 108.749 289.871 108.807 289.907 108.859L289.928 108.892C289.997 108.992 290.078 109.075 290.168 109.13C290.25 109.18 290.338 109.207 290.425 109.207C290.73 109.207 291.382 109.08 292.127 108.937H292.132C292.784 108.812 293.515 108.671 294.096 108.583C294.702 108.492 295.165 108.459 295.264 108.555C295.34 108.633 295.362 108.718 295.337 108.812C295.318 108.892 295.264 108.978 295.179 109.064C294.713 109.536 293.619 110.03 292.348 110.495C291.085 110.956 289.645 111.387 288.48 111.738C287.905 111.912 287.392 112.064 286.994 112.196C286.598 112.326 286.309 112.434 286.178 112.514C285.703 112.804 285.199 113.058 284.686 113.279C284.13 113.517 283.562 113.713 282.998 113.87C282.376 114.044 281.762 114.174 281.178 114.265C280.546 114.362 279.951 114.412 279.419 114.417C279.065 114.423 278.53 114.669 277.905 115.036C277.275 115.406 276.552 115.901 275.832 116.392C274.93 117.011 274.032 117.624 273.372 117.964L273.301 118L273.266 117.928C273.203 117.798 273.143 117.669 273.086 117.541C273.026 117.409 272.971 117.279 272.917 117.152C272.453 116.033 272.142 114.815 272.038 113.652C271.94 112.558 272.027 111.514 272.338 110.655L272.349 110.624L272.379 110.611C272.99 110.321 273.601 110.025 274.207 109.721C274.796 109.426 275.377 109.124 275.944 108.815C275.906 108.577 275.865 108.345 275.824 108.119L275.821 108.122Z" fill="#F5BD8C"/>
<path fill-rule="evenodd" clip-rule="evenodd" d="M283 113.901C282.799 113.969 282.598 114.029 282.397 114.086C281.809 114.251 281.229 114.374 280.677 114.461C280.079 114.552 279.516 114.599 279.014 114.605C278.678 114.61 278.173 114.843 277.583 115.191C276.987 115.542 276.304 116.01 275.623 116.476C274.769 117.063 273.921 117.644 273.297 117.966L273.23 118L273.197 117.932C273.137 117.809 273.081 117.686 273.026 117.565C272.97 117.44 272.918 117.317 272.866 117.196C272.428 116.136 272.134 114.982 272.036 113.88C271.943 112.843 272.026 111.853 272.32 111.039L272.33 111.01L272.353 111C272.356 111.134 272.359 111.27 272.359 111.406C272.359 112.298 272.725 115.552 274.158 115.039C278.965 113.319 277.66 112.223 282.489 113.78C282.636 113.827 282.807 113.869 282.997 113.906L283 113.901Z" fill="#BD855F"/>
<path fill-rule="evenodd" clip-rule="evenodd" d="M234.35 81.8895C235.819 82.3796 237.313 82.7479 238.788 82.9745L238.885 82.9887L238.847 83.085C238.577 83.7564 238.317 84.6771 238.217 85.5496C238.152 86.1161 238.154 86.6629 238.268 87.1076C238.32 86.8782 238.374 86.6317 238.428 86.3796C238.482 86.1303 238.536 85.8839 238.585 85.6629C238.639 85.4249 238.696 85.1841 238.758 84.9433L238.798 84.7819L238.893 84.915C239.223 85.3853 239.67 86.2351 239.881 87.3796C240.027 88.1728 240.06 89.1105 239.859 90.1615V90.1785L239.846 90.1926C239.583 90.5779 239.342 90.9943 239.126 91.4306C238.904 91.881 238.706 92.3513 238.536 92.8357L238.479 93L238.398 92.847C237.819 91.7592 236.991 90.949 236.06 90.2889C235.126 89.6261 234.087 89.1133 233.094 88.6204C231.871 88.017 230.718 87.4476 229.95 86.6544C229.17 85.8527 228.786 84.83 229.122 83.3343L229.387 82.1473C229.457 81.83 229.52 81.5609 229.579 81.3059C229.625 81.1076 229.671 80.915 229.723 80.7082C229.766 80.5241 229.817 80.3229 229.874 80.0935L229.898 80L229.982 80.0425C231.389 80.7705 232.856 81.3909 234.344 81.8867L234.35 81.8895Z" fill="#F5BD8C"/>
<path fill-rule="evenodd" clip-rule="evenodd" d="M234.425 81.6613C235.941 82.0928 237.482 82.4171 239.003 82.6166L239.104 82.6291L239.065 82.7139C238.786 83.3051 238.518 84.1157 238.414 84.884C238.364 85.2631 238.353 85.6323 238.403 85.9566C235.416 85.7371 231.708 84.7019 229 83.0606C229.008 83.0182 229.02 82.9783 229.031 82.9359L229.304 81.8907C229.377 81.6114 229.441 81.3744 229.503 81.1499C229.55 80.9753 229.597 80.8057 229.651 80.6236C229.695 80.4615 229.748 80.2844 229.807 80.0823L229.832 80L229.919 80.0374C231.37 80.6785 232.884 81.2247 234.419 81.6613H234.425ZM238.545 85.9666C238.576 85.8518 238.604 85.7321 238.635 85.6148C238.691 85.3953 238.746 85.1783 238.797 84.9838C238.853 84.7742 238.911 84.5622 238.975 84.3502L239.017 84.208L239.115 84.3253C239.397 84.667 239.76 85.2382 240 85.9915C239.542 86.009 239.054 85.999 238.543 85.9666H238.545Z" fill="#B67D5D"/>
<path fill-rule="evenodd" clip-rule="evenodd" d="M256.12 63.3782C257.136 57.9995 258.266 52.0204 258.348 49.2841V49.2198L258.422 49.2117C258.662 49.1822 258.912 49.1501 259.164 49.1179C259.414 49.0831 259.657 49.0509 259.892 49.0134L259.986 49V49.0858C260.001 49.5012 260.004 49.9219 259.995 50.348C259.986 50.7715 259.969 51.1976 259.942 51.6264C259.839 53.2103 259.663 54.5959 259.408 55.8501C259.156 57.1043 258.827 58.2246 258.425 59.2778C258.137 60.0363 257.808 60.7599 257.444 61.4728C257.08 62.1856 256.678 62.8905 256.238 63.6114L256 64C256.026 63.858 256.117 63.5069 256.117 63.3809L256.12 63.3782Z" fill="#914E2B"/>
<path fill-rule="evenodd" clip-rule="evenodd" d="M225.569 49.3262C225.307 50.3783 224.944 51.3456 224.53 52.2146C224.011 53.3049 223.416 54.234 222.836 54.9691C222.135 55.8545 221.457 56.4611 220.965 56.7234L220.809 56.8054L220.829 56.9912C220.879 57.4394 220.889 57.8821 220.869 58.3029C220.847 58.7592 220.783 59.1937 220.695 59.5954C220.65 59.8004 220.597 59.9944 220.539 60.1802C220.478 60.3715 220.413 60.5518 220.34 60.7213L220.221 61L220.204 60.6939C220.125 59.3413 219.861 58.251 219.475 57.3957C219.044 56.4447 218.461 55.7834 217.803 55.3735C217.392 55.1166 216.954 54.9581 216.507 54.8898C216.038 54.816 215.562 54.8406 215.098 54.9527L215.012 54.9718V54.8762C214.992 53.8678 214.997 52.8868 215.025 51.9359C215.053 50.9658 215.101 50.0312 215.171 49.1267C215.272 47.8506 215.413 46.6373 215.595 45.4786C215.781 44.2927 216.008 43.1723 216.275 42.1093L216.303 42L216.386 42.0656C217.256 42.7597 218.542 43.4756 220.148 44.1779C221.784 44.8939 223.751 45.5961 225.945 46.2492L226 46.2656V46.3258C225.955 47.3806 225.798 48.3834 225.564 49.3207L225.569 49.3262Z" fill="#914E2B"/>
<path fill-rule="evenodd" clip-rule="evenodd" d="M248.961 48.9795C244.648 48.879 240.178 48.4428 235.931 47.7925C231.175 47.0629 226.706 46.069 223.056 44.9772C219.368 43.8748 216.514 42.6694 215.041 41.538L215 41.5063L215.014 41.4587C215.683 39.2831 216.544 37.3745 217.562 35.7117C218.641 33.9485 219.891 32.4602 221.272 31.2204C223.174 29.5127 225.321 28.2755 227.594 27.4349C230.088 26.5123 232.736 26.0708 235.375 26.0074C235.871 25.9968 236.366 25.9968 236.861 26.0127C237.368 26.0285 237.874 26.055 238.372 26.0972C241.463 26.3484 244.518 27.2128 247.315 28.6324C250.039 30.0149 252.522 31.9262 254.553 34.308C256.144 36.1743 257.462 38.3314 258.406 40.7529C259.295 43.0342 259.854 45.5482 260 48.2763V48.3424L259.934 48.3529C256.584 48.8896 252.836 49.0693 248.961 48.9768V48.9795Z" fill="#FFF9AE"/>
<path fill-rule="evenodd" clip-rule="evenodd" d="M216 39.9462C216.385 38.898 216.817 37.9168 217.29 37C223.498 39.7612 231.45 41.9514 240.624 43.0398C246.458 43.7314 252.77 43.9753 259.426 43.6376C259.68 44.6616 259.872 45.7232 260 46.8223C252.997 47.203 246.359 46.9563 240.242 46.2325C230.77 45.1093 222.506 42.8333 216.003 39.9488L216 39.9462Z" fill="#D6CC70"/>
<path fill-rule="evenodd" clip-rule="evenodd" d="M232.55 26.4745C239.454 25.0658 246.67 26.8183 251.999 31.4035C252.066 32.4452 249.621 32.3477 249.04 31.6113C249.678 34.716 245.694 31.7653 245.431 30.9211C243.693 33.2792 240.98 32.6377 240.406 29.8024C239.296 32.6659 233.126 31.052 236.882 27.8678C236.944 27.8164 233.596 29.4021 232.294 28.1089C231.794 27.6112 231.967 27.0467 232.55 26.4719V26.4745Z" fill="#D6CC70"/>
<path fill-rule="evenodd" clip-rule="evenodd" d="M262.028 171.056C273.002 171.226 283.97 171.396 295.028 171.012C295.373 171.001 295.772 171.006 296.196 171.012H296.198C297.683 171.032 299.477 171.056 300.533 170.378C300.747 170.239 301.288 169.916 302.018 169.484C302.761 169.043 303.679 168.503 304.648 167.935C305.142 167.647 305.685 167.33 306.241 167.007L307.984 166L308 169.233L302.181 172.425C299.93 174.583 297.023 173.389 296.006 173.867L244.071 174L244 170.862H244.079C250.075 170.865 256.051 170.957 262.026 171.053L262.028 171.056Z" fill="#927147"/>
<path fill-rule="evenodd" clip-rule="evenodd" d="M276.952 171.065C286.154 171.189 285.728 171.082 295 170.777C296.702 170.722 299.129 171.013 300.505 170.172C302.894 168.715 305.494 167.355 307.956 166L308 174.998C308.005 176.65 307.813 178.222 306.664 179.483L301.659 184.985C300.766 185.889 299.984 186.912 298.809 187.467C297.894 187.898 296.689 188.107 294.816 187.945L263 187.024C264.821 178.389 277.004 177.785 276.949 171.065H276.952Z" fill="#AE8D57"/>
<path fill-rule="evenodd" clip-rule="evenodd" d="M276.634 171.371C285.938 171.502 285.508 171.389 294.883 171.065C296.604 171.007 299.058 171.316 300.449 170.424C302.865 168.879 305.494 167.437 307.984 166L308 169.267L302.115 172.493C299.84 174.673 296.901 173.467 295.871 173.95L276 174C276.406 173.222 276.64 172.359 276.631 171.368L276.634 171.371Z" fill="#7E603D"/>
<path fill-rule="evenodd" clip-rule="evenodd" d="M229.382 80C224.865 82.6923 214.867 86.7309 212.152 90.1735C206.745 96.5603 208.98 97.2104 208 103.855C210.02 114.283 210.399 116.802 215.545 124.746C226.989 140.104 234.158 143.503 237.482 143.898C239.399 144.421 242.037 142.869 244.066 140.54C242.86 139.7 241.261 138.787 239.184 137.945C240.532 134.657 245.743 131.36 247.693 131.726C247.657 131.61 247.603 131.509 247.529 131.436C242.443 126.959 238.019 123.381 234.956 120.228C230.414 115.55 228.211 111.449 225.377 106.972C228.914 110.014 247.001 110.989 250.963 108.186C250.944 109.608 250.756 117.633 250.255 119.952C250.266 120.06 250.279 120.174 250.296 120.288C250.402 119.917 250.486 119.643 250.538 119.499C250.538 119.464 251.483 123.419 254.859 127.154C256.065 128.487 257.805 129.63 260.272 129.727C260.411 129.733 271.405 125.453 272.456 125.022C275.198 123.898 277.592 122.853 276.87 119.329C276.492 117.476 276.987 118.771 275.868 115.743C274.975 116.295 274.308 116.856 272.748 117.606C271.509 117.008 270.844 112.503 271.433 110.117C270.096 110.778 265.521 112.823 263.297 113.725C259.684 109.786 255.45 94.7916 249.947 89.6886C248.997 88.6946 242.269 82.3538 241.477 82.3538C238.28 82.1506 239.053 82.5271 238.462 84.1387C239.173 84.9594 241.003 88.1583 238.234 92.4677C235.38 87.5353 228.949 87.427 228.726 84.8457C228.565 82.9876 228.837 81.5195 229.387 80.0081L229.382 80Z" fill="#BCBDC0"/>
<path fill-rule="evenodd" clip-rule="evenodd" d="M210 112C211.094 116.59 212.369 119.468 215.841 124.863C227.143 140.127 234.223 143.506 237.507 143.899C238.811 144.257 240.451 143.638 242 142.461C240.217 141.81 238.429 140.063 237.254 139.43C233.976 137.661 231.916 135.211 229.275 133.338C225.451 130.627 218.003 122.577 214.8 118.8C213.208 116.924 211.369 114.471 210 112.003V112Z" fill="#A0A2A5"/>
<path fill-rule="evenodd" clip-rule="evenodd" d="M239.785 110.266C244.728 110.43 249.518 109.95 251.312 108.65C251.294 110.06 251.112 118.014 250.625 120.312C250.636 120.419 250.649 120.532 250.665 120.645C250.768 120.277 250.85 120.006 250.9 119.863C250.9 119.828 251.817 123.748 255.095 127.45C256.266 128.771 257.955 129.903 260.35 130C260.424 130.003 263.739 128.701 266.852 127.466C267.875 122.301 263.429 114.889 258.172 118.996C258.93 117.27 261.957 115.136 261.986 115.007C256.522 108.299 255.09 95.7325 246.771 88.82C244.239 86.7153 242.465 84.9033 240.604 83C239.259 83.0564 239.632 83.553 239.18 84.8147C239.864 85.6254 241.627 88.7663 239 93.0051C240.47 98.3016 242.101 104.355 240.285 108.852C240.094 109.321 239.933 109.794 239.79 110.269L239.785 110.266Z" fill="#A0A2A5"/>
<path fill-rule="evenodd" clip-rule="evenodd" d="M271.38 126C271.814 125.812 272.126 125.676 272.261 125.615C272.87 125.34 273.457 125.07 274 124.772C270.803 121.495 269.239 117.932 268.784 114.34C268.644 113.231 268.607 112.115 268.66 111C267.815 111.417 266.887 111.872 266 112.298C266.011 113.112 266.066 113.926 266.169 114.74C266.662 118.627 268.241 122.463 271.38 126Z" fill="#808285"/>
<path fill-rule="evenodd" clip-rule="evenodd" d="M232 141.544C232.932 142.161 233.777 142.638 234.541 143C234.907 139.186 236.258 136.209 238.217 133.895C240.037 131.743 242.399 130.139 245 128.955C244.236 128.283 243.491 127.633 242.771 127C240.276 128.28 238 129.95 236.166 132.116C234.075 134.589 232.574 137.681 232.003 141.541L232 141.544Z" fill="#808285"/>
<path d="M214.02 55.2477C213.965 53.0646 214.025 51.0283 214.184 49.1334C214.931 40.2841 217.876 34.3194 221.903 30.5323C225.943 26.7343 231.062 25.133 236.154 25.0079C237.168 24.9835 238.174 25.0161 239.164 25.1004C245.322 25.6251 251.328 28.6727 255.476 33.7648C259.157 38.2832 261.377 44.4083 260.947 51.8113C260.755 55.0873 260.276 57.5449 259.519 59.7335C258.762 61.9193 257.732 63.8251 256.439 66L255.86 65.652C257.134 63.5124 258.145 61.642 258.884 59.5105C259.619 57.3818 260.087 54.9812 260.276 51.7705C260.698 44.5551 258.538 38.5904 254.957 34.1943C250.925 29.2463 245.092 26.2884 239.113 25.7773C238.134 25.693 237.152 25.6604 236.176 25.6849C231.235 25.8072 226.273 27.3541 222.37 31.0243C218.457 34.7027 215.596 40.5206 214.866 49.1878C214.706 51.0718 214.647 53.0863 214.701 55.2314L214.028 55.2477H214.02Z" fill="black"/>
<path d="M261 49.2329C253.792 50.5484 244.698 50.0476 236.444 48.6716C226.533 47.0221 217.808 44.0974 215 41.5383L215.452 41C218.172 43.4814 226.757 46.3341 236.552 47.9663C244.736 49.3279 253.751 49.8259 260.881 48.5276L261 49.2358V49.2329Z" fill="black"/>
<path d="M258.997 48.9683C258.997 51.5917 257.915 57.9058 256.943 63.5626C256.346 67.0361 255.793 70.2624 255.563 72.2123C253.101 91.3826 222.399 81.8803 218.803 67.8589C218.115 67.696 216.849 67.2017 215.561 66.3924C214.57 65.7705 213.555 64.9558 212.758 63.9564C210.763 61.4471 210.661 59.1061 211.487 57.3979C212.056 56.222 213.066 55.3503 214.208 54.932C215.358 54.5084 216.643 54.5437 217.75 55.1846C219.106 55.9695 220.177 57.6641 220.358 60.5346C220.507 60.2087 220.636 59.8367 220.733 59.4293C220.917 58.6689 220.99 57.789 220.877 56.8684L220.847 56.6294L221.063 56.5235C222.013 56.0482 223.63 54.4486 224.848 52.0751C225.712 50.3886 226.365 48.3192 226.422 46L227.094 46.0163C227.035 48.4523 226.352 50.6195 225.445 52.3847C224.24 54.7338 222.629 56.385 221.57 57.015C221.654 57.9356 221.57 58.8155 221.387 59.5868C221.152 60.5672 220.744 61.3792 220.299 61.887L219.697 62.5741L219.71 61.6562C219.764 58.3756 218.746 56.5398 217.415 55.7658C216.492 55.2308 215.412 55.2036 214.438 55.5621C213.455 55.9233 212.583 56.6728 212.094 57.6858C211.371 59.1822 211.481 61.2597 213.285 63.5273C214.025 64.4561 214.98 65.2192 215.917 65.8086C217.316 66.6857 218.647 67.1664 219.16 67.2289L219.435 67.2642C222.34 80.7532 252.423 90.4158 254.896 72.1254C255.129 70.1592 255.685 66.9247 256.281 63.4404C257.248 57.8134 258.325 51.5292 258.325 48.9601H259L258.997 48.9683Z" fill="black"/>
<path d="M239.997 82.2959C239.238 83.0954 238.864 84.1886 238.514 85.2027C238.418 85.485 238.321 85.7628 238.232 86C237.535 84.9114 238.562 82.7476 239.272 82L240 82.2981L239.997 82.2959Z" fill="black"/>
<path d="M229.122 80.7348C228.545 81.0309 224.62 82.9689 223.929 83.3134C217.366 86.5918 209.601 90.4704 208.832 98.3838C208.048 106.456 210.26 114.394 214.265 121.499C218.834 129.607 225.737 136.632 233.195 141.552C233.583 141.808 233.981 142.045 234.387 142.255C235.824 143.003 237.393 143.46 238.883 143.299C240.35 143.14 241.753 142.373 242.892 140.672C243.07 140.405 243.238 140.12 243.401 139.816L244 140.126C243.824 140.459 243.642 140.763 243.458 141.041C242.192 142.93 240.615 143.786 238.957 143.964C237.322 144.141 235.62 143.649 234.076 142.847C233.639 142.621 233.222 142.373 232.824 142.109C225.282 137.13 218.3 130.024 213.677 121.825C209.607 114.606 207.363 106.539 208.159 98.3165C208.964 90.0344 216.913 86.0642 223.628 82.7105C224.263 82.3929 228.39 80.3499 229.076 80L229.122 80.7294V80.7348Z" fill="black"/>
<path d="M237 143.964C237.19 140.949 238.628 138.255 240.509 136.194C242.806 133.674 245.785 132.087 247.969 132L248 132.638C245.998 132.718 243.228 134.215 241.056 136.599C239.26 138.568 237.889 141.134 237.708 144L237.003 143.964H237Z" fill="black"/>
<path d="M232.337 116.21C233.403 117.752 234.388 119.181 236.549 121.246C237.17 121.839 244.075 127.977 247.276 130.823C248.257 131.695 248.896 132.261 248.907 132.275C249.457 132.819 251.153 134.243 252.661 135.507C253.644 136.329 254.544 137.087 255 137.491L254.544 138C254.086 137.593 253.193 136.843 252.219 136.029C250.695 134.752 248.982 133.314 248.421 132.759L246.818 131.332C243.606 128.475 236.684 122.323 236.071 121.738C233.861 119.627 232.856 118.17 231.772 116.598C231.149 115.693 230.495 114.75 229.556 113.607C226.366 109.722 224.273 105.451 222 101C225.322 106.457 230.682 113.817 232.335 116.21H232.337Z" fill="black"/>
<path d="M254.073 136.864C255.092 136.991 256.281 136.764 257.595 136.514C260.862 135.892 264.879 135.125 269.366 138.935C271.558 140.795 272.4 142.592 271.824 145.61C271.795 145.766 271.696 146.199 271.482 146.527C271.209 146.943 270.792 147.204 270.179 146.793L270.526 146.207C270.729 146.343 270.865 146.263 270.953 146.132C271.097 145.913 271.17 145.591 271.19 145.474C271.717 142.717 270.966 141.179 268.964 139.479C264.704 135.864 260.849 136.6 257.712 137.197C256.344 137.458 255.108 137.694 254 137.555L254.073 136.866V136.864Z" fill="black"/>
<path d="M271.072 144.325C271.91 145.692 272.111 146.863 271.948 147.532C271.88 147.806 271.749 148.014 271.571 148.144C271.362 148.295 271.107 148.339 270.822 148.254C270.397 148.129 269.889 147.669 269.403 146.784C269.231 146.474 269.005 146.134 268.688 145.831C268.379 145.535 267.979 145.271 267.45 145.108C267.009 144.971 266.388 144.721 265.762 144.47C265.453 144.345 265.142 144.22 264.854 144.11C265.588 144.912 266.59 146.029 266.743 146.354C267.001 146.899 267.21 147.545 267.337 148.17C267.46 148.782 267.506 149.376 267.444 149.85C267.391 150.26 267.224 150.549 267.004 150.737C266.832 150.884 266.63 150.967 266.421 150.991C266.216 151.016 266.009 150.989 265.821 150.913C265.558 150.808 265.332 150.615 265.206 150.353L265.821 150.106C265.878 150.221 265.977 150.307 266.09 150.353C266.168 150.385 266.251 150.397 266.332 150.385C266.407 150.375 266.482 150.346 266.547 150.29C266.657 150.194 266.746 150.031 266.778 149.774C266.832 149.358 266.791 148.826 266.678 148.276C266.56 147.696 266.367 147.097 266.128 146.589C265.977 146.269 263.591 143.414 263 143.042C264.303 143.186 264.806 143.411 266.034 143.905C266.646 144.149 267.253 144.394 267.67 144.523C268.312 144.724 268.798 145.044 269.177 145.406C269.548 145.76 269.809 146.151 270.005 146.508C270.403 147.229 270.763 147.589 271.031 147.669C271.085 147.686 271.128 147.682 271.158 147.662C271.217 147.618 271.265 147.528 271.3 147.393C271.437 146.843 271.244 145.838 270.494 144.616C269.699 143.321 267.272 141.568 265.789 141.006C267.635 140.876 270.209 142.9 271.08 144.318L271.072 144.325Z" fill="black"/>
<path d="M260.396 143.821C262.803 145.07 264.13 147.013 264.674 148.72C264.865 149.32 264.967 149.878 264.993 150.347C265.021 150.844 264.964 151.255 264.841 151.522C264.75 151.721 264.616 151.86 264.447 151.921C263.211 152.365 262.278 150.841 261.499 149.567C261.146 148.99 260.83 148.471 260.587 148.304C260.195 148.032 259.884 147.793 259.63 147.599C258.745 146.922 258.664 146.858 256.534 146.858C255.175 146.858 252.664 146.73 250.649 146.078C249.285 145.634 248.14 144.942 247.688 143.876C247.304 142.966 246.755 142.247 246.107 141.644C245.451 141.031 244.685 140.531 243.883 140.068C243.575 139.89 242.752 139.374 241.921 138.841C241.16 138.352 240.389 137.849 240 137.58L240.358 137C240.74 137.267 241.503 137.763 242.258 138.246C243.076 138.771 243.888 139.279 244.197 139.457C245.036 139.94 245.841 140.467 246.541 141.122C247.252 141.786 247.855 142.583 248.284 143.593C248.644 144.448 249.64 145.026 250.84 145.414C252.771 146.042 255.211 146.164 256.534 146.164C258.87 146.164 258.964 146.239 260.009 147.038C260.242 147.216 260.529 147.435 260.942 147.724C261.295 147.971 261.65 148.548 262.042 149.192C262.696 150.264 263.477 151.541 264.235 151.269C264.24 151.269 264.235 151.255 264.251 151.224C264.326 151.063 264.358 150.772 264.334 150.392C264.311 149.981 264.219 149.487 264.047 148.948C263.03 145.758 261.141 145.187 260.386 143.826L260.396 143.821Z" fill="black"/>
<path d="M264.801 151C264.949 151.422 265.694 153.945 266.269 156.029C266.663 157.454 266.983 158.691 267 158.965L266.162 159C266.148 158.783 265.835 157.59 265.451 156.197C264.872 154.104 264.141 151.607 264 151.211L264.801 151.003V151Z" fill="black"/>
<path d="M271 139.814C271.223 139.789 271.616 139.736 272.113 139.672C273.316 139.515 275.156 139.271 277.418 139.034L277.726 139L277.768 139.333C278.2 142.724 278.614 145.939 279.119 149.148C279.623 152.349 280.213 155.525 281 158.827L280.376 159C279.582 155.662 278.987 152.469 278.482 149.263C277.995 146.168 277.589 143.046 277.172 139.761C275.12 139.982 273.36 140.212 272.19 140.365C271.732 140.424 271.367 140.475 271.07 140.508L271.003 139.814H271Z" fill="black"/>
<path d="M278 140.291C278.122 140.238 278.67 140.148 279.218 140.083C279.668 140.029 280.135 139.993 280.384 140.001L280.68 140.012L280.707 140.316C280.976 143.206 281.524 147.314 282.196 151.09C282.741 154.143 283.371 156.977 284 158.761L283.365 159C282.722 157.179 282.085 154.309 281.534 151.217C280.881 147.562 280.346 143.594 280.067 140.707C279.847 140.719 279.571 140.747 279.294 140.778C278.795 140.837 278.328 140.907 278.258 140.935L278 140.288V140.291Z" fill="black"/>
<path d="M261 158.136C270.326 158.106 279.682 158.222 289 158C289.022 158.873 264.573 159.664 261 158.136Z" fill="black"/>
<path d="M259 161.405C271.611 161.583 284.285 161.212 296.84 161.442C298.681 161.476 305.417 158.9 307 158C305.194 159.482 299.506 162.026 296.829 161.976C285.715 161.774 264.51 162.43 259.003 161.405H259Z" fill="black"/>
<path d="M265.984 154.776C265.094 154.762 264.399 154.733 263.805 154.711C261.303 154.615 260.696 154.59 256.441 155.948C254.858 156.453 252.628 157.054 250.4 157.655C248.351 158.208 246.299 158.76 244.73 159.246C241.596 160.217 240.519 160.652 240.717 160.778C241.236 161.108 243.423 161.226 246.307 161.336C247.73 161.39 249.356 161.436 251.131 161.471C249.342 162.174 241.731 162.222 240.346 161.339C239.363 160.711 240.39 159.887 244.527 158.605C246.063 158.13 248.142 157.569 250.221 157.008C252.435 156.412 254.647 155.817 256.235 155.31C260.602 153.917 261.234 153.941 263.838 154.04C264.434 154.064 265.137 154.091 266 154.105L265.989 154.773L265.984 154.776Z" fill="black"/>
<path d="M282.376 154.014C284.086 153.978 286.872 154.019 289.507 154.061C291.237 154.088 292.898 154.113 294.243 154.113C296.03 154.113 298.179 154.105 300.221 154.088C302.214 154.072 304.212 154.05 305.851 154.022C307.092 154.003 308.377 153.986 309.37 154.488C310.836 155.23 311.056 156.741 310.99 158.239C310.949 159.188 310.976 161.471 310.993 163.038C311.001 163.791 310.82 164.588 309.873 165.106C308.423 165.898 306.513 166.935 304.901 167.826C302.914 168.929 301.182 169.894 300.74 170.162C299.653 170.821 297.828 170.799 296.315 170.779C295.887 170.774 295.483 170.768 295.135 170.779C277.737 171.348 260.564 170.639 243.249 170.639C242.607 170.639 241.649 170.539 240.949 170.084C240.427 169.748 240.048 169.229 240.026 168.441C239.991 167.147 239.999 165.382 240.007 163.57C240.01 162.916 240.013 162.257 240.013 161.179H240.699C240.699 161.664 240.693 162.627 240.691 163.573C240.682 165.377 240.674 167.133 240.71 168.421C240.724 168.94 240.973 169.282 241.319 169.505C241.879 169.867 242.694 169.949 243.249 169.949C260.562 169.949 277.721 170.661 295.113 170.093C295.47 170.082 295.881 170.087 296.321 170.093C297.742 170.112 299.461 170.134 300.383 169.571C300.825 169.304 302.568 168.33 304.566 167.222C306.194 166.32 308.143 165.263 309.593 164.472C310.125 164.18 310.312 163.603 310.309 163.071C310.298 161.513 310.257 159.168 310.298 158.206C310.347 157.025 310.232 155.693 309.055 155.098C308.209 154.67 307.012 154.684 305.854 154.703C304.218 154.731 302.217 154.753 300.218 154.769C297.948 154.789 295.799 154.797 294.234 154.797C293.062 154.797 291.314 154.769 289.491 154.742C286.864 154.7 284.083 154.659 282.382 154.695L282.368 154.008L282.376 154.014Z" fill="black"/>
<path d="M208.997 102.003C209 104.039 208.266 108.334 207.295 113.027C205.923 119.661 204.081 127.107 203.201 130.072C198.113 147.197 199.452 151.947 201.534 159.314C202.155 161.514 202.841 163.947 203.446 167C202.365 164.22 201.281 160.895 200.888 159.499C198.774 152.015 197.413 147.188 202.559 129.876C203.438 126.922 205.272 119.5 206.641 112.888C207.604 108.23 208.333 103.984 208.33 102H209L208.997 102.003Z" fill="black"/>
<path d="M248.088 158C247.952 156.371 247.756 154.894 247.568 153.483C247.164 150.448 246.803 147.71 247.122 144.052L247.736 144.114C247.424 147.689 247.783 150.391 248.18 153.385C248.365 154.788 248.561 156.256 248.702 157.937L248.088 157.997V158ZM247.514 131.964C247.578 131.223 247.662 130.485 247.771 129.754C247.88 129.024 248.016 128.294 248.187 127.567C249.398 122.41 250.13 117.754 250.353 113.019C250.576 108.29 250.291 103.476 249.462 98C251.032 103.974 251.064 111.079 250.97 113.054C250.744 117.833 250.004 122.53 248.784 127.733C248.62 128.43 248.487 129.141 248.38 129.863C248.271 130.585 248.189 131.307 248.128 132.027L247.514 131.964Z" fill="black"/>
<path d="M242.438 83.0026C244.459 84.6406 249.212 88.6129 250.48 89.9396C251.745 91.2663 252.876 92.7223 254.383 94.9089C254.965 95.7529 256.002 98.1189 257.223 100.904C259.514 106.132 262.466 112.866 264 113.38L263.78 114C261.957 113.388 258.94 106.504 256.598 101.16C255.39 98.4037 254.364 96.0642 253.82 95.2729C252.329 93.1127 251.217 91.6778 249.982 90.3827C248.749 89.0903 244.01 85.1312 242 83.5038L242.435 83L242.438 83.0026Z" fill="black"/>
<path d="M258 119C258.493 116.637 260.803 115.381 262.732 114.273C263.734 113.698 266.395 112.448 268.981 111.235C271.06 110.257 273.09 109.307 274.148 108.753C274.075 108.342 274.015 108.04 273.961 107.778C273.797 106.978 273.707 106.533 273.707 105.22C273.707 104.272 274.156 103.219 274.611 102.16C274.875 101.544 275.139 100.926 275.305 100.34C275.539 99.5079 275.705 98.6571 275.8 97.7928C275.898 96.9097 275.925 96.0103 275.887 95.1028C275.841 94.0089 276.848 93.7551 277.672 94.225C278.347 94.6085 279.055 95.5133 279.289 96.9907C279.536 98.5626 279.433 99.1379 279.267 100.056C279.207 100.38 279.142 100.753 279.077 101.274C278.973 102.114 279.343 102.717 279.776 103.416C280.489 104.575 281.352 105.974 280.851 108.983C280.734 107.073 280.769 106.319 279.199 103.764C278.701 102.957 278.274 102.26 278.404 101.188C278.467 100.691 278.54 100.286 278.603 99.9319C278.758 99.0839 278.853 98.5491 278.622 97.0879C278.426 95.8455 277.868 95.1055 277.338 94.803C277 94.6112 276.546 94.5329 276.568 95.0704C276.608 96.013 276.578 96.9448 276.478 97.8604C276.377 98.7598 276.206 99.6483 275.961 100.515C275.787 101.134 275.512 101.774 275.24 102.414C274.815 103.405 274.393 104.394 274.393 105.212C274.393 106.471 274.478 106.887 274.63 107.637C274.731 108.129 274.82 108.615 274.902 109.109C273.084 110.087 271.144 110.954 269.274 111.835C266.703 113.042 264.052 114.287 263.078 114.846C260.966 116.045 259.312 116.831 258.005 118.989L258 119Z" fill="black"/>
<path d="M278.78 99.9889C279.75 99.4048 282.405 97.9647 285.163 96.6402C287.008 95.7524 288.902 94.9166 290.377 94.4164C291.863 93.9132 292.794 93.9103 293.299 94.1734C293.599 94.3296 293.772 94.5696 293.838 94.8617C293.897 95.1249 293.858 95.414 293.744 95.709C293.46 96.4349 292.663 97.2533 291.716 97.6292C291.441 97.7391 290.005 98.4563 288.888 99.0578C288.219 99.4193 287.705 99.5985 287.694 99.6448C287.694 99.6593 287.722 99.7981 287.788 99.9514C287.805 99.989 287.822 100.024 287.841 100.047C288.116 99.9167 290.361 99.3267 292.008 98.8929C292.885 98.6616 293.597 98.4765 293.716 98.4389C294.13 98.3088 294.702 98.303 295.191 98.4389C295.48 98.5228 295.746 98.6587 295.946 98.8525C296.171 99.0693 296.31 99.3527 296.31 99.7056C296.31 99.9832 296.219 100.295 296.008 100.643C295.369 101.686 292.052 102.887 290.122 103.586C289.583 103.783 289.152 103.936 288.944 104.029C288.944 104.029 288.944 104.092 288.944 104.173C288.944 104.234 288.952 104.298 288.972 104.359C288.986 104.408 289.005 104.451 289.033 104.483C289.049 104.503 289.072 104.515 289.105 104.506C289.505 104.393 290.238 104.173 291.06 103.928C292.183 103.589 293.469 103.205 294.163 103.011C295.044 102.765 295.924 102.898 296.446 103.248C296.68 103.404 296.852 103.607 296.938 103.847C297.03 104.101 297.024 104.379 296.891 104.668C296.655 105.189 295.966 105.764 294.613 106.276C294.099 106.47 293.28 106.698 292.433 106.932C291.352 107.233 290.224 107.545 289.677 107.803C289.622 107.829 289.591 107.875 289.58 107.924C289.563 107.994 289.569 108.077 289.588 108.161C289.611 108.254 289.647 108.341 289.694 108.41C289.716 108.445 289.666 108.465 289.694 108.465C289.947 108.465 290.588 108.338 291.324 108.19C292.81 107.898 294.649 107.537 295.063 107.968C295.519 108.442 295.435 108.928 294.977 109.405C293.924 110.504 290.338 111.611 287.891 112.366C286.772 112.713 285.9 112.982 285.691 113.112C284.633 113.777 283.455 114.263 282.297 114.599C280.927 114.995 279.58 115.177 278.497 115.194C277.955 115.203 276.561 116.183 275.18 117.152C274.092 117.918 273.014 118.676 272.267 119L272 118.335C272.678 118.04 273.731 117.3 274.792 116.553C276.255 115.524 277.736 114.483 278.489 114.474C279.519 114.46 280.802 114.283 282.114 113.905C283.214 113.586 284.33 113.124 285.333 112.493C285.613 112.317 286.525 112.036 287.697 111.675C290.072 110.94 293.555 109.865 294.485 108.896C294.638 108.737 294.683 108.595 294.571 108.479C294.416 108.317 292.777 108.638 291.452 108.899C290.688 109.049 290.019 109.179 289.699 109.182C289.483 109.182 289.277 109.04 289.13 108.818C289.038 108.682 288.963 108.508 288.922 108.326C288.877 108.135 288.869 107.933 288.913 107.745C288.974 107.49 289.124 107.268 289.399 107.141C289.994 106.86 291.155 106.539 292.263 106.23C293.097 105.998 293.902 105.776 294.385 105.59C295.544 105.154 296.108 104.72 296.271 104.353C296.316 104.252 296.321 104.165 296.296 104.092C296.266 104.006 296.188 103.922 296.077 103.847C295.702 103.595 295.035 103.508 294.346 103.699C293.538 103.925 292.319 104.292 291.255 104.61C290.366 104.876 289.577 105.113 289.288 105.194C288.949 105.29 288.686 105.165 288.502 104.934C288.419 104.827 288.355 104.7 288.313 104.561C288.277 104.437 288.258 104.298 288.255 104.168C288.255 103.815 288.394 103.482 288.677 103.358C288.913 103.254 289.349 103.098 289.897 102.898C291.744 102.23 294.919 101.082 295.43 100.249C295.566 100.027 295.624 99.8444 295.624 99.6998C295.624 99.5696 295.569 99.4597 295.48 99.373C295.366 99.2631 295.199 99.1821 295.01 99.1272C294.644 99.0231 294.221 99.0231 293.922 99.1185C293.749 99.1735 293.049 99.3556 292.18 99.5841C290.558 100.009 288.349 100.59 288.13 100.692C287.977 100.764 287.836 100.778 287.702 100.75C287.558 100.718 287.438 100.64 287.344 100.533C287.266 100.446 287.208 100.345 287.161 100.235C287.036 99.9456 287.008 99.5552 287.022 99.4858C287.061 99.2804 287.741 98.8496 288.574 98.4013C289.713 97.7883 291.185 97.0508 291.472 96.938C292.244 96.6315 292.883 95.9895 293.102 95.4227C293.166 95.2608 293.188 95.1162 293.163 95.0063C293.147 94.9253 293.091 94.8559 292.991 94.8039C292.633 94.6159 291.883 94.6506 290.591 95.0873C289.144 95.5789 287.275 96.4059 285.452 97.2822C282.714 98.598 280.086 100.024 279.128 100.602L278.78 99.9774V99.9889Z" fill="black"/>
<path d="M276.052 116.005C276.494 117.214 276.802 118.521 276.931 119.69C277.058 120.851 277.015 121.891 276.759 122.599C276.489 123.346 273.469 124.903 270.047 126.392C265.833 128.224 260.955 130 259.928 130C255.039 130 251.391 122.654 250.14 120.131L250 119.848L250.607 119.561L250.747 119.843C251.949 122.269 255.46 129.34 259.928 129.34C260.88 129.34 265.631 127.593 269.778 125.79C273.057 124.365 275.923 122.934 276.125 122.377C276.346 121.765 276.381 120.825 276.265 119.756C276.141 118.632 275.847 117.38 275.424 116.222L276.055 116L276.052 116.005Z" fill="black"/>
<path d="M272.077 110.263C271.347 112.004 271.652 114.618 272.574 116.835C273.588 119.28 275.286 121.492 277 122.392L276.692 123C274.84 122.025 273.023 119.68 271.952 117.101C270.968 114.73 270.652 111.924 271.458 110L272.077 110.266V110.263Z" fill="black"/>
<path d="M286.665 104.877C286.995 105.941 287.242 109.032 286.599 110C286.599 107.997 286.377 106.449 285.944 105.053C285.508 103.655 284.856 102.404 284 101C285.418 101.722 286.352 103.869 286.668 104.874L286.665 104.877Z" fill="black"/>
<path d="M220 99C218.971 97.3319 215.472 93.469 214 92C216.612 93.0281 218.826 96.5558 220 99Z" fill="black"/>
<path fill-rule="evenodd" clip-rule="evenodd" d="M246.997 73.2575C242.083 74.4137 235.006 71.9967 235 72C235.57 76.6217 238.175 77.8987 240.368 78C238.576 77.4643 236.387 75.6189 236.125 73.1007C238.742 73.8683 242.749 74.7828 246.128 74.1263C245.953 75.1421 243.397 77.4741 242.583 77.9314C245.264 77.301 246.709 74.6489 247 73.264L246.997 73.2575Z" fill="black"/>
<path fill-rule="evenodd" clip-rule="evenodd" d="M264 138.025C261.32 138.816 260.619 140.557 259 143C259.87 140.868 261.205 137.684 264 138.025Z" fill="black"/>
<path fill-rule="evenodd" clip-rule="evenodd" d="M298.769 173C298.609 176.721 299.14 180.167 298.963 184C298.117 179.831 297.395 177.195 298.769 173Z" fill="black"/>
<path fill-rule="evenodd" clip-rule="evenodd" d="M297.424 163C298.191 166.327 298.14 164.661 297.576 168C296.809 164.673 296.86 166.339 297.424 163Z" fill="black"/>
<path fill-rule="evenodd" clip-rule="evenodd" d="M237 65C235.11 64.7426 233.969 64.3768 232 64.1365C234.818 63.8408 234.427 63.9812 237 65Z" fill="#090606"/>
<path fill-rule="evenodd" clip-rule="evenodd" d="M248 66C249.154 63.9408 249.744 63.5888 252 63C250.652 63.9793 249.275 64.932 248 66Z" fill="#090606"/>
<path fill-rule="evenodd" clip-rule="evenodd" d="M233.254 64.403C232.343 62.2517 234.094 59.0599 235.197 59.0006C235.812 58.9725 236.328 59.8635 235.744 61.9472C235.638 62.3165 235.165 63.8617 234.645 64.6314C234.022 65.5535 233.286 64.4623 233.254 64.403Z" fill="#090606"/>
<path fill-rule="evenodd" clip-rule="evenodd" d="M248.461 65C246.928 63.34 249.684 58.8174 249.993 62.2609C250.03 62.6379 249.923 63.5286 249.569 64.2025C249.345 64.6316 248.952 64.9978 248.461 65Z" fill="#090606"/>
<path fill-rule="evenodd" clip-rule="evenodd" d="M234.95 60.5628C234.86 60.9055 234.474 61.6739 234.361 61.8425C234.085 62.2543 233.957 61.7651 234.013 61.4417C234.062 61.1211 234.133 60.9083 234.287 60.6015C234.704 59.8414 235.152 59.7723 234.95 60.5628Z" fill="white"/>
<path fill-rule="evenodd" clip-rule="evenodd" d="M248 62C248.814 61.824 249.162 61.236 248.929 61C248.294 61.3429 248.103 61.7901 248 62Z" fill="white"/>
<path fill-rule="evenodd" clip-rule="evenodd" d="M248 55.2395C249.004 54.1173 251.393 53.0576 252.775 55.4028C253.362 56.4034 252.684 55.8892 252.074 55.6877C250.557 55.2048 249.659 54.9442 248 55.243V55.2395Z" fill="#010101"/>
<path fill-rule="evenodd" clip-rule="evenodd" d="M237 53.1265C235.939 52.1314 233.645 51.0854 232.282 53.3662C231.678 54.3832 232.146 53.9037 232.732 53.7694C234.142 53.4897 235.375 53.1919 237 53.1302V53.1265Z" fill="#010101"/>
<path fill-rule="evenodd" clip-rule="evenodd" d="M244 67.5179C245.762 65.7147 247.139 69.1302 244.63 70C245.46 68.6025 246.147 67.3005 244 67.5179Z" fill="black"/>
<path fill-rule="evenodd" clip-rule="evenodd" d="M249 67C249.332 64.7136 251.033 64.0714 253 64C251.201 65.0377 250.428 65.5639 249 67Z" fill="#FFFCD5"/>
<path fill-rule="evenodd" clip-rule="evenodd" d="M237 67C233.142 65.5947 232.31 65.7549 228 65.6031C231.847 64.7768 233.956 64.4423 237 67Z" fill="#FFFCD5"/>
<path d="M229.642 79.1786C229.494 79.7592 229.388 80.1779 229.269 80.6775C229.155 81.1548 229.02 81.741 228.809 82.6732C228.154 85.5594 230.305 86.6061 232.74 87.7923C234.734 88.7637 236.904 89.8215 238.079 91.9875C238.503 90.7985 239.093 89.6904 239.826 88.7972C240.367 88.1384 241.801 87.2564 243 87.4379C241.975 87.6919 241.079 88.3506 240.34 89.2466C239.496 90.2709 238.858 91.6079 238.455 93.0203L238.176 94L237.816 93.0482C236.885 90.5808 234.561 89.4503 232.451 88.4204C229.753 87.1057 227.372 85.9473 228.149 82.5141C228.352 81.6182 228.484 81.0376 228.612 80.51C228.731 80.0076 228.836 79.5862 228.988 79L229.64 79.1758L229.642 79.1786Z" fill="black"/>
<path fill-rule="evenodd" clip-rule="evenodd" d="M215 57C217.607 58.9067 217.093 59.9413 216.596 63C216.324 59.5493 216.896 59.6213 215 57Z" fill="black"/>
<path d="M243.676 170.22L243.973 182.604C244.001 183.703 244.233 184.55 244.787 185.138C245.345 185.729 246.248 186.083 247.611 186.198L294.276 187.279C297.976 187.585 299.036 186.491 300.412 185.066C300.62 184.851 300.837 184.627 301.034 184.433L306.018 179.106C306.518 178.571 306.845 177.977 307.045 177.288C307.254 176.577 307.329 175.765 307.327 174.812L307.273 166H307.946L308 174.812C308.003 175.826 307.919 176.699 307.694 177.469C307.465 178.259 307.089 178.941 306.513 179.556L301.51 184.904C301.272 185.138 301.083 185.333 300.899 185.524C299.395 187.079 298.241 188.277 294.22 187.944L247.554 186.863C246.012 186.736 244.969 186.31 244.293 185.593C243.614 184.875 243.327 183.882 243.297 182.622L243 170.238L243.673 170.222L243.676 170.22Z" fill="black"/>
<path fill-rule="evenodd" clip-rule="evenodd" d="M273 118.511C274.052 120.011 275.45 121.298 276.888 122C277.027 121.462 277.033 120.753 276.925 119.967C276.796 119.025 276.499 117.983 276.074 117C275.999 117.038 275.925 117.077 275.854 117.115C274.821 117.658 273.796 118.199 273 118.511Z" fill="#4F4A4A"/>
<path fill-rule="evenodd" clip-rule="evenodd" d="M243 140.037C242.701 139.874 241.931 139.419 241.152 138.949C240.58 138.606 240.001 138.252 239.606 138C238.755 139.474 238.153 141.16 238 142.98C238.344 143.009 238.685 143.007 239.022 142.97C240.36 142.824 241.642 142.119 242.681 140.557C242.79 140.391 242.899 140.218 243 140.035V140.037Z" fill="#4F4A4A"/>
<path fill-rule="evenodd" clip-rule="evenodd" d="M236 116.577C239.988 116.449 243.994 116.162 248 116C243.397 117.079 240.665 117.306 236 116.577Z" fill="white"/>
<path fill-rule="evenodd" clip-rule="evenodd" d="M229 109C235.877 110.161 241.047 110.676 248 110.058C241.586 111.697 235.309 111.103 229 109Z" fill="white"/>
<path fill-rule="evenodd" clip-rule="evenodd" d="M232 139C233.302 134.013 233.876 132.818 239 130C234.625 133.317 234.012 134.305 232 139Z" fill="white"/>
<path fill-rule="evenodd" clip-rule="evenodd" d="M235 141C235.983 135.083 237.073 134.329 242 131C237.6 134.809 236.741 135.464 235 141Z" fill="white"/>
<path fill-rule="evenodd" clip-rule="evenodd" d="M266 115C267.122 118.43 267.789 119.915 270 123C266.716 119.993 266.376 118.908 266 115Z" fill="white"/>
<path fill-rule="evenodd" clip-rule="evenodd" d="M269.014 112C269.609 116.478 269.91 118.072 272 122C269.163 118.247 268.929 116.9 269.014 112Z" fill="white"/>
<path fill-rule="evenodd" clip-rule="evenodd" d="M222 103C224.606 108.958 226.526 111.022 229.767 116.513C229.911 116.756 229.892 116.737 230 117L229.81 116.81C226.35 112.923 223.418 108.096 222 103Z" fill="white"/>
<path fill-rule="evenodd" clip-rule="evenodd" d="M231 118C235.306 123.071 233.307 120.406 237 126C232.694 120.929 234.693 123.594 231 118Z" fill="white"/>
<path fill-rule="evenodd" clip-rule="evenodd" d="M207 119C206.43 125.194 205.936 127.097 204 133C204.963 128.313 206.018 123.68 207 119Z" fill="white"/>
<path fill-rule="evenodd" clip-rule="evenodd" d="M203 136C202.144 140.494 201.617 144.489 201.048 149C200.911 142.754 200.931 142.023 203 136Z" fill="white"/>
<path fill-rule="evenodd" clip-rule="evenodd" d="M217 89C220.684 86.5208 218.677 87.512 223 86C219.127 88.1024 221.125 87.0992 217 89Z" fill="white"/>
<path fill-rule="evenodd" clip-rule="evenodd" d="M236 169.096C225.489 170.627 216.009 170.773 207 165C218.337 169.839 223.55 169.47 236 169.096Z" fill="#6D6E70"/>
<path fill-rule="evenodd" clip-rule="evenodd" d="M264 184C266.847 178.724 270.761 177.456 276 174C271.539 178.512 268.458 179.015 264 184Z" fill="#FFF685"/>
<path fill-rule="evenodd" clip-rule="evenodd" d="M271 168C275.206 166.422 279.108 163.962 284 164C283.343 164.171 283.818 164.06 283.15 164.188C277.744 165.221 275.884 166.795 271 168Z" fill="#927649"/>
<path fill-rule="evenodd" clip-rule="evenodd" d="M273 142.21C276.876 141.103 272.711 144.711 276.495 145.306C277.836 145.518 278.319 151.673 278.599 152.967L279 155L278.178 153.054C277.711 151.811 276.636 146.205 276.353 145.88C271.636 144.946 276.853 142.242 273.003 142.21H273ZM276.363 145.88C276.38 145.886 276.383 145.886 276.409 145.888L276.363 145.88Z" fill="black"/>
<path fill-rule="evenodd" clip-rule="evenodd" d="M267 151C269.072 154.693 268.384 152.71 269 157C267.284 153.076 268 155.068 267 151Z" fill="black"/>
<rect x="22.5" y="1.5" width="45" height="30" rx="8.5" fill="#E17DFA" stroke="white" stroke-width="3"/>
<path d="M40.3432 7.54545V25H37.7011V10.1875H37.5988L33.4227 12.9148V10.392L37.7778 7.54545H40.3432ZM49.2215 25.2898C47.8749 25.2841 46.7243 24.929 45.7698 24.2244C44.8152 23.5199 44.0851 22.4943 43.5794 21.1477C43.0737 19.8011 42.8209 18.179 42.8209 16.2812C42.8209 14.3892 43.0737 12.7727 43.5794 11.4318C44.0908 10.0909 44.8237 9.06818 45.7783 8.36364C46.7385 7.65909 47.8862 7.30682 49.2215 7.30682C50.5567 7.30682 51.7016 7.66193 52.6561 8.37216C53.6107 9.0767 54.3408 10.0994 54.8465 11.4403C55.3578 12.7756 55.6135 14.3892 55.6135 16.2812C55.6135 18.1847 55.3607 19.8097 54.855 21.1562C54.3493 22.4972 53.6192 23.5227 52.6646 24.233C51.7101 24.9375 50.5624 25.2898 49.2215 25.2898ZM49.2215 23.0142C50.4033 23.0142 51.3266 22.4375 51.9913 21.2841C52.6618 20.1307 52.997 18.4631 52.997 16.2812C52.997 14.8324 52.8436 13.608 52.5368 12.608C52.2357 11.6023 51.801 10.8409 51.2328 10.3239C50.6703 9.80114 49.9999 9.53977 49.2215 9.53977C48.0453 9.53977 47.122 10.1193 46.4516 11.2784C45.7811 12.4375 45.4431 14.1051 45.4374 16.2812C45.4374 17.7358 45.5879 18.9659 45.8891 19.9716C46.1959 20.9716 46.6306 21.7301 47.1931 22.2472C47.7556 22.7585 48.4317 23.0142 49.2215 23.0142Z" fill="white"/>
<path fill-rule="evenodd" clip-rule="evenodd" d="M262.021 170.817C272.99 170.979 283.954 171.141 295.007 170.775C295.351 170.764 295.75 170.77 296.173 170.775H296.176C297.66 170.795 299.454 170.817 300.509 170.171C300.723 170.039 301.263 169.731 301.993 169.319C302.737 168.899 303.654 168.385 304.622 167.844C305.116 167.569 305.659 167.267 306.215 166.959L307.957 166L308 174.996C308 175.49 307.984 175.949 307.938 176.375C307.891 176.804 307.821 177.202 307.715 177.573C307.612 177.936 307.476 178.271 307.305 178.59C307.132 178.906 306.92 179.202 306.665 179.483L301.662 184.983C301.464 185.184 301.252 185.409 301.046 185.629L301.041 185.637C300.346 186.379 299.73 187.033 298.813 187.467C297.899 187.898 296.694 188.107 294.822 187.945L248.002 186.591C247.31 186.533 246.735 186.409 246.263 186.225C245.785 186.038 245.408 185.788 245.121 185.475C244.836 185.162 244.632 184.783 244.496 184.335C244.364 183.892 244.296 183.381 244.282 182.807L244 170.641H244.079C250.072 170.643 256.046 170.731 262.018 170.822L262.021 170.817Z" fill="#D2AB67"/>
<path fill-rule="evenodd" clip-rule="evenodd" d="M285.813 155.038C286.954 155.048 288.181 155.067 289.374 155.085H289.376C291.162 155.111 292.877 155.137 294.053 155.137C294.872 155.137 295.788 155.137 296.75 155.129C297.752 155.124 298.841 155.119 299.961 155.109C300.974 155.101 301.987 155.09 302.955 155.08C303.868 155.069 304.738 155.059 305.524 155.046C306.098 155.038 306.683 155.027 307.225 155.075C307.775 155.119 308.29 155.221 308.718 155.428C309.323 155.721 309.653 156.194 309.827 156.738C309.997 157.274 310.014 157.879 309.989 158.446C309.959 159.139 309.973 160.589 309.989 161.894C309.995 162.304 309.997 162.702 310 163.058C310 163.34 309.946 163.639 309.808 163.897C309.688 164.12 309.51 164.316 309.252 164.452L307.84 165.192C306.678 165.802 305.394 166.474 304.291 167.06C303.215 167.633 302.223 168.164 301.483 168.561C300.838 168.909 300.367 169.168 300.164 169.286C299.234 169.827 297.527 169.806 296.113 169.791H296.105C295.674 169.786 295.273 169.78 294.923 169.791C283.889 170.139 272.95 169.982 262.006 169.827C255.931 169.741 249.85 169.655 243.723 169.655C243.406 169.655 243.005 169.629 242.615 169.542C242.317 169.477 242.022 169.375 241.775 169.223C241.585 169.105 241.423 168.954 241.309 168.76C241.209 168.588 241.146 168.381 241.138 168.138C241.103 166.919 241.111 165.258 241.119 163.552L241.127 161.674L241.228 161.705C242.26 162.022 244.33 162.161 246.36 162.148C248.151 162.134 249.91 162.004 250.896 161.771C250.191 161.755 249.511 161.739 248.861 161.721C248.064 161.7 247.311 161.677 246.612 161.648C245.189 161.593 243.94 161.538 242.978 161.457C242.008 161.373 241.328 161.261 241.06 161.093C240.881 160.981 241.095 160.8 241.821 160.523C242.45 160.283 243.49 159.94 245.038 159.464C245.813 159.226 246.704 158.972 247.658 158.71C248.593 158.454 249.612 158.182 250.633 157.91C251.725 157.62 252.817 157.329 253.852 157.044C254.871 156.764 255.811 156.495 256.589 156.249C258.692 155.587 259.892 155.26 260.881 155.111C261.873 154.962 262.643 154.991 263.881 155.038H263.897C264.431 155.059 265.054 155.082 265.824 155.098H265.883L266.076 155.875C266.211 156.43 266.339 156.961 266.442 157.403C266.531 157.784 266.596 158.088 266.628 158.266L266.645 158.352H265.179L263.737 158.357C265.862 158.849 282.911 159.077 285.932 158.229L284.849 158.253L283.621 158.276L283.602 158.227C283.453 157.813 283.304 157.348 283.158 156.843C283.003 156.312 282.851 155.734 282.702 155.124L282.681 155.035H282.776C283.624 155.022 284.678 155.027 285.816 155.038H285.813Z" fill="#FFF685"/>
</svg>
