<svg width="92" height="70" viewBox="0 0 92 70" fill="none" xmlns="http://www.w3.org/2000/svg">
<path d="M5.50565 0.765452L63.7286 0.765457C66.7568 0.765457 69.2344 3.24307 69.2344 6.27126L69.2344 64.4942C69.2344 67.5224 66.7568 70 63.7286 70L5.50564 70C2.47745 70 -0.000160001 67.5224 -0.000159736 64.4942L-0.000154646 6.27125C-0.000154381 3.24307 2.47745 0.765451 5.50565 0.765452Z" fill="#B2DF8A"/>
<path d="M28.2044 0.765452L86.4273 0.765457C89.4555 0.765457 91.9331 3.24307 91.9331 6.27126L91.9331 64.4942C91.9331 67.5224 89.4555 70 86.4273 70L28.2044 70C25.1762 70 22.6986 67.5224 22.6986 64.4942L22.6986 6.27125C22.6986 3.24307 25.1762 0.765451 28.2044 0.765452Z" fill="#128C7B"/>
<path d="M10.1258 6.46119L12.6309 6.46119C15.6591 6.46119 18.1367 8.9388 18.1367 11.967L18.1367 58.7989C18.1367 61.8271 15.6591 64.3047 12.6309 64.3047L10.1258 64.3047C7.09759 64.3047 4.61998 61.8271 4.61998 58.7989L4.61998 11.967C4.61998 8.9388 7.0976 6.46119 10.1258 6.46119Z" fill="#128C7B"/>
<path d="M33.905 6.46607L80.7369 6.46607C83.7651 6.46607 86.2427 8.94368 86.2427 11.9719L86.2427 58.8038C86.2427 61.832 83.7651 64.3096 80.7369 64.3096L33.905 64.3096C30.8768 64.3096 28.3992 61.832 28.3992 58.8038L28.3992 11.9719C28.3992 8.94367 30.8768 6.46607 33.905 6.46607Z" fill="#B2DF8A"/>
<path d="M55.5577 17.1957C55.6825 17.0063 55.8698 16.9642 56.1196 17.0274C57.0352 17.3641 57.8468 17.8482 58.5544 18.4796C58.7416 18.669 58.7625 18.8795 58.6584 19.0899L57.056 21.6366C56.8687 21.8681 56.6814 21.8891 56.4525 21.6997C56.2236 21.5103 55.4328 21.0052 54.0385 20.1844C53.8096 20.037 53.768 19.8476 53.9137 19.6161L55.5577 17.1957ZM53.8929 32.0968C51.8326 33.3385 50.3759 34.7907 49.5643 36.4955C48.7527 38.2003 48.4822 39.7998 48.7319 41.3573C49.2938 44.6826 51.5413 46.7452 55.4536 47.545C58.7416 48.1974 63.1534 48.1974 68.6889 47.5029C69.563 47.3976 70 47.545 70 47.9869C70 48.3026 69.5422 48.6394 68.6265 48.934C67.7109 49.2287 66.816 49.7128 65.9628 50.3442C65.1096 50.9755 64.5685 51.3334 64.3396 51.4596C64.1107 51.5649 63.8818 51.6491 63.6321 51.6701C57.0144 52.4699 52.4153 51.8174 49.7932 49.6917C47.6914 48.008 46.7757 45.314 47.0463 41.6519C47.4625 35.8641 49.7516 31.6548 53.9137 29.0029C51.8951 28.6872 50.2511 28.8556 48.9608 29.508C48.399 29.7816 48.1284 29.5501 48.1492 28.8135C48.2325 26.2248 49.6684 24.8778 52.4778 24.8357C52.998 24.8146 54.1218 24.9619 55.8906 25.2776C58.7624 25.7828 61.6967 25.8038 64.6934 25.2987C65.8588 25.0882 66.2958 25.3618 65.9836 26.0774L65.0263 28.4136C64.8599 28.8345 64.6101 29.066 64.2772 29.1081C60.0735 29.487 56.619 30.4762 53.8929 32.0968Z" fill="#17AF9A"/>
</svg>
