<svg width="342" height="192" viewBox="0 0 342 192" fill="none" xmlns="http://www.w3.org/2000/svg">
<path d="M0 36.7941C0 25.7484 8.95431 16.7941 20 16.7941H322C333.046 16.7941 342 25.7484 342 36.7941V169.674C342 180.72 333.046 189.674 322 189.674H20C8.95431 189.674 0 180.72 0 169.674V36.7941Z" fill="#D9EEF9"/>
<path d="M205.852 100.461V97.4187H220.188V100.461H214.844V114.873H211.196V100.461H205.852ZM221.121 114.873V101.782H224.641V104.066H224.777C225.016 103.254 225.416 102.64 225.979 102.226C226.541 101.805 227.189 101.595 227.922 101.595C228.104 101.595 228.3 101.606 228.51 101.629C228.72 101.652 228.905 101.683 229.064 101.723V104.944C228.893 104.893 228.658 104.848 228.357 104.808C228.055 104.768 227.78 104.748 227.53 104.748C226.996 104.748 226.518 104.865 226.098 105.098C225.683 105.325 225.354 105.643 225.109 106.052C224.871 106.461 224.751 106.933 224.751 107.467V114.873H221.121ZM230.941 114.873V101.782H234.572V114.873H230.941ZM232.765 100.095C232.225 100.095 231.762 99.9159 231.376 99.5579C230.995 99.1943 230.805 98.7597 230.805 98.254C230.805 97.754 230.995 97.325 231.376 96.967C231.762 96.6034 232.225 96.4216 232.765 96.4216C233.305 96.4216 233.765 96.6034 234.146 96.967C234.532 97.325 234.725 97.754 234.725 98.254C234.725 98.7597 234.532 99.1943 234.146 99.5579C233.765 99.9159 233.305 100.095 232.765 100.095ZM237.48 114.873V101.782H240.94V104.092H241.094C241.366 103.325 241.821 102.72 242.457 102.277C243.094 101.834 243.855 101.612 244.741 101.612C245.639 101.612 246.403 101.836 247.034 102.285C247.665 102.728 248.085 103.331 248.295 104.092H248.432C248.699 103.342 249.182 102.743 249.881 102.294C250.585 101.839 251.418 101.612 252.378 101.612C253.599 101.612 254.591 102.001 255.352 102.78C256.119 103.552 256.503 104.649 256.503 106.069V114.873H252.881V106.785C252.881 106.058 252.688 105.512 252.301 105.149C251.915 104.785 251.432 104.603 250.852 104.603C250.193 104.603 249.679 104.814 249.31 105.234C248.94 105.649 248.756 106.197 248.756 106.879V114.873H245.236V106.709C245.236 106.066 245.051 105.555 244.682 105.174C244.318 104.794 243.838 104.603 243.241 104.603C242.838 104.603 242.474 104.706 242.151 104.91C241.832 105.109 241.58 105.39 241.392 105.754C241.205 106.112 241.111 106.532 241.111 107.015V114.873H237.48ZM279.593 97.4187V114.873H276.406L268.812 103.887H268.684V114.873H264.994V97.4187H268.232L275.766 108.396H275.92V97.4187H279.593ZM286.307 115.12C285.472 115.12 284.727 114.976 284.074 114.686C283.42 114.39 282.903 113.956 282.523 113.382C282.148 112.802 281.96 112.081 281.96 111.217C281.96 110.49 282.094 109.879 282.361 109.385C282.628 108.89 282.991 108.493 283.452 108.191C283.912 107.89 284.435 107.663 285.02 107.51C285.611 107.356 286.23 107.248 286.878 107.186C287.639 107.106 288.253 107.032 288.719 106.964C289.185 106.89 289.523 106.782 289.733 106.64C289.943 106.498 290.048 106.288 290.048 106.01V105.959C290.048 105.419 289.878 105.001 289.537 104.706C289.202 104.41 288.724 104.262 288.105 104.262C287.452 104.262 286.932 104.407 286.545 104.697C286.159 104.981 285.903 105.339 285.778 105.771L282.42 105.498C282.591 104.703 282.926 104.015 283.426 103.436C283.926 102.851 284.571 102.402 285.361 102.089C286.156 101.771 287.077 101.612 288.122 101.612C288.849 101.612 289.545 101.697 290.21 101.868C290.881 102.038 291.474 102.302 291.991 102.66C292.514 103.018 292.926 103.478 293.227 104.041C293.528 104.598 293.679 105.265 293.679 106.044V114.873H290.236V113.058H290.134C289.923 113.467 289.642 113.828 289.29 114.14C288.938 114.447 288.514 114.689 288.02 114.865C287.526 115.035 286.955 115.12 286.307 115.12ZM287.347 112.615C287.881 112.615 288.352 112.51 288.761 112.299C289.17 112.084 289.491 111.794 289.724 111.43C289.957 111.066 290.074 110.655 290.074 110.194V108.805C289.96 108.879 289.804 108.947 289.605 109.01C289.412 109.066 289.193 109.12 288.949 109.172C288.705 109.217 288.46 109.26 288.216 109.299C287.972 109.334 287.75 109.365 287.551 109.393C287.125 109.456 286.753 109.555 286.435 109.691C286.116 109.828 285.869 110.012 285.693 110.245C285.517 110.473 285.429 110.757 285.429 111.098C285.429 111.592 285.608 111.97 285.966 112.231C286.33 112.487 286.79 112.615 287.347 112.615ZM296.496 114.873V101.782H300.126V114.873H296.496ZM298.32 100.095C297.78 100.095 297.317 99.9159 296.93 99.5579C296.55 99.1943 296.359 98.7597 296.359 98.254C296.359 97.754 296.55 97.325 296.93 96.967C297.317 96.6034 297.78 96.4216 298.32 96.4216C298.859 96.4216 299.32 96.6034 299.7 96.967C300.087 97.325 300.28 97.754 300.28 98.254C300.28 98.7597 300.087 99.1943 299.7 99.5579C299.32 99.9159 298.859 100.095 298.32 100.095ZM306.665 97.4187V114.873H303.035V97.4187H306.665ZM320.466 105.515L317.142 105.72C317.085 105.436 316.963 105.18 316.776 104.953C316.588 104.72 316.341 104.535 316.034 104.399C315.733 104.257 315.372 104.186 314.952 104.186C314.389 104.186 313.915 104.305 313.528 104.544C313.142 104.777 312.949 105.089 312.949 105.481C312.949 105.794 313.074 106.058 313.324 106.274C313.574 106.49 314.003 106.663 314.611 106.794L316.98 107.271C318.253 107.532 319.202 107.953 319.827 108.532C320.452 109.112 320.764 109.873 320.764 110.816C320.764 111.674 320.511 112.427 320.006 113.075C319.506 113.723 318.818 114.228 317.943 114.592C317.074 114.95 316.071 115.129 314.935 115.129C313.202 115.129 311.821 114.768 310.793 114.047C309.77 113.319 309.17 112.331 308.994 111.081L312.565 110.893C312.673 111.422 312.935 111.825 313.349 112.103C313.764 112.376 314.295 112.512 314.943 112.512C315.58 112.512 316.091 112.39 316.477 112.146C316.869 111.896 317.068 111.575 317.074 111.183C317.068 110.853 316.929 110.584 316.656 110.373C316.384 110.157 315.963 109.993 315.395 109.879L313.128 109.427C311.849 109.172 310.898 108.728 310.273 108.098C309.653 107.467 309.344 106.663 309.344 105.686C309.344 104.845 309.571 104.12 310.026 103.512C310.486 102.905 311.131 102.436 311.96 102.106C312.795 101.777 313.773 101.612 314.892 101.612C316.545 101.612 317.847 101.961 318.795 102.66C319.75 103.359 320.307 104.311 320.466 105.515Z" fill="black"/>
<rect x="274.5" y="1.5" width="45" height="29.6002" rx="8.5" fill="#065883" stroke="white" stroke-width="3"/>
<path d="M292.758 25.2656C291.411 25.2599 290.261 24.9048 289.306 24.2003C288.351 23.4957 287.621 22.4701 287.116 21.1236C286.61 19.777 286.357 18.1548 286.357 16.2571C286.357 14.365 286.61 12.7486 287.116 11.4076C287.627 10.0667 288.36 9.04401 289.315 8.33947C290.275 7.63492 291.422 7.28265 292.758 7.28265C294.093 7.28265 295.238 7.63776 296.192 8.34799C297.147 9.05253 297.877 10.0753 298.383 11.4162C298.894 12.7514 299.15 14.365 299.15 16.2571C299.15 18.1605 298.897 19.7855 298.391 21.1321C297.886 22.473 297.155 23.4986 296.201 24.2088C295.246 24.9133 294.099 25.2656 292.758 25.2656ZM292.758 22.99C293.94 22.99 294.863 22.4133 295.528 21.2599C296.198 20.1065 296.533 18.4389 296.533 16.2571C296.533 14.8082 296.38 13.5838 296.073 12.5838C295.772 11.5781 295.337 10.8167 294.769 10.2997C294.207 9.77697 293.536 9.5156 292.758 9.5156C291.582 9.5156 290.658 10.0951 289.988 11.2542C289.317 12.4133 288.979 14.0809 288.974 16.2571C288.974 17.7116 289.124 18.9417 289.425 19.9474C289.732 20.9474 290.167 21.7059 290.729 22.223C291.292 22.7344 291.968 22.99 292.758 22.99ZM306.875 7.52128V24.9758H304.233V10.1633H304.131L299.955 12.8906V10.3679L304.31 7.52128H306.875Z" fill="white"/>
<path d="M127.874 157.189C147.335 137.964 147.335 106.793 127.874 87.5672C108.412 68.3416 76.8593 68.3416 57.398 87.5672C37.9367 106.793 37.9367 137.964 57.398 157.189C76.8593 176.415 108.412 176.415 127.874 157.189Z" fill="#B2D9FF"/>
<path d="M180.305 97.0833L85.9609 128.4C85.9609 128.4 88.2466 139.548 89.8804 142.111C90.6473 143.605 92.5959 144.243 94.6332 143.736C95.8035 143.431 103.375 139.848 103.375 139.848L180.239 101.463L180.305 97.0829V97.0833Z" fill="#888889"/>
<path d="M93.2882 144.038C91.725 144.038 90.3714 143.353 89.7642 142.17C88.1421 139.626 85.9263 128.882 85.8325 128.425L85.8086 128.309L180.449 96.8938L180.379 101.545L103.441 139.967C103.129 140.115 95.8419 143.559 94.6729 143.864C94.2026 143.981 93.7366 144.038 93.2882 144.038ZM86.1233 128.489C86.3725 129.682 88.4875 139.664 90.0004 142.038C90.7299 143.458 92.62 144.098 94.6048 143.604C95.7478 143.306 103.245 139.762 103.321 139.726L180.11 101.379L180.171 97.2703L86.1233 128.489V128.489Z" fill="#2B2B2B"/>
<path d="M174.13 96.9015L83.6702 128.269C83.6702 128.269 77.6378 131.326 77.7315 128.607C79.4868 130.178 89.8303 138.956 90.4342 139.929C90.9006 140.583 92.5723 142.06 93.9422 141.585C99.1967 140.211 180.23 99.0382 180.23 99.0382L174.13 96.9015Z" fill="#666666"/>
<path d="M79.0191 129.731C78.4426 129.232 77.9912 128.839 77.7315 128.606C77.703 129.438 78.2488 129.728 79.0191 129.731Z" fill="#494949"/>
<path d="M80.6105 129.475C80.0487 129.631 79.4923 129.736 79.0195 129.734C82.3389 132.61 89.9202 139.102 90.4346 139.931C90.896 140.578 92.5353 142.026 93.8964 141.599C93.511 140.971 93.0975 140.36 92.6101 139.799C89.3941 135.4 85.0531 131.894 80.6105 129.475Z" fill="#494949"/>
<path d="M174.13 96.9015L99.8867 122.646C101.473 125.808 103.062 129.744 107.302 129.046C114.001 128.11 120.616 126.941 127.184 125.718C151.531 113.62 180.23 99.0382 180.23 99.0382L174.13 96.9015Z" fill="#494949"/>
<path d="M79.0191 129.735C78.4426 129.236 77.9912 128.843 77.7315 128.61C77.703 129.442 78.2488 129.732 79.0191 129.735Z" fill="#535354"/>
<path d="M93.3761 141.813C92.0625 141.813 90.6997 140.536 90.3219 140.006C89.8798 139.294 83.9408 134.164 80.392 131.098C79.8637 130.642 79.3809 130.225 78.9645 129.864C78.6144 129.857 78.3085 129.792 78.0757 129.646C77.7399 129.436 77.5781 129.084 77.5949 128.602L77.605 128.313L77.8223 128.507C78.0778 128.736 78.5136 129.116 79.0762 129.603C80.7584 129.582 83.5731 128.166 83.6075 128.149L174.129 96.7587L180.291 99.1577C176.982 100.839 99.1853 140.352 93.9766 141.715C93.7804 141.783 93.5791 141.813 93.377 141.813H93.3761ZM79.3607 129.85C79.7251 130.165 80.1323 130.517 80.571 130.896C84.3614 134.17 90.09 139.119 90.5488 139.858C91.0098 140.504 92.6365 141.895 93.896 141.458C98.9319 140.14 174.64 101.724 179.886 99.0606L174.128 97.0435L83.7139 128.394C83.5933 128.457 81.1219 129.698 79.3603 129.85L79.3607 129.85ZM77.8904 128.929C77.9362 129.147 78.0458 129.309 78.2211 129.419C78.3345 129.49 78.4698 129.539 78.6224 129.568C78.3329 129.317 78.0858 129.101 77.8899 128.929H77.8904Z" fill="#2B2B2B"/>
<path d="M180.314 97.0365C180.314 97.0365 84.2834 123.946 87.9129 127.052C89.7551 128.628 91.2751 136.319 91.6562 138.495C92.9148 136.638 94.7365 134.536 94.7365 134.536L180.251 99.1309L180.314 97.0369V97.0365Z" fill="#888889"/>
<path d="M91.5048 138.494C91.3317 137.507 89.7807 128.823 87.8258 127.149C87.7039 127.045 87.6568 126.912 87.69 126.764C88.0834 125.016 103.79 119.461 134.373 110.252C157.12 103.404 180.049 96.9735 180.278 96.9092L180.439 97.2886L180.381 99.2173L180.303 99.2497L94.8171 134.642C94.6137 134.878 92.9353 136.841 91.7662 138.565L91.6448 138.745L91.5053 138.492L91.5048 138.494ZM180.176 97.2102C148.483 106.094 88.6629 123.647 87.9485 126.822C87.9401 126.86 87.9401 126.901 87.9989 126.952C89.8819 128.563 91.388 136.281 91.7293 138.154C92.9651 136.381 94.6179 134.469 94.6355 134.449L94.6561 134.426L94.6851 134.414L180.121 99.0417L180.176 97.2102Z" fill="#2B2B2B"/>
<path d="M169.3 92.5368C146.992 99.8278 80.0703 121.701 80.0703 121.701C80.0703 121.701 84.1616 123.563 87.6441 126.239C90.4541 128.398 94.0929 132.434 94.0929 132.434C94.0929 132.434 158.662 105.997 180.185 97.1842C180.388 97.1054 180.432 96.9659 179.822 96.699C177.874 95.8326 172.632 93.5012 170.627 92.6094C170.251 92.4401 169.783 92.3948 169.299 92.5364L169.3 92.5368Z" fill="#F7F7F9"/>
<path d="M169.638 92.9393C147.331 100.23 82.8242 121.844 82.8242 121.844C82.8242 121.844 85.5393 122.651 88.204 125.421C90.6568 127.969 94.093 132.436 94.093 132.436C94.093 132.436 158.663 105.999 180.185 97.1866C180.388 97.1077 180.432 96.9682 179.822 96.7013C177.874 95.8349 172.99 93.9465 170.985 93.0548C170.609 92.8854 170.122 92.7982 169.638 92.9398V92.9393Z" fill="#C6C6C6"/>
<path d="M157.638 105.128C142.744 106.848 128.262 109.653 113.705 111.518C104.691 114.529 96.582 117.242 90.9375 119.131C94.4674 121.264 97.4661 124.74 97.2388 128.78C101.058 127.942 104.878 127.172 108.698 126.459C122.861 120.66 144.642 111.742 161.653 104.778C160.327 104.889 158.991 105.001 157.638 105.128V105.128Z" fill="#A9A9AA"/>
<path d="M94.0557 132.593L93.9931 132.524C93.9569 132.484 90.3295 128.472 87.5619 126.345C84.132 123.709 80.0546 121.842 80.0138 121.823L79.8398 121.744L79.9815 121.606L169.257 92.4148C169.749 92.2707 170.257 92.3018 170.681 92.4928L179.875 96.5819C180.288 96.7625 180.456 96.9028 180.453 97.0651C180.45 97.1706 180.377 97.2528 180.234 97.3084L94.0561 132.592L94.0557 132.593ZM80.4235 121.726C81.4325 122.21 84.8099 123.898 87.7246 126.138C90.3098 128.125 93.6313 131.736 94.128 132.28L180.134 97.0664C180.149 97.0601 180.161 97.0552 180.169 97.0502C180.134 97.0145 180.034 96.9385 179.767 96.821L170.571 92.7311C170.204 92.5655 169.758 92.541 169.336 92.6647L80.4231 121.726L80.4235 121.726Z" fill="#2B2B2B"/>
<path d="M151.143 56.1029C148.141 54.4619 145.421 56.9693 143.335 58.9852C131.239 70.6692 95.6699 115.099 91.5294 118.862C90.9041 119.428 87.3805 118.252 86.1295 118.784V121.471C85.9769 121.405 87.9247 122.541 90.1683 124.266C90.354 124.408 92.0303 123.973 92.2261 123.839C93.9457 122.656 94.3248 123.7 93.9457 124.354V127.041C95.0711 127.869 97.5777 129.557 98.1976 129.948C98.1976 129.948 101.236 127.928 102.958 126.489C105.906 123.435 142.787 76.4757 152.037 64.0959C154.023 61.4391 154.456 57.9129 151.143 56.1025V56.1029Z" fill="#888889"/>
<path d="M98.1991 130.109L98.1238 130.062C97.4628 129.644 94.9717 127.964 93.8644 127.15L93.8094 127.11V124.319L93.8274 124.288C93.988 124.01 93.9829 123.687 93.8157 123.536C93.5694 123.313 93.0042 123.468 92.3037 123.949C92.1596 124.048 90.366 124.588 90.0845 124.372C88.3788 123.061 86.8529 122.096 86.2789 121.733C85.9923 121.552 85.944 121.521 85.9936 121.421V118.696L86.0759 118.661C86.7491 118.375 87.9695 118.547 89.1499 118.713C90.1471 118.853 91.1788 118.999 91.4376 118.764C93.0668 117.284 99.5097 109.567 107.667 99.7978C120.253 84.723 135.918 65.9622 143.239 58.8899C145.151 57.0438 148.039 54.2537 151.209 55.9861C152.522 56.7043 153.331 57.7122 153.611 58.9825C153.961 60.5692 153.427 62.4626 152.146 64.1771C143.56 75.6697 106.093 123.437 103.056 126.583C101.337 128.021 98.3037 130.04 98.2734 130.061L98.1995 130.11L98.1991 130.109ZM94.0813 126.974C95.1701 127.77 97.454 129.312 98.1949 129.787C98.671 129.468 101.321 127.681 102.869 126.386C105.892 123.254 143.343 75.5057 151.927 64.0165C153.161 62.3642 153.678 60.5501 153.345 59.039C153.082 57.8475 152.318 56.8994 151.077 56.2206C148.085 54.585 145.283 57.2913 143.429 59.0813C136.118 66.1436 120.458 84.8982 107.876 99.968C99.7123 109.745 93.2639 117.468 91.6208 118.962C91.267 119.282 90.2681 119.141 89.1108 118.979C88.0682 118.832 86.8929 118.667 86.265 118.877V121.405C86.3024 121.429 86.3562 121.463 86.4252 121.507C87.0025 121.871 88.5359 122.842 90.2513 124.16C90.4337 124.225 91.9595 123.858 92.1478 123.729C93.2761 122.953 93.7917 123.15 93.9989 123.338C94.2548 123.569 94.2876 124.006 94.0813 124.389V126.974Z" fill="#2B2B2B"/>
<path d="M150.083 55.4792C147.081 53.8381 145.413 54.2815 143.326 56.2974C131.231 67.9814 95.6615 112.412 91.521 116.174C90.3397 117.243 86.1211 118.784 86.1211 118.784C86.156 118.914 87.9163 119.854 90.1599 121.578C90.3456 121.721 92.0219 121.286 92.2177 121.151C93.9373 119.969 96.565 122.188 96.1859 122.842C95.6283 123.228 93.9373 124.438 93.9373 124.354C95.0627 125.182 97.5693 126.87 98.1892 127.261C98.1892 127.261 101.227 125.241 102.95 123.802C105.898 120.748 142.779 73.7887 152.029 61.409C154.014 58.7521 153.396 57.29 150.083 55.4796L150.083 55.4792Z" fill="#AAACAF"/>
<path d="M150.083 55.4792C147.081 53.8381 145.413 54.2815 143.326 56.2974C131.23 67.9814 95.6615 112.412 91.521 116.174C90.3397 117.243 86.1211 118.784 86.1211 118.784C86.156 118.914 87.9163 119.854 90.1599 121.578C90.3456 121.721 92.0219 121.286 92.2177 121.151C93.5532 120.233 95.4354 121.366 96.0326 122.224C97.9912 121.434 100.611 122.824 101.556 124.892C102.056 124.519 102.54 124.144 102.949 123.801C105.897 120.747 142.779 73.7887 152.028 61.4085C154.014 58.7517 153.395 57.2896 150.083 55.4792Z" fill="#AAACAF"/>
<path d="M98.1907 127.42L98.1155 127.373C97.4586 126.958 94.9932 125.296 93.8758 124.476L93.8027 124.438L93.8006 124.086L93.9603 124.203C94.2136 124.061 95.1457 123.406 95.6655 123.04C95.8269 122.927 95.9698 122.826 96.0774 122.751C96.1274 122.603 95.9622 122.26 95.5386 121.877C94.6772 121.098 93.295 120.572 92.2949 121.261C92.1508 121.36 90.3572 121.9 90.0757 121.684C88.6793 120.61 87.4715 119.842 86.75 119.384C86.0986 118.97 86.0146 118.911 85.989 118.818L85.957 118.7L86.0734 118.657C86.1155 118.642 90.2803 117.114 91.4288 116.075C93.0576 114.594 99.5009 106.878 107.658 97.1083C120.245 82.0335 135.909 63.2727 143.231 56.2005C145.515 53.994 147.261 53.7819 150.148 55.3606C152.091 56.4226 153.016 57.3118 153.242 58.3343C153.437 59.2164 153.086 60.2181 152.137 61.4872C143.551 72.9798 106.084 120.748 103.048 123.893C101.329 125.331 98.2949 127.351 98.2646 127.371L98.1907 127.42V127.42ZM94.196 124.375C95.3256 125.192 97.4725 126.641 98.1869 127.099C98.663 126.78 101.313 124.992 102.861 123.698C105.884 120.566 143.335 72.8171 151.919 61.3278C152.817 60.1256 153.153 59.1923 152.976 58.3915C152.772 57.465 151.859 56.6027 150.017 55.5956C146.919 53.9023 145.309 54.5694 143.421 56.3922C136.11 63.4545 120.451 82.2091 107.868 97.279C99.7039 107.056 93.256 114.779 91.6129 116.273C90.5673 117.218 87.2782 118.493 86.3869 118.828C86.5109 118.912 86.6958 119.029 86.8975 119.157C87.6228 119.619 88.8368 120.39 90.2429 121.471C90.427 121.536 91.9511 121.17 92.1394 121.04C93.2623 120.268 94.7839 120.83 95.7223 121.679C96.1324 122.05 96.5005 122.567 96.3034 122.907L96.2635 122.951C96.1534 123.027 95.9996 123.135 95.8231 123.259C94.8986 123.909 94.4385 124.227 94.1952 124.375H94.196Z" fill="#2B2B2B"/>
<path d="M121.452 93.0385C127.438 83.3625 133.696 74.7618 141.586 66.6986C144.968 63.2052 148.264 59.7974 151.276 56.1844C151.231 56.1587 151.189 56.1321 151.143 56.1068C148.141 54.4658 145.421 56.9732 143.335 58.9891C131.239 70.6731 95.6699 115.103 91.5294 118.866C90.9041 119.432 87.3805 118.256 86.1295 118.788V121.475C85.9769 121.408 87.9247 122.545 90.1683 124.27C90.354 124.412 92.0303 123.977 92.2261 123.842C93.046 123.279 93.5583 123.224 93.8318 123.389C95.0652 122.171 96.926 121.764 98.5182 122.695C107.446 113.877 114.7 104.071 121.452 93.0381V93.0385Z" fill="#AAACAF"/>
<path d="M151.273 56.1821C148.261 59.7951 144.966 63.2029 141.583 66.6963C133.693 74.7594 127.436 83.3602 121.45 93.0362C114.697 104.069 107.444 113.875 98.5156 122.693C98.7291 122.818 98.9384 122.965 99.1405 123.139C100.53 124.262 101.387 125.735 101.885 127.339C102.269 127.047 102.635 126.759 102.956 126.491C105.904 123.437 142.785 76.4777 152.034 64.0979C153.992 61.4776 154.438 58.0137 151.274 56.1821H151.273Z" fill="#888889"/>
<path d="M153.611 58.9827C153.331 57.7124 152.523 56.7044 151.209 55.9862C148.039 54.2535 145.151 57.044 143.239 58.8901C135.918 65.9624 120.253 84.7232 107.667 99.798C99.5098 109.567 93.0664 117.284 91.4376 118.764C91.1788 118.999 90.1471 118.854 89.1499 118.713C87.9695 118.547 86.7491 118.375 86.0759 118.661L85.9936 118.696V121.421C85.944 121.522 85.9923 121.552 86.2789 121.733C86.8534 122.097 88.3788 123.062 90.0845 124.372C90.366 124.589 92.1596 124.049 92.3037 123.949C92.9378 123.513 93.4585 123.349 93.7346 123.486C93.7997 123.417 93.8665 123.352 93.9354 123.288C93.6947 123.123 93.1761 123.022 92.1486 123.729C91.9604 123.858 90.4345 124.225 90.2522 124.16C88.5368 122.842 87.0034 121.872 86.426 121.507C86.3575 121.463 86.3033 121.429 86.2659 121.405V118.877C86.8937 118.667 88.0691 118.832 89.1117 118.979C90.269 119.142 91.2678 119.282 91.6217 118.962C93.2648 117.469 99.7131 109.746 107.877 99.9682C120.459 84.8984 136.119 66.1438 143.43 59.0815C145.284 57.2914 148.086 54.5852 151.077 56.2208C152.319 56.8995 153.082 57.8477 153.345 59.0391C153.679 60.5502 153.162 62.3644 151.928 64.0166C143.344 75.5059 105.893 123.254 102.87 126.387C102.564 126.643 102.213 126.919 101.845 127.199C101.874 127.29 101.902 127.382 101.929 127.473C102.334 127.167 102.721 126.863 103.057 126.582C106.093 123.436 143.56 75.6682 152.147 64.1756C153.428 62.4611 153.962 60.5677 153.611 58.981L153.611 58.9827Z" fill="#2B2B2B"/>
<path d="M150.083 55.4792C147.081 53.8381 145.413 54.2815 143.326 56.2974C131.23 67.9814 95.6615 112.412 91.521 116.174C90.3397 117.243 86.1211 118.784 86.1211 118.784C86.156 118.914 87.9163 119.854 90.1599 121.578C90.3456 121.721 92.0219 121.286 92.2177 121.151C93.5566 120.231 95.4451 121.372 96.0372 122.23C97.0739 122.057 98.182 122.314 99.1343 123.137C99.9096 123.764 100.518 124.5 100.993 125.306C101.684 124.803 102.387 124.271 102.949 123.801C105.897 120.747 142.779 73.7883 152.028 61.4081C154.014 58.7513 153.395 57.2891 150.083 55.4787V55.4792Z" fill="#E2E2E2"/>
<path d="M142.355 58.185C145.274 54.9494 149.195 54.8685 152.188 57.5561C152.51 57.8031 152.817 58.0746 153.108 58.3652C152.883 57.3415 151.88 56.4614 150.083 55.4792C147.081 53.8381 145.413 54.2815 143.326 56.2974C131.23 67.9814 95.6615 112.412 91.521 116.174C90.3397 117.243 86.1211 118.784 86.1211 118.784C86.1383 118.848 86.1913 118.704 86.8977 119.158C89.0127 118.967 91.7572 117.132 93.117 115.665C96.0746 112.474 132.171 69.4738 142.355 58.1854L142.355 58.185Z" fill="#F7F7F9"/>
<path d="M153.242 58.3343C153.016 57.3118 152.091 56.4226 150.148 55.3606C147.261 53.7819 145.514 53.994 143.231 56.2005C135.909 63.2727 120.245 82.0335 107.658 97.1083C99.5009 106.878 93.0576 114.594 91.4288 116.075C90.2807 117.113 86.1155 118.642 86.0734 118.657L85.957 118.7L85.989 118.818C86.0142 118.911 86.0986 118.969 86.75 119.384C87.4715 119.842 88.6793 120.61 90.0757 121.684C90.3572 121.9 92.1508 121.36 92.2949 121.261C93.295 120.573 94.6772 121.098 95.5386 121.877C95.6878 122.011 95.8029 122.141 95.8895 122.258C95.9862 122.239 96.2106 122.207 96.3085 122.194C96.1896 122.007 95.9475 121.736 95.7723 121.577C94.8339 120.729 93.2623 120.268 92.1394 121.04C91.9511 121.17 90.4266 121.536 90.2429 121.471C88.8368 120.391 87.6228 119.619 86.8975 119.157C86.6958 119.029 86.5105 118.912 86.3869 118.828C87.2782 118.493 90.5673 117.218 91.6129 116.273C93.256 114.779 99.7043 107.057 107.868 97.279C120.451 82.2095 136.11 63.4545 143.421 56.3922C145.309 54.5694 146.919 53.9023 150.017 55.5956C151.859 56.6027 152.772 57.465 152.976 58.3915C153.153 59.1923 152.817 60.1251 151.919 61.3278C143.335 72.8171 105.884 120.566 102.861 123.698C102.307 124.161 101.611 124.688 100.924 125.188C100.971 125.265 101.013 125.345 101.058 125.423C101.761 124.912 102.477 124.371 103.048 123.893C106.084 120.747 143.551 72.9794 152.138 61.4868C153.086 60.2177 153.437 59.2156 153.242 58.3338L153.242 58.3343Z" fill="#2B2B2B"/>
<path d="M94.0816 132.44C94.0816 132.44 92.2809 136.039 91.6519 138.493C88.7372 133.225 83.2717 128.153 77.8398 125.711C78.5685 123.016 80.0591 121.707 80.0591 121.707C80.0591 121.707 83.4595 122.274 87.8316 125.328C92.1028 128.311 94.0816 132.44 94.0816 132.44Z" fill="#F7F7F9"/>
<path d="M94.0858 132.441C94.0858 132.441 92.2851 136.04 91.656 138.494C88.7414 133.226 84.4475 128.186 79.0156 125.745C79.7443 123.049 80.7516 122.799 80.7516 122.799C80.7516 122.799 83.7835 122.921 88.156 125.975C92.4272 128.959 94.0862 132.441 94.0862 132.441L94.0858 132.441Z" fill="#BCBCBC"/>
<path d="M91.5407 138.558C88.613 133.266 83.2152 128.271 77.7896 125.832L77.6875 125.786L77.7165 125.679C78.4469 122.977 79.9134 121.666 79.9756 121.61L80.0853 121.579C80.1198 121.585 83.5665 122.187 87.9129 125.223C92.163 128.192 94.186 132.343 94.2062 132.385L94.2339 132.442L94.2054 132.499C94.1873 132.535 92.4038 136.114 91.7853 138.527L91.5407 138.557V138.558ZM78.0022 125.64C83.3446 128.073 88.6453 132.949 91.6138 138.148C92.2521 135.902 93.7158 132.896 93.9398 132.441C93.6847 131.939 91.6848 128.178 87.7608 125.436C83.7875 122.661 80.5934 121.946 80.1063 121.849C79.8559 122.092 78.6477 123.35 78.0027 125.639L78.0022 125.64Z" fill="#2B2B2B"/>
<path d="M78.3101 124.35C78.1369 124.755 77.9752 125.207 77.8398 125.708C83.2717 128.149 88.7372 133.221 91.6519 138.49C91.796 137.927 92.0019 137.305 92.233 136.68C90.1525 131.558 82.8683 125.714 78.3097 124.35L78.3101 124.35Z" fill="#E2E2E2"/>
<path d="M91.6457 138.744L91.5407 138.553C88.613 133.261 83.2152 128.266 77.7896 125.827L77.6875 125.782L77.7165 125.675C77.8438 125.203 78.0039 124.741 78.1926 124.3L78.2393 124.192L78.3536 124.226C82.9769 125.609 90.2565 131.451 92.3614 136.632L92.3803 136.679L92.3631 136.726C92.1109 137.407 91.9168 138.012 91.7857 138.522L91.7802 138.544L91.6462 138.743L91.6457 138.744ZM78.0022 125.636C83.3446 128.069 88.6453 132.945 91.6138 138.144C91.7369 137.709 91.8987 137.22 92.0962 136.683C90.0111 131.621 82.9508 125.934 78.3914 124.511C78.2409 124.874 78.1107 125.251 78.0027 125.636H78.0022Z" fill="#2B2B2B"/>
<path d="M89.8799 142.163C85.847 136.871 81.2984 132.443 77.5 130.61C77.5 130.316 77.5 129.121 77.7265 128.614C79.8961 129.367 87.4476 134.537 90.4291 139.936C89.8496 140.786 89.9463 141.355 89.8799 142.162V142.163Z" fill="#E2E2E2"/>
<path d="M89.9832 142.516L89.7735 142.241C85.512 136.649 81.0173 132.452 77.4416 130.727L77.3672 130.691V130.61C77.3672 129.604 77.447 128.914 77.6046 128.561L77.6395 128.483L77.7698 128.49C80.1524 129.317 87.656 134.638 90.5606 139.899V139.936L90.5379 140.009C90.087 140.671 90.0648 141.142 90.0366 141.739C90.0303 141.878 90.0236 142.021 90.011 142.173L89.9828 142.516L89.9832 142.516ZM77.6323 130.528C81.1711 132.263 85.5767 136.356 89.7689 141.801C89.7702 141.776 89.7714 141.751 89.7723 141.727C89.8004 141.133 89.8248 140.618 90.274 139.929C87.2765 134.57 79.9428 129.616 77.8038 128.782C77.7198 129.043 77.6366 129.549 77.6323 130.529V130.528Z" fill="#2B2B2B"/>
<path d="M171.663 97.0389C171.663 97.3452 171.497 97.63 171.215 97.8695C170.711 98.2942 169.83 98.5765 168.826 98.5765C167.909 98.5765 167.093 98.3399 166.573 97.9746C166.206 97.7164 165.988 97.3913 165.988 97.0393C165.988 96.1928 167.259 95.5045 168.826 95.5045C170.393 95.5045 171.664 96.1924 171.664 97.0393L171.663 97.0389Z" fill="#888889"/>
<path d="M168.825 98.7105C167.909 98.7105 167.06 98.4818 166.494 98.0837C166.08 97.7931 165.852 97.4219 165.852 97.0388C165.852 96.1026 167.158 95.3695 168.825 95.3695C170.493 95.3695 171.799 96.1026 171.799 97.0388C171.799 97.3742 171.628 97.6968 171.302 97.9716C170.754 98.4345 169.828 98.7105 168.825 98.7105ZM168.825 95.6385C167.361 95.6385 166.123 96.2799 166.123 97.0388C166.123 97.4149 166.41 97.6955 166.651 97.8645C167.165 98.2261 167.977 98.4419 168.825 98.4419C169.765 98.4419 170.625 98.1895 171.125 97.7673C171.388 97.5452 171.527 97.2937 171.527 97.0388C171.527 96.2795 170.29 95.6385 168.825 95.6385Z" fill="#2B2B2B"/>
<path d="M171.216 97.87C170.712 98.2947 169.831 98.577 168.827 98.577C167.91 98.577 167.094 98.3404 166.574 97.975C167.078 97.5504 167.959 97.2681 168.963 97.2681C169.88 97.2681 170.696 97.5047 171.216 97.87H171.216Z" fill="#666666"/>
<path d="M168.825 98.7106C167.909 98.7106 167.06 98.4818 166.494 98.0837L166.352 97.9837L166.484 97.872C167.033 97.4091 167.959 97.1331 168.961 97.1331C169.876 97.1331 170.727 97.3614 171.293 97.7599L171.435 97.86L171.303 97.9716C170.754 98.4345 169.828 98.7106 168.825 98.7106H168.825ZM166.807 97.9646C167.321 98.2655 168.059 98.442 168.825 98.442C169.679 98.442 170.467 98.234 170.979 97.8791C170.465 97.5781 169.727 97.4016 168.961 97.4016C168.108 97.4016 167.32 97.6096 166.807 97.9646Z" fill="#2B2B2B"/>
<path d="M83.2689 146.117C83.2361 146.06 83.2008 146.007 83.1655 145.953H83.163C83.1495 145.928 83.1357 145.907 83.1193 145.883C83.1193 145.883 83.0974 145.891 83.0512 145.907C82.915 145.958 82.586 146.079 82.0935 146.256C82.0338 146.278 81.9712 146.302 81.9086 146.324C81.8842 146.334 81.8569 146.345 81.8296 146.353C81.7888 146.369 81.7481 146.383 81.7044 146.396V146.399C81.6661 146.412 81.6228 146.428 81.5791 146.444C81.4106 146.506 81.2253 146.574 81.0324 146.643C80.7278 146.753 80.3958 146.875 80.0365 147.004C78.8229 147.442 77.3185 147.985 75.659 148.573C75.6207 148.589 75.5829 148.603 75.5447 148.616C75.5064 148.63 75.4686 148.643 75.4304 148.657C69.5644 150.748 61.8432 153.433 57.9254 154.521C57.7813 154.57 57.6397 154.618 57.4981 154.669C57.3241 154.734 57.1497 154.795 56.9782 154.863H56.9757C56.8286 154.919 56.6845 154.976 56.5404 155.034C54.369 155.903 52.4238 157.01 50.6257 158.284C50.5794 158.317 50.5332 158.349 50.4895 158.384H50.487C49.1456 159.346 47.8887 160.397 46.6781 161.518C46.6453 161.55 46.61 161.582 46.5747 161.614C45.6767 162.448 44.8064 163.321 43.9491 164.214C43.9109 164.254 43.873 164.294 43.8348 164.334C41.5248 166.753 39.3102 169.339 36.9242 171.863C31.2679 177.851 23.5303 182.267 19.1797 186.505C19.1797 186.505 19.3129 186.562 19.373 186.505H56.9295C56.9816 186.503 57.0808 186.501 57.1009 186.505C59.6475 183.573 61.7642 180.738 62.2458 179.149C62.2567 179.112 62.2676 179.077 62.2756 179.042C62.3193 179.047 62.3655 179.053 62.4118 179.053C66.0984 179.262 74.255 170.592 78.9674 164.818C83.6769 159.048 87.0072 152.087 83.2689 146.117V146.117Z" fill="#FFCFAB"/>
<path d="M83.2729 146.117C83.2401 146.06 83.2048 146.007 83.1695 145.953H83.167C83.1535 145.928 83.1397 145.907 83.1233 145.883C83.1233 145.883 83.1014 145.891 83.0552 145.907C82.919 145.958 82.59 146.079 82.0975 146.256C82.0378 146.278 81.9752 146.302 81.9126 146.324C81.8882 146.334 81.8609 146.345 81.8336 146.353C81.7928 146.369 81.7521 146.383 81.7084 146.396V146.399C81.6701 146.412 81.6268 146.428 81.5831 146.444C81.4146 146.506 81.2293 146.574 81.0364 146.643C81.039 146.689 81.0419 146.732 81.0444 146.778C81.1259 147.923 81.1722 149.062 81.1453 150.194C81.1427 150.302 81.1398 150.407 81.1373 150.514V150.516C81.1348 150.573 81.1318 150.629 81.1293 150.683C81.1268 150.734 81.1268 150.782 81.1238 150.833C81.1213 150.863 81.1213 150.89 81.1184 150.919C81.1158 150.997 81.1104 151.072 81.1049 151.15C81.0179 152.551 80.8003 153.938 80.3868 155.306C76.9422 165.516 66.3424 172.322 55.2118 171.013C53.5633 177.216 50.1023 182.433 45.8555 186.505H56.9343C56.9793 186.505 57.0991 186.501 57.1058 186.505C59.6524 183.572 61.769 180.737 62.2506 179.148C62.2615 179.111 62.2725 179.076 62.2804 179.041C62.3242 179.046 62.3704 179.052 62.4166 179.052C66.1032 179.261 74.2599 170.591 78.9723 164.818C83.6818 159.047 87.0121 152.086 83.2737 146.116L83.2729 146.117Z" fill="#F2B083"/>
<path d="M62.3936 179.182C60.5534 178.838 59.0352 176.048 59.0352 176.048C59.052 176.074 60.7148 178.602 62.4428 178.925L62.3932 179.182H62.3936Z" fill="#AA431F"/>
<path d="M43.8203 164.231L44.0825 164.193C44.8591 169.416 51.658 170.935 51.7265 170.95C51.7265 170.95 44.6229 169.631 43.8203 164.231Z" fill="#AA431F"/>
<path d="M53.5561 167.712C53.5279 167.671 50.7456 163.505 46.5273 161.729L46.6311 161.488C50.925 163.295 53.5561 167.712 53.5561 167.712Z" fill="#AA431F"/>
<path d="M56.853 165.704C56.8454 165.649 56.013 160.135 50.4609 158.502L50.5366 158.251C56.2554 159.933 56.853 165.704 56.853 165.704Z" fill="#AA431F"/>
<path d="M62.3922 179.177C62.4439 179.18 62.4956 179.183 62.5472 179.183C66.144 179.183 73.6996 171.488 79.0756 164.898C85.1811 157.412 86.604 151.029 83.3035 145.914C83.2816 145.876 83.2598 145.841 83.2354 145.806L83.1947 145.747V145.745L83.1783 145.721L83.0774 145.756H83.0749C83.0341 145.772 82.5715 145.941 81.7961 146.223C81.7554 146.239 81.7117 146.255 81.6709 146.272H81.6684C81.6276 146.285 81.5869 146.301 81.5461 146.315C81.1326 146.466 80.6426 146.643 80.0934 146.842V146.844C78.8663 147.287 77.3317 147.839 75.6314 148.446C75.5932 148.457 75.5554 148.47 75.5171 148.486C75.4789 148.5 75.4411 148.513 75.4028 148.527C69.5259 150.621 61.7858 153.311 57.8869 154.394C57.7344 154.445 57.5823 154.499 57.4327 154.555C57.2558 154.614 57.0818 154.679 56.9074 154.749L56.9049 154.751C49.79 157.463 45.1133 162.648 40.1752 168.126C39.0923 169.322 37.9741 170.561 36.834 171.77C33.61 175.181 29.6431 178.132 26.1418 180.734C23.4674 182.723 20.9015 184.631 19 186.502H19.3782C21.2444 184.704 23.7204 182.863 26.3023 180.943C29.812 178.333 33.7899 175.377 37.0273 171.95C38.1728 170.738 39.2911 169.499 40.371 168.298C41.5384 167.002 42.692 165.725 43.8673 164.492C43.9434 164.411 44.0199 164.33 44.0985 164.25C44.92 163.392 45.7499 162.562 46.6068 161.763C46.6749 161.696 46.7429 161.632 46.8135 161.57C47.9914 160.478 49.216 159.455 50.5166 158.519C50.6065 158.455 50.696 158.39 50.7859 158.328C52.6686 157.001 54.7146 155.861 57.0137 154.99C57.1225 154.945 57.2314 154.904 57.3402 154.867C57.3402 154.867 57.3402 154.864 57.3427 154.864C57.4108 154.837 57.4789 154.813 57.5495 154.791C57.5684 154.781 57.5877 154.775 57.6066 154.77C57.7264 154.727 57.8462 154.684 57.9659 154.644C61.8619 153.561 69.5915 150.873 75.4684 148.779C75.5066 148.766 75.5444 148.752 75.5827 148.739C75.6209 148.726 75.6617 148.712 75.6995 148.699C77.3182 148.121 78.7873 147.591 79.9875 147.158C80.3682 147.021 80.722 146.892 81.046 146.774C81.2503 146.701 81.4406 146.632 81.6201 146.567C81.6638 146.551 81.7045 146.534 81.7453 146.521C81.789 146.505 81.8298 146.492 81.8705 146.475C82.4366 146.269 82.8391 146.123 83.035 146.051C83.0484 146.045 83.0623 146.043 83.0732 146.038C83.0951 146.072 83.1194 146.107 83.1384 146.145H83.1409C83.1762 146.199 83.2089 146.253 83.2417 146.306C86.2644 151.273 84.7978 157.471 78.8697 164.731C76.7202 167.367 73.5753 170.915 70.5009 173.802C67.4265 176.691 64.4227 178.922 62.5481 178.922C62.5128 178.922 62.4775 178.922 62.4422 178.92C62.3905 178.917 62.3443 178.912 62.2951 178.906L62.1808 178.893L62.151 179.003C62.143 179.038 62.1321 179.073 62.1211 179.108C61.6421 180.696 59.501 183.554 56.9355 186.502H57.27C59.8032 183.578 61.898 180.758 62.3766 179.178H62.393L62.3922 179.177Z" fill="#AA431F"/>
<path d="M73.8285 141.957C75.5435 140.781 78.5473 138.487 81.0232 140.312C83.4996 142.137 83.7383 145.166 82.5861 148.143C81.1258 151.915 78.5397 153.704 77.2479 154.891C76.3365 151.784 73.8281 141.957 73.8281 141.957L73.8285 141.957Z" fill="#FCF2DE"/>
<path d="M81.3182 140.554C83.5391 142.668 80.366 144.453 77.9774 144.342C76.7621 145.135 76.5882 147.241 75.2422 147.44C75.9721 150.241 76.8008 153.371 77.2471 154.892C78.5389 153.706 81.1249 151.916 82.5852 148.144C83.6887 145.293 83.5106 142.397 81.3182 140.554V140.554Z" fill="#E2D4BA"/>
<path d="M81.0927 140.208C80.459 139.74 79.7434 139.504 78.9626 139.504C77.1481 139.504 75.3659 140.74 74.0628 141.641L73.6875 141.901L73.701 141.947L73.7119 141.99C73.7119 141.996 73.7199 142.025 73.7337 142.079C73.7417 142.111 73.7526 142.154 73.7665 142.208C73.9653 142.982 74.6645 145.71 75.4045 148.527C75.4155 148.57 75.4264 148.61 75.4373 148.653C75.4483 148.696 75.4592 148.737 75.4701 148.779C75.7937 150.019 76.1231 151.263 76.4198 152.354C76.7001 153.397 76.9501 154.303 77.1325 154.929L77.1871 155.117L77.3313 154.985C77.5191 154.813 77.7368 154.625 77.9759 154.421C78.3213 154.122 78.7079 153.789 79.1185 153.402C79.121 153.399 79.121 153.397 79.124 153.397C79.3307 153.2 79.5429 152.993 79.7581 152.768L79.7606 152.765C79.9808 152.537 80.2014 152.292 80.4216 152.029C80.6528 151.755 80.8814 151.462 81.1074 151.147C81.6979 150.322 82.25 149.346 82.6993 148.19C82.9497 147.543 83.1317 146.914 83.2435 146.306C83.2544 146.242 83.2653 146.177 83.2762 146.113C83.2872 146.045 83.2981 145.981 83.3061 145.914C83.6326 143.533 82.8737 141.519 81.094 140.208L81.0927 140.208ZM81.4003 150.257C81.3134 150.403 81.2209 150.542 81.131 150.679C81.0276 150.833 80.9242 150.98 80.8179 151.126C80.6032 151.419 80.3855 151.693 80.1649 151.951C79.3349 152.921 78.4915 153.647 77.8196 154.225C77.6372 154.38 77.4658 154.529 77.3107 154.666C77.1258 154.026 76.8833 153.147 76.6144 152.15C76.3286 151.088 76.0105 149.892 75.7004 148.699C75.6895 148.656 75.6785 148.613 75.6651 148.57C75.6542 148.529 75.6462 148.489 75.6323 148.446C75.5424 148.099 75.4529 147.755 75.3659 147.414C74.7238 144.955 74.1552 142.745 73.9917 142.109C73.9838 142.071 73.9728 142.039 73.9674 142.012L74.0817 141.934L74.0842 141.931L74.1985 141.853C74.283 141.794 74.37 141.735 74.4569 141.676C75.7059 140.816 77.3355 139.76 78.9626 139.76C79.6917 139.76 80.3611 139.98 80.9541 140.416C81.3104 140.679 81.6235 140.972 81.8954 141.292C81.8979 141.295 81.8979 141.297 81.9008 141.3C82.8858 142.472 83.2884 144.007 83.0762 145.756C83.0737 145.805 83.0653 145.853 83.0573 145.904C83.0518 145.953 83.0464 146.004 83.0354 146.052C82.9346 146.708 82.7472 147.39 82.4723 148.095C82.1593 148.904 81.7949 149.619 81.4003 150.259V150.257Z" fill="#AA431F"/>
<path d="M56.9766 154.859C59.1403 153.47 63.7334 149.5 67.1784 146.795C70.623 144.09 73.1406 141.952 74.8185 141.734C76.4969 141.516 81.319 143.174 81.867 147.144C82.415 151.115 76.4528 156.607 74.5975 158.376C72.7426 160.146 68.0617 163.679 67.6196 163.505C67.178 163.33 65.4286 160.091 63.0438 157.933C60.659 155.776 57.9923 154.764 56.9766 154.859Z" fill="#FFF0E6"/>
<path d="M81.8676 147.141C81.6747 145.742 80.9498 144.631 80.0203 143.787C81.8411 147.961 75.1948 153.838 72.302 155.91C68.8574 158.364 67.3114 157.481 63.6899 155.561C61.8829 154.603 59.372 154.406 57.207 154.852C58.3542 154.904 60.8214 155.919 63.0444 157.929C65.4292 160.086 67.1786 163.327 67.6202 163.501C68.0619 163.676 72.7432 160.142 74.5981 158.372C76.453 156.603 82.4152 151.111 81.8676 147.14V147.141Z" fill="#EFD2C5"/>
<path d="M81.9979 147.126C81.968 146.9 81.9243 146.685 81.8672 146.476C81.8562 146.432 81.8453 146.39 81.8319 146.349C81.8209 146.306 81.8075 146.263 81.7936 146.223C81.4999 145.301 80.9776 144.53 80.3409 143.901C78.7083 142.283 76.3277 141.584 75.1414 141.584C75.0192 141.584 74.9049 141.592 74.8015 141.606C74.6901 141.619 74.5729 141.643 74.4531 141.675C74.3254 141.705 74.1917 141.748 74.056 141.799C74.0543 141.799 74.0525 141.8 74.0505 141.802C73.9362 141.845 73.8165 141.89 73.6967 141.947C72.3066 142.576 70.5299 143.979 68.2661 145.769C67.8909 146.067 67.4988 146.376 67.0962 146.693C65.8746 147.653 64.495 148.782 63.1595 149.876C60.6592 151.924 58.295 153.857 56.9044 154.749L56.9019 154.751L56.4531 155.039L56.5431 155.031L56.9893 154.991C56.9973 154.991 57.0028 154.988 57.0112 154.991C57.9714 154.913 60.5508 155.853 62.9561 158.031C64.4307 159.364 65.6687 161.13 66.4902 162.296C67.0996 163.164 67.3773 163.552 67.5732 163.627C67.5975 163.638 67.6278 163.643 67.6601 163.643C68.3674 163.643 72.9437 160.138 74.6905 158.472L74.9137 158.26C76.1844 157.053 78.7415 154.623 80.4178 152.029C80.6027 151.744 80.7771 151.457 80.9376 151.169C81.0002 151.056 81.0629 150.943 81.1225 150.83C81.2204 150.639 81.3129 150.449 81.3974 150.258C81.8844 149.177 82.1349 148.107 81.9987 147.126L81.9979 147.126ZM79.6496 152.698C79.6471 152.7 79.6471 152.703 79.6442 152.705C79.6416 152.708 79.6387 152.708 79.6387 152.711C79.6362 152.713 79.6332 152.713 79.6332 152.716C79.4647 152.945 79.2933 153.17 79.1189 153.396C79.1164 153.396 79.1164 153.399 79.1134 153.402C77.5708 155.369 75.7398 157.111 74.7305 158.07L74.5073 158.282C72.6108 160.089 68.2115 163.368 67.6618 163.381C67.5257 163.311 67.1286 162.744 66.7067 162.145C65.8796 160.967 64.6282 159.188 63.1343 157.837C61.0882 155.982 58.893 155.014 57.6411 154.775H57.6356C57.6247 154.775 57.6138 154.773 57.6029 154.77C57.5293 154.759 57.4587 154.748 57.3932 154.74C57.4285 154.716 57.4638 154.692 57.4991 154.665C57.6214 154.582 57.7495 154.491 57.8827 154.394C59.2976 153.375 61.2647 151.765 63.3268 150.077C64.6627 148.983 66.0419 147.855 67.2609 146.898C67.6635 146.581 68.0526 146.272 68.4308 145.973C70.5858 144.272 72.3869 142.847 73.7606 142.208C73.7988 142.189 73.8366 142.173 73.8749 142.156C73.9131 142.138 73.9509 142.122 73.9862 142.108C74.2938 141.982 74.5767 141.898 74.8351 141.863C74.925 141.853 75.0284 141.847 75.1398 141.847C76.2252 141.847 78.4726 142.516 80.0505 144.013C80.0804 144.04 80.1077 144.067 80.135 144.094C80.7527 144.699 81.2612 145.438 81.5415 146.314C81.5549 146.357 81.5688 146.397 81.5797 146.44C81.5932 146.481 81.6041 146.524 81.615 146.566C81.6667 146.757 81.7075 146.956 81.7348 147.16C81.8655 148.104 81.618 149.139 81.1419 150.19C80.878 150.775 80.5405 151.367 80.1598 151.95C79.9938 152.2 79.8224 152.453 79.6484 152.698H79.6496Z" fill="#AA431F"/>
<path d="M98.1123 116.156H98.1132V113.059L93.1016 112.951V116.264C93.1016 116.922 94.2257 117.455 95.6128 117.455C97 117.455 98.1241 116.922 98.1241 116.264C98.1241 116.227 98.1195 116.192 98.1128 116.156H98.1123Z" fill="#A2A2A3"/>
<path d="M93.1017 112.951V116.264C93.1017 116.636 93.0836 116.655 93.4778 116.88C93.4433 115.958 93.5459 114.355 93.5463 112.951H93.1017Z" fill="#E2E2E2"/>
<path d="M98.1255 116.258C98.1255 116.221 98.1209 116.186 98.1142 116.15H98.115V113.053L96.0786 113.009C96.0269 114.482 96.0736 116.037 96.0841 117.428C97.246 117.323 98.1255 116.84 98.1255 116.258Z" fill="#888889"/>
<path d="M95.6126 117.568C94.1476 117.568 93 116.992 93 116.257V112.823L98.2142 112.936V116.142C98.2213 116.184 98.2247 116.221 98.2247 116.257C98.2247 116.992 97.077 117.568 95.6121 117.568H95.6126ZM93.2026 113.065V116.257C93.2026 116.775 94.1708 117.33 95.6126 117.33C97.0543 117.33 98.0226 116.775 98.0226 116.257C98.0226 116.234 98.0196 116.208 98.0133 116.175L97.986 116.03H98.0116V113.168L93.2026 113.065V113.065Z" fill="#2B2B2B"/>
<path d="M95.6128 114.133C96.9998 114.133 98.1241 113.6 98.1241 112.942C98.1241 112.284 96.9998 111.751 95.6128 111.751C94.2259 111.751 93.1016 112.284 93.1016 112.942C93.1016 113.6 94.2259 114.133 95.6128 114.133Z" fill="#F7F7F9"/>
<path d="M95.7471 114.133C97.0593 114.133 98.123 113.66 98.123 113.077C98.123 112.494 97.0593 112.021 95.7471 112.021C94.4348 112.021 93.3711 112.494 93.3711 113.077C93.3711 113.66 94.4348 114.133 95.7471 114.133Z" fill="#E2E2E2"/>
<path d="M95.6126 114.251C94.1476 114.251 93 113.676 93 112.941C93 112.206 94.1476 111.631 95.6126 111.631C97.0775 111.631 98.2251 112.206 98.2251 112.941C98.2251 113.676 97.0775 114.251 95.6126 114.251ZM95.6126 111.868C94.1712 111.868 93.2026 112.423 93.2026 112.941C93.2026 113.459 94.1708 114.014 95.6126 114.014C97.0543 114.014 98.0226 113.459 98.0226 112.941C98.0226 112.423 97.0543 111.868 95.6126 111.868Z" fill="#2B2B2B"/>
</svg>
