<svg width="92" height="70" viewBox="0 0 92 70" fill="none" xmlns="http://www.w3.org/2000/svg">
<path d="M5.50565 0.765452L63.7286 0.765457C66.7568 0.765457 69.2344 3.24307 69.2344 6.27126L69.2344 64.4942C69.2344 67.5224 66.7568 70 63.7286 70L5.50564 70C2.47745 70 -0.000160001 67.5224 -0.000159736 64.4942L-0.000154646 6.27125C-0.000154381 3.24307 2.47745 0.765451 5.50565 0.765452Z" fill="#FC9A99"/>
<path d="M28.2044 0.765452L86.4273 0.765457C89.4555 0.765457 91.9331 3.24307 91.9331 6.27126L91.9331 64.4942C91.9331 67.5224 89.4555 70 86.4273 70L28.2044 70C25.1762 70 22.6986 67.5224 22.6986 64.4942L22.6986 6.27125C22.6986 3.24307 25.1762 0.765451 28.2044 0.765452Z" fill="#E21A1C"/>
<path d="M10.1258 6.46119L12.6309 6.46119C15.6591 6.46119 18.1367 8.9388 18.1367 11.967L18.1367 58.7989C18.1367 61.8271 15.6591 64.3047 12.6309 64.3047L10.1258 64.3047C7.09759 64.3047 4.61998 61.8271 4.61998 58.7989L4.61998 11.967C4.61998 8.9388 7.0976 6.46119 10.1258 6.46119Z" fill="#E21A1C"/>
<path d="M33.905 6.46607L80.7369 6.46607C83.7651 6.46607 86.2427 8.94368 86.2427 11.9719L86.2427 58.8038C86.2427 61.832 83.7651 64.3096 80.7369 64.3096L33.905 64.3096C30.8768 64.3096 28.3992 61.832 28.3992 58.8038L28.3992 11.9719C28.3992 8.94367 30.8768 6.46607 33.905 6.46607Z" fill="#FC9A99"/>
<path d="M74.5152 29.693C73.3383 28.8142 71.8333 28.5659 70.0004 28.9097C68.1675 29.2536 66.1996 30.1705 64.1158 31.6224C68.92 31.6797 72.3736 31.0302 74.5152 29.693ZM72.8559 24.0002C74.7274 23.9811 76.078 25.1273 76.8883 27.4579C77.1392 28.1647 76.9655 29.0817 76.3867 30.2087C75.8079 31.3549 75.3255 32.0999 74.9782 32.482C73.1068 34.5069 69.9233 35.6913 65.4278 36.0352C62.8039 36.2453 60.4114 36.1307 58.2698 35.7295C57.7682 39.34 56.9964 41.6897 55.9159 42.7786C53.4078 45.3002 50.2822 46.6947 46.5006 46.9622C43.8766 47.1532 41.8508 46.6183 40.423 45.4148C38.4936 43.7719 37.7219 41.4796 38.0885 38.5759C38.3779 36.3408 39.0531 34.335 40.1143 32.5584C40.6159 31.6988 41.0018 31.1448 41.2141 30.8964C41.4456 30.629 41.6578 30.5717 41.8894 30.7245C42.1209 30.8774 42.1209 31.1639 41.8894 31.6033C40.6738 33.9147 40.1915 36.0352 40.4423 37.9646C40.8282 40.8492 42.9505 42.301 46.79 42.2819C49.6648 42.2819 52.1922 41.556 54.3724 40.1042C55.5494 39.3209 56.2632 38.6523 56.4755 38.0792C56.2632 36.0925 55.6073 34.4114 54.5268 33.036C54.2181 32.6348 54.1216 32.2719 54.2567 31.928L55.6073 28.585C55.8774 27.8973 56.2825 27.9546 56.7842 28.776L58.0383 30.8582C58.7521 31.2594 60.0834 31.4886 62.0514 31.5651C63.6335 29.7503 65.4857 28.0501 67.6466 26.4454C69.8461 24.8217 71.5825 24.0193 72.8559 24.0002Z" fill="#E21A1C"/>
</svg>
