<svg width="37" height="37" viewBox="0 0 37 37" fill="none" xmlns="http://www.w3.org/2000/svg">
<circle cx="18.5" cy="18.5" r="18.5" fill="#B3D2FE"/>
<path d="M6 28.7374C6.11206 28.6064 6.21665 28.4673 6.33774 28.3465C6.95313 27.7325 7.49817 27.0574 7.96571 26.3134C7.99435 26.268 8.03544 26.2239 8.04446 26.1739C8.09022 25.9247 8.27512 25.8836 8.46344 25.8751C9.07448 25.848 9.68583 25.8163 10.2969 25.8199C10.6418 25.8219 10.9863 25.8904 11.3315 25.9267C11.4196 25.9358 11.5124 25.9482 11.5554 25.8333C11.6042 25.7026 11.5488 25.5037 11.4607 25.4319C11.3904 25.3744 11.3107 25.3068 11.278 25.2248C11.0405 24.6278 10.9745 24.0164 11.1993 23.3978C11.2481 23.2633 11.3238 23.134 11.4091 23.0206C11.5183 22.8753 11.5323 22.7375 11.4719 22.566C11.4231 22.4265 11.391 22.274 11.3854 22.1261C11.3807 21.998 11.4224 21.8769 11.5591 21.8067C11.6101 21.7805 11.6441 21.6737 11.6497 21.6009C11.6755 21.2704 11.6836 20.9382 11.7066 20.6077C11.8013 19.2625 11.8934 17.9169 11.9977 16.5723C12.0503 15.8942 12.1287 15.2143 12.3566 14.5745C12.4929 14.1917 12.6999 13.8344 12.8951 13.4777C13.0342 13.224 13.1606 12.9741 13.1559 12.6724C13.1531 12.4957 13.0862 12.3539 12.9826 12.2141C12.891 12.09 12.84 11.9336 12.7675 11.7935C12.7167 11.6955 12.6784 11.5783 12.6022 11.509C12.4581 11.3787 12.2903 11.2771 12.1325 11.1635C11.9448 11.0286 11.7533 10.8989 11.5709 10.7565C11.4467 10.6595 11.4153 10.525 11.4595 10.3636C11.6382 9.70881 11.9787 9.1464 12.3584 8.6049C12.6492 8.19012 13.0598 7.9135 13.4243 7.58428C13.6278 7.40041 13.8404 7.22699 14.1056 7C14.1642 7.08785 14.2161 7.17571 14.2772 7.25638C14.6283 7.72113 14.9806 8.18457 15.3343 8.64736C15.4021 8.7362 15.4756 8.81981 15.5475 8.90505C15.7311 9.12322 15.9033 9.34498 15.9023 9.66145C15.9023 9.70881 15.9521 9.76498 15.9917 9.80254C16.1604 9.96355 16.3403 10.1122 16.504 10.2784C16.6674 10.4443 16.659 10.5096 16.481 10.6523C16.3587 10.7503 16.4412 10.8666 16.4464 10.977C16.4539 11.1318 16.4555 11.2866 16.4679 11.4411C16.4757 11.5407 16.4791 11.6478 16.5174 11.736C16.6354 12.009 16.5495 12.2164 16.2699 12.2883C16.1644 12.3154 16.0573 12.3405 15.9496 12.3539C15.7812 12.3748 15.7243 12.4898 15.681 12.6436C15.6054 12.9121 15.512 13.1753 15.4236 13.4395C15.4065 13.4905 15.3757 13.5362 15.3554 13.5859C15.2767 13.7789 15.3153 13.8256 15.4877 13.9265C15.6645 14.0304 15.8276 14.1682 15.9767 14.3135C16.0931 14.4268 16.18 14.5738 16.279 14.7067C16.4941 14.9948 16.7344 15.2404 17.0453 15.4302C17.3921 15.6418 17.6962 15.9298 18.0187 16.1852C18.0638 16.2212 18.1068 16.2597 18.1606 16.3054C18.4809 16.0043 18.7882 15.7012 19.0391 15.3374C19.4752 14.7045 19.8717 14.0496 20.1049 13.3011C20.1509 13.1528 20.1758 12.995 20.192 12.8396C20.2228 12.545 20.3891 12.3307 20.559 12.1171C20.8049 11.8079 21.0636 11.5093 21.2964 11.1896C21.4234 11.0152 21.5087 10.8075 21.6118 10.6138C21.632 10.5759 21.6429 10.5328 21.6641 10.4959C21.7478 10.3483 21.8486 10.3411 21.91 10.4988C21.9753 10.6674 22.0236 10.8509 22.0388 11.0315C22.1039 11.7971 22.0332 12.5381 21.5638 13.1711C21.3833 13.4147 21.1685 13.6299 20.9562 13.8729C21.5486 14.37 22.1378 14.8645 22.7392 15.3691C22.6695 15.4576 22.6094 15.5379 22.5453 15.6144C21.9031 16.3845 21.2678 17.1624 20.5223 17.8277C20.2898 18.0351 20.0348 18.2144 19.7911 18.4077C19.6881 18.4894 19.5813 18.5671 19.487 18.6589C19.2906 18.8503 19.0711 18.9702 18.7969 18.993C18.5401 19.0142 18.2867 19.0799 18.0302 19.1037C17.6075 19.1429 17.1832 19.1642 16.7325 19.1949C16.7325 19.2481 16.7325 19.3212 16.7325 19.3947C16.7331 20.2161 16.7353 21.0378 16.7325 21.8592C16.7322 21.9615 16.7197 22.0676 16.6917 22.1653C16.6488 22.3152 16.7113 22.403 16.8309 22.4468C17.1387 22.5595 17.4481 22.6676 17.7603 22.7652C18.7462 23.0729 19.7167 23.4207 20.6082 23.97C20.8121 24.0958 21.0048 24.2496 21.181 24.4155C21.42 24.6409 21.5237 24.9407 21.5293 25.2771C21.5302 25.3369 21.5293 25.397 21.5318 25.4567C21.5424 25.7141 21.6077 25.8297 21.849 25.8646C22.2125 25.9169 22.5817 25.958 22.9478 25.9518C24.5035 25.9257 26.0593 25.8898 27.6141 25.8372C28.2401 25.816 28.8645 25.7405 29.4902 25.6948C29.5381 25.6912 29.6063 25.7131 29.6359 25.7494C30.4358 26.7288 31.2318 27.7119 31.9066 28.7942C31.9371 28.8432 31.962 28.8958 32 28.9663C31.8982 28.9797 31.8176 29.0006 31.737 29C23.1657 28.9278 14.594 28.854 6.02272 28.7802L6.00031 28.7377L6 28.7374Z" fill="#2E4B7E"/>
</svg>
