<svg width="39" height="39" viewBox="0 0 39 39" fill="none" xmlns="http://www.w3.org/2000/svg">
<g filter="url(#filter0_d_1312_59)">
<circle cx="19.5" cy="18.5" r="15.5" fill="white"/>
<circle cx="19.5" cy="18.5" r="15" stroke="#FDFDFD"/>
</g>
<path d="M20.0235 9.00024C21.3711 9.00024 22.7192 9.00024 24.0668 9.00024C24.6524 9.00024 24.9909 9.31083 24.9933 9.84819C24.9944 10.2513 25.0034 10.6545 24.9885 11.0571C24.9826 11.2176 25.0497 11.279 25.2011 11.3294C27.0357 11.9407 28.869 12.5564 30.7012 13.1737C31.2315 13.3523 31.4311 13.745 31.2399 14.2314C30.4316 16.2878 29.6221 18.3435 28.8061 20.3971C28.752 20.533 28.7698 20.6031 28.8815 20.7077C30.2902 22.0256 30.7707 23.5961 30.1768 25.361C29.5918 27.0974 28.2621 28.1453 26.3206 28.5107C25.5284 28.6597 24.7468 28.5972 23.9777 28.3809C23.869 28.3502 23.7621 28.3409 23.651 28.3409C21.4222 28.3414 19.1927 28.3414 16.9638 28.3409C16.4144 28.3409 16.143 28.1015 16.1412 27.5943C16.1412 27.4266 16.0901 27.4157 15.9393 27.4743C15.7297 27.5559 15.5117 27.6206 15.2955 27.689C14.7984 27.8462 14.3756 27.6666 14.1938 27.2086C13.3867 25.1737 12.5832 23.1382 11.7796 21.1021C10.8787 18.8179 9.97835 16.5326 9.07801 14.2468C8.87549 13.7324 9.06969 13.3539 9.63271 13.1644C11.3621 12.5816 13.091 11.9976 14.8234 11.4236C14.9944 11.3672 15.0455 11.297 15.0401 11.1344C15.0265 10.6978 15.033 10.2601 15.0366 9.82299C15.0407 9.30316 15.3727 9.00079 15.9357 9.00024C17.2981 8.9997 18.6611 9.00024 20.0235 9.00024ZM20.4749 24.2479C20.4856 24.0376 20.4909 23.8273 20.5087 23.6175C20.5171 23.5227 20.479 23.5041 20.3864 23.5041C19.2283 23.5063 18.0702 23.5063 16.9121 23.5041C16.8064 23.5041 16.7684 23.5375 16.7719 23.6339C16.7797 23.8377 16.7791 24.0414 16.7826 24.2458C16.7696 24.4378 16.8666 24.5339 17.0736 24.5339C18.132 24.5339 19.1897 24.5339 20.248 24.5339C20.4452 24.5339 20.521 24.4386 20.4755 24.2479H20.4749ZM16.7814 25.8452C16.7688 26.0417 16.863 26.1399 17.0641 26.1399C18.3054 26.1399 19.5466 26.1399 20.7879 26.1399H21.0498C20.9904 26.0255 20.9441 25.9351 20.8971 25.8447C20.8193 25.6398 20.7362 25.4361 20.6661 25.229C20.6382 25.1463 20.6079 25.1074 20.5034 25.1074C19.3114 25.1112 18.1189 25.1107 16.9269 25.1085C16.8111 25.1085 16.7678 25.1463 16.7719 25.252C16.7797 25.4497 16.7791 25.6475 16.782 25.8458L16.7814 25.8452ZM20.6893 22.6479C20.7825 22.4425 20.8686 22.2332 20.972 22.0322C21.0343 21.9112 20.9874 21.8958 20.8698 21.8958C19.5549 21.8975 18.2406 21.898 16.9258 21.8958C16.8147 21.8958 16.7648 21.9249 16.7702 22.035C16.7797 22.2387 16.7785 22.443 16.7814 22.6474C16.7684 22.8351 16.8622 22.9291 17.063 22.9295C18.1551 22.9295 19.2473 22.9223 20.3395 22.9349C20.5824 22.9377 20.6934 22.8703 20.6893 22.6485V22.6479ZM16.782 27.4831C16.769 27.6693 16.864 27.7624 17.0671 27.7624C18.8262 27.7624 20.5848 27.7624 22.3439 27.7624C22.4122 27.7624 22.4799 27.7569 22.5898 27.752C22.4353 27.6452 22.3183 27.5636 22.2013 27.4825C21.9982 27.2848 21.7815 27.0974 21.5979 26.8854C21.4875 26.7584 21.3758 26.7167 21.2066 26.7178C20.311 26.7244 19.416 26.7211 18.5204 26.7211C18.0025 26.7211 17.484 26.7233 16.9661 26.7195C16.8331 26.7184 16.7577 26.743 16.7696 26.8898C16.785 27.0865 16.7791 27.2853 16.782 27.4825V27.4831ZM21.6752 21.0139C21.946 20.768 22.2055 20.5116 22.5725 20.2755C21.6876 20.2755 20.8752 20.2755 20.0627 20.2755C19.0335 20.2755 18.0037 20.2777 16.9745 20.2728C16.8224 20.2722 16.7589 20.3084 16.7696 20.4563C16.7832 20.6398 16.7779 20.8244 16.7808 21.009C16.7682 21.2098 16.8687 21.3104 17.0825 21.3108C18.4129 21.3108 19.7432 21.3015 21.0735 21.3179C21.3628 21.3212 21.5487 21.2412 21.6746 21.0139H21.6752ZM20.0016 19.69C19.9808 19.6275 19.9665 19.576 19.9463 19.5256C19.1719 17.5608 18.3951 15.597 17.626 13.6311C17.5737 13.4969 17.5078 13.4569 17.3575 13.4635C16.7737 13.4876 16.3087 13.2657 15.9613 12.8401C15.8853 12.747 15.8253 12.7459 15.7255 12.7815C15.4571 12.8768 15.1856 12.9666 14.9154 13.0576C14.097 13.332 13.2775 13.6059 12.4591 13.8809C12.3718 13.9099 12.2993 13.923 12.3088 14.0567C12.3504 14.6395 12.1045 15.1106 11.5777 15.4365C11.4328 15.5264 11.4079 15.5872 11.4673 15.7378C12.2862 17.7963 13.0969 19.8576 13.91 21.9177C14.271 22.8325 14.6327 23.7473 14.9956 24.6621C15.0235 24.7322 15.0176 24.8302 15.1565 24.811C15.4576 24.77 15.7427 24.8335 16.0189 24.9431C16.0676 24.9622 16.1258 25.0236 16.1751 24.9589C16.2137 24.9075 16.2683 24.8483 16.2208 24.7733C16.1638 24.6818 16.1394 24.5804 16.1472 24.478C16.1792 24.0666 16.0581 23.6459 16.2315 23.2417C16.2422 23.2165 16.2184 23.1787 16.2119 23.1464C16.1062 22.6539 16.0985 22.1615 16.2178 21.6707C16.2386 21.5852 16.2493 21.542 16.1371 21.5387C15.8366 21.5294 15.5545 21.4549 15.2694 21.365C13.9509 20.9504 13.1147 19.7491 13.2745 18.4745C13.4301 17.2305 14.5425 16.2209 15.8971 16.0944C17.6153 15.9339 19.1291 17.1938 19.1333 18.785C19.1339 19.0923 19.0573 19.3881 18.9783 19.69H20.0021H20.0016ZM21.121 24.0135C21.1032 26.1071 22.933 28.0193 25.5408 28.0073C27.8713 27.9969 29.8145 26.1388 29.789 23.9669C29.7628 21.7994 27.7964 20.0033 25.5028 20.0055C22.9835 20.0077 21.0937 21.8821 21.121 24.0129V24.0135ZM23.2965 15.7619C23.2965 14.4987 23.2965 13.2356 23.2965 11.9724C23.2965 11.8744 23.3214 11.7813 23.1599 11.7374C22.5785 11.5802 22.1948 11.2264 22.0214 10.6879C21.9905 10.5932 21.94 10.557 21.8331 10.5603C21.6259 10.5669 21.4186 10.5619 21.2113 10.5619C20.2563 10.5619 19.3013 10.5619 18.347 10.5625C18.2834 10.5625 18.2062 10.5417 18.1682 10.6112C18.1314 10.6792 18.1824 10.7246 18.23 10.7701C18.3517 10.8862 18.4069 11.0347 18.4651 11.1826C18.8203 12.0847 19.1784 12.9858 19.5294 13.8896C19.5739 14.0041 19.6256 14.06 19.7646 14.0277C20.0158 13.9691 20.2712 14.0074 20.5135 14.054C21.6924 14.2807 22.4983 14.9172 22.8285 15.9931C23.1534 17.053 22.8297 17.9672 21.9792 18.7319C21.8504 18.848 21.6051 18.9001 21.595 19.066C21.5849 19.2287 21.7114 19.3974 21.769 19.5662C21.8028 19.6664 21.8604 19.702 21.9763 19.6993C22.3314 19.6921 22.6872 19.6867 23.0417 19.7009C23.2389 19.7086 23.3042 19.6637 23.3024 19.4687C23.2917 18.2329 23.2971 16.9971 23.2971 15.7614L23.2965 15.7619ZM20.874 19.6987C21.0632 19.6991 21.1313 19.6319 21.0783 19.4971C20.0087 16.7912 18.9397 14.0852 17.8701 11.3792C17.7548 11.0883 17.7127 11.0686 17.4015 11.1732C14.8952 12.0146 12.3896 12.8571 9.88392 13.6996C9.60539 13.7932 9.5846 13.837 9.68378 14.0901C10.302 15.6606 10.9197 17.2316 11.5391 18.802C12.6063 21.5085 13.6742 24.2151 14.7426 26.9216C14.8453 27.1818 14.9035 27.2075 15.1862 27.1133C15.4493 27.0257 15.7118 26.9358 15.9743 26.8466C16.1169 26.7978 16.276 26.5053 16.2166 26.3744C16.1632 26.2572 16.1329 26.1372 16.1519 26.0161C16.1929 25.7538 16.0391 25.6119 15.8158 25.4985C15.5622 25.3698 15.2973 25.3555 15.0223 25.4174C14.742 25.4804 14.6262 25.4278 14.5276 25.1781C13.2632 21.9736 11.9994 18.7692 10.7362 15.5647C10.6251 15.2832 10.6863 15.1665 10.9886 15.0651C11.5106 14.8904 11.7796 14.4379 11.6573 13.9411C11.5747 13.6064 11.6128 13.5423 11.9626 13.4251C13.2299 13.0006 14.4973 12.5755 15.7647 12.1516C16.1495 12.0228 16.2 12.0415 16.3853 12.3745C16.5967 12.7541 17.0677 12.9639 17.4983 12.8697C17.9098 12.7798 17.9657 12.8089 18.1124 13.1803C18.9456 15.293 19.78 17.4058 20.6097 19.5196C20.6626 19.6543 20.7279 19.7349 20.8746 19.6971L20.874 19.6987ZM28.1154 14.1723C28.1367 14.0611 28.1427 13.9718 27.9847 13.9203C27.0386 13.6108 26.0961 13.2926 25.1536 12.9727C25.0247 12.9288 24.9915 12.9508 24.9921 13.0778C24.9962 14.1909 24.9956 15.304 24.9927 16.417C24.9927 16.508 25.0129 16.566 25.1132 16.6066C26.1288 17.0174 26.9739 18.1261 26.7767 19.4013C26.7548 19.5421 26.7934 19.6215 26.9525 19.6423C27.003 19.6489 27.0529 19.6675 27.0986 19.6878C27.2138 19.7393 27.2697 19.719 27.3172 19.5963C27.8273 18.2893 28.344 16.9851 28.8649 15.6819C28.9112 15.5664 28.8952 15.505 28.7841 15.4294C28.3292 15.1194 28.1344 14.685 28.1142 14.1723H28.1154ZM15.6673 11.142C16.2529 10.9437 16.8016 10.7471 17.3593 10.5756C17.506 10.5307 17.5624 10.4721 17.5749 10.3423C17.6016 10.0569 17.6943 9.98294 18.0126 9.98294C19.375 9.98294 20.738 9.98294 22.1004 9.98294C22.4864 9.98294 22.5618 10.0465 22.5987 10.402C22.6402 10.8068 23.0275 11.1694 23.4646 11.2121C23.866 11.2516 23.9248 11.3113 23.9248 11.686C23.9248 14.2544 23.9248 16.8229 23.9248 19.3914C23.9248 19.4462 23.9248 19.501 23.9248 19.5552C23.9254 19.5979 23.9278 19.6259 23.9961 19.6264C24.2515 19.6275 24.3661 19.5306 24.3655 19.295C24.3637 16.1733 24.3619 13.0515 24.3602 9.92981C24.3602 9.61648 24.3186 9.57978 23.9759 9.57978C21.3319 9.57978 18.6884 9.57978 16.0444 9.57978C15.985 9.57978 15.925 9.5754 15.8668 9.58252C15.7415 9.59731 15.6649 9.65538 15.6655 9.78301C15.6673 10.2267 15.6661 10.6698 15.6661 11.1431L15.6673 11.142ZM17.468 19.6987C17.6753 19.6987 17.8831 19.6878 18.0892 19.7026C18.2436 19.7135 18.3066 19.6587 18.3576 19.5311C18.9022 18.1754 17.8516 16.7353 16.2808 16.6909C15.0425 16.6559 13.9557 17.5443 13.8915 18.6443C13.8232 19.8154 14.7646 20.8293 16.0005 20.9181C16.102 20.9252 16.1525 20.9087 16.1472 20.8025C16.14 20.6524 16.1418 20.5023 16.1472 20.3522C16.1584 19.9688 16.4495 19.7064 16.8687 19.6998C17.0683 19.6965 17.2684 19.6998 17.468 19.6993V19.6987ZM25.0075 11.8777C24.9772 12.2923 24.976 12.294 25.3543 12.4211C26.399 12.7722 27.4449 13.1222 28.4901 13.4722C28.8263 13.5851 28.8696 13.6579 28.7889 13.9745C28.6736 14.427 28.8815 14.8526 29.3186 15.0591C29.6571 15.2191 29.685 15.2892 29.5544 15.6211C28.9979 17.0311 28.4444 18.4421 27.8838 19.851C27.7828 20.1052 28.0435 20.0893 28.154 20.1556C28.2834 20.2339 28.2644 20.0679 28.2852 20.0153C29.0715 18.039 29.8507 16.061 30.6311 14.0824C30.7267 13.8409 30.703 13.7921 30.4405 13.7039C29.4303 13.3638 28.42 13.0247 27.4098 12.6851C26.6146 12.4178 25.82 12.1499 25.0087 11.8766L25.0075 11.8777ZM21.3248 18.4421C21.4245 18.4186 21.4869 18.3583 21.551 18.303C22.1473 17.7859 22.3872 17.1521 22.2904 16.4028C22.1604 15.3976 21.0765 14.5459 19.9873 14.5979C19.8661 14.6039 19.8145 14.6198 19.8667 14.7513C20.3561 15.9799 20.8395 17.2113 21.3248 18.4421ZM24.9915 17.1943C24.9915 17.9338 24.9933 18.6284 24.9897 19.3224C24.9897 19.4199 25.0188 19.4582 25.1287 19.4418C25.3941 19.4018 25.6602 19.4265 25.9233 19.4539C26.108 19.473 26.1609 19.4177 26.1686 19.2517C26.1763 19.0874 26.1793 18.9242 26.1531 18.7631C26.0421 18.085 25.6626 17.5728 24.9915 17.1938V17.1943Z" fill="#090C05"/>
<path d="M20.0016 19.6899H18.9778C19.0568 19.3881 19.134 19.0923 19.1328 18.785C19.1286 17.1937 17.6148 15.9338 15.8966 16.0943C14.5414 16.2209 13.4296 17.2299 13.274 18.4744C13.1148 19.749 13.9504 20.9503 15.2689 21.365C15.5539 21.4548 15.8361 21.5293 16.1366 21.5386C16.2494 21.5419 16.2381 21.5852 16.2173 21.6706C16.0986 22.1609 16.1057 22.6539 16.2114 23.1463C16.2185 23.1786 16.2423 23.2159 16.231 23.2416C16.0582 23.6459 16.1787 24.066 16.1467 24.4779C16.1389 24.5809 16.1627 24.6823 16.2203 24.7732C16.2678 24.8488 16.2132 24.9074 16.1746 24.9589C16.1253 25.0241 16.0677 24.9627 16.0184 24.943C15.7422 24.8334 15.4577 24.7693 15.156 24.811C15.0171 24.8301 15.0224 24.7316 14.9951 24.662C14.6322 23.7478 14.2705 22.833 13.9094 21.9177C13.0964 19.8575 12.2857 17.7957 11.4668 15.7377C11.4068 15.5871 11.4323 15.5263 11.5772 15.4365C12.104 15.1105 12.3499 14.6395 12.3083 14.0566C12.2988 13.923 12.3718 13.9098 12.4586 13.8808C13.2769 13.6058 14.0959 13.3325 14.9149 13.0575C15.1857 12.9666 15.4566 12.8773 15.725 12.7814C15.8248 12.7458 15.8853 12.7469 15.9608 12.84C16.3082 13.2656 16.7732 13.4875 17.357 13.4634C17.5073 13.4574 17.5732 13.4974 17.6255 13.631C18.3946 15.5975 19.1714 17.5613 19.9458 19.5256C19.9654 19.5759 19.9803 19.6274 20.001 19.6899H20.0016Z" fill="#3C987A"/>
<path d="M21.1204 24.0133C21.0931 21.8825 22.9823 20.0081 25.5022 20.0059C27.7958 20.0037 29.7622 21.7998 29.7883 23.9673C29.8145 26.1392 27.8712 27.9967 25.5402 28.0077C22.9324 28.0197 21.1026 26.1075 21.1204 24.0139V24.0133ZM22.0041 23.9969C21.9875 25.6747 23.433 27.1707 25.4279 27.1838C27.3528 27.1964 28.91 25.7361 28.8933 23.9827C28.8761 22.2309 27.3391 20.8346 25.425 20.8313C23.5417 20.8281 22.0029 22.2528 22.0047 23.9969H22.0041Z" fill="#FBBC41"/>
<path d="M23.2968 15.762C23.2968 16.9978 23.2915 18.2335 23.3022 19.4693C23.304 19.6643 23.2386 19.7092 23.0415 19.7016C22.6869 19.6879 22.3312 19.6933 21.976 19.6999C21.8602 19.7021 21.8026 19.667 21.7687 19.5668C21.7117 19.3981 21.5846 19.2294 21.5947 19.0667C21.6054 18.9013 21.8501 18.8492 21.979 18.7325C22.8288 17.9679 23.1531 17.0531 22.8282 15.9937C22.498 14.9179 21.6921 14.2819 20.5132 14.0546C20.2709 14.008 20.0156 13.9697 19.7643 14.0283C19.6254 14.0606 19.5737 14.0048 19.5292 13.8903C19.1782 12.987 18.82 12.0854 18.4649 11.1832C18.4067 11.0353 18.3515 10.8869 18.2297 10.7707C18.1816 10.7253 18.1311 10.6798 18.1679 10.6119C18.2059 10.5418 18.2837 10.5631 18.3467 10.5631C19.3017 10.562 20.2567 10.5626 21.2111 10.5626C21.4183 10.5626 21.6256 10.567 21.8329 10.5609C21.9404 10.5576 21.9909 10.5938 22.0211 10.6886C22.1946 11.227 22.5788 11.5809 23.1596 11.7381C23.3212 11.7819 23.2956 11.875 23.2962 11.9731C23.2968 13.2362 23.2962 14.4994 23.2962 15.7625L23.2968 15.762Z" fill="#3C987A"/>
<path d="M20.8741 19.6986C20.7274 19.7364 20.6621 19.6554 20.6092 19.5212C19.7796 17.4073 18.9451 15.2946 18.1119 13.1818C17.9652 12.8104 17.9094 12.7814 17.4978 12.8712C17.0667 12.9655 16.5957 12.7557 16.3849 12.3761C16.1996 12.043 16.1485 12.0239 15.7642 12.1531C14.4969 12.5776 13.2295 13.0022 11.9621 13.4267C11.6117 13.5439 11.5743 13.6085 11.6568 13.9427C11.7792 14.4395 11.5102 14.8914 10.9881 15.0667C10.6858 15.168 10.6247 15.2853 10.7357 15.5663C11.9989 18.7707 13.2627 21.9752 14.5271 25.1796C14.6257 25.4294 14.7415 25.482 15.0219 25.419C15.2968 25.3571 15.5617 25.3719 15.8153 25.5001C16.0386 25.6129 16.1924 25.7548 16.1515 26.0177C16.1325 26.1388 16.1627 26.2587 16.2162 26.3759C16.2762 26.5069 16.1164 26.7994 15.9739 26.8481C15.7114 26.9374 15.4489 27.0272 15.1858 27.1149C14.9031 27.2091 14.8449 27.1834 14.7421 26.9232C13.6743 24.2166 12.6059 21.5101 11.5387 18.8036C10.9192 17.2331 10.3016 15.6621 9.68333 14.0917C9.58355 13.8386 9.60493 13.7948 9.88347 13.7011C12.3891 12.8587 14.8948 12.0162 17.401 11.1748C17.7122 11.0702 17.7544 11.0899 17.8696 11.3808C18.9392 14.0867 20.0088 16.7927 21.0778 19.4987C21.1309 19.6335 21.0628 19.7006 20.8735 19.7003L20.8741 19.6986Z" fill="#99CA6E"/>
<path d="M28.1153 14.1723C28.1355 14.685 28.3303 15.1194 28.7852 15.4294C28.8963 15.505 28.9123 15.5663 28.866 15.6819C28.3457 16.9851 27.8284 18.2898 27.3183 19.5963C27.2702 19.719 27.2149 19.7392 27.0997 19.6877C27.0534 19.6669 27.0035 19.6483 26.9536 19.6423C26.7945 19.622 26.7564 19.542 26.7778 19.4013C26.975 18.1261 26.1299 17.0174 25.1143 16.6065C25.0139 16.566 24.9938 16.5079 24.9938 16.417C24.9961 15.3039 24.9973 14.1909 24.9932 13.0778C24.9932 12.9502 25.0258 12.9288 25.1547 12.9726C26.0966 13.2925 27.0397 13.6108 27.9858 13.9203C28.1438 13.9718 28.1378 14.0611 28.1165 14.1723H28.1153Z" fill="#3C987A"/>
<path d="M15.6676 11.1421C15.6676 10.6694 15.6688 10.2257 15.667 9.78197C15.667 9.65379 15.743 9.59628 15.8683 9.58149C15.9265 9.57491 15.9865 9.57875 16.0459 9.57875C18.6899 9.57875 21.3334 9.57875 23.9774 9.57875C24.3207 9.57875 24.3616 9.616 24.3616 9.92877C24.3634 13.0505 24.3652 16.1722 24.367 19.294C24.367 19.529 24.253 19.6265 23.9976 19.6254C23.9293 19.6254 23.9269 19.5969 23.9263 19.5542C23.9251 19.4994 23.9263 19.4446 23.9263 19.3904C23.9263 16.8219 23.9263 14.2534 23.9263 11.6849C23.9263 11.3102 23.8681 11.2505 23.466 11.2111C23.0295 11.1684 22.6417 10.8058 22.6001 10.4009C22.5633 10.046 22.4885 9.98191 22.1019 9.98191C20.7395 9.98191 19.3765 9.98191 18.0141 9.98191C17.6957 9.98191 17.6031 10.0559 17.5764 10.3412C17.5639 10.4716 17.5075 10.5297 17.3608 10.5746C16.8031 10.746 16.2544 10.9427 15.6688 11.141L15.6676 11.1421Z" fill="#99CA6E"/>
<path d="M17.4671 19.6988C17.2676 19.6988 17.0675 19.6961 16.8679 19.6994C16.4486 19.7059 16.1582 19.9683 16.1463 20.3517C16.1416 20.5018 16.1398 20.6525 16.1463 20.802C16.1511 20.9083 16.1012 20.9247 15.9996 20.9176C14.7637 20.8289 13.8224 19.8155 13.8907 18.6438C13.9548 17.5439 15.0417 16.6554 16.2799 16.6905C17.8508 16.7348 18.9014 18.1749 18.3568 19.5306C18.3051 19.6588 18.2422 19.7136 18.0884 19.7021C17.8823 19.6873 17.6744 19.6983 17.4671 19.6983V19.6988ZM16.552 18.6033C16.543 18.4367 16.5561 18.3288 16.6992 18.2883C16.8495 18.2456 16.9374 18.3338 17.0087 18.4313C17.1239 18.5896 17.0912 18.7473 17.0098 18.9149C16.9356 19.0689 16.9784 19.2124 17.1589 19.2918C17.3412 19.3718 17.4743 19.3033 17.5693 19.1582C17.6465 19.0404 17.7059 18.9084 17.7023 18.7725C17.6988 18.6328 17.7498 18.5715 17.8924 18.5266C18.0884 18.4652 18.1608 18.3124 18.1038 18.1535C18.0509 18.0046 17.8704 17.9191 17.6845 17.9892C17.536 18.0451 17.4571 18.0084 17.3466 17.9164C17.0799 17.694 16.7652 17.6228 16.4237 17.7652C16.0857 17.906 15.9218 18.159 15.9218 18.4965C15.9218 18.6389 15.9575 18.7807 15.9699 18.9232C15.9901 19.1549 15.8832 19.317 15.7074 19.3334C15.5257 19.3499 15.3481 19.2003 15.3089 18.9927C15.284 18.8602 15.2941 18.7419 15.4111 18.6361C15.5471 18.5134 15.5447 18.3644 15.4235 18.2319C15.3077 18.1053 15.123 18.1081 14.9692 18.2324C14.7483 18.411 14.6556 18.6438 14.6675 18.9084C14.6723 19.0103 14.661 19.0634 14.5434 19.1034C14.326 19.1773 14.2488 19.3236 14.3136 19.4797C14.3848 19.6511 14.5434 19.713 14.7726 19.6342C14.895 19.592 14.9657 19.6134 15.0601 19.6928C15.5958 20.1441 16.3993 19.8965 16.562 19.2431C16.6202 19.0081 16.5775 18.7824 16.552 18.6038V18.6033Z" fill="#FBDC40"/>
<path d="M25.0079 11.8777C25.8191 12.151 26.6143 12.4183 27.409 12.6862C28.4192 13.0258 29.43 13.3649 30.4396 13.705C30.7021 13.7932 30.7253 13.842 30.6303 14.0836C29.8499 16.0615 29.0701 18.0401 28.2844 20.0164C28.2636 20.069 28.2826 20.235 28.1531 20.1567C28.0433 20.0898 27.7819 20.1063 27.8829 19.8521C28.4435 18.4432 28.9971 17.0322 29.5535 15.6222C29.6842 15.2908 29.6557 15.2207 29.3178 15.0602C28.8807 14.8537 28.6728 14.4276 28.788 13.9756C28.8688 13.6585 28.8254 13.5856 28.4893 13.4733C27.444 13.1228 26.3988 12.7733 25.3535 12.4222C24.9752 12.2951 24.9764 12.2934 25.0067 11.8788L25.0079 11.8777Z" fill="#99CA6E"/>
<path d="M21.3245 18.4422C20.8393 17.2114 20.3559 15.98 19.8665 14.7513C19.8142 14.6199 19.8659 14.604 19.987 14.598C21.0763 14.5459 22.1601 15.3977 22.2902 16.4029C22.387 17.1522 22.1471 17.786 21.5508 18.3031C21.4866 18.3584 21.4249 18.4187 21.3245 18.4422Z" fill="#FBDC40"/>
<path d="M16.7811 21.0089C16.7781 20.8249 16.7835 20.6397 16.7698 20.4562C16.7585 20.3083 16.8227 20.2716 16.9747 20.2727C18.0039 20.2777 19.0332 20.2755 20.063 20.2755C20.8754 20.2755 21.6879 20.2755 22.5728 20.2755C22.2058 20.511 21.9462 20.7679 21.6754 21.0133C20.044 21.0117 18.4125 21.01 16.7817 21.0089H16.7811Z" fill="#FBDC40"/>
<path d="M16.7821 27.483C16.7792 27.2852 16.7851 27.0869 16.7697 26.8903C16.7584 26.7435 16.8332 26.7188 16.9663 26.7199C17.4841 26.7238 18.002 26.7216 18.5205 26.7216C19.4161 26.7216 20.3117 26.7249 21.2067 26.7183C21.3759 26.7172 21.4882 26.7588 21.5981 26.8859C21.7816 27.0979 21.9983 27.2852 22.2015 27.483C20.3948 27.483 18.5888 27.483 16.7821 27.483Z" fill="#FBDC40"/>
<path d="M16.7822 22.6468C16.7792 22.4425 16.7804 22.2382 16.7709 22.0344C16.7656 21.9243 16.8154 21.8953 16.9265 21.8953C18.2414 21.8975 19.5557 21.8975 20.8706 21.8953C20.9882 21.8953 21.0351 21.9106 20.9727 22.0317C20.8694 22.2327 20.7833 22.4419 20.69 22.6474C19.3876 22.6474 18.0852 22.6468 16.7828 22.6463L16.7822 22.6468Z" fill="#FBDC40"/>
<path d="M16.7809 25.8453C16.7779 25.6476 16.7785 25.4493 16.7708 25.2515C16.7666 25.1464 16.81 25.108 16.9258 25.108C18.1177 25.1108 19.3103 25.1108 20.5022 25.1069C20.6074 25.1069 20.637 25.1453 20.665 25.2285C20.735 25.4361 20.8182 25.6394 20.896 25.8442C19.5241 25.8442 18.1522 25.8442 16.7803 25.8448L16.7809 25.8453Z" fill="#FBDC40"/>
<path d="M16.7814 24.2456C16.7785 24.0418 16.7785 23.8375 16.7707 23.6337C16.7672 23.5373 16.8058 23.5034 16.9109 23.5039C18.069 23.5061 19.2271 23.5061 20.3852 23.5039C20.4778 23.5039 20.5158 23.5225 20.5075 23.6173C20.4897 23.8271 20.4844 24.0374 20.4737 24.2478C19.2425 24.2472 18.012 24.2461 16.7808 24.2456H16.7814Z" fill="#FBDC40"/>
<path d="M24.992 17.1943C25.6631 17.5728 26.0432 18.085 26.1537 18.7637C26.1798 18.9247 26.1768 19.0874 26.1691 19.2523C26.1614 19.4183 26.1086 19.4736 25.9238 19.4544C25.6608 19.427 25.3941 19.4024 25.1292 19.4424C25.0193 19.4588 24.9896 19.4205 24.9902 19.323C24.9938 18.6289 24.992 17.9344 24.992 17.1949V17.1943Z" fill="#FBDC40"/>
<path d="M16.7824 27.4829C18.5891 27.4829 20.3951 27.4829 22.2017 27.4829C22.3187 27.564 22.4357 27.645 22.5902 27.7524C22.4803 27.7573 22.4126 27.7628 22.3443 27.7628C20.5852 27.7628 18.8266 27.7628 17.0675 27.7628C16.8644 27.7628 16.7694 27.6697 16.7824 27.4835V27.4829Z" fill="#FBBC41"/>
<path d="M16.7799 21.0088C18.4114 21.0105 20.0428 21.0121 21.6736 21.0132C21.5483 21.2411 21.3618 21.3211 21.0726 21.3172C19.7423 21.3008 18.412 21.3101 17.0816 21.3101C16.8674 21.3101 16.7669 21.2095 16.7799 21.0083V21.0088Z" fill="#FBBC41"/>
<path d="M16.7813 25.8453C18.1532 25.8453 19.5251 25.8453 20.897 25.8447C20.944 25.9351 20.9903 26.0255 21.0497 26.14H20.7878C19.5465 26.14 18.3053 26.14 17.064 26.14C16.8633 26.14 16.7691 26.0417 16.7813 25.8453Z" fill="#FBBC41"/>
<path d="M16.782 22.647C18.0844 22.647 19.3868 22.6475 20.6892 22.6481C20.694 22.8699 20.5823 22.9373 20.3394 22.9346C19.2473 22.922 18.1551 22.9291 17.0629 22.9291C16.8626 22.9291 16.7687 22.835 16.7814 22.647H16.782Z" fill="#FBBC41"/>
<path d="M16.7824 24.2458C18.0136 24.2464 19.2441 24.2475 20.4753 24.248C20.5204 24.4387 20.4446 24.534 20.2478 24.534C19.1895 24.534 18.1317 24.534 17.0734 24.534C16.8664 24.534 16.7693 24.4379 16.7824 24.2458Z" fill="#FBBC41"/>
<path d="M22.0046 23.9971C22.0029 22.253 23.5422 20.8288 25.4249 20.8315C27.3396 20.8348 28.876 22.2311 28.8933 23.9829C28.9105 25.7363 27.3533 27.1966 25.4279 27.184C23.4336 27.1709 21.9874 25.6749 22.004 23.9971H22.0046ZM25.4884 21.422C25.3554 21.4231 25.2206 21.4094 25.0905 21.4275C23.4371 21.6548 22.3895 23.0073 22.6888 24.5219C22.9264 25.7248 24.1914 26.6587 25.4873 26.587C25.6268 26.5815 25.7694 26.5913 25.9054 26.5683C27.519 26.2912 28.5126 24.9409 28.1996 23.4581C27.9549 22.2996 26.7214 21.3733 25.489 21.422H25.4884Z" fill="#090C05"/>
<path d="M13.4451 18.6033C13.4701 18.7818 13.5134 19.0075 13.4552 19.2425C13.2925 19.8965 12.4896 20.1436 11.9533 19.6922C11.8588 19.6128 11.7882 19.5914 11.6658 19.6336C11.4366 19.713 11.278 19.6506 11.2067 19.4791C11.142 19.323 11.2192 19.1768 11.4366 19.1028C11.5548 19.0628 11.5654 19.0097 11.5607 18.9078C11.5488 18.6438 11.6415 18.4104 11.8624 18.2319C12.0162 18.1075 12.2015 18.1042 12.3167 18.2313C12.4379 18.3644 12.4403 18.5129 12.3043 18.6356C12.1873 18.7413 12.1766 18.8602 12.2021 18.9922C12.2413 19.1992 12.4189 19.3493 12.6006 19.3329C12.7764 19.317 12.8833 19.1543 12.8631 18.9226C12.8506 18.7802 12.815 18.6383 12.815 18.4959C12.815 18.159 12.9789 17.9054 13.3168 17.7646C13.6583 17.6222 13.9731 17.6934 14.2398 17.9158C14.3508 18.0078 14.4298 18.0445 14.5777 17.9887C14.7636 17.9186 14.9441 18.004 14.997 18.153C15.0534 18.3118 14.9815 18.4647 14.7856 18.526C14.643 18.5709 14.5914 18.6317 14.5955 18.772C14.5991 18.9078 14.5397 19.0398 14.4625 19.1576C14.3675 19.3028 14.2344 19.3712 14.0521 19.2913C13.8715 19.2118 13.8288 19.0689 13.903 18.9144C13.9838 18.7462 14.0171 18.589 13.9018 18.4307C13.8306 18.3327 13.7421 18.245 13.5924 18.2877C13.4487 18.3283 13.4362 18.4362 13.4451 18.6027V18.6033Z" fill="#090C05"/>
<path d="M25.4871 26.5868C24.1918 26.6586 22.9262 25.7246 22.6886 24.5217C22.3893 23.0072 23.437 21.6547 25.0904 21.4274C25.2204 21.4093 25.3558 21.423 25.4883 21.4219C25.4883 21.5687 25.4883 21.7155 25.4883 21.8623C25.2139 21.8968 25.1266 21.979 25.1361 22.2354C25.1414 22.375 25.0987 22.4435 24.9502 22.5016C24.5369 22.6626 24.3361 22.9946 24.3723 23.4005C24.4032 23.7532 24.6948 24.0539 25.1052 24.1597C25.2323 24.1925 25.3695 24.186 25.4883 24.2468C25.4883 24.5048 25.4883 24.7633 25.4883 25.0213C25.2198 25.0531 25.0138 24.9862 24.8914 24.7392C24.8184 24.5924 24.6729 24.5305 24.5024 24.5979C24.3314 24.6658 24.2619 24.7896 24.3231 24.9638C24.4246 25.2525 24.6444 25.442 24.9455 25.5307C25.1112 25.5795 25.1385 25.6556 25.1355 25.7937C25.1302 26.0341 25.2151 26.1108 25.4877 26.1453C25.4877 26.2927 25.4871 26.44 25.4865 26.5874L25.4871 26.5868Z" fill="#FBBC41"/>
<path d="M25.4881 21.8624C25.4881 21.7156 25.4881 21.5688 25.4881 21.422C26.7204 21.3733 27.9534 22.2995 28.1987 23.4581C28.5122 24.9403 27.518 26.2911 25.9044 26.5683C25.7684 26.5918 25.6259 26.5814 25.4863 26.5869C25.4863 26.4396 25.4869 26.2922 25.4875 26.1449C25.6817 26.1 25.7714 25.9833 25.7548 25.8014C25.7411 25.6541 25.7714 25.567 25.9531 25.504C26.3356 25.3714 26.553 25.0888 26.5868 24.7125C26.6195 24.3493 26.4389 24.071 26.1176 23.8651C25.9264 23.7424 25.7037 23.692 25.4875 23.6268C25.4875 23.4115 25.4875 23.1968 25.4875 22.9815C25.6841 22.9684 25.8148 23.0735 25.9448 23.1891C26.0802 23.3096 26.2376 23.3217 26.3784 23.2012C26.5197 23.0801 26.5114 22.9355 26.3962 22.8002C26.2715 22.6528 26.1141 22.5378 25.9205 22.4814C25.7862 22.442 25.7334 22.3806 25.7524 22.2497C25.7809 22.0569 25.7013 21.9177 25.4869 21.8619L25.4881 21.8624Z" fill="#FBDC40"/>
<path d="M25.4883 21.8624C25.7027 21.9182 25.7822 22.0574 25.7537 22.2502C25.7347 22.3811 25.7876 22.4425 25.9218 22.4819C26.1154 22.5383 26.2728 22.6539 26.3975 22.8007C26.5127 22.936 26.521 23.0801 26.3797 23.2017C26.2389 23.3222 26.0816 23.3101 25.9462 23.1896C25.8161 23.0735 25.6854 22.9689 25.4889 22.982C25.2014 22.9798 25.009 23.097 24.9953 23.2827C24.9811 23.4734 25.1218 23.5878 25.4223 23.63C25.4437 23.6328 25.4663 23.6284 25.4883 23.6273C25.7044 23.6925 25.9271 23.7429 26.1184 23.8656C26.4391 24.0715 26.6196 24.3498 26.5876 24.713C26.5537 25.0893 26.3363 25.3719 25.9539 25.5045C25.7715 25.5675 25.7419 25.6546 25.7555 25.8019C25.7727 25.9838 25.6825 26.1005 25.4883 26.1454C25.2157 26.1109 25.1307 26.0347 25.1361 25.7937C25.139 25.6562 25.1117 25.5801 24.946 25.5308C24.6449 25.442 24.4252 25.2525 24.3236 24.9638C24.2625 24.7896 24.3319 24.6658 24.503 24.5979C24.6728 24.5305 24.8189 24.5924 24.892 24.7392C25.0143 24.9857 25.2204 25.0526 25.4889 25.0213C25.7579 25.0005 25.9206 24.8954 25.9568 24.7036C25.9925 24.5152 25.8767 24.3991 25.7122 24.3153C25.6433 24.2802 25.5744 24.2369 25.4883 24.2463C25.3689 24.1855 25.2317 24.1915 25.1052 24.1592C24.6954 24.054 24.4038 23.7533 24.3723 23.4C24.3367 22.9935 24.5374 22.6621 24.9502 22.5011C25.0987 22.443 25.1414 22.3745 25.1361 22.2348C25.1266 21.9785 25.2139 21.8963 25.4883 21.8618V21.8624Z" fill="#090C05"/>
<path d="M25.4888 24.2469C25.5749 24.2376 25.6432 24.2809 25.7127 24.3159C25.8766 24.3997 25.993 24.5158 25.9574 24.7043C25.9211 24.8954 25.7584 25.0012 25.4894 25.022C25.4894 24.764 25.4894 24.5054 25.4894 24.2474L25.4888 24.2469Z" fill="#FBDC40"/>
<path d="M25.4885 23.6267C25.4666 23.6278 25.444 23.6328 25.4226 23.6295C25.1221 23.5879 24.9814 23.4728 24.9956 23.2822C25.0093 23.0965 25.2011 22.9793 25.4891 22.9815C25.4891 23.1967 25.4891 23.4115 25.4891 23.6267H25.4885Z" fill="#FBBC41"/>
<defs>
<filter id="filter0_d_1312_59" x="0" y="0" width="39" height="39" filterUnits="userSpaceOnUse" color-interpolation-filters="sRGB">
<feFlood flood-opacity="0" result="BackgroundImageFix"/>
<feColorMatrix in="SourceAlpha" type="matrix" values="0 0 0 0 0 0 0 0 0 0 0 0 0 0 0 0 0 0 127 0" result="hardAlpha"/>
<feOffset dy="1"/>
<feGaussianBlur stdDeviation="2"/>
<feComposite in2="hardAlpha" operator="out"/>
<feColorMatrix type="matrix" values="0 0 0 0 0 0 0 0 0 0 0 0 0 0 0 0 0 0 0.25 0"/>
<feBlend mode="normal" in2="BackgroundImageFix" result="effect1_dropShadow_1312_59"/>
<feBlend mode="normal" in="SourceGraphic" in2="effect1_dropShadow_1312_59" result="shape"/>
</filter>
</defs>
</svg>
