<svg width="92" height="70" viewBox="0 0 92 70" fill="none" xmlns="http://www.w3.org/2000/svg">
<path d="M5.50565 0.765452L63.7286 0.765457C66.7568 0.765457 69.2344 3.24307 69.2344 6.27126L69.2344 64.4942C69.2344 67.5224 66.7568 70 63.7286 70L5.50564 70C2.47745 70 -0.000160001 67.5224 -0.000159736 64.4942L-0.000154646 6.27125C-0.000154381 3.24307 2.47745 0.765451 5.50565 0.765452Z" fill="#B2DF8A"/>
<path d="M28.2044 0.765452L86.4273 0.765457C89.4555 0.765457 91.9331 3.24307 91.9331 6.27126L91.9331 64.4942C91.9331 67.5224 89.4555 70 86.4273 70L28.2044 70C25.1762 70 22.6986 67.5224 22.6986 64.4942L22.6986 6.27125C22.6986 3.24307 25.1762 0.765451 28.2044 0.765452Z" fill="#128C7B"/>
<path d="M10.1258 6.46119L12.6309 6.46119C15.6591 6.46119 18.1367 8.9388 18.1367 11.967L18.1367 58.7989C18.1367 61.8271 15.6591 64.3047 12.6309 64.3047L10.1258 64.3047C7.09759 64.3047 4.61998 61.8271 4.61998 58.7989L4.61998 11.967C4.61998 8.9388 7.0976 6.46119 10.1258 6.46119Z" fill="#128C7B"/>
<path d="M33.905 6.46607L80.7369 6.46607C83.7651 6.46607 86.2427 8.94368 86.2427 11.9719L86.2427 58.8038C86.2427 61.832 83.7651 64.3096 80.7369 64.3096L33.905 64.3096C30.8768 64.3096 28.3992 61.832 28.3992 58.8038L28.3992 11.9719C28.3992 8.94367 30.8768 6.46607 33.905 6.46607Z" fill="#B2DF8A"/>
<path d="M66.4194 26.7297C68.6542 30.8916 69.4375 35.5469 68.7693 40.6957C68.585 41.9829 68.1243 43.1843 67.3409 44.2998C65.4748 46.96 62.4566 48.5046 58.2866 48.9337C55.4067 49.2126 53.1258 48.6119 51.444 47.1316C49.7621 45.6514 48.9558 43.6777 49.0019 41.232C49.071 38.7005 49.9234 36.3192 51.5592 34.0667C51.9048 33.5947 52.2273 33.466 52.4808 33.7019C52.7572 33.9379 52.7342 34.2812 52.4577 34.7531C50.868 37.3919 50.5916 39.5372 51.6514 41.1891C52.6651 42.7767 54.7847 43.5489 57.9871 43.5275C61.8807 43.506 64.9679 42.3905 67.2027 40.2023C67.0645 37.778 65.8203 34.7103 63.4704 31.0418C63.1478 30.5483 63.0787 30.1193 63.24 29.776L64.8757 26.3006C65.2674 25.3996 65.7743 25.5497 66.4194 26.7297ZM57.1116 20.2508C57.2959 20.0148 57.5493 19.9505 57.8719 20.0363C59.093 20.4439 60.1758 21.0446 61.1204 21.8169C61.3738 22.0529 61.4199 22.3103 61.2586 22.5678L59.139 25.6999C58.9086 25.9788 58.6322 26.0003 58.3327 25.7857C58.0332 25.5712 56.9734 24.9276 55.1302 23.9193C54.8307 23.7477 54.7846 23.5117 54.969 23.2328L57.1116 20.2508Z" fill="#17AF9A"/>
</svg>
