<svg width="39" height="39" viewBox="0 0 39 39" fill="none" xmlns="http://www.w3.org/2000/svg">
<path d="M17.8622 17.7718C17.8644 17.2448 17.5365 16.8638 17.0523 16.8314C16.3018 16.7819 15.7517 16.239 15.6177 15.4162C15.4897 14.6288 15.8416 13.839 16.4875 13.5431C16.688 13.451 16.7484 13.3354 16.7261 13.1062C16.7135 12.9818 16.713 12.8484 16.7375 12.7278C16.7789 12.5215 16.9014 12.3881 17.0899 12.4097C17.2593 12.4294 17.4014 12.5595 17.3764 12.7634C17.317 13.2542 17.4799 13.5304 17.8764 13.6961C18.0773 13.7805 18.2102 14.0136 18.3257 14.2326C18.44 14.4504 18.4531 14.665 18.2543 14.8149C18.0593 14.9609 17.8883 14.8803 17.7712 14.658C17.6068 14.3456 17.3747 14.171 17.0572 14.1698C16.6449 14.1679 16.3094 14.5215 16.2659 14.9977C16.2196 15.5019 16.4777 15.9247 16.8987 16.0193C17.0763 16.0593 17.2609 16.0593 17.4352 16.112C18.0305 16.2917 18.4733 16.9013 18.5158 17.5762C18.5664 18.3775 18.2456 19.0417 17.6345 19.3312C17.4434 19.422 17.3573 19.528 17.3867 19.7674C17.4009 19.8811 17.3911 19.9998 17.3813 20.1154C17.3633 20.3204 17.2658 20.4449 17.085 20.4595C16.89 20.4754 16.7201 20.3414 16.7451 20.1458C16.8181 19.5814 16.5654 19.3312 16.1754 19.1223C15.9625 19.008 15.8356 18.7502 15.7316 18.4975C15.6384 18.2709 15.6678 18.0696 15.8585 17.954C16.0464 17.8397 16.2168 17.9146 16.3149 18.1381C16.4799 18.514 16.7332 18.7128 17.0981 18.6982C17.5294 18.681 17.8606 18.2766 17.8627 17.7718H17.8622Z" fill="#010101"/>
<path d="M30.2808 16.4649C30.2808 16.1379 30.2765 15.811 30.2825 15.484C30.2868 15.2319 30.3794 15.0478 30.6185 15.0471C30.8614 15.0471 30.9464 15.2351 30.9475 15.4871C30.9502 16.1519 30.9507 16.8161 30.9475 17.4809C30.9458 17.7317 30.8598 17.919 30.6158 17.9171C30.3734 17.9152 30.2879 17.7259 30.283 17.4777C30.2765 17.1405 30.2814 16.8027 30.2814 16.4649H30.2808Z" fill="#050202"/>
<g filter="url(#filter0_d_1292_398)">
<circle cx="19.5" cy="18.5" r="15.5" fill="white"/>
<circle cx="19.5" cy="18.5" r="15" stroke="#FDFDFD"/>
</g>
<path d="M8.0055 24.769C8.0055 23.4369 8.01149 22.1048 8.00005 20.7733C7.99787 20.5162 8.06595 20.4559 8.27509 20.4603C8.92757 20.4749 9.58059 20.4724 10.2331 20.4616C10.4112 20.4584 10.4634 20.5219 10.4629 20.7308C10.4575 23.4369 10.4569 26.143 10.4629 28.8492C10.4629 29.0765 10.3997 29.1336 10.2145 29.1304C9.55281 29.1197 8.89108 29.1203 8.2288 29.1304C8.05179 29.133 7.99896 29.0689 8.0006 28.86C8.00822 27.4961 8.00441 26.1329 8.00441 24.769H8.0055Z" fill="#3C987A"/>
<path d="M11.1222 24.7835C11.1222 24.0959 11.1222 23.4082 11.1222 22.7206C11.1222 22.4374 11.2393 22.2956 11.4735 22.2952C12.237 22.2927 12.9652 22.4711 13.6629 22.8406C14.4352 23.2501 15.2728 23.3263 16.1007 23.433C17.1034 23.5619 18.1131 23.4851 19.118 23.5511C19.484 23.5752 19.7487 23.7625 19.8723 24.1587C19.9976 24.5607 19.9633 24.9518 19.6931 25.2775C19.533 25.4712 19.3331 25.5537 19.1038 25.5499C18.1425 25.534 17.1807 25.5194 16.2194 25.5055C16.1203 25.5042 16.019 25.4985 15.9221 25.5182C15.7581 25.5512 15.6666 25.682 15.659 25.8706C15.6508 26.061 15.7385 26.1944 15.8954 26.249C15.9722 26.2756 16.0555 26.2833 16.1361 26.2852C17.0702 26.3068 18.0042 26.3245 18.9388 26.3461C19.5096 26.3595 19.9905 26.1506 20.3325 25.5944C20.3995 25.4858 20.4905 25.4229 20.5874 25.3651C21.9773 24.5397 23.3672 23.7149 24.7555 22.8863C24.9919 22.7454 25.2326 22.685 25.4902 22.7739C25.8252 22.8895 26.0518 23.2038 26.0877 23.593C26.1318 24.066 25.9766 24.4248 25.6177 24.6445C24.9108 25.0762 24.1978 25.494 23.4887 25.9213C22.1592 26.7226 20.8325 27.529 19.5025 28.3278C18.77 28.7678 17.9786 28.8599 17.1731 28.8091C15.8033 28.7233 14.4858 28.3373 13.2092 27.7722C12.6406 27.5208 12.06 27.3893 11.4604 27.3538C11.1962 27.3379 11.1064 27.2274 11.1156 26.9112C11.1363 26.2033 11.1222 25.494 11.1222 24.7854V24.7835Z" fill="#EBB968"/>
<path d="M17.058 11.6225C18.1157 11.6294 19.04 12.0422 19.8341 12.8587C19.9473 12.9749 19.9664 13.0352 19.833 13.1647C19.3003 13.6816 19.1217 14.4168 19.3259 15.1604C19.5198 15.8651 20.022 16.3007 20.7153 16.3648C21.0609 16.397 21.214 16.6137 21.1744 17.015C20.9429 19.3567 19.2524 21.1701 17.2051 21.2723C15.1997 21.3726 13.3943 19.6983 13.0043 17.3782C12.5005 14.3838 14.4432 11.6263 17.058 11.6218V11.6225Z" fill="#FBBC41"/>
<path d="M17.2705 17.3644C17.2727 16.8374 16.9448 16.4564 16.4606 16.424C15.7101 16.3745 15.16 15.8316 15.0261 15.0087C14.8981 14.2214 15.2499 13.4315 15.8958 13.1357C16.0963 13.0436 16.1567 12.928 16.1344 12.6988C16.1219 12.5744 16.1213 12.441 16.1458 12.3204C16.1872 12.114 16.3098 11.9807 16.4982 12.0023C16.6676 12.022 16.8098 12.1521 16.7847 12.3559C16.7253 12.8468 16.8882 13.123 17.2847 13.2887C17.4856 13.3731 17.6185 13.6061 17.734 13.8252C17.8484 14.043 17.8614 14.2576 17.6627 14.4074C17.4677 14.5535 17.2967 14.4728 17.1796 14.2506C17.0151 13.9382 16.7831 13.7636 16.4655 13.7623C16.0532 13.7604 15.7178 14.1141 15.6742 14.5903C15.6279 15.0945 15.886 15.5173 16.3071 15.6119C16.4846 15.6519 16.6692 15.6519 16.8435 15.7046C17.4388 15.8843 17.8816 16.4939 17.9241 17.1688C17.9747 17.9701 17.6539 18.6343 17.0429 18.9238C16.8517 19.0146 16.7656 19.1206 16.795 19.36C16.8092 19.4736 16.7994 19.5924 16.7896 19.7079C16.7716 19.913 16.6741 20.0375 16.4933 20.0521C16.2983 20.068 16.1284 19.934 16.1535 19.7384C16.2264 19.174 15.9737 18.9238 15.5838 18.7149C15.3708 18.6006 15.2439 18.3428 15.1399 18.0901C15.0468 17.8634 15.0762 17.6622 15.2668 17.5466C15.4547 17.4323 15.6252 17.5072 15.7232 17.7307C15.8882 18.1066 16.1415 18.3054 16.5064 18.2908C16.9377 18.2736 17.2689 17.8691 17.2711 17.3644H17.2705Z" fill="#010101"/>
<path d="M19.3334 11.493C20.5594 10.4339 21.9101 10.1425 23.373 10.385C24.6093 10.5895 25.8042 10.9634 26.9659 11.4898C27.4294 11.7 27.9196 11.7381 28.407 11.7806C28.6516 11.8022 28.7425 11.8987 28.7398 12.2041C28.7251 13.6213 28.7262 15.0391 28.7393 16.4563C28.742 16.7674 28.6565 16.8494 28.3983 16.8436C27.6543 16.8265 26.9365 16.6862 26.2584 16.3217C25.4687 15.8976 24.6174 15.808 23.7716 15.7001C22.7695 15.5725 21.7597 15.6455 20.7543 15.5801C20.3616 15.5541 20.085 15.3369 19.9646 14.9344C19.8432 14.528 19.9423 14.0759 20.2081 13.8016C20.3753 13.6289 20.573 13.5769 20.7876 13.58C21.7488 13.5953 22.7107 13.6105 23.672 13.6251C23.7618 13.6264 23.8544 13.6302 23.9421 13.6111C24.106 13.575 24.1959 13.4397 24.2013 13.2537C24.2068 13.0803 24.124 12.9559 23.9835 12.8879C23.8789 12.8372 23.7694 12.8479 23.6616 12.8454C22.7635 12.8257 21.8659 12.8022 20.9678 12.7902C20.7935 12.7876 20.6607 12.7381 20.5392 12.5806C20.1966 12.1381 19.7811 11.7984 19.3339 11.493H19.3334Z" fill="#EBB968"/>
<path d="M29.3958 14.3317C29.3958 12.9895 29.4007 11.6465 29.3909 10.3043C29.3893 10.0674 29.4443 9.99633 29.6485 10.0001C30.3103 10.0141 30.972 10.0103 31.6337 10.002C31.7944 10.0001 31.8532 10.0503 31.8527 10.2503C31.8478 12.9774 31.8478 15.7051 31.8521 18.4322C31.8521 18.61 31.8085 18.6709 31.6528 18.669C30.9731 18.6608 30.2928 18.6576 29.6131 18.6709C29.4209 18.6747 29.3925 18.5827 29.3931 18.3909C29.3985 17.0378 29.3958 15.6848 29.3958 14.3317Z" fill="#3C987A"/>
<path d="M8.90877 22.6437C8.90877 22.3059 8.90496 21.9687 8.9104 21.6309C8.91421 21.3909 9.00245 21.2182 9.2301 21.2138C9.47192 21.2087 9.56996 21.3916 9.57268 21.6417C9.57976 22.3167 9.57922 22.9923 9.57268 23.6672C9.5705 23.904 9.47301 24.0793 9.24808 24.085C9.0068 24.0907 8.91258 23.9129 8.90986 23.657C8.9055 23.3199 8.90877 22.9821 8.90931 22.6443L8.90877 22.6437Z" fill="#050202"/>
<defs>
<filter id="filter0_d_1292_398" x="0" y="0" width="39" height="39" filterUnits="userSpaceOnUse" color-interpolation-filters="sRGB">
<feFlood flood-opacity="0" result="BackgroundImageFix"/>
<feColorMatrix in="SourceAlpha" type="matrix" values="0 0 0 0 0 0 0 0 0 0 0 0 0 0 0 0 0 0 127 0" result="hardAlpha"/>
<feOffset dy="1"/>
<feGaussianBlur stdDeviation="2"/>
<feComposite in2="hardAlpha" operator="out"/>
<feColorMatrix type="matrix" values="0 0 0 0 0 0 0 0 0 0 0 0 0 0 0 0 0 0 0.25 0"/>
<feBlend mode="normal" in2="BackgroundImageFix" result="effect1_dropShadow_1292_398"/>
<feBlend mode="normal" in="SourceGraphic" in2="effect1_dropShadow_1292_398" result="shape"/>
</filter>
</defs>
</svg>
