<svg width="92" height="70" viewBox="0 0 92 70" fill="none" xmlns="http://www.w3.org/2000/svg">
<path d="M5.50565 0.765452L63.7286 0.765457C66.7568 0.765457 69.2344 3.24307 69.2344 6.27126L69.2344 64.4942C69.2344 67.5224 66.7568 70 63.7286 70L5.50564 70C2.47745 70 -0.000160001 67.5224 -0.000159736 64.4942L-0.000154646 6.27125C-0.000154381 3.24307 2.47745 0.765451 5.50565 0.765452Z" fill="#FC9A99"/>
<path d="M28.2044 0.765452L86.4273 0.765457C89.4555 0.765457 91.9331 3.24307 91.9331 6.27126L91.9331 64.4942C91.9331 67.5224 89.4555 70 86.4273 70L28.2044 70C25.1762 70 22.6986 67.5224 22.6986 64.4942L22.6986 6.27125C22.6986 3.24307 25.1762 0.765451 28.2044 0.765452Z" fill="#E21A1C"/>
<path d="M10.1258 6.46119L12.6309 6.46119C15.6591 6.46119 18.1367 8.9388 18.1367 11.967L18.1367 58.7989C18.1367 61.8271 15.6591 64.3047 12.6309 64.3047L10.1258 64.3047C7.09759 64.3047 4.61998 61.8271 4.61998 58.7989L4.61998 11.967C4.61998 8.9388 7.0976 6.46119 10.1258 6.46119Z" fill="#E21A1C"/>
<path d="M33.905 6.46607L80.7369 6.46607C83.7651 6.46607 86.2427 8.94368 86.2427 11.9719L86.2427 58.8038C86.2427 61.832 83.7651 64.3096 80.7369 64.3096L33.905 64.3096C30.8768 64.3096 28.3992 61.832 28.3992 58.8038L28.3992 11.9719C28.3992 8.94367 30.8768 6.46607 33.905 6.46607Z" fill="#FC9A99"/>
<path d="M58.5558 20.2054C58.7001 20.0156 58.8855 19.9523 59.1329 20.0367C60.0603 20.3741 60.8847 20.8803 61.6061 21.5341C61.7916 21.7239 61.8328 21.9348 61.7091 22.1668L60.0809 24.7821C59.8954 25.0141 59.6893 25.0352 59.4626 24.8664C59.2359 24.6766 58.4115 24.1494 57.0306 23.3057C56.8039 23.1581 56.7627 22.9683 56.907 22.7363L58.5558 20.2054ZM67.2327 28.5784C68.2426 30.3078 68.8197 32.5856 68.9845 35.4329C69.0464 36.4452 68.9227 37.3311 68.6136 38.0692C67.9746 39.6299 66.5937 41.0008 64.5121 42.203C62.4099 43.4052 59.9367 44.3332 57.0513 44.987C54.1658 45.6408 51.5277 45.9993 49.1369 45.9993C43.4485 46.0415 40.4189 44.059 40.0273 40.0728C39.9448 39.1659 40.0479 38.1325 40.357 36.9725C40.6662 35.8125 41.0165 34.9689 41.4081 34.4627C41.7997 33.9565 42.1089 33.7878 42.3768 33.9565C42.6241 34.1253 42.6035 34.5049 42.2944 35.0954C41.1608 37.2256 41.2845 38.8074 42.6447 39.8198C44.8912 41.4859 48.498 41.9921 53.4239 41.4016C57.7726 40.8532 61.874 39.5456 65.7281 37.4154C66.8823 36.7827 67.48 36.1922 67.5418 35.6649C67.5418 35.4118 67.3357 35.0322 66.9029 34.5049C66.4701 35.5172 65.6457 36.1711 64.4297 36.4241C62.3687 36.8038 61.2763 35.918 61.1733 33.7878C61.1321 32.1849 61.7916 30.3078 63.1931 28.1355C63.832 27.1021 64.4915 26.617 65.1923 26.6381C65.8312 26.6381 66.5319 27.2919 67.2327 28.5784ZM64.8007 32.1217C65.0274 31.9107 65.0068 31.6998 64.7595 31.4889C63.9557 30.7929 63.3374 30.8562 62.8839 31.6998C62.7809 31.9107 62.7809 32.0795 62.9251 32.1849C63.5641 32.7544 64.1824 32.7333 64.8007 32.1217Z" fill="#E21A1C"/>
</svg>
