<svg width="92" height="70" viewBox="0 0 92 70" fill="none" xmlns="http://www.w3.org/2000/svg">
<path d="M5.50565 -0.000173418L63.7286 -0.000168328C66.7568 -0.000168063 69.2344 2.47745 69.2344 5.50563L69.2344 63.7286C69.2344 66.7568 66.7568 69.2344 63.7286 69.2344L5.50564 69.2344C2.47745 69.2344 -0.000160001 66.7568 -0.000159736 63.7286L-0.000154646 5.50563C-0.000154381 2.47744 2.47745 -0.000173683 5.50565 -0.000173418Z" fill="#FEFF99"/>
<path d="M28.2044 -0.000173418L86.4273 -0.000168328C89.4555 -0.000168063 91.9331 2.47744 91.9331 5.50563L91.9331 63.7286C91.9331 66.7568 89.4555 69.2344 86.4273 69.2344L28.2044 69.2344C25.1762 69.2344 22.6986 66.7568 22.6986 63.7286L22.6986 5.50563C22.6986 2.47743 25.1762 -0.000173683 28.2044 -0.000173418Z" fill="#CCAE2E"/>
<path d="M10.1258 5.69556L12.6309 5.69556C15.6591 5.69556 18.1367 8.17318 18.1367 11.2014L18.1367 58.0333C18.1367 61.0615 15.6591 63.5391 12.6309 63.5391L10.1258 63.5391C7.09759 63.5391 4.61998 61.0615 4.61998 58.0333L4.61998 11.2014C4.61998 8.17317 7.0976 5.69556 10.1258 5.69556Z" fill="#CCAE2E"/>
<path d="M33.905 5.70044L80.7369 5.70045C83.7651 5.70045 86.2427 8.17805 86.2427 11.2062L86.2427 58.0381C86.2427 61.0663 83.7651 63.5439 80.7369 63.5439L33.905 63.5439C30.8768 63.5439 28.3992 61.0663 28.3992 58.0381L28.3992 11.2062C28.3992 8.17805 30.8768 5.70044 33.905 5.70044Z" fill="#FEFF99"/>
<path d="M51.3377 26.583C48.8142 28.0441 47.0688 29.7727 46.0804 31.7689C45.092 33.765 44.7556 35.6788 45.071 37.4898C45.7439 41.4204 48.4777 43.8487 53.2724 44.7747C57.2679 45.5567 62.6514 45.5361 69.4018 44.713C70.4743 44.5895 71 44.7747 71 45.2686C71 45.6596 70.4322 46.03 69.3177 46.4005C68.2031 46.7503 67.1096 47.3059 66.0792 48.0468C65.0277 48.7876 64.3758 49.2198 64.1024 49.3638C63.829 49.4873 63.5346 49.5696 63.2402 49.6108C55.186 50.5574 49.5712 49.7754 46.3958 47.2854C43.8513 45.3098 42.7367 42.1406 43.0522 37.819C43.5569 31.0074 46.3538 26.0273 51.4218 22.9199C48.9614 22.5495 46.9636 22.7553 45.4075 23.5167C44.7345 23.846 44.3981 23.5784 44.4191 22.6935C44.5242 19.6273 46.2697 18.0633 49.6764 18.0015C50.3073 17.981 51.6742 18.1662 53.8191 18.516C57.31 19.1128 60.8849 19.1334 64.544 18.5366C65.953 18.2897 66.4787 18.5983 66.1212 19.4421L64.9436 22.1997C64.7333 22.6935 64.4389 22.9817 64.0393 23.0228C58.8661 23.4961 54.6603 24.6691 51.3377 26.583Z" fill="#CCAE2E"/>
</svg>
