<svg width="310" height="367" viewBox="0 0 310 367" fill="none" xmlns="http://www.w3.org/2000/svg">
<g filter="url(#filter0_d_2953_13220)">
<path d="M2.00024 76C2.00024 64.9543 10.9546 56 22.0002 56H288C299.046 56 308 64.9543 308 76V363H2.00024V76Z" fill="#DBFFCA"/>
<path d="M57.5305 272.32H51.0618V253.102H57.4368C63.8743 253.227 67.1555 256.414 67.2805 262.664C67.4055 269.227 64.1555 272.445 57.5305 272.32ZM57.343 255.539H53.968V270.07H57.343C61.9055 270.07 64.1868 267.602 64.1868 262.664C64.0618 258.039 61.7805 255.664 57.343 255.539ZM86.968 272.32H83.968V263.789H73.7493V272.32H70.843V253.102H73.7493V261.258H83.968V253.102H86.968V272.32ZM91.093 264.258V253.102H94.093V264.258C94.093 268.32 95.8118 270.32 99.2493 270.258C102.687 270.258 104.406 268.227 104.406 264.164V253.102H107.406V264.164C107.406 269.789 104.656 272.602 99.1555 272.602C93.7805 272.602 91.093 269.82 91.093 264.258ZM127.187 253.102L134.874 272.32H131.687L129.718 267.164H121.187L119.218 272.32H116.031L123.718 253.102H127.187ZM125.499 255.633H125.406C125.218 256.195 125.031 256.758 124.843 257.32C124.781 257.445 123.812 259.945 121.937 264.82H128.968C127.093 259.945 126.124 257.445 126.062 257.32C126.062 257.258 126.031 257.133 125.968 256.945C125.656 256.195 125.499 255.758 125.499 255.633ZM150.062 272.32H136.937V253.102H139.843V270.07H150.062V272.32ZM165.718 263.883H152.593V261.82H165.718V263.883ZM180.531 272.227L185.031 276.633L181.749 277.57L177.437 272.508C171.687 272.07 168.687 268.852 168.437 262.852C168.687 256.414 171.843 253.07 177.906 252.82C183.656 253.258 186.749 256.602 187.187 262.852C187.062 267.852 184.843 270.977 180.531 272.227ZM171.437 262.852C171.624 267.477 173.687 269.914 177.624 270.164C181.749 269.977 183.874 267.539 183.999 262.852C183.812 258.164 181.718 255.664 177.718 255.352C173.781 255.664 171.687 258.164 171.437 262.852ZM190.656 272.32V253.102H193.562V272.32H190.656ZM199.749 252.82L199.374 259.758H197.499L197.031 252.82H199.749ZM209.593 272.32H203.124V253.102H209.499C215.937 253.227 219.218 256.414 219.343 262.664C219.468 269.227 216.218 272.445 209.593 272.32ZM209.406 255.539H206.031V270.07H209.406C213.968 270.07 216.249 267.602 216.249 262.664C216.124 258.039 213.843 255.664 209.406 255.539ZM231.906 253.102L239.593 272.32H236.406L234.437 267.164H225.906L223.937 272.32H220.749L228.437 253.102H231.906ZM230.218 255.633H230.124C229.937 256.195 229.749 256.758 229.562 257.32C229.499 257.445 228.531 259.945 226.656 264.82H233.687C231.812 259.945 230.843 257.445 230.781 257.32C230.781 257.258 230.749 257.133 230.687 256.945C230.374 256.195 230.218 255.758 230.218 255.633ZM257.874 272.32H254.874V263.789H244.656V272.32H241.749V253.102H244.656V261.258H254.874V253.102H257.874V272.32Z" fill="#242424"/>
<path d="M92.7464 209.135C87.002 216.363 79.8891 218.496 71.7386 215.845C65.7987 213.919 62.6709 205.165 66.1747 200.114C66.5657 199.536 67.6182 199.018 68.2649 199.121C68.9265 199.225 69.8138 199.995 70.0243 200.662C72.0695 206.78 72.8515 207.387 79.3327 207.357C79.9643 207.357 80.5809 207.357 81.2125 207.313C88.0547 206.913 89.7238 204.558 87.438 198.322C85.9493 194.263 84.2351 190.293 82.7012 186.249C82.2801 185.124 81.6184 183.687 81.9793 182.739C82.7914 180.65 84.19 178.784 85.3479 176.829C86.4607 178.384 87.9644 179.791 88.6261 181.524C91.0171 187.745 93.1223 194.07 95.3479 200.366C96.957 204.913 100.19 207.091 105.092 206.809C109.183 206.572 113.273 206.32 118.251 206.024C115.965 202.928 114.281 200.514 110.792 200.988C108.22 201.343 107.423 200.425 108.145 198.173C111.258 188.501 113.273 184.502 125.018 184.339C129.213 184.279 133.063 185.346 135.168 189.39C137.379 193.67 136.552 197.774 133.935 201.625C133.063 202.913 131.98 204.084 130.326 206.157H147.108C147.018 202.01 146.206 197.848 147.003 194.011C148.537 186.56 154.627 181.746 160.146 182.65C165.605 183.539 169.695 190.634 168.778 198.085C168.462 200.603 167.499 203.032 166.702 205.95C171.229 207.165 175.996 207.313 180.702 205.891C181.56 205.639 182.447 203.832 182.447 202.721C182.567 191.612 182.552 180.517 182.477 169.408C182.477 168.223 181.665 167.008 181.74 165.838C181.86 163.616 182.026 161.29 182.808 159.246C183.229 158.165 184.988 157.572 186.146 156.758C186.733 157.869 187.259 159.009 187.906 160.091C188.778 161.557 189.575 163.112 190.703 164.386C192.417 166.312 192.146 167.897 190.898 170.03C189.725 172.044 188.793 174.488 188.703 176.784C188.432 184.057 188.612 191.345 188.597 198.618C188.582 213.09 181.124 218.837 166.808 215.4C166.326 215.282 165.815 215.178 165.364 214.971C160.341 212.69 155.574 213.312 150.281 214.897C142.206 217.311 133.89 217.119 126.431 212.305C124.205 210.868 122.446 211.564 120.521 212.586C115.303 215.371 109.649 216.304 103.829 216.156C99.0021 216.037 95.2276 213.786 92.7163 209.135H92.7464ZM163.529 200.203C163.454 194.885 160.447 191.3 157.183 191.3C154.055 191.3 150.958 194.07 151.108 196.722C151.258 199.314 156.642 204.306 159.063 203.521C160.988 202.899 162.492 201.003 163.514 200.203H163.529ZM116.175 194.233C118.401 196.263 120.175 197.907 121.965 199.521C125.499 202.706 128.401 202.173 130.657 197.981C131.77 195.922 131.243 194.174 129.108 193.508C125.002 192.219 120.867 192.352 116.16 194.248L116.175 194.233Z" fill="#184103"/>
<path d="M234.227 212.325C230.513 212.591 226.873 213.347 223.37 212.961C220.242 212.621 218.121 210.132 217.355 207.007C215.866 200.963 216.933 195.453 221.55 190.965C226.212 186.432 233.355 186.936 236.738 192.402C238.513 195.246 239.821 198.712 240.167 202.03C240.994 209.925 239.445 217.494 235.009 224.308C230.407 231.403 224.167 233.743 216.016 231.196C213.4 230.381 210.813 229.329 208.437 227.996C207.415 227.418 206.963 225.878 206.242 224.782C207.475 224.278 208.663 223.508 209.941 223.345C214.948 222.678 220.167 222.827 224.964 221.464C229.61 220.146 232.889 216.502 234.227 212.325ZM227.325 204.104C227.43 204.341 227.55 204.563 227.655 204.8C229.58 203.852 231.505 202.904 233.43 201.956C231.761 200.282 230.362 197.942 228.332 197.142C226.888 196.579 224.422 197.808 222.768 198.786C221.971 199.26 221.4 201.882 221.716 202.089C223.144 203.037 224.919 203.482 226.588 204.074C226.813 204.148 227.084 204.074 227.325 204.074V204.104Z" fill="#184103"/>
<path d="M260.212 216.723C249.971 216.723 245.009 211.731 246.723 202.829C246.994 201.407 248.317 199.259 249.415 199.081C251.776 198.711 251.325 201.14 251.941 202.666C252.588 204.251 254.242 206.428 255.61 206.546C259.881 206.932 264.287 206.843 268.528 206.221C271.701 205.747 272.949 202.917 271.205 200.296C268.227 195.822 264.618 191.764 261.37 187.468C260.377 186.165 258.874 184.476 259.084 183.202C259.445 181.084 260.994 179.143 262.032 177.129C263.595 178.21 265.445 179.04 266.693 180.402C270.979 185.068 274.799 190.016 276.317 196.4C279.175 208.368 272.678 216.708 260.197 216.708L260.212 216.723Z" fill="#184103"/>
<path d="M58.81 200.534C58.7198 211.644 53.2009 217.095 43.5767 215.984C38.2082 215.362 34.2984 211.836 34.0278 206.267C33.8624 202.697 34.4187 198.861 35.6518 195.498C37.2007 191.262 39.6519 187.322 41.8925 183.337C43.8474 179.841 45.2159 179.634 48.2986 182.3C54.0581 187.262 59.1409 192.654 58.81 200.534ZM46.088 206.845C51.1858 206.859 53.5919 205.319 53.5016 202.09C53.4114 198.92 47.9678 192.388 45.3061 192.269C43.1858 192.165 38.4639 198.594 38.4037 201.675C38.3285 204.875 41.2158 206.815 46.088 206.845Z" fill="#184103"/>
<path d="M204.849 156.269C205.029 158.239 205.27 159.513 205.27 160.801C205.3 174.221 205.48 187.642 205.164 201.062C205.059 205.283 203.661 209.49 202.638 213.637C202.443 214.452 201.224 215.015 200.488 215.696C200.006 214.808 199.119 213.934 199.104 213.045C198.969 207.016 199.029 200.988 199.014 194.944C199.014 184.605 199.089 174.251 198.969 163.912C198.924 160.135 200.894 158.105 204.849 156.254V156.269Z" fill="#184103"/>
<path d="M255.37 156.428C257.641 154.918 259.822 153.466 262.333 151.792C259.34 149.437 256.889 146.786 259.34 143.334C260.513 141.675 262.964 139.942 264.784 140.001C266.107 140.046 267.596 142.831 268.543 144.623C269.25 145.956 269.235 147.674 269.491 149.215C269.566 149.674 269.566 150.192 269.446 150.652C268.363 154.607 260.303 158.932 256.378 157.643C256.092 157.554 255.927 157.11 255.385 156.428H255.37Z" fill="#184103"/>
<path d="M123.186 178.609C120.118 178.55 118.013 176.165 118.163 172.891C118.313 169.44 121.276 165.411 123.727 165.337C126.284 165.263 129.02 168.848 128.885 172.062C128.72 176.046 126.434 178.668 123.186 178.594V178.609Z" fill="#184103"/>
<path d="M167.246 172.355C165.863 173.822 164.946 175.229 163.652 175.97C162.855 176.429 161.457 175.836 160.329 175.748C159.051 175.659 157.367 175.066 156.57 175.644C153.908 177.54 152.509 175.94 150.9 174.281C149.051 172.385 150.269 171.037 151.577 169.586C153.156 167.838 154.555 167.29 156.585 169.141C157.186 169.689 158.81 169.274 159.923 169.097C161.036 168.919 162.464 167.912 163.111 168.297C164.6 169.215 165.698 170.756 167.246 172.341V172.355Z" fill="#184103"/>
<path d="M46.0559 168.6C47.8003 167.43 49.5747 164.512 52.2063 167.949C53.3642 169.445 55.0033 170.644 53.1537 172.629C51.4995 174.407 49.9206 176.17 47.2288 173.829C46.6423 173.326 45.1386 173.785 44.0709 173.874C42.7325 173.977 41.0633 174.703 40.161 174.155C38.958 173.429 37.4242 171.533 37.6798 170.526C38.0558 168.971 39.6047 167.104 41.0784 166.601C42.2213 166.216 44.0108 167.712 46.0559 168.6Z" fill="#184103"/>
<path d="M150.39 163.385C151.217 158.66 159.232 153.624 165.789 153.387C166.495 158.23 161.082 160.112 150.39 163.385Z" fill="#184103"/>
<path d="M93.7455 160.363C92.4823 165.474 85.8056 169.666 78.2416 170.391C78.2115 166.051 85.174 161.474 93.7455 160.363Z" fill="#184103"/>
<path d="M268.3 167.119C265.864 169.03 264.044 171.563 262.45 171.43C260.766 171.296 258.089 168.615 258.089 167.06C258.089 165.46 260.736 162.631 262.33 162.572C263.984 162.498 265.773 165.075 268.285 167.134L268.3 167.119Z" fill="#184103"/>
<g filter="url(#filter1_d_2953_13220)">
<circle cx="155" cy="64" r="64" fill="url(#paint0_radial_2953_13220)"/>
<g filter="url(#filter2_d_2953_13220)">
<path d="M192.922 44.7021V97.1516C192.922 100.714 190.031 103.602 186.465 103.602H122.762C119.196 103.602 116.305 100.714 116.305 97.1516V44.7021L118.363 42.6056H190.582L192.922 44.7021Z" fill="white"/>
<path d="M192.922 33.4646V44.8409H116.305V33.4646C116.305 29.8879 119.173 26.9883 122.71 26.9883H186.517C190.054 26.9883 192.922 29.8879 192.922 33.4641L192.922 33.4646Z" fill="url(#paint1_linear_2953_13220)"/>
<path d="M129.127 36.3625C130.431 36.3625 131.488 35.3055 131.488 34.0016C131.488 32.6977 130.431 31.6406 129.127 31.6406C127.823 31.6406 126.766 32.6977 126.766 34.0016C126.766 35.3055 127.823 36.3625 129.127 36.3625Z" fill="url(#paint2_radial_2953_13220)"/>
<path d="M129.13 23.8164H129.129C128.342 23.8164 127.703 24.4548 127.703 25.2422V33.1849C127.703 33.9723 128.342 34.6107 129.129 34.6107H129.13C129.917 34.6107 130.556 33.9723 130.556 33.1849V25.2422C130.556 24.4548 129.917 23.8164 129.13 23.8164Z" fill="url(#paint3_linear_2953_13220)"/>
<path d="M146.096 36.3625C147.399 36.3625 148.457 35.3055 148.457 34.0016C148.457 32.6977 147.399 31.6406 146.096 31.6406C144.792 31.6406 143.735 32.6977 143.735 34.0016C143.735 35.3055 144.792 36.3625 146.096 36.3625Z" fill="url(#paint4_radial_2953_13220)"/>
<path d="M146.098 23.8164H146.098C145.31 23.8164 144.672 24.4548 144.672 25.2422V33.1849C144.672 33.9723 145.31 34.6107 146.098 34.6107H146.098C146.886 34.6107 147.524 33.9723 147.524 33.1849V25.2422C147.524 24.4548 146.886 23.8164 146.098 23.8164Z" fill="url(#paint5_linear_2953_13220)"/>
<path d="M163.06 36.3625C164.364 36.3625 165.421 35.3055 165.421 34.0016C165.421 32.6977 164.364 31.6406 163.06 31.6406C161.756 31.6406 160.699 32.6977 160.699 34.0016C160.699 35.3055 161.756 36.3625 163.06 36.3625Z" fill="url(#paint6_radial_2953_13220)"/>
<path d="M163.063 23.8164H163.063C162.275 23.8164 161.637 24.4548 161.637 25.2422V33.1849C161.637 33.9723 162.275 34.6107 163.063 34.6107H163.063C163.851 34.6107 164.489 33.9723 164.489 33.1849V25.2422C164.489 24.4548 163.851 23.8164 163.063 23.8164Z" fill="url(#paint7_linear_2953_13220)"/>
<path d="M180.037 36.3625C181.341 36.3625 182.398 35.3055 182.398 34.0016C182.398 32.6977 181.341 31.6406 180.037 31.6406C178.733 31.6406 177.676 32.6977 177.676 34.0016C177.676 35.3055 178.733 36.3625 180.037 36.3625Z" fill="url(#paint8_radial_2953_13220)"/>
<path d="M180.04 23.8164H180.039C179.252 23.8164 178.614 24.4548 178.614 25.2422V33.1849C178.614 33.9723 179.252 34.6107 180.039 34.6107H180.04C180.827 34.6107 181.466 33.9723 181.466 33.1849V25.2422C181.466 24.4548 180.827 23.8164 180.04 23.8164Z" fill="url(#paint9_linear_2953_13220)"/>
</g>
<path d="M146.488 63.008C146.656 62.96 146.812 62.924 146.956 62.9C147.1 62.852 147.244 62.816 147.388 62.792C147.556 62.744 147.76 62.72 148 62.72C148.264 62.696 148.504 62.708 148.72 62.756C148.96 62.78 149.176 62.852 149.368 62.972C149.584 63.068 149.74 63.224 149.836 63.44C149.932 63.68 149.992 63.968 150.016 64.304C150.064 64.616 150.088 64.94 150.088 65.276C150.088 65.612 150.076 65.948 150.052 66.284C150.052 66.596 150.052 66.884 150.052 67.148V85.544C150.052 85.808 150.052 86.084 150.052 86.372C150.076 86.636 150.076 86.912 150.052 87.2C150.028 87.488 149.956 87.764 149.836 88.028C149.716 88.268 149.536 88.472 149.296 88.64C148.96 88.904 148.504 89.036 147.928 89.036C147.376 89.06 146.896 89 146.488 88.856C146.056 88.712 145.792 88.436 145.696 88.028C145.624 87.62 145.588 87.212 145.588 86.804C145.42 83.636 145.336 80.54 145.336 77.516C145.36 74.468 145.372 71.336 145.372 68.12C145.324 68.24 145.156 68.348 144.868 68.444C144.604 68.54 144.292 68.624 143.932 68.696C143.596 68.768 143.272 68.828 142.96 68.876C142.648 68.924 142.444 68.948 142.348 68.948C141.724 69.02 141.148 68.96 140.62 68.768C140.116 68.552 139.828 68.072 139.756 67.328C139.66 66.56 139.828 65.96 140.26 65.528C140.716 65.096 141.292 64.772 141.988 64.556C142.756 64.292 143.5 64.028 144.22 63.764C144.964 63.476 145.72 63.224 146.488 63.008ZM161.289 63.008C161.457 62.96 161.613 62.924 161.757 62.9C161.901 62.852 162.045 62.816 162.189 62.792C162.357 62.744 162.561 62.72 162.801 62.72C163.065 62.696 163.305 62.708 163.521 62.756C163.761 62.78 163.977 62.852 164.169 62.972C164.385 63.068 164.541 63.224 164.637 63.44C164.733 63.68 164.793 63.968 164.817 64.304C164.865 64.616 164.889 64.94 164.889 65.276C164.889 65.612 164.877 65.948 164.853 66.284C164.853 66.596 164.853 66.884 164.853 67.148V85.544C164.853 85.808 164.853 86.084 164.853 86.372C164.877 86.636 164.877 86.912 164.853 87.2C164.829 87.488 164.757 87.764 164.637 88.028C164.517 88.268 164.337 88.472 164.097 88.64C163.761 88.904 163.305 89.036 162.729 89.036C162.177 89.06 161.697 89 161.289 88.856C160.857 88.712 160.593 88.436 160.497 88.028C160.425 87.62 160.389 87.212 160.389 86.804C160.221 83.636 160.137 80.54 160.137 77.516C160.161 74.468 160.173 71.336 160.173 68.12C160.125 68.24 159.957 68.348 159.669 68.444C159.405 68.54 159.093 68.624 158.733 68.696C158.397 68.768 158.073 68.828 157.761 68.876C157.449 68.924 157.245 68.948 157.149 68.948C156.525 69.02 155.949 68.96 155.421 68.768C154.917 68.552 154.629 68.072 154.557 67.328C154.461 66.56 154.629 65.96 155.061 65.528C155.517 65.096 156.093 64.772 156.789 64.556C157.557 64.292 158.301 64.028 159.021 63.764C159.765 63.476 160.521 63.224 161.289 63.008Z" fill="black"/>
</g>
<line x1="70.5862" y1="303.5" x2="1.99998" y2="303.5" stroke="url(#paint10_linear_2953_13220)"/>
<line y1="-0.5" x2="69.0003" y2="-0.5" transform="matrix(1 -0.000396372 -0.000396372 -1 239 303.027)" stroke="url(#paint11_linear_2953_13220)"/>
<rect x="64" y="301" width="182.545" height="5.27586" rx="2.63793" fill="url(#paint12_radial_2953_13220)"/>
</g>
<defs>
<filter id="filter0_d_2953_13220" x="0" y="0" width="310.001" height="367" filterUnits="userSpaceOnUse" color-interpolation-filters="sRGB">
<feFlood flood-opacity="0" result="BackgroundImageFix"/>
<feColorMatrix in="SourceAlpha" type="matrix" values="0 0 0 0 0 0 0 0 0 0 0 0 0 0 0 0 0 0 127 0" result="hardAlpha"/>
<feOffset dy="2"/>
<feGaussianBlur stdDeviation="1"/>
<feComposite in2="hardAlpha" operator="out"/>
<feColorMatrix type="matrix" values="0 0 0 0 0 0 0 0 0 0 0 0 0 0 0 0 0 0 0.25 0"/>
<feBlend mode="normal" in2="BackgroundImageFix" result="effect1_dropShadow_2953_13220"/>
<feBlend mode="normal" in="SourceGraphic" in2="effect1_dropShadow_2953_13220" result="shape"/>
</filter>
<filter id="filter1_d_2953_13220" x="89.0002" y="0" width="132" height="132" filterUnits="userSpaceOnUse" color-interpolation-filters="sRGB">
<feFlood flood-opacity="0" result="BackgroundImageFix"/>
<feColorMatrix in="SourceAlpha" type="matrix" values="0 0 0 0 0 0 0 0 0 0 0 0 0 0 0 0 0 0 127 0" result="hardAlpha"/>
<feOffset dy="2"/>
<feGaussianBlur stdDeviation="1"/>
<feComposite in2="hardAlpha" operator="out"/>
<feColorMatrix type="matrix" values="0 0 0 0 0 0 0 0 0 0 0 0 0 0 0 0 0 0 0.25 0"/>
<feBlend mode="normal" in2="BackgroundImageFix" result="effect1_dropShadow_2953_13220"/>
<feBlend mode="normal" in="SourceGraphic" in2="effect1_dropShadow_2953_13220" result="shape"/>
</filter>
<filter id="filter2_d_2953_13220" x="114.305" y="23.8164" width="80.6174" height="83.7855" filterUnits="userSpaceOnUse" color-interpolation-filters="sRGB">
<feFlood flood-opacity="0" result="BackgroundImageFix"/>
<feColorMatrix in="SourceAlpha" type="matrix" values="0 0 0 0 0 0 0 0 0 0 0 0 0 0 0 0 0 0 127 0" result="hardAlpha"/>
<feOffset dy="2"/>
<feGaussianBlur stdDeviation="1"/>
<feComposite in2="hardAlpha" operator="out"/>
<feColorMatrix type="matrix" values="0 0 0 0 0 0 0 0 0 0 0 0 0 0 0 0 0 0 0.25 0"/>
<feBlend mode="normal" in2="BackgroundImageFix" result="effect1_dropShadow_2953_13220"/>
<feBlend mode="normal" in="SourceGraphic" in2="effect1_dropShadow_2953_13220" result="shape"/>
</filter>
<radialGradient id="paint0_radial_2953_13220" cx="0" cy="0" r="1" gradientUnits="userSpaceOnUse" gradientTransform="translate(155 64) rotate(90) scale(105.674)">
<stop stop-color="#F7FFF3"/>
<stop offset="1" stop-color="#6EFB28"/>
</radialGradient>
<linearGradient id="paint1_linear_2953_13220" x1="154.613" y1="28.0407" x2="154.613" y2="44.7583" gradientUnits="userSpaceOnUse">
<stop stop-color="#E85F43"/>
<stop offset="1" stop-color="#E83636"/>
</linearGradient>
<radialGradient id="paint2_radial_2953_13220" cx="0" cy="0" r="1" gradientUnits="userSpaceOnUse" gradientTransform="translate(129.127 34.0016) scale(2.36095)">
<stop stop-color="#8C1F1F"/>
<stop offset="0.84" stop-color="#450F0F"/>
<stop offset="1" stop-color="#2B0808"/>
</radialGradient>
<linearGradient id="paint3_linear_2953_13220" x1="127.703" y1="29.2136" x2="130.555" y2="29.2136" gradientUnits="userSpaceOnUse">
<stop stop-color="#4F4F4F"/>
<stop offset="0.29" stop-color="#BDBDBD"/>
<stop offset="0.62" stop-color="#BDBDBD"/>
<stop offset="1" stop-color="#4F4F4F"/>
</linearGradient>
<radialGradient id="paint4_radial_2953_13220" cx="0" cy="0" r="1" gradientUnits="userSpaceOnUse" gradientTransform="translate(146.096 23.8395) scale(0.0241505)">
<stop stop-color="#8C1F1F"/>
<stop offset="0.84" stop-color="#450F0F"/>
<stop offset="1" stop-color="#2B0808"/>
</radialGradient>
<linearGradient id="paint5_linear_2953_13220" x1="144.672" y1="23.8164" x2="147.524" y2="23.8164" gradientUnits="userSpaceOnUse">
<stop stop-color="#4F4F4F"/>
<stop offset="0.29" stop-color="#BDBDBD"/>
<stop offset="0.62" stop-color="#BDBDBD"/>
<stop offset="1" stop-color="#4F4F4F"/>
</linearGradient>
<radialGradient id="paint6_radial_2953_13220" cx="0" cy="0" r="1" gradientUnits="userSpaceOnUse" gradientTransform="translate(163.06 23.8395) scale(2.36095)">
<stop stop-color="#8C1F1F"/>
<stop offset="0.84" stop-color="#450F0F"/>
<stop offset="1" stop-color="#2B0808"/>
</radialGradient>
<linearGradient id="paint7_linear_2953_13220" x1="161.637" y1="23.8164" x2="164.489" y2="23.8164" gradientUnits="userSpaceOnUse">
<stop stop-color="#4F4F4F"/>
<stop offset="0.29" stop-color="#BDBDBD"/>
<stop offset="0.62" stop-color="#BDBDBD"/>
<stop offset="1" stop-color="#4F4F4F"/>
</linearGradient>
<radialGradient id="paint8_radial_2953_13220" cx="0" cy="0" r="1" gradientUnits="userSpaceOnUse" gradientTransform="translate(180.037 23.8395) scale(0.0241505)">
<stop stop-color="#8C1F1F"/>
<stop offset="0.84" stop-color="#450F0F"/>
<stop offset="1" stop-color="#2B0808"/>
</radialGradient>
<linearGradient id="paint9_linear_2953_13220" x1="178.614" y1="23.8164" x2="181.466" y2="23.8164" gradientUnits="userSpaceOnUse">
<stop stop-color="#4F4F4F"/>
<stop offset="0.29" stop-color="#BDBDBD"/>
<stop offset="0.62" stop-color="#BDBDBD"/>
<stop offset="1" stop-color="#4F4F4F"/>
</linearGradient>
<linearGradient id="paint10_linear_2953_13220" x1="70.5862" y1="302.5" x2="-4.85864" y2="302.5" gradientUnits="userSpaceOnUse">
<stop stop-color="#2A5315"/>
<stop offset="0.795" stop-color="#DBFFCA"/>
</linearGradient>
<linearGradient id="paint11_linear_2953_13220" x1="0" y1="0.499999" x2="75.9003" y2="0.499992" gradientUnits="userSpaceOnUse">
<stop stop-color="#2A5315"/>
<stop offset="0.795" stop-color="#DBFFCA"/>
</linearGradient>
<radialGradient id="paint12_radial_2953_13220" cx="0" cy="0" r="1" gradientUnits="userSpaceOnUse" gradientTransform="translate(150 303.638) scale(134 3.87283)">
<stop stop-color="#DBFFCA"/>
<stop offset="1" stop-color="#184103"/>
</radialGradient>
</defs>
</svg>
