<svg width="92" height="70" viewBox="0 0 92 70" fill="none" xmlns="http://www.w3.org/2000/svg">
<path d="M5.50565 0.765452L63.7286 0.765457C66.7568 0.765457 69.2344 3.24307 69.2344 6.27126L69.2344 64.4942C69.2344 67.5224 66.7568 70 63.7286 70L5.50564 70C2.47745 70 -0.000160001 67.5224 -0.000159736 64.4942L-0.000154646 6.27125C-0.000154381 3.24307 2.47745 0.765451 5.50565 0.765452Z" fill="#FDBE6F"/>
<path d="M28.2044 0.765452L86.4273 0.765457C89.4555 0.765457 91.9331 3.24307 91.9331 6.27126L91.9331 64.4942C91.9331 67.5224 89.4555 70 86.4273 70L28.2044 70C25.1762 70 22.6986 67.5224 22.6986 64.4942L22.6986 6.27125C22.6986 3.24307 25.1762 0.765451 28.2044 0.765452Z" fill="#FF7F00"/>
<path d="M10.1258 6.46119L12.6309 6.46119C15.6591 6.46119 18.1367 8.9388 18.1367 11.967L18.1367 58.7989C18.1367 61.8271 15.6591 64.3047 12.6309 64.3047L10.1258 64.3047C7.09759 64.3047 4.61998 61.8271 4.61998 58.7989L4.61998 11.967C4.61998 8.9388 7.0976 6.46119 10.1258 6.46119Z" fill="#FF7F00"/>
<path d="M33.905 6.46607L80.7369 6.46607C83.7651 6.46607 86.2427 8.94368 86.2427 11.9719L86.2427 58.8038C86.2427 61.832 83.7651 64.3096 80.7369 64.3096L33.905 64.3096C30.8768 64.3096 28.3992 61.832 28.3992 58.8038L28.3992 11.9719C28.3992 8.94367 30.8768 6.46607 33.905 6.46607Z" fill="#FDBE6F"/>
<path d="M58.5237 26.2399C59.2244 26.2625 59.8798 26.6703 60.49 27.4858C61.5974 28.913 62.3659 31.201 62.8405 34.3045C63.0891 35.8675 63.0439 37.3626 62.7275 38.7445C62.0946 41.6668 60.8064 43.7962 58.8627 45.1327C56.241 46.945 53.5967 47.8964 50.9751 47.987C46.5001 48.1683 43.6298 46.4466 42.3189 42.8901C41.9573 41.9386 41.9121 40.738 42.1382 39.2882C42.4998 37.1361 43.562 34.5536 45.37 31.5634C45.6639 31.0877 45.9803 30.9291 46.3419 31.1103C46.7035 31.2916 46.7035 31.6314 46.3645 32.1297C44.805 34.463 44.014 36.3433 44.0366 37.8157C44.0592 39.2882 44.6242 40.5568 45.7543 41.5988C46.8843 42.6409 48.7828 43.1166 51.4271 43.0033C54.094 42.8901 56.7835 41.78 59.4955 39.6733C60.8516 38.6086 61.5296 37.7931 61.5522 37.1814C61.5748 36.5698 61.3262 36.094 60.7838 35.7316C59.1113 37.2947 57.4389 37.7024 55.7438 36.9549C53.7323 36.0487 53.3255 34.0326 54.546 30.8838C55.7664 27.735 57.0773 26.1946 58.5237 26.2399ZM58.6819 31.8579C58.1395 31.2689 57.6875 30.9744 57.2807 30.9744C56.8739 30.9744 56.5122 31.2236 56.1958 31.7446C56.5122 32.1071 56.9191 32.3109 57.4163 32.3336C57.8909 32.3563 58.3203 32.1977 58.6819 31.8579ZM58.2751 18.2206C58.4333 18.0167 58.6367 17.9488 58.9079 18.0394C59.925 18.4018 60.829 18.9229 61.62 19.6478C61.8234 19.8516 61.8686 20.0782 61.733 20.3274L59.9476 23.1364C59.7442 23.3856 59.5408 23.4309 59.3148 23.227C59.0661 23.0458 58.4333 22.6154 57.3485 21.9584L56.1054 23.9519C55.902 24.2011 55.676 24.2237 55.4274 24.0425C55.1788 23.8386 54.2748 23.2723 52.7605 22.3662C52.5119 22.2076 52.4667 22.0037 52.6249 21.7545L54.4104 19.0814C54.5686 18.8775 54.772 18.8096 55.0432 18.9002C55.789 19.1721 56.467 19.5345 57.0999 19.9649L58.2751 18.2206Z" fill="#FF7F00"/>
</svg>
