<svg width="310" height="367" viewBox="0 0 310 367" fill="none" xmlns="http://www.w3.org/2000/svg">
<g filter="url(#filter0_d_2953_13181)">
<path d="M2.00024 76C2.00024 64.9543 10.9546 56 22.0002 56H288C299.046 56 308 64.9543 308 76V363H2.00024V76Z" fill="#FFF5CF"/>
<path d="M84.2188 267.312L87.2188 266.656C87.6562 269.719 89.4375 271.25 92.5625 271.25C95.3125 271.188 96.75 270.094 96.875 267.969C97.0625 266.531 95.7812 265.438 93.0312 264.688C92.7812 264.562 92.25 264.406 91.4375 264.219C91.1875 264.156 91 264.125 90.875 264.125C86.6875 263.25 84.7188 261.469 84.9688 258.781C85.2188 255.531 87.5 253.812 91.8125 253.625C96.1875 253.562 98.75 255.312 99.5 258.875L96.5938 259.531C96.1562 257.219 94.625 256.062 92 256.062C89.5625 256.125 88.25 257.031 88.0625 258.781C87.875 260.219 89.375 261.25 92.5625 261.875C93.8125 262.188 94.75 262.438 95.375 262.625C98.5625 263.625 100.125 265.375 100.062 267.875C99.9375 271.438 97.4688 273.281 92.6562 273.406C87.8438 273.531 85.0312 271.5 84.2188 267.312ZM119.656 273.125H116.656V264.594H106.438V273.125H103.531V253.906H106.438V262.062H116.656V253.906H119.656V273.125ZM132.875 253.906L140.562 273.125H137.375L135.406 267.969H126.875L124.906 273.125H121.719L129.406 253.906H132.875ZM131.188 256.438H131.094C130.906 257 130.719 257.562 130.531 258.125C130.469 258.25 129.5 260.75 127.625 265.625H134.656C132.781 260.75 131.812 258.25 131.75 258.125C131.75 258.062 131.719 257.938 131.656 257.75C131.344 257 131.188 256.562 131.188 256.438ZM140.75 253.906H143.844C145.594 261.594 146.656 266.375 147.031 268.25C147.094 268.438 147.219 269 147.406 269.938H147.5C147.688 269.188 147.844 268.594 147.969 268.156C148.531 266.219 149.781 261.469 151.719 253.906H154.906C157.281 263.219 158.562 268.125 158.75 268.625C158.812 268.938 158.906 269.5 159.031 270.312H159.125C159.25 269.625 159.344 269.156 159.406 268.906C159.469 268.531 160.562 263.531 162.688 253.906H165.781L160.719 273.125H157.625C155.062 263.562 153.719 258.625 153.594 258.312C153.531 258.125 153.469 257.688 153.406 257H153.312C153.25 257.562 153.188 257.969 153.125 258.219C153.062 258.469 151.688 263.438 149 273.125H145.719L140.75 253.906ZM166.062 253.906H169.156C170.906 261.594 171.969 266.375 172.344 268.25C172.406 268.438 172.531 269 172.719 269.938H172.812C173 269.188 173.156 268.594 173.281 268.156C173.844 266.219 175.094 261.469 177.031 253.906H180.219C182.594 263.219 183.875 268.125 184.062 268.625C184.125 268.938 184.219 269.5 184.344 270.312H184.438C184.562 269.625 184.656 269.156 184.719 268.906C184.781 268.531 185.875 263.531 188 253.906H191.094L186.031 273.125H182.938C180.375 263.562 179.031 258.625 178.906 258.312C178.844 258.125 178.781 257.688 178.719 257H178.625C178.562 257.562 178.5 257.969 178.438 258.219C178.375 258.469 177 263.438 174.312 273.125H171.031L166.062 253.906ZM202.344 253.906L210.031 273.125H206.844L204.875 267.969H196.344L194.375 273.125H191.188L198.875 253.906H202.344ZM200.656 256.438H200.562C200.375 257 200.188 257.562 200 258.125C199.938 258.25 198.969 260.75 197.094 265.625H204.125C202.25 260.75 201.281 258.25 201.219 258.125C201.219 258.062 201.188 257.938 201.125 257.75C200.812 257 200.656 256.562 200.656 256.438ZM225.219 273.125H212.094V253.906H215V270.875H225.219V273.125Z" fill="#242424"/>
<path d="M235.676 202.001C234.969 200.098 234.371 198.591 233.845 197.052C233.446 195.877 232.522 194.437 232.921 193.543C234.063 191.027 235.785 188.742 237.271 186.359C238.63 188.163 240.57 189.802 241.222 191.805C243.035 197.4 242.89 202.978 239.174 208.076C235.567 213.025 231.851 213.87 224.692 210.427C221.031 208.656 218.711 208.291 214.886 210.725C209.811 213.952 203.576 213.373 198.121 210.443C195.982 209.301 194.586 209.582 192.393 210.344C188.805 211.585 184.89 212.297 181.065 212.545C178.183 212.744 176.987 213.621 175.827 216.005C173.888 219.978 171.731 224.017 168.758 227.36C163.919 232.806 157.176 234.13 149.908 232.094C146.193 231.052 142.568 229.578 139.106 227.923C138.018 227.393 137.601 225.672 136.895 224.497C138.254 223.983 139.668 222.941 140.955 223.056C148.966 223.752 156.687 223.305 163.484 218.869C165.604 217.478 167.326 215.575 170.172 213.108C167.58 212.843 166.311 212.512 165.097 212.628C149.963 214.101 146.664 201.703 151.358 192.235C153.225 188.478 156.053 185.465 160.62 184.273C168.124 182.32 174.522 186.425 177.078 194.784C179.325 202.134 179.325 202.018 187.663 201.885C191.342 201.836 193.626 200.545 194.84 197.383C195.474 195.695 196.236 193.99 197.341 192.55C197.958 191.738 199.68 190.861 200.423 191.126C201.311 191.441 201.691 192.947 202.217 193.973C202.326 194.188 202.126 194.519 202.145 194.784C202.235 197.184 199.099 200.313 203.975 201.637C209.195 203.044 214.76 201.587 216.844 198.128C217.859 196.439 218.348 194.47 219.508 192.914C220.197 191.987 221.738 191.192 222.934 191.159C223.532 191.159 224.71 192.93 224.746 193.923C224.964 200.23 227.809 202.614 235.694 202.001H235.676ZM171.694 201.72C169.646 199.071 168.613 197.234 167.073 195.844C163.81 192.897 159.478 193.03 156.705 195.91C154.295 198.409 155.146 201.273 158.753 201.637C162.56 202.018 166.456 201.72 171.694 201.72Z" fill="#F8C600"/>
<path d="M108.116 182.32C108.116 175.417 108.17 168.531 108.079 161.629C108.061 159.858 107.336 158.087 107.409 156.332C107.499 153.866 107.572 151.25 108.514 149.016C109.076 147.708 111.342 146.996 112.846 146.02C113.589 147.261 114.332 148.502 115.094 149.744C116.054 151.283 116.815 152.955 118.048 154.279C120.15 156.531 119.987 158.418 118.447 161C116.942 163.499 115.71 166.479 115.619 169.293C115.275 179.622 115.619 189.984 115.366 200.313C115.275 203.988 114.749 207.778 113.553 211.287C108.514 226.086 88.3774 231.813 75.2367 222.378C69.4367 218.223 66.6998 212.38 67.0261 206.057C67.3342 199.998 69.3824 193.973 71.0499 188.031C71.3217 187.054 73.6417 186.541 75.0192 185.829C75.3999 187.236 76.4693 188.842 76.0524 190.034C74.2036 195.413 73.2248 200.71 75.0917 206.255C77.0673 212.165 81.7798 214.946 88.1054 215.591C95.5367 216.353 102.406 215.078 106.883 208.987C107.952 207.53 108.025 205.295 108.061 203.425C108.188 196.39 108.116 189.355 108.116 182.32Z" fill="#F8C600"/>
<path d="M128.342 180.844C128.342 172.021 128.342 163.182 128.342 154.359C128.342 153.118 127.997 151.496 128.704 150.734C130.335 148.93 132.51 147.539 134.468 146C134.957 147.738 135.845 149.493 135.864 151.231C135.972 165.433 136.208 179.652 135.791 193.854C135.628 199.135 133.942 204.382 132.655 209.596C132.402 210.606 130.789 211.334 129.792 212.195C129.302 211.135 128.414 210.06 128.414 209C128.305 199.615 128.36 190.246 128.342 180.86V180.844Z" fill="#F8C600"/>
<path d="M162.984 165.085C164.18 166.227 164.688 166.558 164.942 166.989C166.718 170.067 168.132 169.935 169.582 166.74C169.944 165.929 171.086 165.416 171.865 164.754C172.318 165.565 173.043 166.326 173.17 167.171C173.841 171.938 170.796 175.066 165.576 175.381C163.981 175.48 162.422 176.457 160.882 176.407C158.507 176.324 155.19 176.391 154.048 175.083C152.671 173.527 153.088 170.597 152.961 168.263C152.961 168.114 155.662 167.386 156.024 167.767C159.268 171.226 159.214 171.292 161.661 167.435C162.096 166.74 162.477 165.995 163.002 165.085H162.984Z" fill="#F8C600"/>
<path d="M233.634 181.513C231.84 182.307 230.136 183.35 228.251 183.83C227.036 184.144 225.115 184.111 224.281 183.449C222.233 181.777 220.82 182.042 218.898 183.549C216.053 185.8 214.313 183.532 212.573 181.877C210.09 179.526 212.246 177.97 213.787 176.315C215.473 174.527 217.231 174.146 219.025 176.133C220.62 177.904 222.016 177.871 223.865 176.282C224.753 175.52 226.855 174.825 227.58 175.256C229.375 176.298 230.698 178.02 232.202 179.477C232.673 180.155 233.145 180.834 233.616 181.513H233.634Z" fill="#F8C600"/>
<path d="M172.44 152.211C171.643 157.607 163.269 162.639 153.898 163.334C153.663 158.633 164.103 152.36 172.44 152.211Z" fill="#F8C600"/>
<path d="M230.656 150.887C230.693 156.084 220.851 161.944 212.531 161.712C212.803 157.028 221.811 151.648 230.656 150.887Z" fill="#F8C600"/>
<path d="M228.123 170.418C225.241 172.222 223.247 174.423 221.326 174.374C219.713 174.324 216.759 171.427 216.976 170.186C217.284 168.431 219.985 165.865 221.707 165.832C223.519 165.799 225.404 168.332 228.123 170.418Z" fill="#F8C600"/>
<g filter="url(#filter1_d_2953_13181)">
<circle cx="155" cy="64" r="64" fill="url(#paint0_radial_2953_13181)"/>
<g filter="url(#filter2_d_2953_13181)">
<path d="M192.618 45.0966V97.5462C192.618 101.108 189.727 103.996 186.161 103.996H122.457C118.891 103.996 116 101.108 116 97.5462V45.0966L118.058 43.0001H190.277L192.618 45.0966Z" fill="white"/>
<path d="M192.922 33.4646V44.8409H116.305V33.4646C116.305 29.8879 119.173 26.9883 122.71 26.9883H186.517C190.054 26.9883 192.922 29.8879 192.922 33.4641L192.922 33.4646Z" fill="url(#paint1_linear_2953_13181)"/>
<path d="M129.127 36.3625C130.431 36.3625 131.488 35.3055 131.488 34.0016C131.488 32.6977 130.431 31.6406 129.127 31.6406C127.823 31.6406 126.766 32.6977 126.766 34.0016C126.766 35.3055 127.823 36.3625 129.127 36.3625Z" fill="url(#paint2_radial_2953_13181)"/>
<path d="M129.13 23.8164H129.129C128.342 23.8164 127.703 24.4548 127.703 25.2422V33.1849C127.703 33.9723 128.342 34.6107 129.129 34.6107H129.13C129.917 34.6107 130.556 33.9723 130.556 33.1849V25.2422C130.556 24.4548 129.917 23.8164 129.13 23.8164Z" fill="url(#paint3_linear_2953_13181)"/>
<path d="M146.096 36.3625C147.399 36.3625 148.457 35.3055 148.457 34.0016C148.457 32.6977 147.399 31.6406 146.096 31.6406C144.792 31.6406 143.735 32.6977 143.735 34.0016C143.735 35.3055 144.792 36.3625 146.096 36.3625Z" fill="url(#paint4_radial_2953_13181)"/>
<path d="M146.098 23.8164H146.098C145.31 23.8164 144.672 24.4548 144.672 25.2422V33.1849C144.672 33.9723 145.31 34.6107 146.098 34.6107H146.098C146.886 34.6107 147.524 33.9723 147.524 33.1849V25.2422C147.524 24.4548 146.886 23.8164 146.098 23.8164Z" fill="url(#paint5_linear_2953_13181)"/>
<path d="M163.06 36.3625C164.364 36.3625 165.421 35.3055 165.421 34.0016C165.421 32.6977 164.364 31.6406 163.06 31.6406C161.756 31.6406 160.699 32.6977 160.699 34.0016C160.699 35.3055 161.756 36.3625 163.06 36.3625Z" fill="url(#paint6_radial_2953_13181)"/>
<path d="M163.063 23.8164H163.063C162.275 23.8164 161.637 24.4548 161.637 25.2422V33.1849C161.637 33.9723 162.275 34.6107 163.063 34.6107H163.063C163.851 34.6107 164.489 33.9723 164.489 33.1849V25.2422C164.489 24.4548 163.851 23.8164 163.063 23.8164Z" fill="url(#paint7_linear_2953_13181)"/>
<path d="M180.037 36.3625C181.341 36.3625 182.398 35.3055 182.398 34.0016C182.398 32.6977 181.341 31.6406 180.037 31.6406C178.733 31.6406 177.676 32.6977 177.676 34.0016C177.676 35.3055 178.733 36.3625 180.037 36.3625Z" fill="url(#paint8_radial_2953_13181)"/>
<path d="M180.04 23.8164H180.039C179.252 23.8164 178.614 24.4548 178.614 25.2422V33.1849C178.614 33.9723 179.252 34.6107 180.039 34.6107H180.04C180.827 34.6107 181.466 33.9723 181.466 33.1849V25.2422C181.466 24.4548 180.827 23.8164 180.04 23.8164Z" fill="url(#paint9_linear_2953_13181)"/>
</g>
<path d="M144.488 64.008C144.656 63.96 144.812 63.924 144.956 63.9C145.1 63.852 145.244 63.816 145.388 63.792C145.556 63.744 145.76 63.72 146 63.72C146.264 63.696 146.504 63.708 146.72 63.756C146.96 63.78 147.176 63.852 147.368 63.972C147.584 64.068 147.74 64.224 147.836 64.44C147.932 64.68 147.992 64.968 148.016 65.304C148.064 65.616 148.088 65.94 148.088 66.276C148.088 66.612 148.076 66.948 148.052 67.284C148.052 67.596 148.052 67.884 148.052 68.148V86.544C148.052 86.808 148.052 87.084 148.052 87.372C148.076 87.636 148.076 87.912 148.052 88.2C148.028 88.488 147.956 88.764 147.836 89.028C147.716 89.268 147.536 89.472 147.296 89.64C146.96 89.904 146.504 90.036 145.928 90.036C145.376 90.06 144.896 90 144.488 89.856C144.056 89.712 143.792 89.436 143.696 89.028C143.624 88.62 143.588 88.212 143.588 87.804C143.42 84.636 143.336 81.54 143.336 78.516C143.36 75.468 143.372 72.336 143.372 69.12C143.324 69.24 143.156 69.348 142.868 69.444C142.604 69.54 142.292 69.624 141.932 69.696C141.596 69.768 141.272 69.828 140.96 69.876C140.648 69.924 140.444 69.948 140.348 69.948C139.724 70.02 139.148 69.96 138.62 69.768C138.116 69.552 137.828 69.072 137.756 68.328C137.66 67.56 137.828 66.96 138.26 66.528C138.716 66.096 139.292 65.772 139.988 65.556C140.756 65.292 141.5 65.028 142.22 64.764C142.964 64.476 143.72 64.224 144.488 64.008ZM162.853 89.892C162.421 89.892 161.977 89.868 161.521 89.82C161.089 89.748 160.657 89.628 160.225 89.46C159.577 89.196 158.953 88.848 158.353 88.416C157.777 87.96 157.249 87.456 156.769 86.904C155.617 85.608 154.741 84.084 154.141 82.332C153.541 80.556 153.241 78.756 153.241 76.932C153.241 74.436 153.721 72.024 154.681 69.696C154.849 69.288 155.065 68.856 155.329 68.4C155.617 67.944 155.929 67.512 156.265 67.104C156.625 66.672 156.985 66.288 157.345 65.952C157.729 65.616 158.113 65.364 158.497 65.196C159.025 64.956 159.601 64.716 160.225 64.476C160.993 64.236 161.857 64.128 162.817 64.152C163.777 64.176 164.653 64.284 165.445 64.476C166.549 64.74 167.497 65.22 168.289 65.916C169.081 66.588 169.753 67.404 170.305 68.364C170.857 69.3 171.289 70.332 171.601 71.46C171.913 72.564 172.141 73.692 172.285 74.844C172.381 75.612 172.417 76.38 172.393 77.148C172.369 77.892 172.309 78.648 172.213 79.416C172.117 80.112 171.997 80.808 171.853 81.504C171.733 82.2 171.565 82.872 171.349 83.52C171.133 84.168 170.857 84.792 170.521 85.392C170.185 85.968 169.765 86.508 169.261 87.012C168.349 87.9 167.353 88.596 166.273 89.1C165.217 89.58 164.077 89.844 162.853 89.892ZM162.817 68.904C162.481 68.904 162.145 68.94 161.809 69.012C161.497 69.06 161.197 69.18 160.909 69.372C160.573 69.588 160.273 69.852 160.009 70.164C159.745 70.476 159.517 70.8 159.325 71.136C158.821 72 158.473 72.924 158.281 73.908C158.089 74.892 157.993 75.888 157.993 76.896C157.993 77.928 158.101 78.996 158.317 80.1C158.557 81.204 158.977 82.212 159.577 83.124C159.865 83.556 160.201 83.94 160.585 84.276C160.993 84.588 161.461 84.816 161.989 84.96C162.469 85.08 162.949 85.116 163.429 85.068C163.933 85.02 164.401 84.864 164.833 84.6C165.529 84.168 166.081 83.592 166.489 82.872C166.897 82.152 167.197 81.372 167.389 80.532C167.605 79.692 167.725 78.828 167.749 77.94C167.797 77.052 167.797 76.248 167.749 75.528C167.701 74.808 167.581 74.052 167.389 73.26C167.197 72.468 166.909 71.748 166.525 71.1C166.165 70.452 165.673 69.924 165.049 69.516C164.449 69.084 163.705 68.88 162.817 68.904Z" fill="black"/>
</g>
<line x1="70.5862" y1="303.5" x2="1.99998" y2="303.5" stroke="url(#paint10_linear_2953_13181)"/>
<line y1="-0.5" x2="68.5862" y2="-0.5" transform="matrix(1 -8.74228e-08 -8.74228e-08 -1 239 303)" stroke="url(#paint11_linear_2953_13181)"/>
<rect x="64.2542" y="300.863" width="182.545" height="5.27586" rx="2.63793" fill="url(#paint12_radial_2953_13181)"/>
</g>
<defs>
<filter id="filter0_d_2953_13181" x="0" y="0" width="310" height="367" filterUnits="userSpaceOnUse" color-interpolation-filters="sRGB">
<feFlood flood-opacity="0" result="BackgroundImageFix"/>
<feColorMatrix in="SourceAlpha" type="matrix" values="0 0 0 0 0 0 0 0 0 0 0 0 0 0 0 0 0 0 127 0" result="hardAlpha"/>
<feOffset dy="2"/>
<feGaussianBlur stdDeviation="1"/>
<feComposite in2="hardAlpha" operator="out"/>
<feColorMatrix type="matrix" values="0 0 0 0 0 0 0 0 0 0 0 0 0 0 0 0 0 0 0.25 0"/>
<feBlend mode="normal" in2="BackgroundImageFix" result="effect1_dropShadow_2953_13181"/>
<feBlend mode="normal" in="SourceGraphic" in2="effect1_dropShadow_2953_13181" result="shape"/>
</filter>
<filter id="filter1_d_2953_13181" x="89.0002" y="0" width="132" height="132" filterUnits="userSpaceOnUse" color-interpolation-filters="sRGB">
<feFlood flood-opacity="0" result="BackgroundImageFix"/>
<feColorMatrix in="SourceAlpha" type="matrix" values="0 0 0 0 0 0 0 0 0 0 0 0 0 0 0 0 0 0 127 0" result="hardAlpha"/>
<feOffset dy="2"/>
<feGaussianBlur stdDeviation="1"/>
<feComposite in2="hardAlpha" operator="out"/>
<feColorMatrix type="matrix" values="0 0 0 0 0 0 0 0 0 0 0 0 0 0 0 0 0 0 0.25 0"/>
<feBlend mode="normal" in2="BackgroundImageFix" result="effect1_dropShadow_2953_13181"/>
<feBlend mode="normal" in="SourceGraphic" in2="effect1_dropShadow_2953_13181" result="shape"/>
</filter>
<filter id="filter2_d_2953_13181" x="114" y="23.8164" width="80.9221" height="84.1801" filterUnits="userSpaceOnUse" color-interpolation-filters="sRGB">
<feFlood flood-opacity="0" result="BackgroundImageFix"/>
<feColorMatrix in="SourceAlpha" type="matrix" values="0 0 0 0 0 0 0 0 0 0 0 0 0 0 0 0 0 0 127 0" result="hardAlpha"/>
<feOffset dy="2"/>
<feGaussianBlur stdDeviation="1"/>
<feComposite in2="hardAlpha" operator="out"/>
<feColorMatrix type="matrix" values="0 0 0 0 0 0 0 0 0 0 0 0 0 0 0 0 0 0 0.25 0"/>
<feBlend mode="normal" in2="BackgroundImageFix" result="effect1_dropShadow_2953_13181"/>
<feBlend mode="normal" in="SourceGraphic" in2="effect1_dropShadow_2953_13181" result="shape"/>
</filter>
<radialGradient id="paint0_radial_2953_13181" cx="0" cy="0" r="1" gradientUnits="userSpaceOnUse" gradientTransform="translate(155 64) rotate(91.0912) scale(78.1537)">
<stop stop-color="white"/>
<stop offset="1" stop-color="#FFDB55"/>
</radialGradient>
<linearGradient id="paint1_linear_2953_13181" x1="154.613" y1="28.0407" x2="154.613" y2="44.7583" gradientUnits="userSpaceOnUse">
<stop stop-color="#E85F43"/>
<stop offset="1" stop-color="#E83636"/>
</linearGradient>
<radialGradient id="paint2_radial_2953_13181" cx="0" cy="0" r="1" gradientUnits="userSpaceOnUse" gradientTransform="translate(129.127 34.0016) scale(2.36095)">
<stop stop-color="#8C1F1F"/>
<stop offset="0.84" stop-color="#450F0F"/>
<stop offset="1" stop-color="#2B0808"/>
</radialGradient>
<linearGradient id="paint3_linear_2953_13181" x1="127.703" y1="29.2136" x2="130.555" y2="29.2136" gradientUnits="userSpaceOnUse">
<stop stop-color="#4F4F4F"/>
<stop offset="0.29" stop-color="#BDBDBD"/>
<stop offset="0.62" stop-color="#BDBDBD"/>
<stop offset="1" stop-color="#4F4F4F"/>
</linearGradient>
<radialGradient id="paint4_radial_2953_13181" cx="0" cy="0" r="1" gradientUnits="userSpaceOnUse" gradientTransform="translate(146.096 23.8395) scale(0.0241505)">
<stop stop-color="#8C1F1F"/>
<stop offset="0.84" stop-color="#450F0F"/>
<stop offset="1" stop-color="#2B0808"/>
</radialGradient>
<linearGradient id="paint5_linear_2953_13181" x1="144.672" y1="23.8164" x2="147.524" y2="23.8164" gradientUnits="userSpaceOnUse">
<stop stop-color="#4F4F4F"/>
<stop offset="0.29" stop-color="#BDBDBD"/>
<stop offset="0.62" stop-color="#BDBDBD"/>
<stop offset="1" stop-color="#4F4F4F"/>
</linearGradient>
<radialGradient id="paint6_radial_2953_13181" cx="0" cy="0" r="1" gradientUnits="userSpaceOnUse" gradientTransform="translate(163.06 23.8395) scale(2.36095)">
<stop stop-color="#8C1F1F"/>
<stop offset="0.84" stop-color="#450F0F"/>
<stop offset="1" stop-color="#2B0808"/>
</radialGradient>
<linearGradient id="paint7_linear_2953_13181" x1="161.637" y1="23.8164" x2="164.489" y2="23.8164" gradientUnits="userSpaceOnUse">
<stop stop-color="#4F4F4F"/>
<stop offset="0.29" stop-color="#BDBDBD"/>
<stop offset="0.62" stop-color="#BDBDBD"/>
<stop offset="1" stop-color="#4F4F4F"/>
</linearGradient>
<radialGradient id="paint8_radial_2953_13181" cx="0" cy="0" r="1" gradientUnits="userSpaceOnUse" gradientTransform="translate(180.037 23.8395) scale(0.0241505)">
<stop stop-color="#8C1F1F"/>
<stop offset="0.84" stop-color="#450F0F"/>
<stop offset="1" stop-color="#2B0808"/>
</radialGradient>
<linearGradient id="paint9_linear_2953_13181" x1="178.614" y1="23.8164" x2="181.466" y2="23.8164" gradientUnits="userSpaceOnUse">
<stop stop-color="#4F4F4F"/>
<stop offset="0.29" stop-color="#BDBDBD"/>
<stop offset="0.62" stop-color="#BDBDBD"/>
<stop offset="1" stop-color="#4F4F4F"/>
</linearGradient>
<linearGradient id="paint10_linear_2953_13181" x1="70.5862" y1="302.5" x2="-4.85864" y2="302.5" gradientUnits="userSpaceOnUse">
<stop stop-color="#F9CC1A"/>
<stop offset="0.795" stop-color="#FFF5CF"/>
</linearGradient>
<linearGradient id="paint11_linear_2953_13181" x1="0" y1="0.499999" x2="75.4448" y2="0.499992" gradientUnits="userSpaceOnUse">
<stop stop-color="#F9CC1A"/>
<stop offset="0.795" stop-color="#FFF5CF"/>
</linearGradient>
<radialGradient id="paint12_radial_2953_13181" cx="0" cy="0" r="1" gradientUnits="userSpaceOnUse" gradientTransform="translate(155.527 303.501) scale(91.2724 2.63793)">
<stop stop-color="#FFF5CF"/>
<stop offset="1" stop-color="#F8C600"/>
</radialGradient>
</defs>
</svg>
