<svg width="92" height="70" viewBox="0 0 92 70" fill="none" xmlns="http://www.w3.org/2000/svg">
<path d="M5.50565 -0.000173418L63.7286 -0.000168328C66.7568 -0.000168063 69.2344 2.47744 69.2344 5.50563L69.2344 63.7286C69.2344 66.7568 66.7568 69.2344 63.7286 69.2344L5.50564 69.2344C2.47745 69.2344 -0.000160001 66.7568 -0.000159736 63.7286L-0.000154646 5.50563C-0.000154381 2.47743 2.47745 -0.000173683 5.50565 -0.000173418Z" fill="#FFBBD9"/>
<path d="M28.2044 -0.000173418L86.4273 -0.000168328C89.4555 -0.000168063 91.9331 2.47745 91.9331 5.50563L91.9331 63.7286C91.9331 66.7568 89.4555 69.2344 86.4273 69.2344L28.2044 69.2344C25.1762 69.2344 22.6986 66.7568 22.6986 63.7286L22.6986 5.50563C22.6986 2.47744 25.1762 -0.000173683 28.2044 -0.000173418Z" fill="#F33287"/>
<path d="M10.1258 5.69556L12.6309 5.69556C15.6591 5.69556 18.1367 8.17318 18.1367 11.2014L18.1367 58.0333C18.1367 61.0615 15.6591 63.5391 12.6309 63.5391L10.1258 63.5391C7.09759 63.5391 4.61998 61.0615 4.61998 58.0333L4.61998 11.2014C4.61998 8.17317 7.0976 5.69556 10.1258 5.69556Z" fill="#F33287"/>
<path d="M33.905 5.70044L80.7369 5.70045C83.7651 5.70045 86.2427 8.17805 86.2427 11.2062L86.2427 58.0381C86.2427 61.0663 83.7651 63.5439 80.7369 63.5439L33.905 63.5439C30.8768 63.5439 28.3992 61.0663 28.3992 58.0381L28.3992 11.2062C28.3992 8.17805 30.8768 5.70044 33.905 5.70044Z" fill="#FFBBD9"/>
<path d="M55.8673 14.2382C56.0207 14.0222 56.2507 13.9436 56.5382 14.0418C57.6117 14.4345 58.5702 15.0236 59.4136 15.7698C59.6245 16.0055 59.6628 16.2411 59.5286 16.4964L57.65 19.5401C57.4392 19.815 57.2092 19.8347 56.9408 19.6187C56.6724 19.4027 55.7331 18.7939 54.1037 17.7924C53.8354 17.6157 53.797 17.3997 53.9696 17.1248L55.8673 14.2382ZM59.797 26.2756C59.9695 25.549 60.4871 25.7061 61.3305 26.7468C62.174 27.7876 62.8833 29.2997 63.4392 31.3026C64.666 35.7995 63.88 39.9232 61.0813 43.6542C59.4711 45.8143 57.4775 47.2085 55.1197 47.8369C54.2379 48.0725 53.4903 48.0529 52.8961 47.7779C50.5766 46.7568 48.7747 45.9125 47.5095 45.2644C47.0494 45.0288 46.9153 44.7735 47.0495 44.4397C47.2028 44.1255 47.4903 44.0273 47.9121 44.1648C49.6373 44.695 51.0367 44.8324 52.1676 44.5772C53.2795 44.3022 54.7172 43.6149 56.4999 42.5153C59.567 40.6105 61.4456 38.745 62.1165 36.9188C62.1357 36.8402 62.1548 36.7617 62.1548 36.7028C61.9056 35.446 60.7938 33.7572 58.8002 31.6168C58.6085 31.4008 58.551 31.1455 58.6277 30.8313L59.797 26.2756Z" fill="#F33287"/>
</svg>
