<svg width="92" height="69" viewBox="0 0 92 69" fill="none" xmlns="http://www.w3.org/2000/svg">
<path d="M5.86558 -5.55247e-06L63.8913 -4.79702e-07C66.9092 -2.15866e-07 69.3784 2.46922 69.3784 5.48715L69.3784 63.5129C69.3784 66.5308 66.9092 69 63.8913 69L5.86557 69C2.84764 69 0.378426 66.5308 0.378426 63.5128L0.378431 5.48715C0.378431 2.46921 2.84765 -5.81631e-06 5.86558 -5.55247e-06Z" fill="#B2DF8A"/>
<path d="M28.4872 -5.55247e-06L86.5129 -4.79702e-07C89.5308 -2.15866e-07 92 2.46922 92 5.48715L92 63.5129C92 66.5308 89.5308 69 86.5129 69L28.4872 69C25.4692 69 23 66.5308 23 63.5128L23 5.48715C23 2.46921 25.4692 -5.81631e-06 28.4872 -5.55247e-06Z" fill="#33A02B"/>
<path d="M10.4699 5.67667L12.9665 5.67667C15.9844 5.67667 18.4536 8.14589 18.4536 11.1638L18.4536 57.8371C18.4536 60.855 15.9844 63.3242 12.9665 63.3242L10.4698 63.3242C7.45191 63.3242 4.9827 60.855 4.9827 57.8371L4.9827 11.1638C4.9827 8.14589 7.45192 5.67667 10.4699 5.67667Z" fill="#33A02B"/>
<path d="M34.8397 6.35245L81.5129 6.35245C84.5309 6.35245 87.0001 8.82167 87.0001 11.8396L87.0001 58.5129C87.0001 61.5308 84.5308 64 81.5129 64L34.8397 64C31.8217 64 29.3525 61.5308 29.3525 58.5128L29.3525 11.8396C29.3525 8.82167 31.8217 6.35245 34.8397 6.35245Z" fill="#B2DF8A"/>
<path d="M57.935 53.0366C57.0827 54.6141 56.5255 54.2543 56.2632 51.9573L54.7553 38.9222C53.5097 27.1879 53.8047 19.8262 55.6404 16.8373C56.0665 16.1731 56.4599 15.8963 56.8533 16.0347C57.2467 16.1454 57.4106 17.0034 57.3778 18.6085C57.3122 21.3484 58.0661 27.5477 59.6068 37.1787L60.9508 46.0624C61.082 46.8373 60.9508 47.5569 60.5574 48.2488L57.935 53.0366Z" fill="#33A02B"/>
</svg>
