<svg width="176" height="27" viewBox="0 0 176 27" fill="none" xmlns="http://www.w3.org/2000/svg">
<mask id="path-1-outside-1_2893_17377" maskUnits="userSpaceOnUse" x="3" y="-2" width="176" height="31" fill="black">
<rect fill="white" x="3" y="-2" width="176" height="31"/>
<path d="M14.8524 17.064C15.1724 15.624 15.0444 13.992 13.9884 13.992C11.4284 13.992 10.4684 21.16 15.2364 21.16C17.7004 21.16 19.9404 19.688 22.1804 15.784C23.3644 16.072 25.5084 16.68 27.1404 17.16C25.2844 20.904 21.7004 25.672 14.2444 25.672C0.00437498 25.672 4.58038 3.336 17.2524 3.336C21.8604 3.336 23.9724 6.984 24.4204 9.864C21.2524 12.232 18.0204 14.696 14.8524 17.064ZM40.2694 3.112C51.7574 3.112 53.1014 26.44 37.0694 26.44C25.0374 26.44 26.9894 3.112 40.2694 3.112ZM40.5574 10.76C35.6294 10.76 32.6534 21.416 38.1894 21.416C43.8854 21.416 45.3894 10.76 40.5574 10.76ZM50.9131 12.104V3.496L60.3531 3.848C60.2891 8.232 59.5531 18.76 63.0411 18.76C66.5611 18.76 66.2731 9.288 65.9531 3.56L70.6571 3.176C71.0411 10.44 73.1531 25.64 60.7691 25.64C52.7051 25.64 52.2891 17.256 52.6731 12.296L50.9131 12.104ZM86.5116 25L81.1996 16.968L80.7516 25H73.3276L74.1916 12.104L72.9756 12.008V5.736L81.9996 3.112L87.1196 14.824L88.2396 3.336L95.0236 3.336L94.3516 25H86.5116ZM100.944 25L102.576 12.424L96.9444 12.2L97.5844 4.008L114.288 3.112L115.472 12.968L109.552 12.712L111.408 25L100.944 25ZM117.382 16.2L117.734 9.8L126.598 10.184L127.974 25L117.638 25L119.078 16.008L117.382 16.2ZM118.758 4.328C118.758 2.184 120.486 0.455999 122.63 0.455999C124.774 0.455999 126.502 2.184 126.502 4.328C126.502 6.472 124.774 8.2 122.63 8.2C120.486 8.2 118.758 6.472 118.758 4.328ZM143.418 25L138.106 16.968L137.658 25H130.234L131.098 12.104L129.882 12.008V5.736L138.906 3.112L144.026 14.824L145.146 3.336L151.93 3.336L151.258 25L143.418 25ZM168.891 12.232C168.315 11.112 167.675 10.568 166.587 10.568C161.723 10.568 158.235 21.288 163.771 21.288C165.755 21.288 167.771 20.008 168.955 18.568C167.771 18.088 166.523 17.64 165.339 17.16C166.203 15.816 167.131 14.472 167.995 13.128C170.651 14.344 172.891 15.08 175.547 16.296C173.243 22.12 169.307 25.544 163.419 25.512C147.547 25.416 153.595 3.272 165.979 3.272C170.843 3.272 172.443 7.08 173.083 9.576C171.707 10.44 170.267 11.368 168.891 12.232Z"/>
</mask>
<path d="M14.8524 17.064C15.1724 15.624 15.0444 13.992 13.9884 13.992C11.4284 13.992 10.4684 21.16 15.2364 21.16C17.7004 21.16 19.9404 19.688 22.1804 15.784C23.3644 16.072 25.5084 16.68 27.1404 17.16C25.2844 20.904 21.7004 25.672 14.2444 25.672C0.00437498 25.672 4.58038 3.336 17.2524 3.336C21.8604 3.336 23.9724 6.984 24.4204 9.864C21.2524 12.232 18.0204 14.696 14.8524 17.064ZM40.2694 3.112C51.7574 3.112 53.1014 26.44 37.0694 26.44C25.0374 26.44 26.9894 3.112 40.2694 3.112ZM40.5574 10.76C35.6294 10.76 32.6534 21.416 38.1894 21.416C43.8854 21.416 45.3894 10.76 40.5574 10.76ZM50.9131 12.104V3.496L60.3531 3.848C60.2891 8.232 59.5531 18.76 63.0411 18.76C66.5611 18.76 66.2731 9.288 65.9531 3.56L70.6571 3.176C71.0411 10.44 73.1531 25.64 60.7691 25.64C52.7051 25.64 52.2891 17.256 52.6731 12.296L50.9131 12.104ZM86.5116 25L81.1996 16.968L80.7516 25H73.3276L74.1916 12.104L72.9756 12.008V5.736L81.9996 3.112L87.1196 14.824L88.2396 3.336L95.0236 3.336L94.3516 25H86.5116ZM100.944 25L102.576 12.424L96.9444 12.2L97.5844 4.008L114.288 3.112L115.472 12.968L109.552 12.712L111.408 25L100.944 25ZM117.382 16.2L117.734 9.8L126.598 10.184L127.974 25L117.638 25L119.078 16.008L117.382 16.2ZM118.758 4.328C118.758 2.184 120.486 0.455999 122.63 0.455999C124.774 0.455999 126.502 2.184 126.502 4.328C126.502 6.472 124.774 8.2 122.63 8.2C120.486 8.2 118.758 6.472 118.758 4.328ZM143.418 25L138.106 16.968L137.658 25H130.234L131.098 12.104L129.882 12.008V5.736L138.906 3.112L144.026 14.824L145.146 3.336L151.93 3.336L151.258 25L143.418 25ZM168.891 12.232C168.315 11.112 167.675 10.568 166.587 10.568C161.723 10.568 158.235 21.288 163.771 21.288C165.755 21.288 167.771 20.008 168.955 18.568C167.771 18.088 166.523 17.64 165.339 17.16C166.203 15.816 167.131 14.472 167.995 13.128C170.651 14.344 172.891 15.08 175.547 16.296C173.243 22.12 169.307 25.544 163.419 25.512C147.547 25.416 153.595 3.272 165.979 3.272C170.843 3.272 172.443 7.08 173.083 9.576C171.707 10.44 170.267 11.368 168.891 12.232Z" fill="#0A8F46"/>
<path d="M14.8524 17.064L12.9 16.6301L11.7301 21.8948L16.0498 18.6659L14.8524 17.064ZM22.1804 15.784L22.6531 13.8407L21.1933 13.4856L20.4456 14.7887L22.1804 15.784ZM27.1404 17.16L28.9323 18.0483L29.9905 15.9136L27.7047 15.2413L27.1404 17.16ZM24.4204 9.864L25.6178 11.4659L26.5816 10.7455L26.3966 9.55659L24.4204 9.864ZM16.8047 17.4979C17.0001 16.6186 17.0971 15.5416 16.8933 14.5753C16.7912 14.0909 16.5796 13.4722 16.1108 12.9432C15.586 12.3509 14.8401 11.992 13.9884 11.992L13.9884 15.992C13.8561 15.992 13.6877 15.9649 13.5114 15.8844C13.3363 15.8045 13.2055 15.6958 13.1169 15.5958C12.9591 15.4178 12.9576 15.2971 12.9794 15.4007C12.9972 15.4848 13.014 15.6463 13.003 15.8838C12.9923 16.114 12.9574 16.3716 12.9 16.6301L16.8047 17.4979ZM13.9884 11.992C12.3118 11.992 11.2316 13.1617 10.687 14.1364C10.1163 15.1577 9.8406 16.4128 9.86478 17.6162C9.88894 18.8187 10.2194 20.1844 11.1114 21.2935C12.0583 22.4707 13.4827 23.16 15.2364 23.16V19.16C14.6061 19.16 14.3624 18.9533 14.2283 18.7865C14.0394 18.5516 13.8758 18.1253 13.864 17.5358C13.8521 16.9472 13.9985 16.4103 14.1788 16.0876C14.3851 15.7183 14.3849 15.992 13.9884 15.992L13.9884 11.992ZM15.2364 23.16C18.7372 23.16 21.5134 20.9651 23.9151 16.7793L20.4456 14.7887C18.3673 18.4109 16.6636 19.16 15.2364 19.16V23.16ZM21.7077 17.7273C22.8405 18.0029 24.9434 18.5985 26.576 19.0787L27.7047 15.2413C26.0734 14.7615 23.8883 14.1411 22.6531 13.8407L21.7077 17.7273ZM25.3485 16.2717C23.6421 19.714 20.5936 23.672 14.2444 23.672L14.2444 27.672C22.8072 27.672 26.9267 22.094 28.9323 18.0483L25.3485 16.2717ZM14.2444 23.672C11.2698 23.672 9.55631 22.5451 8.59649 21.084C7.57428 19.5278 7.21243 17.2875 7.62816 14.8388C8.48117 9.8143 12.2497 5.336 17.2524 5.336V1.336C9.58303 1.336 4.72758 8.0257 3.68459 14.1692C3.15232 17.3045 3.52447 20.6482 5.25326 23.28C7.04444 26.0069 10.0989 27.672 14.2444 27.672L14.2444 23.672ZM17.2524 5.336C20.4742 5.336 22.0766 7.80861 22.4441 10.1714L26.3966 9.55659C25.8682 6.15939 23.2466 1.336 17.2524 1.336V5.336ZM23.223 8.26206C21.6345 9.44943 20.0306 10.6604 18.4313 11.8678C16.8306 13.0764 15.2345 14.2814 13.655 15.4621L16.0498 18.6659C17.6383 17.4786 19.2422 16.2676 20.8415 15.0602C22.4422 13.8516 24.0383 12.6466 25.6178 11.4659L23.223 8.26206ZM40.2694 5.112C42.3713 5.112 44.0337 6.14665 45.2179 7.8836C46.4317 9.66407 47.0926 12.1417 46.991 14.6965C46.8896 17.2435 46.0387 19.6875 44.4553 21.4644C42.9112 23.197 40.5464 24.44 37.0694 24.44V28.44C41.6083 28.44 45.0875 26.767 47.4415 24.1256C49.756 21.5285 50.8571 18.1405 50.9878 14.8555C51.1182 11.5783 50.291 8.22393 48.5229 5.6304C46.7251 2.99335 43.9114 1.112 40.2694 1.112V5.112ZM37.0694 24.44C34.8258 24.44 33.3169 23.4061 32.3446 21.7722C31.3194 20.0495 30.878 17.5971 31.1653 14.9955C31.7542 9.66211 35.0943 5.112 40.2694 5.112V1.112C32.1645 1.112 27.8885 8.22589 27.1895 14.5565C26.8327 17.7869 27.3294 21.1665 28.9072 23.8178C30.5379 26.5579 33.2969 28.44 37.0694 28.44V24.44ZM40.5574 8.76C38.5637 8.76 36.9513 9.83696 35.8332 11.0984C34.7085 12.3672 33.9114 13.9985 33.5094 15.6016C33.1163 17.1692 33.0353 18.9848 33.6888 20.53C34.0283 21.3327 34.5784 22.0832 35.3932 22.6243C36.2097 23.1664 37.1681 23.416 38.1894 23.416L38.1894 19.416C37.8267 19.416 37.6671 19.3326 37.6059 19.292C37.5431 19.2503 37.4559 19.1683 37.3729 18.972C37.1814 18.5192 37.1144 17.6708 37.3893 16.5744C37.6554 15.5135 38.1803 14.4808 38.8266 13.7516C39.4795 13.015 40.0871 12.76 40.5574 12.76V8.76ZM38.1894 23.416C40.3042 23.416 41.9857 22.4069 43.1527 21.0615C44.2955 19.744 44.9953 18.0629 45.2892 16.4455C45.5793 14.8488 45.5145 13.0794 44.8508 11.6043C44.1371 10.0182 42.6863 8.76 40.5574 8.76V12.76C40.8445 12.76 41.0177 12.8338 41.203 13.2457C41.4383 13.7686 41.5475 14.6632 41.3536 15.7305C41.1634 16.7771 40.7213 17.76 40.131 18.4405C39.5651 19.0931 38.9226 19.416 38.1894 19.416L38.1894 23.416ZM50.9131 12.104H48.9131V13.8977L50.6962 14.0922L50.9131 12.104ZM50.9131 3.496L50.9876 1.49739L48.9131 1.42003V3.496H50.9131ZM60.3531 3.848L62.3529 3.87719L62.3815 1.92224L60.4277 1.84939L60.3531 3.848ZM65.9531 3.56L65.7904 1.56663L63.8475 1.72523L63.9562 3.67156L65.9531 3.56ZM70.6571 3.176L72.6543 3.07042L72.5457 1.01518L70.4944 1.18263L70.6571 3.176ZM52.6731 12.296L54.6672 12.4504L54.8168 10.518L52.89 10.3078L52.6731 12.296ZM52.9131 12.104V3.496L48.9131 3.496V12.104H52.9131ZM50.8386 5.49461L60.2786 5.84661L60.4277 1.84939L50.9876 1.49739L50.8386 5.49461ZM58.3533 3.81881C58.3231 5.88886 58.1177 9.79971 58.371 13.101C58.4969 14.7426 58.7469 16.4419 59.2826 17.7867C59.7916 19.0642 60.8941 20.76 63.0411 20.76V16.76C63.4442 16.76 63.3307 17.1398 62.9986 16.3063C62.6934 15.5401 62.4773 14.3334 62.3593 12.795C62.1246 9.73629 62.3191 6.19114 62.3529 3.87719L58.3533 3.81881ZM63.0411 20.76C65.0467 20.76 66.2237 19.3344 66.8336 18.0466C67.4423 16.7615 67.7546 15.1303 67.9259 13.5195C68.2731 10.2551 68.1097 6.30609 67.95 3.44844L63.9562 3.67156C64.1166 6.54191 64.2571 10.1929 63.9483 13.0965C63.7917 14.5697 63.5359 15.6645 63.2186 16.3344C62.9026 17.0016 62.7955 16.76 63.0411 16.76V20.76ZM66.1158 5.55337L70.8198 5.16937L70.4944 1.18263L65.7904 1.56663L66.1158 5.55337ZM68.6599 3.28158C68.8624 7.11142 69.4467 12.3477 68.5424 16.7276C68.0992 18.8743 67.3356 20.5793 66.178 21.7377C65.0716 22.8449 63.4193 23.64 60.7691 23.64V27.64C64.3109 27.64 67.0387 26.5351 69.0073 24.5653C70.9246 22.6467 71.931 20.0977 72.4598 17.5364C73.4995 12.5003 72.8359 6.50458 72.6543 3.07042L68.6599 3.28158ZM60.7691 23.64C59.1173 23.64 58.0122 23.2178 57.2377 22.6448C56.4471 22.0597 55.8482 21.2033 55.4153 20.0985C54.5228 17.8202 54.4805 14.8615 54.6672 12.4504L50.6791 12.1416C50.4818 14.6905 50.4554 18.4038 51.6909 21.5575C52.3221 23.1687 53.3152 24.7183 54.8585 25.8602C56.418 27.0142 58.389 27.64 60.7691 27.64V23.64ZM52.89 10.3078L51.13 10.1158L50.6962 14.0922L52.4562 14.2842L52.89 10.3078ZM86.5116 25L84.8434 26.1033L85.4365 27H86.5116V25ZM81.1996 16.968L82.8678 15.8647L79.5388 10.8311L79.2027 16.8566L81.1996 16.968ZM80.7516 25V27L82.6432 27L82.7485 25.1114L80.7516 25ZM73.3276 25L71.3321 24.8663L71.1891 27H73.3276V25ZM74.1916 12.104L76.1871 12.2377L76.3193 10.2657L74.349 10.1102L74.1916 12.104ZM72.9756 12.008H70.9756V13.8563L72.8182 14.0018L72.9756 12.008ZM72.9756 5.736L72.4172 3.81554L70.9756 4.23472V5.736H72.9756ZM81.9996 3.112L83.8322 2.31089L83.1284 0.700946L81.4412 1.19154L81.9996 3.112ZM87.1196 14.824L85.2871 15.6251L88.3647 22.6651L89.1102 15.0181L87.1196 14.824ZM88.2396 3.336V1.336L86.4251 1.336L86.2491 3.14193L88.2396 3.336ZM95.0236 3.336L97.0227 3.39801L97.0866 1.336L95.0236 1.336V3.336ZM94.3516 25V27H96.2906L96.3507 25.062L94.3516 25ZM88.1798 23.8967L82.8678 15.8647L79.5314 18.0713L84.8434 26.1033L88.1798 23.8967ZM79.2027 16.8566L78.7547 24.8886L82.7485 25.1114L83.1965 17.0794L79.2027 16.8566ZM80.7516 23H73.3276V27H80.7516V23ZM75.3232 25.1337L76.1871 12.2377L72.1961 11.9703L71.3321 24.8663L75.3232 25.1337ZM74.349 10.1102L73.133 10.0142L72.8182 14.0018L74.0342 14.0978L74.349 10.1102ZM74.9756 12.008V5.736L70.9756 5.736V12.008H74.9756ZM73.5341 7.65646L82.5581 5.03246L81.4412 1.19154L72.4172 3.81554L73.5341 7.65646ZM80.1671 3.91311L85.2871 15.6251L88.9522 14.0229L83.8322 2.31089L80.1671 3.91311ZM89.1102 15.0181L90.2302 3.53006L86.2491 3.14193L85.1291 14.6299L89.1102 15.0181ZM88.2396 5.336L95.0236 5.336V1.336L88.2396 1.336V5.336ZM93.0246 3.27399L92.3526 24.938L96.3507 25.062L97.0227 3.39801L93.0246 3.27399ZM94.3516 23H86.5116V27H94.3516V23ZM100.944 25L98.961 24.7426L98.6681 27H100.944V25ZM102.576 12.424L104.56 12.6814L104.841 10.5125L102.656 10.4256L102.576 12.424ZM96.9444 12.2L94.9504 12.0442L94.7886 14.1158L96.8649 14.1984L96.9444 12.2ZM97.5844 4.008L97.4772 2.01087L95.727 2.10476L95.5905 3.85222L97.5844 4.008ZM114.288 3.112L116.274 2.87345L116.051 1.01459L114.181 1.11487L114.288 3.112ZM115.472 12.968L115.386 14.9661L117.739 15.0679L117.458 12.7295L115.472 12.968ZM109.552 12.712L109.639 10.7139L107.212 10.6089L107.575 13.0107L109.552 12.712ZM111.408 25V27H113.733L113.386 24.7013L111.408 25ZM102.928 25.2574L104.56 12.6814L100.593 12.1666L98.961 24.7426L102.928 25.2574ZM102.656 10.4256L97.0239 10.2016L96.8649 14.1984L102.497 14.4224L102.656 10.4256ZM98.9383 12.3558L99.5783 4.16377L95.5905 3.85222L94.9504 12.0442L98.9383 12.3558ZM97.6915 6.00513L114.396 5.10913L114.181 1.11487L97.4772 2.01087L97.6915 6.00513ZM112.303 3.35054L113.487 13.2065L117.458 12.7295L116.274 2.87345L112.303 3.35054ZM115.559 10.9699L109.639 10.7139L109.466 14.7101L115.386 14.9661L115.559 10.9699ZM107.575 13.0107L109.431 25.2987L113.386 24.7013L111.53 12.4133L107.575 13.0107ZM111.408 23L100.944 23V27L111.408 27V23ZM117.382 16.2L115.385 16.0902L115.255 18.4536L117.607 18.1873L117.382 16.2ZM117.734 9.8L117.82 7.80187L115.845 7.71631L115.737 9.69017L117.734 9.8ZM126.598 10.184L128.589 9.99905L128.428 8.2614L126.684 8.18587L126.598 10.184ZM127.974 25V27H130.168L129.965 24.8151L127.974 25ZM117.638 25L115.663 24.6837L115.292 27H117.638V25ZM119.078 16.008L121.053 16.3243L121.469 13.7245L118.853 14.0207L119.078 16.008ZM119.379 16.3098L119.731 9.90983L115.737 9.69017L115.385 16.0902L119.379 16.3098ZM117.647 11.7981L126.511 12.1821L126.684 8.18587L117.82 7.80187L117.647 11.7981ZM124.606 10.3689L125.982 25.1849L129.965 24.8151L128.589 9.99905L124.606 10.3689ZM127.974 23L117.638 23V27L127.974 27V23ZM119.613 25.3163L121.053 16.3243L117.103 15.6917L115.663 24.6837L119.613 25.3163ZM118.853 14.0207L117.157 14.2127L117.607 18.1873L119.303 17.9953L118.853 14.0207ZM120.758 4.328C120.758 3.28857 121.59 2.456 122.63 2.456V-1.544C119.381 -1.544 116.758 1.07943 116.758 4.328L120.758 4.328ZM122.63 2.456C123.669 2.456 124.502 3.28857 124.502 4.328L128.502 4.328C128.502 1.07943 125.878 -1.544 122.63 -1.544V2.456ZM124.502 4.328C124.502 5.36743 123.669 6.2 122.63 6.2V10.2C125.878 10.2 128.502 7.57657 128.502 4.328L124.502 4.328ZM122.63 6.2C121.59 6.2 120.758 5.36743 120.758 4.328L116.758 4.328C116.758 7.57657 119.381 10.2 122.63 10.2V6.2ZM143.418 25L141.75 26.1033L142.343 27H143.418V25ZM138.106 16.968L139.774 15.8647L136.445 10.8311L136.109 16.8566L138.106 16.968ZM137.658 25V27H139.549L139.655 25.1114L137.658 25ZM130.234 25L128.238 24.8663L128.095 27H130.234V25ZM131.098 12.104L133.093 12.2377L133.226 10.2657L131.255 10.1102L131.098 12.104ZM129.882 12.008H127.882V13.8563L129.724 14.0018L129.882 12.008ZM129.882 5.736L129.323 3.81554L127.882 4.23472V5.736L129.882 5.736ZM138.906 3.112L140.738 2.31089L140.035 0.700946L138.347 1.19154L138.906 3.112ZM144.026 14.824L142.193 15.6251L145.271 22.6651L146.016 15.0181L144.026 14.824ZM145.146 3.336V1.336L143.331 1.336L143.155 3.14193L145.146 3.336ZM151.93 3.336L153.929 3.39801L153.993 1.336H151.93V3.336ZM151.258 25V27H153.197L153.257 25.062L151.258 25ZM145.086 23.8967L139.774 15.8647L136.438 18.0713L141.75 26.1033L145.086 23.8967ZM136.109 16.8566L135.661 24.8886L139.655 25.1114L140.103 17.0794L136.109 16.8566ZM137.658 23H130.234V27H137.658V23ZM132.229 25.1337L133.093 12.2377L129.102 11.9703L128.238 24.8663L132.229 25.1337ZM131.255 10.1102L130.039 10.0142L129.724 14.0018L130.94 14.0978L131.255 10.1102ZM131.882 12.008V5.736L127.882 5.736V12.008L131.882 12.008ZM130.44 7.65646L139.464 5.03246L138.347 1.19154L129.323 3.81554L130.44 7.65646ZM137.073 3.91311L142.193 15.6251L145.858 14.0229L140.738 2.31089L137.073 3.91311ZM146.016 15.0181L147.136 3.53006L143.155 3.14193L142.035 14.6299L146.016 15.0181ZM145.146 5.336L151.93 5.336V1.336L145.146 1.336V5.336ZM149.931 3.27399L149.259 24.938L153.257 25.062L153.929 3.39801L149.931 3.27399ZM151.258 23L143.418 23V27L151.258 27V23ZM168.891 12.232L167.112 13.1467L168.109 15.0846L169.954 13.9258L168.891 12.232ZM168.955 18.568L170.499 19.8382L172.227 17.7367L169.706 16.7145L168.955 18.568ZM165.339 17.16L163.656 16.0785L162.352 18.1073L164.587 19.0135L165.339 17.16ZM167.995 13.128L168.827 11.3095L167.25 10.5875L166.312 12.0465L167.995 13.128ZM175.547 16.296L177.406 17.0317L178.104 15.2674L176.379 14.4775L175.547 16.296ZM163.419 25.512L163.407 27.512L163.408 27.512L163.419 25.512ZM173.083 9.576L174.146 11.2698L175.383 10.4934L175.02 9.07925L173.083 9.576ZM170.669 11.3173C170.316 10.6308 169.843 9.91424 169.131 9.38C168.368 8.80775 167.498 8.568 166.587 8.568V12.568C166.691 12.568 166.733 12.5808 166.735 12.5816C166.737 12.5822 166.735 12.5816 166.731 12.5796C166.727 12.5776 166.726 12.5769 166.731 12.58C166.754 12.5978 166.889 12.7132 167.112 13.1467L170.669 11.3173ZM166.587 8.568C164.609 8.568 162.985 9.64927 161.844 10.889C160.689 12.1452 159.83 13.7652 159.36 15.3638C158.902 16.9205 158.731 18.7442 159.318 20.313C159.624 21.1326 160.151 21.9108 160.967 22.4737C161.783 23.0368 162.749 23.288 163.771 23.288V19.288C163.408 19.288 163.272 19.2042 163.238 19.1811C163.204 19.1577 163.134 19.0984 163.065 18.913C162.9 18.4718 162.867 17.6155 163.197 16.4922C163.515 15.4108 164.095 14.3508 164.788 13.597C165.497 12.8267 166.132 12.568 166.587 12.568V8.568ZM163.771 23.288C166.533 23.288 169.067 21.5801 170.499 19.8382L167.41 17.2978C166.474 18.4359 164.976 19.288 163.771 19.288V23.288ZM169.706 16.7145C169.092 16.4654 168.464 16.2261 167.86 15.9954C167.248 15.7621 166.66 15.5374 166.09 15.3065L164.587 19.0135C165.202 19.2626 165.829 19.5019 166.434 19.7326C167.045 19.9659 167.634 20.1906 168.203 20.4215L169.706 16.7145ZM167.021 18.2415C167.442 17.5859 167.881 16.9278 168.331 16.2534C168.777 15.5838 169.234 14.8979 169.677 14.2095L166.312 12.0465C165.891 12.7021 165.452 13.3602 165.003 14.0346C164.556 14.7042 164.099 15.3901 163.656 16.0785L167.021 18.2415ZM167.162 14.9465C168.542 15.5782 169.81 16.0834 171.03 16.5698C172.258 17.0594 173.438 17.5302 174.714 18.1145L176.379 14.4775C174.999 13.8458 173.731 13.3406 172.511 12.8542C171.283 12.3646 170.103 11.8938 168.827 11.3095L167.162 14.9465ZM173.687 15.5603C172.625 18.2455 171.245 20.226 169.59 21.5282C167.962 22.8089 165.954 23.5257 163.429 23.512L163.408 27.512C166.771 27.5303 169.675 26.5511 172.063 24.6718C174.424 22.814 176.165 20.1705 177.406 17.0317L173.687 15.5603ZM163.431 23.512C159.957 23.491 158.036 22.2926 157.016 20.8449C155.946 19.325 155.598 17.1476 156.066 14.7368C157.029 9.77011 161.068 5.272 165.979 5.272V1.272C158.505 1.272 153.328 7.84589 152.139 13.9752C151.531 17.1124 151.873 20.489 153.746 23.1481C155.669 25.8794 158.945 27.485 163.407 27.512L163.431 23.512ZM165.979 5.272C167.803 5.272 168.874 5.95071 169.599 6.79274C170.391 7.71331 170.855 8.93992 171.145 10.0728L175.02 9.07925C174.67 7.71608 174.014 5.79069 172.63 4.18326C171.179 2.49729 169.018 1.272 165.979 1.272V5.272ZM172.019 7.88222C171.325 8.31799 170.616 8.76928 169.913 9.21668C169.208 9.66528 168.509 10.11 167.827 10.5382L169.954 13.9258C170.648 13.49 171.357 13.0387 172.06 12.5913C172.765 12.1427 173.464 11.698 174.146 11.2698L172.019 7.88222Z" fill="#F5DE68" mask="url(#path-1-outside-1_2893_17377)"/>
</svg>
