<svg width="92" height="70" viewBox="0 0 92 70" fill="none" xmlns="http://www.w3.org/2000/svg">
<path d="M5.5727 0.765696L63.7956 0.765701C66.8238 0.765701 69.3014 3.24332 69.3014 6.2715L69.3014 64.4944C69.3014 67.5226 66.8238 70.0002 63.7956 70.0002L5.57269 70.0002C2.54449 70.0002 0.0668871 67.5226 0.0668874 64.4944L0.0668925 6.2715C0.0668927 3.24331 2.5445 0.765695 5.5727 0.765696Z" fill="#FC9A99"/>
<path d="M28.2713 0.765696L86.4942 0.765701C89.5224 0.765701 92 3.24332 92 6.2715L92 64.4944C92 67.5226 89.5224 70.0002 86.4942 70.0002L28.2713 70.0002C25.2431 70.0002 22.7655 67.5226 22.7655 64.4944L22.7655 6.2715C22.7655 3.24331 25.2431 0.765695 28.2713 0.765696Z" fill="#E21A1C"/>
<path d="M10.1926 6.46168L12.6977 6.46168C15.7259 6.46168 18.2035 8.93929 18.2035 11.9675L18.2035 58.7994C18.2035 61.8276 15.7259 64.3052 12.6977 64.3052L10.1926 64.3052C7.16439 64.3052 4.68678 61.8276 4.68678 58.7994L4.68679 11.9675C4.68679 8.93929 7.1644 6.46168 10.1926 6.46168Z" fill="#E21A1C"/>
<path d="M33.9718 6.46631L80.8037 6.46632C83.8319 6.46632 86.3095 8.94392 86.3095 11.9721L86.3095 58.804C86.3095 61.8322 83.8319 64.3098 80.8037 64.3098L33.9718 64.3098C30.9436 64.3098 28.466 61.8322 28.466 58.804L28.466 11.9721C28.466 8.94392 30.9436 6.46631 33.9718 6.46631Z" fill="#FC9A99"/>
<path d="M57.5892 43.9059C57.7711 43.6502 58.0213 43.5805 58.3396 43.6967C59.545 44.1384 60.6138 44.7661 61.5462 45.6262C61.7964 45.882 61.8419 46.1609 61.6827 46.4399L59.5904 49.834C59.363 50.1362 59.0901 50.1594 58.7945 49.927C58.4988 49.6945 57.4527 48.9971 55.6334 47.9045C55.3377 47.7185 55.2922 47.4628 55.4742 47.1605L57.5892 43.9059ZM41.1923 34.6303C39.7596 32.7938 39.5094 30.4691 40.4873 27.6329C40.8967 26.4938 41.6472 25.285 42.7842 23.9831C43.1936 23.5182 43.5575 23.4485 43.8531 23.7507C44.1488 24.0529 44.0806 24.4016 43.7167 24.82C42.6706 25.9591 42.2157 27.0285 42.3749 28.0281C42.9207 31.4687 47.3326 33.189 55.5424 33.189C62.5014 33.2123 68.2778 31.8872 72.8489 29.2835C72.5987 28.1909 71.962 27.168 70.8931 26.2381C70.6202 25.9824 70.552 25.6337 70.7112 25.192L72.0302 21.24C72.3031 20.4263 72.7579 20.4961 73.372 21.4957C74.8502 23.8437 75.3278 26.7495 74.7592 30.1901C74.4636 31.8872 73.8495 33.0495 72.8716 33.6772C68.0959 36.7691 62.2512 38.5126 55.3605 38.8846C48.447 39.2333 43.7167 37.8152 41.1923 34.6303Z" fill="#E21A1C"/>
</svg>
