<svg width="310" height="367" viewBox="0 0 310 367" fill="none" xmlns="http://www.w3.org/2000/svg">
<g filter="url(#filter0_d_2953_13102)">
<path d="M2.00024 76C2.00024 64.9543 10.9546 56 22.0002 56H288C299.046 56 308 64.9543 308 76V363H2.00024V76Z" fill="#EACFFF"/>
<path d="M95.219 262.371L98.219 261.715C98.6565 264.777 100.438 266.309 103.563 266.309C106.313 266.246 107.75 265.152 107.875 263.027C108.063 261.59 106.781 260.496 104.031 259.746C103.781 259.621 103.25 259.465 102.438 259.277C102.188 259.215 102 259.184 101.875 259.184C97.6877 258.309 95.719 256.527 95.969 253.84C96.219 250.59 98.5002 248.871 102.813 248.684C107.188 248.621 109.75 250.371 110.5 253.934L107.594 254.59C107.156 252.277 105.625 251.121 103 251.121C100.563 251.184 99.2502 252.09 99.0627 253.84C98.8752 255.277 100.375 256.309 103.563 256.934C104.813 257.246 105.75 257.496 106.375 257.684C109.563 258.684 111.125 260.434 111.063 262.934C110.938 266.496 108.469 268.34 103.656 268.465C98.844 268.59 96.0315 266.559 95.219 262.371ZM130.656 268.184H127.656V259.652H117.438V268.184H114.531V248.965H117.438V257.121H127.656V248.965H130.656V268.184ZM143.875 248.965L151.563 268.184H148.375L146.406 263.027H137.875L135.906 268.184H132.719L140.406 248.965H143.875ZM142.188 251.496H142.094C141.906 252.059 141.719 252.621 141.531 253.184C141.469 253.309 140.5 255.809 138.625 260.684H145.656C143.781 255.809 142.813 253.309 142.75 253.184C142.75 253.121 142.719 252.996 142.656 252.809C142.344 252.059 142.188 251.621 142.188 251.496ZM155.5 248.684L155.125 255.621H153.25L152.781 248.684H155.5ZM167.594 268.184H158.875V248.965H167.125C171.188 249.09 173.344 250.621 173.594 253.559C173.531 255.996 172.219 257.496 169.656 258.059C169.656 258.059 169.656 258.09 169.656 258.152C172.594 258.652 174.188 260.184 174.438 262.746C174.438 266.371 172.156 268.184 167.594 268.184ZM166.938 259.465H161.781V266.027H167.125C169.875 266.027 171.25 264.871 171.25 262.559C171.125 260.559 169.688 259.527 166.938 259.465ZM166.563 251.215H161.781V257.121H166.563C169.125 257.059 170.438 256.027 170.5 254.027C170.438 252.152 169.125 251.215 166.563 251.215ZM187 248.965L194.688 268.184H191.5L189.531 263.027H181L179.031 268.184H175.844L183.531 248.965H187ZM185.313 251.496H185.219C185.031 252.059 184.844 252.621 184.656 253.184C184.594 253.309 183.625 255.809 181.75 260.684H188.781C186.906 255.809 185.938 253.309 185.875 253.184C185.875 253.121 185.844 252.996 185.781 252.809C185.469 252.059 185.313 251.621 185.313 251.496ZM196.938 248.965H200.406L210.156 264.715H210.25V248.965H213.063V268.184H209.688L199.75 252.34V268.184H196.938V248.965Z" fill="#242424"/>
<path d="M119.471 144.519C119.61 146.334 119.87 148.133 119.887 149.948C119.939 163.937 120.077 177.925 119.887 191.914C119.731 203.187 124.805 203.62 135.213 201.89C136.875 201.614 138.486 199.245 139.508 197.481C140.806 195.268 141.326 192.622 142.521 190.323C143.006 189.406 144.374 188.939 145.326 188.282C145.915 189.285 147.006 190.305 147.006 191.308C146.971 201.51 147.612 202.357 158.176 202.496C162.938 202.548 167.7 201.977 173.588 201.631C169.882 196.893 166.939 194.023 161.968 195.51C160.791 190.928 164.531 181.66 168.809 179.205C174.731 175.833 181.07 174.916 187.494 177.787C193.867 180.622 195.409 189.579 190.715 196.098C189.573 197.689 188.291 199.193 186.369 201.614C194.075 202.945 200.864 203.187 207.617 201.839C208.778 201.614 209.747 199.643 210.492 198.294C211.548 196.409 212.189 194.3 213.28 192.45C213.678 191.775 215.133 191.014 215.601 191.274C216.415 191.723 216.865 192.865 217.402 193.764C217.523 193.954 217.315 194.317 217.315 194.611C217.177 197.308 214.25 200.646 218.908 202.254C224.242 204.104 230.078 202.236 232.156 198.104C232.988 196.427 233.524 194.594 234.494 193.003C234.996 192.19 236.122 191.741 236.971 191.135C237.611 192.121 238.72 193.055 238.806 194.075C239.274 200.455 240.122 201.683 246.045 203.049C247.067 203.291 248.677 203.378 249.162 202.79C249.682 202.184 249.474 200.594 249.076 199.643C247.604 196.115 245.993 192.657 248.608 189.026C249.335 188.023 250.34 187.245 251.223 186.363C252.089 187.383 253.561 188.334 253.699 189.441C254.305 194.196 255.552 199.21 254.669 203.758C252.937 212.559 247.292 215.014 239.291 210.968C235.706 209.153 233.403 208.565 229.576 211.21C224.589 214.651 218.597 213.804 213.142 210.674C212.137 210.086 210.336 209.741 209.453 210.242C201.037 215.101 192.586 213.856 184.637 209.741C180.585 207.648 177.693 207.787 173.588 209.429C168.462 211.487 162.8 212.68 157.293 213.112C151.734 213.545 146.417 211.816 143.283 207.026C139.975 208.928 137.118 211.245 133.845 212.317C124.372 215.429 115.99 210.415 113.964 200.663C113.445 198.156 113.41 195.51 113.341 192.934C112.96 179.55 112.631 166.167 112.284 152.767C112.163 148.323 115.817 146.697 118.034 144C118.501 144.156 118.969 144.311 119.437 144.467L119.471 144.519ZM169.796 187.729C172.549 190.202 174.783 192.19 176.983 194.213C181.122 198 183.737 197.654 186.871 192.865C188.88 189.804 188.135 187.072 184.585 186.242C179.805 185.135 174.974 185.101 169.796 187.729Z" fill="#490281"/>
<path d="M104.254 200.269C102.626 205.284 101.657 211.612 98.6433 216.748C92.9631 226.431 78.8494 229.75 67.8527 225.065C57.8086 220.776 52.9943 209.935 55.7824 197.451C56.4405 194.529 57.4622 191.624 58.7091 188.909C59.1593 187.923 60.7872 187.474 61.8782 186.782C62.3111 188.096 63.1424 189.41 63.0904 190.707C62.9346 195.497 61.9301 200.338 62.3804 205.059C62.6229 207.583 64.7183 210.35 66.7271 212.2C73.3078 218.286 89.3091 217.301 94.8681 210.281C96.4786 208.24 97.2059 204.661 96.7903 202.033C96.1149 197.831 94.1234 193.854 92.7553 189.773C92.3051 188.425 91.3699 186.696 91.8375 185.676C93.1017 182.926 95.0066 180.471 96.6518 177.895C98.0025 179.9 99.9248 181.716 100.583 183.929C102.055 188.84 102.886 193.958 104.254 200.286V200.269Z" fill="#490281"/>
<path d="M184.796 161.864C184.623 166.273 182.129 169.16 178.51 169.074C175.116 169.005 172.778 166.377 172.899 162.832C173.038 159.028 176.761 153.979 179.324 154.1C182.043 154.221 184.935 158.319 184.796 161.881V161.864Z" fill="#490281"/>
<path d="M236.335 177.51C238.569 175.885 240.543 172.184 243.851 176.421C245.427 178.444 245.911 179.758 244.024 181.919C240.907 185.464 238.811 182.957 236.387 180.847C233.668 182.524 231.07 185.896 227.867 181.435C226.256 179.205 227.226 177.925 228.507 176.196C231.954 171.562 233.633 177.043 236.335 177.527V177.51Z" fill="#490281"/>
<path d="M244.528 149.086C242.554 158.164 233.722 156.971 227.817 160.239C230.206 151.904 238.796 152.596 244.528 149.086Z" fill="#490281"/>
<path d="M135.028 181.329C138.526 172.977 146.734 173.548 152.518 169.605C152.553 175.329 145.28 180.153 135.028 181.329Z" fill="#490281"/>
<path d="M86.2739 171.098C83.3991 173.225 81.3037 175.957 79.5373 175.75C77.719 175.542 75.1214 172.551 74.9655 170.614C74.827 169.041 78.048 165.669 79.3642 165.859C81.5462 166.188 83.3818 168.747 86.2565 171.098H86.2739Z" fill="#490281"/>
<path d="M149.434 223.283C146.802 225.375 144.776 228.194 143.026 228.055C141.191 227.9 138.281 224.874 138.281 223.11C138.281 221.329 141.26 218.217 143.009 218.165C144.828 218.113 146.75 221 149.434 223.3V223.283Z" fill="#490281"/>
<path d="M236.057 163.387C237.962 165.79 240.248 167.433 240.335 169.197C240.404 170.563 237.754 172.084 236.3 173.537C234.81 172.015 232.369 170.632 232.109 168.92C231.884 167.537 234.273 165.738 236.057 163.387Z" fill="#490281"/>
<g filter="url(#filter1_d_2953_13102)">
<circle cx="64" cy="64" r="64" transform="matrix(-1 0 0 1 219 0)" fill="url(#paint0_radial_2953_13102)"/>
<g filter="url(#filter2_d_2953_13102)">
<path d="M192.922 44.7021V97.1517C192.922 100.714 190.031 103.602 186.465 103.602H122.762C119.196 103.602 116.305 100.714 116.305 97.1517V44.7021L118.363 42.6057H190.582L192.922 44.7021Z" fill="white"/>
<path d="M192.922 33.4646V44.8409H116.305V33.4646C116.305 29.8879 119.173 26.9883 122.71 26.9883H186.517C190.054 26.9883 192.922 29.8879 192.922 33.4641L192.922 33.4646Z" fill="url(#paint1_linear_2953_13102)"/>
<path d="M129.127 36.3625C130.431 36.3625 131.488 35.3055 131.488 34.0016C131.488 32.6977 130.431 31.6406 129.127 31.6406C127.823 31.6406 126.766 32.6977 126.766 34.0016C126.766 35.3055 127.823 36.3625 129.127 36.3625Z" fill="url(#paint2_radial_2953_13102)"/>
<path d="M129.13 23.8164H129.129C128.342 23.8164 127.703 24.4548 127.703 25.2422V33.1849C127.703 33.9723 128.342 34.6107 129.129 34.6107H129.13C129.917 34.6107 130.556 33.9723 130.556 33.1849V25.2422C130.556 24.4548 129.917 23.8164 129.13 23.8164Z" fill="url(#paint3_linear_2953_13102)"/>
<path d="M146.096 36.3625C147.399 36.3625 148.457 35.3055 148.457 34.0016C148.457 32.6977 147.399 31.6406 146.096 31.6406C144.792 31.6406 143.735 32.6977 143.735 34.0016C143.735 35.3055 144.792 36.3625 146.096 36.3625Z" fill="url(#paint4_radial_2953_13102)"/>
<path d="M146.098 23.8164H146.098C145.31 23.8164 144.672 24.4548 144.672 25.2422V33.1849C144.672 33.9723 145.31 34.6107 146.098 34.6107H146.098C146.886 34.6107 147.524 33.9723 147.524 33.1849V25.2422C147.524 24.4548 146.886 23.8164 146.098 23.8164Z" fill="url(#paint5_linear_2953_13102)"/>
<path d="M163.06 36.3625C164.364 36.3625 165.421 35.3055 165.421 34.0016C165.421 32.6977 164.364 31.6406 163.06 31.6406C161.756 31.6406 160.699 32.6977 160.699 34.0016C160.699 35.3055 161.756 36.3625 163.06 36.3625Z" fill="url(#paint6_radial_2953_13102)"/>
<path d="M163.063 23.8164H163.063C162.275 23.8164 161.637 24.4548 161.637 25.2422V33.1849C161.637 33.9723 162.275 34.6107 163.063 34.6107H163.063C163.851 34.6107 164.489 33.9723 164.489 33.1849V25.2422C164.489 24.4548 163.851 23.8164 163.063 23.8164Z" fill="url(#paint7_linear_2953_13102)"/>
<path d="M180.037 36.3625C181.341 36.3625 182.398 35.3055 182.398 34.0016C182.398 32.6977 181.341 31.6406 180.037 31.6406C178.733 31.6406 177.676 32.6977 177.676 34.0016C177.676 35.3055 178.733 36.3625 180.037 36.3625Z" fill="url(#paint8_radial_2953_13102)"/>
<path d="M180.04 23.8164H180.039C179.252 23.8164 178.614 24.4548 178.614 25.2422V33.1849C178.614 33.9723 179.252 34.6107 180.039 34.6107H180.04C180.827 34.6107 181.466 33.9723 181.466 33.1849V25.2422C181.466 24.4548 180.827 23.8164 180.04 23.8164Z" fill="url(#paint9_linear_2953_13102)"/>
</g>
<path d="M143.052 86.892C142.62 86.892 142.176 86.868 141.72 86.82C141.288 86.748 140.856 86.628 140.424 86.46C139.776 86.196 139.152 85.848 138.552 85.416C137.976 84.96 137.448 84.456 136.968 83.904C135.816 82.608 134.94 81.084 134.34 79.332C133.74 77.556 133.44 75.756 133.44 73.932C133.44 71.436 133.92 69.024 134.88 66.696C135.048 66.288 135.264 65.856 135.528 65.4C135.816 64.944 136.128 64.512 136.464 64.104C136.824 63.672 137.184 63.288 137.544 62.952C137.928 62.616 138.312 62.364 138.696 62.196C139.224 61.956 139.8 61.716 140.424 61.476C141.192 61.236 142.056 61.128 143.016 61.152C143.976 61.176 144.852 61.284 145.644 61.476C146.748 61.74 147.696 62.22 148.488 62.916C149.28 63.588 149.952 64.404 150.504 65.364C151.056 66.3 151.488 67.332 151.8 68.46C152.112 69.564 152.34 70.692 152.484 71.844C152.58 72.612 152.616 73.38 152.592 74.148C152.568 74.892 152.508 75.648 152.412 76.416C152.316 77.112 152.196 77.808 152.052 78.504C151.932 79.2 151.764 79.872 151.548 80.52C151.332 81.168 151.056 81.792 150.72 82.392C150.384 82.968 149.964 83.508 149.46 84.012C148.548 84.9 147.552 85.596 146.472 86.1C145.416 86.58 144.276 86.844 143.052 86.892ZM143.016 65.904C142.68 65.904 142.344 65.94 142.008 66.012C141.696 66.06 141.396 66.18 141.108 66.372C140.772 66.588 140.472 66.852 140.208 67.164C139.944 67.476 139.716 67.8 139.524 68.136C139.02 69 138.672 69.924 138.48 70.908C138.288 71.892 138.192 72.888 138.192 73.896C138.192 74.928 138.3 75.996 138.516 77.1C138.756 78.204 139.176 79.212 139.776 80.124C140.064 80.556 140.4 80.94 140.784 81.276C141.192 81.588 141.66 81.816 142.188 81.96C142.668 82.08 143.148 82.116 143.628 82.068C144.132 82.02 144.6 81.864 145.032 81.6C145.728 81.168 146.28 80.592 146.688 79.872C147.096 79.152 147.396 78.372 147.588 77.532C147.804 76.692 147.924 75.828 147.948 74.94C147.996 74.052 147.996 73.248 147.948 72.528C147.9 71.808 147.78 71.052 147.588 70.26C147.396 69.468 147.108 68.748 146.724 68.1C146.364 67.452 145.872 66.924 145.248 66.516C144.648 66.084 143.904 65.88 143.016 65.904ZM164.591 86.964C163.871 86.964 163.127 86.928 162.359 86.856C161.615 86.784 160.883 86.64 160.163 86.424C159.467 86.184 158.807 85.86 158.183 85.452C157.583 85.044 157.079 84.516 156.671 83.868C156.215 83.172 155.891 82.428 155.699 81.636C155.531 80.82 155.471 79.992 155.519 79.152C155.639 77.856 156.071 76.752 156.815 75.84C157.583 74.928 158.543 74.232 159.695 73.752C159.599 73.752 159.443 73.692 159.227 73.572C159.035 73.452 158.831 73.308 158.615 73.14C158.399 72.972 158.195 72.816 158.003 72.672C157.835 72.504 157.715 72.396 157.643 72.348C157.355 72.036 157.115 71.676 156.923 71.268C156.755 70.86 156.611 70.452 156.491 70.044C156.179 68.964 156.143 67.836 156.383 66.66C156.623 65.46 157.115 64.416 157.859 63.528C158.171 63.144 158.567 62.808 159.047 62.52C159.527 62.208 160.043 61.956 160.595 61.764C161.147 61.548 161.699 61.38 162.251 61.26C162.827 61.14 163.343 61.08 163.799 61.08C164.423 61.08 165.035 61.068 165.635 61.044C166.235 61.02 166.835 61.056 167.435 61.152C168.179 61.272 168.863 61.512 169.487 61.872C170.135 62.232 170.699 62.676 171.179 63.204C172.139 64.26 172.751 65.448 173.015 66.768C173.303 68.064 173.267 69.396 172.907 70.764C172.787 71.148 172.607 71.508 172.367 71.844C172.127 72.156 171.851 72.456 171.539 72.744C171.467 72.792 171.347 72.876 171.179 72.996C171.011 73.116 170.819 73.248 170.603 73.392C170.411 73.512 170.219 73.62 170.027 73.716C169.835 73.788 169.691 73.812 169.595 73.788C170.171 74.148 170.723 74.508 171.251 74.868C171.779 75.204 172.211 75.684 172.547 76.308C172.883 76.932 173.123 77.592 173.267 78.288C173.435 78.984 173.495 79.68 173.447 80.376C173.423 81.072 173.291 81.756 173.051 82.428C172.811 83.076 172.463 83.664 172.007 84.192C171.551 84.72 171.023 85.164 170.423 85.524C169.847 85.86 169.235 86.136 168.587 86.352C167.939 86.568 167.267 86.724 166.571 86.82C165.899 86.916 165.239 86.964 164.591 86.964ZM164.663 76.452C164.135 76.476 163.595 76.548 163.043 76.668C162.515 76.788 162.023 76.98 161.567 77.244C161.135 77.484 160.763 77.82 160.451 78.252C160.139 78.66 159.947 79.176 159.875 79.8C159.827 80.28 159.887 80.712 160.055 81.096C160.247 81.456 160.487 81.78 160.775 82.068C161.087 82.332 161.447 82.548 161.855 82.716C162.263 82.86 162.671 82.956 163.079 83.004C164.039 83.148 164.963 83.136 165.851 82.968C166.187 82.896 166.499 82.836 166.787 82.788C167.099 82.716 167.375 82.62 167.615 82.5C167.879 82.38 168.107 82.224 168.299 82.032C168.515 81.816 168.695 81.528 168.839 81.168C169.055 80.664 169.139 80.1 169.091 79.476C169.067 78.828 168.875 78.3 168.515 77.892C167.987 77.268 167.399 76.86 166.751 76.668C166.127 76.476 165.431 76.404 164.663 76.452ZM164.699 65.04C164.147 65.088 163.619 65.172 163.115 65.292C162.611 65.412 162.167 65.604 161.783 65.868C161.399 66.132 161.099 66.48 160.883 66.912C160.691 67.344 160.607 67.884 160.631 68.532C160.655 68.988 160.727 69.42 160.847 69.828C160.967 70.212 161.195 70.572 161.531 70.908C161.939 71.388 162.431 71.676 163.007 71.772C163.583 71.844 164.159 71.868 164.735 71.844C165.623 71.844 166.391 71.712 167.039 71.448C167.711 71.184 168.251 70.62 168.659 69.756C168.971 69.06 169.055 68.412 168.911 67.812C168.767 67.212 168.491 66.708 168.083 66.3C167.675 65.868 167.159 65.544 166.535 65.328C165.935 65.088 165.323 64.992 164.699 65.04Z" fill="black"/>
</g>
<line x1="70.5862" y1="303.5" x2="1.99998" y2="303.5" stroke="url(#paint10_linear_2953_13102)"/>
<path d="M239 303.5L308 303.5" stroke="url(#paint11_linear_2953_13102)"/>
<rect x="64.2542" y="300.863" width="182.545" height="5.27586" rx="2.63793" fill="url(#paint12_radial_2953_13102)"/>
</g>
<defs>
<filter id="filter0_d_2953_13102" x="0" y="0" width="310" height="367" filterUnits="userSpaceOnUse" color-interpolation-filters="sRGB">
<feFlood flood-opacity="0" result="BackgroundImageFix"/>
<feColorMatrix in="SourceAlpha" type="matrix" values="0 0 0 0 0 0 0 0 0 0 0 0 0 0 0 0 0 0 127 0" result="hardAlpha"/>
<feOffset dy="2"/>
<feGaussianBlur stdDeviation="1"/>
<feComposite in2="hardAlpha" operator="out"/>
<feColorMatrix type="matrix" values="0 0 0 0 0 0 0 0 0 0 0 0 0 0 0 0 0 0 0.25 0"/>
<feBlend mode="normal" in2="BackgroundImageFix" result="effect1_dropShadow_2953_13102"/>
<feBlend mode="normal" in="SourceGraphic" in2="effect1_dropShadow_2953_13102" result="shape"/>
</filter>
<filter id="filter1_d_2953_13102" x="89.0002" y="0" width="132" height="132" filterUnits="userSpaceOnUse" color-interpolation-filters="sRGB">
<feFlood flood-opacity="0" result="BackgroundImageFix"/>
<feColorMatrix in="SourceAlpha" type="matrix" values="0 0 0 0 0 0 0 0 0 0 0 0 0 0 0 0 0 0 127 0" result="hardAlpha"/>
<feOffset dy="2"/>
<feGaussianBlur stdDeviation="1"/>
<feComposite in2="hardAlpha" operator="out"/>
<feColorMatrix type="matrix" values="0 0 0 0 0 0 0 0 0 0 0 0 0 0 0 0 0 0 0.25 0"/>
<feBlend mode="normal" in2="BackgroundImageFix" result="effect1_dropShadow_2953_13102"/>
<feBlend mode="normal" in="SourceGraphic" in2="effect1_dropShadow_2953_13102" result="shape"/>
</filter>
<filter id="filter2_d_2953_13102" x="114.305" y="23.8164" width="80.6174" height="83.7856" filterUnits="userSpaceOnUse" color-interpolation-filters="sRGB">
<feFlood flood-opacity="0" result="BackgroundImageFix"/>
<feColorMatrix in="SourceAlpha" type="matrix" values="0 0 0 0 0 0 0 0 0 0 0 0 0 0 0 0 0 0 127 0" result="hardAlpha"/>
<feOffset dy="2"/>
<feGaussianBlur stdDeviation="1"/>
<feComposite in2="hardAlpha" operator="out"/>
<feColorMatrix type="matrix" values="0 0 0 0 0 0 0 0 0 0 0 0 0 0 0 0 0 0 0.25 0"/>
<feBlend mode="normal" in2="BackgroundImageFix" result="effect1_dropShadow_2953_13102"/>
<feBlend mode="normal" in="SourceGraphic" in2="effect1_dropShadow_2953_13102" result="shape"/>
</filter>
<radialGradient id="paint0_radial_2953_13102" cx="0" cy="0" r="1" gradientUnits="userSpaceOnUse" gradientTransform="translate(64 64) rotate(90) scale(84.8372)">
<stop stop-color="#FAF3FF"/>
<stop offset="1" stop-color="#B966F9"/>
</radialGradient>
<linearGradient id="paint1_linear_2953_13102" x1="154.613" y1="28.0407" x2="154.613" y2="44.7583" gradientUnits="userSpaceOnUse">
<stop stop-color="#E85F43"/>
<stop offset="1" stop-color="#E83636"/>
</linearGradient>
<radialGradient id="paint2_radial_2953_13102" cx="0" cy="0" r="1" gradientUnits="userSpaceOnUse" gradientTransform="translate(129.127 34.0016) scale(2.36095)">
<stop stop-color="#8C1F1F"/>
<stop offset="0.84" stop-color="#450F0F"/>
<stop offset="1" stop-color="#2B0808"/>
</radialGradient>
<linearGradient id="paint3_linear_2953_13102" x1="127.703" y1="29.2136" x2="130.555" y2="29.2136" gradientUnits="userSpaceOnUse">
<stop stop-color="#4F4F4F"/>
<stop offset="0.29" stop-color="#BDBDBD"/>
<stop offset="0.62" stop-color="#BDBDBD"/>
<stop offset="1" stop-color="#4F4F4F"/>
</linearGradient>
<radialGradient id="paint4_radial_2953_13102" cx="0" cy="0" r="1" gradientUnits="userSpaceOnUse" gradientTransform="translate(146.096 23.8395) scale(0.0241505)">
<stop stop-color="#8C1F1F"/>
<stop offset="0.84" stop-color="#450F0F"/>
<stop offset="1" stop-color="#2B0808"/>
</radialGradient>
<linearGradient id="paint5_linear_2953_13102" x1="144.672" y1="23.8164" x2="147.524" y2="23.8164" gradientUnits="userSpaceOnUse">
<stop stop-color="#4F4F4F"/>
<stop offset="0.29" stop-color="#BDBDBD"/>
<stop offset="0.62" stop-color="#BDBDBD"/>
<stop offset="1" stop-color="#4F4F4F"/>
</linearGradient>
<radialGradient id="paint6_radial_2953_13102" cx="0" cy="0" r="1" gradientUnits="userSpaceOnUse" gradientTransform="translate(163.06 23.8395) scale(2.36095)">
<stop stop-color="#8C1F1F"/>
<stop offset="0.84" stop-color="#450F0F"/>
<stop offset="1" stop-color="#2B0808"/>
</radialGradient>
<linearGradient id="paint7_linear_2953_13102" x1="161.637" y1="23.8164" x2="164.489" y2="23.8164" gradientUnits="userSpaceOnUse">
<stop stop-color="#4F4F4F"/>
<stop offset="0.29" stop-color="#BDBDBD"/>
<stop offset="0.62" stop-color="#BDBDBD"/>
<stop offset="1" stop-color="#4F4F4F"/>
</linearGradient>
<radialGradient id="paint8_radial_2953_13102" cx="0" cy="0" r="1" gradientUnits="userSpaceOnUse" gradientTransform="translate(180.037 23.8395) scale(0.0241505)">
<stop stop-color="#8C1F1F"/>
<stop offset="0.84" stop-color="#450F0F"/>
<stop offset="1" stop-color="#2B0808"/>
</radialGradient>
<linearGradient id="paint9_linear_2953_13102" x1="178.614" y1="23.8164" x2="181.466" y2="23.8164" gradientUnits="userSpaceOnUse">
<stop stop-color="#4F4F4F"/>
<stop offset="0.29" stop-color="#BDBDBD"/>
<stop offset="0.62" stop-color="#BDBDBD"/>
<stop offset="1" stop-color="#4F4F4F"/>
</linearGradient>
<linearGradient id="paint10_linear_2953_13102" x1="70.5862" y1="302.5" x2="-4.85864" y2="302.5" gradientUnits="userSpaceOnUse">
<stop stop-color="#481272"/>
<stop offset="0.795" stop-color="#EACFFF"/>
</linearGradient>
<linearGradient id="paint11_linear_2953_13102" x1="239" y1="302.5" x2="314.445" y2="302.5" gradientUnits="userSpaceOnUse">
<stop stop-color="#481272"/>
<stop offset="0.795" stop-color="#EACFFF"/>
</linearGradient>
<radialGradient id="paint12_radial_2953_13102" cx="0" cy="0" r="1" gradientUnits="userSpaceOnUse" gradientTransform="translate(155.527 303.501) scale(91.2724 2.63793)">
<stop stop-color="#E8CAFF"/>
<stop offset="1" stop-color="#3F086A"/>
</radialGradient>
</defs>
</svg>
