<svg width="39" height="39" viewBox="0 0 39 39" fill="none" xmlns="http://www.w3.org/2000/svg">
<path d="M0.600475 19.8991C0.365108 8.99634 8.86697 0.302975 19.2917 0.184989C30.18 0.0617828 38.5048 8.8961 38.5949 19.2507C38.6931 30.5355 30.2352 37.9394 21.8234 38.8384C9.12383 40.1968 0.521678 29.861 0.600475 19.8991ZM36.5257 13.011C36.4632 12.6414 36.3712 12.2843 36.0938 12.0118C35.8452 11.0877 35.3345 10.3046 34.8085 9.52884C34.7655 9.33881 34.652 9.1989 34.5066 9.08196C34.0298 8.27067 33.4557 7.53874 32.7772 6.89243C32.5797 6.57711 32.3546 6.29102 32.0005 6.14588C31.409 5.40873 30.664 4.86057 29.8873 4.35208C29.7799 4.19024 29.6192 4.11402 29.4411 4.06704C28.7105 3.49068 27.8979 3.06572 27.0404 2.7243C26.7446 2.49772 26.4039 2.37451 26.0498 2.28054C25.1912 1.92136 24.3163 1.62066 23.3891 1.5058C23.2315 1.38364 23.0494 1.38469 22.8642 1.39722C22.1908 1.18526 21.4878 1.18526 20.798 1.09546C20.4808 1.05474 20.3785 1.1696 20.3867 1.49327C20.4051 2.24087 20.3928 2.98846 20.3928 3.73605C20.3928 4.87728 20.3928 4.85535 19.2722 4.87414C18.8598 4.88041 18.8005 4.72483 18.8087 4.36148C18.8302 3.40506 18.8148 2.44865 18.8169 1.49223C18.8169 1.27296 18.8322 1.05788 18.5129 1.09233C17.7864 1.17064 17.0506 1.17691 16.3435 1.39722C16.1593 1.38469 15.9771 1.38364 15.8195 1.5058C14.8924 1.62066 14.0174 1.92136 13.1588 2.28054C12.8058 2.37556 12.464 2.49563 12.1693 2.72534C11.3107 3.06468 10.4992 3.49068 9.76751 4.06599C9.58945 4.11298 9.42879 4.1892 9.32134 4.35104C8.54462 4.85953 7.79964 5.40769 7.20815 6.14484C6.85408 6.29102 6.62894 6.57606 6.43144 6.89139C5.75297 7.53666 5.17888 8.26859 4.702 9.08091C4.55567 9.19785 4.4431 9.33881 4.39909 9.5278C3.8731 10.3025 3.3645 11.0877 3.11481 12.0107C2.83749 12.2843 2.74436 12.6403 2.68296 13.0099C2.27772 13.8609 2.05156 14.7662 1.89704 15.6933C1.8295 15.8625 1.76503 16.0327 1.78038 16.2206C1.60232 16.9317 1.57162 17.6626 1.4918 18.3872C1.45905 18.6837 1.56855 18.7464 1.82643 18.7432C2.57654 18.7328 3.32664 18.7401 4.07674 18.7401C5.23823 18.7401 5.22288 18.7401 5.21776 19.9273C5.21572 20.3042 5.0878 20.3982 4.74089 20.3908C3.78714 20.371 2.83135 20.3929 1.8776 20.3783C1.57264 20.3741 1.45496 20.441 1.49589 20.7887C1.57878 21.4955 1.60846 22.2097 1.78038 22.9041C1.76605 23.092 1.83052 23.2622 1.89704 23.4313C2.04952 24.3596 2.27874 25.2638 2.68296 26.1147C2.74436 26.4854 2.83749 26.8414 3.11481 27.114C3.36348 28.038 3.8731 28.8221 4.40012 29.5969C4.4431 29.7869 4.55567 29.9268 4.702 30.0438C5.1799 30.855 5.75297 31.587 6.43246 32.2333C6.62997 32.5486 6.8551 32.8347 7.20917 32.9798C7.80066 33.717 8.54565 34.2651 9.32236 34.7736C9.42981 34.9355 9.59047 35.0117 9.76853 35.0587C10.5002 35.635 11.3117 36.061 12.1703 36.4004C12.466 36.628 12.8068 36.7502 13.1599 36.8441C14.0184 37.2043 14.8944 37.503 15.8205 37.6189C15.9781 37.741 16.1603 37.74 16.3455 37.7275C17.0189 37.9405 17.7219 37.9384 18.4116 38.0292C18.7289 38.071 18.8312 37.9551 18.823 37.6314C18.8046 36.8838 18.8169 36.1362 18.8169 35.3886C18.8169 34.2474 18.8169 34.261 19.9384 34.2547C20.2853 34.2526 20.4133 34.333 20.403 34.712C20.3774 35.6852 20.3959 36.6593 20.3938 37.6335C20.3938 37.8517 20.3774 38.0678 20.6978 38.0334C21.4233 37.9551 22.1591 37.9488 22.8662 37.7285C23.0504 37.741 23.2326 37.7421 23.3912 37.6199C24.3183 37.5051 25.1933 37.2044 26.0518 36.8452C26.4049 36.7512 26.7467 36.629 27.0424 36.4004C27.901 36.061 28.7115 35.634 29.4432 35.0587C29.6212 35.0117 29.7819 34.9355 29.8893 34.7736C30.6661 34.2641 31.4121 33.717 32.0025 32.9798C32.3566 32.8347 32.5817 32.5476 32.7792 32.2333C33.4577 31.588 34.0318 30.855 34.5097 30.0438C34.656 29.9268 34.7686 29.7859 34.8116 29.5969C35.3376 28.8221 35.8493 28.039 36.0969 27.114C36.3752 26.8414 36.4673 26.4843 36.5287 26.1147C36.933 25.2638 37.1612 24.3585 37.3147 23.4313C37.3822 23.2622 37.4467 23.092 37.4313 22.9041C37.6084 22.193 37.6401 21.4621 37.7199 20.7375C37.7527 20.442 37.6432 20.3783 37.3853 20.3815C36.6352 20.3919 35.8851 20.3846 35.136 20.3846C33.9745 20.3846 33.9899 20.3846 33.996 19.1964C33.998 18.8194 34.126 18.7255 34.4729 18.7328C35.4266 18.7526 36.3814 18.7307 37.3362 18.7453C37.6401 18.7495 37.7578 18.6837 37.7168 18.335C37.6339 17.6281 37.6053 16.915 37.4324 16.2206C37.4477 16.0327 37.3832 15.8625 37.3157 15.6933C37.1622 14.7662 36.934 13.8609 36.5298 13.0099L36.5257 13.011Z" fill="#7DC193"/>
<path d="M12.1661 36.4024C11.3075 36.062 10.496 35.636 9.76436 35.0597C9.95368 34.7725 10.1399 34.4833 10.3344 34.1993C10.4346 34.0531 10.4746 33.9425 10.2904 33.8172C10.1031 33.6898 9.99154 33.7232 9.87795 33.908C9.69784 34.2014 9.50546 34.4865 9.31716 34.7746C8.53943 34.2661 7.79546 33.718 7.20398 32.9798C7.74225 32.4285 8.2621 31.8574 8.82494 31.3342C9.11863 31.0607 8.99686 30.8978 8.76968 30.7328C8.56808 30.5867 8.45756 30.1147 8.07074 30.5386C7.53963 31.1202 6.97679 31.6705 6.42726 32.2343C5.74879 31.589 5.1747 30.856 4.6968 30.0448C4.98027 29.8537 5.26271 29.6584 5.54924 29.4715C5.6966 29.3755 5.77642 29.2899 5.64953 29.103C5.52673 28.9223 5.42542 28.8753 5.2402 29.0153C4.96696 29.2209 4.67736 29.4047 4.39492 29.5979C3.8679 28.8231 3.35931 28.039 3.11063 27.1149C3.80241 26.8236 4.4819 26.501 5.188 26.2535C5.6833 26.0792 5.44793 25.8223 5.36095 25.5394C5.25657 25.2042 5.13786 25.0497 4.75104 25.2366C4.07564 25.5634 3.37159 25.8255 2.67879 26.1157C2.27457 25.2648 2.04534 24.3606 1.89287 23.4323C2.20805 23.3686 2.52324 23.3039 2.83843 23.2433C3.01137 23.2099 3.16999 23.1911 3.12803 22.9291C3.08198 22.6451 2.91415 22.6712 2.71972 22.7108C2.40556 22.7766 2.09037 22.8403 1.77518 22.905C1.60326 22.2107 1.57359 21.4965 1.4907 20.7897C1.44976 20.442 1.56745 20.3751 1.8724 20.3793C2.82717 20.3939 3.78194 20.371 4.73569 20.3918C5.0826 20.3992 5.21052 20.3052 5.21256 19.9283C5.2187 18.7411 5.23303 18.7411 4.07155 18.7411C3.32144 18.7411 2.57134 18.7338 1.82123 18.7442C1.56335 18.7474 1.45386 18.6847 1.4866 18.3882C1.56642 17.6636 1.59712 16.9327 1.77518 16.2216C2.10674 16.2895 2.4383 16.3532 2.76884 16.4252C2.96532 16.468 3.08812 16.4315 3.12701 16.1966C3.1618 15.9815 3.06049 15.923 2.88755 15.8917C2.55496 15.8311 2.2234 15.7601 1.89184 15.6943C2.04637 14.7672 2.27252 13.8619 2.67776 13.0109C3.37056 13.3002 4.07462 13.5633 4.75002 13.8901C5.13786 14.078 5.25555 13.9204 5.35993 13.5863C5.44793 13.3033 5.68125 13.0464 5.18698 12.8721C4.48088 12.6246 3.80139 12.302 3.11063 12.0107C3.36033 11.0866 3.86893 10.3025 4.39492 9.52775C4.67736 9.72091 4.96696 9.90468 5.2402 10.1104C5.42542 10.2503 5.52673 10.2043 5.64953 10.0237C5.77642 9.83681 5.6966 9.75119 5.54924 9.65409C5.26271 9.46719 4.98129 9.27194 4.6968 9.08087C5.17368 8.26958 5.74777 7.53765 6.42624 6.89134C6.97577 7.45517 7.53963 8.00542 8.07074 8.587C8.45756 9.01091 8.56808 8.53792 8.76968 8.39174C8.99788 8.22677 9.11761 8.06285 8.82494 7.78929C8.2621 7.26618 7.74225 6.69505 7.20398 6.14375C7.79546 5.4066 8.54045 4.85843 9.31716 4.34995C9.50443 4.63812 9.69784 4.92317 9.87795 5.21657C9.99154 5.40138 10.1031 5.43375 10.2904 5.30636C10.4746 5.18107 10.4326 5.07039 10.3333 4.92421C10.1399 4.64021 9.95265 4.35099 9.76334 4.06386C10.495 3.4875 11.3065 3.0615 12.1651 2.7232C12.4475 3.40815 12.7545 4.08369 13.0022 4.78117C13.1496 5.19568 13.3164 5.23536 13.7001 5.0683C14.09 4.89915 14.22 4.7582 14.0102 4.32593C13.6878 3.66187 13.4361 2.96335 13.1547 2.27841C14.0132 1.91923 14.8882 1.61852 15.8153 1.50367C15.8778 1.84301 15.9463 2.18235 16.0016 2.52273C16.0374 2.74304 16.1469 2.80047 16.3567 2.75453C16.5706 2.70859 16.5726 2.58747 16.5347 2.41205C16.4621 2.0748 16.4038 1.73442 16.3403 1.39508C17.0474 1.17581 17.7832 1.16955 18.5098 1.0902C18.8291 1.05574 18.8147 1.27187 18.8137 1.49009C18.8117 2.44651 18.827 3.40293 18.8055 4.35934C18.7973 4.7227 18.8577 4.87827 19.2691 4.87201C20.3896 4.85321 20.3896 4.87618 20.3896 3.73391C20.3896 2.98632 20.4019 2.23769 20.3835 1.49114C20.3753 1.16746 20.4777 1.05261 20.7949 1.09333C21.4856 1.18312 22.1876 1.18208 22.861 1.39508C22.7965 1.73442 22.7392 2.0748 22.6666 2.41205C22.6287 2.58747 22.6308 2.70859 22.8446 2.75453C23.0544 2.79942 23.1629 2.742 23.1987 2.52169C23.255 2.1813 23.3225 1.84196 23.385 1.50262C24.3121 1.61748 25.187 1.91714 26.0456 2.27736C25.7581 2.97797 25.5012 3.69424 25.1707 4.37292C24.9537 4.8198 25.1666 4.92108 25.5033 5.0589C25.8195 5.18838 26.0272 5.28235 26.1817 4.82711C26.4243 4.1098 26.7466 3.42172 27.0352 2.72007C27.8927 3.0615 28.7053 3.48646 29.4359 4.06281C29.2466 4.34995 29.0604 4.63917 28.8659 4.92317C28.7656 5.06935 28.7257 5.18002 28.9099 5.30532C29.0972 5.4327 29.2087 5.40033 29.3223 5.21448C29.5014 4.92108 29.6948 4.63604 29.8821 4.34786C30.6598 4.85635 31.4038 5.40555 31.9953 6.1427C31.457 6.694 30.9372 7.26514 30.3743 7.78824C30.0806 8.0618 30.2024 8.22468 30.4296 8.3907C30.6312 8.53688 30.7417 9.00882 31.1285 8.58595C31.6596 8.00438 32.2225 7.45412 32.772 6.8903C33.4505 7.53556 34.0246 8.26749 34.5014 9.07982C34.218 9.2709 33.9355 9.46615 33.65 9.65304C33.5027 9.7491 33.4228 9.83472 33.5497 10.0227C33.6725 10.2033 33.7738 10.2492 33.9591 10.1104C34.2323 9.90468 34.5219 9.72091 34.8043 9.52775C35.3303 10.3025 35.841 11.0856 36.0886 12.0107C35.3969 12.302 34.7174 12.6246 34.0113 12.8721C33.516 13.0464 33.7513 13.3033 33.8383 13.5863C33.9427 13.9214 34.0604 14.077 34.4482 13.889C35.1236 13.5622 35.8277 13.3002 36.5205 13.0099C36.9247 13.8609 37.1529 14.7661 37.3064 15.6933C36.9748 15.7601 36.6433 15.8301 36.3107 15.8906C36.1367 15.922 36.0364 15.9815 36.0712 16.1955C36.1091 16.4304 36.2329 16.4659 36.4294 16.4231C36.7599 16.3511 37.0915 16.2874 37.4231 16.2195C37.596 16.9139 37.6247 17.627 37.7075 18.3339C37.7485 18.6826 37.6308 18.7484 37.3269 18.7442C36.3731 18.7296 35.4173 18.7526 34.4636 18.7317C34.1167 18.7244 33.9887 18.8184 33.9867 19.1953C33.9806 20.3835 33.9662 20.3835 35.1267 20.3835C35.8768 20.3835 36.6269 20.3908 37.376 20.3804C37.6339 20.3772 37.7434 20.4409 37.7106 20.7364C37.6308 21.461 37.5991 22.1919 37.422 22.903C37.0905 22.8351 36.7589 22.7714 36.4284 22.6994C36.2319 22.6565 36.1091 22.6931 36.0702 22.928C36.0354 23.1431 36.1367 23.2016 36.3097 23.2329C36.6423 23.2935 36.9738 23.3645 37.3054 23.4302C37.1519 24.3574 36.9226 25.2627 36.5195 26.1136C35.8267 25.8244 35.1226 25.5613 34.4472 25.2345C34.0594 25.0465 33.9417 25.2042 33.8373 25.5383C33.7493 25.8213 33.516 26.0781 34.0102 26.2525C34.7163 26.5 35.3958 26.8226 36.0866 27.1139C35.8389 28.039 35.3283 28.8221 34.8013 29.5968C34.5188 29.4037 34.2292 29.2199 33.956 29.0142C33.7708 28.8743 33.6684 28.9223 33.5467 29.1019C33.4198 29.2899 33.5006 29.3755 33.647 29.4705C33.9335 29.6574 34.2149 29.8526 34.4984 30.0437C34.0205 30.855 33.4474 31.5869 32.7679 32.2332C32.2184 31.6694 31.6555 31.1181 31.1244 30.5376C30.7376 30.1137 30.6271 30.5867 30.4255 30.7328C30.1973 30.8978 30.0776 31.0617 30.3702 31.3353C30.9331 31.8584 31.4529 32.4295 31.9912 32.9808C31.3997 33.718 30.6547 34.2661 29.878 34.7746C29.6907 34.4865 29.4973 34.2014 29.3172 33.908C29.2036 33.7222 29.0911 33.6908 28.9048 33.8182C28.7206 33.9435 28.7616 34.0542 28.8618 34.2004C29.0553 34.4844 29.2425 34.7736 29.4318 35.0607C28.7002 35.636 27.8886 36.0631 27.0311 36.4024C26.7487 35.7175 26.4417 35.0419 26.194 34.3455C26.0477 33.932 25.8798 33.8913 25.4961 34.0584C25.1062 34.2275 24.9762 34.3685 25.186 34.8007C25.5084 35.4648 25.7601 36.1644 26.0415 36.8483C25.1829 37.2074 24.308 37.5081 23.3809 37.623C23.3184 37.2837 23.2499 36.9443 23.1946 36.6039C23.1588 36.3836 23.0493 36.3262 22.8395 36.3711C22.6256 36.417 22.6236 36.5371 22.6615 36.7136C22.7341 37.0508 22.7924 37.3912 22.8559 37.7305C22.1488 37.9509 21.413 37.9571 20.6874 38.0354C20.3671 38.0699 20.3825 37.8538 20.3835 37.6355C20.3856 36.6614 20.3671 35.6872 20.3927 34.7141C20.403 34.3351 20.275 34.2547 19.9281 34.2567C18.8065 34.2641 18.8065 34.2494 18.8065 35.3907C18.8065 36.1383 18.7943 36.8869 18.8127 37.6334C18.8209 37.9561 18.7185 38.072 18.4013 38.0312C17.7106 37.9415 17.0085 37.9435 16.3352 37.7295C16.3997 37.3902 16.457 37.0498 16.5296 36.7125C16.5675 36.5371 16.5654 36.416 16.3516 36.3701C16.1418 36.3252 16.0333 36.3826 15.9975 36.6029C15.9412 36.9433 15.8737 37.2826 15.8112 37.622C14.8841 37.5061 14.0092 37.2074 13.1506 36.8472C13.4381 36.1466 13.695 35.4303 14.0255 34.7517C14.2435 34.3048 14.0296 34.2035 13.6929 34.0657C13.3778 33.9362 13.169 33.8412 13.0145 34.2975C12.773 35.0148 12.4496 35.7039 12.161 36.4045L12.1661 36.4024ZM12.8906 29.6595C14.441 30.1283 16.0077 30.524 17.5939 30.8425C18.2202 31.116 18.8792 31.2591 19.5515 31.351C19.7061 31.4105 19.8524 31.3541 20.0008 31.3165C22.7229 30.6232 25.4429 29.9195 28.1701 29.247C28.7268 29.1103 28.8997 28.8169 28.8936 28.2572C28.871 26.1742 28.8905 24.0912 28.8813 22.0071C28.8782 21.3671 28.9345 20.7239 28.8444 20.0849C28.8946 18.9687 28.8946 17.8515 28.8444 16.7353C28.9151 16.3563 28.8956 15.9762 28.8577 15.5962C28.914 14.8925 28.8199 14.7484 28.1496 14.5771C25.4419 13.887 22.7331 13.201 20.0253 12.5108C19.8063 12.4555 19.5914 12.421 19.3704 12.4774C16.5307 13.201 13.6909 13.9256 10.8511 14.6481C10.5513 14.7243 10.362 14.9008 10.3558 15.2224C10.3466 15.7236 10.2924 16.2279 10.3855 16.727V20.0943C10.2852 22.9364 10.361 25.7795 10.3487 28.6227C10.3477 28.8733 10.492 29.0695 10.7202 29.1322C11.4385 29.3274 12.1436 29.5864 12.8906 29.6574V29.6595ZM23.1271 11.5304C23.0841 11.4354 23.0452 11.3205 22.9838 11.2182C22.0096 9.58518 21.0374 7.95113 20.053 6.32438C19.7654 5.84931 19.4543 5.85557 19.1616 6.33169C18.6193 7.21502 18.0902 8.10774 17.5571 8.99734C17.1037 9.75328 16.6535 10.5113 16.2022 11.2693C16.0753 11.4823 16.0364 11.7006 16.2431 11.8802C16.4426 12.0535 16.6524 12.0075 16.8469 11.8509C16.9001 11.8081 16.9543 11.7653 17.0085 11.7235C18.6285 10.4831 20.6424 10.4967 22.2654 11.7538C22.3718 11.8363 22.4844 11.9376 22.6082 11.9647C22.9214 12.0347 23.0882 11.8708 23.125 11.5304H23.1271Z" fill="white"/>
<path d="M3.11061 12.0118C3.80136 12.3021 4.48187 12.6258 5.18695 12.8732C5.68225 13.0466 5.44893 13.3045 5.3599 13.5874C5.25552 13.9215 5.13783 14.0782 4.74999 13.8913C4.07459 13.5645 3.37053 13.3013 2.67773 13.0121C2.73913 12.6414 2.83226 12.2854 3.10958 12.0129L3.11061 12.0118Z" fill="#01491E"/>
<path d="M36.5257 13.0111C35.8329 13.3003 35.1289 13.5634 34.4535 13.8902C34.0656 14.0782 33.9469 13.9226 33.8436 13.5874C33.7555 13.3045 33.5212 13.0476 34.0165 12.8732C34.7216 12.6258 35.4021 12.3021 36.0939 12.0118C36.3722 12.2844 36.4643 12.6414 36.5267 13.0111H36.5257Z" fill="#01491E"/>
<path d="M2.67876 26.1157C3.37053 25.8265 4.07561 25.5633 4.75101 25.2365C5.13783 25.0496 5.25756 25.2042 5.36092 25.5393C5.44893 25.8223 5.68327 26.0791 5.18798 26.2535C4.4829 26.501 3.80238 26.8246 3.11061 27.1149C2.83226 26.8424 2.74016 26.4853 2.67773 26.1157H2.67876Z" fill="#01491E"/>
<path d="M36.0939 27.116C35.4032 26.8257 34.7227 26.5021 34.0176 26.2546C33.5223 26.0813 33.7556 25.8234 33.8446 25.5404C33.949 25.2063 34.0667 25.0486 34.4546 25.2366C35.13 25.5634 35.834 25.8265 36.5268 26.1157C36.4644 26.4853 36.3733 26.8424 36.095 27.1149L36.0939 27.116Z" fill="#01491E"/>
<path d="M13.1558 2.2804C13.4372 2.9643 13.689 3.66386 14.0113 4.32792C14.2211 4.76019 14.0912 4.9001 13.7013 5.07029C13.3175 5.23735 13.1507 5.19767 13.0033 4.78316C12.7557 4.08568 12.4487 3.41014 12.1663 2.72519C12.461 2.49548 12.8028 2.37541 13.1558 2.2804Z" fill="#01491E"/>
<path d="M27.0383 2.7242C26.7497 3.42481 26.4263 4.11393 26.1848 4.83124C26.0313 5.28648 25.8226 5.19251 25.5063 5.06304C25.1697 4.92521 24.9558 4.82393 25.1738 4.37705C25.5043 3.69837 25.7601 2.9821 26.0487 2.28149C26.4018 2.37547 26.7425 2.49867 27.0393 2.72525L27.0383 2.7242Z" fill="#01491E"/>
<path d="M12.1663 36.4025C12.4548 35.7019 12.7772 35.0128 13.0197 34.2954C13.1732 33.8392 13.382 33.9342 13.6982 34.0637C14.0349 34.2015 14.2487 34.3028 14.0308 34.7496C13.7002 35.4283 13.4444 36.1446 13.1558 36.8452C12.8028 36.7512 12.462 36.6291 12.1663 36.4014V36.4025Z" fill="#01491E"/>
<path d="M26.0479 36.8462C25.7665 36.1623 25.5148 35.4628 25.1924 34.7987C24.9826 34.3664 25.1126 34.2265 25.5025 34.0563C25.8873 33.8893 26.0541 33.93 26.2004 34.3435C26.448 35.0409 26.755 35.7165 27.0375 36.4004C26.7417 36.6291 26.401 36.7512 26.0479 36.8452V36.8462Z" fill="#01491E"/>
<path d="M32.7763 6.89224C32.2268 7.45607 31.664 8.00632 31.1329 8.5879C30.7461 9.01181 30.6355 8.53987 30.4339 8.39265C30.2068 8.22768 30.084 8.06375 30.3787 7.79019C30.9415 7.26708 31.4614 6.69595 31.9996 6.14465C32.3547 6.28979 32.5788 6.57588 32.7774 6.8912L32.7763 6.89224Z" fill="#01491E"/>
<path d="M31.9993 32.9819C31.4611 32.4306 30.9412 31.8594 30.3784 31.3363C30.0857 31.0638 30.2054 30.8999 30.4336 30.7339C30.6352 30.5877 30.7457 30.1147 31.1326 30.5386C31.6637 31.1202 32.2265 31.6705 32.776 32.2343C32.5785 32.5496 32.3534 32.8357 31.9993 32.9808V32.9819Z" fill="#01491E"/>
<path d="M7.20522 6.14575C7.7435 6.69705 8.26335 7.26818 8.82619 7.79129C9.11886 8.06381 9.00015 8.22773 8.77093 8.39375C8.56933 8.53992 8.45881 9.01291 8.07199 8.589C7.54088 8.00742 6.97804 7.45717 6.42749 6.89334C6.62499 6.57802 6.85013 6.29193 7.2042 6.1468L7.20522 6.14575Z" fill="#01491E"/>
<path d="M6.42851 32.2343C6.97804 31.6704 7.5419 31.1202 8.07199 30.5386C8.45881 30.1147 8.56933 30.5866 8.77093 30.7328C8.99811 30.8978 9.12091 31.0617 8.82619 31.3342C8.26335 31.8573 7.7435 32.4285 7.20522 32.9798C6.85115 32.8346 6.62602 32.5485 6.42749 32.2332L6.42851 32.2343Z" fill="#01491E"/>
<path d="M34.8083 9.52874C34.5259 9.7219 34.2373 9.90567 33.9631 10.1114C33.7778 10.2513 33.6765 10.2043 33.5537 10.0237C33.4268 9.83675 33.5066 9.75009 33.654 9.65403C33.9405 9.46714 34.222 9.27188 34.5054 9.08081C34.6518 9.19775 34.7653 9.33766 34.8073 9.52769L34.8083 9.52874Z" fill="#35887B"/>
<path d="M37.428 16.2216C37.0965 16.2894 36.7649 16.3531 36.4344 16.4252C36.2379 16.468 36.1151 16.4314 36.0762 16.1975C36.0414 15.9824 36.1417 15.924 36.3157 15.8927C36.6482 15.8321 36.9798 15.7611 37.3114 15.6953C37.3789 15.8645 37.4434 16.0347 37.428 16.2226V16.2216Z" fill="#35887B"/>
<path d="M37.3114 23.4322C36.9799 23.3654 36.6483 23.2955 36.3157 23.2349C36.1418 23.2036 36.0404 23.1451 36.0763 22.93C36.1141 22.6951 36.2379 22.6596 36.4344 22.7013C36.765 22.7734 37.0975 22.8371 37.4281 22.905C37.4434 23.0929 37.379 23.2631 37.3114 23.4322Z" fill="#35887B"/>
<path d="M34.5066 30.0457C34.2231 29.8546 33.9407 29.6593 33.6552 29.4724C33.5089 29.3764 33.427 29.2908 33.5549 29.1039C33.6767 28.9232 33.779 28.8763 33.9642 29.0162C34.2375 29.2219 34.5271 29.4056 34.8095 29.5988C34.7665 29.7888 34.654 29.9287 34.5076 30.0457H34.5066Z" fill="#35887B"/>
<path d="M4.69812 9.08203C4.98159 9.27311 5.26403 9.46836 5.55056 9.65525C5.69792 9.75131 5.77774 9.83693 5.65085 10.0249C5.52805 10.2055 5.42674 10.2514 5.24152 10.1115C4.96828 9.90584 4.67868 9.72208 4.39624 9.52892C4.44024 9.33993 4.55281 9.19897 4.69915 9.08203H4.69812Z" fill="#35887B"/>
<path d="M4.39624 29.5979C4.67868 29.4048 4.96828 29.221 5.24152 29.0153C5.42674 28.8754 5.52805 28.9224 5.65085 29.103C5.77774 29.291 5.69792 29.3766 5.55056 29.4716C5.26403 29.6585 4.98261 29.8537 4.69812 30.0448C4.55179 29.9279 4.43922 29.788 4.39624 29.5979Z" fill="#35887B"/>
<path d="M9.76551 4.06592C9.95483 4.35305 10.1411 4.64227 10.3355 4.92627C10.4348 5.07245 10.4767 5.18313 10.2925 5.30842C10.1053 5.43581 9.99371 5.40344 9.88012 5.21863C9.70002 4.92523 9.50763 4.64019 9.31934 4.35201C9.42679 4.19017 9.58745 4.11395 9.76551 4.06696V4.06592Z" fill="#35887B"/>
<path d="M29.8863 4.35218C29.699 4.64036 29.5056 4.92541 29.3265 5.21881C29.2129 5.40466 29.1014 5.43598 28.9141 5.30964C28.7299 5.18435 28.7698 5.07367 28.8701 4.9275C29.0635 4.64349 29.2497 4.35427 29.4401 4.06714C29.6181 4.11412 29.7788 4.19035 29.8873 4.35218H29.8863Z" fill="#35887B"/>
<path d="M9.3186 34.7758C9.50587 34.4876 9.69928 34.2026 9.87939 33.9092C9.99298 33.7244 10.1045 33.691 10.2918 33.8183C10.476 33.9436 10.4351 34.0543 10.3358 34.2005C10.1424 34.4845 9.95614 34.7737 9.7658 35.0609C9.58774 35.0139 9.42708 34.9376 9.3186 34.7758Z" fill="#35887B"/>
<path d="M29.4395 35.0608C29.2502 34.7737 29.0639 34.4845 28.8695 34.2005C28.7702 34.0543 28.7283 33.9436 28.9125 33.8183C29.0997 33.692 29.2113 33.7223 29.3249 33.9081C29.5039 34.2015 29.6974 34.4866 29.8856 34.7747C29.7782 34.9366 29.6175 35.0128 29.4395 35.0598V35.0608Z" fill="#35887B"/>
<path d="M16.3414 1.39722C16.4058 1.73656 16.4642 2.07695 16.5358 2.4142C16.5737 2.58961 16.5716 2.71073 16.3577 2.75667C16.148 2.80157 16.0395 2.74414 16.0027 2.52487C15.9464 2.18449 15.8788 1.84515 15.8164 1.50581C15.974 1.38365 16.1562 1.38469 16.3404 1.39722H16.3414Z" fill="#35887B"/>
<path d="M23.387 1.50574C23.3245 1.84508 23.256 2.18442 23.2007 2.52481C23.1649 2.74407 23.0564 2.80254 22.8466 2.75765C22.6328 2.7117 22.6307 2.59163 22.6686 2.41517C22.7412 2.07792 22.7996 1.73754 22.863 1.3982C23.0472 1.38567 23.2294 1.38463 23.388 1.50679L23.387 1.50574Z" fill="#35887B"/>
<path d="M15.8174 37.621C15.8799 37.2816 15.9484 36.9423 16.0037 36.6019C16.0395 36.3826 16.148 36.3242 16.3577 36.3691C16.5716 36.415 16.5737 36.5351 16.5358 36.7115C16.4632 37.0488 16.4048 37.3892 16.3414 37.7285C16.1572 37.741 15.975 37.7421 15.8164 37.6199L15.8174 37.621Z" fill="#35887B"/>
<path d="M22.863 37.7295C22.7985 37.3901 22.7412 37.0497 22.6686 36.7125C22.6307 36.5371 22.6328 36.416 22.8466 36.37C23.0564 36.3251 23.1649 36.3826 23.2017 36.6029C23.258 36.9432 23.3256 37.2826 23.388 37.6219C23.2304 37.7441 23.0482 37.743 22.863 37.7305V37.7295Z" fill="#35887B"/>
<path d="M28.8444 20.087C28.9345 20.726 28.8792 21.3682 28.8813 22.0093C28.8894 24.0923 28.871 26.1764 28.8935 28.2594C28.8997 28.819 28.7257 29.1124 28.17 29.2492C25.4429 29.9216 22.7228 30.6254 20.0008 31.3187C19.8524 31.3562 19.7071 31.4126 19.5515 31.3531C19.5566 28.3899 19.5617 25.4277 19.5669 22.4645C22.6594 21.672 25.7519 20.8806 28.8444 20.0881V20.087Z" fill="#20685D"/>
<path d="M10.3853 16.729C10.2921 16.2289 10.3464 15.7256 10.3556 15.2244C10.3617 14.9028 10.5511 14.7264 10.8509 14.6501C13.6906 13.9276 16.5304 13.203 19.3702 12.4794C19.5912 12.423 19.8061 12.4564 20.0251 12.5128C22.7328 13.204 25.4416 13.889 28.1494 14.5791C28.8196 14.7504 28.9138 14.8945 28.8575 15.5982C28.6324 15.6703 28.4113 15.7538 28.1831 15.8133C25.4795 16.5087 22.7768 17.2051 20.0701 17.8859C19.6915 17.9809 19.5022 18.1542 19.5492 18.5625C19.5666 18.717 19.5584 18.8736 19.5615 19.0292C18.7562 18.836 17.9487 18.6523 17.1454 18.4497C14.891 17.8807 12.6376 17.3043 10.3832 16.7311L10.3853 16.729Z" fill="#35887B"/>
<path d="M10.3855 16.7291C12.6389 17.3023 14.8923 17.8787 17.1477 18.4477C17.951 18.6503 18.7584 18.8351 19.5638 19.0272C19.6313 19.0303 19.703 19.0512 19.7654 19.0345C21.0804 18.6983 22.3933 18.3516 23.7093 18.0196C25.4203 17.5873 27.1334 17.1634 28.8454 16.7364C28.8956 17.8525 28.8956 18.9698 28.8454 20.0859C25.7529 20.8784 22.6604 21.6699 19.5679 22.4623C19.4881 22.4352 19.4093 22.4018 19.3274 22.3809C16.3474 21.6187 13.3665 20.8575 10.3855 20.0953V16.728V16.7291Z" fill="#7DC193"/>
<path d="M10.3855 20.0963C13.3665 20.8575 16.3464 21.6197 19.3274 22.3819C19.4093 22.4028 19.487 22.4351 19.5679 22.4633C19.5628 25.4266 19.5577 28.3898 19.5525 31.352C18.8802 31.2601 18.2212 31.116 17.5949 30.8435C17.6021 29.0528 17.6051 27.2621 17.6174 25.4704C17.6205 25.0381 17.381 24.8596 17.0075 24.7656C15.933 24.4973 14.8616 24.2122 13.7871 23.9418C13.1465 23.78 12.8906 23.9815 12.8896 24.6508C12.8865 26.3203 12.8896 27.9899 12.8917 29.6594C12.1436 29.5884 11.4395 29.3295 10.7212 29.1342C10.493 29.0726 10.3487 28.8753 10.3497 28.6247C10.362 25.7816 10.2862 22.9384 10.3865 20.0963H10.3855Z" fill="#35887B"/>
<path d="M12.8906 29.6595C12.8896 27.9899 12.8855 26.3204 12.8886 24.6508C12.8896 23.9816 13.1454 23.78 13.786 23.9419C14.8605 24.2123 15.9309 24.4974 17.0065 24.7657C17.38 24.8586 17.6195 25.0372 17.6164 25.4705C17.6041 27.2611 17.601 29.0518 17.5939 30.8435C16.0077 30.5251 14.4399 30.1283 12.8906 29.6605V29.6595Z" fill="#7DC193"/>
<path d="M23.1274 11.5303C23.0905 11.8707 22.9237 12.0336 22.6106 11.9647C22.4867 11.9375 22.3742 11.8362 22.2678 11.7538C20.6447 10.4966 18.6308 10.4841 17.0109 11.7235C16.9566 11.7652 16.9024 11.807 16.8492 11.8509C16.6548 12.0075 16.445 12.0534 16.2454 11.8801C16.0387 11.7005 16.0776 11.4823 16.2045 11.2693C16.6558 10.5113 17.106 9.75427 17.5594 8.99728C18.0925 8.10769 18.6216 7.21496 19.164 6.33163C19.4556 5.85656 19.7677 5.85029 20.0553 6.32432C21.0397 7.95107 22.0119 9.58512 22.9861 11.2181C23.0475 11.3205 23.0864 11.4363 23.1294 11.5303H23.1274Z" fill="#F16224"/>
<path d="M28.8445 16.7375C27.1324 17.1645 25.4194 17.5874 23.7083 18.0207C22.3923 18.3538 21.0794 18.6994 19.7644 19.0356C19.702 19.0512 19.6304 19.0314 19.5628 19.0283C19.5597 18.8727 19.5679 18.715 19.5505 18.5616C19.5035 18.1533 19.6928 17.981 20.0714 17.885C22.7781 17.2052 25.4808 16.5078 28.1844 15.8124C28.4126 15.7539 28.6337 15.6704 28.8588 15.5973C28.8967 15.9774 28.9151 16.3574 28.8455 16.7364L28.8445 16.7375Z" fill="#20685D"/>
</svg>
