<svg width="92" height="70" viewBox="0 0 92 70" fill="none" xmlns="http://www.w3.org/2000/svg">
<path d="M5.50565 -0.000173418L63.7286 -0.000168328C66.7568 -0.000168063 69.2344 2.47745 69.2344 5.50563L69.2344 63.7286C69.2344 66.7568 66.7568 69.2344 63.7286 69.2344L5.50564 69.2344C2.47745 69.2344 -0.000160001 66.7568 -0.000159736 63.7286L-0.000154646 5.50563C-0.000154381 2.47744 2.47745 -0.000173683 5.50565 -0.000173418Z" fill="#FEFF99"/>
<path d="M28.2044 -0.000173418L86.4273 -0.000168328C89.4555 -0.000168063 91.9331 2.47744 91.9331 5.50563L91.9331 63.7286C91.9331 66.7568 89.4555 69.2344 86.4273 69.2344L28.2044 69.2344C25.1762 69.2344 22.6986 66.7568 22.6986 63.7286L22.6986 5.50563C22.6986 2.47743 25.1762 -0.000173683 28.2044 -0.000173418Z" fill="#CCAE2E"/>
<path d="M10.1258 5.69556L12.6309 5.69556C15.6591 5.69556 18.1367 8.17318 18.1367 11.2014L18.1367 58.0333C18.1367 61.0615 15.6591 63.5391 12.6309 63.5391L10.1258 63.5391C7.09759 63.5391 4.61998 61.0615 4.61998 58.0333L4.61998 11.2014C4.61998 8.17317 7.0976 5.69556 10.1258 5.69556Z" fill="#CCAE2E"/>
<path d="M33.905 5.70044L80.7369 5.70045C83.7651 5.70045 86.2427 8.17805 86.2427 11.2062L86.2427 58.0381C86.2427 61.0663 83.7651 63.5439 80.7369 63.5439L33.905 63.5439C30.8768 63.5439 28.3992 61.0663 28.3992 58.0381L28.3992 11.2062C28.3992 8.17805 30.8768 5.70044 33.905 5.70044Z" fill="#FEFF99"/>
<path d="M56.3363 44.815C60.2974 46.1758 65.6438 46.3014 72.3755 45.1918C73.4361 45.0034 73.9773 45.0453 73.9989 45.3174C74.0206 45.6943 73.7175 46.0502 73.0898 46.4061L68.4577 49.0441C67.6352 49.5047 66.488 49.7978 65.0161 49.9025C61.9425 50.1118 59.41 49.9863 57.4186 49.5047C51.6393 48.102 49.2367 44.0194 50.2107 37.2779C50.7086 33.8443 52.0506 30.7457 54.2584 28.024C51.7259 26.9353 50.5138 25.8466 50.6436 24.7789C51.0333 21.5756 52.5051 19.1261 55.1026 17.4302C56.055 16.8021 57.1589 16.865 58.3927 17.5977C59.2801 18.1211 59.9295 18.6864 60.3624 19.2726C60.5355 19.5448 60.6005 19.7751 60.5355 19.9635C60.449 20.1519 60.1243 20.1938 59.5399 20.0682C56.9641 19.5448 54.6047 20.4869 52.4402 22.8737C54.1502 24.1927 56.055 24.7998 58.1329 24.6742C58.4359 24.6533 58.9121 24.4439 59.5615 24.0461C61.5745 22.7481 62.9598 21.9106 63.7174 21.5128C64.8646 20.9057 65.3192 21.0103 65.0811 21.8478L63.9555 24.4648C63.804 24.8207 63.5875 25.0511 63.3061 25.1767C61.5962 25.9513 59.5182 27.1656 57.0939 28.8615C53.7606 31.1645 51.9207 34.1165 51.5744 37.7385C51.1631 41.2139 52.7649 43.5797 56.3363 44.815Z" fill="#CCAE2E"/>
</svg>
