<svg width="60" height="65" viewBox="0 0 60 65" fill="none" xmlns="http://www.w3.org/2000/svg">
<path d="M0.0823975 5.15918C0.0823975 2.39775 2.32097 0.15918 5.0824 0.15918H54.011C56.7724 0.15918 59.011 2.39776 59.011 5.15918V59.5273C59.011 62.2887 56.7724 64.5273 54.011 64.5273H5.0824C2.32097 64.5273 0.0823975 62.2887 0.0823975 59.5273V5.15918Z" fill="url(#paint0_linear_3219_5246)"/>
<mask id="path-2-outside-1_3219_5246" maskUnits="userSpaceOnUse" x="18.9341" y="43.582" width="21" height="11" fill="black">
<rect fill="white" x="18.9341" y="43.582" width="21" height="11"/>
<path d="M24.2603 46.8438L22.1802 53.582H19.9712L23.106 45.0508H24.5063L24.2603 46.8438ZM25.9829 53.582L23.897 46.8438L23.6274 45.0508H25.0454L28.1978 53.582H25.9829ZM25.9009 50.4004V51.9883H21.5239V50.4004H25.9009ZM32.0532 51.8008C32.0532 51.6914 32.0161 51.5977 31.9419 51.5195C31.8716 51.4375 31.7466 51.3633 31.5669 51.2969C31.3872 51.2266 31.1353 51.1562 30.811 51.0859C30.5024 51.0195 30.2114 50.9316 29.938 50.8223C29.6685 50.7129 29.4321 50.5801 29.229 50.4238C29.0259 50.2676 28.8657 50.082 28.7485 49.8672C28.6353 49.6523 28.5786 49.4062 28.5786 49.1289C28.5786 48.8594 28.6353 48.6055 28.7485 48.3672C28.8657 48.125 29.0356 47.9121 29.2583 47.7285C29.4849 47.541 29.7603 47.3945 30.0845 47.2891C30.4087 47.1797 30.7778 47.125 31.1919 47.125C31.7622 47.125 32.2544 47.2129 32.6685 47.3887C33.0825 47.5605 33.4009 47.8027 33.6235 48.1152C33.8501 48.4238 33.9634 48.7812 33.9634 49.1875H31.9888C31.9888 49.0273 31.9614 48.8906 31.9067 48.7773C31.856 48.6641 31.772 48.5781 31.6548 48.5195C31.5376 48.457 31.3813 48.4258 31.186 48.4258C31.0493 48.4258 30.9243 48.4512 30.811 48.502C30.7017 48.5527 30.6138 48.623 30.5474 48.7129C30.481 48.8027 30.4478 48.9082 30.4478 49.0293C30.4478 49.1152 30.4673 49.1934 30.5063 49.2637C30.5493 49.3301 30.6138 49.3926 30.6997 49.4512C30.7856 49.5059 30.895 49.5566 31.0278 49.6035C31.1606 49.6465 31.3208 49.6855 31.5083 49.7207C31.9341 49.7988 32.3325 49.9102 32.7036 50.0547C33.0747 50.1992 33.3755 50.4043 33.606 50.6699C33.8403 50.9355 33.9575 51.293 33.9575 51.7422C33.9575 52.0234 33.8931 52.2832 33.7642 52.5215C33.6353 52.7559 33.4497 52.9629 33.2075 53.1426C32.9653 53.3184 32.6743 53.4551 32.3345 53.5527C31.9946 53.6504 31.6118 53.6992 31.186 53.6992C30.5806 53.6992 30.0688 53.5918 29.6509 53.377C29.2329 53.1582 28.9165 52.8848 28.7017 52.5566C28.4907 52.2246 28.3853 51.8887 28.3853 51.5488H30.2251C30.2329 51.7441 30.2798 51.9043 30.3657 52.0293C30.4556 52.1543 30.5747 52.2461 30.7231 52.3047C30.8716 52.3633 31.0435 52.3926 31.2388 52.3926C31.4185 52.3926 31.5669 52.3672 31.6841 52.3164C31.8052 52.2656 31.897 52.1973 31.9595 52.1113C32.022 52.0215 32.0532 51.918 32.0532 51.8008ZM36.8755 48.8125V53.582H34.9009V47.2422H36.7466L36.8755 48.8125ZM38.7505 47.1953L38.7153 49.0293C38.6372 49.0215 38.5317 49.0117 38.3989 49C38.2661 48.9883 38.1548 48.9824 38.0649 48.9824C37.8345 48.9824 37.6353 49.0098 37.4673 49.0645C37.3032 49.1152 37.1665 49.1934 37.0571 49.2988C36.9517 49.4004 36.8735 49.5293 36.8228 49.6855C36.7759 49.8418 36.7544 50.0234 36.7583 50.2305L36.4009 49.9961C36.4009 49.5703 36.4419 49.1836 36.5239 48.8359C36.6099 48.4844 36.731 48.1816 36.8872 47.9277C37.0435 47.6699 37.2329 47.4727 37.4556 47.3359C37.6782 47.1953 37.9282 47.125 38.2056 47.125C38.3032 47.125 38.3989 47.1309 38.4927 47.1426C38.5903 47.1543 38.6763 47.1719 38.7505 47.1953Z"/>
</mask>
<path d="M24.2603 46.8438L22.1802 53.582H19.9712L23.106 45.0508H24.5063L24.2603 46.8438ZM25.9829 53.582L23.897 46.8438L23.6274 45.0508H25.0454L28.1978 53.582H25.9829ZM25.9009 50.4004V51.9883H21.5239V50.4004H25.9009ZM32.0532 51.8008C32.0532 51.6914 32.0161 51.5977 31.9419 51.5195C31.8716 51.4375 31.7466 51.3633 31.5669 51.2969C31.3872 51.2266 31.1353 51.1562 30.811 51.0859C30.5024 51.0195 30.2114 50.9316 29.938 50.8223C29.6685 50.7129 29.4321 50.5801 29.229 50.4238C29.0259 50.2676 28.8657 50.082 28.7485 49.8672C28.6353 49.6523 28.5786 49.4062 28.5786 49.1289C28.5786 48.8594 28.6353 48.6055 28.7485 48.3672C28.8657 48.125 29.0356 47.9121 29.2583 47.7285C29.4849 47.541 29.7603 47.3945 30.0845 47.2891C30.4087 47.1797 30.7778 47.125 31.1919 47.125C31.7622 47.125 32.2544 47.2129 32.6685 47.3887C33.0825 47.5605 33.4009 47.8027 33.6235 48.1152C33.8501 48.4238 33.9634 48.7812 33.9634 49.1875H31.9888C31.9888 49.0273 31.9614 48.8906 31.9067 48.7773C31.856 48.6641 31.772 48.5781 31.6548 48.5195C31.5376 48.457 31.3813 48.4258 31.186 48.4258C31.0493 48.4258 30.9243 48.4512 30.811 48.502C30.7017 48.5527 30.6138 48.623 30.5474 48.7129C30.481 48.8027 30.4478 48.9082 30.4478 49.0293C30.4478 49.1152 30.4673 49.1934 30.5063 49.2637C30.5493 49.3301 30.6138 49.3926 30.6997 49.4512C30.7856 49.5059 30.895 49.5566 31.0278 49.6035C31.1606 49.6465 31.3208 49.6855 31.5083 49.7207C31.9341 49.7988 32.3325 49.9102 32.7036 50.0547C33.0747 50.1992 33.3755 50.4043 33.606 50.6699C33.8403 50.9355 33.9575 51.293 33.9575 51.7422C33.9575 52.0234 33.8931 52.2832 33.7642 52.5215C33.6353 52.7559 33.4497 52.9629 33.2075 53.1426C32.9653 53.3184 32.6743 53.4551 32.3345 53.5527C31.9946 53.6504 31.6118 53.6992 31.186 53.6992C30.5806 53.6992 30.0688 53.5918 29.6509 53.377C29.2329 53.1582 28.9165 52.8848 28.7017 52.5566C28.4907 52.2246 28.3853 51.8887 28.3853 51.5488H30.2251C30.2329 51.7441 30.2798 51.9043 30.3657 52.0293C30.4556 52.1543 30.5747 52.2461 30.7231 52.3047C30.8716 52.3633 31.0435 52.3926 31.2388 52.3926C31.4185 52.3926 31.5669 52.3672 31.6841 52.3164C31.8052 52.2656 31.897 52.1973 31.9595 52.1113C32.022 52.0215 32.0532 51.918 32.0532 51.8008ZM36.8755 48.8125V53.582H34.9009V47.2422H36.7466L36.8755 48.8125ZM38.7505 47.1953L38.7153 49.0293C38.6372 49.0215 38.5317 49.0117 38.3989 49C38.2661 48.9883 38.1548 48.9824 38.0649 48.9824C37.8345 48.9824 37.6353 49.0098 37.4673 49.0645C37.3032 49.1152 37.1665 49.1934 37.0571 49.2988C36.9517 49.4004 36.8735 49.5293 36.8228 49.6855C36.7759 49.8418 36.7544 50.0234 36.7583 50.2305L36.4009 49.9961C36.4009 49.5703 36.4419 49.1836 36.5239 48.8359C36.6099 48.4844 36.731 48.1816 36.8872 47.9277C37.0435 47.6699 37.2329 47.4727 37.4556 47.3359C37.6782 47.1953 37.9282 47.125 38.2056 47.125C38.3032 47.125 38.3989 47.1309 38.4927 47.1426C38.5903 47.1543 38.6763 47.1719 38.7505 47.1953Z" fill="#FCFCFC"/>
<path d="M24.2603 46.8438L24.738 46.9912L24.7501 46.9522L24.7556 46.9117L24.2603 46.8438ZM22.1802 53.582V54.082H22.5491L22.6579 53.7295L22.1802 53.582ZM19.9712 53.582L19.5019 53.4096L19.2548 54.082H19.9712V53.582ZM23.106 45.0508V44.5508H22.757L22.6366 44.8783L23.106 45.0508ZM24.5063 45.0508L25.0017 45.1188L25.0797 44.5508H24.5063V45.0508ZM25.9829 53.582L25.5053 53.7299L25.6143 54.082H25.9829V53.582ZM23.897 46.8438L23.4025 46.9181L23.4082 46.9555L23.4193 46.9916L23.897 46.8438ZM23.6274 45.0508V44.5508H23.0467L23.133 45.1251L23.6274 45.0508ZM25.0454 45.0508L25.5144 44.8775L25.3937 44.5508H25.0454V45.0508ZM28.1978 53.582V54.082H28.9155L28.6668 53.4087L28.1978 53.582ZM25.9009 50.4004H26.4009V49.9004H25.9009V50.4004ZM25.9009 51.9883V52.4883H26.4009V51.9883H25.9009ZM21.5239 51.9883H21.0239V52.4883H21.5239V51.9883ZM21.5239 50.4004V49.9004H21.0239V50.4004H21.5239ZM23.7825 46.6963L21.7024 53.4346L22.6579 53.7295L24.738 46.9912L23.7825 46.6963ZM22.1802 53.082H19.9712V54.082H22.1802V53.082ZM20.4405 53.7545L23.5753 45.2232L22.6366 44.8783L19.5019 53.4096L20.4405 53.7545ZM23.106 45.5508H24.5063V44.5508H23.106V45.5508ZM24.011 44.9828L23.7649 46.7758L24.7556 46.9117L25.0017 45.1188L24.011 44.9828ZM26.4605 53.4342L24.3746 46.6959L23.4193 46.9916L25.5053 53.7299L26.4605 53.4342ZM24.3914 46.7694L24.1219 44.9765L23.133 45.1251L23.4025 46.9181L24.3914 46.7694ZM23.6274 45.5508H25.0454V44.5508H23.6274V45.5508ZM24.5764 45.2241L27.7287 53.7553L28.6668 53.4087L25.5144 44.8775L24.5764 45.2241ZM28.1978 53.082H25.9829V54.082H28.1978V53.082ZM25.4009 50.4004V51.9883H26.4009V50.4004H25.4009ZM25.9009 51.4883H21.5239V52.4883H25.9009V51.4883ZM22.0239 51.9883V50.4004H21.0239V51.9883H22.0239ZM21.5239 50.9004H25.9009V49.9004H21.5239V50.9004ZM31.9419 51.5195L31.5623 51.8449L31.5706 51.8546L31.5794 51.8639L31.9419 51.5195ZM31.5669 51.2969L31.3847 51.7626L31.3936 51.7659L31.5669 51.2969ZM30.811 51.0859L30.917 50.5973L30.9162 50.5971L30.811 51.0859ZM29.938 50.8223L29.75 51.2856L29.7523 51.2865L29.938 50.8223ZM28.7485 49.8672L28.3062 50.1004L28.3096 50.1066L28.7485 49.8672ZM28.7485 48.3672L28.2984 48.1494L28.297 48.1525L28.7485 48.3672ZM29.2583 47.7285L29.5764 48.1143L29.5771 48.1137L29.2583 47.7285ZM30.0845 47.2891L30.2392 47.7646L30.2443 47.7628L30.0845 47.2891ZM32.6685 47.3887L32.4731 47.8489L32.4768 47.8505L32.6685 47.3887ZM33.6235 48.1152L33.2163 48.4054L33.2205 48.4111L33.6235 48.1152ZM33.9634 49.1875V49.6875H34.4634V49.1875H33.9634ZM31.9888 49.1875H31.4888V49.6875H31.9888V49.1875ZM31.9067 48.7773L31.4505 48.9819L31.4534 48.9883L31.4565 48.9947L31.9067 48.7773ZM31.6548 48.5195L31.4194 48.9609L31.4312 48.9667L31.6548 48.5195ZM30.811 48.502L30.6065 48.0457L30.6005 48.0484L30.811 48.502ZM30.5063 49.2637L30.0693 49.5065L30.0774 49.5212L30.0866 49.5353L30.5063 49.2637ZM30.6997 49.4512L30.418 49.8643L30.4246 49.8687L30.4313 49.873L30.6997 49.4512ZM31.0278 49.6035L30.8614 50.0752L30.8739 50.0792L31.0278 49.6035ZM31.5083 49.7207L31.4162 50.2121L31.4181 50.2125L31.5083 49.7207ZM33.606 50.6699L33.2283 50.9976L33.231 51.0007L33.606 50.6699ZM33.7642 52.5215L34.2023 52.7624L34.2039 52.7594L33.7642 52.5215ZM33.2075 53.1426L33.5012 53.5473L33.5054 53.5441L33.2075 53.1426ZM29.6509 53.377L29.419 53.82L29.4223 53.8216L29.6509 53.377ZM28.7017 52.5566L28.2796 52.8248L28.2834 52.8305L28.7017 52.5566ZM28.3853 51.5488V51.0488H27.8853V51.5488H28.3853ZM30.2251 51.5488L30.7247 51.5288L30.7055 51.0488H30.2251V51.5488ZM30.3657 52.0293L29.9536 52.3126L29.9597 52.3211L30.3657 52.0293ZM31.6841 52.3164L31.4907 51.8553L31.4853 51.8576L31.6841 52.3164ZM31.9595 52.1113L32.3639 52.4055L32.3699 52.3969L31.9595 52.1113ZM32.5532 51.8008C32.5532 51.5654 32.4684 51.3477 32.3044 51.1752L31.5794 51.8639C31.5755 51.8598 31.5671 51.8491 31.5605 51.8325C31.554 51.816 31.5532 51.8037 31.5532 51.8008H32.5532ZM32.3215 51.1941C32.1679 51.0149 31.9466 50.9042 31.7402 50.8279L31.3936 51.7659C31.4634 51.7917 31.5104 51.8146 31.5401 51.8323C31.5709 51.8505 31.5725 51.8568 31.5623 51.8449L32.3215 51.1941ZM31.7491 50.8313C31.5332 50.7468 31.2516 50.6699 30.917 50.5973L30.7051 51.5746C31.0189 51.6426 31.2412 51.7063 31.3847 51.7625L31.7491 50.8313ZM30.9162 50.5971C30.6332 50.5362 30.3692 50.4562 30.1237 50.358L29.7523 51.2865C30.0536 51.407 30.3717 51.5028 30.7058 51.5747L30.9162 50.5971ZM30.126 50.359C29.8927 50.2643 29.6968 50.1529 29.5339 50.0275L28.9241 50.8201C29.1675 51.0073 29.4442 51.1615 29.75 51.2856L30.126 50.359ZM29.5339 50.0275C29.3832 49.9116 29.2698 49.7787 29.1875 49.6278L28.3096 50.1066C28.4616 50.3854 28.6686 50.6235 28.9241 50.8201L29.5339 50.0275ZM29.1908 49.634C29.1205 49.5007 29.0786 49.3366 29.0786 49.1289H28.0786C28.0786 49.4759 28.15 49.804 28.3063 50.1004L29.1908 49.634ZM29.0786 49.1289C29.0786 48.932 29.1194 48.7516 29.2001 48.5819L28.297 48.1525C28.1511 48.4593 28.0786 48.7868 28.0786 49.1289H29.0786ZM29.1986 48.585C29.2822 48.4123 29.4052 48.2554 29.5764 48.1143L28.9402 47.3427C28.6661 47.5688 28.4493 47.8377 28.2985 48.1494L29.1986 48.585ZM29.5771 48.1137C29.748 47.9722 29.9654 47.8536 30.2391 47.7645L29.9298 46.8136C29.5551 46.9355 29.2217 47.1098 28.9395 47.3433L29.5771 48.1137ZM30.2443 47.7628C30.5075 47.674 30.8211 47.625 31.1919 47.625V46.625C30.7345 46.625 30.3099 46.6853 29.9246 46.8153L30.2443 47.7628ZM31.1919 47.625C31.7124 47.625 32.135 47.7054 32.4731 47.8489L32.8638 46.9284C32.3738 46.7204 31.812 46.625 31.1919 46.625V47.625ZM32.4768 47.8505C32.8191 47.9926 33.0566 48.1812 33.2163 48.4054L34.0307 47.8251C33.7451 47.4242 33.3459 47.1285 32.8601 46.9269L32.4768 47.8505ZM33.2205 48.4111C33.3801 48.6285 33.4634 48.8808 33.4634 49.1875H34.4634C34.4634 48.6817 34.3201 48.2191 34.0266 47.8193L33.2205 48.4111ZM33.9634 48.6875H31.9888V49.6875H33.9634V48.6875ZM32.4888 49.1875C32.4888 48.972 32.4521 48.7569 32.357 48.56L31.4565 48.9947C31.4707 49.0243 31.4888 49.0827 31.4888 49.1875H32.4888ZM32.363 48.5728C32.2622 48.3481 32.0926 48.1794 31.8784 48.0723L31.4312 48.9667C31.4381 48.9702 31.4423 48.973 31.4447 48.9747C31.447 48.9763 31.448 48.9773 31.4481 48.9774C31.4482 48.9775 31.4482 48.9775 31.4483 48.9777C31.4484 48.9779 31.4492 48.9791 31.4505 48.9819L32.363 48.5728ZM31.8901 48.0784C31.6744 47.9633 31.4276 47.9258 31.186 47.9258V48.9258C31.3351 48.9258 31.4008 48.9507 31.4195 48.9607L31.8901 48.0784ZM31.186 47.9258C30.986 47.9258 30.7904 47.9633 30.6065 48.0457L31.0156 48.9582C31.0583 48.9391 31.1126 48.9258 31.186 48.9258V47.9258ZM30.6005 48.0484C30.4214 48.1316 30.2653 48.2533 30.1453 48.4157L30.9495 49.0101C30.9622 48.9928 30.9819 48.9739 31.0216 48.9555L30.6005 48.0484ZM30.1453 48.4157C30.0099 48.5989 29.9478 48.8107 29.9478 49.0293H30.9478C30.9478 49.0219 30.9483 49.0169 30.9487 49.0139C30.9491 49.011 30.9495 49.0096 30.9496 49.0095C30.9496 49.0094 30.9495 49.0098 30.9492 49.0104C30.9489 49.0109 30.9489 49.0109 30.9495 49.0101L30.1453 48.4157ZM29.9478 49.0293C29.9478 49.1942 29.9861 49.3568 30.0693 49.5065L30.9434 49.0209C30.9452 49.024 30.9466 49.0277 30.9475 49.0311C30.9483 49.0342 30.9478 49.0341 30.9478 49.0293H29.9478ZM30.0866 49.5353C30.1751 49.6722 30.2936 49.7794 30.418 49.8643L30.9814 49.0381C30.934 49.0057 30.9235 48.988 30.9261 48.992L30.0866 49.5353ZM30.4313 49.873C30.5588 49.9541 30.7054 50.0199 30.8614 50.075L31.1942 49.132C31.0847 49.0934 31.0125 49.0576 30.9681 49.0293L30.4313 49.873ZM30.8739 50.0792C31.0328 50.1306 31.2148 50.1744 31.4162 50.2121L31.6004 49.2293C31.4268 49.1967 31.2885 49.1623 31.1817 49.1278L30.8739 50.0792ZM31.4181 50.2125C31.8154 50.2854 32.183 50.3885 32.5222 50.5206L32.8851 49.5888C32.482 49.4318 32.0528 49.3123 31.5985 49.2289L31.4181 50.2125ZM32.5222 50.5206C32.8277 50.6396 33.0577 50.801 33.2283 50.9976L33.9836 50.3422C33.6932 50.0076 33.3217 49.7588 32.8851 49.5888L32.5222 50.5206ZM33.231 51.0007C33.365 51.1526 33.4575 51.3811 33.4575 51.7422H34.4575C34.4575 51.2048 34.3157 50.7185 33.9809 50.3391L33.231 51.0007ZM33.4575 51.7422C33.4575 51.9437 33.4122 52.1212 33.3244 52.2836L34.2039 52.7594C34.3739 52.4452 34.4575 52.1032 34.4575 51.7422H33.4575ZM33.3261 52.2805C33.236 52.4443 33.1014 52.5987 32.9096 52.741L33.5054 53.5441C33.798 53.3271 34.0346 53.0674 34.2023 52.7624L33.3261 52.2805ZM32.9138 52.7379C32.7264 52.874 32.4903 52.9877 32.1964 53.0722L32.4726 54.0333C32.8584 53.9224 33.2043 53.7627 33.5012 53.5472L32.9138 52.7379ZM32.1964 53.0722C31.9095 53.1546 31.5743 53.1992 31.186 53.1992V54.1992C31.6493 54.1992 32.0798 54.1462 32.4726 54.0333L32.1964 53.0722ZM31.186 53.1992C30.6379 53.1992 30.2093 53.1018 29.8795 52.9323L29.4223 53.8216C29.9284 54.0818 30.5233 54.1992 31.186 54.1992V53.1992ZM29.8827 52.934C29.525 52.7468 29.2795 52.5264 29.12 52.2827L28.2834 52.8305C28.5535 53.2432 28.9408 53.5697 29.419 53.82L29.8827 52.934ZM29.1237 52.2885C28.9555 52.0238 28.8853 51.7795 28.8853 51.5488H27.8853C27.8853 51.9978 28.026 52.4255 28.2796 52.8248L29.1237 52.2885ZM28.3853 52.0488H30.2251V51.0488H28.3853V52.0488ZM29.7255 51.5688C29.736 51.8316 29.8009 52.0903 29.9537 52.3126L30.7777 51.746C30.7587 51.7183 30.7298 51.6567 30.7247 51.5288L29.7255 51.5688ZM29.9597 52.3211C30.1077 52.527 30.3053 52.6773 30.5396 52.7698L30.9067 51.8396C30.8441 51.8149 30.8035 51.7816 30.7717 51.7375L29.9597 52.3211ZM30.5396 52.7698C30.7579 52.856 30.9943 52.8926 31.2388 52.8926V51.8926C31.0927 51.8926 30.9852 51.8706 30.9067 51.8396L30.5396 52.7698ZM31.2388 52.8926C31.461 52.8926 31.6829 52.8618 31.8829 52.7752L31.4853 51.8576C31.4509 51.8725 31.3759 51.8926 31.2388 51.8926V52.8926ZM31.8774 52.7775C32.063 52.6997 32.2362 52.5809 32.3638 52.4054L31.5551 51.8172C31.5577 51.8137 31.5473 51.8316 31.4907 51.8553L31.8774 52.7775ZM32.3699 52.3969C32.4949 52.2172 32.5532 52.0124 32.5532 51.8008H31.5532C31.5532 51.8145 31.5515 51.8207 31.5511 51.8218C31.5509 51.8226 31.5506 51.8235 31.549 51.8258L32.3699 52.3969ZM36.8755 48.8125H37.3755V48.792L37.3738 48.7716L36.8755 48.8125ZM36.8755 53.582V54.082H37.3755V53.582H36.8755ZM34.9009 53.582H34.4009V54.082H34.9009V53.582ZM34.9009 47.2422V46.7422H34.4009V47.2422H34.9009ZM36.7466 47.2422L37.2449 47.2013L37.2072 46.7422H36.7466V47.2422ZM38.7505 47.1953L39.2504 47.2049L39.2576 46.8311L38.9011 46.7185L38.7505 47.1953ZM38.7153 49.0293L38.6656 49.5268L39.2049 49.5807L39.2152 49.0389L38.7153 49.0293ZM37.4673 49.0645L37.6151 49.5421L37.6221 49.5399L37.4673 49.0645ZM37.0571 49.2988L37.4039 49.659L37.4042 49.6588L37.0571 49.2988ZM36.8228 49.6855L36.3471 49.531L36.3438 49.5419L36.8228 49.6855ZM36.7583 50.2305L36.4841 50.6486L37.2761 51.1679L37.2582 50.221L36.7583 50.2305ZM36.4009 49.9961H35.9009V50.2661L36.1267 50.4142L36.4009 49.9961ZM36.5239 48.8359L36.0382 48.7172L36.0373 48.7211L36.5239 48.8359ZM36.8872 47.9277L37.313 48.1898L37.3148 48.1869L36.8872 47.9277ZM37.4556 47.3359L37.7172 47.7621L37.7226 47.7587L37.4556 47.3359ZM38.4927 47.1426L38.4307 47.6387L38.4331 47.639L38.4927 47.1426ZM36.3755 48.8125V53.582H37.3755V48.8125H36.3755ZM36.8755 53.082H34.9009V54.082H36.8755V53.082ZM35.4009 53.582V47.2422H34.4009V53.582H35.4009ZM34.9009 47.7422H36.7466V46.7422H34.9009V47.7422ZM36.2483 47.2831L36.3772 48.8534L37.3738 48.7716L37.2449 47.2013L36.2483 47.2831ZM38.2506 47.1857L38.2154 49.0197L39.2152 49.0389L39.2504 47.2049L38.2506 47.1857ZM38.7651 48.5318C38.6842 48.5237 38.5765 48.5137 38.4429 48.5019L38.355 49.4981C38.487 49.5097 38.5903 49.5193 38.6656 49.5268L38.7651 48.5318ZM38.4429 48.5019C38.3017 48.4895 38.1746 48.4824 38.0649 48.4824V49.4824C38.1349 49.4824 38.2305 49.4871 38.355 49.4981L38.4429 48.5019ZM38.0649 48.4824C37.797 48.4824 37.543 48.514 37.3125 48.589L37.6221 49.5399C37.7275 49.5056 37.8719 49.4824 38.0649 49.4824V48.4824ZM37.3194 48.5868C37.0905 48.6577 36.8827 48.7724 36.7101 48.9389L37.4042 49.6588C37.4503 49.6143 37.5159 49.5728 37.6151 49.5421L37.3194 48.5868ZM36.7103 48.9387C36.5388 49.1038 36.4202 49.3064 36.3472 49.531L37.2983 49.8401C37.3268 49.7522 37.3645 49.697 37.4039 49.659L36.7103 48.9387ZM36.3438 49.5419C36.2787 49.759 36.2538 49.9943 36.2584 50.2399L37.2582 50.221C37.255 50.0526 37.2731 49.9245 37.3017 49.8292L36.3438 49.5419ZM37.0325 49.8123L36.6751 49.578L36.1267 50.4142L36.4841 50.6486L37.0325 49.8123ZM36.9009 49.9961C36.9009 49.6018 36.9389 49.2544 37.0106 48.9508L36.0373 48.7211C35.9449 49.1128 35.9009 49.5388 35.9009 49.9961H36.9009ZM37.0096 48.9547C37.0857 48.6433 37.1892 48.391 37.313 48.1898L36.4614 47.6657C36.2727 47.9723 36.134 48.3255 36.0382 48.7172L37.0096 48.9547ZM37.3148 48.1869C37.4362 47.9866 37.5721 47.8511 37.7172 47.762L37.1939 46.9099C36.8937 47.0942 36.6507 47.3532 36.4596 47.6686L37.3148 48.1869ZM37.7226 47.7587C37.861 47.6713 38.0175 47.625 38.2056 47.625V46.625C37.839 46.625 37.4955 46.7194 37.1886 46.9132L37.7226 47.7587ZM38.2056 47.625C38.2832 47.625 38.3582 47.6297 38.4307 47.6387L38.5547 46.6464C38.4397 46.6321 38.3233 46.625 38.2056 46.625V47.625ZM38.4331 47.639C38.5075 47.6479 38.5619 47.6601 38.5999 47.6721L38.9011 46.7185C38.7906 46.6837 38.6731 46.6606 38.5522 46.6461L38.4331 47.639Z" fill="black" mask="url(#path-2-outside-1_3219_5246)"/>
<path d="M29.5468 14.665C30.373 14.665 31.0427 15.3336 31.0427 16.1583V17.6515C31.0427 18.4761 30.373 19.1447 29.5468 19.1447C28.7207 19.1447 28.0509 18.4761 28.0509 17.6515V16.1583C28.0509 15.3336 28.7207 14.665 29.5468 14.665Z" fill="white"/>
<path d="M44.5056 29.5972C44.5056 30.4218 43.8359 31.0904 43.0097 31.0904H41.5138C40.6877 31.0904 40.018 30.4218 40.018 29.5972C40.018 28.7725 40.6877 28.104 41.5138 28.104H43.0097C43.8359 28.104 44.5056 28.7725 44.5056 29.5972Z" fill="white"/>
<path d="M17.5798 31.0904C18.4059 31.0904 19.0756 30.4218 19.0756 29.5972C19.0756 28.7725 18.4059 28.104 17.5798 28.104H16.0839C15.2577 28.104 14.588 28.7725 14.588 29.5972C14.588 30.4218 15.2577 31.0904 16.0839 31.0904H17.5798Z" fill="white"/>
<path d="M22.1426 22.2061C21.5584 22.7893 20.6113 22.7893 20.0271 22.2061L18.9693 21.1503C18.3852 20.5671 18.3852 19.6217 18.9693 19.0386C19.5535 18.4554 20.5007 18.4554 21.0848 19.0386L22.1426 20.0944C22.7268 20.6776 22.7268 21.623 22.1426 22.2061Z" fill="white"/>
<path d="M38.0088 19.0386L36.951 20.0944C36.3668 20.6776 36.3668 21.623 36.951 22.2061C37.5352 22.7893 38.4823 22.7893 39.0665 22.2061L40.1243 21.1503C40.7084 20.5671 40.7084 19.6217 40.1243 19.0386C39.5401 18.4554 38.5929 18.4554 38.0088 19.0386Z" fill="white"/>
<path d="M41.5138 38.5564C41.5138 39.3811 40.8441 40.0497 40.018 40.0497H19.0756C18.2495 40.0497 17.5798 39.3811 17.5798 38.5564C17.5798 37.7318 18.2495 37.0632 19.0756 37.0632H40.018C40.8441 37.0632 41.5138 37.7318 41.5138 38.5564Z" fill="white"/>
<path d="M24.8924 31.9943C23.8743 30.026 24.1943 27.5491 25.8447 25.9017C27.8893 23.8607 31.2043 23.8607 33.2489 25.9017C34.8993 27.5491 35.2193 30.026 34.2012 31.9943C33.8221 32.7271 34.1099 33.6278 34.844 34.0062C35.5781 34.3846 36.4804 34.0973 36.8595 33.3645C38.4577 30.2749 37.962 26.3829 35.3644 23.7899C32.1514 20.5827 26.9422 20.5827 23.7292 23.7899C21.1316 26.3829 20.6359 30.2749 22.2341 33.3645C22.6132 34.0973 23.5155 34.3846 24.2496 34.0062C24.9837 33.6278 25.2715 32.7271 24.8924 31.9943Z" fill="white"/>
<path d="M29.5468 14.665C30.373 14.665 31.0427 15.3336 31.0427 16.1583V17.6515C31.0427 18.4761 30.373 19.1447 29.5468 19.1447C28.7207 19.1447 28.0509 18.4761 28.0509 17.6515V16.1583C28.0509 15.3336 28.7207 14.665 29.5468 14.665Z" stroke="black" stroke-width="0.5" stroke-linecap="round"/>
<path d="M44.5056 29.5972C44.5056 30.4218 43.8359 31.0904 43.0097 31.0904H41.5138C40.6877 31.0904 40.018 30.4218 40.018 29.5972C40.018 28.7725 40.6877 28.104 41.5138 28.104H43.0097C43.8359 28.104 44.5056 28.7725 44.5056 29.5972Z" stroke="black" stroke-width="0.5" stroke-linecap="round"/>
<path d="M17.5798 31.0904C18.4059 31.0904 19.0756 30.4218 19.0756 29.5972C19.0756 28.7725 18.4059 28.104 17.5798 28.104H16.0839C15.2577 28.104 14.588 28.7725 14.588 29.5972C14.588 30.4218 15.2577 31.0904 16.0839 31.0904H17.5798Z" stroke="black" stroke-width="0.5" stroke-linecap="round"/>
<path d="M22.1426 22.2061C21.5584 22.7893 20.6113 22.7893 20.0271 22.2061L18.9693 21.1503C18.3852 20.5671 18.3852 19.6217 18.9693 19.0386C19.5535 18.4554 20.5007 18.4554 21.0848 19.0386L22.1426 20.0944C22.7268 20.6776 22.7268 21.623 22.1426 22.2061Z" stroke="black" stroke-width="0.5" stroke-linecap="round"/>
<path d="M38.0088 19.0386L36.951 20.0944C36.3668 20.6776 36.3668 21.623 36.951 22.2061C37.5352 22.7893 38.4823 22.7893 39.0665 22.2061L40.1243 21.1503C40.7084 20.5671 40.7084 19.6217 40.1243 19.0386C39.5401 18.4554 38.5929 18.4554 38.0088 19.0386Z" stroke="black" stroke-width="0.5" stroke-linecap="round"/>
<path d="M41.5138 38.5564C41.5138 39.3811 40.8441 40.0497 40.018 40.0497H19.0756C18.2495 40.0497 17.5798 39.3811 17.5798 38.5564C17.5798 37.7318 18.2495 37.0632 19.0756 37.0632H40.018C40.8441 37.0632 41.5138 37.7318 41.5138 38.5564Z" stroke="black" stroke-width="0.5" stroke-linecap="round"/>
<path d="M24.8924 31.9943C23.8743 30.026 24.1943 27.5491 25.8447 25.9017C27.8893 23.8607 31.2043 23.8607 33.2489 25.9017C34.8993 27.5491 35.2193 30.026 34.2012 31.9943C33.8221 32.7271 34.1099 33.6278 34.844 34.0062C35.5781 34.3846 36.4804 34.0973 36.8595 33.3645C38.4577 30.2749 37.962 26.3829 35.3644 23.7899C32.1514 20.5827 26.9422 20.5827 23.7292 23.7899C21.1316 26.3829 20.6359 30.2749 22.2341 33.3645C22.6132 34.0973 23.5155 34.3846 24.2496 34.0062C24.9837 33.6278 25.2715 32.7271 24.8924 31.9943Z" stroke="black" stroke-width="0.5" stroke-linecap="round"/>
<defs>
<linearGradient id="paint0_linear_3219_5246" x1="29.5467" y1="-21.7845" x2="29.5467" y2="81.7526" gradientUnits="userSpaceOnUse">
<stop stop-color="white"/>
<stop offset="0.240502" stop-color="#95BCE1"/>
<stop offset="0.481003" stop-color="#DCE6F2"/>
<stop offset="0.722106" stop-color="#FFCC95"/>
<stop offset="0.932405" stop-color="#FCA93D"/>
</linearGradient>
</defs>
</svg>
