<svg width="310" height="367" viewBox="0 0 310 367" fill="none" xmlns="http://www.w3.org/2000/svg">
<g filter="url(#filter0_d_2953_13143)">
<path d="M2.00024 76C2.00024 64.9543 10.9546 56 22.0002 56H288C299.046 56 308 64.9543 308 76V363H2.00024V76Z" fill="#BDE5FF"/>
<path d="M101.125 273.125H97.375L91.4688 265.156H87.0625V273.125H84.1562V253.906H93.0625C97.375 254.031 99.6562 255.875 99.9062 259.438C99.9062 262.688 98.125 264.531 94.5625 264.969L101.125 273.125ZM87.0625 256.25V262.812H92.4062C95.4062 262.812 96.875 261.719 96.8125 259.531C96.8125 257.344 95.3438 256.25 92.4062 256.25H87.0625ZM112.562 253.906L120.25 273.125H117.062L115.094 267.969H106.562L104.594 273.125H101.406L109.094 253.906H112.562ZM110.875 256.438H110.781C110.594 257 110.406 257.562 110.219 258.125C110.156 258.25 109.188 260.75 107.312 265.625H114.344C112.469 260.75 111.5 258.25 111.438 258.125C111.438 258.062 111.406 257.938 111.344 257.75C111.031 257 110.875 256.562 110.875 256.438ZM130.562 273.125L124.562 256.25H124.469V273.125H121.656V253.906H126.438L131.875 269.938H131.969L137.219 253.906H142.094V273.125H139.188V256.25H139.094C138.719 257.688 136.812 263.312 133.375 273.125H130.562ZM155.875 253.906L163.562 273.125H160.375L158.406 267.969H149.875L147.906 273.125H144.719L152.406 253.906H155.875ZM154.188 256.438H154.094C153.906 257 153.719 257.562 153.531 258.125C153.469 258.25 152.5 260.75 150.625 265.625H157.656C155.781 260.75 154.812 258.25 154.75 258.125C154.75 258.062 154.719 257.938 154.656 257.75C154.344 257 154.188 256.562 154.188 256.438ZM172.094 273.125H165.625V253.906H172C178.438 254.031 181.719 257.219 181.844 263.469C181.969 270.031 178.719 273.25 172.094 273.125ZM171.906 256.344H168.531V270.875H171.906C176.469 270.875 178.75 268.406 178.75 263.469C178.625 258.844 176.344 256.469 171.906 256.344ZM194.406 253.906L202.094 273.125H198.906L196.938 267.969H188.406L186.438 273.125H183.25L190.938 253.906H194.406ZM192.719 256.438H192.625C192.438 257 192.25 257.562 192.062 258.125C192 258.25 191.031 260.75 189.156 265.625H196.188C194.312 260.75 193.344 258.25 193.281 258.125C193.281 258.062 193.25 257.938 193.188 257.75C192.875 257 192.719 256.562 192.719 256.438ZM204.344 253.906H207.812L217.562 269.656H217.656V253.906H220.469V273.125H217.094L207.156 257.281V273.125H204.344V253.906Z" fill="#242424"/>
<path d="M111.47 148C111.47 163.508 111.365 178.19 111.523 192.845C111.628 201.918 115.357 205.045 124.209 203.184C126.573 202.693 128.779 200.496 130.513 198.584C131.983 196.981 132.64 194.681 133.586 192.845C134.82 193.13 135.45 193.104 135.582 193.336C141.334 203.003 141.097 202.797 148.741 194.5C153.074 189.821 158.012 185.505 163.265 181.86C169.123 177.802 175.61 178.086 181.546 182.351C187.272 186.461 190.266 191.76 188.48 198.945C188.244 199.928 188.349 201.013 188.296 201.97C196.859 205.2 201.718 203.598 206.104 196.567C208.126 193.311 210.123 189.873 212.854 187.236C218.265 181.989 225.54 183.153 229.323 189.64C232.816 195.637 232.868 201.918 229.612 207.992C226.433 213.937 220.051 215.41 211.909 211.792C208.415 210.241 205.868 211.016 202.348 211.792C196.727 213.058 190.581 212.153 184.645 212.076C180.968 212.024 177.081 210.913 173.666 211.766C158.511 215.539 144.67 214.376 133.927 207.734C131.931 209.259 130.066 211.145 127.833 212.231C117.958 217.09 106.611 211.507 105.324 200.755C104.431 193.181 104.878 185.453 104.667 177.802C104.484 170.772 104.247 163.767 104.011 156.736C103.853 152.084 105.377 150.094 111.47 148ZM149.292 200.806C149.66 201.84 150.028 202.874 150.422 203.908C158.039 203.314 165.708 203.159 173.22 201.892C176.529 201.349 179.419 198.506 182.518 196.722C179.208 194.293 176.162 191.165 172.458 189.666C170.068 188.71 166.181 189.382 163.791 190.726C158.669 193.595 154.099 197.395 149.318 200.806H149.292ZM211.252 201.168C214.929 202.047 217.95 203.055 221.049 203.339C222.467 203.469 224.805 202.59 225.357 201.504C225.908 200.367 225.199 198.196 224.358 196.903C220.786 191.475 215.507 192.794 211.278 201.168H211.252Z" fill="#08456D"/>
<path d="M89.4864 180C95.1485 191.776 97.0617 202.956 92.3045 214.55C87.8317 225.42 76.947 230.052 63.8905 227.154C53.6522 224.902 47.2661 216.336 48.0676 204.819C48.3779 200.264 50.0584 195.761 51.5063 191.336C51.7907 190.43 53.7297 190.067 54.8932 189.472C55.281 190.559 56.0049 191.646 56.0049 192.733C56.0049 193.949 55.3069 195.166 55.0483 196.408C53.1868 205.181 55.6688 211.936 61.9773 215.301C68.9838 219.053 81.2647 217.708 85.8926 211.936C87.599 209.814 88.2195 206.061 87.8834 203.24C87.4439 199.514 85.6599 195.942 84.2638 192.371C82.2213 187.143 83.8242 183.442 89.4864 180Z" fill="#08456D"/>
<path d="M236.483 223.209C238.192 223.131 239.926 223.183 241.609 222.949C254.113 221.289 259.343 211.065 252.974 200.349C250.67 196.482 248.521 192.953 252.146 188.75C254.217 186.363 255.848 186.389 257.738 189.009C265.038 199.155 262.605 220.744 253.155 228.969C247.745 233.692 234.412 232.758 230.167 227.127C229.623 226.4 230.503 223.572 231.461 223.027C232.755 222.301 234.775 222.845 236.483 222.845C236.483 222.949 236.483 223.079 236.483 223.183V223.209Z" fill="#08456D"/>
<path d="M246 178C248.57 170.318 256.072 170.448 262 168C259.823 176.125 252.111 175.734 246 178Z" fill="#08456D"/>
<path d="M179 147C176.801 154.484 168.934 153.797 163 156C165.517 149.179 173.04 149.203 179 147Z" fill="#08456D"/>
<path d="M210 175C213.057 167.418 220.777 168.472 226 164C225.414 170.836 219.682 174.486 210 175Z" fill="#08456D"/>
<path d="M177.975 168.182C175.051 169.967 173.16 172 171.27 172C169.732 172 166.808 169.357 167.01 168.25C167.312 166.578 169.732 164.093 171.396 164.003C173.135 163.912 175.076 166.194 178 168.182H177.975Z" fill="#08456D"/>
<path d="M78 173.052C74.8952 174.959 72.8758 177.123 71.0331 176.995C69.4933 176.866 66.7419 173.722 67.0195 172.536C67.4739 170.655 69.9729 168.052 71.6641 168.001C73.3554 167.949 75.1476 170.629 78 173.077V173.052Z" fill="#08456D"/>
<g filter="url(#filter1_d_2953_13143)">
<circle cx="155" cy="64" r="64" fill="url(#paint0_radial_2953_13143)"/>
<circle cx="155" cy="64" r="64" stroke="white"/>
<g filter="url(#filter2_d_2953_13143)">
<path d="M192.618 44.8857V97.3353C192.618 100.898 189.727 103.786 186.161 103.786H122.457C118.891 103.786 116 100.898 116 97.3353V44.8857L118.058 42.7892H190.277L192.618 44.8857Z" fill="white"/>
<path d="M192.618 33.6482V45.0245H116V33.6482C116 30.0715 118.868 27.1719 122.405 27.1719H186.212C189.749 27.1719 192.617 30.0715 192.617 33.6477L192.618 33.6482Z" fill="url(#paint1_linear_2953_13143)"/>
<path d="M128.822 36.5461C130.126 36.5461 131.183 35.4891 131.183 34.1852C131.183 32.8813 130.126 31.8242 128.822 31.8242C127.518 31.8242 126.461 32.8813 126.461 34.1852C126.461 35.4891 127.518 36.5461 128.822 36.5461Z" fill="url(#paint2_radial_2953_13143)"/>
<path d="M128.825 24H128.825C128.037 24 127.399 24.6384 127.399 25.4258V33.3685C127.399 34.1559 128.037 34.7943 128.825 34.7943H128.825C129.612 34.7943 130.251 34.1559 130.251 33.3685V25.4258C130.251 24.6384 129.612 24 128.825 24Z" fill="url(#paint3_linear_2953_13143)"/>
<path d="M145.791 36.5461C147.095 36.5461 148.152 35.4891 148.152 34.1852C148.152 32.8813 147.095 31.8242 145.791 31.8242C144.487 31.8242 143.43 32.8813 143.43 34.1852C143.43 35.4891 144.487 36.5461 145.791 36.5461Z" fill="url(#paint4_radial_2953_13143)"/>
<path d="M145.794 24H145.793C145.006 24 144.367 24.6384 144.367 25.4258V33.3685C144.367 34.1559 145.006 34.7943 145.793 34.7943H145.794C146.581 34.7943 147.22 34.1559 147.22 33.3685V25.4258C147.22 24.6384 146.581 24 145.794 24Z" fill="url(#paint5_linear_2953_13143)"/>
<path d="M162.756 36.5461C164.06 36.5461 165.117 35.4891 165.117 34.1852C165.117 32.8813 164.06 31.8242 162.756 31.8242C161.452 31.8242 160.395 32.8813 160.395 34.1852C160.395 35.4891 161.452 36.5461 162.756 36.5461Z" fill="url(#paint6_radial_2953_13143)"/>
<path d="M162.759 24H162.758C161.971 24 161.332 24.6384 161.332 25.4258V33.3685C161.332 34.1559 161.971 34.7943 162.758 34.7943H162.759C163.546 34.7943 164.184 34.1559 164.184 33.3685V25.4258C164.184 24.6384 163.546 24 162.759 24Z" fill="url(#paint7_linear_2953_13143)"/>
<path d="M179.732 36.5461C181.036 36.5461 182.093 35.4891 182.093 34.1852C182.093 32.8813 181.036 31.8242 179.732 31.8242C178.428 31.8242 177.371 32.8813 177.371 34.1852C177.371 35.4891 178.428 36.5461 179.732 36.5461Z" fill="url(#paint8_radial_2953_13143)"/>
<path d="M179.735 24H179.735C178.947 24 178.309 24.6384 178.309 25.4258V33.3685C178.309 34.1559 178.947 34.7943 179.735 34.7943H179.735C180.523 34.7943 181.161 34.1559 181.161 33.3685V25.4258C181.161 24.6384 180.523 24 179.735 24Z" fill="url(#paint9_linear_2953_13143)"/>
</g>
<path d="M143.052 88.892C142.62 88.892 142.176 88.868 141.72 88.82C141.288 88.748 140.856 88.628 140.424 88.46C139.776 88.196 139.152 87.848 138.552 87.416C137.976 86.96 137.448 86.456 136.968 85.904C135.816 84.608 134.94 83.084 134.34 81.332C133.74 79.556 133.44 77.756 133.44 75.932C133.44 73.436 133.92 71.024 134.88 68.696C135.048 68.288 135.264 67.856 135.528 67.4C135.816 66.944 136.128 66.512 136.464 66.104C136.824 65.672 137.184 65.288 137.544 64.952C137.928 64.616 138.312 64.364 138.696 64.196C139.224 63.956 139.8 63.716 140.424 63.476C141.192 63.236 142.056 63.128 143.016 63.152C143.976 63.176 144.852 63.284 145.644 63.476C146.748 63.74 147.696 64.22 148.488 64.916C149.28 65.588 149.952 66.404 150.504 67.364C151.056 68.3 151.488 69.332 151.8 70.46C152.112 71.564 152.34 72.692 152.484 73.844C152.58 74.612 152.616 75.38 152.592 76.148C152.568 76.892 152.508 77.648 152.412 78.416C152.316 79.112 152.196 79.808 152.052 80.504C151.932 81.2 151.764 81.872 151.548 82.52C151.332 83.168 151.056 83.792 150.72 84.392C150.384 84.968 149.964 85.508 149.46 86.012C148.548 86.9 147.552 87.596 146.472 88.1C145.416 88.58 144.276 88.844 143.052 88.892ZM143.016 67.904C142.68 67.904 142.344 67.94 142.008 68.012C141.696 68.06 141.396 68.18 141.108 68.372C140.772 68.588 140.472 68.852 140.208 69.164C139.944 69.476 139.716 69.8 139.524 70.136C139.02 71 138.672 71.924 138.48 72.908C138.288 73.892 138.192 74.888 138.192 75.896C138.192 76.928 138.3 77.996 138.516 79.1C138.756 80.204 139.176 81.212 139.776 82.124C140.064 82.556 140.4 82.94 140.784 83.276C141.192 83.588 141.66 83.816 142.188 83.96C142.668 84.08 143.148 84.116 143.628 84.068C144.132 84.02 144.6 83.864 145.032 83.6C145.728 83.168 146.28 82.592 146.688 81.872C147.096 81.152 147.396 80.372 147.588 79.532C147.804 78.692 147.924 77.828 147.948 76.94C147.996 76.052 147.996 75.248 147.948 74.528C147.9 73.808 147.78 73.052 147.588 72.26C147.396 71.468 147.108 70.748 146.724 70.1C146.364 69.452 145.872 68.924 145.248 68.516C144.648 68.084 143.904 67.88 143.016 67.904ZM163.763 89.072C162.659 89.072 161.591 88.952 160.559 88.712C159.551 88.448 158.627 87.944 157.787 87.2C157.475 86.912 157.175 86.588 156.887 86.228C156.623 85.844 156.431 85.472 156.311 85.112C156.215 84.728 156.227 84.356 156.347 83.996C156.467 83.612 156.767 83.276 157.247 82.988C157.559 82.796 157.835 82.7 158.075 82.7C158.339 82.7 158.579 82.76 158.795 82.88C159.035 83 159.251 83.168 159.443 83.384C159.659 83.576 159.875 83.768 160.091 83.96C160.643 84.416 161.231 84.716 161.855 84.86C162.503 85.004 163.175 85.076 163.871 85.076C164.663 85.076 165.395 84.884 166.067 84.5C166.739 84.116 167.303 83.612 167.759 82.988C168.239 82.364 168.587 81.656 168.803 80.864C169.019 80.072 169.067 79.28 168.947 78.488C168.251 78.896 167.459 79.22 166.571 79.46C165.683 79.676 164.831 79.784 164.015 79.784C162.719 79.784 161.543 79.604 160.487 79.244C159.455 78.86 158.567 78.332 157.823 77.66C157.079 76.964 156.503 76.124 156.095 75.14C155.687 74.156 155.483 73.064 155.483 71.864C155.483 70.616 155.699 69.464 156.131 68.408C156.563 67.328 157.175 66.404 157.967 65.636C158.759 64.844 159.707 64.232 160.811 63.8C161.915 63.344 163.139 63.116 164.483 63.116C166.019 63.116 167.303 63.344 168.335 63.8C169.391 64.232 170.351 64.892 171.215 65.78C172.103 66.716 172.751 67.94 173.159 69.452C173.591 70.964 173.807 72.956 173.807 75.428C173.807 77.444 173.579 79.292 173.123 80.972C172.691 82.652 172.055 84.092 171.215 85.292C170.375 86.492 169.319 87.428 168.047 88.1C166.799 88.748 165.371 89.072 163.763 89.072ZM164.591 67.472C164.159 67.448 163.727 67.472 163.295 67.544C162.887 67.592 162.515 67.676 162.179 67.796C161.531 68.06 161.015 68.492 160.631 69.092C160.247 69.668 160.007 70.304 159.911 71C159.815 71.696 159.863 72.392 160.055 73.088C160.271 73.784 160.643 74.36 161.171 74.816C161.627 75.248 162.167 75.536 162.791 75.68C163.415 75.824 164.039 75.86 164.663 75.788C165.311 75.716 165.923 75.536 166.499 75.248C167.075 74.96 167.555 74.588 167.939 74.132C168.323 73.676 168.575 73.196 168.695 72.692C168.839 72.164 168.863 71.648 168.767 71.144C168.695 70.616 168.527 70.124 168.263 69.668C167.999 69.188 167.675 68.768 167.291 68.408C166.955 68.144 166.547 67.94 166.067 67.796C165.611 67.628 165.119 67.52 164.591 67.472Z" fill="black"/>
</g>
<line x1="70.5862" y1="303.473" x2="1.99998" y2="303.473" stroke="url(#paint10_linear_2953_13143)"/>
<line x1="239.414" y1="303.527" x2="308.001" y2="303.527" stroke="url(#paint11_linear_2953_13143)"/>
<rect x="64.2542" y="300.863" width="182.545" height="5.27586" rx="2.63793" fill="url(#paint12_radial_2953_13143)"/>
</g>
<defs>
<filter id="filter0_d_2953_13143" x="0" y="0" width="310" height="367" filterUnits="userSpaceOnUse" color-interpolation-filters="sRGB">
<feFlood flood-opacity="0" result="BackgroundImageFix"/>
<feColorMatrix in="SourceAlpha" type="matrix" values="0 0 0 0 0 0 0 0 0 0 0 0 0 0 0 0 0 0 127 0" result="hardAlpha"/>
<feOffset dy="2"/>
<feGaussianBlur stdDeviation="1"/>
<feComposite in2="hardAlpha" operator="out"/>
<feColorMatrix type="matrix" values="0 0 0 0 0 0 0 0 0 0 0 0 0 0 0 0 0 0 0.25 0"/>
<feBlend mode="normal" in2="BackgroundImageFix" result="effect1_dropShadow_2953_13143"/>
<feBlend mode="normal" in="SourceGraphic" in2="effect1_dropShadow_2953_13143" result="shape"/>
</filter>
<filter id="filter1_d_2953_13143" x="89.0002" y="0" width="132" height="132" filterUnits="userSpaceOnUse" color-interpolation-filters="sRGB">
<feFlood flood-opacity="0" result="BackgroundImageFix"/>
<feColorMatrix in="SourceAlpha" type="matrix" values="0 0 0 0 0 0 0 0 0 0 0 0 0 0 0 0 0 0 127 0" result="hardAlpha"/>
<feOffset dy="2"/>
<feGaussianBlur stdDeviation="1"/>
<feComposite in2="hardAlpha" operator="out"/>
<feColorMatrix type="matrix" values="0 0 0 0 0 0 0 0 0 0 0 0 0 0 0 0 0 0 0.25 0"/>
<feBlend mode="normal" in2="BackgroundImageFix" result="effect1_dropShadow_2953_13143"/>
<feBlend mode="normal" in="SourceGraphic" in2="effect1_dropShadow_2953_13143" result="shape"/>
</filter>
<filter id="filter2_d_2953_13143" x="114" y="24" width="80.6174" height="83.7856" filterUnits="userSpaceOnUse" color-interpolation-filters="sRGB">
<feFlood flood-opacity="0" result="BackgroundImageFix"/>
<feColorMatrix in="SourceAlpha" type="matrix" values="0 0 0 0 0 0 0 0 0 0 0 0 0 0 0 0 0 0 127 0" result="hardAlpha"/>
<feOffset dy="2"/>
<feGaussianBlur stdDeviation="1"/>
<feComposite in2="hardAlpha" operator="out"/>
<feColorMatrix type="matrix" values="0 0 0 0 0 0 0 0 0 0 0 0 0 0 0 0 0 0 0.25 0"/>
<feBlend mode="normal" in2="BackgroundImageFix" result="effect1_dropShadow_2953_13143"/>
<feBlend mode="normal" in="SourceGraphic" in2="effect1_dropShadow_2953_13143" result="shape"/>
</filter>
<radialGradient id="paint0_radial_2953_13143" cx="0" cy="0" r="1" gradientUnits="userSpaceOnUse" gradientTransform="translate(155 64) rotate(90) scale(64)">
<stop stop-color="#F0F8FD"/>
<stop offset="1" stop-color="#0D5D91"/>
</radialGradient>
<linearGradient id="paint1_linear_2953_13143" x1="154.309" y1="28.2243" x2="154.309" y2="44.9419" gradientUnits="userSpaceOnUse">
<stop stop-color="#E85F43"/>
<stop offset="1" stop-color="#E83636"/>
</linearGradient>
<radialGradient id="paint2_radial_2953_13143" cx="0" cy="0" r="1" gradientUnits="userSpaceOnUse" gradientTransform="translate(128.822 34.1852) scale(2.36095)">
<stop stop-color="#8C1F1F"/>
<stop offset="0.84" stop-color="#450F0F"/>
<stop offset="1" stop-color="#2B0808"/>
</radialGradient>
<linearGradient id="paint3_linear_2953_13143" x1="127.399" y1="29.3971" x2="130.25" y2="29.3971" gradientUnits="userSpaceOnUse">
<stop stop-color="#4F4F4F"/>
<stop offset="0.29" stop-color="#BDBDBD"/>
<stop offset="0.62" stop-color="#BDBDBD"/>
<stop offset="1" stop-color="#4F4F4F"/>
</linearGradient>
<radialGradient id="paint4_radial_2953_13143" cx="0" cy="0" r="1" gradientUnits="userSpaceOnUse" gradientTransform="translate(145.791 24.0231) scale(0.0241505)">
<stop stop-color="#8C1F1F"/>
<stop offset="0.84" stop-color="#450F0F"/>
<stop offset="1" stop-color="#2B0808"/>
</radialGradient>
<linearGradient id="paint5_linear_2953_13143" x1="144.367" y1="24" x2="147.22" y2="24" gradientUnits="userSpaceOnUse">
<stop stop-color="#4F4F4F"/>
<stop offset="0.29" stop-color="#BDBDBD"/>
<stop offset="0.62" stop-color="#BDBDBD"/>
<stop offset="1" stop-color="#4F4F4F"/>
</linearGradient>
<radialGradient id="paint6_radial_2953_13143" cx="0" cy="0" r="1" gradientUnits="userSpaceOnUse" gradientTransform="translate(162.756 24.0231) scale(2.36095)">
<stop stop-color="#8C1F1F"/>
<stop offset="0.84" stop-color="#450F0F"/>
<stop offset="1" stop-color="#2B0808"/>
</radialGradient>
<linearGradient id="paint7_linear_2953_13143" x1="161.332" y1="24" x2="164.184" y2="24" gradientUnits="userSpaceOnUse">
<stop stop-color="#4F4F4F"/>
<stop offset="0.29" stop-color="#BDBDBD"/>
<stop offset="0.62" stop-color="#BDBDBD"/>
<stop offset="1" stop-color="#4F4F4F"/>
</linearGradient>
<radialGradient id="paint8_radial_2953_13143" cx="0" cy="0" r="1" gradientUnits="userSpaceOnUse" gradientTransform="translate(179.732 24.0231) scale(0.0241505)">
<stop stop-color="#8C1F1F"/>
<stop offset="0.84" stop-color="#450F0F"/>
<stop offset="1" stop-color="#2B0808"/>
</radialGradient>
<linearGradient id="paint9_linear_2953_13143" x1="178.309" y1="24" x2="181.161" y2="24" gradientUnits="userSpaceOnUse">
<stop stop-color="#4F4F4F"/>
<stop offset="0.29" stop-color="#BDBDBD"/>
<stop offset="0.62" stop-color="#BDBDBD"/>
<stop offset="1" stop-color="#4F4F4F"/>
</linearGradient>
<linearGradient id="paint10_linear_2953_13143" x1="70.5862" y1="302.473" x2="-4.85864" y2="302.473" gradientUnits="userSpaceOnUse">
<stop stop-color="#08456D"/>
<stop offset="0.795" stop-color="#BDE5FF"/>
</linearGradient>
<linearGradient id="paint11_linear_2953_13143" x1="239.414" y1="304.527" x2="314.859" y2="304.527" gradientUnits="userSpaceOnUse">
<stop stop-color="#08456D"/>
<stop offset="0.795" stop-color="#BDE5FF"/>
</linearGradient>
<radialGradient id="paint12_radial_2953_13143" cx="0" cy="0" r="1" gradientUnits="userSpaceOnUse" gradientTransform="translate(155.527 303.501) scale(91.2724 2.63793)">
<stop stop-color="#08456D"/>
<stop offset="1" stop-color="#1085D3"/>
</radialGradient>
</defs>
</svg>
