<svg width="60" height="65" viewBox="0 0 60 65" fill="none" xmlns="http://www.w3.org/2000/svg">
<path d="M0.620972 5.15918C0.620972 2.39775 2.85955 0.15918 5.62097 0.15918H54.5495C57.311 0.15918 59.5495 2.39776 59.5495 5.15918V59.5273C59.5495 62.2887 57.311 64.5273 54.5495 64.5273H5.62097C2.85955 64.5273 0.620972 62.2887 0.620972 59.5273V5.15918Z" fill="url(#paint0_linear_3219_5227)"/>
<path d="M29.632 14.5137C30.3413 14.5137 30.9163 15.0887 30.9163 15.798V17.0824C30.9163 17.7917 30.3413 18.3667 29.632 18.3667C28.9227 18.3667 28.3476 17.7917 28.3476 17.0824V15.798C28.3476 15.0887 28.9227 14.5137 29.632 14.5137Z" fill="white"/>
<path d="M29.632 36.3475C30.3413 36.3475 30.9163 36.9225 30.9163 37.6318V38.9161C30.9163 39.6255 30.3413 40.2005 29.632 40.2005C28.9227 40.2005 28.3476 39.6255 28.3476 38.9161V37.6318C28.3476 36.9225 28.9227 36.3475 29.632 36.3475Z" fill="white"/>
<path d="M41.191 28.6414C41.9004 28.6414 42.4754 28.0664 42.4754 27.3571C42.4754 26.6478 41.9004 26.0727 41.191 26.0727H39.9067C39.1974 26.0727 38.6224 26.6478 38.6224 27.3571C38.6224 28.0664 39.1974 28.6414 39.9067 28.6414H41.191Z" fill="white"/>
<path d="M20.6416 27.3571C20.6416 28.0664 20.0666 28.6414 19.3573 28.6414H18.0729C17.3636 28.6414 16.7886 28.0664 16.7886 27.3571C16.7886 26.6478 17.3636 26.0727 18.0729 26.0727H19.3573C20.0666 26.0727 20.6416 26.6478 20.6416 27.3571Z" fill="white"/>
<path d="M35.9891 35.5306L36.8973 36.4387C37.3989 36.9403 38.2121 36.9403 38.7136 36.4387C39.2152 35.9372 39.2152 35.124 38.7136 34.6224L37.8055 33.7142C37.3039 33.2127 36.4907 33.2127 35.9891 33.7142C35.4876 34.2158 35.4876 35.029 35.9891 35.5306Z" fill="white"/>
<path d="M23.2748 20.9999C22.7733 21.5015 21.9601 21.5015 21.4585 20.9999L20.5503 20.0917C20.0488 19.5902 20.0488 18.777 20.5503 18.2754C21.0519 17.7739 21.8651 17.7739 22.3667 18.2754L23.2748 19.1836C23.7764 19.6851 23.7764 20.4983 23.2748 20.9999Z" fill="white"/>
<path d="M20.5503 34.6224C20.0488 35.124 20.0488 35.9372 20.5503 36.4387C21.0519 36.9403 21.8651 36.9403 22.3667 36.4387L23.2748 35.5306C23.7764 35.029 23.7764 34.2158 23.2748 33.7142C22.7733 33.2127 21.9601 33.2127 21.4585 33.7142L20.5503 34.6224Z" fill="white"/>
<path d="M35.9891 20.9999C35.4876 20.4984 35.4876 19.6852 35.9891 19.1836L36.8973 18.2754C37.3989 17.7739 38.2121 17.7739 38.7136 18.2754C39.2152 18.777 39.2152 19.5902 38.7136 20.0918L37.8055 20.9999C37.3039 21.5015 36.4907 21.5015 35.9891 20.9999Z" fill="white"/>
<path fill-rule="evenodd" clip-rule="evenodd" d="M29.632 20.2932C25.7307 20.2932 22.5681 23.4558 22.5681 27.3571C22.5681 31.2583 25.7307 34.421 29.632 34.421C33.5333 34.421 36.6959 31.2583 36.6959 27.3571C36.6959 23.4558 33.5333 20.2932 29.632 20.2932ZM25.1368 27.3571C25.1368 24.8745 27.1494 22.8619 29.632 22.8619C32.1146 22.8619 34.1272 24.8745 34.1272 27.3571C34.1272 29.8397 32.1146 31.8523 29.632 31.8523C27.1494 31.8523 25.1368 29.8397 25.1368 27.3571Z" fill="white"/>
<path d="M29.632 14.5137C30.3413 14.5137 30.9163 15.0887 30.9163 15.798V17.0824C30.9163 17.7917 30.3413 18.3667 29.632 18.3667C28.9227 18.3667 28.3476 17.7917 28.3476 17.0824V15.798C28.3476 15.0887 28.9227 14.5137 29.632 14.5137Z" stroke="black" stroke-width="0.5"/>
<path d="M29.632 36.3475C30.3413 36.3475 30.9163 36.9225 30.9163 37.6318V38.9161C30.9163 39.6255 30.3413 40.2005 29.632 40.2005C28.9227 40.2005 28.3476 39.6255 28.3476 38.9161V37.6318C28.3476 36.9225 28.9227 36.3475 29.632 36.3475Z" stroke="black" stroke-width="0.5"/>
<path d="M41.191 28.6414C41.9004 28.6414 42.4754 28.0664 42.4754 27.3571C42.4754 26.6478 41.9004 26.0727 41.191 26.0727H39.9067C39.1974 26.0727 38.6224 26.6478 38.6224 27.3571C38.6224 28.0664 39.1974 28.6414 39.9067 28.6414H41.191Z" stroke="black" stroke-width="0.5"/>
<path d="M20.6416 27.3571C20.6416 28.0664 20.0666 28.6414 19.3573 28.6414H18.0729C17.3636 28.6414 16.7886 28.0664 16.7886 27.3571C16.7886 26.6478 17.3636 26.0727 18.0729 26.0727H19.3573C20.0666 26.0727 20.6416 26.6478 20.6416 27.3571Z" stroke="black" stroke-width="0.5"/>
<path d="M35.9891 35.5306L36.8973 36.4387C37.3989 36.9403 38.2121 36.9403 38.7136 36.4387C39.2152 35.9372 39.2152 35.124 38.7136 34.6224L37.8055 33.7142C37.3039 33.2127 36.4907 33.2127 35.9891 33.7142C35.4876 34.2158 35.4876 35.029 35.9891 35.5306Z" stroke="black" stroke-width="0.5"/>
<path d="M23.2748 20.9999C22.7733 21.5015 21.9601 21.5015 21.4585 20.9999L20.5503 20.0917C20.0488 19.5902 20.0488 18.777 20.5503 18.2754C21.0519 17.7739 21.8651 17.7739 22.3667 18.2754L23.2748 19.1836C23.7764 19.6851 23.7764 20.4983 23.2748 20.9999Z" stroke="black" stroke-width="0.5"/>
<path d="M20.5503 34.6224C20.0488 35.124 20.0488 35.9372 20.5503 36.4387C21.0519 36.9403 21.8651 36.9403 22.3667 36.4387L23.2748 35.5306C23.7764 35.029 23.7764 34.2158 23.2748 33.7142C22.7733 33.2127 21.9601 33.2127 21.4585 33.7142L20.5503 34.6224Z" stroke="black" stroke-width="0.5"/>
<path d="M35.9891 20.9999C35.4876 20.4984 35.4876 19.6852 35.9891 19.1836L36.8973 18.2754C37.3989 17.7739 38.2121 17.7739 38.7136 18.2754C39.2152 18.777 39.2152 19.5902 38.7136 20.0918L37.8055 20.9999C37.3039 21.5015 36.4907 21.5015 35.9891 20.9999Z" stroke="black" stroke-width="0.5"/>
<path fill-rule="evenodd" clip-rule="evenodd" d="M29.632 20.2932C25.7307 20.2932 22.5681 23.4558 22.5681 27.3571C22.5681 31.2583 25.7307 34.421 29.632 34.421C33.5333 34.421 36.6959 31.2583 36.6959 27.3571C36.6959 23.4558 33.5333 20.2932 29.632 20.2932ZM25.1368 27.3571C25.1368 24.8745 27.1494 22.8619 29.632 22.8619C32.1146 22.8619 34.1272 24.8745 34.1272 27.3571C34.1272 29.8397 32.1146 31.8523 29.632 31.8523C27.1494 31.8523 25.1368 29.8397 25.1368 27.3571Z" stroke="black" stroke-width="0.5"/>
<mask id="path-3-outside-1_3219_5227" maskUnits="userSpaceOnUse" x="13.1266" y="43.582" width="34" height="11" fill="black">
<rect fill="white" x="13.1266" y="43.582" width="34" height="11"/>
<path d="M16.7301 53.582H14.8375L14.8492 52H16.7301C17.1207 52 17.4508 51.9062 17.7203 51.7188C17.9938 51.5312 18.2008 51.252 18.3414 50.8809C18.486 50.5059 18.5582 50.0449 18.5582 49.498V49.1289C18.5582 48.7188 18.5172 48.3594 18.4352 48.0508C18.3571 47.7383 18.2399 47.4785 18.0836 47.2715C17.9274 47.0605 17.7321 46.9023 17.4977 46.7969C17.2672 46.6914 17.0016 46.6387 16.7008 46.6387H14.8024V45.0508H16.7008C17.2789 45.0508 17.8082 45.1504 18.2887 45.3496C18.7731 45.5449 19.191 45.8262 19.5426 46.1934C19.8981 46.5566 20.1715 46.9883 20.3629 47.4883C20.5582 47.9844 20.6559 48.5352 20.6559 49.1406V49.498C20.6559 50.0996 20.5582 50.6504 20.3629 51.1504C20.1715 51.6504 19.9 52.082 19.5485 52.4453C19.1969 52.8086 18.7809 53.0898 18.3004 53.2891C17.8239 53.4844 17.3004 53.582 16.7301 53.582ZM16.0153 45.0508V53.582H13.9586V45.0508H16.0153ZM23.568 44.582V53.582H21.5934V44.582H23.568ZM23.3336 50.1953L22.8707 50.207C22.8707 49.7617 22.9254 49.3516 23.0348 48.9766C23.1442 48.6016 23.3004 48.2754 23.5035 47.998C23.7067 47.7207 23.9508 47.5059 24.236 47.3535C24.5211 47.2012 24.8375 47.125 25.1852 47.125C25.4977 47.125 25.7828 47.1699 26.0406 47.2598C26.3024 47.3496 26.527 47.4941 26.7145 47.6934C26.9059 47.8926 27.0524 48.1523 27.1539 48.4727C27.2594 48.793 27.3121 49.1836 27.3121 49.6445V53.582H25.3258V49.6328C25.3258 49.375 25.2887 49.1758 25.2145 49.0352C25.1442 48.8906 25.0426 48.791 24.9098 48.7363C24.777 48.6777 24.6149 48.6484 24.4235 48.6484C24.193 48.6484 24.0055 48.6875 23.861 48.7656C23.7164 48.8438 23.6051 48.9531 23.527 49.0938C23.4528 49.2305 23.402 49.3926 23.3746 49.5801C23.3473 49.7676 23.3336 49.9727 23.3336 50.1953ZM32.111 52.041V47.2422H34.0914V53.582H32.2399L32.111 52.041ZM32.2985 50.752L32.8141 50.7402C32.8141 51.166 32.7633 51.5605 32.6617 51.9238C32.5602 52.2832 32.4098 52.5957 32.2106 52.8613C32.0153 53.127 31.7731 53.334 31.484 53.4824C31.1989 53.627 30.8688 53.6992 30.4938 53.6992C30.1813 53.6992 29.8942 53.6562 29.6324 53.5703C29.3746 53.4805 29.152 53.3418 28.9645 53.1543C28.777 52.9629 28.6305 52.7188 28.525 52.4219C28.4235 52.1211 28.3727 51.7617 28.3727 51.3438V47.2422H30.3473V51.3555C30.3473 51.4961 30.3649 51.6172 30.4 51.7188C30.4352 51.8203 30.486 51.9062 30.5524 51.9766C30.6188 52.043 30.7008 52.0938 30.7985 52.1289C30.9 52.1602 31.0153 52.1758 31.1442 52.1758C31.441 52.1758 31.6735 52.1133 31.8414 51.9883C32.0094 51.8633 32.1266 51.6934 32.193 51.4785C32.2633 51.2637 32.2985 51.0215 32.2985 50.752ZM37.1149 44.582V53.582H35.1403V44.582H37.1149ZM36.8805 50.1953L36.4176 50.207C36.4176 49.7617 36.4723 49.3516 36.5817 48.9766C36.691 48.6016 36.8473 48.2754 37.0504 47.998C37.2535 47.7207 37.4977 47.5059 37.7828 47.3535C38.068 47.2012 38.3844 47.125 38.7321 47.125C39.0446 47.125 39.3297 47.1699 39.5875 47.2598C39.8492 47.3496 40.0739 47.4941 40.2614 47.6934C40.4528 47.8926 40.5992 48.1523 40.7008 48.4727C40.8063 48.793 40.859 49.1836 40.859 49.6445V53.582H38.8727V49.6328C38.8727 49.375 38.8356 49.1758 38.7614 49.0352C38.691 48.8906 38.5895 48.791 38.4567 48.7363C38.3239 48.6777 38.1617 48.6484 37.9703 48.6484C37.7399 48.6484 37.5524 48.6875 37.4078 48.7656C37.2633 48.8438 37.152 48.9531 37.0739 49.0938C36.9996 49.2305 36.9489 49.3926 36.9215 49.5801C36.8942 49.7676 36.8805 49.9727 36.8805 50.1953ZM43.9469 48.8125V53.582H41.9723V47.2422H43.818L43.9469 48.8125ZM45.8219 47.1953L45.7867 49.0293C45.7086 49.0215 45.6031 49.0117 45.4703 49C45.3375 48.9883 45.2262 48.9824 45.1364 48.9824C44.9059 48.9824 44.7067 49.0098 44.5387 49.0645C44.3746 49.1152 44.2379 49.1934 44.1285 49.2988C44.0231 49.4004 43.9449 49.5293 43.8942 49.6855C43.8473 49.8418 43.8258 50.0234 43.8297 50.2305L43.4723 49.9961C43.4723 49.5703 43.5133 49.1836 43.5953 48.8359C43.6813 48.4844 43.8024 48.1816 43.9586 47.9277C44.1149 47.6699 44.3043 47.4727 44.527 47.3359C44.7496 47.1953 44.9996 47.125 45.277 47.125C45.3746 47.125 45.4703 47.1309 45.5641 47.1426C45.6617 47.1543 45.7477 47.1719 45.8219 47.1953Z"/>
</mask>
<path d="M16.7301 53.582H14.8375L14.8492 52H16.7301C17.1207 52 17.4508 51.9062 17.7203 51.7188C17.9938 51.5312 18.2008 51.252 18.3414 50.8809C18.486 50.5059 18.5582 50.0449 18.5582 49.498V49.1289C18.5582 48.7188 18.5172 48.3594 18.4352 48.0508C18.3571 47.7383 18.2399 47.4785 18.0836 47.2715C17.9274 47.0605 17.7321 46.9023 17.4977 46.7969C17.2672 46.6914 17.0016 46.6387 16.7008 46.6387H14.8024V45.0508H16.7008C17.2789 45.0508 17.8082 45.1504 18.2887 45.3496C18.7731 45.5449 19.191 45.8262 19.5426 46.1934C19.8981 46.5566 20.1715 46.9883 20.3629 47.4883C20.5582 47.9844 20.6559 48.5352 20.6559 49.1406V49.498C20.6559 50.0996 20.5582 50.6504 20.3629 51.1504C20.1715 51.6504 19.9 52.082 19.5485 52.4453C19.1969 52.8086 18.7809 53.0898 18.3004 53.2891C17.8239 53.4844 17.3004 53.582 16.7301 53.582ZM16.0153 45.0508V53.582H13.9586V45.0508H16.0153ZM23.568 44.582V53.582H21.5934V44.582H23.568ZM23.3336 50.1953L22.8707 50.207C22.8707 49.7617 22.9254 49.3516 23.0348 48.9766C23.1442 48.6016 23.3004 48.2754 23.5035 47.998C23.7067 47.7207 23.9508 47.5059 24.236 47.3535C24.5211 47.2012 24.8375 47.125 25.1852 47.125C25.4977 47.125 25.7828 47.1699 26.0406 47.2598C26.3024 47.3496 26.527 47.4941 26.7145 47.6934C26.9059 47.8926 27.0524 48.1523 27.1539 48.4727C27.2594 48.793 27.3121 49.1836 27.3121 49.6445V53.582H25.3258V49.6328C25.3258 49.375 25.2887 49.1758 25.2145 49.0352C25.1442 48.8906 25.0426 48.791 24.9098 48.7363C24.777 48.6777 24.6149 48.6484 24.4235 48.6484C24.193 48.6484 24.0055 48.6875 23.861 48.7656C23.7164 48.8438 23.6051 48.9531 23.527 49.0938C23.4528 49.2305 23.402 49.3926 23.3746 49.5801C23.3473 49.7676 23.3336 49.9727 23.3336 50.1953ZM32.111 52.041V47.2422H34.0914V53.582H32.2399L32.111 52.041ZM32.2985 50.752L32.8141 50.7402C32.8141 51.166 32.7633 51.5605 32.6617 51.9238C32.5602 52.2832 32.4098 52.5957 32.2106 52.8613C32.0153 53.127 31.7731 53.334 31.484 53.4824C31.1989 53.627 30.8688 53.6992 30.4938 53.6992C30.1813 53.6992 29.8942 53.6562 29.6324 53.5703C29.3746 53.4805 29.152 53.3418 28.9645 53.1543C28.777 52.9629 28.6305 52.7188 28.525 52.4219C28.4235 52.1211 28.3727 51.7617 28.3727 51.3438V47.2422H30.3473V51.3555C30.3473 51.4961 30.3649 51.6172 30.4 51.7188C30.4352 51.8203 30.486 51.9062 30.5524 51.9766C30.6188 52.043 30.7008 52.0938 30.7985 52.1289C30.9 52.1602 31.0153 52.1758 31.1442 52.1758C31.441 52.1758 31.6735 52.1133 31.8414 51.9883C32.0094 51.8633 32.1266 51.6934 32.193 51.4785C32.2633 51.2637 32.2985 51.0215 32.2985 50.752ZM37.1149 44.582V53.582H35.1403V44.582H37.1149ZM36.8805 50.1953L36.4176 50.207C36.4176 49.7617 36.4723 49.3516 36.5817 48.9766C36.691 48.6016 36.8473 48.2754 37.0504 47.998C37.2535 47.7207 37.4977 47.5059 37.7828 47.3535C38.068 47.2012 38.3844 47.125 38.7321 47.125C39.0446 47.125 39.3297 47.1699 39.5875 47.2598C39.8492 47.3496 40.0739 47.4941 40.2614 47.6934C40.4528 47.8926 40.5992 48.1523 40.7008 48.4727C40.8063 48.793 40.859 49.1836 40.859 49.6445V53.582H38.8727V49.6328C38.8727 49.375 38.8356 49.1758 38.7614 49.0352C38.691 48.8906 38.5895 48.791 38.4567 48.7363C38.3239 48.6777 38.1617 48.6484 37.9703 48.6484C37.7399 48.6484 37.5524 48.6875 37.4078 48.7656C37.2633 48.8438 37.152 48.9531 37.0739 49.0938C36.9996 49.2305 36.9489 49.3926 36.9215 49.5801C36.8942 49.7676 36.8805 49.9727 36.8805 50.1953ZM43.9469 48.8125V53.582H41.9723V47.2422H43.818L43.9469 48.8125ZM45.8219 47.1953L45.7867 49.0293C45.7086 49.0215 45.6031 49.0117 45.4703 49C45.3375 48.9883 45.2262 48.9824 45.1364 48.9824C44.9059 48.9824 44.7067 49.0098 44.5387 49.0645C44.3746 49.1152 44.2379 49.1934 44.1285 49.2988C44.0231 49.4004 43.9449 49.5293 43.8942 49.6855C43.8473 49.8418 43.8258 50.0234 43.8297 50.2305L43.4723 49.9961C43.4723 49.5703 43.5133 49.1836 43.5953 48.8359C43.6813 48.4844 43.8024 48.1816 43.9586 47.9277C44.1149 47.6699 44.3043 47.4727 44.527 47.3359C44.7496 47.1953 44.9996 47.125 45.277 47.125C45.3746 47.125 45.4703 47.1309 45.5641 47.1426C45.6617 47.1543 45.7477 47.1719 45.8219 47.1953Z" fill="#FCFCFC"/>
<path d="M14.8375 53.582L14.3375 53.5783L14.3338 54.082H14.8375V53.582ZM14.8492 52V51.5H14.3529L14.3493 51.9963L14.8492 52ZM17.7203 51.7188L17.4376 51.3064L17.4348 51.3083L17.7203 51.7188ZM18.3414 50.8809L17.8749 50.701L17.8739 50.7037L18.3414 50.8809ZM18.4352 48.0508L17.9501 48.1721L17.952 48.1792L18.4352 48.0508ZM18.0836 47.2715L17.6818 47.5691L17.6845 47.5727L18.0836 47.2715ZM17.4977 46.7969L17.2896 47.2515L17.2925 47.2528L17.4977 46.7969ZM14.8024 46.6387H14.3024V47.1387H14.8024V46.6387ZM14.8024 45.0508V44.5508H14.3024V45.0508H14.8024ZM18.2887 45.3496L18.0972 45.8115L18.1017 45.8133L18.2887 45.3496ZM19.5426 46.1934L19.1814 46.5392L19.1852 46.543L19.5426 46.1934ZM20.3629 47.4883L19.8959 47.667L19.8977 47.6714L20.3629 47.4883ZM20.3629 51.1504L19.8972 50.9685L19.896 50.9716L20.3629 51.1504ZM18.3004 53.2891L18.49 53.7517L18.4919 53.7509L18.3004 53.2891ZM16.0153 45.0508H16.5153V44.5508H16.0153V45.0508ZM16.0153 53.582V54.082H16.5153V53.582H16.0153ZM13.9586 53.582H13.4586V54.082H13.9586V53.582ZM13.9586 45.0508V44.5508H13.4586V45.0508H13.9586ZM16.7301 53.082H14.8375V54.082H16.7301V53.082ZM15.3375 53.5857L15.3492 52.0037L14.3493 51.9963L14.3375 53.5783L15.3375 53.5857ZM14.8492 52.5H16.7301V51.5H14.8492V52.5ZM16.7301 52.5C17.203 52.5 17.6376 52.3854 18.0059 52.1292L17.4348 51.3083C17.264 51.4271 17.0384 51.5 16.7301 51.5V52.5ZM18.0031 52.1311C18.3761 51.8753 18.6395 51.5054 18.809 51.058L17.8739 50.7037C17.7621 50.9985 17.6114 51.1872 17.4376 51.3064L18.0031 52.1311ZM18.808 51.0607C18.981 50.6117 19.0582 50.0857 19.0582 49.498H18.0582C18.0582 50.0042 17.9909 50.4 17.8749 50.701L18.808 51.0607ZM19.0582 49.498V49.1289H18.0582V49.498H19.0582ZM19.0582 49.1289C19.0582 48.687 19.0142 48.2827 18.9184 47.9223L17.952 48.1792C18.0202 48.436 18.0582 48.7505 18.0582 49.1289H19.0582ZM18.9203 47.9295C18.8297 47.5671 18.6879 47.2422 18.4827 46.9703L17.6845 47.5727C17.7918 47.7148 17.8845 47.9094 17.9501 48.172L18.9203 47.9295ZM18.4854 46.9739C18.2794 46.6957 18.017 46.4823 17.7029 46.3409L17.2925 47.2528C17.4472 47.3224 17.5754 47.4254 17.6818 47.5691L18.4854 46.9739ZM17.7057 46.3422C17.3989 46.2018 17.0602 46.1387 16.7008 46.1387V47.1387C16.943 47.1387 17.1355 47.181 17.2896 47.2515L17.7057 46.3422ZM16.7008 46.1387H14.8024V47.1387H16.7008V46.1387ZM15.3024 46.6387V45.0508H14.3024V46.6387H15.3024ZM14.8024 45.5508H16.7008V44.5508H14.8024V45.5508ZM16.7008 45.5508C17.2205 45.5508 17.6839 45.6401 18.0972 45.8115L18.4802 44.8877C17.9326 44.6607 17.3373 44.5508 16.7008 44.5508V45.5508ZM18.1017 45.8133C18.5222 45.9829 18.8803 46.2246 19.1814 46.5391L19.9038 45.8476C19.5018 45.4277 19.024 45.107 18.4757 44.8859L18.1017 45.8133ZM19.1852 46.543C19.4903 46.8549 19.7277 47.2274 19.896 47.667L20.8299 47.3095C20.6153 46.7491 20.3058 46.2584 19.9 45.8437L19.1852 46.543ZM19.8977 47.6714C20.0671 48.1018 20.1559 48.5894 20.1559 49.1406H21.1559C21.1559 48.4809 21.0493 47.8669 20.8282 47.3051L19.8977 47.6714ZM20.1559 49.1406V49.498H21.1559V49.1406H20.1559ZM20.1559 49.498C20.1559 50.0448 20.0673 50.533 19.8972 50.9685L20.8286 51.3323C21.0492 50.7678 21.1559 50.1544 21.1559 49.498H20.1559ZM19.896 50.9716C19.7272 51.4124 19.4911 51.7856 19.1892 52.0976L19.9078 52.793C20.309 52.3784 20.6158 51.8884 20.8299 51.3291L19.896 50.9716ZM19.1892 52.0976C18.8865 52.4103 18.5281 52.6534 18.1089 52.8272L18.4919 53.7509C19.0337 53.5263 19.5073 53.2069 19.9078 52.793L19.1892 52.0976ZM18.1108 52.8264C17.7006 52.9945 17.2424 53.082 16.7301 53.082V54.082C17.3585 54.082 17.9471 53.9742 18.49 53.7517L18.1108 52.8264ZM15.5153 45.0508V53.582H16.5153V45.0508H15.5153ZM16.0153 53.082H13.9586V54.082H16.0153V53.082ZM14.4586 53.582V45.0508H13.4586V53.582H14.4586ZM13.9586 45.5508H16.0153V44.5508H13.9586V45.5508ZM23.568 44.582H24.068V44.082H23.568V44.582ZM23.568 53.582V54.082H24.068V53.582H23.568ZM21.5934 53.582H21.0934V54.082H21.5934V53.582ZM21.5934 44.582V44.082H21.0934V44.582H21.5934ZM23.3336 50.1953L23.3463 50.6952L23.8336 50.6828V50.1953H23.3336ZM22.8707 50.207H22.3707V50.7198L22.8834 50.7069L22.8707 50.207ZM26.0406 47.2598L25.8761 47.7319L25.8783 47.7327L26.0406 47.2598ZM26.7145 47.6934L26.3504 48.0361L26.3539 48.0398L26.7145 47.6934ZM27.1539 48.4727L26.6773 48.6238L26.679 48.629L27.1539 48.4727ZM27.3121 53.582V54.082H27.8121V53.582H27.3121ZM25.3258 53.582H24.8258V54.082H25.3258V53.582ZM25.2145 49.0352L24.7649 49.2539L24.7685 49.2613L24.7723 49.2685L25.2145 49.0352ZM24.9098 48.7363L24.7079 49.1939L24.7194 49.1987L24.9098 48.7363ZM23.527 49.0938L23.0899 48.8509L23.0876 48.8552L23.527 49.0938ZM23.068 44.582V53.582H24.068V44.582H23.068ZM23.568 53.082H21.5934V54.082H23.568V53.082ZM22.0934 53.582V44.582H21.0934V53.582H22.0934ZM21.5934 45.082H23.568V44.082H21.5934V45.082ZM23.321 49.6955L22.8581 49.7072L22.8834 50.7069L23.3463 50.6952L23.321 49.6955ZM23.3707 50.207C23.3707 49.8026 23.4204 49.4402 23.5148 49.1166L22.5548 48.8366C22.4304 49.2629 22.3707 49.7208 22.3707 50.207H23.3707ZM23.5148 49.1166C23.6101 48.7899 23.7425 48.5179 23.9069 48.2935L23.1002 47.7026C22.8583 48.0328 22.6783 48.4132 22.5548 48.8366L23.5148 49.1166ZM23.9069 48.2935C24.0686 48.0727 24.2567 47.9093 24.4716 47.7945L24.0004 46.9125C23.6449 47.1024 23.3447 47.3687 23.1002 47.7026L23.9069 48.2935ZM24.4716 47.7945C24.6788 47.6838 24.9134 47.625 25.1852 47.625V46.625C24.7617 46.625 24.3634 46.7185 24.0004 46.9125L24.4716 47.7945ZM25.1852 47.625C25.4496 47.625 25.6782 47.663 25.8761 47.7319L26.2052 46.7876C25.8874 46.6769 25.5457 46.625 25.1852 46.625V47.625ZM25.8783 47.7327C26.0641 47.7965 26.2192 47.8967 26.3504 48.036L27.0786 47.3507C26.8347 47.0916 26.5406 46.9028 26.203 46.7869L25.8783 47.7327ZM26.3539 48.0398C26.4819 48.173 26.594 48.361 26.6773 48.6238L27.6305 48.3215C27.5107 47.9437 27.3299 47.6122 27.075 47.3469L26.3539 48.0398ZM26.679 48.629C26.763 48.8842 26.8121 49.2186 26.8121 49.6445H27.8121C27.8121 49.1485 27.7558 48.7018 27.6288 48.3163L26.679 48.629ZM26.8121 49.6445V53.582H27.8121V49.6445H26.8121ZM27.3121 53.082H25.3258V54.082H27.3121V53.082ZM25.8258 53.582V49.6328H24.8258V53.582H25.8258ZM25.8258 49.6328C25.8258 49.3387 25.7854 49.0457 25.6567 48.8018L24.7723 49.2685C24.792 49.3058 24.8258 49.4113 24.8258 49.6328H25.8258ZM25.6641 48.8164C25.547 48.5758 25.36 48.381 25.1002 48.274L24.7194 49.1987C24.7252 49.201 24.7413 49.2055 24.7649 49.2539L25.6641 48.8164ZM25.1116 48.2789C24.8984 48.1848 24.6633 48.1484 24.4235 48.1484V49.1484C24.5664 49.1484 24.6555 49.1707 24.708 49.1938L25.1116 48.2789ZM24.4235 48.1484C24.1416 48.1484 23.8642 48.1955 23.6232 48.3258L24.0987 49.2055C24.1467 49.1795 24.2444 49.1484 24.4235 49.1484V48.1484ZM23.6232 48.3258C23.3967 48.4482 23.2154 48.6251 23.0899 48.8509L23.9641 49.3366C23.9949 49.2811 24.0362 49.2393 24.0987 49.2055L23.6232 48.3258ZM23.0876 48.8552C22.9798 49.0536 22.9139 49.2744 22.8799 49.5079L23.8694 49.6522C23.89 49.5107 23.9257 49.4073 23.9664 49.3323L23.0876 48.8552ZM22.8799 49.5079C22.8485 49.723 22.8336 49.9526 22.8336 50.1953H23.8336C23.8336 49.9927 23.8461 49.8121 23.8694 49.6522L22.8799 49.5079ZM32.111 52.041H31.611V52.0619L31.6127 52.0827L32.111 52.041ZM32.111 47.2422V46.7422H31.611V47.2422H32.111ZM34.0914 47.2422H34.5914V46.7422H34.0914V47.2422ZM34.0914 53.582V54.082H34.5914V53.582H34.0914ZM32.2399 53.582L31.7416 53.6237L31.7799 54.082H32.2399V53.582ZM32.2985 50.752L32.2871 50.2521L31.7985 50.2632V50.752H32.2985ZM32.8141 50.7402H33.3141V50.2287L32.8027 50.2404L32.8141 50.7402ZM32.6617 51.9238L33.1429 52.0598L33.1433 52.0585L32.6617 51.9238ZM32.2106 52.8613L31.8106 52.5613L31.8077 52.5651L32.2106 52.8613ZM31.484 53.4824L31.7101 53.9284L31.7124 53.9272L31.484 53.4824ZM29.6324 53.5703L29.4679 54.0425L29.4765 54.0454L29.6324 53.5703ZM28.9645 53.1543L28.6073 53.5042L28.6109 53.5079L28.9645 53.1543ZM28.525 52.4219L28.0512 52.5819L28.0539 52.5893L28.525 52.4219ZM28.3727 47.2422V46.7422H27.8727V47.2422H28.3727ZM30.3473 47.2422H30.8473V46.7422H30.3473V47.2422ZM30.5524 51.9766L30.1889 52.3199L30.1938 52.3251L30.1988 52.3301L30.5524 51.9766ZM30.7985 52.1289L30.6291 52.5993L30.6402 52.6033L30.6514 52.6068L30.7985 52.1289ZM32.193 51.4785L31.7177 51.323L31.7153 51.3309L32.193 51.4785ZM32.611 52.041V47.2422H31.611V52.041H32.611ZM32.111 47.7422H34.0914V46.7422H32.111V47.7422ZM33.5914 47.2422V53.582H34.5914V47.2422H33.5914ZM34.0914 53.082H32.2399V54.082H34.0914V53.082ZM32.7381 53.5404L32.6092 51.9993L31.6127 52.0827L31.7416 53.6237L32.7381 53.5404ZM32.3098 51.2518L32.8254 51.2401L32.8027 50.2404L32.2871 50.2521L32.3098 51.2518ZM32.3141 50.7402C32.3141 51.1263 32.2681 51.475 32.1802 51.7892L33.1433 52.0585C33.2586 51.6461 33.3141 51.2058 33.3141 50.7402H32.3141ZM32.1806 51.7878C32.0937 52.0954 31.9686 52.3507 31.8106 52.5613L32.6106 53.1613C32.851 52.8407 33.0267 52.471 33.1429 52.0598L32.1806 51.7878ZM31.8077 52.5651C31.6576 52.7693 31.4748 52.9251 31.2556 53.0376L31.7124 53.9272C32.0714 53.7429 32.3729 53.4846 32.6134 53.1575L31.8077 52.5651ZM31.258 53.0364C31.054 53.1398 30.8038 53.1992 30.4938 53.1992V54.1992C30.9338 54.1992 31.3437 54.1141 31.7101 53.9284L31.258 53.0364ZM30.4938 53.1992C30.2272 53.1992 29.9935 53.1626 29.7884 53.0953L29.4765 54.0454C29.7948 54.1499 30.1353 54.1992 30.4938 54.1992V53.1992ZM29.797 53.0982C29.6081 53.0323 29.4507 52.9334 29.318 52.8007L28.6109 53.5079C28.8533 53.7502 29.1411 53.9286 29.4679 54.0425L29.797 53.0982ZM29.3217 52.8044C29.1931 52.6732 29.0816 52.4949 28.9962 52.2545L28.0539 52.5893C28.1794 52.9426 28.3609 53.2526 28.6073 53.5042L29.3217 52.8044ZM28.9987 52.2619C28.9191 52.0261 28.8727 51.7235 28.8727 51.3438H27.8727C27.8727 51.7999 27.9278 52.2161 28.0513 52.5818L28.9987 52.2619ZM28.8727 51.3438V47.2422H27.8727V51.3438H28.8727ZM28.3727 47.7422H30.3473V46.7422H28.3727V47.7422ZM29.8473 47.2422V51.3555H30.8473V47.2422H29.8473ZM29.8473 51.3555C29.8473 51.5356 29.8695 51.7147 29.9275 51.8823L30.8725 51.5552C30.8602 51.5196 30.8473 51.4566 30.8473 51.3555H29.8473ZM29.9275 51.8823C29.9833 52.0433 30.0686 52.1926 30.1889 52.3199L30.9159 51.6333C30.9033 51.6199 30.8871 51.5973 30.8725 51.5552L29.9275 51.8823ZM30.1988 52.3301C30.3225 52.4538 30.4696 52.5419 30.6291 52.5993L30.9678 51.6585C30.9321 51.6456 30.915 51.6321 30.9059 51.623L30.1988 52.3301ZM30.6514 52.6068C30.8095 52.6554 30.9756 52.6758 31.1442 52.6758V51.6758C31.0549 51.6758 30.9905 51.6649 30.9455 51.651L30.6514 52.6068ZM31.1442 52.6758C31.505 52.6758 31.8563 52.6005 32.1399 52.3894L31.5429 51.5872C31.4907 51.6261 31.3771 51.6758 31.1442 51.6758V52.6758ZM32.1399 52.3894C32.3995 52.1963 32.5754 51.9344 32.6707 51.6262L31.7153 51.3309C31.6778 51.4523 31.6193 51.5303 31.5429 51.5872L32.1399 52.3894ZM32.6682 51.634C32.7577 51.3604 32.7985 51.0645 32.7985 50.752H31.7985C31.7985 50.9785 31.7689 51.1669 31.7178 51.323L32.6682 51.634ZM37.1149 44.582H37.6149V44.082H37.1149V44.582ZM37.1149 53.582V54.082H37.6149V53.582H37.1149ZM35.1403 53.582H34.6403V54.082H35.1403V53.582ZM35.1403 44.582V44.082H34.6403V44.582H35.1403ZM36.8805 50.1953L36.8931 50.6952L37.3805 50.6828V50.1953H36.8805ZM36.4176 50.207H35.9176V50.7198L36.4303 50.7069L36.4176 50.207ZM39.5875 47.2598L39.423 47.7319L39.4252 47.7327L39.5875 47.2598ZM40.2614 47.6934L39.8972 48.0361L39.9008 48.0398L40.2614 47.6934ZM40.7008 48.4727L40.2242 48.6238L40.2259 48.629L40.7008 48.4727ZM40.859 53.582V54.082H41.359V53.582H40.859ZM38.8727 53.582H38.3727V54.082H38.8727V53.582ZM38.7614 49.0352L38.3117 49.2539L38.3153 49.2613L38.3192 49.2685L38.7614 49.0352ZM38.4567 48.7363L38.2548 49.1939L38.2663 49.1987L38.4567 48.7363ZM37.0739 49.0938L36.6368 48.8509L36.6344 48.8552L37.0739 49.0938ZM36.6149 44.582V53.582H37.6149V44.582H36.6149ZM37.1149 53.082H35.1403V54.082H37.1149V53.082ZM35.6403 53.582V44.582H34.6403V53.582H35.6403ZM35.1403 45.082H37.1149V44.082H35.1403V45.082ZM36.8678 49.6955L36.4049 49.7072L36.4303 50.7069L36.8931 50.6952L36.8678 49.6955ZM36.9176 50.207C36.9176 49.8026 36.9673 49.4402 37.0617 49.1166L36.1017 48.8366C35.9773 49.2629 35.9176 49.7208 35.9176 50.207H36.9176ZM37.0617 49.1166C37.1569 48.7899 37.2894 48.5179 37.4538 48.2935L36.647 47.7026C36.4052 48.0328 36.2251 48.4132 36.1017 48.8366L37.0617 49.1166ZM37.4538 48.2935C37.6155 48.0727 37.8036 47.9093 38.0184 47.7945L37.5472 46.9125C37.1918 47.1024 36.8916 47.3687 36.647 47.7026L37.4538 48.2935ZM38.0184 47.7945C38.2257 47.6838 38.4602 47.625 38.7321 47.625V46.625C38.3086 46.625 37.9103 46.7185 37.5472 46.9125L38.0184 47.7945ZM38.7321 47.625C38.9965 47.625 39.2251 47.663 39.423 47.7319L39.7521 46.7876C39.4343 46.6769 39.0926 46.625 38.7321 46.625V47.625ZM39.4252 47.7327C39.611 47.7965 39.7661 47.8967 39.8973 48.036L40.6255 47.3507C40.3816 47.0916 40.0875 46.9028 39.7499 46.7869L39.4252 47.7327ZM39.9008 48.0398C40.0288 48.173 40.1409 48.361 40.2242 48.6238L41.1774 48.3215C41.0576 47.9437 40.8767 47.6122 40.6219 47.3469L39.9008 48.0398ZM40.2259 48.629C40.3099 48.8842 40.359 49.2186 40.359 49.6445H41.359C41.359 49.1485 41.3026 48.7018 41.1757 48.3163L40.2259 48.629ZM40.359 49.6445V53.582H41.359V49.6445H40.359ZM40.859 53.082H38.8727V54.082H40.859V53.082ZM39.3727 53.582V49.6328H38.3727V53.582H39.3727ZM39.3727 49.6328C39.3727 49.3387 39.3323 49.0457 39.2035 48.8018L38.3192 49.2685C38.3389 49.3058 38.3727 49.4113 38.3727 49.6328H39.3727ZM39.211 48.8164C39.0939 48.5758 38.9069 48.381 38.647 48.274L38.2663 49.1987C38.272 49.201 38.2882 49.2055 38.3117 49.2539L39.211 48.8164ZM38.6585 48.2789C38.4453 48.1848 38.2102 48.1484 37.9703 48.1484V49.1484C38.1133 49.1484 38.2024 49.1707 38.2548 49.1938L38.6585 48.2789ZM37.9703 48.1484C37.6884 48.1484 37.4111 48.1955 37.1701 48.3258L37.6456 49.2055C37.6936 49.1795 37.7913 49.1484 37.9703 49.1484V48.1484ZM37.1701 48.3258C36.9436 48.4482 36.7622 48.6251 36.6368 48.8509L37.5109 49.3366C37.5417 49.2811 37.583 49.2393 37.6456 49.2055L37.1701 48.3258ZM36.6344 48.8552C36.5267 49.0536 36.4608 49.2744 36.4267 49.5079L37.4163 49.6522C37.4369 49.5107 37.4725 49.4073 37.5133 49.3323L36.6344 48.8552ZM36.4267 49.5079C36.3954 49.723 36.3805 49.9526 36.3805 50.1953H37.3805C37.3805 49.9927 37.393 49.8121 37.4163 49.6522L36.4267 49.5079ZM43.9469 48.8125H44.4469V48.792L44.4452 48.7716L43.9469 48.8125ZM43.9469 53.582V54.082H44.4469V53.582H43.9469ZM41.9723 53.582H41.4723V54.082H41.9723V53.582ZM41.9723 47.2422V46.7422H41.4723V47.2422H41.9723ZM43.818 47.2422L44.3163 47.2013L44.2786 46.7422H43.818V47.2422ZM45.8219 47.1953L46.3218 47.2049L46.329 46.8311L45.9725 46.7185L45.8219 47.1953ZM45.7867 49.0293L45.737 49.5268L46.2763 49.5807L46.2867 49.0389L45.7867 49.0293ZM44.5387 49.0645L44.6866 49.5421L44.6935 49.5399L44.5387 49.0645ZM44.1285 49.2988L44.4754 49.659L44.4756 49.6588L44.1285 49.2988ZM43.8942 49.6855L43.4185 49.531L43.4153 49.5419L43.8942 49.6855ZM43.8297 50.2305L43.5555 50.6486L44.3475 51.1679L44.3296 50.221L43.8297 50.2305ZM43.4723 49.9961H42.9723V50.2661L43.1981 50.4142L43.4723 49.9961ZM43.5953 48.8359L43.1096 48.7172L43.1087 48.7211L43.5953 48.8359ZM43.9586 47.9277L44.3845 48.1898L44.3862 48.1869L43.9586 47.9277ZM44.527 47.3359L44.7886 47.7621L44.794 47.7587L44.527 47.3359ZM45.5641 47.1426L45.5021 47.6387L45.5045 47.639L45.5641 47.1426ZM43.4469 48.8125V53.582H44.4469V48.8125H43.4469ZM43.9469 53.082H41.9723V54.082H43.9469V53.082ZM42.4723 53.582V47.2422H41.4723V53.582H42.4723ZM41.9723 47.7422H43.818V46.7422H41.9723V47.7422ZM43.3197 47.2831L43.4486 48.8534L44.4452 48.7716L44.3163 47.2013L43.3197 47.2831ZM45.322 47.1857L45.2868 49.0197L46.2867 49.0389L46.3218 47.2049L45.322 47.1857ZM45.8365 48.5318C45.7556 48.5237 45.6479 48.5137 45.5143 48.5019L45.4264 49.4981C45.5584 49.5097 45.6617 49.5193 45.737 49.5268L45.8365 48.5318ZM45.5143 48.5019C45.3731 48.4895 45.246 48.4824 45.1364 48.4824V49.4824C45.2064 49.4824 45.3019 49.4871 45.4264 49.4981L45.5143 48.5019ZM45.1364 48.4824C44.8684 48.4824 44.6144 48.514 44.3839 48.589L44.6935 49.5399C44.7989 49.5056 44.9434 49.4824 45.1364 49.4824V48.4824ZM44.3909 48.5868C44.1619 48.6577 43.9541 48.7724 43.7815 48.9389L44.4756 49.6588C44.5217 49.6143 44.5874 49.5728 44.6865 49.5421L44.3909 48.5868ZM43.7817 48.9387C43.6102 49.1038 43.4917 49.3064 43.4186 49.531L44.3697 49.8401C44.3982 49.7522 44.4359 49.697 44.4754 49.659L43.7817 48.9387ZM43.4153 49.5419C43.3501 49.759 43.3252 49.9943 43.3298 50.2399L44.3296 50.221C44.3264 50.0526 44.3445 49.9245 44.3731 49.8292L43.4153 49.5419ZM44.1039 49.8123L43.7465 49.578L43.1981 50.4142L43.5555 50.6486L44.1039 49.8123ZM43.9723 49.9961C43.9723 49.6018 44.0103 49.2544 44.082 48.9508L43.1087 48.7211C43.0163 49.1128 42.9723 49.5388 42.9723 49.9961H43.9723ZM44.081 48.9547C44.1572 48.6433 44.2606 48.391 44.3844 48.1898L43.5328 47.6657C43.3441 47.9723 43.2054 48.3255 43.1096 48.7172L44.081 48.9547ZM44.3862 48.1869C44.5076 47.9866 44.6435 47.8511 44.7886 47.762L44.2653 46.9099C43.9651 47.0942 43.7222 47.3532 43.531 47.6686L44.3862 48.1869ZM44.794 47.7587C44.9324 47.6713 45.0889 47.625 45.277 47.625V46.625C44.9104 46.625 44.5669 46.7194 44.26 46.9132L44.794 47.7587ZM45.277 47.625C45.3546 47.625 45.4296 47.6297 45.5021 47.6387L45.6261 46.6464C45.5111 46.6321 45.3947 46.625 45.277 46.625V47.625ZM45.5045 47.639C45.579 47.6479 45.6333 47.6601 45.6713 47.6721L45.9725 46.7185C45.862 46.6837 45.7445 46.6606 45.6237 46.6461L45.5045 47.639Z" fill="black" mask="url(#path-3-outside-1_3219_5227)"/>
<defs>
<linearGradient id="paint0_linear_3219_5227" x1="31.8984" y1="1.97237" x2="31.8984" y2="100.338" gradientUnits="userSpaceOnUse">
<stop stop-color="#3478A5"/>
<stop offset="0.138072" stop-color="#A6A6A6"/>
<stop offset="0.391252" stop-color="#FFC369"/>
<stop offset="0.805" stop-color="#FAA466"/>
<stop offset="1" stop-color="#FFED8F"/>
</linearGradient>
</defs>
</svg>
