<svg width="92" height="70" viewBox="0 0 92 70" fill="none" xmlns="http://www.w3.org/2000/svg">
<path d="M5.50565 0.765452L63.7286 0.765457C66.7568 0.765457 69.2344 3.24307 69.2344 6.27126L69.2344 64.4942C69.2344 67.5224 66.7568 70 63.7286 70L5.50564 70C2.47745 70 -0.000160001 67.5224 -0.000159736 64.4942L-0.000154646 6.27125C-0.000154381 3.24307 2.47745 0.765451 5.50565 0.765452Z" fill="#B2DF8A"/>
<path d="M28.2044 0.765452L86.4273 0.765457C89.4555 0.765457 91.9331 3.24307 91.9331 6.27126L91.9331 64.4942C91.9331 67.5224 89.4555 70 86.4273 70L28.2044 70C25.1762 70 22.6986 67.5224 22.6986 64.4942L22.6986 6.27125C22.6986 3.24307 25.1762 0.765451 28.2044 0.765452Z" fill="#128C7B"/>
<path d="M10.1258 6.46119L12.6309 6.46119C15.6591 6.46119 18.1367 8.9388 18.1367 11.967L18.1367 58.7989C18.1367 61.8271 15.6591 64.3047 12.6309 64.3047L10.1258 64.3047C7.09759 64.3047 4.61998 61.8271 4.61998 58.7989L4.61998 11.967C4.61998 8.9388 7.0976 6.46119 10.1258 6.46119Z" fill="#128C7B"/>
<path d="M33.905 6.46607L80.7369 6.46607C83.7651 6.46607 86.2427 8.94368 86.2427 11.9719L86.2427 58.8038C86.2427 61.832 83.7651 64.3096 80.7369 64.3096L33.905 64.3096C30.8768 64.3096 28.3992 61.832 28.3992 58.8038L28.3992 11.9719C28.3992 8.94367 30.8768 6.46607 33.905 6.46607Z" fill="#B2DF8A"/>
<path d="M53.3871 18.1572C53.4903 18.0061 53.6106 17.9684 53.7996 18.025C54.4527 18.2893 55.0199 18.648 55.5355 19.1389C55.673 19.29 55.6902 19.441 55.6042 19.6109L54.4699 21.5744C54.3496 21.7444 54.1949 21.7632 54.0402 21.6311C53.8856 21.4989 53.3184 21.1024 52.3388 20.4605C52.1841 20.3472 52.1497 20.1962 52.2528 20.0263L53.3871 18.1572ZM55.2433 44.0793C57.8729 45.0988 61.4305 45.1932 65.9162 44.3625C66.6209 44.2115 66.9818 44.2492 66.999 44.4569C67.0162 44.7401 66.8099 45.0044 66.3803 45.2876L63.3039 47.2889C62.7539 47.6476 61.9977 47.8553 61.0009 47.9308C58.9556 48.0819 57.2713 47.9875 55.948 47.6288C52.0981 46.5715 50.4998 43.4752 51.1357 38.3965C51.4622 35.791 52.3559 33.4499 53.834 31.392C52.1497 30.5613 51.3419 29.7495 51.4279 28.9376C51.6857 26.521 52.6825 24.6707 54.4012 23.3869C55.0371 22.9149 55.7761 22.9527 56.5839 23.5191C57.1682 23.9155 57.6151 24.3309 57.8901 24.784C58.0104 24.9917 58.0447 25.1616 57.9932 25.3127C57.9416 25.4637 57.7182 25.4826 57.3229 25.3882C55.6042 24.9917 54.0231 25.7091 52.5966 27.5027C53.7309 28.5034 55.0027 28.9754 56.3948 28.881C56.6011 28.8621 56.9104 28.711 57.3573 28.409C58.6978 27.4272 59.6087 26.8042 60.1243 26.4832C60.8805 26.0112 61.1899 26.1056 61.0352 26.7475L60.279 28.7299C60.1759 28.9942 60.0384 29.1642 59.8493 29.2586C58.715 29.8438 57.3229 30.769 55.7073 32.0339C53.4903 33.7709 52.27 36.0176 52.0294 38.7552C51.806 41.3606 52.8716 43.1542 55.2433 44.0793Z" fill="#17AF9A"/>
</svg>
