<svg width="92" height="70" viewBox="0 0 92 70" fill="none" xmlns="http://www.w3.org/2000/svg">
<path d="M5.50565 0.765452L63.7286 0.765457C66.7568 0.765457 69.2344 3.24307 69.2344 6.27126L69.2344 64.4942C69.2344 67.5224 66.7568 70 63.7286 70L5.50564 70C2.47745 70 -0.000160001 67.5224 -0.000159736 64.4942L-0.000154646 6.27125C-0.000154381 3.24307 2.47745 0.765451 5.50565 0.765452Z" fill="#B2DF8A"/>
<path d="M28.2044 0.765452L86.4273 0.765457C89.4555 0.765457 91.9331 3.24307 91.9331 6.27126L91.9331 64.4942C91.9331 67.5224 89.4555 70 86.4273 70L28.2044 70C25.1762 70 22.6986 67.5224 22.6986 64.4942L22.6986 6.27125C22.6986 3.24307 25.1762 0.765451 28.2044 0.765452Z" fill="#128C7B"/>
<path d="M10.1258 6.46119L12.6309 6.46119C15.6591 6.46119 18.1367 8.9388 18.1367 11.967L18.1367 58.7989C18.1367 61.8271 15.6591 64.3047 12.6309 64.3047L10.1258 64.3047C7.09759 64.3047 4.61998 61.8271 4.61998 58.7989L4.61998 11.967C4.61998 8.9388 7.0976 6.46119 10.1258 6.46119Z" fill="#128C7B"/>
<path d="M33.905 6.46607L80.7369 6.46607C83.7651 6.46607 86.2427 8.94368 86.2427 11.9719L86.2427 58.8038C86.2427 61.832 83.7651 64.3096 80.7369 64.3096L33.905 64.3096C30.8768 64.3096 28.3992 61.832 28.3992 58.8038L28.3992 11.9719C28.3992 8.94367 30.8768 6.46607 33.905 6.46607Z" fill="#B2DF8A"/>
<path d="M65.9629 22.7687C66.0757 22.5945 66.2636 22.5364 66.4892 22.6138C67.3349 22.9235 68.1055 23.3879 68.7634 23.9878C68.9325 24.162 68.9701 24.3555 68.8574 24.5684L67.3725 26.9875C67.2222 27.2197 67.053 27.239 66.8463 27.0842C66.6583 26.9294 66.1696 26.6004 65.4178 26.1166L64.4593 27.7035C64.2901 27.9164 64.1022 27.9357 63.8954 27.7809C63.6887 27.6068 62.9368 27.1229 61.6588 26.3295C61.452 26.194 61.4144 26.0199 61.546 25.7876L63.0496 23.4847C63.294 23.1363 63.9706 23.3299 65.0983 24.0846L65.9629 22.7687ZM63.7638 19.1885C63.8766 19.0143 64.0646 18.9562 64.2901 19.0336C65.1359 19.3433 65.9065 19.8077 66.5643 20.4077C66.7335 20.5818 66.7711 20.7753 66.6583 20.9882L65.1735 23.4073C65.0043 23.6201 64.8352 23.6589 64.6096 23.4847C64.4029 23.3105 63.6511 22.8267 62.373 22.0333C62.1662 21.8978 62.1287 21.7236 62.2602 21.5301L63.7638 19.1885ZM69.4776 29.9677C69.628 29.3872 69.9287 29.3291 70.361 29.8129C70.7933 30.2967 71 31.0708 71 32.1352C71 34.2059 70.6241 35.8509 69.8535 37.0894C69.6092 37.4958 69.252 37.7667 68.801 37.8829C67.8988 38.1344 66.8651 37.8442 65.7374 36.9733C64.7412 38.5989 63.4255 39.3536 61.7527 39.2182C61.6212 40.9018 61.3392 42.4113 60.907 43.7466C60.4747 45.1013 59.6665 46.2237 58.52 47.1527C56.0578 49.1266 53.4453 50.0555 50.6824 49.9974C47.2052 49.8813 45.025 48.2557 44.1604 45.0819C43.916 44.1917 43.9536 42.9725 44.2544 41.405C44.5551 39.8374 45.1565 38.1731 46.0775 36.4121C46.2467 36.1024 46.4158 36.025 46.6226 36.1605C46.8293 36.296 46.8669 36.5088 46.7353 36.7798C45.7204 39.2956 45.3257 40.9405 45.5324 41.7146C46.2279 44.3272 48.051 45.6432 50.9831 45.6625C55.306 45.6819 58.332 44.3659 60.0236 41.6953C60.08 40.3406 59.5725 38.5989 58.52 36.5088C58.332 36.1411 58.3132 35.8315 58.4448 35.5799L59.7417 33.0641C59.9296 32.6964 60.2115 32.7545 60.5874 33.277C60.9633 33.7995 61.3017 34.3994 61.6024 35.0961C63.8578 35.4445 65.3051 34.264 65.9253 31.5159C66.0381 31.0515 66.226 30.8192 66.5079 30.8386C66.9778 30.8966 67.1094 31.5546 66.8839 32.8125C67.5605 33.2576 68.3499 33.4705 69.1957 33.4512C69.1957 33.3544 69.0829 33.1415 68.8761 32.7932C68.801 32.6771 68.8198 32.4448 68.9138 32.0965L69.4776 29.9677Z" fill="#17AF9A"/>
</svg>
