<svg width="342" height="192" viewBox="0 0 342 192" fill="none" xmlns="http://www.w3.org/2000/svg">
<path d="M0 32.3209C0 21.2752 8.95431 12.3209 20 12.3209H322C333.046 12.3209 342 21.2752 342 32.3209V172C342 183.046 333.046 192 322 192H20C8.95431 192 0 183.046 0 172V32.3209Z" fill="#D9EEF9"/>
<path d="M67.9318 52.3396C69.0472 55.2804 70.0413 57.9039 71.0376 60.5273C70.9746 60.6009 70.9093 60.6722 70.8463 60.7458C70.3353 60.4446 69.8242 60.1433 69.1849 59.764C69.2712 61.2769 69.3366 62.6726 69.4322 64.0636C69.7822 69.1818 70.2816 74.2954 70.4449 79.4205C70.5336 82.2325 70.1929 85.079 69.7986 87.8772C69.5372 89.7374 68.4242 91.2733 66.8561 92.4114C64.0723 94.4325 61.2651 96.4191 58.5093 98.4746C58.1126 98.7712 57.6856 99.3805 57.709 99.8243C58.08 106.97 58.521 114.112 58.955 121.424C70.6946 121.102 82.3876 120.78 94.0781 120.46L94.1108 121.012C82.7632 124.358 71.0073 124.392 59.095 124.838C59.2187 126.779 59.3004 128.595 59.4637 130.405C59.5454 131.313 59.6854 132.237 59.9607 133.104C60.5068 134.822 61.8112 135.486 63.5986 135.084C65.8527 134.578 67.5561 133.198 69.1545 131.665C69.5676 131.267 69.9106 130.798 70.4939 130.12C70.9233 132.529 71.943 134.157 74.0851 135.068C74.2998 134.734 74.5402 134.318 74.8225 133.929C76.5633 131.536 78.1593 129.023 80.0891 126.79C83.846 122.442 89.3296 123.153 91.9897 128.241C92.3141 128.862 92.3981 129.722 92.2884 130.428C91.88 133.081 90.424 135.086 88.0672 136.436C84.3687 138.553 80.4881 139.97 76.1036 139.344C75.3802 139.241 74.6662 139.08 73.8821 138.935C73.5484 139.526 73.2124 140.117 72.7247 140.977C72.6851 140.469 72.5894 140.216 72.6641 140.029C73.1471 138.827 72.5544 138.195 71.5883 137.53C70.76 136.962 70.1416 136.095 69.3646 135.291C68.6832 135.847 67.8875 136.512 67.0731 137.155C65.631 138.296 64.0233 138.979 62.1308 138.769C60.1334 138.549 58.871 137.463 58.346 135.555C58.136 134.792 57.9586 134.021 57.6576 133.219C57.2913 136.111 55.2495 137.795 53.2007 139.468C50.1392 141.97 46.9354 144.246 43.1715 145.642C40.8591 146.5 38.5233 146.835 36.1222 146.008C34.6684 145.506 33.4924 144.649 32.8367 143.26C30.7482 138.825 30.8649 134.378 32.8717 129.947C32.9557 129.759 33.1377 129.614 33.4457 129.522C33.1027 130.906 32.7013 132.276 32.4307 133.674C32.083 135.47 32.2066 137.259 32.8787 138.981C34.0151 141.896 36.6682 143.205 40.1777 142.71C44.2566 142.138 47.7684 140.315 51.0166 137.96C52.5754 136.829 53.9988 135.509 55.4502 134.24C56.4279 133.382 56.8806 132.292 56.8456 130.973C56.7966 129.062 56.8316 127.147 56.8316 125.031C56.3252 125.031 55.8795 125.024 55.4362 125.031C46.184 125.19 36.9319 125.411 27.6774 125.475C25.0126 125.493 22.3338 125.149 19.6807 124.817C17.6016 124.558 16.8245 123.286 17.3355 121.297C18.1429 118.152 19.9513 115.82 22.9918 114.42C24.7816 113.597 26.5107 112.64 28.2468 111.707C29.8615 110.838 30.6666 109.433 30.6246 107.651C30.4496 100.376 30.2255 93.1035 30.0132 85.5734C29.4742 85.8792 29.1428 86.0953 28.7905 86.2631C27.1267 87.061 25.519 88.052 23.7712 88.59C20.7447 89.5235 18.7006 88.1371 18.3389 85.0445C17.9516 81.7336 18.9596 78.6502 20.103 75.6129C20.2127 75.6336 20.3224 75.6543 20.4297 75.675C20.306 76.328 20.18 76.981 20.0587 77.634C19.7787 79.1722 19.354 80.7012 19.2583 82.2486C19.1393 84.1869 20.5767 85.3986 22.5415 85.2055C25.0593 84.9572 27.2014 83.8029 29.1522 82.3084C29.4672 82.067 29.6515 81.4301 29.6118 81.0024C29.1732 76.2383 28.6295 71.4834 28.2304 66.717C28.1324 65.549 28.4521 64.3487 28.7531 63.1715C30.9932 68.7334 30.9069 74.6081 31.4833 80.6736C33.6254 78.8871 35.8352 77.4454 36.7405 74.8679C36.9459 74.2862 36.7919 73.5022 36.5935 72.8745C35.3521 68.9358 34.1014 64.9994 32.748 61.0975C32.1506 59.3708 32.1693 57.7383 32.9277 55.8667C33.4714 56.7013 33.9847 57.4003 34.4094 58.1499C36.6659 62.1437 37.7136 66.5192 38.6143 70.9569C39.2817 74.2425 39.851 77.565 41.5545 80.5609C42.5788 82.3636 44.1143 83.4902 46.079 84.3386C46.2284 83.5983 46.394 82.9016 46.506 82.198C46.7837 80.4644 47.7288 79.2894 49.3832 78.602C50.8813 77.9811 52.3373 77.2661 53.8098 76.3464C53.4691 76.3257 53.1284 76.2912 52.7854 76.2912C49.0915 76.282 45.3977 76.2843 41.7038 76.2705C40.18 76.2636 40.0074 76.0153 40.3224 74.5621C40.9314 71.7685 42.9522 69.9751 45.0873 68.3909C47.2481 66.7883 49.6375 65.48 51.929 64.0498C52.251 63.8498 52.5894 63.675 52.9767 63.4566C52.664 62.7898 52.335 62.192 52.09 61.5597C51.0983 59.0006 52.692 56.4599 55.2098 56.5726C55.5482 56.5887 55.9285 56.6438 56.2062 56.814C57.6203 57.6831 58.9854 58.6304 60.4088 59.4858C62.3152 60.6308 61.4495 63.7233 59.6504 64.3671C58.8873 64.6407 58.1056 64.8914 57.3123 65.0523C56.0919 65.2983 55.3008 65.8571 55.4432 67.4918C54.9741 66.9354 54.6801 66.5859 54.3021 66.1353C50.5966 67.7655 47.1547 69.8026 43.8809 72.6583C51.9663 73.2147 59.7531 72.4744 67.6448 72.4376C67.2084 74.1965 66.7511 75.6382 64.6883 76.2659C60.2851 77.6064 55.9565 79.186 51.614 80.7173C50.4496 81.1289 49.3319 81.6807 48.2328 82.2417C47.1874 82.7751 47.1641 83.2764 48.1558 83.8788C49.5092 84.6996 50.9069 85.4515 52.293 86.2241C53.3617 86.8196 53.7047 89.0223 52.776 89.781C52.5147 89.9949 51.9523 90.0271 51.593 89.9236C49.3272 89.266 47.0824 88.5463 44.8283 87.8519C44.5389 87.7623 44.2426 87.6864 43.8646 87.5829C43.0759 90.411 43.6359 92.8552 45.6567 94.9153C48.3261 97.64 51.558 97.2974 54.9531 96.4742C54.5541 94.4739 54.5191 92.5655 55.7535 90.6341C56.2342 92.393 56.6682 93.9841 57.1653 95.8005C58.731 94.9268 60.2827 94.175 61.7062 93.2369C63.7386 91.8987 65.666 90.4041 67.6681 89.0154C68.5922 88.3739 68.9749 87.5208 68.9095 86.4563C68.5875 81.2208 68.2515 75.9854 67.9155 70.7499C67.6425 66.5077 67.3648 62.2679 67.0871 58.0257C67.0661 57.7199 67.1128 57.3842 66.9961 57.1175C66.2727 55.4597 67.0451 54.0939 67.9365 52.3442L67.9318 52.3396ZM55.4035 99.9553C54.5751 100.139 53.9754 100.28 53.3711 100.406C48.7718 101.369 45.134 99.6495 43.5449 95.727C42.5648 93.3058 42.6115 90.7812 42.9499 88.2589C43.0829 87.2679 42.9429 86.5023 42.1705 85.7803C40.4717 84.1938 39.354 82.2417 38.773 79.9999C38.4463 78.7376 38.1266 77.4753 37.8443 76.3648C37.1116 77.6225 36.4559 79.0066 35.5551 80.2114C34.7338 81.3128 33.6697 82.244 32.6663 83.2051C31.9733 83.8696 31.7003 84.6077 31.7586 85.5665C31.978 89.197 32.034 92.8414 32.349 96.465C32.6803 100.27 33.1867 104.062 33.7187 107.846C33.9544 109.52 35.0558 110.801 36.3089 111.201C36.0825 110.668 35.8515 110.192 35.6742 109.695C34.7804 107.168 35.0815 104.795 36.7102 102.634C38.6306 100.084 42.1332 99.1414 45.771 100.169C47.5258 100.666 49.0962 101.466 50.2932 102.887C49.6772 102.887 49.1172 102.781 48.5641 102.636C44.8726 101.668 41.4144 102.386 38.0916 104.048C37.3519 104.418 36.9972 104.993 37.3356 105.841C37.7463 106.872 38.0356 107.957 38.5443 108.936C40.4601 112.627 43.9276 113.76 47.6331 111.806C49.6795 110.725 51.579 109.375 53.5484 108.155C53.7491 108.03 53.9754 107.943 54.1901 107.84C54.2881 107.915 54.3838 107.989 54.4818 108.065C53.8938 109.106 53.4994 110.339 52.678 111.153C50.3259 113.48 47.5794 115.363 44.2986 116.126C42.5718 116.529 40.6467 116.689 38.9177 116.384C34.9368 115.68 32.454 113.172 31.4646 109.166C30.6082 113.51 29.8242 114.537 25.8643 116.556C24.1422 117.434 22.3945 118.267 20.6887 119.175C19.998 119.543 19.389 120.06 18.5653 120.63C19.3516 120.867 19.858 121.104 20.3854 121.162C22.6628 121.41 24.9449 121.789 27.2271 121.787C36.6355 121.78 46.044 121.647 55.4525 121.575C56.3999 121.569 56.8456 121.272 56.7872 120.237C56.5049 115.154 56.3089 110.065 56.0172 104.982C55.9239 103.351 55.6275 101.733 55.4058 99.9599L55.4035 99.9553ZM75.2565 135.567C75.8632 135.702 76.2972 135.833 76.7429 135.893C81.7482 136.578 86.1164 134.971 90.1906 132.274C91.0587 131.699 91.0027 131.104 90.4683 130.359C88.1885 127.186 83.86 126.466 80.7308 128.827C78.4184 130.573 76.7989 132.897 75.2589 135.567H75.2565ZM53.1681 60.2514C53.6277 61.178 54.0244 61.9782 54.4585 62.8542C55.5318 62.4794 56.5096 62.1391 57.6576 61.739C56.2715 60.594 54.9718 59.941 53.1681 60.2537V60.2514Z" fill="#093042"/>
<path d="M107.677 79.8557C107.268 79.3016 106.979 78.9038 106.655 78.4647C102.91 80.1179 99.4583 82.1596 96.4062 84.8153C96.4295 84.944 96.4552 85.0751 96.4785 85.2039C104.3 85.0843 112.122 84.9647 119.972 84.8452C119.603 86.7651 118.835 88.1009 116.733 88.7241C112.542 89.9634 108.43 91.4648 104.31 92.9225C102.968 93.3985 101.68 94.0423 100.403 94.6746C99.5913 95.077 99.575 95.6863 100.343 96.1484C101.698 96.9647 103.089 97.7257 104.485 98.4707C105.584 99.0593 106.127 101.115 105.278 102C105.019 102.269 104.345 102.317 103.911 102.23C102.167 101.878 100.445 101.43 98.7023 101.016C98.903 103.315 99.1176 105.621 99.3043 107.932C99.694 112.779 100.049 117.628 100.466 122.471C100.583 123.818 100.837 125.195 102.342 125.782C103.887 126.382 105.374 126.221 106.767 125.271C107.674 124.65 107.931 123.756 107.889 122.767C107.728 118.826 107.555 114.885 107.341 110.947C107.177 107.964 106.963 104.985 106.732 102.007C106.662 101.101 106.501 100.2 106.33 99.3053C106.06 97.8821 106.666 96.7209 107.534 95.2241C108.659 98.1235 109.679 100.752 110.696 103.377C110.57 103.451 110.447 103.525 110.321 103.598C109.88 103.274 109.436 102.95 108.797 102.481C108.927 104.667 109.06 106.633 109.163 108.601C109.366 112.503 109.609 116.403 109.726 120.307C109.793 122.592 109.208 124.786 108.139 126.825C106.776 129.428 104.949 130.215 102.072 129.509C101.808 129.444 101.542 129.391 101.276 129.334C101.008 130.757 101.638 132.364 102.991 132.827C105.094 133.544 106.921 134.604 108.477 136.289C110.769 134.342 113.002 132.502 115.162 130.582C116.112 129.739 116.36 128.527 116.285 127.311C115.947 121.808 115.585 116.306 115.202 110.804C114.987 107.711 114.864 104.598 114.402 101.54C114.161 99.9491 113.9 98.4845 114.707 97.0175C114.796 96.8566 114.913 96.7094 115.183 96.3094C116.327 99.0593 117.391 101.614 118.455 104.168C118.359 104.249 118.261 104.329 118.166 104.41C117.722 104.109 117.279 103.807 116.609 103.352C116.789 105.702 116.971 107.845 117.109 109.988C117.4 114.533 117.785 119.075 117.909 123.625C117.991 126.632 117.081 129.513 115.926 132.291C115.218 133.99 113.97 135.218 112.124 135.535C109.565 135.972 107.887 136.995 107.616 139.842C107.462 141.463 106.197 142.587 104.711 143.359C102.013 144.757 99.2367 145.369 96.1775 144.645C95.2208 144.419 94.1054 144.615 93.1113 144.831C91.4896 145.185 89.9238 145.79 88.3021 146.139C87.4527 146.323 87.2637 146.661 87.308 147.45C87.3547 148.321 87.28 149.211 87.154 150.076C86.9907 151.186 86.5917 151.372 85.572 150.864C83.2642 149.715 82.0601 147.818 81.7824 145.316C81.5981 143.64 81.1781 143.318 79.4536 143.387C75.7551 143.534 72.738 145.008 70.2762 147.719C68.3324 149.86 66.3676 151.989 64.2909 154.003C63.0821 155.173 61.7077 156.215 60.2843 157.123C58.1912 158.457 56.1378 157.923 54.775 155.851C53.956 154.608 53.4963 153.26 53.529 151.743C53.599 148.429 55.055 145.608 56.4901 142.771C56.5998 142.803 56.7095 142.835 56.8168 142.867C56.4785 144.052 56.1424 145.236 55.8018 146.418C55.4097 147.776 54.95 149.119 54.642 150.496C54.4787 151.223 54.4414 152.03 54.5767 152.757C54.8894 154.417 55.9464 155.058 57.6358 154.736C59.2506 154.431 60.5947 153.614 61.7591 152.499C64.7155 149.671 67.6884 146.857 70.6122 143.994C72.9806 141.674 75.7014 140.122 79.1036 139.94C79.6403 139.913 80.184 139.993 80.723 139.975C81.4651 139.95 82.2048 139.876 83.0775 139.812C85.642 142.844 88.7688 143.005 91.9586 141.46C91.8839 135.448 94.5347 131.258 99.0663 130.451C98.9636 128.348 98.8866 126.216 98.749 124.092C98.483 120.003 98.2333 115.913 97.8786 111.832C97.6126 108.785 97.1949 105.75 96.8425 102.711C96.8215 102.52 96.7025 102.306 96.7585 102.147C97.4469 100.264 96.1635 99.4134 94.9058 98.4339C92.3973 96.4795 91.3192 93.7066 90.6612 90.7336C90.5142 90.0691 90.3462 89.4092 90.1059 88.7378C89.6135 91.0141 88.0104 92.5409 86.5123 94.1021C83.4042 97.344 79.9297 100.048 75.3678 101.048C73.13 101.538 71.6972 100.738 70.9809 98.5742C70.1292 95.999 70.7335 93.502 71.4196 91.021C71.7136 89.9519 72.1149 88.9103 72.4673 87.8549C72.5816 87.8871 72.696 87.9193 72.8126 87.9515C72.4953 89.423 72.1149 90.8831 71.8816 92.3684C71.7159 93.4077 71.5829 94.4998 71.7346 95.5253C71.9236 96.7991 72.9293 97.6246 74.215 97.4613C75.7621 97.2659 77.3745 96.9463 78.7676 96.2887C82.3798 94.578 85.3783 92.012 88.0687 89.1034C89.2355 87.8411 89.5458 86.3673 88.9858 84.7302C87.6954 80.9686 86.454 77.1886 85.0983 73.45C84.4892 71.7715 84.4589 70.1804 85.2406 68.3984C85.4973 68.6927 85.733 68.9089 85.9056 69.1664C88.4958 73.0361 89.8258 77.3679 90.6449 81.8768C91.3076 85.5212 91.7369 89.223 93.648 92.5248C94.5324 94.0538 95.6501 95.346 97.2672 96.1553C97.6336 96.3393 98.0233 96.4795 98.4759 96.6727C98.532 96.3554 98.5833 96.176 98.5903 95.9944C98.6953 93.249 100.011 91.405 102.667 90.4508C103.85 90.0254 104.961 89.4069 106.048 88.6252C105.728 88.6022 105.409 88.5608 105.089 88.5608C101.355 88.5585 97.6242 88.5608 93.8907 88.5608C92.4836 88.5608 92.3576 88.3148 92.7287 87.0065C93.6457 83.7783 95.9208 81.6147 98.574 79.8075C100.707 78.3543 102.982 77.1058 105.266 75.7239C104.984 75.087 104.608 74.3881 104.354 73.6454C103.547 71.2771 105.028 68.9825 107.371 68.9112C107.488 68.9089 107.632 68.8652 107.716 68.9158C109.698 70.1574 111.77 71.2909 113.606 72.7165C114.432 73.358 113.522 75.8205 112.327 76.5057C111.707 76.8621 110.974 77.0966 110.262 77.2208C108.183 77.5818 108.02 77.6967 107.686 79.858L107.677 79.8557ZM98.2613 141.157C100.107 141.598 103.017 141.221 105.427 140.214C105.92 140.009 106.687 139.529 106.659 139.235C106.613 138.72 106.158 138.034 105.682 137.802C104.076 137.023 102.387 136.411 100.679 135.714C99.841 137.6 99.0686 139.336 98.2589 141.154L98.2613 141.157ZM93.2257 138.011C93.2117 139.405 94.5651 140.773 95.3001 140.306C96.4248 139.593 97.5122 138.763 98.4339 137.814C99.183 137.043 98.973 134.953 98.1866 134.374C97.2439 133.677 96.5205 134.56 95.8135 134.958C95.1601 135.324 94.5721 135.875 94.0914 136.457C93.6667 136.972 93.4287 137.637 93.228 138.014L93.2257 138.011ZM109.968 73.9903C108.37 72.6843 106.813 72.2175 105.551 72.682C105.957 73.5028 106.361 74.3168 106.79 75.1836C107.765 74.8525 108.675 74.5513 109.579 74.2363C109.716 74.188 109.833 74.0777 109.971 73.9903H109.968Z" fill="#093042"/>
<path d="M72.6349 104.319C72.3035 105.802 71.8858 107.274 71.6712 108.771C71.5055 109.929 71.3958 111.162 71.6152 112.295C72.1775 115.206 74.7327 116.657 77.9085 116.023C81.523 115.298 84.4328 113.259 87.2166 111.038C88.479 110.031 89.6528 108.897 90.7681 107.729C91.7785 106.671 91.4799 105.823 90.0238 105.572C88.654 105.338 87.2423 105.331 85.8772 105.083C83.9848 104.738 83.2288 103.714 83.3758 101.841C83.5251 99.946 84.3558 98.394 85.9729 97.3156C87.2306 96.4741 88.5654 96.5913 89.7088 97.58C93.3139 100.7 93.825 107.094 90.7238 110.716C88.094 113.785 85.0395 116.381 81.4297 118.262C80.1533 118.927 78.7112 119.391 77.2878 119.658C74.511 120.18 72.0655 118.724 71.1298 116.098C69.6551 111.964 70.7331 108.085 72.6325 104.319H72.6349ZM89.1697 101.942C88.143 99.9529 86.5563 99.539 85.3825 100.859C86.3229 102.312 87.8047 101.716 89.1697 101.942Z" fill="#093042"/>
<path d="M76.1904 54.9465C77.0724 57.2734 77.9568 59.6026 78.8388 61.9294C78.7618 61.9892 78.6825 62.049 78.6055 62.1111C78.2041 61.8812 77.8028 61.6512 77.2288 61.3247C77.3664 63.5205 77.4738 65.5623 77.6231 67.6041C78.0525 73.4833 78.6288 79.358 78.8715 85.2441C78.9648 87.4882 78.3255 89.7645 77.9685 92.0178C77.8961 92.4799 77.5998 92.9053 77.4061 93.3491C77.3011 93.3376 77.1961 93.3261 77.0911 93.3123C77.0654 92.9743 77.0304 92.6363 77.0164 92.296C76.7527 86.0236 76.5637 79.7488 76.2044 73.4833C75.922 68.556 75.3667 63.6424 75.0633 58.715C74.9886 57.4826 75.418 56.2203 75.6163 54.9741C75.8077 54.9649 75.9967 54.9557 76.188 54.9465H76.1904Z" fill="#093042"/>
<path d="M98.1279 54.5384C97.9272 55.7179 97.1898 56.2376 96.2028 56.5618C92.9709 57.6286 89.7391 58.6932 86.5283 59.8152C85.4829 60.1808 84.5005 60.7212 83.4901 61.181C83.4808 61.3098 83.4691 61.4408 83.4598 61.5696C84.1435 61.8156 84.8155 62.0938 85.5109 62.3031C86.9786 62.7422 87.0696 62.8779 86.5889 64.5449C85.3592 64.1862 84.0922 63.9011 82.9068 63.4182C82.5941 63.2894 82.2861 62.4709 82.4051 62.1076C82.9464 60.4567 83.9055 59.022 85.6462 58.4311C89.6364 57.0768 93.6616 55.8168 97.6729 54.5223C97.7709 54.4901 97.8945 54.5269 98.1255 54.5384H98.1279Z" fill="#093042"/>
<path d="M64.2965 50.7041C64.1541 51.1708 64.0025 51.6606 63.7668 52.4331C63.1298 51.1019 62.5814 50.0304 62.117 48.9244C62.0097 48.6715 62.1194 48.2554 62.278 48.007C62.3387 47.9105 62.8754 47.9771 63.0878 48.122C67.204 50.9501 71.3855 50.0971 75.5857 48.3726C76.6848 47.9197 77.7232 47.2276 79.1372 47.6759C79.6039 50.1293 77.3732 51.1961 76.4164 52.9137C76.2974 52.8447 76.1761 52.778 76.0571 52.7091C76.8948 51.5364 77.7325 50.3638 78.5725 49.1912C78.5095 49.0923 78.4489 48.9934 78.3859 48.8946C77.6858 49.1222 76.9671 49.3084 76.2881 49.5843C73.2873 50.803 70.2375 51.7618 66.9286 51.2789C66.0606 51.1524 65.2112 50.9064 64.2988 50.7018L64.2965 50.7041Z" fill="#093042"/>
<path d="M96.1211 70.4229C98.6506 68.48 101.178 66.5348 103.768 64.5459C103.49 64.3114 103.317 64.0999 103.093 63.9826C102.237 63.5389 101.621 62.9502 101.824 61.9087C102.048 60.7498 102.727 59.8761 103.812 59.4002C104.452 59.1196 104.984 59.4071 105.084 60.1244C105.163 60.6878 105.068 61.2718 105.142 61.8351C105.198 62.2628 105.268 62.8491 105.56 63.0583C106.563 63.7826 106.073 64.3781 105.546 65.107C105.18 64.9437 104.844 64.7943 104.456 64.6218C102.379 67.5603 99.5489 69.4319 96.1234 70.4206L96.1211 70.4229ZM104.183 62.4536C104.272 62.3685 104.358 62.2812 104.447 62.1961C104.193 61.8305 103.996 61.389 103.653 61.1361C103.516 61.0349 103.061 61.3499 102.496 61.5799C103.252 61.9708 103.716 62.2122 104.183 62.4536Z" fill="#093042"/>
<path d="M55.5073 52.9794C55.0896 52.8231 54.77 52.7058 54.3709 52.5563C52.3408 55.5201 49.4497 57.3043 46.0312 58.3666C47.3262 57.4147 48.6493 56.495 49.9094 55.4994C51.1671 54.5061 52.3642 53.437 53.6126 52.3816C53.3956 52.1494 53.3349 52.0436 53.2439 51.993C52.4528 51.5493 51.6455 51.1009 51.7598 50.0225C51.8882 48.8223 52.5929 47.9808 53.6406 47.4266C54.3476 47.0542 54.8773 47.3117 55.0243 48.0727C55.1387 48.6637 55.071 49.2891 55.155 49.8892C55.211 50.2824 55.2717 50.8043 55.5353 51.0135C56.4104 51.7056 56.128 52.2873 55.505 52.984L55.5073 52.9794ZM52.5089 49.5765C53.1459 49.88 53.6499 50.1191 54.1539 50.3582C54.2169 50.2824 54.2776 50.2042 54.3406 50.1283C54.1376 49.7443 53.9346 49.3626 53.7036 48.9212C53.2976 49.1442 52.9732 49.3236 52.5112 49.5765H52.5089Z" fill="#093042"/>
<path d="M96.0841 113.782C95.7365 113.628 95.3888 113.476 94.9711 113.292C93.0483 116.031 90.4139 117.785 87.1797 118.721C89.5271 116.909 91.8723 115.1 94.3247 113.207C93.9864 112.941 93.774 112.731 93.5243 112.587C92.6866 112.106 92.2876 111.423 92.556 110.483C92.857 109.425 93.5524 108.659 94.6304 108.36C94.8591 108.298 95.3818 108.632 95.4821 108.892C95.6665 109.372 95.6268 109.933 95.7015 110.457C95.7645 110.899 95.8251 111.345 95.9395 111.773C96.1075 112.4 96.3245 113.016 96.5205 113.637C96.3758 113.686 96.2312 113.734 96.0865 113.782H96.0841Z" fill="#093042"/>
<path d="M65.3794 145.712C65.6665 144.344 64.1194 143.15 65.1951 141.481C65.5544 142.812 66.0351 143.914 66.0865 145.036C66.1191 145.758 65.6548 146.627 65.1368 147.183C64.9244 147.413 63.9934 146.997 63.1673 146.832C63.3167 146.746 63.1837 146.776 63.1323 146.859C62.724 147.524 62.2339 148.05 61.3496 147.783C60.4769 147.521 60.3672 146.769 60.3228 146.034C60.2598 144.999 59.5668 143.969 60.2832 142.927C60.4045 142.75 60.5282 142.573 60.7219 142.288C61.4802 143.562 60.3345 145.229 61.8863 146.181C62.794 145.689 63.3517 145.063 62.9456 143.84C62.7566 143.265 62.913 142.58 63.1767 141.847C63.3003 142.058 63.4847 142.258 63.536 142.486C63.711 143.265 63.8557 144.054 63.9817 144.845C64.1124 145.663 64.5534 145.942 65.3748 145.712H65.3794Z" fill="#093042"/>
<path d="M38.2812 139.706C38.7316 139.281 39.1096 138.681 39.6463 138.456C43.6272 136.78 47.6384 135.175 51.6426 133.551C51.8059 133.485 51.9926 133.471 52.17 133.432C52.247 133.515 52.324 133.6 52.401 133.682C51.967 134.124 51.6169 134.747 51.0896 134.975C47.1577 136.669 43.1932 138.288 39.2333 139.918C39.0046 140.012 38.7293 139.996 38.4773 140.033C38.4119 139.923 38.3466 139.815 38.2836 139.704L38.2812 139.706Z" fill="#093042"/>
<path d="M41.8518 60.2296C43.0582 61.4413 41.9475 63.5543 44.2856 64.2395C44.0289 62.7772 43.8026 61.4896 43.5786 60.2043C43.7396 60.1744 43.9029 60.1422 44.0639 60.1123C44.5399 61.5057 45.5083 62.7979 44.911 64.428C44.4419 65.7041 43.9286 65.872 42.7385 65.2535C42.5728 65.1684 42.4002 65.0971 42.2111 65.0098C41.9591 65.2949 41.7561 65.58 41.5018 65.8053C40.8087 66.4215 40.125 66.2583 39.5813 65.626C38.907 64.8396 38.879 61.7149 39.796 60.7032C39.8567 61.1884 39.95 61.6712 39.971 62.1587C39.992 62.6852 39.8474 63.237 39.9617 63.736C40.0387 64.0648 40.4541 64.5568 40.7037 64.5499C41.0771 64.5384 41.6815 64.205 41.7515 63.9084C41.9008 63.2738 41.7561 62.5771 41.7631 61.9034C41.7701 61.3447 41.8191 60.7883 41.8495 60.2296H41.8518Z" fill="#093042"/>
<path d="M91.5154 61.9393C91.5154 62.9142 91.4967 63.6891 91.5224 64.4616C91.5457 65.1422 91.4687 65.9424 92.4954 65.9769C93.1651 65.9976 93.7111 65.0824 93.6108 64.2317C93.5128 63.3902 93.4358 62.5463 93.5011 61.6703C94.7915 62.6728 93.5828 64.9905 96.0049 65.655C95.8089 64.7536 95.6362 64.0892 95.5219 63.4132C95.4169 62.7855 95.3726 62.1486 95.3026 61.5163C95.4589 61.4887 95.6152 61.4634 95.7716 61.4358C96.0749 62.4452 96.5766 63.4477 96.6186 64.4685C96.6513 65.248 96.2523 66.1746 95.7389 66.7839C95.5149 67.0483 94.5185 66.6804 93.6855 66.5747C93.5968 66.6712 93.3705 66.9816 93.0834 67.2162C92.4254 67.7565 91.765 67.6369 91.233 67.0437C90.575 66.3103 90.4023 63.1534 90.939 62.3394C91.009 62.2313 91.1653 62.1785 91.5177 61.9416L91.5154 61.9393Z" fill="#093042"/>
<path d="M40.6978 127.906C40.6978 128.904 40.6954 129.683 40.6978 130.46C40.7001 131.18 40.7468 132.008 41.7152 131.916C42.5762 131.833 42.8516 131.072 42.7862 130.267C42.7162 129.382 42.6019 128.499 42.5062 127.616C42.6415 127.581 42.7792 127.545 42.9146 127.51C43.0289 127.77 43.1852 128.023 43.2506 128.294C43.4489 129.111 43.5353 129.964 43.8246 130.743C43.9389 131.049 44.4803 131.201 44.828 131.424C44.87 131.063 45.0007 130.686 44.9377 130.343C44.821 129.713 44.5246 129.113 44.4383 128.483C44.3893 128.126 44.6063 127.736 44.7043 127.358C44.849 127.358 44.996 127.354 45.1407 127.352C45.3414 128.819 45.703 130.288 45.689 131.752C45.6797 132.955 44.583 133.16 43.1339 132.346C43.0616 132.373 42.9799 132.389 42.9216 132.431C41.0035 133.801 40.4784 133.633 39.9021 131.348C39.6174 130.219 39.146 128.989 40.6954 127.908L40.6978 127.906Z" fill="#093042"/>
<path d="M63.793 88.1386C62.2016 89.7664 60.5028 90.1872 58.6011 89.909C57.5813 89.7618 57.005 88.9019 57.439 87.9845C57.936 86.9291 58.6477 85.968 59.3104 84.9954C59.5998 84.5724 60.0058 84.2229 60.5355 83.6481C59.4084 83.5515 58.5754 83.4802 57.7377 83.4089C58.181 82.1374 59.6791 81.5258 60.7852 82.1788C61.5225 82.6134 61.6579 83.2779 61.1539 83.9309C60.4982 84.777 59.6978 85.5128 59.0397 86.3566C58.6431 86.8671 58.398 87.4925 58.0854 88.065C58.7177 88.2351 59.3408 88.4811 59.9825 88.5524C60.5892 88.6191 61.2192 88.5202 61.8352 88.4536C62.4046 88.3915 62.9669 88.2742 63.7907 88.1386H63.793Z" fill="#093042"/>
<path d="M25.4361 133.37C25.7768 132.213 26.0592 131.225 26.3625 130.243C26.6192 129.408 27.0182 128.702 28.0893 129.066C28.864 129.328 28.9877 130.142 28.4533 131.262C28.262 131.121 28.0869 130.979 27.8979 130.857C27.7439 130.756 27.5736 130.68 27.1419 130.448C26.5469 132.411 25.9822 134.264 25.4198 136.12C25.3405 136.136 25.2635 136.152 25.1841 136.168C24.9881 135.662 24.7594 135.166 24.6031 134.648C24.2461 133.478 23.6954 132.51 22.4703 131.974C22.1156 131.82 21.7353 131.264 21.7423 130.898C21.7469 130.553 22.244 129.944 22.531 129.942C22.9767 129.937 23.5764 130.238 23.8447 130.602C24.4281 131.397 24.8434 132.31 25.4385 133.372L25.4361 133.37Z" fill="#093042"/>
<path d="M85.061 56.6244C84.7367 55.8564 84.5103 55.4265 84.368 54.9689C83.983 53.7227 83.4276 52.6581 82.0812 52.1408C81.7848 52.0258 81.4302 51.4993 81.4722 51.2142C81.5305 50.8256 81.8945 50.2485 82.2119 50.1887C82.5992 50.1151 83.2503 50.3749 83.4813 50.7014C84.1183 51.6005 84.5943 52.6075 85.1753 53.6445C85.446 52.7248 85.691 51.8603 85.9547 51.0026C86.2091 50.1749 86.5848 49.1724 87.5438 49.3127C88.6429 49.4713 88.6055 50.5474 88.4725 51.5568C88.2135 51.4441 87.9755 51.3705 87.7678 51.2464C87.0748 50.8325 86.6524 51.0969 86.4587 51.7798C86.1857 52.7363 85.9804 53.7089 85.7167 54.6677C85.5604 55.2333 85.3457 55.7805 85.0587 56.6267L85.061 56.6244Z" fill="#093042"/>
<path d="M64.0262 118.712C63.6482 117.758 63.2515 116.811 62.9015 115.848C62.6728 115.218 62.3438 114.854 61.5994 114.748C61.2144 114.693 60.5867 114.158 60.61 113.886C60.6543 113.392 61.0137 112.817 61.422 112.514C61.5924 112.387 62.3881 112.769 62.6238 113.107C63.2328 113.976 63.6878 114.949 64.2665 115.995C64.6492 114.79 64.9712 113.608 65.4146 112.472C65.5593 112.104 65.9816 111.693 66.3503 111.605C66.6583 111.532 67.279 111.817 67.398 112.093C67.6104 112.587 67.5497 113.194 67.6314 114.033C66.9803 113.617 66.6373 113.397 66.0143 112.996C65.4123 115.015 64.8452 116.912 64.2782 118.811C64.1942 118.777 64.1102 118.745 64.0262 118.71V118.712Z" fill="#093042"/>
<path d="M23.9265 103.947C24.2625 102.85 24.5239 102.022 24.7712 101.19C25.0139 100.374 25.4666 99.5321 26.372 99.7206C27.3543 99.9229 27.296 100.886 27.1233 101.723C25.4922 101.183 25.4712 101.194 25.0279 102.829C24.6639 104.172 24.3045 105.517 23.6955 106.841C23.3081 105.853 22.9044 104.869 22.5358 103.873C22.3094 103.261 22.0271 102.859 21.264 102.744C20.8533 102.682 20.256 102.146 20.221 101.781C20.1836 101.383 20.6247 100.691 20.998 100.576C21.348 100.468 22.0387 100.833 22.3071 101.192C22.8951 101.972 23.3128 102.878 23.9242 103.949L23.9265 103.947Z" fill="#093042"/>
<path d="M18.6519 112.463C18.5795 111.838 18.5002 111.332 18.4675 110.824C18.3182 108.49 17.1375 106.657 15.63 104.956C14.7783 103.997 14.8203 103.963 15.574 102.838C18.4255 103.482 20.7006 109.948 18.6519 112.463Z" fill="#093042"/>
<path d="M73.8587 126.006C73.364 126.388 72.923 126.893 72.3653 127.13C69.1684 128.494 65.9436 129.8 62.7234 131.11C62.3921 131.246 62.0187 131.278 61.664 131.356C61.6034 131.26 61.545 131.161 61.4844 131.064C61.8834 130.699 62.2217 130.191 62.6931 129.988C66.0999 128.528 69.5348 127.126 72.965 125.716C73.1726 125.631 73.4223 125.647 73.6533 125.615C73.721 125.744 73.791 125.875 73.8587 126.004V126.006Z" fill="#093042"/>
<path d="M35.7383 57.7287C36.408 57.1009 36.7627 56.5537 37.2667 56.3353C40.6945 54.8477 44.1527 53.429 47.6039 51.9989C47.7626 51.9322 47.9632 51.9598 48.3389 52.1667C47.9842 52.553 47.7066 53.1071 47.2655 53.2956C43.798 54.7856 40.3025 56.2111 36.807 57.6413C36.611 57.7218 36.3613 57.6827 35.7383 57.7287Z" fill="#093042"/>
<path d="M25.6286 73.2273C24.7092 74.5195 25.3626 75.3978 26.0556 76.3129C27.29 77.9431 26.555 80.1619 24.6625 80.6011C23.8085 80.7988 23.1108 80.5666 23.0921 79.6078C23.0455 77.3246 23.7128 75.2392 25.1176 73.4043C25.1689 73.3377 25.3066 73.3354 25.6286 73.2273ZM26.0369 78.4627C26.0696 78.3547 26.1023 78.2466 26.135 78.1386C25.4933 77.6603 24.8492 77.1844 23.9975 76.5498V78.9916C24.7465 78.7961 25.3906 78.6306 26.0346 78.4627H26.0369Z" fill="#093042"/>
<path d="M60.0781 106.526C60.5075 106.024 60.7315 105.523 61.1072 105.362C64.409 103.941 67.7389 102.578 71.064 101.205C71.1527 101.168 71.281 101.228 71.7011 101.286C71.253 101.778 70.9964 102.297 70.588 102.47C67.3142 103.859 64.01 105.183 60.7152 106.519C60.6242 106.556 60.5028 106.523 60.0805 106.523L60.0781 106.526Z" fill="#093042"/>
<path d="M15.1211 95.6299C15.6065 95.1033 15.8771 94.5676 16.3042 94.3836C19.5687 92.9834 22.8635 91.6498 26.1513 90.3024C26.24 90.2656 26.3613 90.3116 26.8234 90.3438C26.3403 90.8611 26.0837 91.3601 25.68 91.5325C22.4155 92.9328 19.123 94.2733 15.8351 95.623C15.7068 95.6758 15.5364 95.6299 15.1211 95.6299Z" fill="#093042"/>
<path d="M95.3038 72.5881C95.2618 72.7629 95.2595 72.9606 95.1708 73.11C94.6831 73.9401 94.9211 74.4942 95.6258 75.1541C97.0982 76.5314 96.6665 78.8283 94.8278 79.6285C94.3938 79.817 93.6961 79.8239 93.3204 79.594C93.0334 79.4193 92.87 78.6881 92.9797 78.2949C93.4977 76.4624 94.1277 74.6598 94.7251 72.8502C94.7834 72.6709 94.8931 72.5053 94.9771 72.3329L95.3015 72.5881H95.3038ZM94.1557 75.9588C94.0041 76.0278 93.8524 76.0945 93.7007 76.1635C93.7707 76.8303 93.8407 77.4971 93.9107 78.1639L95.9618 77.6396C95.9572 77.5155 95.9525 77.3913 95.9478 77.2671C95.3505 76.8303 94.7531 76.3957 94.1557 75.9588Z" fill="#093042"/>
<path d="M59.9648 108.456C60.2775 108.118 60.5249 107.631 60.9146 107.463C64.2187 106.044 67.5486 104.685 70.8761 103.315C70.9251 103.294 71.0114 103.368 71.3194 103.499C70.9554 103.904 70.7034 104.416 70.3044 104.586C66.9652 106.01 63.598 107.369 60.2402 108.748C60.1492 108.649 60.0558 108.553 59.9648 108.454V108.456Z" fill="#093042"/>
<path d="M15.0726 97.4831C15.3993 97.1589 15.6653 96.699 16.0597 96.5289C19.3265 95.1309 22.6167 93.7882 25.9022 92.4339C25.9605 92.4086 26.0492 92.4523 26.4226 92.5052C26.0679 92.9489 25.8649 93.4525 25.5078 93.6065C22.1407 95.0436 18.7478 96.4208 15.362 97.8165C15.264 97.7038 15.1683 97.5935 15.0703 97.4808L15.0726 97.4831Z" fill="#093042"/>
<path d="M119.582 104.152C122.28 105.161 123.848 109.749 122.469 111.749C122.41 111.71 122.305 111.673 122.303 111.629C122.175 109.286 121.213 107.325 119.615 105.601C119.386 105.355 119.582 104.722 119.582 104.15V104.152Z" fill="#093042"/>
<path d="M82.7312 81.0524C82.6122 82.8297 81.2728 84.5588 82.4489 86.4534C82.8502 86.2925 83.2656 86.1246 83.7369 85.9361C83.7486 86.1016 83.7859 86.2097 83.7579 86.2994C83.5059 87.1524 83.2562 88.2101 82.1385 88.0491C80.9275 87.8767 81.1211 86.6994 81.2448 85.8947C81.4992 84.2392 81.9402 82.6113 82.3019 80.9719C82.4442 80.9995 82.5865 81.0248 82.7289 81.0524H82.7312Z" fill="#093042"/>
<path d="M79.3342 108.243C78.5315 107.999 78.0671 107.856 77.5141 107.689C77.6751 107.321 77.7358 106.937 77.9598 106.725C78.2701 106.433 78.7368 106.063 79.0822 106.111C79.4252 106.159 79.9735 106.698 79.9549 106.994C79.9012 107.863 79.7962 108.824 79.3668 109.553C78.8628 110.409 77.9948 111.057 77.1641 111.692C77.8618 110.581 78.5618 109.47 79.3342 108.243Z" fill="#093042"/>
<path d="M103.604 114.152C103.312 115.743 102.57 117.298 103.634 118.898C104.008 118.739 104.381 118.581 104.953 118.339C104.817 118.822 104.824 119.218 104.626 119.422C104.213 119.848 103.693 120.172 103.217 120.537C102.913 120.025 102.351 119.51 102.355 118.999C102.369 117.307 102.514 115.599 103.606 114.152H103.604Z" fill="#093042"/>
<path d="M120.581 95.6388C121.001 95.3697 121.405 95.1099 121.808 94.8501C121.885 94.8984 121.965 94.9444 122.042 94.9927C121.729 95.6158 121.475 96.2803 121.071 96.839C120.898 97.0804 120.338 97.2804 120.089 97.1793C119.76 97.0459 119.347 96.5999 119.344 96.2849C119.335 94.3098 119.47 92.3439 120.663 90.2607C120.614 92.2588 119.2 93.9189 120.581 95.6388Z" fill="#093042"/>
<path d="M111.836 130.412C112.174 130.267 112.524 130.115 113.033 129.899C112.944 130.264 112.963 130.609 112.799 130.777C112.372 131.209 111.864 131.563 111.387 131.947C111.105 131.444 110.617 130.954 110.575 130.432C110.454 128.922 110.862 127.491 111.857 125.896C111.693 127.6 110.729 129.004 111.838 130.412H111.836Z" fill="#093042"/>
<path d="M35.59 132.924C36.1944 132.703 36.5397 132.577 36.8804 132.453C36.9364 132.549 37.0111 132.621 36.9971 132.669C36.8081 133.425 36.7497 134.501 35.7184 134.389C34.7266 134.281 34.512 133.278 34.645 132.398C34.8293 131.193 35.1303 130.006 35.5877 128.88V132.926L35.59 132.924Z" fill="#093042"/>
<path d="M48.9785 145.087C48.7125 146.609 48.4465 147.94 48.2738 149.283C48.2388 149.557 48.5538 149.872 48.7335 150.219C49.1792 149.98 49.5456 149.782 50.1033 149.483C49.9539 149.994 49.9469 150.456 49.7112 150.711C49.3495 151.1 48.8269 151.346 48.3718 151.651C48.1292 151.187 47.6928 150.729 47.6788 150.258C47.6228 148.497 47.8935 146.779 48.9785 145.089V145.087Z" fill="#093042"/>
<path d="M75.8406 148.5C75.7706 150.029 74.6039 151.409 75.7403 152.933C76.1509 152.733 76.5243 152.554 76.8976 152.372L77.159 152.558C76.6526 153.225 76.1463 153.89 75.6142 154.591C74.1068 153.082 74.2632 150.737 75.8429 148.5H75.8406Z" fill="#093042"/>
<path d="M37.6422 98.5697C37.3389 96.7464 37.0355 94.9207 36.7322 93.0974C36.6132 92.3823 36.5548 91.6535 36.3775 90.9545C35.9388 89.2392 36.4942 87.9815 38.2443 87.2182C38.1626 87.1262 38.0832 87.0365 38.0016 86.9445C37.6212 87.0641 37.2409 87.1837 36.8652 87.3009C36.7252 86.1076 37.1802 85.1672 37.9502 85.0913C38.8183 85.004 40.6407 86.2341 40.5404 87.025C40.4704 87.5768 39.95 88.285 39.4366 88.5379C37.0192 89.729 37.0075 89.6807 37.3902 92.3042C37.5162 93.171 37.5839 94.0493 37.6469 94.923C37.7356 96.1279 37.7939 97.335 37.8662 98.5421C37.7916 98.5513 37.7146 98.5628 37.6399 98.572L37.6422 98.5697Z" fill="#093042"/>
<path d="M31.9609 115.44C31.7789 116.251 31.5152 117.056 31.4452 117.877C31.4009 118.404 31.5596 118.995 31.8092 119.461C31.8699 119.576 32.6446 119.321 33.1556 119.224C33.0926 119.452 33.0763 119.813 32.9013 120.064C32.6166 120.471 32.2246 120.804 31.8792 121.17C31.4872 120.747 30.8432 120.372 30.7499 119.896C30.4395 118.275 30.9155 116.769 31.9609 115.44Z" fill="#093042"/>
<path d="M135.677 97.9519V80.4974H142.564C143.882 80.4974 145.007 80.7332 145.939 81.2047C146.876 81.6707 147.589 82.3326 148.078 83.1905C148.572 84.0428 148.819 85.0457 148.819 86.1991C148.819 87.3582 148.569 88.3553 148.069 89.1905C147.569 90.0201 146.845 90.6564 145.896 91.0996C144.953 91.5428 143.811 91.7644 142.47 91.7644H137.859V88.7985H141.873C142.578 88.7985 143.163 88.7019 143.629 88.5087C144.095 88.3155 144.441 88.0258 144.669 87.6394C144.902 87.253 145.018 86.7729 145.018 86.1991C145.018 85.6195 144.902 85.1309 144.669 84.7332C144.441 84.3354 144.092 84.0343 143.62 83.8297C143.154 83.6195 142.566 83.5144 141.856 83.5144H139.368V97.9519H135.677ZM145.103 90.0087L149.441 97.9519H145.368L141.123 90.0087H145.103ZM157.114 98.2076C155.767 98.2076 154.608 97.9349 153.637 97.3894C152.671 96.8383 151.926 96.0599 151.404 95.0542C150.881 94.0428 150.62 92.8468 150.62 91.4661C150.62 90.1195 150.881 88.9377 151.404 87.9207C151.926 86.9036 152.662 86.111 153.611 85.5428C154.566 84.9746 155.685 84.6905 156.969 84.6905C157.833 84.6905 158.637 84.8297 159.381 85.1082C160.131 85.3809 160.784 85.7928 161.341 86.3439C161.904 86.8951 162.341 87.5883 162.654 88.4235C162.966 89.253 163.123 90.2246 163.123 91.3383V92.3354H152.069V90.0854H159.705C159.705 89.5627 159.591 89.0996 159.364 88.6962C159.137 88.2928 158.821 87.9775 158.418 87.7502C158.02 87.5172 157.557 87.4008 157.029 87.4008C156.478 87.4008 155.989 87.5286 155.563 87.7843C155.142 88.0343 154.813 88.3724 154.574 88.7985C154.336 89.2189 154.213 89.6877 154.208 90.2047V92.3439C154.208 92.9917 154.327 93.5513 154.566 94.0229C154.81 94.4945 155.154 94.8582 155.597 95.1138C156.04 95.3695 156.566 95.4974 157.174 95.4974C157.577 95.4974 157.946 95.4405 158.282 95.3269C158.617 95.2133 158.904 95.0428 159.142 94.8155C159.381 94.5883 159.563 94.3099 159.688 93.9803L163.046 94.2019C162.875 95.0087 162.526 95.7133 161.998 96.3155C161.475 96.9121 160.799 97.378 159.969 97.7133C159.145 98.0428 158.194 98.2076 157.114 98.2076ZM171.407 98.2076C170.066 98.2076 168.912 97.9235 167.946 97.3553C166.986 96.7814 166.248 95.986 165.73 94.9689C165.219 93.9519 164.963 92.7814 164.963 91.4576C164.963 90.1167 165.222 88.9405 165.739 87.9292C166.262 86.9121 167.003 86.1195 167.963 85.5513C168.924 84.9775 170.066 84.6905 171.39 84.6905C172.532 84.6905 173.532 84.8979 174.39 85.3127C175.248 85.7275 175.926 86.3099 176.426 87.0599C176.926 87.8099 177.202 88.6905 177.253 89.7019H173.827C173.73 89.0485 173.475 88.5229 173.06 88.1252C172.651 87.7218 172.114 87.5201 171.449 87.5201C170.887 87.5201 170.395 87.6735 169.975 87.9803C169.56 88.2814 169.236 88.7218 169.003 89.3013C168.77 89.8809 168.654 90.5826 168.654 91.4064C168.654 92.2417 168.767 92.9519 168.995 93.5371C169.228 94.1224 169.554 94.5684 169.975 94.8752C170.395 95.182 170.887 95.3354 171.449 95.3354C171.864 95.3354 172.236 95.2502 172.566 95.0797C172.901 94.9093 173.176 94.6621 173.392 94.3383C173.614 94.0087 173.759 93.6138 173.827 93.1536H177.253C177.196 94.1536 176.924 95.0343 176.435 95.7957C175.952 96.5513 175.284 97.1422 174.432 97.5684C173.58 97.9945 172.571 98.2076 171.407 98.2076ZM179.578 97.9519V84.861H183.208V97.9519H179.578ZM181.402 83.1735C180.862 83.1735 180.399 82.9945 180.012 82.6366C179.632 82.2729 179.441 81.8383 179.441 81.3326C179.441 80.8326 179.632 80.4036 180.012 80.0457C180.399 79.682 180.862 79.5002 181.402 79.5002C181.941 79.5002 182.402 79.682 182.782 80.0457C183.169 80.4036 183.362 80.8326 183.362 81.3326C183.362 81.8383 183.169 82.2729 182.782 82.6366C182.402 82.9945 181.941 83.1735 181.402 83.1735ZM193.08 84.861V87.5883H185.196V84.861H193.08ZM186.986 81.7246H190.617V93.9292C190.617 94.2644 190.668 94.5258 190.77 94.7133C190.873 94.8951 191.015 95.0229 191.196 95.0968C191.384 95.1707 191.6 95.2076 191.844 95.2076C192.015 95.2076 192.185 95.1934 192.355 95.165C192.526 95.1309 192.657 95.1053 192.748 95.0883L193.319 97.79C193.137 97.8468 192.881 97.9121 192.551 97.986C192.222 98.0655 191.821 98.1138 191.35 98.1309C190.475 98.165 189.708 98.0485 189.049 97.7814C188.395 97.5144 187.887 97.0996 187.523 96.5371C187.159 95.9746 186.98 95.2644 186.986 94.4064V81.7246ZM201.27 98.2076C199.924 98.2076 198.765 97.9349 197.793 97.3894C196.827 96.8383 196.083 96.0599 195.56 95.0542C195.037 94.0428 194.776 92.8468 194.776 91.4661C194.776 90.1195 195.037 88.9377 195.56 87.9207C196.083 86.9036 196.819 86.111 197.767 85.5428C198.722 84.9746 199.841 84.6905 201.125 84.6905C201.989 84.6905 202.793 84.8297 203.537 85.1082C204.287 85.3809 204.941 85.7928 205.498 86.3439C206.06 86.8951 206.498 87.5883 206.81 88.4235C207.123 89.253 207.279 90.2246 207.279 91.3383V92.3354H196.225V90.0854H203.861C203.861 89.5627 203.748 89.0996 203.52 88.6962C203.293 88.2928 202.978 87.9775 202.574 87.7502C202.176 87.5172 201.713 87.4008 201.185 87.4008C200.634 87.4008 200.145 87.5286 199.719 87.7843C199.299 88.0343 198.969 88.3724 198.73 88.7985C198.492 89.2189 198.37 89.6877 198.364 90.2047V92.3439C198.364 92.9917 198.483 93.5513 198.722 94.0229C198.966 94.4945 199.31 94.8582 199.753 95.1138C200.196 95.3695 200.722 95.4974 201.33 95.4974C201.733 95.4974 202.103 95.4405 202.438 95.3269C202.773 95.2133 203.06 95.0428 203.299 94.8155C203.537 94.5883 203.719 94.3099 203.844 93.9803L207.202 94.2019C207.032 95.0087 206.682 95.7133 206.154 96.3155C205.631 96.9121 204.955 97.378 204.125 97.7133C203.301 98.0428 202.35 98.2076 201.27 98.2076ZM215.271 97.9519V80.4974H218.902V87.0599H219.012C219.172 86.7076 219.402 86.3496 219.703 85.986C220.01 85.6167 220.407 85.3099 220.896 85.0655C221.39 84.8155 222.004 84.6905 222.737 84.6905C223.691 84.6905 224.572 84.9405 225.379 85.4405C226.186 85.9349 226.831 86.682 227.314 87.682C227.797 88.6763 228.038 89.9235 228.038 91.4235C228.038 92.8837 227.802 94.1167 227.331 95.1224C226.865 96.1224 226.228 96.8809 225.422 97.3979C224.62 97.9093 223.723 98.165 222.728 98.165C222.024 98.165 221.424 98.0485 220.93 97.8155C220.441 97.5826 220.041 97.29 219.728 96.9377C219.416 96.5797 219.177 96.2189 219.012 95.8553H218.85V97.9519H215.271ZM218.825 91.4064C218.825 92.1849 218.933 92.8638 219.149 93.4434C219.365 94.0229 219.677 94.4746 220.086 94.7985C220.495 95.1167 220.993 95.2758 221.578 95.2758C222.169 95.2758 222.669 95.1138 223.078 94.79C223.487 94.4604 223.797 94.0059 224.007 93.4263C224.223 92.8411 224.331 92.1678 224.331 91.4064C224.331 90.6508 224.225 89.986 224.015 89.4121C223.805 88.8383 223.495 88.3894 223.086 88.0655C222.677 87.7417 222.174 87.5797 221.578 87.5797C220.987 87.5797 220.487 87.736 220.078 88.0485C219.674 88.361 219.365 88.8042 219.149 89.378C218.933 89.9519 218.825 90.628 218.825 91.4064ZM234.091 80.4974V97.9519H230.461V80.4974H234.091ZM242.966 98.2076C241.619 98.2076 240.46 97.9349 239.488 97.3894C238.522 96.8383 237.778 96.0599 237.255 95.0542C236.733 94.0428 236.471 92.8468 236.471 91.4661C236.471 90.1195 236.733 88.9377 237.255 87.9207C237.778 86.9036 238.514 86.111 239.463 85.5428C240.417 84.9746 241.537 84.6905 242.821 84.6905C243.684 84.6905 244.488 84.8297 245.233 85.1082C245.983 85.3809 246.636 85.7928 247.193 86.3439C247.755 86.8951 248.193 87.5883 248.505 88.4235C248.818 89.253 248.974 90.2246 248.974 91.3383V92.3354H237.92V90.0854H245.556C245.556 89.5627 245.443 89.0996 245.216 88.6962C244.988 88.2928 244.673 87.9775 244.27 87.7502C243.872 87.5172 243.409 87.4008 242.88 87.4008C242.329 87.4008 241.841 87.5286 241.414 87.7843C240.994 88.0343 240.664 88.3724 240.426 88.7985C240.187 89.2189 240.065 89.6877 240.059 90.2047V92.3439C240.059 92.9917 240.179 93.5513 240.417 94.0229C240.662 94.4945 241.005 94.8582 241.449 95.1138C241.892 95.3695 242.417 95.4974 243.025 95.4974C243.429 95.4974 243.798 95.4405 244.133 95.3269C244.468 95.2133 244.755 95.0428 244.994 94.8155C245.233 94.5883 245.414 94.3099 245.539 93.9803L248.897 94.2019C248.727 95.0087 248.377 95.7133 247.849 96.3155C247.326 96.9121 246.65 97.378 245.821 97.7133C244.997 98.0428 244.045 98.2076 242.966 98.2076ZM262.235 88.5939L258.912 88.7985C258.855 88.5144 258.733 88.2587 258.545 88.0314C258.358 87.7985 258.11 87.6138 257.804 87.4775C257.502 87.3354 257.142 87.2644 256.721 87.2644C256.159 87.2644 255.684 87.3837 255.298 87.6224C254.912 87.8553 254.718 88.1678 254.718 88.5599C254.718 88.8724 254.843 89.1366 255.093 89.3525C255.343 89.5684 255.772 89.7417 256.38 89.8724L258.75 90.3496C260.022 90.611 260.971 91.0314 261.596 91.611C262.221 92.1905 262.534 92.9519 262.534 93.8951C262.534 94.753 262.281 95.5059 261.775 96.1536C261.275 96.8013 260.588 97.307 259.713 97.6707C258.843 98.0286 257.841 98.2076 256.704 98.2076C254.971 98.2076 253.591 97.8468 252.562 97.1252C251.539 96.3979 250.94 95.4093 250.764 94.1593L254.335 93.9718C254.443 94.5002 254.704 94.9036 255.119 95.182C255.534 95.4547 256.065 95.5911 256.713 95.5911C257.349 95.5911 257.86 95.4689 258.247 95.2246C258.639 94.9746 258.838 94.6536 258.843 94.2616C258.838 93.932 258.699 93.6621 258.426 93.4519C258.153 93.236 257.733 93.0712 257.164 92.9576L254.897 92.5059C253.619 92.2502 252.667 91.807 252.042 91.1763C251.423 90.5457 251.113 89.7417 251.113 88.7644C251.113 87.9235 251.341 87.1991 251.795 86.5911C252.255 85.9832 252.9 85.5144 253.73 85.1849C254.565 84.8553 255.542 84.6905 256.662 84.6905C258.315 84.6905 259.616 85.04 260.565 85.7388C261.52 86.4377 262.076 87.3894 262.235 88.5939ZM275.712 88.5939L272.388 88.7985C272.331 88.5144 272.209 88.2587 272.022 88.0314C271.834 87.7985 271.587 87.6138 271.28 87.4775C270.979 87.3354 270.618 87.2644 270.198 87.2644C269.635 87.2644 269.161 87.3837 268.775 87.6224C268.388 87.8553 268.195 88.1678 268.195 88.5599C268.195 88.8724 268.32 89.1366 268.57 89.3525C268.82 89.5684 269.249 89.7417 269.857 89.8724L272.226 90.3496C273.499 90.611 274.448 91.0314 275.073 91.611C275.698 92.1905 276.01 92.9519 276.01 93.8951C276.01 94.753 275.757 95.5059 275.252 96.1536C274.752 96.8013 274.064 97.307 273.189 97.6707C272.32 98.0286 271.317 98.2076 270.181 98.2076C268.448 98.2076 267.067 97.8468 266.039 97.1252C265.016 96.3979 264.417 95.4093 264.24 94.1593L267.811 93.9718C267.919 94.5002 268.181 94.9036 268.596 95.182C269.01 95.4547 269.542 95.5911 270.189 95.5911C270.826 95.5911 271.337 95.4689 271.723 95.2246C272.115 94.9746 272.314 94.6536 272.32 94.2616C272.314 93.932 272.175 93.6621 271.902 93.4519C271.63 93.236 271.209 93.0712 270.641 92.9576L268.374 92.5059C267.096 92.2502 266.144 91.807 265.519 91.1763C264.9 90.5457 264.59 89.7417 264.59 88.7644C264.59 87.9235 264.817 87.1991 265.272 86.5911C265.732 85.9832 266.377 85.5144 267.206 85.1849C268.042 84.8553 269.019 84.6905 270.138 84.6905C271.792 84.6905 273.093 85.04 274.042 85.7388C274.996 86.4377 275.553 87.3894 275.712 88.5939ZM278.297 97.9519V84.861H281.927V97.9519H278.297ZM280.12 83.1735C279.581 83.1735 279.118 82.9945 278.731 82.6366C278.35 82.2729 278.16 81.8383 278.16 81.3326C278.16 80.8326 278.35 80.4036 278.731 80.0457C279.118 79.682 279.581 79.5002 280.12 79.5002C280.66 79.5002 281.12 79.682 281.501 80.0457C281.887 80.4036 282.081 80.8326 282.081 81.3326C282.081 81.8383 281.887 82.2729 281.501 82.6366C281.12 82.9945 280.66 83.1735 280.12 83.1735ZM288.466 90.3837V97.9519H284.836V84.861H288.296V87.1707H288.449C288.739 86.4093 289.225 85.807 289.907 85.3638C290.588 84.915 291.415 84.6905 292.387 84.6905C293.296 84.6905 294.088 84.8894 294.765 85.2871C295.441 85.6849 295.966 86.253 296.341 86.9917C296.716 87.7246 296.904 88.5996 296.904 89.6167V97.9519H293.273V90.2644C293.279 89.4633 293.074 88.8383 292.659 88.3894C292.245 87.9349 291.674 87.7076 290.946 87.7076C290.458 87.7076 290.026 87.8127 289.651 88.0229C289.282 88.2332 288.992 88.54 288.782 88.9434C288.577 89.3411 288.472 89.8212 288.466 90.3837ZM305.663 103.134C304.487 103.134 303.478 102.972 302.637 102.648C301.802 102.33 301.137 101.895 300.643 101.344C300.149 100.793 299.828 100.173 299.68 99.486L303.038 99.0343C303.14 99.2957 303.302 99.54 303.524 99.7672C303.745 99.9945 304.038 100.176 304.402 100.313C304.771 100.455 305.22 100.526 305.748 100.526C306.538 100.526 307.189 100.333 307.7 99.9462C308.217 99.5655 308.475 98.9263 308.475 98.0286V95.6337H308.322C308.163 95.9974 307.924 96.3411 307.606 96.665C307.288 96.9888 306.879 97.253 306.379 97.4576C305.879 97.6621 305.282 97.7644 304.589 97.7644C303.606 97.7644 302.711 97.5371 301.904 97.0826C301.103 96.6224 300.464 95.9207 299.987 94.9775C299.515 94.0286 299.279 92.8297 299.279 91.3809C299.279 89.8979 299.521 88.6593 300.004 87.665C300.487 86.6707 301.129 85.9263 301.93 85.432C302.737 84.9377 303.62 84.6905 304.581 84.6905C305.314 84.6905 305.927 84.8155 306.422 85.0655C306.916 85.3099 307.314 85.6167 307.615 85.986C307.922 86.3496 308.157 86.7076 308.322 87.0599H308.458V84.861H312.064V98.0797C312.064 99.1934 311.791 100.125 311.245 100.875C310.7 101.625 309.944 102.188 308.978 102.563C308.018 102.943 306.913 103.134 305.663 103.134ZM305.74 95.0371C306.325 95.0371 306.819 94.8922 307.223 94.6025C307.632 94.307 307.944 93.8866 308.16 93.3411C308.382 92.79 308.493 92.1309 308.493 91.3638C308.493 90.5968 308.385 89.932 308.169 89.3695C307.953 88.8013 307.64 88.361 307.231 88.0485C306.822 87.736 306.325 87.5797 305.74 87.5797C305.143 87.5797 304.64 87.7417 304.231 88.0655C303.822 88.3837 303.512 88.8269 303.302 89.3951C303.092 89.9633 302.987 90.6195 302.987 91.3638C302.987 92.1195 303.092 92.7729 303.302 93.3241C303.518 93.8695 303.828 94.2928 304.231 94.5939C304.64 94.8894 305.143 95.0371 305.74 95.0371ZM325.845 88.5939L322.521 88.7985C322.464 88.5144 322.342 88.2587 322.154 88.0314C321.967 87.7985 321.72 87.6138 321.413 87.4775C321.112 87.3354 320.751 87.2644 320.331 87.2644C319.768 87.2644 319.294 87.3837 318.907 87.6224C318.521 87.8553 318.328 88.1678 318.328 88.5599C318.328 88.8724 318.453 89.1366 318.703 89.3525C318.953 89.5684 319.382 89.7417 319.99 89.8724L322.359 90.3496C323.632 90.611 324.581 91.0314 325.206 91.611C325.831 92.1905 326.143 92.9519 326.143 93.8951C326.143 94.753 325.89 95.5059 325.385 96.1536C324.885 96.8013 324.197 97.307 323.322 97.6707C322.453 98.0286 321.45 98.2076 320.314 98.2076C318.581 98.2076 317.2 97.8468 316.172 97.1252C315.149 96.3979 314.549 95.4093 314.373 94.1593L317.944 93.9718C318.052 94.5002 318.314 94.9036 318.728 95.182C319.143 95.4547 319.674 95.5911 320.322 95.5911C320.958 95.5911 321.47 95.4689 321.856 95.2246C322.248 94.9746 322.447 94.6536 322.453 94.2616C322.447 93.932 322.308 93.6621 322.035 93.4519C321.762 93.236 321.342 93.0712 320.774 92.9576L318.507 92.5059C317.228 92.2502 316.277 91.807 315.652 91.1763C315.032 90.5457 314.723 89.7417 314.723 88.7644C314.723 87.9235 314.95 87.1991 315.404 86.5911C315.865 85.9832 316.51 85.5144 317.339 85.1849C318.174 84.8553 319.152 84.6905 320.271 84.6905C321.924 84.6905 323.225 85.04 324.174 85.7388C325.129 86.4377 325.686 87.3894 325.845 88.5939ZM178.199 121.378V113.861H181.83V126.952H178.344V124.574H178.208C177.912 125.341 177.421 125.958 176.733 126.423C176.051 126.889 175.219 127.122 174.236 127.122C173.361 127.122 172.591 126.923 171.926 126.526C171.262 126.128 170.742 125.563 170.367 124.83C169.998 124.097 169.81 123.219 169.804 122.196V113.861H173.435V121.548C173.441 122.321 173.648 122.932 174.057 123.381C174.466 123.83 175.015 124.054 175.702 124.054C176.14 124.054 176.549 123.955 176.929 123.756C177.31 123.551 177.617 123.25 177.85 122.852C178.088 122.455 178.205 121.963 178.199 121.378ZM184.734 131.861V113.861H188.314V116.06H188.475C188.635 115.708 188.865 115.35 189.166 114.986C189.473 114.617 189.87 114.31 190.359 114.066C190.853 113.816 191.467 113.691 192.2 113.691C193.154 113.691 194.035 113.941 194.842 114.441C195.649 114.935 196.294 115.682 196.777 116.682C197.26 117.676 197.501 118.923 197.501 120.423C197.501 121.884 197.265 123.117 196.794 124.122C196.328 125.122 195.691 125.881 194.885 126.398C194.083 126.909 193.186 127.165 192.191 127.165C191.487 127.165 190.887 127.048 190.393 126.816C189.904 126.583 189.504 126.29 189.191 125.938C188.879 125.58 188.64 125.219 188.475 124.855H188.365V131.861H184.734ZM188.288 120.406C188.288 121.185 188.396 121.864 188.612 122.443C188.828 123.023 189.14 123.475 189.549 123.798C189.958 124.117 190.456 124.276 191.041 124.276C191.632 124.276 192.132 124.114 192.541 123.79C192.95 123.46 193.26 123.006 193.47 122.426C193.686 121.841 193.794 121.168 193.794 120.406C193.794 119.651 193.689 118.986 193.478 118.412C193.268 117.838 192.958 117.389 192.549 117.066C192.14 116.742 191.637 116.58 191.041 116.58C190.45 116.58 189.95 116.736 189.541 117.048C189.137 117.361 188.828 117.804 188.612 118.378C188.396 118.952 188.288 119.628 188.288 120.406ZM205.836 127.208C204.512 127.208 203.368 126.926 202.402 126.364C201.441 125.796 200.7 125.006 200.177 123.995C199.654 122.977 199.393 121.798 199.393 120.458C199.393 119.105 199.654 117.923 200.177 116.912C200.7 115.895 201.441 115.105 202.402 114.543C203.368 113.975 204.512 113.691 205.836 113.691C207.16 113.691 208.302 113.975 209.262 114.543C210.228 115.105 210.973 115.895 211.495 116.912C212.018 117.923 212.279 119.105 212.279 120.458C212.279 121.798 212.018 122.977 211.495 123.995C210.973 125.006 210.228 125.796 209.262 126.364C208.302 126.926 207.16 127.208 205.836 127.208ZM205.853 124.395C206.456 124.395 206.958 124.225 207.362 123.884C207.765 123.537 208.069 123.066 208.274 122.469C208.484 121.872 208.589 121.193 208.589 120.432C208.589 119.671 208.484 118.992 208.274 118.395C208.069 117.798 207.765 117.327 207.362 116.98C206.958 116.634 206.456 116.46 205.853 116.46C205.245 116.46 204.734 116.634 204.319 116.98C203.91 117.327 203.6 117.798 203.39 118.395C203.186 118.992 203.083 119.671 203.083 120.432C203.083 121.193 203.186 121.872 203.39 122.469C203.6 123.066 203.91 123.537 204.319 123.884C204.734 124.225 205.245 124.395 205.853 124.395ZM218.271 119.384V126.952H214.64V113.861H218.1V116.171H218.254C218.544 115.409 219.029 114.807 219.711 114.364C220.393 113.915 221.22 113.691 222.191 113.691C223.1 113.691 223.893 113.889 224.569 114.287C225.245 114.685 225.771 115.253 226.146 115.992C226.521 116.725 226.708 117.6 226.708 118.617V126.952H223.078V119.264C223.083 118.463 222.879 117.838 222.464 117.389C222.049 116.935 221.478 116.708 220.751 116.708C220.262 116.708 219.831 116.813 219.456 117.023C219.086 117.233 218.797 117.54 218.586 117.943C218.382 118.341 218.277 118.821 218.271 119.384ZM235.193 126.952V109.497H242.079C243.403 109.497 244.531 109.75 245.463 110.256C246.395 110.756 247.105 111.452 247.593 112.344C248.088 113.23 248.335 114.253 248.335 115.412C248.335 116.571 248.085 117.594 247.585 118.48C247.085 119.367 246.36 120.057 245.412 120.551C244.468 121.046 243.326 121.293 241.985 121.293H237.596V118.335H241.389C242.099 118.335 242.684 118.213 243.145 117.969C243.61 117.719 243.957 117.375 244.184 116.938C244.417 116.495 244.534 115.986 244.534 115.412C244.534 114.833 244.417 114.327 244.184 113.895C243.957 113.458 243.61 113.12 243.145 112.881C242.679 112.637 242.088 112.514 241.372 112.514H238.883V126.952H235.193ZM250.664 126.952V113.861H254.184V116.145H254.32C254.559 115.333 254.959 114.719 255.522 114.304C256.084 113.884 256.732 113.673 257.465 113.673C257.647 113.673 257.843 113.685 258.053 113.708C258.263 113.73 258.448 113.762 258.607 113.801V117.023C258.436 116.972 258.201 116.926 257.9 116.887C257.598 116.847 257.323 116.827 257.073 116.827C256.539 116.827 256.061 116.943 255.641 117.176C255.226 117.404 254.897 117.722 254.652 118.131C254.414 118.54 254.294 119.012 254.294 119.546V126.952H250.664ZM265.789 127.208C264.466 127.208 263.321 126.926 262.355 126.364C261.395 125.796 260.653 125.006 260.13 123.995C259.608 122.977 259.346 121.798 259.346 120.458C259.346 119.105 259.608 117.923 260.13 116.912C260.653 115.895 261.395 115.105 262.355 114.543C263.321 113.975 264.466 113.691 265.789 113.691C267.113 113.691 268.255 113.975 269.216 114.543C270.181 115.105 270.926 115.895 271.449 116.912C271.971 117.923 272.233 119.105 272.233 120.458C272.233 121.798 271.971 122.977 271.449 123.995C270.926 125.006 270.181 125.796 269.216 126.364C268.255 126.926 267.113 127.208 265.789 127.208ZM265.806 124.395C266.409 124.395 266.912 124.225 267.315 123.884C267.718 123.537 268.022 123.066 268.227 122.469C268.437 121.872 268.542 121.193 268.542 120.432C268.542 119.671 268.437 118.992 268.227 118.395C268.022 117.798 267.718 117.327 267.315 116.98C266.912 116.634 266.409 116.46 265.806 116.46C265.199 116.46 264.687 116.634 264.272 116.98C263.863 117.327 263.554 117.798 263.343 118.395C263.139 118.992 263.037 119.671 263.037 120.432C263.037 121.193 263.139 121.872 263.343 122.469C263.554 123.066 263.863 123.537 264.272 123.884C264.687 124.225 265.199 124.395 265.806 124.395ZM274.593 131.861V113.861H278.173V116.06H278.335C278.494 115.708 278.724 115.35 279.025 114.986C279.332 114.617 279.73 114.31 280.218 114.066C280.713 113.816 281.326 113.691 282.059 113.691C283.014 113.691 283.895 113.941 284.701 114.441C285.508 114.935 286.153 115.682 286.636 116.682C287.119 117.676 287.36 118.923 287.36 120.423C287.36 121.884 287.125 123.117 286.653 124.122C286.187 125.122 285.551 125.881 284.744 126.398C283.943 126.909 283.045 127.165 282.051 127.165C281.346 127.165 280.747 127.048 280.252 126.816C279.764 126.583 279.363 126.29 279.051 125.938C278.738 125.58 278.5 125.219 278.335 124.855H278.224V131.861H274.593ZM278.147 120.406C278.147 121.185 278.255 121.864 278.471 122.443C278.687 123.023 279 123.475 279.409 123.798C279.818 124.117 280.315 124.276 280.9 124.276C281.491 124.276 281.991 124.114 282.4 123.79C282.809 123.46 283.119 123.006 283.329 122.426C283.545 121.841 283.653 121.168 283.653 120.406C283.653 119.651 283.548 118.986 283.338 118.412C283.127 117.838 282.818 117.389 282.409 117.066C282 116.742 281.497 116.58 280.9 116.58C280.309 116.58 279.809 116.736 279.4 117.048C278.997 117.361 278.687 117.804 278.471 118.378C278.255 118.952 278.147 119.628 278.147 120.406ZM293.412 119.384V126.952H289.781V109.497H293.309V116.171H293.463C293.758 115.398 294.235 114.793 294.895 114.355C295.554 113.912 296.38 113.691 297.375 113.691C298.284 113.691 299.076 113.889 299.752 114.287C300.434 114.679 300.963 115.245 301.338 115.983C301.718 116.716 301.906 117.594 301.9 118.617V126.952H298.27V119.264C298.275 118.458 298.071 117.83 297.656 117.381C297.247 116.932 296.673 116.708 295.934 116.708C295.44 116.708 295.002 116.813 294.622 117.023C294.247 117.233 293.951 117.54 293.735 117.943C293.525 118.341 293.417 118.821 293.412 119.384ZM310.723 127.208C309.377 127.208 308.218 126.935 307.246 126.389C306.28 125.838 305.536 125.06 305.013 124.054C304.49 123.043 304.229 121.847 304.229 120.466C304.229 119.12 304.49 117.938 305.013 116.921C305.536 115.904 306.272 115.111 307.221 114.543C308.175 113.975 309.294 113.691 310.578 113.691C311.442 113.691 312.246 113.83 312.99 114.108C313.74 114.381 314.394 114.793 314.951 115.344C315.513 115.895 315.951 116.588 316.263 117.423C316.576 118.253 316.732 119.225 316.732 120.338V121.335H305.678V119.085H313.314C313.314 118.563 313.201 118.1 312.973 117.696C312.746 117.293 312.431 116.977 312.027 116.75C311.63 116.517 311.167 116.401 310.638 116.401C310.087 116.401 309.598 116.529 309.172 116.784C308.752 117.034 308.422 117.372 308.184 117.798C307.945 118.219 307.823 118.688 307.817 119.205V121.344C307.817 121.992 307.936 122.551 308.175 123.023C308.419 123.495 308.763 123.858 309.206 124.114C309.65 124.37 310.175 124.497 310.783 124.497C311.186 124.497 311.556 124.441 311.891 124.327C312.226 124.213 312.513 124.043 312.752 123.816C312.99 123.588 313.172 123.31 313.297 122.98L316.655 123.202C316.485 124.009 316.135 124.713 315.607 125.316C315.084 125.912 314.408 126.378 313.578 126.713C312.755 127.043 311.803 127.208 310.723 127.208ZM326.064 113.861V116.588H318.181V113.861H326.064ZM319.971 110.725H323.601V122.929C323.601 123.264 323.652 123.526 323.755 123.713C323.857 123.895 323.999 124.023 324.181 124.097C324.368 124.171 324.584 124.208 324.828 124.208C324.999 124.208 325.169 124.193 325.34 124.165C325.51 124.131 325.641 124.105 325.732 124.088L326.303 126.79C326.121 126.847 325.865 126.912 325.536 126.986C325.206 127.066 324.806 127.114 324.334 127.131C323.459 127.165 322.692 127.048 322.033 126.781C321.38 126.514 320.871 126.1 320.507 125.537C320.144 124.975 319.965 124.264 319.971 123.406V110.725Z" fill="#093042"/>
<rect x="274.5" y="1.5" width="45" height="30.8824" rx="8.5" fill="#046A9F" stroke="white" stroke-width="3"/>
<path d="M294.417 7.59892V25.0535H291.775V10.241H291.673L287.497 12.9682V10.4455L291.852 7.59892H294.417ZM303.841 7.59892V25.0535H301.199V10.241H301.097L296.921 12.9682V10.4455L301.276 7.59892H303.841Z" fill="white"/>
</svg>
