<svg width="171" height="27" viewBox="0 0 171 27" fill="none" xmlns="http://www.w3.org/2000/svg">
<mask id="path-1-outside-1_2893_25177" maskUnits="userSpaceOnUse" x="3" y="-2" width="165" height="32" fill="black">
<rect fill="white" x="3" y="-2" width="165" height="32"/>
<path d="M9.82913 16.392C12.1971 14.408 14.6291 13.224 18.4691 13.224C28.6771 13.224 28.1011 26.12 16.0051 26.12C0.549125 26.12 3.04512 3.336 17.0291 3.336C22.9491 3.336 24.7091 7.944 25.0291 9.544L20.8691 12.264C20.1651 11.176 18.7251 10.536 17.3811 10.536C11.2371 10.536 10.2771 21.224 15.6851 21.224C19.6851 21.224 19.3651 17.256 16.1011 17.48C14.4051 17.576 12.3251 19.08 11.6531 19.976C10.9811 20.872 8.96513 17.096 9.82913 16.392ZM35.6006 4.232C37.1046 3.24 40.9766 2.184 45.0086 2.184C63.3126 2.184 60.5606 20.008 43.4086 20.008C42.5446 20.008 42.2246 17.352 43.0886 17.352C50.8966 17.352 51.7286 8.168 44.7206 8.168C41.2646 8.168 38.2886 9.608 36.4326 10.952C36.0806 8.68 35.9526 6.504 35.6006 4.232ZM38.1606 7.912L45.3606 6.984L46.3846 25.896L37.2006 25L38.1606 7.912ZM59.5069 16.2L59.8589 9.8L68.7229 10.184L70.0989 25H59.7629L61.2029 16.008L59.5069 16.2ZM60.8829 4.328C60.8829 2.184 62.6109 0.455999 64.7549 0.455999C66.8989 0.455999 68.6269 2.184 68.6269 4.328C68.6269 6.472 66.8989 8.2 64.7549 8.2C62.6109 8.2 60.8829 6.472 60.8829 4.328ZM72.0069 12.68L72.5829 3.784L81.3189 3.592L82.7589 21L93.1589 19.656L93.5429 25L72.9989 25L74.5989 12.68H72.0069ZM95.4756 12.68L96.0516 3.784L104.788 3.592L106.228 21L116.628 19.656L117.012 25L96.4676 25L98.0676 12.68L95.4756 12.68ZM125.344 16.968L129.504 16.744L128.032 8.584L125.344 16.968ZM130.176 20.52L124.128 20.744L122.656 25.384L118.944 22.824L124.608 2.6L136.48 3.464L140.576 23.528L131.136 25.864L130.176 20.52ZM142.507 4.232C144.011 3.24 147.883 2.184 151.915 2.184C170.219 2.184 167.467 20.008 150.315 20.008C149.451 20.008 149.131 17.352 149.995 17.352C157.803 17.352 158.635 8.648 151.627 8.648C148.171 8.648 145.195 9.608 143.339 10.952C142.987 8.68 142.859 6.504 142.507 4.232ZM145.067 7.912L152.267 6.984L153.291 25.896L144.107 25L145.067 7.912ZM154.155 17.576L158.923 15.272L164.587 23.752L156.587 26.952L154.155 17.576Z"/>
</mask>
<path d="M9.82913 16.392C12.1971 14.408 14.6291 13.224 18.4691 13.224C28.6771 13.224 28.1011 26.12 16.0051 26.12C0.549125 26.12 3.04512 3.336 17.0291 3.336C22.9491 3.336 24.7091 7.944 25.0291 9.544L20.8691 12.264C20.1651 11.176 18.7251 10.536 17.3811 10.536C11.2371 10.536 10.2771 21.224 15.6851 21.224C19.6851 21.224 19.3651 17.256 16.1011 17.48C14.4051 17.576 12.3251 19.08 11.6531 19.976C10.9811 20.872 8.96513 17.096 9.82913 16.392ZM35.6006 4.232C37.1046 3.24 40.9766 2.184 45.0086 2.184C63.3126 2.184 60.5606 20.008 43.4086 20.008C42.5446 20.008 42.2246 17.352 43.0886 17.352C50.8966 17.352 51.7286 8.168 44.7206 8.168C41.2646 8.168 38.2886 9.608 36.4326 10.952C36.0806 8.68 35.9526 6.504 35.6006 4.232ZM38.1606 7.912L45.3606 6.984L46.3846 25.896L37.2006 25L38.1606 7.912ZM59.5069 16.2L59.8589 9.8L68.7229 10.184L70.0989 25H59.7629L61.2029 16.008L59.5069 16.2ZM60.8829 4.328C60.8829 2.184 62.6109 0.455999 64.7549 0.455999C66.8989 0.455999 68.6269 2.184 68.6269 4.328C68.6269 6.472 66.8989 8.2 64.7549 8.2C62.6109 8.2 60.8829 6.472 60.8829 4.328ZM72.0069 12.68L72.5829 3.784L81.3189 3.592L82.7589 21L93.1589 19.656L93.5429 25L72.9989 25L74.5989 12.68H72.0069ZM95.4756 12.68L96.0516 3.784L104.788 3.592L106.228 21L116.628 19.656L117.012 25L96.4676 25L98.0676 12.68L95.4756 12.68ZM125.344 16.968L129.504 16.744L128.032 8.584L125.344 16.968ZM130.176 20.52L124.128 20.744L122.656 25.384L118.944 22.824L124.608 2.6L136.48 3.464L140.576 23.528L131.136 25.864L130.176 20.52ZM142.507 4.232C144.011 3.24 147.883 2.184 151.915 2.184C170.219 2.184 167.467 20.008 150.315 20.008C149.451 20.008 149.131 17.352 149.995 17.352C157.803 17.352 158.635 8.648 151.627 8.648C148.171 8.648 145.195 9.608 143.339 10.952C142.987 8.68 142.859 6.504 142.507 4.232ZM145.067 7.912L152.267 6.984L153.291 25.896L144.107 25L145.067 7.912ZM154.155 17.576L158.923 15.272L164.587 23.752L156.587 26.952L154.155 17.576Z" fill="black"/>
<path d="M9.82913 16.392L11.0925 17.9425L11.1031 17.9338L11.1136 17.925L9.82913 16.392ZM25.0291 9.544L26.1236 11.2179L27.2555 10.4779L26.9903 9.15177L25.0291 9.544ZM20.8691 12.264L19.19 13.3505L20.2817 15.0377L21.9636 13.9379L20.8691 12.264ZM16.1011 17.48L16.2142 19.4768L16.2261 19.4761L16.2381 19.4753L16.1011 17.48ZM11.1136 17.925C13.1797 16.194 15.1695 15.224 18.4691 15.224V11.224C14.0888 11.224 11.2146 12.622 8.54469 14.859L11.1136 17.925ZM18.4691 15.224C20.5957 15.224 21.9217 15.8871 22.6677 16.6435C23.4159 17.402 23.7368 18.4036 23.6149 19.4379C23.3848 21.3899 21.3305 24.12 16.0051 24.12L16.0051 28.12C22.7758 28.12 27.0575 24.4021 27.5874 19.9061C27.8455 17.7164 27.1523 15.494 25.5155 13.8345C23.8766 12.1729 21.4466 11.224 18.4691 11.224V15.224ZM16.0051 24.12C12.676 24.12 10.5348 22.9178 9.23551 21.3052C7.89499 19.6414 7.28228 17.3275 7.47118 14.882C7.85458 9.91885 11.3656 5.336 17.0291 5.336V1.336C8.70869 1.336 3.97967 8.14515 3.48307 14.574C3.23197 17.8245 4.01926 21.2066 6.12074 23.8148C8.26341 26.4742 11.6063 28.12 16.0051 28.12L16.0051 24.12ZM17.0291 5.336C19.396 5.336 20.785 6.22759 21.6443 7.17987C22.5636 8.19865 22.9588 9.39052 23.068 9.93623L26.9903 9.15177C26.7794 8.09748 26.1347 6.18535 24.614 4.50013C23.0333 2.74841 20.5823 1.336 17.0291 1.336V5.336ZM23.9346 7.87006L19.7746 10.5901L21.9636 13.9379L26.1236 11.2179L23.9346 7.87006ZM22.5483 11.1775C21.3966 9.39769 19.2438 8.536 17.3811 8.536V12.536C18.2064 12.536 18.9336 12.9543 19.19 13.3505L22.5483 11.1775ZM17.3811 8.536C12.8652 8.536 10.6105 12.4614 10.2164 15.6334C10.0118 17.2797 10.2265 19.0783 11.0696 20.5488C11.9655 22.1114 13.5486 23.224 15.6851 23.224V19.224C15.1176 19.224 14.7928 19.0006 14.5397 18.5592C14.2338 18.0257 14.0584 17.1523 14.1859 16.1266C14.4557 13.9546 15.7531 12.536 17.3811 12.536V8.536ZM15.6851 23.224C18.2791 23.224 20.5859 21.7924 20.617 19.2929C20.6474 16.8448 18.4214 15.3161 15.9642 15.4847L16.2381 19.4753C16.6484 19.4471 16.7602 19.5594 16.7278 19.5335C16.6969 19.5088 16.6152 19.4091 16.6173 19.2431C16.6182 19.167 16.6377 19.1019 16.6618 19.0556C16.6861 19.009 16.7043 19.0015 16.6811 19.0193C16.6342 19.0552 16.3674 19.224 15.6851 19.224V23.224ZM15.9881 15.4832C14.666 15.558 13.3899 16.1457 12.4482 16.7227C11.5032 17.3017 10.5913 18.0584 10.0531 18.776L13.2531 21.176C13.3869 20.9976 13.8511 20.5543 14.5381 20.1333C15.2284 19.7103 15.8402 19.498 16.2142 19.4768L15.9881 15.4832ZM10.0531 18.776C10.1873 18.597 10.4115 18.3828 10.7448 18.2443C11.0817 18.1043 11.4078 18.0924 11.6629 18.1333C11.9015 18.1716 12.0674 18.2529 12.1492 18.2993C12.2343 18.3477 12.2805 18.3881 12.2888 18.3954C12.3015 18.4067 12.2602 18.3706 12.1798 18.2582C12.1051 18.1537 12.0209 18.0173 11.9383 17.8589C11.7627 17.5222 11.6569 17.2085 11.6243 17.0251C11.6074 16.9301 11.6277 16.9663 11.6081 17.0921C11.5886 17.218 11.4962 17.6135 11.0925 17.9425L8.56578 14.8415C7.9461 15.3465 7.72769 16.014 7.65561 16.4777C7.58355 16.9412 7.62485 17.3809 7.68597 17.7249C7.80938 18.4195 8.08759 19.1258 8.39196 19.7091C8.68493 20.2707 9.10769 20.9216 9.6375 21.3906C9.8811 21.6062 10.3585 21.9753 11.0298 22.0829C11.4027 22.1427 11.8402 22.1208 12.28 21.938C12.7163 21.7567 13.0349 21.467 13.2531 21.176L10.0531 18.776ZM35.6006 4.232L34.4994 2.56245L33.4276 3.26939L33.6242 4.5382L35.6006 4.232ZM36.4326 10.952L34.4562 11.2582L34.9569 14.4899L37.6056 12.5719L36.4326 10.952ZM38.1606 7.912L37.905 5.92841L36.257 6.14081L36.1638 7.79982L38.1606 7.912ZM45.3606 6.984L47.3577 6.87587L47.2412 4.72506L45.105 5.00041L45.3606 6.984ZM46.3846 25.896L46.1904 27.8865L48.5076 28.1126L48.3817 25.7879L46.3846 25.896ZM37.2006 25L35.2038 24.8878L35.0961 26.8042L37.0064 26.9905L37.2006 25ZM36.7018 5.90154C37.1621 5.59795 38.2371 5.15157 39.8118 4.78351C41.3352 4.42745 43.1582 4.184 45.0086 4.184V0.183998C42.827 0.183998 40.6981 0.468544 38.9014 0.88849C37.1561 1.29643 35.5431 1.87405 34.4994 2.56245L36.7018 5.90154ZM45.0086 4.184C49.2877 4.184 52.0463 5.2279 53.6283 6.51863C55.1655 7.77294 55.7049 9.33386 55.5194 10.8536C55.1435 13.9321 51.4023 18.008 43.4086 18.008L43.4086 22.008C52.567 22.008 58.7777 17.1719 59.4899 11.3384C59.8483 8.40214 58.7157 5.50706 56.157 3.41937C53.6429 1.36809 49.8816 0.183998 45.0086 0.183998V4.184ZM43.4086 18.008C43.8492 18.008 44.1807 18.1864 44.3695 18.3391C44.5399 18.477 44.6105 18.6028 44.6219 18.6235C44.6423 18.6603 44.6048 18.5944 44.5863 18.4408C44.5663 18.2754 44.5967 18.2514 44.5612 18.3649C44.5424 18.4248 44.4665 18.6457 44.2367 18.8767C44.1142 18.9999 43.9479 19.1249 43.7353 19.217C43.5201 19.3103 43.2978 19.352 43.0886 19.352V15.352C41.5431 15.352 40.9153 16.6225 40.7441 17.1691C40.5525 17.7806 40.5549 18.4206 40.615 18.9192C40.6765 19.4296 40.827 20.0277 41.1233 20.5625C41.3648 20.9981 42.0667 22.008 43.4086 22.008L43.4086 18.008ZM43.0886 19.352C47.8512 19.352 50.9835 16.4505 51.4429 13.0259C51.6672 11.3533 51.2217 9.59678 49.9976 8.25505C48.7622 6.90086 46.9201 6.168 44.7206 6.168V10.168C46.0251 10.168 46.7071 10.5831 47.0426 10.9509C47.3895 11.3312 47.562 11.8707 47.4784 12.4941C47.3218 13.6615 46.134 15.352 43.0886 15.352V19.352ZM44.7206 6.168C40.725 6.168 37.3466 7.82087 35.2596 9.33212L37.6056 12.5719C39.2307 11.3951 41.8042 10.168 44.7206 10.168V6.168ZM38.409 10.6458C38.2413 9.56276 38.1258 8.49614 38.0051 7.37742C37.8858 6.27214 37.7613 5.11476 37.577 3.92579L33.6242 4.5382C33.792 5.62124 33.9074 6.68786 34.0282 7.80658C34.1474 8.91186 34.272 10.0692 34.4562 11.2582L38.409 10.6458ZM38.4163 9.89559L45.6163 8.96759L45.105 5.00041L37.905 5.92841L38.4163 9.89559ZM43.3636 7.09213L44.3876 26.0041L48.3817 25.7879L47.3577 6.87587L43.3636 7.09213ZM46.5788 23.9055L37.3948 23.0095L37.0064 26.9905L46.1904 27.8865L46.5788 23.9055ZM39.1975 25.1122L40.1575 8.02418L36.1638 7.79982L35.2038 24.8878L39.1975 25.1122ZM59.5069 16.2L57.5099 16.0902L57.3799 18.4536L59.7319 18.1873L59.5069 16.2ZM59.8589 9.8L59.9454 7.80187L57.9705 7.71631L57.8619 9.69017L59.8589 9.8ZM68.7229 10.184L70.7143 9.99905L70.5529 8.2614L68.8094 8.18587L68.7229 10.184ZM70.0989 25V27H72.2932L72.0903 24.8151L70.0989 25ZM59.7629 25L57.788 24.6837L57.4171 27L59.7629 27V25ZM61.2029 16.008L63.1777 16.3243L63.594 13.7245L60.9779 14.0207L61.2029 16.008ZM61.5039 16.3098L61.8559 9.90983L57.8619 9.69017L57.5099 16.0902L61.5039 16.3098ZM59.7723 11.7981L68.6363 12.1821L68.8094 8.18587L59.9454 7.80187L59.7723 11.7981ZM66.7314 10.3689L68.1074 25.1849L72.0903 24.8151L70.7143 9.99905L66.7314 10.3689ZM70.0989 23H59.7629V27H70.0989V23ZM61.7377 25.3163L63.1777 16.3243L59.228 15.6917L57.788 24.6837L61.7377 25.3163ZM60.9779 14.0207L59.2819 14.2127L59.7319 18.1873L61.4279 17.9953L60.9779 14.0207ZM62.8829 4.328C62.8829 3.28857 63.7154 2.456 64.7549 2.456V-1.544C61.5063 -1.544 58.8829 1.07943 58.8829 4.328L62.8829 4.328ZM64.7549 2.456C65.7943 2.456 66.6269 3.28857 66.6269 4.328L70.6269 4.328C70.6269 1.07943 68.0034 -1.544 64.7549 -1.544V2.456ZM66.6269 4.328C66.6269 5.36743 65.7943 6.2 64.7549 6.2V10.2C68.0034 10.2 70.6269 7.57657 70.6269 4.328L66.6269 4.328ZM64.7549 6.2C63.7154 6.2 62.8829 5.36743 62.8829 4.328L58.8829 4.328C58.8829 7.57657 61.5063 10.2 64.7549 10.2V6.2ZM72.0069 12.68L70.0111 12.5508L69.8732 14.68H72.0069V12.68ZM72.5829 3.784L72.5389 1.78448L70.7055 1.82478L70.5871 3.65477L72.5829 3.784ZM81.3189 3.592L83.3121 3.42712L83.1569 1.55112L81.2749 1.59248L81.3189 3.592ZM82.7589 21L80.7657 21.1649L80.9383 23.2519L83.0152 22.9835L82.7589 21ZM93.1589 19.656L95.1537 19.5127L95.002 17.4012L92.9025 17.6725L93.1589 19.656ZM93.5429 25V27H95.6917L95.5377 24.8567L93.5429 25ZM72.9989 25L71.0155 24.7424L70.7223 27H72.9989V25ZM74.5989 12.68L76.5822 12.9376L76.8754 10.68L74.5989 10.68V12.68ZM74.0027 12.8092L74.5787 3.91322L70.5871 3.65477L70.0111 12.5508L74.0027 12.8092ZM72.6268 5.78352L81.3628 5.59152L81.2749 1.59248L72.5389 1.78448L72.6268 5.78352ZM79.3257 3.75688L80.7657 21.1649L84.7521 20.8351L83.3121 3.42712L79.3257 3.75688ZM83.0152 22.9835L93.4152 21.6395L92.9025 17.6725L82.5025 19.0165L83.0152 22.9835ZM91.164 19.7993L91.548 25.1433L95.5377 24.8567L95.1537 19.5127L91.164 19.7993ZM93.5429 23L72.9989 23V27L93.5429 27V23ZM74.9822 25.2576L76.5822 12.9376L72.6155 12.4224L71.0155 24.7424L74.9822 25.2576ZM74.5989 10.68H72.0069V14.68H74.5989V10.68ZM95.4756 12.68L93.4798 12.5508L93.3419 14.68H95.4756V12.68ZM96.0516 3.784L96.0077 1.78448L94.1743 1.82478L94.0558 3.65477L96.0516 3.784ZM104.788 3.592L106.781 3.42712L106.626 1.55112L104.744 1.59248L104.788 3.592ZM106.228 21L104.234 21.1649L104.407 23.2519L106.484 22.9835L106.228 21ZM116.628 19.656L118.622 19.5127L118.471 17.4012L116.371 17.6725L116.628 19.656ZM117.012 25V27H119.16L119.006 24.8567L117.012 25ZM96.4676 25L94.4843 24.7424L94.1911 27H96.4676V25ZM98.0676 12.68L100.051 12.9376L100.344 10.68H98.0676V12.68ZM97.4714 12.8092L98.0474 3.91322L94.0558 3.65477L93.4798 12.5508L97.4714 12.8092ZM96.0956 5.78352L104.832 5.59152L104.744 1.59248L96.0077 1.78448L96.0956 5.78352ZM102.794 3.75688L104.234 21.1649L108.221 20.8351L106.781 3.42712L102.794 3.75688ZM106.484 22.9835L116.884 21.6395L116.371 17.6725L105.971 19.0165L106.484 22.9835ZM114.633 19.7993L115.017 25.1433L119.006 24.8567L118.622 19.5127L114.633 19.7993ZM117.012 23L96.4676 23V27L117.012 27V23ZM98.451 25.2576L100.051 12.9376L96.0843 12.4224L94.4843 24.7424L98.451 25.2576ZM98.0676 10.68L95.4756 10.68V14.68L98.0676 14.68V10.68ZM125.344 16.968L123.44 16.3574L122.554 19.1212L125.452 18.9651L125.344 16.968ZM129.504 16.744L129.612 18.7411L131.875 18.6193L131.473 16.3889L129.504 16.744ZM128.032 8.584L130.001 8.22895L126.128 7.97339L128.032 8.584ZM130.176 20.52L132.145 20.1664L131.838 18.4571L130.102 18.5214L130.176 20.52ZM124.128 20.744L124.054 18.7454L122.648 18.7975L122.222 20.1392L124.128 20.744ZM122.656 25.384L121.521 27.0304L123.746 28.5647L124.563 25.9888L122.656 25.384ZM118.944 22.824L117.018 22.2846L116.633 23.6597L117.809 24.4704L118.944 22.824ZM124.608 2.6L124.754 0.605274L123.123 0.486631L122.682 2.06063L124.608 2.6ZM136.48 3.464L138.44 3.06396L138.137 1.57926L136.626 1.46927L136.48 3.464ZM140.576 23.528L141.057 25.4694L142.92 25.0084L142.536 23.128L140.576 23.528ZM131.136 25.864L129.168 26.2176L129.545 28.3181L131.617 27.8054L131.136 25.864ZM125.452 18.9651L129.612 18.7411L129.397 14.7469L125.237 14.9709L125.452 18.9651ZM131.473 16.3889L130.001 8.22895L126.064 8.93905L127.536 17.0991L131.473 16.3889ZM126.128 7.97339L123.44 16.3574L127.249 17.5786L129.937 9.19461L126.128 7.97339ZM130.102 18.5214L124.054 18.7454L124.202 22.7426L130.25 22.5186L130.102 18.5214ZM122.222 20.1392L120.75 24.7792L124.563 25.9888L126.035 21.3488L122.222 20.1392ZM123.792 23.7376L120.08 21.1776L117.809 24.4704L121.521 27.0304L123.792 23.7376ZM120.87 23.3634L126.534 3.13937L122.682 2.06063L117.018 22.2846L120.87 23.3634ZM124.463 4.59472L136.335 5.45872L136.626 1.46927L124.754 0.605274L124.463 4.59472ZM134.521 3.86404L138.617 23.928L142.536 23.128L138.44 3.06396L134.521 3.86404ZM140.096 21.5866L130.656 23.9226L131.617 27.8054L141.057 25.4694L140.096 21.5866ZM133.105 25.5104L132.145 20.1664L128.208 20.8736L129.168 26.2176L133.105 25.5104ZM142.507 4.232L141.406 2.56245L140.334 3.26939L140.53 4.5382L142.507 4.232ZM143.339 10.952L141.362 11.2582L141.863 14.4899L144.512 12.5719L143.339 10.952ZM145.067 7.912L144.811 5.92841L143.163 6.14081L143.07 7.79982L145.067 7.912ZM152.267 6.984L154.264 6.87587L154.147 4.72506L152.011 5.00041L152.267 6.984ZM153.291 25.896L153.097 27.8865L155.414 28.1126L155.288 25.7879L153.291 25.896ZM144.107 25L142.11 24.8878L142.002 26.8042L143.913 26.9905L144.107 25ZM154.155 17.576L153.285 15.7752L151.807 16.4894L152.219 18.0782L154.155 17.576ZM158.923 15.272L160.586 14.1612L159.619 12.7141L158.053 13.4712L158.923 15.272ZM164.587 23.752L165.33 25.609L167.62 24.6927L166.25 22.6412L164.587 23.752ZM156.587 26.952L154.651 27.4542L155.221 29.6524L157.33 28.809L156.587 26.952ZM143.608 5.90154C144.068 5.59795 145.143 5.15157 146.718 4.78351C148.241 4.42745 150.064 4.184 151.915 4.184V0.183998C149.733 0.183998 147.604 0.468544 145.808 0.88849C144.062 1.29643 142.449 1.87405 141.406 2.56245L143.608 5.90154ZM151.915 4.184C156.194 4.184 158.953 5.2279 160.535 6.51863C162.072 7.77294 162.611 9.33386 162.426 10.8536C162.05 13.9321 158.309 18.008 150.315 18.008V22.008C159.473 22.008 165.684 17.1719 166.396 11.3384C166.755 8.40214 165.622 5.50706 163.063 3.41937C160.549 1.36809 156.788 0.183998 151.915 0.183998V4.184ZM150.315 18.008C150.755 18.008 151.087 18.1864 151.276 18.3391C151.446 18.477 151.517 18.6028 151.528 18.6235C151.549 18.6603 151.511 18.5944 151.493 18.4408C151.473 18.2754 151.503 18.2514 151.467 18.3649C151.449 18.4248 151.373 18.6457 151.143 18.8767C151.02 18.9999 150.854 19.1249 150.642 19.217C150.426 19.3103 150.204 19.352 149.995 19.352V15.352C148.449 15.352 147.822 16.6225 147.65 17.1691C147.459 17.7806 147.461 18.4206 147.521 18.9192C147.583 19.4296 147.733 20.0277 148.03 20.5625C148.271 20.9981 148.973 22.008 150.315 22.008V18.008ZM149.995 19.352C154.669 19.352 157.87 16.6516 158.347 13.2803C158.581 11.63 158.111 9.9132 156.867 8.62097C155.624 7.32918 153.793 6.648 151.627 6.648V10.648C152.964 10.648 153.658 11.0548 153.985 11.395C154.313 11.7348 154.461 12.194 154.387 12.7197C154.248 13.7004 153.129 15.352 149.995 15.352V19.352ZM151.627 6.648C147.842 6.648 144.431 7.69203 142.166 9.33212L144.512 12.5719C145.959 11.524 148.5 10.648 151.627 10.648V6.648ZM145.315 10.6458C145.148 9.56276 145.032 8.49614 144.911 7.37742C144.792 6.27214 144.667 5.11476 144.483 3.92579L140.53 4.5382C140.698 5.62124 140.814 6.68786 140.934 7.80658C141.054 8.91186 141.178 10.0692 141.362 11.2582L145.315 10.6458ZM145.323 9.89559L152.523 8.96759L152.011 5.00041L144.811 5.92841L145.323 9.89559ZM150.27 7.09213L151.294 26.0041L155.288 25.7879L154.264 6.87587L150.27 7.09213ZM153.485 23.9055L144.301 23.0095L143.913 26.9905L153.097 27.8865L153.485 23.9055ZM146.104 25.1122L147.064 8.02418L143.07 7.79982L142.11 24.8878L146.104 25.1122ZM155.025 19.3768L159.793 17.0728L158.053 13.4712L153.285 15.7752L155.025 19.3768ZM157.26 16.3828L162.924 24.8628L166.25 22.6412L160.586 14.1612L157.26 16.3828ZM163.844 21.895L155.844 25.095L157.33 28.809L165.33 25.609L163.844 21.895ZM158.523 26.4498L156.091 17.0738L152.219 18.0782L154.651 27.4542L158.523 26.4498Z" fill="#F5DE68" mask="url(#path-1-outside-1_2893_25177)"/>
</svg>
