<svg width="39" height="39" viewBox="0 0 39 39" fill="none" xmlns="http://www.w3.org/2000/svg">
<g filter="url(#filter0_d_1999_139)">
<circle cx="19.5" cy="18.5" r="15.5" fill="white"/>
<circle cx="19.5" cy="18.5" r="15" stroke="#FDFDFD"/>
</g>
<path d="M19.5275 12.1281C19.5275 11.7361 19.5141 11.4436 19.531 11.152C19.5479 10.8693 19.2864 10.922 19.1343 10.8709C18.2485 10.5745 17.6579 9.83736 17.6526 8.99574C17.6481 8.17681 18.2307 7.41215 19.0783 7.12378C20.1758 6.75036 21.4299 7.25095 21.871 8.23837C22.3113 9.22336 21.8141 10.4206 20.7175 10.7908C20.2292 10.956 20.0878 11.1674 20.1554 11.5886C20.1785 11.7312 20.1589 11.8794 20.1589 12.0406C20.3688 12.0042 20.4338 11.8535 20.5423 11.7579C21.8524 10.5964 23.4097 10.214 25.1877 10.5299C25.6439 10.6109 25.7115 10.7389 25.5737 11.1593C24.9395 13.0904 22.8743 14.4796 20.5485 14.3289C20.2425 14.3095 20.1483 14.3686 20.1465 14.6627C20.1447 14.9721 20.311 14.9689 20.5547 14.9689C23.4578 14.9648 26.3617 14.9656 29.2647 14.9664C30.3018 14.9664 30.6842 15.3131 30.6842 16.2511C30.6842 19.4216 30.6842 22.592 30.6842 25.7616C30.6842 26.6186 30.2751 26.9985 29.3341 26.9985C23.0086 27.0009 16.6831 27.0001 10.3576 26.9985C9.41486 26.9985 9.00128 26.6178 9.0004 25.7673C9.0004 22.5701 8.99951 19.373 9.0004 16.1758C9.0004 15.3447 9.41397 14.9664 10.3238 14.9664C13.2571 14.9648 16.1904 14.9624 19.1228 14.9713C19.4109 14.9721 19.5479 14.934 19.5372 14.6278C19.5283 14.3792 19.4661 14.3071 19.1877 14.3265C17.9434 14.4148 16.8228 14.0997 15.8302 13.4144C14.9923 12.8353 14.4258 12.0795 14.1145 11.1658C13.966 10.7308 14.0389 10.6109 14.5325 10.5251C16.4812 10.1849 18.1142 10.7025 19.5257 12.1265L19.5275 12.1281Z" fill="#040503"/>
<path d="M19.8407 15.4873C22.9423 15.4873 26.043 15.4873 29.1447 15.4873C29.7444 15.4873 29.8799 15.6149 29.8799 16.1813C29.8807 19.3621 29.8807 22.5429 29.8799 25.7229C29.8799 26.269 29.747 26.3958 29.1665 26.3958C22.9493 26.3966 16.732 26.3966 10.5157 26.3958C9.93871 26.3958 9.80321 26.2658 9.80321 25.7229C9.80233 22.5421 9.80233 19.3613 9.80321 16.1813C9.80321 15.6141 9.93783 15.4873 10.5375 15.4873C13.6392 15.4873 16.7399 15.4873 19.8415 15.4873H19.8407Z" fill="#99CA6E"/>
<path d="M19.8514 7.85095C20.7642 7.85388 21.453 8.40361 21.4484 9.12513C21.4437 9.83422 20.7235 10.4008 19.8329 10.3964C18.9414 10.392 18.2313 9.82033 18.2359 9.11124C18.2396 8.39118 18.9358 7.84876 19.8514 7.85168V7.85095Z" fill="#F3B846"/>
<path d="M19.272 14.0133C17.1641 14.1992 15.3523 13.0358 14.6863 11.5152C14.606 11.3327 14.5479 11.197 14.8404 11.1605C16.7388 10.9271 18.6142 11.8232 19.4399 13.3846C18.9131 13.1079 18.4611 12.8703 18.0091 12.6327C17.8763 12.5631 17.7425 12.4961 17.6124 12.4223C17.4067 12.306 17.2019 12.2628 17.0608 12.4893C16.9076 12.7337 17.1115 12.8449 17.3034 12.9475C17.7923 13.2089 18.2821 13.4686 18.7701 13.7299C18.9094 13.8046 19.045 13.8844 19.2729 14.0125L19.272 14.0133Z" fill="#FBDC40"/>
<path d="M20.2434 13.103C20.983 11.9437 22.1664 11.3012 23.7653 11.1523C23.8586 11.144 23.9538 11.1418 24.047 11.147C24.3853 11.1673 24.8799 11.0319 25.0213 11.2493C25.1805 11.4938 24.8366 11.794 24.635 12.0355C23.641 13.2271 22.2333 13.768 20.4149 13.6544C20.9538 13.4024 21.4918 13.1497 22.0308 12.8984C22.1523 12.842 22.2804 12.7938 22.3982 12.7329C22.58 12.6396 22.7393 12.5215 22.598 12.3357C22.467 12.1634 22.271 12.1724 22.0675 12.2672C21.5681 12.4997 21.0669 12.7291 20.5666 12.9593C20.4601 13.0082 20.3508 13.0549 20.2434 13.103Z" fill="#FBDC40"/>
<path d="M19.8201 25.6634C17.5814 25.6634 15.3418 25.657 13.1031 25.6691C12.6926 25.6715 12.5261 25.5711 12.5243 25.1683C12.5199 24.4146 11.9847 23.9592 11.1361 23.9535C10.7505 23.9511 10.6044 23.8085 10.6062 23.4697C10.6125 21.9041 10.6125 20.3392 10.6062 18.7736C10.6053 18.4478 10.7621 18.3238 11.1147 18.3076C12.0435 18.2647 12.5163 17.8457 12.527 17.0256C12.5323 16.6115 12.7719 16.5782 13.1254 16.5782C17.3668 16.5831 21.6073 16.5815 25.8486 16.5815H26.2494C26.773 16.5815 27.0781 16.8103 27.1648 17.2679C27.2823 17.8854 27.7445 18.263 28.4382 18.3076C29.0499 18.3473 29.0766 18.3724 29.0775 18.9356C29.0775 20.4065 29.0784 21.8773 29.0775 23.3482C29.0775 23.8855 29.0286 23.9308 28.4604 23.9471C27.7044 23.9689 27.163 24.4462 27.1621 25.1675C27.1621 25.5719 26.9911 25.6699 26.5824 25.6675C24.3286 25.6553 22.0748 25.6618 19.821 25.6618L19.8201 25.6634Z" fill="#020402"/>
<path d="M19.7991 24.9337C17.761 24.9337 15.7228 24.9288 13.6847 24.9402C13.4137 24.9419 13.2843 24.8994 13.2231 24.6229C13.0499 23.8381 12.5052 23.3714 11.6684 23.2286C11.4577 23.1927 11.4079 23.1267 11.4088 22.948C11.4131 21.6174 11.414 20.286 11.4088 18.9554C11.4079 18.7669 11.4866 18.6927 11.6781 18.6625C12.5533 18.523 13.0613 18.0155 13.2405 17.2266C13.2956 16.9835 13.3988 16.9411 13.6384 16.9419C17.7723 16.9484 21.9072 16.9484 26.0411 16.9419C26.2755 16.9419 26.3856 16.9754 26.4416 17.2234C26.6173 18.0123 27.1271 18.5213 28.0014 18.66C28.2262 18.6959 28.2751 18.8003 28.2742 18.9921C28.2681 20.3096 28.269 21.6272 28.2734 22.9447C28.2734 23.1185 28.234 23.1927 28.0181 23.2286C27.1795 23.3681 26.6357 23.8348 26.4591 24.6196C26.3979 24.8905 26.279 24.9435 26.0018 24.9419C23.9348 24.9296 21.8678 24.9353 19.8008 24.9353L19.7991 24.9337Z" fill="#3C987A"/>
<path d="M23.4554 21.1195C23.4519 23.0303 21.8113 24.5924 19.8244 24.5782C17.8244 24.564 16.2109 22.997 16.2275 21.0862C16.245 19.1553 17.8462 17.6584 19.8804 17.6692C21.876 17.6801 23.4589 19.2079 23.4554 21.1195Z" fill="#020302"/>
<path d="M23.0546 21.1505C23.0452 22.669 21.6173 23.8613 19.8215 23.851C18.0051 23.8406 16.612 22.6291 16.6299 21.0755C16.6477 19.5617 18.0728 18.3901 19.8864 18.3965C21.6662 18.4029 23.0649 19.6192 23.0546 21.1505Z" fill="#FBBC41"/>
<path d="M19.1245 21.8826C19.2386 21.8866 19.3339 21.926 19.4189 21.9918C19.6397 22.163 19.8841 22.2031 20.1492 22.0674C20.3134 21.983 20.3974 21.8593 20.337 21.697C20.2436 21.4447 19.9973 21.4318 19.735 21.4077C19.1697 21.3563 18.7838 21.0639 18.664 20.6332C18.5592 20.258 18.7621 19.9126 19.2688 19.6458C19.3972 19.5775 19.4868 19.5205 19.5019 19.3799C19.517 19.232 19.6434 19.1332 19.8152 19.1244C19.9888 19.1155 20.1313 19.2039 20.1454 19.3542C20.1643 19.5558 20.3417 19.5992 20.5002 19.6812C20.6927 19.7808 20.8881 19.9093 20.7409 20.1311C20.6012 20.3416 20.3908 20.3223 20.1813 20.1913C20.0294 20.0965 19.8557 20.1014 19.684 20.1279C19.4755 20.1608 19.3424 20.2749 19.333 20.4541C19.3254 20.6123 19.4179 20.7401 19.6104 20.7859C19.7453 20.8172 19.8841 20.8381 20.0228 20.8542C20.5408 20.9152 20.9418 21.2125 21.0287 21.6343C21.1145 22.0537 20.8852 22.3622 20.4785 22.5711C20.3228 22.6515 20.2256 22.7278 20.1653 22.8828C20.0728 23.1199 19.7557 23.2227 19.6434 23.0017C19.4887 22.6964 19.1811 22.592 18.9433 22.3992C18.8131 22.2939 18.7668 22.1742 18.8234 22.0392C18.8697 21.93 18.9876 21.8834 19.1263 21.8834L19.1245 21.8826Z" fill="#030502"/>
<defs>
<filter id="filter0_d_1999_139" x="0" y="0" width="39" height="39" filterUnits="userSpaceOnUse" color-interpolation-filters="sRGB">
<feFlood flood-opacity="0" result="BackgroundImageFix"/>
<feColorMatrix in="SourceAlpha" type="matrix" values="0 0 0 0 0 0 0 0 0 0 0 0 0 0 0 0 0 0 127 0" result="hardAlpha"/>
<feOffset dy="1"/>
<feGaussianBlur stdDeviation="2"/>
<feComposite in2="hardAlpha" operator="out"/>
<feColorMatrix type="matrix" values="0 0 0 0 0 0 0 0 0 0 0 0 0 0 0 0 0 0 0.25 0"/>
<feBlend mode="normal" in2="BackgroundImageFix" result="effect1_dropShadow_1999_139"/>
<feBlend mode="normal" in="SourceGraphic" in2="effect1_dropShadow_1999_139" result="shape"/>
</filter>
</defs>
</svg>
