<svg width="37" height="37" viewBox="0 0 37 37" fill="none" xmlns="http://www.w3.org/2000/svg">
<path d="M19.6905 0C20.0257 0.159036 20.3934 0.0859162 20.7431 0.130702C22.6196 0.369257 24.4175 0.866474 26.1396 1.65709C27.6077 2.33162 28.9819 3.16702 30.217 4.21172C32.155 5.85053 33.7686 7.76628 34.9052 10.0677C34.7688 10.182 34.6567 10.0942 34.5492 10.0184C32.6989 8.71958 30.6778 7.77176 28.5537 7.0369C28.4624 7.00583 28.3721 6.97201 28.2944 6.91169C28.1598 6.78555 28.1092 6.60001 27.9818 6.46931C27.8011 6.28285 27.577 6.21887 27.3268 6.22344C27.1289 6.2271 26.9446 6.19511 26.7973 6.0443C26.1902 5.4246 25.5108 5.35331 24.7663 5.77101C24.7139 5.80026 24.6561 5.81763 24.5955 5.82585C24.4654 5.83499 24.3669 5.76736 24.2784 5.68327C23.8908 5.31584 23.4707 5.25094 23.0072 5.53063C22.915 5.58638 22.8138 5.62569 22.7054 5.63757C22.0694 5.65859 21.446 5.52971 20.8153 5.48858C19.4447 5.39993 18.0751 5.28111 16.7009 5.42643C16.5699 5.44014 16.4379 5.4374 16.3078 5.41912C16.2672 5.41455 16.2283 5.40267 16.1913 5.3853C16.0413 5.29207 15.9871 5.12207 15.8904 4.98588C15.5083 4.44571 14.7918 4.22452 14.2407 4.56179C13.8206 4.81862 13.367 4.85335 12.918 4.95298C12.5457 4.83964 12.2232 4.60383 11.8004 4.60657C11.2763 4.61023 10.839 4.77201 10.4686 5.12938C10.2852 5.30578 10.1036 5.39444 9.83347 5.3789C9.23988 5.34417 8.82608 5.80574 8.83602 6.43823C8.79446 6.61098 8.64809 6.64388 8.50986 6.68319C7.06428 7.09449 5.68014 7.66757 4.31588 8.29457C3.95629 8.46001 3.62923 8.68942 3.26603 8.85029C3.12599 8.91244 2.99137 9.01206 2.82603 8.92615C2.73297 8.76254 2.85223 8.64738 2.92722 8.53221C4.72335 5.76736 7.0435 3.58655 9.95092 2.04554C11.8229 1.05384 13.7971 0.406731 15.8841 0.103282C16.381 0.0310761 16.8852 0.0749482 17.3812 0.000914002H19.6887L19.6905 0Z" fill="#B3D6EB"/>
<path d="M0.000903023 17.0121C0.0207695 17.0075 0.040636 17.0075 0.0605025 17.0121C0.384688 16.9232 0.714291 16.8603 1.04299 16.7936C1.41504 16.7176 1.78166 16.7445 2.1221 16.9492C2.25665 17.0297 2.40385 17.0862 2.5393 17.1649C2.93302 17.3956 3.33667 17.4085 3.74664 17.2251C4.41939 16.9232 5.08131 16.8973 5.75858 17.2316C6.34825 17.5224 6.9912 17.5058 7.62693 17.4993C7.96285 17.4956 8.30058 17.4854 8.60761 17.6613C8.73674 17.7391 8.85775 17.8318 8.97514 17.9271C9.22347 18.2828 9.53231 18.5606 9.93686 18.7199C10.1798 18.8153 10.3053 19.0209 10.3902 19.2598C10.466 19.4691 10.5238 19.6784 10.3983 19.8905C10.2087 19.9294 10.1581 19.759 10.0813 19.6497C9.84746 19.3126 9.53502 19.1793 9.1431 19.2432C8.604 19.3311 8.09289 19.2589 7.60616 18.9987C7.00565 18.6773 6.39069 18.6477 5.7658 18.9255C4.91967 19.3015 4.12591 19.1598 3.36557 18.6736C3.21295 18.5754 3.0459 18.5041 2.88696 18.418C2.31354 18.1059 1.74554 18.0762 1.17754 18.4365C1.03486 18.5263 0.884059 18.6078 0.724224 18.6616C0.482214 18.744 0.236592 18.8014 0 18.6375V17.0112L0.000903023 17.0121Z" fill="#DCD7C4"/>
<path d="M0 18.6346C0.312847 18.633 0.631166 18.67 0.909353 18.4914C1.80685 17.917 2.65692 18.1471 3.49604 18.6097C4.17281 18.983 4.8888 19.1359 5.65222 18.839C6.443 18.5317 7.19274 18.588 7.94065 18.9524C8.23708 19.0973 8.57273 19.1463 8.91476 19.0892C9.60704 18.9742 10.1479 19.1439 10.4717 19.7272C10.4717 19.8672 10.3422 19.8616 10.2428 19.8793C10.1114 19.9026 9.97735 19.8946 9.84418 19.8946C6.79233 19.8946 3.73957 19.8946 0.687715 19.8938C0.472462 19.8938 0.248088 19.9219 0.0592858 19.79L0.030099 19.7956L0.000912089 19.79V18.6338L0 18.6346Z" fill="#CDC3B0"/>
<path d="M34.9053 27.2036C34.2477 28.4711 33.4159 29.6207 32.4498 30.6789C32.2829 30.7073 32.116 30.7171 31.9464 30.7171C23.0099 30.7153 14.0734 30.7153 5.13682 30.7171C4.9672 30.7171 4.8003 30.7073 4.63339 30.6789C3.41428 29.3582 2.44461 27.8777 1.68176 26.266C1.11393 25.0676 0.695769 23.8178 0.410039 22.5272C0.390084 22.4359 0.381013 22.3418 0.367407 22.2496C0.30119 22.0784 0.432716 22.0465 0.548822 22.0181C0.702118 21.9808 0.860857 21.9923 1.01778 21.9923C4.31138 21.9923 7.60498 21.9923 10.8986 21.9923C11.0673 21.9923 11.2369 21.9826 11.402 22.0261C11.5408 22.074 11.5734 22.1467 11.4519 22.2505C11.3503 22.3374 11.2306 22.3968 11.1045 22.4367C10.2945 22.6949 9.92257 23.2821 9.8119 24.0689C9.79285 24.2055 9.80737 24.3598 9.645 24.4361C9.36018 24.515 9.06901 24.4707 8.78055 24.4804C8.61184 24.4866 8.44221 24.4751 8.27622 24.515C7.92699 24.6002 7.67573 24.8982 7.67755 25.2246C7.67936 25.5502 7.93244 25.8473 8.28257 25.9298C8.44856 25.9689 8.61819 25.9609 8.7869 25.9609C10.319 25.9609 11.851 25.9662 13.3831 25.9573C13.7377 25.9556 14.0434 26.007 14.2883 26.2935C14.4834 26.5224 14.7754 26.5268 15.0575 26.5268C16.3846 26.5268 17.7116 26.5268 19.0387 26.5268C21.0052 26.5268 22.9718 26.5303 24.9374 26.5241C25.3012 26.5232 25.6223 26.5614 25.8772 26.863C26.0803 27.1034 26.3906 27.0927 26.6835 27.0927C28.8669 27.0927 31.0502 27.0927 33.2336 27.0927C33.6436 27.0927 34.0536 27.0892 34.4636 27.0945C34.6178 27.0963 34.781 27.0794 34.9062 27.2027L34.9053 27.2036Z" fill="#80B9E1"/>
<path d="M4.53711 30.8016C4.64001 30.6787 4.78389 30.7259 4.91047 30.7259C13.9694 30.7241 23.0293 30.7241 32.0883 30.7259C32.2149 30.7259 32.3587 30.6787 32.4616 30.8025C29.8773 33.6738 26.6782 35.5529 22.8891 36.48C21.0942 36.9191 19.2666 37.0794 17.4289 36.9636C13.036 36.6858 9.19226 35.105 5.92582 32.2016C5.43226 31.7626 4.96693 31.3012 4.53711 30.8034V30.8016Z" fill="#669BCF"/>
<path d="M1.04688 12.0345C1.31905 11.1851 1.67741 10.3754 2.13013 9.60794C2.2898 9.49015 2.47216 9.4331 2.66087 9.38525C4.14785 9.0089 5.64027 8.65463 7.11999 8.24883C8.14427 7.96817 9.14315 7.96725 10.1457 8.30772C10.3398 8.37397 10.5421 8.4163 10.7363 8.48347C10.866 8.5258 10.9994 8.55985 11.1327 8.59205C12.8048 9.02086 14.4714 9.47451 16.1335 9.94104C16.9455 10.1692 17.7239 10.1177 18.5141 9.85638C19.9702 9.37421 21.4454 8.95185 22.9016 8.46875C23.0168 8.43102 23.1365 8.41354 23.2508 8.37305C23.3633 8.34269 23.4786 8.31968 23.5865 8.27275C24.345 7.98013 25.118 7.96357 25.9 8.15221C27.9431 8.64358 29.9853 9.13956 32.0285 9.6291C32.9212 9.8435 33.8112 10.0671 34.7057 10.2723C34.8727 10.311 35.0342 10.3542 35.1557 10.4886C35.662 11.4722 36.0367 12.5056 36.3016 13.5813C36.0693 13.6705 35.9215 13.4948 35.7464 13.4009C35.5431 13.1304 35.5186 12.8037 35.466 12.4964C35.4633 12.4366 35.417 12.4991 35.4615 12.4807C35.4978 12.7043 35.4642 12.9105 35.3091 13.0853C35.0287 13.1874 34.8364 12.9905 34.6186 12.8783C34.3882 12.5746 34.3392 12.2176 34.3211 11.925C34.3038 12.0731 34.3365 12.316 34.1532 12.4964C33.96 12.5958 33.8012 12.4835 33.6452 12.4007C32.952 12.0335 32.2299 11.7253 31.534 11.3646C30.9207 11.0462 30.3228 10.9845 29.6596 11.2238C29.0599 11.44 28.4494 11.6277 27.8506 11.8513C27.739 11.8927 27.631 11.9562 27.504 11.924C27.4006 11.8688 27.3824 11.7796 27.3843 11.6701C27.387 11.8256 27.3344 11.9627 27.2155 12.0667C26.9315 12.2433 26.594 12.2829 26.3001 12.4366C26.2683 12.4531 26.2357 12.466 26.2021 12.4789C25.8701 12.5378 25.5924 12.8166 25.2232 12.7292C25.0662 12.6298 25.0835 12.4504 25.0581 12.2489C25.0417 12.5516 24.9991 12.7844 24.8322 12.9795C24.511 13.17 24.1508 13.2601 23.8088 13.3972C23.7072 13.4377 23.6001 13.4451 23.4976 13.3899C23.3788 13.296 23.3824 13.169 23.396 13.0365C23.376 13.239 23.3788 13.4515 23.2155 13.608C23.0086 13.7073 22.8045 13.8233 22.5604 13.7644C22.2883 13.5298 22.3118 13.1966 22.2338 12.9243C22.1331 13.0485 22.2393 13.3503 21.9716 13.446C21.6559 13.1322 21.6904 12.6942 21.5833 12.3814C21.5824 12.2581 21.4999 12.317 21.547 12.3041C21.5543 12.3022 21.5606 12.3087 21.5588 12.3225C21.4962 12.8516 21.3892 13.366 21.107 13.827C20.7269 13.8978 20.393 13.7166 20.0428 13.6264C19.8831 13.492 19.8332 13.3172 19.8378 13.0209C19.8069 13.2482 19.7915 13.4064 19.6327 13.4709C19.0358 13.3623 18.4415 13.2445 17.8963 12.9574C17.7856 12.8028 17.7221 12.6307 17.7212 12.4366C17.7112 12.3906 17.6531 12.4623 17.6949 12.4384C17.7393 12.6289 17.7112 12.7899 17.5207 12.8875C17.3338 12.9151 17.1641 12.8405 16.9908 12.7936C16.3494 12.6197 15.7053 12.4596 15.0584 12.3096C14.5739 12.1973 14.104 12.2286 13.6277 12.3436C11.7497 12.7964 9.87258 13.2546 7.98913 13.6843C7.47019 13.803 6.94852 13.8987 6.41959 13.953C5.97686 13.9981 5.55499 13.8711 5.14491 13.7276C3.8666 13.2831 2.59645 12.8139 1.35715 12.2645C1.2383 12.2121 1.1004 12.1798 1.04778 12.0335L1.04688 12.0345Z" fill="#B3D6EB"/>
<path d="M9.84258 24.3979C9.87136 23.3603 10.242 22.5677 11.2495 22.2209C11.3916 22.1719 11.541 22.1135 11.6498 21.99C12.1077 21.5773 12.544 21.1428 12.9137 20.6396C13.4625 20.0543 14.1362 19.7226 14.8955 19.5624C15.0322 19.5454 15.1654 19.5077 15.3012 19.4851C15.8922 19.5125 16.4823 19.5577 17.076 19.5464C17.5384 19.5379 17.9999 19.5436 18.4587 19.47C18.6017 19.4804 18.7331 19.4107 18.8734 19.4031C19.4482 19.2853 19.9934 19.0667 20.5241 18.817C21.0621 18.5635 21.6207 18.4164 22.2045 18.3552C22.3215 18.3476 22.4375 18.3514 22.5536 18.3684C23.3038 18.4702 23.9992 18.7595 24.6927 19.0554C25.2793 19.3051 25.8784 19.4126 26.4973 19.192C26.6358 19.1572 26.769 19.1063 26.8985 19.045C27.4175 18.7529 27.915 18.4174 28.4548 18.1648C28.5771 18.1158 28.7012 18.0725 28.8263 18.031C29.3228 17.8463 29.8329 17.867 30.3421 17.9367C31.0158 18.03 31.6626 18.2496 32.3256 18.3966C32.5586 18.4485 32.7916 18.4994 33.0309 18.4975C33.1523 18.4956 33.2747 18.4918 33.3961 18.4975C34.4855 18.538 35.5074 18.1969 36.5347 17.8877C36.6787 17.8444 36.8208 17.7492 36.9791 17.8397C37.0349 18.9451 36.9746 20.0459 36.8406 21.1428C36.8334 21.2012 36.7947 21.2559 36.7704 21.3124C36.64 21.4331 36.479 21.4208 36.326 21.4105C35.3779 21.3473 34.4729 21.5301 33.5904 21.8892C32.5082 22.3293 31.4638 22.2662 30.4707 21.5905C30.2008 21.4076 29.8995 21.2757 29.6071 21.1324C28.7795 20.7272 27.9528 20.7282 27.1081 21.1004C26.2454 21.4802 25.4574 22.0108 24.61 22.4169C23.7545 22.8269 22.872 23.1115 21.9113 23.071C21.2114 23.0418 20.5862 22.7609 19.9511 22.5055C19.4365 22.2982 18.922 22.1154 18.3606 22.0833C17.6185 22.0419 16.9447 22.2699 16.2817 22.5715C16.1279 22.6412 15.9687 22.7025 15.8238 22.7864C14.7839 23.3914 13.6658 23.3707 12.5395 23.2321C11.5329 23.1087 10.7997 23.5083 10.2771 24.4007C10.1772 24.5713 10.1313 24.8549 9.82638 24.7664C9.75172 24.6391 9.75532 24.5157 9.84168 24.396L9.84258 24.3979Z" fill="#DCD7C4"/>
<path d="M9.83575 24.7704C9.99986 24.7102 10.051 24.5413 10.1254 24.4005C10.7029 23.3034 11.5208 22.9568 12.6669 23.1044C13.6274 23.2286 14.613 23.2578 15.5295 22.7316C16.0102 22.4558 16.5187 22.2277 17.0433 22.0578C18.0504 21.7316 19.0082 21.916 19.957 22.35C20.6107 22.649 21.2726 22.9218 22.0115 22.9199C22.8545 22.917 23.6284 22.6607 24.3826 22.3034C25.2768 21.8801 26.0964 21.2956 26.9995 20.884C27.8649 20.4898 28.707 20.4927 29.5455 20.9248C29.9428 21.1296 30.3329 21.349 30.7167 21.585C31.5444 22.0937 32.426 22.1238 33.2959 21.7481C34.3801 21.2791 35.4966 21.1286 36.6508 21.2073C36.5853 22.0384 36.3862 22.8393 36.1746 23.6364C36.0517 24.1015 35.9648 24.5801 35.737 25.0063C35.6383 25.0898 35.5235 25.1199 35.4025 25.1199C34.0214 25.1189 32.6403 25.1471 31.2602 25.1063C31.0781 25.083 30.9714 24.9383 30.862 24.8034C29.9114 23.6296 28.2299 23.5024 27.1717 24.7529C27.0524 24.8937 26.9322 25.0432 26.7466 25.0927C26.0704 25.1597 25.3933 25.1209 24.7172 25.1209C23.7674 25.1209 22.8168 25.151 21.868 25.1024C21.6923 25.084 21.5721 24.9519 21.4376 24.8481C21.0421 24.5413 20.6071 24.4024 20.1274 24.549C19.8637 24.6296 19.6565 24.5733 19.4314 24.4044C18.3033 23.5607 17.0809 23.7112 16.1223 24.7917C16.0084 24.9209 15.9088 25.0723 15.7259 25.1005C14.7609 25.1558 13.796 25.116 12.831 25.1248C12.0087 25.1316 11.1863 25.1277 10.3649 25.1248C10.2223 25.1248 10.0761 25.1364 9.93978 25.0811C9.79988 25.0238 9.70482 24.9374 9.83575 24.7684V24.7704Z" fill="#CDC3AF"/>
<path d="M10.7487 8.63667C9.94347 8.45067 9.1646 8.14334 8.30922 8.20888C7.54585 8.26734 6.82711 8.50824 6.09106 8.67741C4.75652 8.98386 3.42653 9.30802 2.09473 9.62509C2.14483 9.53121 2.19493 9.43733 2.24503 9.34345C2.36163 9.28056 2.46184 9.20616 2.45546 9.05825C2.47277 8.94932 2.51194 8.85012 2.60304 8.77838C2.93189 8.76332 3.18695 8.5667 3.46024 8.42765C5.05258 7.61724 6.71506 6.98486 8.44404 6.51722C8.53241 6.49331 8.5989 6.45876 8.63899 6.37905C8.73828 6.271 8.87401 6.26657 9.0061 6.26568C10.7651 6.26126 12.5233 6.2524 14.2823 6.26923C14.3306 6.26923 14.378 6.27897 14.4244 6.28694C14.6339 6.38171 14.8088 6.43308 14.8189 6.09829C14.8243 5.90521 14.9929 5.86624 15.1614 5.85915C15.4028 5.84941 15.6451 5.8627 15.8865 5.85118C16.2427 5.83435 16.2727 5.78299 16.1343 5.4482C16.1151 5.40303 16.1088 5.35874 16.1297 5.31269C16.9095 5.24272 17.692 5.22323 18.4745 5.2436C19.7225 5.27637 20.9678 5.33837 22.2048 5.51551C22.3825 5.54119 22.5665 5.52348 22.7478 5.52614C22.6029 5.81487 22.2923 5.64305 22.0828 5.75464C21.8933 5.75641 21.7621 5.83613 21.6956 6.01592C21.6027 6.26568 21.671 6.39677 21.9361 6.45788C22.0427 6.48268 22.1529 6.48445 22.2613 6.48091C22.571 6.47116 22.7869 6.56505 22.7815 6.91224C22.7787 7.06635 22.8726 7.11506 23.0129 7.11949C23.1094 7.12214 23.2069 7.12392 23.3034 7.12392C24.7683 7.12392 26.2331 7.1248 27.6988 7.12214C27.8536 7.12214 28.0149 7.1558 28.1588 7.06635C28.2344 6.98752 28.2572 6.87327 28.341 6.79887C29.6081 7.22665 30.8598 7.6943 32.0558 8.28682C32.9704 8.73941 33.8614 9.23539 34.6921 9.82526C34.7769 9.88549 34.8607 9.91117 34.96 9.90763C35.1066 10.0715 35.195 10.2646 35.2551 10.4718C32.1351 9.7482 29.016 9.02194 25.896 8.30188C25.1272 8.12386 24.3674 8.19117 23.6186 8.4241C23.3745 8.25494 23.0985 8.20002 22.8024 8.16902C21.3959 8.022 19.9885 7.9042 18.572 7.89092C16.3074 7.86878 14.0537 7.98746 11.8136 8.31694C11.4411 8.37185 11.0703 8.4241 10.7487 8.63578V8.63667Z" fill="#C4E2F5"/>
<path d="M21.8876 24.995C23.5887 24.9967 25.2906 24.9985 26.9917 25.0002C26.9863 25.2996 27.1471 25.4493 27.4741 25.4493C28.5654 25.4493 29.6566 25.4493 30.7479 25.4493C31.1033 25.4493 31.2966 25.2973 31.3279 24.9932C32.8691 24.9932 34.4111 24.995 35.9523 24.9959C35.6975 25.7752 35.3497 26.5135 34.9333 27.2229C32.1608 27.2229 29.3874 27.2194 26.615 27.2264C26.2256 27.2273 25.9022 27.1391 25.6989 26.7992C25.5869 26.6122 25.409 26.6664 25.25 26.6664C21.8768 26.6638 18.5044 26.6611 15.1312 26.669C14.7193 26.6699 14.3706 26.5982 14.1511 26.2269C14.0508 26.0574 13.8782 26.109 13.7301 26.109C12.0254 26.1063 10.3207 26.1107 8.61696 26.1055C7.93039 26.1029 7.49677 25.528 7.75333 24.9574C7.90239 24.6245 8.18243 24.4376 8.56998 24.4349C8.99005 24.4323 9.41012 24.4358 9.8302 24.4367C9.84013 24.552 9.85097 24.6674 9.86091 24.7827C9.82387 25.0789 10.0569 24.988 10.1988 24.988C11.9396 24.9932 13.6804 24.9915 15.4212 24.9915C15.5775 24.9915 15.7338 24.9932 15.8892 24.995C15.888 25.2967 16.0617 25.4476 16.4104 25.4476C18.078 25.4476 19.7466 25.4476 21.4142 25.4476C21.7563 25.4476 21.9138 25.2967 21.8867 24.995H21.8876Z" fill="#669BCF"/>
<path d="M12.7532 20.6741C12.3648 21.115 12.0294 21.6105 11.4473 21.8507C7.81927 21.8507 4.19031 21.849 0.562261 21.8516C0.43432 21.8516 0.254289 21.7759 0.208596 21.9907C0.0861376 21.5753 -0.0052489 21.1546 0.000234291 20.7199C0.178438 20.5782 0.393196 20.6196 0.595161 20.6196C3.76445 20.6169 6.93282 20.6178 10.1021 20.6178C10.284 20.6178 10.4667 20.624 10.6477 20.5985C11.0863 20.5351 11.3632 20.2632 11.3687 19.8918C11.3742 19.5213 11.101 19.2388 10.6669 19.1693C10.5353 19.1482 10.4 19.1517 10.2721 19.1095C10.1798 18.8974 10.0281 18.7504 9.79961 18.6695C9.40208 18.5287 9.09868 18.2743 8.88301 17.9241C8.97987 17.8132 9.11695 17.8088 9.24855 17.8079C10.5764 17.8009 11.9052 17.7991 13.233 17.8079C13.318 17.8079 13.4021 17.8194 13.4816 17.8475C13.626 17.9083 13.6305 18.0306 13.594 18.1441C13.3235 18.9898 13.1517 19.8672 12.7532 20.6741Z" fill="#B3D6EB"/>
<path d="M36.9998 18.1033C35.7887 18.4817 34.5842 18.8933 33.2853 18.8453C33.1013 18.4909 33.149 18.1283 33.2451 17.7628C33.3889 17.6152 33.5692 17.6456 33.7466 17.6632C33.7699 17.6659 33.7942 17.6715 33.8185 17.6761C34.4179 17.7868 34.46 17.7416 34.2938 17.1732C34.0342 16.2845 33.7867 15.3931 33.5187 14.5063C33.4907 14.4131 33.4618 14.3199 33.4721 14.2202C33.6504 13.7911 33.7447 13.3362 33.8857 12.8951C33.9296 12.7576 33.9455 12.6044 34.0874 12.5186C34.1481 12.3229 34.2088 12.1282 34.2891 11.868C34.4142 12.2426 34.5197 12.5619 34.6262 12.8812C34.8409 13.2171 34.9063 13.5964 34.9698 13.9526C35.0436 13.6859 35.0296 13.3463 35.2807 13.1064C35.3414 12.9107 35.4012 12.7151 35.4824 12.454C35.6001 12.8092 35.6991 13.1082 35.798 13.4072C36.0109 13.6813 36.0679 13.9932 36.0791 14.2765C36.1547 14.1335 36.0287 13.8188 36.3359 13.7127C36.6608 14.7517 36.8233 15.8213 36.9297 16.9C36.969 17.2996 36.9774 17.7019 36.9998 18.1024V18.1033Z" fill="#5AA07F"/>
<path d="M10.3073 19.2709C10.7661 19.0338 11.3858 19.4205 11.4785 19.7807C11.6193 20.3333 11.3885 20.7646 10.8388 20.8995C10.7352 20.9251 10.6262 20.9433 10.5199 20.9433C7.04446 20.9433 3.56993 20.9415 0.0944955 20.9406C-0.0290755 20.636 0.0363444 20.3123 0 19.9986C3.33369 19.9986 6.66738 19.9995 10.0011 19.9959C10.1256 19.9959 10.2691 20.0551 10.3727 19.9266C10.4027 19.7032 10.3818 19.4843 10.3073 19.2709Z" fill="#80B9E1"/>
<path d="M36.3022 13.5732C36.2494 13.7974 36.1959 14.0216 36.1273 14.3112C36.0624 13.9198 36.0078 13.5919 35.9531 13.264C36.0685 13.3378 36.1838 13.4116 36.2991 13.4864C36.3004 13.5153 36.301 13.5443 36.3022 13.5732Z" fill="#80B9DF"/>
<path d="M14.4582 6.26365C12.5749 6.26365 10.6916 6.26365 8.80825 6.26447C8.60646 5.96232 8.81873 5.73103 9.0109 5.55348C9.25462 5.32708 9.56122 5.14791 9.94557 5.26192C10.0679 5.29857 10.1386 5.24319 10.2207 5.17641C11.1598 4.41331 11.7433 4.3506 12.7828 4.89951C13.0667 5.09416 13.3872 5.15035 13.7358 5.17723C14.1044 5.20573 14.3516 5.45168 14.5385 5.73998C14.6084 5.85237 14.6669 5.97046 14.66 6.10158C14.6538 6.20909 14.639 6.33206 14.459 6.26284L14.4582 6.26365Z" fill="white"/>
<path d="M28.271 6.89452C28.2645 7.01073 28.3078 7.13951 28.2011 7.2285C28.0603 7.34995 27.8957 7.30807 27.7402 7.30807C26.2499 7.31121 24.7597 7.31331 23.2685 7.30493C23.0864 7.30493 22.8491 7.418 22.7341 7.16673C22.6209 6.9186 22.746 6.68303 22.8537 6.46212C22.8776 6.41396 22.9107 6.37209 22.9429 6.33125C23.0984 6.14594 23.2906 5.99413 23.5077 5.98471C23.8582 5.97005 24.1627 5.83918 24.4571 5.64654C25.2344 5.01732 26.2049 5.11573 26.789 5.91142C26.8746 6.02868 26.984 6.07475 27.1137 6.0559C27.7034 5.97215 28.0474 6.32497 28.2701 6.89452H28.271Z" fill="#FCFEFF"/>
<path d="M19.2331 3.4886C18.2824 3.4886 17.3318 3.47815 16.3811 3.4905C16.0754 3.49431 16.0037 3.39928 16.089 3.09046C16.4401 1.8276 17.6384 1.36198 18.6816 2.09176C18.8085 2.18013 18.9238 2.28941 19.1015 2.27706C19.6213 2.24095 19.9978 2.48421 20.2418 2.96123C20.2645 3.16172 20.132 3.24915 19.9869 3.2539C19.7102 3.26245 19.4816 3.40498 19.2322 3.48955L19.2331 3.4886Z" fill="white"/>
<path d="M14.7078 5.88611C14.3953 5.42188 14.0088 5.15417 13.4409 5.2785C13.1424 5.34367 13.1106 4.96668 12.915 4.84937C13.395 4.6729 13.8947 4.60472 14.3653 4.33902C15.1082 3.9189 15.9831 4.42123 16.2787 5.32362C16.5061 5.74674 16.4369 5.91117 15.998 5.91719C15.5686 5.9222 15.1363 5.96632 14.7078 5.88711V5.88611Z" fill="#DCEDF9"/>
<path d="M19.2467 3.41166C19.4013 3.21468 19.5967 3.09918 19.8616 3.12425C20.0478 3.14126 20.1941 3.08665 20.2775 2.91474C21.0832 2.6533 21.6176 2.80999 21.9001 3.39196C22.0705 3.74293 22.0131 3.83694 21.6195 3.83873C20.9193 3.84052 20.2201 3.83873 19.5199 3.83873C19.2223 3.83873 19.1312 3.69667 19.2467 3.41255V3.41166Z" fill="#DDEDFA"/>
<path d="M24.4341 5.68408C24.2383 5.93459 23.9735 6.03292 23.6242 5.9939C23.4141 5.97048 23.2552 6.1133 23.0711 6.17651C22.677 6.34039 22.2613 6.27562 21.8564 6.2405C21.6184 6.21943 21.613 6.05165 21.675 5.88542C21.7271 5.74651 21.8617 5.68096 21.9973 5.61618C22.1895 5.48352 22.4516 5.63101 22.6429 5.49288C23.4159 5.12531 23.5587 5.13702 24.2742 5.62633C24.3182 5.65598 24.3802 5.66457 24.4341 5.6833V5.68408Z" fill="#DDEDFA"/>
<path d="M14.6602 5.81658C15.0338 5.6365 15.4232 5.75862 15.8047 5.73792C16.2307 5.71412 16.2307 5.73171 16.1268 5.23596C16.1495 5.23596 16.1722 5.237 16.1949 5.23803C16.2638 5.41191 16.4786 5.51954 16.38 5.76897C16.2717 6.04117 16.0552 5.977 15.8649 5.98114C15.7034 5.98424 15.5419 5.99149 15.3812 5.97907C15.1482 5.96251 14.9596 5.98528 15.0076 6.3589C15.0224 6.47172 14.9884 6.58039 14.8828 6.62075C14.7736 6.66215 14.7099 6.58556 14.6628 6.48103C14.9666 6.25851 14.6759 6.0391 14.6602 5.81761V5.81658Z" fill="#C4E2F5"/>
<path d="M13.6781 17.7959C12.1306 17.7976 10.5822 17.8002 9.03465 17.8019C8.941 17.7389 8.84735 17.6751 8.75461 17.6121C8.41637 17.1988 8.27089 16.6915 7.99812 16.204C7.80172 16.4404 7.69352 16.701 7.5535 16.9434C7.49713 17.0401 7.46167 17.179 7.31528 17.1721C7.19708 17.166 7.14344 17.053 7.09615 16.9607C6.95886 16.6915 6.77883 16.4465 6.64154 16.1773C6.55698 16.0107 6.51061 15.839 6.21601 15.8537C5.98416 15.8649 5.95506 15.5569 5.82959 15.4137C5.78594 15.4068 5.76321 15.4128 5.74866 15.4335C5.45225 15.8701 5.40588 15.8701 5.05582 15.4879C4.88125 15.2972 4.70577 15.1083 4.53756 14.9133C4.40026 14.7536 4.26752 14.7528 4.11658 14.9046C3.9511 15.0712 3.78016 15.2342 3.60104 15.3887C3.44556 15.5224 3.30372 15.5146 3.16643 15.3585C2.98822 15.1557 2.81455 14.9495 2.65271 14.7347C2.51269 14.5483 2.37812 14.525 2.23173 14.7269C2.13626 14.8598 2.0217 14.9788 1.91168 15.1014C1.7171 15.3188 1.61527 15.3145 1.42887 15.085C1.31067 14.94 1.2052 14.7856 1.10519 14.6285C0.963345 14.4059 0.876967 14.4594 0.768768 14.6596C0.662387 14.8555 0.616016 15.1031 0.349609 15.1876C0.502361 14.1626 0.826959 13.1825 1.20611 12.217C2.49177 12.7321 3.80744 13.1721 5.10492 13.6579C6.18237 14.0608 7.22345 13.8788 8.27998 13.6424C10.1703 13.2196 12.0624 12.8011 13.9509 12.3706C14.5328 12.2377 15.0929 12.3318 15.653 12.462C16.3522 12.6251 17.0478 12.802 17.7442 12.9737C17.8561 13.104 17.7788 13.2386 17.7424 13.3654C17.5797 13.9288 17.3878 14.4836 17.2269 15.047C17.2051 15.1246 17.1778 15.2006 17.1323 15.2696C17.0269 15.4275 16.9223 15.418 16.8568 15.248C16.7577 14.9909 16.6686 14.7295 16.6268 14.4603C16.5595 14.7467 16.464 15.0332 16.3758 15.3214C16.3431 15.4284 16.3249 15.5862 16.1867 15.5845C16.0058 15.5828 16.0067 15.4137 15.9912 15.2584C15.9103 15.6475 15.7867 16.0013 15.6766 16.3585C15.6403 16.4758 15.6048 16.6069 15.4475 16.6414C15.1638 16.361 15.1275 15.9943 15.0493 15.6587C14.9865 15.9892 14.8438 16.3205 14.7228 16.6578C14.7001 16.707 14.6701 16.7502 14.6183 16.7769C14.3228 16.5888 14.3482 16.2894 14.311 16.0556C14.2064 16.5603 13.9982 17.0875 13.8382 17.6285C13.8154 17.707 13.7718 17.776 13.6772 17.7967L13.6781 17.7959Z" fill="#80B9E1"/>
<path d="M0.244923 15.2923C0.432973 14.9796 0.621022 14.6678 0.836591 14.3113C1.0439 14.616 1.23104 14.876 1.39982 15.1467C1.51816 15.337 1.6108 15.3861 1.75574 15.169C1.86765 15.0002 2.01718 14.8563 2.13092 14.6884C2.30338 14.4337 2.43639 14.499 2.58958 14.7062C2.76754 14.9466 2.97393 15.1672 3.14547 15.4111C3.26105 15.5746 3.34453 15.5827 3.47846 15.4379C3.65733 15.2441 3.86006 15.0698 4.03619 14.8733C4.18846 14.7035 4.30312 14.6687 4.46365 14.8697C4.68014 15.1413 4.93699 15.3825 5.14614 15.6577C5.34061 15.9141 5.4516 15.8596 5.56443 15.6068C5.60663 15.5112 5.66809 15.4236 5.74514 15.2896C5.83871 15.4495 5.89742 15.5898 5.9919 15.6997C6.0662 15.7864 6.0451 16.1643 6.32305 15.8284C6.39919 15.7363 6.45606 15.8891 6.48908 15.9481C6.68447 16.2894 6.86794 16.6378 7.06424 16.9791C7.12754 17.0899 7.15781 17.2248 7.29907 17.3096C7.51006 16.9344 7.71737 16.5636 7.96504 16.1223C8.23565 16.7182 8.48058 17.2605 8.72642 17.8019C8.35399 17.6214 7.95679 17.6 7.55225 17.6232C6.82482 17.6652 6.12399 17.5741 5.45894 17.2632C4.94983 17.0255 4.4288 17.0916 3.94262 17.3105C3.3748 17.566 2.83909 17.5866 2.32448 17.2239C1.69703 16.7816 1.03565 16.9165 0.366926 17.0836C0.244006 17.114 0.115582 17.2015 0 17.0648C0.0825583 16.4743 0.165117 15.8837 0.246758 15.2923H0.244923Z" fill="#5AA07F"/>
<path d="M26.6054 19.3854C26.0184 19.6269 25.424 19.5793 24.8518 19.3661C24.0648 19.0733 23.2973 18.7284 22.4585 18.5984C22.2881 18.2928 22.3242 17.9808 22.4233 17.6651C22.5668 17.5214 22.7455 17.5507 22.9205 17.569C23.5899 17.6999 23.6232 17.6669 23.438 17.0346C23.2603 16.4271 23.0871 15.8177 22.9094 15.2092C22.8649 15.0582 22.8168 14.9054 22.8427 14.7425C22.9807 14.3472 22.9862 13.9052 23.2649 13.5584C23.3223 13.391 23.3788 13.2226 23.4519 13.0094C23.5047 13.1449 23.5426 13.2446 23.5815 13.3443C23.7084 13.456 23.75 13.6097 23.7908 13.7716C23.8806 13.628 23.85 13.3553 24.0343 13.3571C24.2481 13.359 24.2361 13.6262 24.2917 13.789C24.3546 13.972 24.4083 14.1605 24.4361 14.3051C24.5833 13.8641 24.6389 13.3507 24.9074 12.9042C24.9861 12.68 25.0648 12.4567 25.1481 12.217C25.299 12.3451 25.2416 12.5519 25.3499 12.6864C25.6601 13.1641 25.7184 13.7186 25.8453 14.253C25.8453 14.3033 25.9212 14.2475 25.874 14.263C25.8554 14.2694 25.8471 14.263 25.8434 14.2465C25.7786 13.9574 25.9184 13.7021 26.0008 13.4441C26.1137 13.0918 26.1193 12.6965 26.3887 12.4L26.3804 12.4073C26.5489 12.3726 26.5508 12.5199 26.5757 12.6059C26.6813 12.9673 26.81 13.3233 26.8776 13.6957C26.8776 13.7332 26.872 13.7698 26.8618 13.8055C26.7285 14.123 26.6359 14.4552 26.5119 14.7754C26.3378 15.3711 26.1341 15.9567 25.9286 16.5424C25.8406 16.7931 25.8851 16.9056 26.1739 16.9001C26.3498 16.8965 26.5526 16.8562 26.6674 17.0603C26.7609 17.7566 26.7091 18.4557 26.6989 19.1529C26.698 19.2389 26.648 19.3131 26.6045 19.3854H26.6054Z" fill="#5AA07E"/>
<path d="M23.385 8.53494C22.1742 8.93559 20.928 9.23712 19.7008 9.59069C19.2179 9.72947 18.7278 9.84761 18.2477 9.993C17.4378 10.2392 16.6525 10.093 15.8653 9.90048C14.353 9.53038 12.8389 9.16607 11.3266 8.79763C11.271 8.78442 11.2209 8.75385 11.1689 8.73155C11.2263 8.48537 11.4678 8.50189 11.6554 8.47298C12.5401 8.3375 13.431 8.2425 14.3239 8.17723C15.7842 8.07067 17.2483 8.00128 18.7141 8.03845C20.1299 8.07397 21.5438 8.15245 22.9495 8.31602C23.1172 8.33585 23.3231 8.32676 23.3859 8.53328L23.385 8.53494Z" fill="#DBECF6"/>
<path d="M15.3432 16.735C15.5673 16.3753 15.5921 15.943 15.7214 15.5485C15.7675 15.4082 15.8083 15.266 15.8525 15.121C16.0014 15.2274 15.9296 15.4327 16.0811 15.5871C16.2184 15.0984 16.3477 14.6361 16.5001 14.0918C16.6268 14.5504 16.7322 14.9327 16.8376 15.315C16.8597 15.3197 16.8819 15.3253 16.904 15.33C17.1335 14.4675 17.3629 13.6059 17.5923 12.7434C17.6464 12.5861 17.7004 12.4289 17.7739 12.217C17.8466 12.4515 17.9042 12.6379 17.9617 12.8234C18.231 13.2302 18.2319 13.7368 18.4126 14.1765C18.425 14.4195 18.3311 14.6436 18.309 14.8809C18.1132 15.8696 17.9006 16.8545 17.6995 17.8423C17.6437 18.1163 17.7252 18.2086 17.975 18.2048C18.1336 18.203 18.3099 18.1738 18.4277 18.3433C18.4959 18.8301 18.5685 19.316 18.3799 19.7924C17.2938 19.9629 16.2078 19.8922 15.1217 19.8018C14.9561 19.4958 15.003 19.1794 15.0792 18.8612C15.127 18.7802 15.2041 18.7557 15.2856 18.7406C15.6801 18.7274 15.8139 18.5178 15.6869 18.1116C15.5841 17.783 15.4769 17.4562 15.3795 17.1267C15.3423 17.0005 15.2776 16.8724 15.345 16.734L15.3432 16.735Z" fill="#5AA07F"/>
<path d="M34.2073 12.5663C34.0815 12.988 33.9592 13.4105 33.827 13.8304C33.7956 13.9287 33.8064 14.0597 33.6607 14.1009C33.3982 13.7666 33.3892 13.3559 33.257 13.009C33.1671 13.1954 33.1905 13.4566 33.0098 13.6473C32.6987 13.5121 32.7724 13.2307 32.6969 13.0291C32.6115 13.35 32.5027 13.7069 32.384 14.0605C32.3499 14.1622 32.3175 14.3033 32.1728 14.2949C32.0505 14.2882 32.0316 14.1555 32.0028 14.0622C31.8455 13.5499 31.681 13.0392 31.5389 12.5285C31.3915 13.0417 31.235 13.5549 31.0678 14.0656C31.0372 14.1597 31.0085 14.2932 30.8934 14.2974C30.7549 14.3016 30.7154 14.1622 30.6821 14.058C30.5976 13.7918 30.4969 13.5297 30.4546 13.2567C30.4151 13.4398 30.3782 13.6313 30.2865 13.8044C30.1948 13.9774 30.0716 13.9808 29.9808 13.8052C29.8873 13.6246 29.8424 13.4281 29.8154 13.2618C29.7264 13.6708 29.5799 14.0983 29.4369 14.5267C29.4153 14.5905 29.3731 14.6476 29.2913 14.6602C29.1159 14.6006 29.0971 14.4461 29.0548 14.31C28.9145 13.8615 28.7824 13.4113 28.6251 12.9141C28.6251 12.9225 28.5666 12.9703 28.6125 12.9552C28.6277 12.9502 28.6367 12.9594 28.634 12.9813C28.599 13.3382 28.4848 13.675 28.3311 14.0018C28.3059 14.0311 28.2735 14.0479 28.234 14.053C28.1449 14.0211 28.1171 13.9463 28.0928 13.8724C27.9202 13.3424 27.7601 12.8082 27.6019 12.274C27.5767 12.1901 27.548 12.1002 27.6334 12.0263C28.536 11.7231 29.4315 11.4031 30.3701 11.199C30.8646 11.0914 31.2539 11.3023 31.6549 11.4711C32.4128 11.7911 33.1554 12.143 33.9044 12.4823C34.0006 12.526 34.0959 12.5739 34.2082 12.5655L34.2073 12.5663Z" fill="#80B9E1"/>
<path d="M22.2125 18.548C21.1908 18.6047 20.3132 19.0863 19.3694 19.3744C19.1259 19.4482 18.8844 19.5229 18.6282 19.5472C18.4276 19.1142 18.5036 18.6722 18.5805 18.2302C18.6146 18.1699 18.675 18.1411 18.7412 18.1213C19.423 18.0601 19.4181 18.061 19.2857 17.4246C19.1415 16.7323 18.9253 16.0536 18.8191 15.3541C19.0568 14.7078 19.2438 14.0417 19.6392 13.453C19.7006 13.3287 19.7619 13.2045 19.8408 13.0452C19.9178 13.2522 19.9821 13.4224 20.0454 13.5934C20.3843 14.0624 20.4116 14.6295 20.6122 15.1417C20.6288 15.1849 20.6191 15.2344 20.6405 15.2641C20.8538 14.7951 20.8518 14.2505 21.1888 13.8121C21.3554 13.299 21.522 12.785 21.707 12.217C21.8628 12.6635 22.0002 13.0569 22.1375 13.4512C22.2632 13.6024 22.1628 13.7509 22.1317 13.9004C21.8395 14.9806 21.4801 16.0428 21.1577 17.1149C21.0408 17.5047 21.0574 17.5092 21.4937 17.529C21.7547 17.5407 22.043 17.4417 22.2671 17.6577C22.344 17.9602 22.4015 18.2608 22.2135 18.5498L22.2125 18.548Z" fill="#5AA07F"/>
<path d="M23.4427 8.48408C23.1355 8.24883 22.7644 8.29508 22.4308 8.26391C21.6145 8.18751 20.7974 8.11211 19.9784 8.06385C19.046 8.00856 18.1155 7.98342 17.1859 8.01057C15.6814 8.0548 14.1768 8.14026 12.6841 8.38757C12.2929 8.45191 11.8971 8.49614 11.5041 8.56149C11.3798 8.5826 11.2674 8.61377 11.1851 8.72435C11.0571 8.7324 10.9328 8.72033 10.8213 8.64292C10.8469 8.41672 10.9849 8.35138 11.1695 8.31016C12.0434 8.11311 12.9264 8.00554 13.8139 7.91104C15.0159 7.78236 16.217 7.67478 17.4254 7.68082C17.8943 7.68283 18.3632 7.67579 18.8312 7.68182C20.1465 7.69992 21.4564 7.79744 22.7608 7.99147C22.9984 8.02665 23.2425 8.00856 23.4783 8.08496C23.63 8.13422 23.7543 8.19454 23.7342 8.40365C23.6584 8.52128 23.5441 8.47302 23.4436 8.48408H23.4427Z" fill="#C4E2F5"/>
<path d="M27.4898 11.7986C27.7142 12.5628 27.9098 13.3347 28.2038 14.0787C28.3114 14.1755 28.2704 14.2932 28.2397 14.3986C28.0686 14.9961 27.8863 15.5899 27.6978 16.1826C27.667 16.2784 27.625 16.3751 27.5032 16.4058C27.3321 16.3608 27.2932 16.2181 27.246 16.0878C27.0207 15.4635 26.8005 14.8381 26.5761 14.2138C26.528 14.0787 26.5034 13.9437 26.5649 13.8058L26.5792 13.7857C26.7052 13.1556 26.8466 12.5293 27.1549 11.949C27.2204 11.813 27.286 11.676 27.3608 11.519C27.4069 11.6195 27.4478 11.7086 27.4898 11.7977V11.7986Z" fill="#5BA07F"/>
<path d="M22.0258 13.9911C22.0512 13.846 22.0776 13.7 22.103 13.5549C22.2364 13.3702 22.1974 13.1178 22.3644 12.915C22.4743 13.2377 22.5778 13.5423 22.6813 13.8478C22.9 14.1543 22.9699 14.5004 22.9654 14.8681C23.1978 15.7045 23.4284 16.5409 23.6644 17.3764C23.787 17.8081 23.7915 17.8081 23.3467 17.7982C23.2414 17.7964 23.127 17.8279 23.0407 17.7333C22.9227 17.6368 22.8846 17.4998 22.8438 17.3619C22.5769 16.4489 22.3163 15.5332 22.0558 14.6184C21.9977 14.4147 21.9586 14.2038 22.0249 13.9911H22.0258Z" fill="#8DBF69"/>
<path d="M19.5459 13.4342C19.3798 14.0871 19.2042 14.7354 18.9742 15.3584C18.8529 15.2405 18.8551 15.0572 18.8272 14.8925C18.7522 14.4501 18.656 14.0132 18.6141 13.5745C18.617 13.8074 18.6413 14.0572 18.487 14.2546C18.2819 13.8458 18.2547 13.365 18.1504 12.915C18.6156 13.0881 19.0807 13.2611 19.5466 13.4332L19.5459 13.4342Z" fill="#80B9E1"/>
<path d="M21.2923 13.8146C21.1396 14.3287 20.9879 14.8428 20.8352 15.3569L20.7602 15.3586C20.5888 14.7771 20.4165 14.1948 20.2451 13.6133C20.5942 13.6807 20.9432 13.7472 21.2923 13.8146Z" fill="#7FB9E1"/>
<path d="M26.179 12.5665C26.0009 13.1456 25.8219 13.7246 25.6438 14.3037C25.6214 14.3062 25.5999 14.3088 25.5776 14.3113C25.4293 13.8172 25.281 13.324 25.1318 12.8299C25.5058 12.8224 25.7986 12.553 26.179 12.5665Z" fill="#7FB9E1"/>
<path d="M24.7835 12.915C24.668 13.4655 24.5533 14.016 24.4181 14.6603C24.3027 14.1692 24.212 13.7849 24.1171 13.381C23.9943 13.5918 24.0133 13.8415 23.8978 14.1014C23.8364 13.8192 23.786 13.5899 23.7363 13.3615C24.1112 13.3105 24.432 13.057 24.7835 12.9159V12.915Z" fill="#80B9E0"/>
<path d="M27.2259 12.217C27.0928 12.8139 26.9447 13.4063 26.6595 13.9623C26.4821 13.5128 26.4206 13.0296 26.1787 12.5983C26.477 12.359 26.8711 12.3317 27.2259 12.217Z" fill="#7FB9E1"/>
<path d="M22.999 14.6605C22.8645 14.3621 22.7488 14.0605 22.6895 13.7451C22.9218 13.7015 23.1552 13.657 23.3876 13.6133C23.2748 13.9667 23.1908 14.3273 22.998 14.6605H22.999Z" fill="#80B9E0"/>
<path d="M35.2528 13.0964C35.1552 13.3576 35.0586 13.6188 34.9311 13.9622C34.7758 13.5599 34.6174 13.2479 34.5557 12.915C34.8076 12.9337 34.9879 13.1076 35.2538 13.0964H35.2528Z" fill="#7FB8DE"/>
<path d="M29.1689 14.8381C29.4241 14.2992 29.4936 13.7015 29.7223 13.0938C29.8266 13.4288 29.9163 13.7189 30.0233 14.0651C30.2255 13.752 30.2108 13.4187 30.3819 13.1176C30.5173 13.5739 30.6445 14.0045 30.8018 14.5342C31.0369 13.7245 31.2409 13.0176 31.4733 12.217C31.702 13.0111 31.9051 13.7153 32.1375 14.5177C32.3158 13.9172 32.4659 13.4096 32.626 12.8688C32.8071 13.1525 32.7751 13.4821 32.9562 13.7281C33.0285 13.842 32.9699 13.9521 32.9498 14.0641C32.6781 15.1245 32.3579 16.172 32.0634 17.2259C31.9417 17.662 31.9408 17.6519 32.4064 17.6666C32.6388 17.6739 32.8968 17.5858 33.0916 17.8006C33.1584 18.1541 33.2261 18.5084 33.0404 18.849C32.3296 18.8536 31.6682 18.5956 30.9875 18.4478C30.2374 18.2853 29.49 18.1733 28.7325 18.3955C28.5788 18.1899 28.6044 17.976 28.7023 17.7584C28.8505 17.6344 29.0225 17.6611 29.1936 17.6822C29.8495 17.8098 29.8815 17.774 29.7031 17.1414C29.5247 16.5107 29.3399 15.8819 29.1679 15.2493C29.1314 15.1135 29.0527 14.973 29.1698 14.8362L29.1689 14.8381Z" fill="#5AA07F"/>
<path d="M13.7129 17.9269C13.9152 17.3137 14.1183 16.7005 14.3306 16.0566C14.4916 16.3394 14.4752 16.6486 14.6591 16.887C14.7488 17.0003 14.6673 17.1034 14.6307 17.2038C14.5054 17.5556 14.3873 17.9107 14.2492 18.2582C14.1586 18.4856 14.1961 18.5972 14.4852 18.587C14.6472 18.581 14.8302 18.5538 14.9464 18.7147C15.0077 19.0179 15.069 19.3203 14.8979 19.6124C14.1448 19.7793 13.4686 20.0791 12.915 20.5944C13.1722 19.7495 13.4302 18.9038 13.6873 18.0589C13.7001 18.0163 13.7047 17.9712 13.7129 17.9269Z" fill="#5BA07F"/>
<path d="M28.5161 18.3021C28.009 18.6007 27.5019 18.8994 26.9939 19.1981C26.9497 19.1531 26.9145 19.0976 26.9127 19.0334C26.8893 18.3155 26.8297 17.5975 26.9488 16.8824C26.9849 16.8126 27.0463 16.7829 27.1148 16.7647C27.2258 16.7446 27.3323 16.7513 27.4306 16.8164C27.4631 16.8537 27.4884 16.8968 27.4947 16.9485C27.5488 17.4252 27.5479 17.4204 28.0153 17.431C28.2003 17.4348 28.4024 17.384 28.5549 17.5583C28.6397 17.8119 28.6623 18.0618 28.5161 18.3021Z" fill="#5BA07E"/>
<path d="M26.8774 16.8326C26.8774 17.5731 26.8774 18.3136 26.8774 19.0541C26.7765 19.1338 26.6599 19.1745 26.5362 19.1981C26.5336 18.4087 26.531 17.6202 26.5283 16.8308C26.645 16.7294 26.7616 16.7285 26.8774 16.8326Z" fill="#60484A"/>
<path d="M18.8437 18.2254C18.8455 18.6442 18.8473 19.0621 18.8491 19.4808C18.7324 19.5027 18.6167 19.5254 18.5 19.5472C18.5 19.1058 18.5 18.6643 18.5009 18.2229C18.6158 18.127 18.7297 18.1262 18.8437 18.2254Z" fill="#60494A"/>
<path d="M33.1602 18.8401C33.1654 18.411 33.1707 17.9818 33.176 17.5538C33.2809 17.4184 33.3867 17.4195 33.4925 17.5538C33.4978 17.9851 33.503 18.4176 33.5092 18.8489C33.3929 18.8467 33.2765 18.8434 33.1602 18.8412V18.8401Z" fill="#604A4A"/>
<path d="M14.6645 19.5413C14.6628 19.2197 14.661 18.898 14.6602 18.5755C14.7759 18.4747 14.8926 18.4756 15.0092 18.5737C15.0075 18.8752 15.0057 19.1758 15.004 19.4773C14.8978 19.5369 14.7856 19.5588 14.6654 19.5413H14.6645Z" fill="#604A4A"/>
<path d="M21.9911 18.4942C21.9964 18.1761 22.0018 17.8579 22.0071 17.5388C22.1134 17.424 22.2197 17.424 22.3251 17.5388C22.3295 17.8589 22.3349 18.1798 22.3393 18.4999C22.2232 18.498 22.1072 18.4952 21.9902 18.4933L21.9911 18.4942Z" fill="#604A4A"/>
<path d="M28.2734 18.4999C28.2779 18.1872 28.2814 17.8745 28.2858 17.5619C28.3919 17.4163 28.4988 17.4163 28.6048 17.5619C28.611 17.8316 28.6163 18.1001 28.6225 18.3686C28.5058 18.4128 28.3901 18.4557 28.2734 18.4999Z" fill="#614D4C"/>
<path d="M21.7334 24.8848C21.8168 25.0625 22.0708 25.2313 21.9651 25.4045C21.8808 25.5436 21.6008 25.4511 21.4089 25.4511C19.5288 25.4556 17.6497 25.4538 15.7696 25.4538H15.3589C15.3478 25.2196 15.5211 25.0724 15.5786 24.8839C16.1655 24.1704 16.8932 23.7126 17.8703 23.7369C18.4636 23.7512 18.9939 23.9586 19.4639 24.3068C19.5613 24.3786 19.6354 24.4764 19.7838 24.4244C20.5384 24.1569 21.1716 24.3795 21.7334 24.8839V24.8848Z" fill="#DCD7C4"/>
<path d="M31.3466 24.9019C31.5157 25.2881 31.3717 25.4812 30.9147 25.4812C29.4586 25.4812 28.0025 25.4812 26.5283 25.4812C26.5331 25.2472 26.6895 25.0923 26.7696 24.9092C27.9987 23.3216 30.1451 23.3708 31.3466 24.9019Z" fill="#DCD7C4"/>
<path d="M22.207 5.58598C22.1051 5.78332 21.8403 5.94694 21.9485 6.18791C22.0594 6.43383 22.3331 6.27319 22.5326 6.29203C22.7785 6.31583 23.0281 6.29798 23.2767 6.29798C23.1309 6.53597 22.9181 6.81065 23.0343 7.07244C23.1354 7.30052 23.4449 7.1607 23.6586 7.16169C25.197 7.1726 26.7353 7.16863 28.2737 7.16962C28.2477 7.36597 28.1091 7.32531 27.9964 7.32531C26.3677 7.32729 24.739 7.32333 23.1112 7.33027C22.8662 7.33126 22.7481 7.2321 22.7794 6.9594C22.8116 6.67083 22.6891 6.58158 22.4503 6.61232C22.368 6.62323 22.2839 6.62026 22.2008 6.61232C21.953 6.5915 21.6695 6.60935 21.6435 6.22162C21.6185 5.84579 21.8367 5.61375 22.2079 5.58499L22.207 5.58598Z" fill="#C4E2F5"/>
<path d="M33.2729 17.8019C33.1646 17.8019 33.0571 17.8019 32.9488 17.8019C32.649 17.7982 32.3474 17.7728 32.0494 17.7954C31.7712 17.817 31.7207 17.7146 31.7938 17.46C32.0114 16.6971 32.22 15.9314 32.4349 15.1677C32.5487 14.7646 32.6679 14.3644 32.7844 13.9623C33.002 14.2169 33.0183 14.5551 33.1077 14.8576C33.3524 15.6891 33.5745 16.528 33.8003 17.366C33.8382 17.5051 33.9113 17.6497 33.7949 17.7888C33.6215 17.7925 33.4472 17.7963 33.2738 17.8001L33.2729 17.8019Z" fill="#6DAA64"/>
<path d="M33.8483 17.7269C33.5657 16.7514 33.2812 15.776 33.0005 14.7997C32.9319 14.5616 32.8736 14.3209 32.8105 14.082C32.8328 13.9853 32.855 13.8887 32.8773 13.7929C32.9375 13.5074 33.0088 13.2264 33.1561 12.915C33.3276 13.3938 33.4647 13.8368 33.5638 14.2914C33.8807 15.342 34.1892 16.3944 34.5191 17.4405C34.6108 17.7314 34.5367 17.8343 34.2309 17.7931C34.1021 17.7761 33.9594 17.8361 33.8473 17.7269H33.8483Z" fill="#8DBF69"/>
<path d="M15.4377 16.8345C15.6274 17.3934 15.8035 17.9577 16.0121 18.5094C16.1232 18.8051 16.0211 18.87 15.752 18.8439C15.6464 18.8331 15.5389 18.8403 15.4323 18.8385C15.2833 18.7709 15.2508 18.6257 15.2065 18.4914C15.025 17.937 14.8272 17.3889 14.6602 16.83C14.7758 16.4586 14.8914 16.0881 15.0079 15.7167C15.0304 15.714 15.0539 15.7103 15.0765 15.7076C15.1975 16.0836 15.3185 16.4586 15.4395 16.8345H15.4377Z" fill="#8DBE69"/>
<path d="M14.5863 16.7547C14.7906 16.9202 14.8015 17.1801 14.881 17.4039C15.0464 17.8719 15.2009 18.3446 15.3591 18.8153C15.2877 18.8162 15.2163 18.8181 15.144 18.819C15.0238 18.819 14.9036 18.8199 14.7843 18.8209C14.5086 18.783 14.1227 18.9568 13.9862 18.7293C13.8922 18.573 14.1073 18.216 14.1932 17.9515C14.3089 17.5926 14.4327 17.2375 14.5538 16.8805C14.5646 16.8388 14.5764 16.7972 14.5872 16.7547H14.5863Z" fill="#6DAA64"/>
<path d="M22.5048 17.8019C22.3938 17.8019 22.2827 17.8019 22.1726 17.8019C21.8423 17.7982 21.5111 17.7853 21.1808 17.7936C20.9679 17.7992 20.9023 17.7521 20.9698 17.5244C21.2779 16.4879 21.5638 15.4441 21.8747 14.4077C21.9191 14.2601 21.8803 14.0859 22.0042 13.9623C22.1069 14.712 22.3938 15.4137 22.5816 16.1412C22.725 16.6936 22.886 17.2413 23.0387 17.7909C22.8601 17.7946 22.6825 17.7982 22.5039 17.8019H22.5048Z" fill="#6DAA64"/>
<path d="M27.3463 17.0193C27.2331 17.0175 27.1189 17.0149 27.0057 17.0131C26.6522 16.5799 26.5671 16.0644 26.3429 15.5919C26.2308 15.3564 26.1101 15.1158 26.2255 14.8541C26.3472 14.5513 26.4097 14.2301 26.6447 13.9623C26.9658 14.7465 27.2881 15.5306 27.6092 16.3139C27.7601 16.3996 27.8086 16.5344 27.8571 16.6666C27.9002 16.7856 27.9864 16.9212 27.8506 17.0245C27.6954 17.1418 27.5133 17.1199 27.3463 17.0184V17.0193Z" fill="#8DBE69"/>
<path d="M26.3039 14.6603C26.376 15.3405 26.6287 15.9536 26.7721 16.6072C26.8077 16.7701 26.8426 16.9339 26.8782 17.0968C26.8339 17.0988 26.7895 17.1018 26.7459 17.1037C26.6406 17.1037 26.536 17.1027 26.4306 17.1018C25.9035 17.1018 25.724 16.7911 25.8919 16.1698C26.0282 15.6663 26.1668 15.1638 26.3047 14.6603H26.3039Z" fill="#6DAA64"/>
<path d="M18.2867 14.1104C18.312 13.8574 18.3646 13.6118 18.4905 13.264C18.6445 13.9751 18.7769 14.585 18.9103 15.1959C19.115 16.1011 19.3141 17.0081 19.5311 17.9106C19.5771 18.1028 19.5226 18.1543 19.3442 18.1506C19.1714 18.147 18.9976 18.1479 18.8239 18.147C18.7318 18.0568 18.6933 17.9418 18.6708 17.8213C18.5064 16.9373 18.3261 16.0569 18.1664 15.1719C18.142 15.0386 18.174 14.9061 18.1514 14.7736C18.1401 14.5418 18.2247 14.3284 18.2876 14.1113L18.2867 14.1104Z" fill="#8DBF69"/>
<path d="M18.187 15.0102C18.4364 15.7623 18.5159 16.5459 18.6969 17.3108C18.7616 17.5849 18.7995 17.864 18.8494 18.1406C18.7958 18.144 18.7422 18.1474 18.6886 18.1508C18.5713 18.1508 18.4531 18.1491 18.3358 18.1483C18.1159 18.1466 17.8961 18.1406 17.6771 18.1449C17.5044 18.1483 17.4222 18.0894 17.4638 17.9221C17.7049 16.9514 17.9469 15.9808 18.188 15.0093L18.187 15.0102Z" fill="#6DAA64"/>
<path d="M27.3124 17.0998C27.6039 17.096 27.7047 16.9486 27.615 16.6576C27.5825 16.5492 27.5599 16.438 27.5328 16.3277C27.811 15.5795 27.9863 14.8006 28.1696 14.0237C28.1687 14.0016 28.1732 13.9815 28.1859 13.9623C28.3629 13.97 28.3801 14.1282 28.4171 14.2539C28.7297 15.3061 28.997 16.3718 29.2843 17.4317C29.3168 17.5525 29.3574 17.6782 29.259 17.7904C29.0855 17.7943 28.9121 17.7981 28.7387 17.8019C28.6303 17.8019 28.521 17.8019 28.4126 17.8019C28.1037 17.7981 27.793 17.7712 27.4867 17.7962C27.2103 17.8182 27.1923 17.6811 27.2591 17.4701C27.298 17.3473 27.3205 17.2274 27.3142 17.0998H27.3124Z" fill="#6DAA64"/>
<path d="M29.3222 17.6998C29.0496 16.6602 28.7832 15.6187 28.4983 14.5828C28.4375 14.3617 28.4428 14.1084 28.2734 13.9279C28.3916 13.5054 28.5107 13.0839 28.6553 12.566C28.8723 13.3372 29.062 14.012 29.2525 14.6859C29.4668 15.5166 29.6847 16.3454 29.8919 17.1781C29.9378 17.3605 30.1124 17.6043 29.9528 17.7215C29.7923 17.8387 29.5294 17.8245 29.3213 17.6998H29.3222Z" fill="#8DBF69"/>
</svg>
