<svg width="310" height="367" viewBox="0 0 310 367" fill="none" xmlns="http://www.w3.org/2000/svg">
<g filter="url(#filter0_d_2953_13064)">
<path d="M2.00024 76C2.00024 64.9543 10.9546 56 22.0002 56H288C299.046 56 308 64.9543 308 76V363H2.00024V76Z" fill="#FEB7D3"/>
<path d="M127.125 264.125H123.375L117.469 256.156H113.063V264.125H110.156V244.906H119.063C123.375 245.031 125.656 246.875 125.906 250.438C125.906 253.688 124.125 255.531 120.563 255.969L127.125 264.125ZM113.063 247.25V253.812H118.406C121.406 253.812 122.875 252.719 122.813 250.531C122.813 248.344 121.344 247.25 118.406 247.25H113.063ZM138.563 244.906L146.25 264.125H143.063L141.094 258.969H132.563L130.594 264.125H127.406L135.094 244.906H138.563ZM136.875 247.438H136.781C136.594 248 136.406 248.562 136.219 249.125C136.156 249.25 135.188 251.75 133.313 256.625H140.344C138.469 251.75 137.5 249.25 137.438 249.125C137.438 249.062 137.406 248.938 137.344 248.75C137.031 248 136.875 247.562 136.875 247.438ZM156.75 244.906H159.656V257.562C159.719 262.188 157.688 264.469 153.563 264.406C149.688 264.469 147.531 262.469 147.094 258.406L149.906 257.656C150.031 260.656 151.219 262.125 153.469 262.062C155.719 262.125 156.813 260.594 156.75 257.469V244.906ZM172.781 244.906L180.469 264.125H177.281L175.313 258.969H166.781L164.813 264.125H161.625L169.313 244.906H172.781ZM171.094 247.438H171C170.813 248 170.625 248.562 170.438 249.125C170.375 249.25 169.406 251.75 167.531 256.625H174.563C172.688 251.75 171.719 249.25 171.656 249.125C171.656 249.062 171.625 248.938 171.563 248.75C171.25 248 171.094 247.562 171.094 247.438ZM191.25 264.125H182.531V244.906H190.781C194.844 245.031 197 246.562 197.25 249.5C197.188 251.938 195.875 253.438 193.313 254C193.313 254 193.313 254.031 193.313 254.094C196.25 254.594 197.844 256.125 198.094 258.688C198.094 262.312 195.813 264.125 191.25 264.125ZM190.594 255.406H185.438V261.969H190.781C193.531 261.969 194.906 260.812 194.906 258.5C194.781 256.5 193.344 255.469 190.594 255.406ZM190.219 247.156H185.438V253.062H190.219C192.781 253 194.094 251.969 194.156 249.969C194.094 248.094 192.781 247.156 190.219 247.156Z" fill="#242424"/>
<path d="M185.868 183.531C177.645 180.227 169.66 175.968 160.133 177.969C158.518 178.299 156.701 177.639 154.975 177.418C155.544 175.473 155.618 173.123 156.793 171.655C160.445 167.047 165.567 166.093 170.89 167.855C176.819 169.819 182.417 172.903 188.419 174.573C194.054 176.152 200.038 176.446 205.839 177.455C207.638 177.767 209.345 178.63 211.107 179.254C209.547 181.989 208.023 187.055 206.426 187.073C194.275 187.257 184.84 194.25 174.267 198.399C167.421 201.097 160.005 202.639 152.718 203.814C147.468 204.658 142.567 202.694 138.492 198.784C137.519 197.848 134.858 197.701 133.481 198.307C116.447 205.723 98.7889 206.714 80.9288 202.804C64.4639 199.225 62.2795 184.614 67.5476 172.242C68.0249 171.104 69.9889 170.608 71.2554 169.819C71.696 171.196 72.7606 172.701 72.5036 173.949C70.4294 183.971 72.7973 189.111 82.1036 191.442C97.247 195.242 112.482 194.544 127.35 189.937C131.315 188.707 134.674 185.678 138.419 183.641C139.318 183.145 140.915 182.888 141.631 183.366C142.347 183.843 142.952 185.623 142.604 186.394C140.419 191.185 144.091 192.084 146.954 192.121C153.929 192.25 161.051 192.341 167.898 191.13C174.102 190.029 179.994 187.184 186.033 185.109C185.978 184.595 185.941 184.063 185.886 183.549L185.868 183.531Z" fill="#95033D"/>
<path d="M242.384 195.482C242.273 204.128 240.163 212.112 234.234 218.72C229.516 223.97 223.771 225.273 217.181 222.777C214.905 221.914 212.427 221.272 210.463 219.913C208.848 218.812 207.857 216.83 206.59 215.233C208.426 214.664 210.224 213.783 212.097 213.599C215.254 213.287 218.797 214.297 221.568 213.195C225.79 211.525 230.03 209.084 233.298 205.963C237.299 202.163 237.703 197.079 234.729 192.086C233.481 189.994 232.435 187.736 230.985 185.79C227.699 181.348 229.865 178.007 233.169 174.465C235.335 172.134 236.969 174.281 237.593 176.117C239.74 182.376 241.594 188.764 243.558 195.097C243.154 195.225 242.769 195.372 242.365 195.5L242.384 195.482Z" fill="#95033D"/>
<path d="M243.832 153.258C240.73 163.225 231.387 162.069 225.11 166.547C224.834 160.435 231.736 155.736 243.832 153.258Z" fill="#95033D"/>
<path d="M174.633 160.014C178.176 150.928 187.335 151.662 193.851 147C193.007 153.883 184.013 159.684 174.633 160.014Z" fill="#95033D"/>
<path d="M111.546 216.256C108.737 218.569 106.535 221.689 104.828 221.451C102.68 221.157 99.6881 218.22 99.4128 216.128C99.1925 214.457 102.588 210.713 104.222 210.786C106.425 210.896 108.499 213.797 111.546 216.256Z" fill="#95033D"/>
<path d="M194.873 208.121C191.918 210.397 189.587 213.462 187.917 213.15C185.787 212.746 182.942 209.681 182.759 207.552C182.612 205.881 186.136 202.32 187.825 202.449C189.991 202.596 191.955 205.606 194.873 208.121Z" fill="#95033D"/>
<g filter="url(#filter1_d_2953_13064)">
<circle cx="64" cy="64" r="64" transform="matrix(-1 0 0 1 219 0)" fill="url(#paint0_radial_2953_13064)"/>
<g filter="url(#filter2_d_2953_13064)">
<path d="M192.922 44.7021V97.1517C192.922 100.714 190.031 103.602 186.465 103.602H122.762C119.196 103.602 116.305 100.714 116.305 97.1517V44.7021L118.363 42.6057H190.582L192.922 44.7021Z" fill="white"/>
<path d="M192.922 33.4646V44.8409H116.305V33.4646C116.305 29.8879 119.173 26.9883 122.71 26.9883H186.517C190.054 26.9883 192.922 29.8879 192.922 33.4641L192.922 33.4646Z" fill="url(#paint1_linear_2953_13064)"/>
<path d="M129.127 36.3625C130.431 36.3625 131.488 35.3055 131.488 34.0016C131.488 32.6977 130.431 31.6406 129.127 31.6406C127.823 31.6406 126.766 32.6977 126.766 34.0016C126.766 35.3055 127.823 36.3625 129.127 36.3625Z" fill="url(#paint2_radial_2953_13064)"/>
<path d="M129.13 23.8164H129.129C128.342 23.8164 127.703 24.4548 127.703 25.2422V33.1849C127.703 33.9723 128.342 34.6107 129.129 34.6107H129.13C129.917 34.6107 130.556 33.9723 130.556 33.1849V25.2422C130.556 24.4548 129.917 23.8164 129.13 23.8164Z" fill="url(#paint3_linear_2953_13064)"/>
<path d="M146.096 36.3625C147.399 36.3625 148.457 35.3055 148.457 34.0016C148.457 32.6977 147.399 31.6406 146.096 31.6406C144.792 31.6406 143.735 32.6977 143.735 34.0016C143.735 35.3055 144.792 36.3625 146.096 36.3625Z" fill="url(#paint4_radial_2953_13064)"/>
<path d="M146.098 23.8164H146.098C145.31 23.8164 144.672 24.4548 144.672 25.2422V33.1849C144.672 33.9723 145.31 34.6107 146.098 34.6107H146.098C146.886 34.6107 147.524 33.9723 147.524 33.1849V25.2422C147.524 24.4548 146.886 23.8164 146.098 23.8164Z" fill="url(#paint5_linear_2953_13064)"/>
<path d="M163.06 36.3625C164.364 36.3625 165.421 35.3055 165.421 34.0016C165.421 32.6977 164.364 31.6406 163.06 31.6406C161.756 31.6406 160.699 32.6977 160.699 34.0016C160.699 35.3055 161.756 36.3625 163.06 36.3625Z" fill="url(#paint6_radial_2953_13064)"/>
<path d="M163.063 23.8164H163.063C162.275 23.8164 161.637 24.4548 161.637 25.2422V33.1849C161.637 33.9723 162.275 34.6107 163.063 34.6107H163.063C163.851 34.6107 164.489 33.9723 164.489 33.1849V25.2422C164.489 24.4548 163.851 23.8164 163.063 23.8164Z" fill="url(#paint7_linear_2953_13064)"/>
<path d="M180.037 36.3625C181.341 36.3625 182.398 35.3055 182.398 34.0016C182.398 32.6977 181.341 31.6406 180.037 31.6406C178.733 31.6406 177.676 32.6977 177.676 34.0016C177.676 35.3055 178.733 36.3625 180.037 36.3625Z" fill="url(#paint8_radial_2953_13064)"/>
<path d="M180.04 23.8164H180.039C179.252 23.8164 178.614 24.4548 178.614 25.2422V33.1849C178.614 33.9723 179.252 34.6107 180.039 34.6107H180.04C180.827 34.6107 181.466 33.9723 181.466 33.1849V25.2422C181.466 24.4548 180.827 23.8164 180.04 23.8164Z" fill="url(#paint9_linear_2953_13064)"/>
</g>
<path d="M143.052 86.892C142.62 86.892 142.176 86.868 141.72 86.82C141.288 86.748 140.856 86.628 140.424 86.46C139.776 86.196 139.152 85.848 138.552 85.416C137.976 84.96 137.448 84.456 136.968 83.904C135.816 82.608 134.94 81.084 134.34 79.332C133.74 77.556 133.44 75.756 133.44 73.932C133.44 71.436 133.92 69.024 134.88 66.696C135.048 66.288 135.264 65.856 135.528 65.4C135.816 64.944 136.128 64.512 136.464 64.104C136.824 63.672 137.184 63.288 137.544 62.952C137.928 62.616 138.312 62.364 138.696 62.196C139.224 61.956 139.8 61.716 140.424 61.476C141.192 61.236 142.056 61.128 143.016 61.152C143.976 61.176 144.852 61.284 145.644 61.476C146.748 61.74 147.696 62.22 148.488 62.916C149.28 63.588 149.952 64.404 150.504 65.364C151.056 66.3 151.488 67.332 151.8 68.46C152.112 69.564 152.34 70.692 152.484 71.844C152.58 72.612 152.616 73.38 152.592 74.148C152.568 74.892 152.508 75.648 152.412 76.416C152.316 77.112 152.196 77.808 152.052 78.504C151.932 79.2 151.764 79.872 151.548 80.52C151.332 81.168 151.056 81.792 150.72 82.392C150.384 82.968 149.964 83.508 149.46 84.012C148.548 84.9 147.552 85.596 146.472 86.1C145.416 86.58 144.276 86.844 143.052 86.892ZM143.016 65.904C142.68 65.904 142.344 65.94 142.008 66.012C141.696 66.06 141.396 66.18 141.108 66.372C140.772 66.588 140.472 66.852 140.208 67.164C139.944 67.476 139.716 67.8 139.524 68.136C139.02 69 138.672 69.924 138.48 70.908C138.288 71.892 138.192 72.888 138.192 73.896C138.192 74.928 138.3 75.996 138.516 77.1C138.756 78.204 139.176 79.212 139.776 80.124C140.064 80.556 140.4 80.94 140.784 81.276C141.192 81.588 141.66 81.816 142.188 81.96C142.668 82.08 143.148 82.116 143.628 82.068C144.132 82.02 144.6 81.864 145.032 81.6C145.728 81.168 146.28 80.592 146.688 79.872C147.096 79.152 147.396 78.372 147.588 77.532C147.804 76.692 147.924 75.828 147.948 74.94C147.996 74.052 147.996 73.248 147.948 72.528C147.9 71.808 147.78 71.052 147.588 70.26C147.396 69.468 147.108 68.748 146.724 68.1C146.364 67.452 145.872 66.924 145.248 66.516C144.648 66.084 143.904 65.88 143.016 65.904ZM156.275 61.764C156.563 61.62 156.887 61.536 157.247 61.512C157.607 61.464 157.991 61.44 158.399 61.44H171.431C171.767 61.44 172.127 61.428 172.511 61.404C172.895 61.38 173.243 61.452 173.555 61.62C173.987 61.86 174.239 62.244 174.311 62.772C174.383 63.276 174.335 63.852 174.167 64.5C174.023 65.124 173.795 65.796 173.483 66.516C173.171 67.212 172.847 67.884 172.511 68.532C172.175 69.156 171.851 69.732 171.539 70.26C171.227 70.764 171.011 71.148 170.891 71.412C170.507 72.132 170.147 72.792 169.811 73.392C169.499 73.992 169.187 74.592 168.875 75.192C168.587 75.792 168.275 76.392 167.939 76.992C167.627 77.592 167.279 78.252 166.895 78.972C166.415 79.956 165.863 80.988 165.239 82.068C164.639 83.124 164.063 84.12 163.511 85.056C163.343 85.344 163.151 85.632 162.935 85.92C162.719 86.208 162.467 86.448 162.179 86.64C161.915 86.832 161.603 86.952 161.243 87C160.907 87.048 160.535 86.976 160.127 86.784C159.503 86.448 159.095 85.956 158.903 85.308C158.735 84.66 158.795 84.06 159.083 83.508C159.539 82.692 159.983 81.876 160.415 81.06C160.847 80.22 161.279 79.392 161.711 78.576C162.359 77.352 162.959 76.176 163.511 75.048C164.087 73.92 164.699 72.744 165.347 71.52C165.539 71.16 165.803 70.728 166.139 70.224C166.475 69.696 166.787 69.156 167.075 68.604C167.387 68.052 167.627 67.512 167.795 66.984C167.987 66.432 168.047 65.952 167.975 65.544C167.135 65.472 166.367 65.448 165.671 65.472C164.999 65.472 164.255 65.472 163.439 65.472H159.947C159.515 65.472 159.047 65.484 158.543 65.508C158.063 65.532 157.607 65.508 157.175 65.436C156.743 65.34 156.371 65.16 156.059 64.896C155.771 64.632 155.591 64.2 155.519 63.6C155.471 63.096 155.519 62.7 155.663 62.412C155.807 62.124 156.011 61.908 156.275 61.764Z" fill="black"/>
</g>
<line x1="70.5862" y1="303.473" x2="1.99998" y2="303.473" stroke="url(#paint10_linear_2953_13064)"/>
<line x1="239" y1="303.5" x2="308" y2="303.5" stroke="url(#paint11_linear_2953_13064)"/>
<rect x="64.2542" y="300.863" width="182.545" height="5.27586" rx="2.63793" fill="url(#paint12_radial_2953_13064)"/>
</g>
<defs>
<filter id="filter0_d_2953_13064" x="0" y="0" width="310" height="367" filterUnits="userSpaceOnUse" color-interpolation-filters="sRGB">
<feFlood flood-opacity="0" result="BackgroundImageFix"/>
<feColorMatrix in="SourceAlpha" type="matrix" values="0 0 0 0 0 0 0 0 0 0 0 0 0 0 0 0 0 0 127 0" result="hardAlpha"/>
<feOffset dy="2"/>
<feGaussianBlur stdDeviation="1"/>
<feComposite in2="hardAlpha" operator="out"/>
<feColorMatrix type="matrix" values="0 0 0 0 0 0 0 0 0 0 0 0 0 0 0 0 0 0 0.25 0"/>
<feBlend mode="normal" in2="BackgroundImageFix" result="effect1_dropShadow_2953_13064"/>
<feBlend mode="normal" in="SourceGraphic" in2="effect1_dropShadow_2953_13064" result="shape"/>
</filter>
<filter id="filter1_d_2953_13064" x="89.0002" y="0" width="132" height="132" filterUnits="userSpaceOnUse" color-interpolation-filters="sRGB">
<feFlood flood-opacity="0" result="BackgroundImageFix"/>
<feColorMatrix in="SourceAlpha" type="matrix" values="0 0 0 0 0 0 0 0 0 0 0 0 0 0 0 0 0 0 127 0" result="hardAlpha"/>
<feOffset dy="2"/>
<feGaussianBlur stdDeviation="1"/>
<feComposite in2="hardAlpha" operator="out"/>
<feColorMatrix type="matrix" values="0 0 0 0 0 0 0 0 0 0 0 0 0 0 0 0 0 0 0.25 0"/>
<feBlend mode="normal" in2="BackgroundImageFix" result="effect1_dropShadow_2953_13064"/>
<feBlend mode="normal" in="SourceGraphic" in2="effect1_dropShadow_2953_13064" result="shape"/>
</filter>
<filter id="filter2_d_2953_13064" x="114.305" y="23.8164" width="80.6174" height="83.7856" filterUnits="userSpaceOnUse" color-interpolation-filters="sRGB">
<feFlood flood-opacity="0" result="BackgroundImageFix"/>
<feColorMatrix in="SourceAlpha" type="matrix" values="0 0 0 0 0 0 0 0 0 0 0 0 0 0 0 0 0 0 127 0" result="hardAlpha"/>
<feOffset dy="2"/>
<feGaussianBlur stdDeviation="1"/>
<feComposite in2="hardAlpha" operator="out"/>
<feColorMatrix type="matrix" values="0 0 0 0 0 0 0 0 0 0 0 0 0 0 0 0 0 0 0.25 0"/>
<feBlend mode="normal" in2="BackgroundImageFix" result="effect1_dropShadow_2953_13064"/>
<feBlend mode="normal" in="SourceGraphic" in2="effect1_dropShadow_2953_13064" result="shape"/>
</filter>
<radialGradient id="paint0_radial_2953_13064" cx="0" cy="0" r="1" gradientUnits="userSpaceOnUse" gradientTransform="translate(64 64) rotate(90) scale(64)">
<stop stop-color="#FEEBF3"/>
<stop offset="1" stop-color="#FA6BA4"/>
</radialGradient>
<linearGradient id="paint1_linear_2953_13064" x1="154.613" y1="28.0407" x2="154.613" y2="44.7583" gradientUnits="userSpaceOnUse">
<stop stop-color="#E85F43"/>
<stop offset="1" stop-color="#E83636"/>
</linearGradient>
<radialGradient id="paint2_radial_2953_13064" cx="0" cy="0" r="1" gradientUnits="userSpaceOnUse" gradientTransform="translate(129.127 34.0016) scale(2.36095)">
<stop stop-color="#8C1F1F"/>
<stop offset="0.84" stop-color="#450F0F"/>
<stop offset="1" stop-color="#2B0808"/>
</radialGradient>
<linearGradient id="paint3_linear_2953_13064" x1="127.703" y1="29.2136" x2="130.555" y2="29.2136" gradientUnits="userSpaceOnUse">
<stop stop-color="#4F4F4F"/>
<stop offset="0.29" stop-color="#BDBDBD"/>
<stop offset="0.62" stop-color="#BDBDBD"/>
<stop offset="1" stop-color="#4F4F4F"/>
</linearGradient>
<radialGradient id="paint4_radial_2953_13064" cx="0" cy="0" r="1" gradientUnits="userSpaceOnUse" gradientTransform="translate(146.096 23.8395) scale(0.0241505)">
<stop stop-color="#8C1F1F"/>
<stop offset="0.84" stop-color="#450F0F"/>
<stop offset="1" stop-color="#2B0808"/>
</radialGradient>
<linearGradient id="paint5_linear_2953_13064" x1="144.672" y1="23.8164" x2="147.524" y2="23.8164" gradientUnits="userSpaceOnUse">
<stop stop-color="#4F4F4F"/>
<stop offset="0.29" stop-color="#BDBDBD"/>
<stop offset="0.62" stop-color="#BDBDBD"/>
<stop offset="1" stop-color="#4F4F4F"/>
</linearGradient>
<radialGradient id="paint6_radial_2953_13064" cx="0" cy="0" r="1" gradientUnits="userSpaceOnUse" gradientTransform="translate(163.06 23.8395) scale(2.36095)">
<stop stop-color="#8C1F1F"/>
<stop offset="0.84" stop-color="#450F0F"/>
<stop offset="1" stop-color="#2B0808"/>
</radialGradient>
<linearGradient id="paint7_linear_2953_13064" x1="161.637" y1="23.8164" x2="164.489" y2="23.8164" gradientUnits="userSpaceOnUse">
<stop stop-color="#4F4F4F"/>
<stop offset="0.29" stop-color="#BDBDBD"/>
<stop offset="0.62" stop-color="#BDBDBD"/>
<stop offset="1" stop-color="#4F4F4F"/>
</linearGradient>
<radialGradient id="paint8_radial_2953_13064" cx="0" cy="0" r="1" gradientUnits="userSpaceOnUse" gradientTransform="translate(180.037 23.8395) scale(0.0241505)">
<stop stop-color="#8C1F1F"/>
<stop offset="0.84" stop-color="#450F0F"/>
<stop offset="1" stop-color="#2B0808"/>
</radialGradient>
<linearGradient id="paint9_linear_2953_13064" x1="178.614" y1="23.8164" x2="181.466" y2="23.8164" gradientUnits="userSpaceOnUse">
<stop stop-color="#4F4F4F"/>
<stop offset="0.29" stop-color="#BDBDBD"/>
<stop offset="0.62" stop-color="#BDBDBD"/>
<stop offset="1" stop-color="#4F4F4F"/>
</linearGradient>
<linearGradient id="paint10_linear_2953_13064" x1="70.5862" y1="302.473" x2="-4.85864" y2="302.473" gradientUnits="userSpaceOnUse">
<stop stop-color="#870237"/>
<stop offset="0.795" stop-color="#FEB7D3"/>
</linearGradient>
<linearGradient id="paint11_linear_2953_13064" x1="239" y1="304.5" x2="314.9" y2="304.5" gradientUnits="userSpaceOnUse">
<stop stop-color="#870237"/>
<stop offset="0.795" stop-color="#FEB7D3"/>
</linearGradient>
<radialGradient id="paint12_radial_2953_13064" cx="0" cy="0" r="1" gradientUnits="userSpaceOnUse" gradientTransform="translate(155.527 303.501) scale(91.2724 2.63793)">
<stop stop-color="#FEB7D3"/>
<stop offset="1" stop-color="#860236"/>
</radialGradient>
</defs>
</svg>
