<svg width="40" height="40" viewBox="0 0 40 40" fill="none" xmlns="http://www.w3.org/2000/svg">
<circle cx="20" cy="20" r="20" fill="#3E79CC"/>
<path d="M18.7311 18.2674C18.9399 18.3633 19.1746 18.4152 19.3278 18.6088C19.3897 19.0075 19.3046 19.382 19.154 19.7493C18.6138 21.0718 17.828 22.2526 17.0172 23.4174C16.8675 23.6315 16.7582 23.851 16.7009 24.1091C16.4195 25.3742 15.7592 26.4377 14.9152 27.3991C14.1124 28.3129 13.3079 29.225 12.5149 30.147C12.2954 30.4014 12.1996 30.7061 12.1297 31.0259C11.8331 32.3896 10.706 33.0454 9.37907 32.6387C8.30122 32.3081 7.22517 31.9694 6.14554 31.6459C5.96814 31.5931 5.76834 31.5725 5.64648 31.4013C5.9762 30.6828 6.27187 29.9463 6.64728 29.2528C6.93667 28.7188 6.96534 28.2045 6.85066 27.6275C6.63204 26.5291 6.45016 25.4226 6.26918 24.317C6.19213 23.8466 6.34534 23.3887 6.4197 22.93C6.66699 21.4087 6.92144 19.8873 7.14006 18.3615C7.21532 17.8356 7.23772 17.2989 7.40616 16.7873C7.51278 16.4629 7.67584 16.1825 7.93029 15.9487C8.33437 15.5768 8.78504 15.6046 9.2384 15.7954C9.60216 15.9487 9.71147 16.2685 9.75985 16.6529C9.80196 16.9907 9.75985 17.3392 9.87991 17.6671C9.94263 18.0551 9.92381 18.4466 9.88708 18.8319C9.81092 19.6203 9.85751 20.4141 9.77419 21.2026C9.74372 21.4902 9.87095 21.7088 10.0663 21.9176C10.5958 22.4811 11.0644 23.0895 11.3197 23.8349C11.3341 23.8761 11.3565 23.9173 11.3439 23.9317C11.2642 23.5706 11.0921 23.2203 10.9318 22.8709C10.7409 22.4542 10.4901 22.069 10.1962 21.716C10.0528 21.5439 9.99191 21.3558 9.98743 21.1327C9.96324 20.0387 10.0967 18.9492 10.0627 17.8553C10.0573 17.6752 10.1514 17.5094 10.1451 17.3284C11.1154 16.0239 12.1144 14.7418 13.298 13.6209C13.7487 13.1936 14.211 12.7554 14.8444 12.6121C15.5209 12.4589 16.2305 12.742 16.2413 13.5107C15.9151 13.5045 15.6902 13.6747 15.4653 13.896C14.1124 15.2319 12.8706 16.6636 11.7274 18.1805C11.6423 18.2934 11.4416 18.4403 11.602 18.5738C11.7919 18.7324 11.8878 18.4914 11.9792 18.3704C13.0848 16.9082 14.3006 15.5419 15.5809 14.2311C15.7915 14.0152 16.0217 13.8216 16.2556 13.6335C16.3998 13.5511 16.5522 13.4785 16.6883 13.3835C17.2886 12.9651 18.319 13.4659 18.4373 14.154C18.5215 14.645 18.2975 15.0348 18.0054 15.3985C17.742 15.2928 17.5404 15.3815 17.3451 15.5723C15.8757 17.0113 14.5291 18.5586 13.2917 20.2009C13.2514 20.2547 13.2093 20.3066 13.178 20.3658C13.1385 20.4401 13.1251 20.5172 13.195 20.5799C13.2702 20.6462 13.3401 20.605 13.4046 20.5539C13.4656 20.5046 13.513 20.4419 13.5596 20.3792C14.7602 18.779 16.0764 17.2801 17.4965 15.8707C17.6542 15.7139 17.8155 15.5598 18.0045 15.4388C18.1479 15.498 18.2948 15.5482 18.4328 15.6171C19.0904 15.9451 19.3476 16.5167 19.1764 17.2514C19.0949 17.5999 18.965 17.9251 18.732 18.2029C18.4462 18.1411 18.2285 18.2459 18.0233 18.4475C17.1551 19.2996 16.3174 20.1794 15.5549 21.1291C15.4645 21.2411 15.2691 21.3845 15.4214 21.5215C15.6015 21.6828 15.7064 21.4588 15.8076 21.3388C16.5047 20.5109 17.217 19.6983 17.9848 18.9349C18.2222 18.6993 18.4928 18.5013 18.732 18.2683L18.7311 18.2674Z" fill="#F8DFA6"/>
<path d="M23.0775 15.246C22.875 14.9315 22.7299 14.5946 22.7765 14.2129C22.8705 13.4379 24.0236 12.8681 24.6965 13.5087C24.8013 13.6959 24.9599 13.8348 25.1113 13.9827C26.4965 15.3329 27.7625 16.7879 28.9452 18.3182C29.0428 18.4437 29.1306 18.7241 29.3313 18.578C29.5365 18.4284 29.2928 18.2645 29.2014 18.1345C28.5895 17.2664 27.8682 16.4878 27.1891 15.6733C26.7303 15.1241 26.1963 14.6475 25.7295 14.1054C25.4867 13.8241 25.1929 13.575 24.8282 13.4397C24.8802 13.3841 24.9438 13.3349 24.9814 13.2713C25.4043 12.5599 25.9974 12.3798 26.7447 12.7597C27.4713 13.1288 28.0367 13.7031 28.5796 14.2918C29.4388 15.2227 30.2371 16.2064 30.9924 17.2242C31.0184 17.2592 31.0345 17.3004 31.0552 17.3389C31.1573 17.7081 31.1734 18.0844 31.1582 18.4643C31.125 19.3235 31.2612 20.1764 31.2308 21.0366C31.2209 21.317 31.1591 21.5535 30.9754 21.7722C30.445 22.402 30.118 23.1394 29.8662 23.9144C29.8635 23.9619 29.9334 23.9099 29.8895 23.9198C29.8752 23.9225 29.8707 23.9135 29.877 23.8911C30.0821 23.1734 30.5113 22.5776 31.0211 22.0696C31.4368 21.6557 31.4592 21.2149 31.4243 20.6988C31.358 19.7213 31.315 18.742 31.3033 17.7627C31.3033 17.7287 31.3186 17.6982 31.3338 17.6686C31.4628 17.3542 31.4001 17.0146 31.4548 16.6876C31.5488 16.1204 31.6993 15.857 32.1348 15.7361C32.7055 15.5775 33.1849 15.7343 33.4993 16.1589C33.8604 16.6472 33.9366 17.2242 34.0074 17.795C34.131 18.7859 34.2887 19.7715 34.45 20.757C34.6148 21.7641 34.8021 22.7676 34.9436 23.7782C35.035 24.4269 34.8155 25.0559 34.7187 25.6911C34.5924 26.5243 34.4374 27.3531 34.2842 28.1819C34.2107 28.5806 34.4231 28.8942 34.57 29.2248C34.8881 29.9362 35.2241 30.6404 35.552 31.3473C35.5063 31.4683 35.3952 31.4987 35.2877 31.5301C34.0772 31.8867 32.8793 32.2818 31.6671 32.6303C30.5588 32.9484 29.3672 32.2818 29.1342 31.1565C29.0025 30.5212 28.6782 30.0347 28.2642 29.5688C27.4865 28.6935 26.6873 27.8351 25.9553 26.9204C25.2421 26.0307 24.684 25.0585 24.4806 23.9153C24.4519 23.7558 24.3731 23.6268 24.2826 23.496C23.5138 22.3841 22.7594 21.2632 22.195 20.0286C21.9898 19.5806 21.8079 19.1246 21.8859 18.613C22.0095 18.4687 22.2138 18.4015 22.2783 18.2017C22.3795 18.4069 22.5569 18.5431 22.7164 18.6972C23.5649 19.5215 24.3802 20.3771 25.1185 21.3036C25.1328 21.3206 25.1454 21.3394 25.1615 21.3546C25.2645 21.4559 25.3452 21.6781 25.5235 21.5285C25.6749 21.4012 25.5065 21.2713 25.4258 21.1593C25.2619 20.9335 25.0791 20.7212 24.8945 20.5133C24.2297 19.7634 23.5568 19.0198 22.8141 18.3433C22.6761 18.2179 22.496 18.1865 22.3571 18.0736C22.1609 17.6624 21.9853 17.2511 22.0059 16.7745C22.0301 16.2082 22.3733 15.7459 22.9359 15.5846C23.1528 15.5264 23.2612 15.693 23.383 15.8113C24.7924 17.183 26.0835 18.6596 27.2796 20.2203C27.3745 20.344 27.4543 20.4802 27.577 20.5814C27.6317 20.6262 27.6971 20.6513 27.7607 20.6065C27.8252 20.5608 27.818 20.4891 27.7947 20.4237C27.7455 20.2849 27.6559 20.1693 27.5699 20.0528C26.9176 19.1748 26.1856 18.3612 25.4823 17.5244C25.0943 17.063 24.6508 16.6544 24.2629 16.193C23.934 15.8024 23.5577 15.4547 23.0757 15.2486L23.0775 15.246Z" fill="#F8DFA6"/>
<path d="M21.889 18.6103C21.9643 19.4247 22.3218 20.1388 22.699 20.843C23.1891 21.7569 23.7813 22.6063 24.3673 23.4584C24.4793 23.6214 24.5411 23.7791 24.5787 23.97C24.7937 25.0657 25.3197 26.0181 26.0266 26.863C26.9172 27.9283 27.8472 28.9605 28.7584 30.0079C29.0066 30.2937 29.1195 30.6431 29.1849 31.006C29.3963 32.1806 30.5494 32.883 31.6989 32.5291C32.9837 32.134 34.2686 31.738 35.5543 31.3428C35.7932 31.7723 35.6797 32.0593 35.2138 32.2039C33.2481 32.8095 31.2814 33.4107 29.3175 34.0209C29.0872 34.0926 29.003 34.0917 28.9725 33.8014C28.8928 33.0398 28.7584 32.2845 28.65 31.5256C28.5926 31.126 28.2692 30.9083 28.038 30.6332C27.1071 29.5231 26.0786 28.4946 25.2184 27.3262C24.714 26.6399 24.309 25.8864 24.1469 25.0442C24.0734 24.6643 23.8996 24.3705 23.6935 24.0694C22.9266 22.9459 22.1569 21.8232 21.6534 20.5474C21.3828 19.862 21.3631 19.2016 21.8872 18.6094L21.889 18.6103Z" fill="#F5D189"/>
<path d="M5.64505 31.4006C6.99617 31.8109 8.3419 32.241 9.70108 32.6245C10.6831 32.9013 11.8344 32.2105 11.9992 31.2088C12.1139 30.51 12.5046 30.0262 12.9319 29.5235C13.8592 28.4314 14.8995 27.4333 15.6942 26.2318C16.1637 25.5222 16.5176 24.7561 16.6511 23.9049C16.6806 23.7159 16.7944 23.5779 16.8966 23.4364C17.6124 22.4409 18.2772 21.4142 18.8157 20.3094C19.0603 19.8077 19.2977 19.3042 19.2736 18.7236C19.2718 18.686 19.3103 18.6474 19.33 18.6089C19.8237 19.1662 19.8389 19.8005 19.5961 20.4555C19.201 21.519 18.5855 22.4642 17.9726 23.4095C17.9242 23.4838 17.875 23.5591 17.8239 23.6317C17.4592 24.1451 17.1519 24.6629 16.9942 25.3035C16.6968 26.5068 15.9576 27.4843 15.1387 28.4C14.3278 29.3067 13.5358 30.2296 12.7294 31.1381C12.5225 31.371 12.5619 31.664 12.5126 31.9292C12.3952 32.5617 12.3021 33.2015 12.2402 33.8412C12.2134 34.1189 12.1094 34.0804 11.924 34.0231C10.1177 33.4622 8.31055 32.9067 6.50339 32.3485C6.22743 32.2634 5.95506 32.1595 5.67373 32.0967C5.40583 32.0376 5.33326 31.9238 5.48199 31.6864C5.54023 31.5923 5.59309 31.4956 5.64774 31.3997L5.64505 31.4006Z" fill="#F5D189"/>
<path d="M23.0768 15.2464C23.4656 15.1792 23.6627 15.4973 23.8831 15.6998C24.3571 16.1361 24.797 16.6128 25.2235 17.0966C25.8543 17.8125 26.4671 18.5445 27.0755 19.28C27.3371 19.5963 27.5665 19.9377 27.8119 20.2665C27.9222 20.4134 27.9929 20.5837 27.8245 20.7064C27.6408 20.8399 27.5118 20.6715 27.4141 20.5389C26.1822 18.8733 24.8141 17.3268 23.3402 15.8727C23.2201 15.7544 23.0992 15.6406 22.937 15.5824C22.9558 15.4588 22.9424 15.3226 23.0768 15.2464Z" fill="#F1CA8D"/>
<path d="M18.0026 15.4397C17.9892 15.5329 17.9381 15.5929 17.8637 15.6557C17.1174 16.2802 16.4795 17.0139 15.8317 17.7334C15.157 18.4842 14.5325 19.2807 13.8892 20.0602C13.7414 20.2403 13.6106 20.4338 13.4636 20.6148C13.374 20.725 13.2656 20.811 13.1268 20.6766C12.9995 20.5539 13.0058 20.4329 13.1151 20.2941C13.6052 19.6767 14.0684 19.037 14.5809 18.4385C15.4572 17.4153 16.3486 16.4038 17.3297 15.4774C17.6164 15.2059 17.7679 15.1871 18.0035 15.4003C18.0017 15.4138 18.0008 15.4272 18.0017 15.4406L18.0026 15.4397Z" fill="#F1CB8D"/>
<path d="M24.8275 13.4409C25.3176 13.4069 25.5595 13.8092 25.8149 14.0896C26.279 14.6003 26.787 15.0671 27.2314 15.5975C27.9723 16.4827 28.7393 17.3464 29.422 18.28C29.5197 18.4135 29.5806 18.564 29.3987 18.6841C29.2231 18.8006 29.1308 18.702 29.0215 18.5569C28.2098 17.4844 27.3434 16.4585 26.4322 15.4685C25.9045 14.8942 25.3776 14.3208 24.7818 13.8163C24.6788 13.7285 24.7003 13.6174 24.6958 13.509C24.7397 13.4866 24.7836 13.4633 24.8275 13.4409Z" fill="#F1CA8D"/>
<path d="M16.2557 13.6344C16.2449 13.8396 16.0523 13.8817 15.9367 13.9928C15.1178 14.7803 14.3679 15.6315 13.6197 16.4845C13.0194 17.1699 12.4424 17.8723 11.9093 18.6115C11.8117 18.7468 11.6791 18.7889 11.5339 18.676C11.3986 18.5712 11.4219 18.4672 11.5142 18.3328C11.9425 17.7092 12.4263 17.1296 12.9119 16.5534C13.7514 15.558 14.6214 14.5895 15.5649 13.6891C15.7611 13.5018 15.9564 13.3477 16.2413 13.5099C16.2467 13.5511 16.2512 13.5932 16.2565 13.6344H16.2557Z" fill="#F1CA8D"/>
<path d="M10.1437 17.3276C10.2486 17.4172 10.2127 17.5283 10.193 17.6376C10.1787 17.7138 10.1482 17.7899 10.1509 17.8652C10.1939 18.9807 10.0604 20.0917 10.0721 21.2071C10.0757 21.5279 10.305 21.6757 10.452 21.8818C10.8919 22.4955 11.2099 23.1621 11.4071 23.8887C11.4205 23.9389 11.4357 23.9936 11.3703 24.0617C11.1616 23.6235 10.9582 23.1926 10.6733 22.8091C10.4941 22.569 10.3444 22.2841 10.1142 22.1094C9.60527 21.7241 9.64111 21.2098 9.69845 20.6875C9.71816 20.511 9.75311 20.3354 9.74325 20.158C9.70204 19.4107 9.8436 18.6689 9.81582 17.9216C9.81314 17.8374 9.85704 17.7514 9.87944 17.6663C9.96724 17.5534 10.0559 17.4405 10.1437 17.3276Z" fill="#F1CB8D"/>
<path d="M31.3339 17.6659C31.3563 17.751 31.4002 17.837 31.3975 17.9213C31.3697 18.6676 31.5095 19.4077 31.4709 20.1549C31.4503 20.5545 31.5713 20.9478 31.5399 21.351C31.5283 21.4997 31.5274 21.6511 31.4208 21.7578C30.7533 22.4217 30.2256 23.1823 29.8286 24.0389C29.8098 23.6653 29.972 23.3418 30.1064 23.0157C30.3152 22.5086 30.6072 22.0463 30.9656 21.6323C31.0955 21.4827 31.1332 21.3385 31.1368 21.1521C31.1627 20.0608 31.0149 18.9731 31.0687 17.8818C31.0776 17.6991 30.9047 17.5225 31.0561 17.3389C31.1493 17.4482 31.2416 17.5575 31.3348 17.6659H31.3339Z" fill="#F1CB8D"/>
<path d="M18.7309 18.2671C18.7255 18.4212 18.6072 18.5028 18.5087 18.5852C17.4989 19.4328 16.6693 20.447 15.8289 21.4523C15.7859 21.5034 15.7428 21.5553 15.6954 21.601C15.5816 21.7112 15.4615 21.7184 15.3397 21.6118C15.2232 21.5096 15.2339 21.4093 15.328 21.2937C15.595 20.9685 15.8468 20.6298 16.1218 20.3117C16.7347 19.6048 17.3995 18.9472 18.0715 18.2967C18.2551 18.1184 18.4702 17.9455 18.7309 18.2026C18.7309 18.2241 18.73 18.2456 18.7309 18.2671Z" fill="#F1CA8D"/>
<path d="M22.359 18.0714C22.5113 18.0516 22.6501 18.0893 22.7648 18.1887C23.3938 18.7371 23.9547 19.3553 24.5263 19.9609C24.8829 20.3399 25.2027 20.7539 25.5351 21.1544C25.6561 21.3004 25.8102 21.4653 25.5773 21.6319C25.3739 21.7771 25.2717 21.6158 25.1508 21.4671C24.305 20.4188 23.4108 19.4153 22.393 18.5292C22.2783 18.4297 22.2909 18.3186 22.281 18.1995C22.307 18.1565 22.333 18.1144 22.359 18.0714Z" fill="#F1CA8D"/>
<path d="M21.3402 9.41676C21.3402 9.60581 21.3626 9.79755 21.334 9.98212C21.3017 10.1864 21.205 10.3826 20.9487 10.3521C20.7211 10.3253 20.6056 10.173 20.6065 9.93821C20.6082 9.57177 20.6065 9.20532 20.6065 8.83976C20.6065 8.59069 20.7265 8.42941 20.9756 8.42045C21.2291 8.4106 21.3134 8.61219 21.3376 8.81826C21.3609 9.01537 21.3429 9.21696 21.3429 9.41676C21.3429 9.41676 21.3411 9.41676 21.3402 9.41676Z" fill="#E6E6E6"/>
<path d="M9.68013 9.01832C9.87007 9.01832 10.06 9.01384 10.25 9.02011C10.4739 9.02728 10.6101 9.14465 10.6128 9.37222C10.6155 9.59442 10.482 9.73957 10.2688 9.74942C9.86738 9.76734 9.4642 9.76734 9.06281 9.74763C8.83971 9.73688 8.66679 9.59442 8.69277 9.35878C8.71607 9.14554 8.85763 9.0004 9.11029 9.01653C9.29934 9.02817 9.49018 9.01921 9.68013 9.01921V9.01832Z" fill="#E6E6E6"/>
<path d="M29.2889 10.359C29.0891 10.359 28.8893 10.367 28.6895 10.3563C28.4735 10.3446 28.3302 10.2201 28.323 10.0042C28.3158 9.76942 28.4637 9.63234 28.6948 9.62517C29.072 9.61352 29.4492 9.61442 29.8264 9.62517C30.0836 9.63234 30.2655 9.77659 30.2475 10.0373C30.2323 10.2622 30.054 10.3679 29.8211 10.3599C29.6437 10.3545 29.4663 10.359 29.2889 10.3581V10.359Z" fill="#E7E6E7"/>
<path d="M32.3162 10.3578C32.1039 10.3578 31.8916 10.3649 31.6792 10.356C31.4713 10.347 31.3459 10.2296 31.3361 10.0191C31.3253 9.7933 31.4579 9.64188 31.6667 9.63113C32.0788 9.60873 32.4936 9.61142 32.9058 9.63292C33.1137 9.64367 33.2776 9.78971 33.2579 10.0056C33.2391 10.2171 33.1074 10.373 32.852 10.3604C32.6737 10.3515 32.4945 10.3586 32.3162 10.3586V10.3578Z" fill="#E6E6E6"/>
<path d="M20.6074 6.36186C20.6074 6.17192 20.6074 5.98287 20.6074 5.79293C20.6074 5.58417 20.7212 5.43992 20.9102 5.41035C21.1226 5.3772 21.3053 5.5098 21.3197 5.71677C21.3492 6.14862 21.351 6.58496 21.3197 7.01681C21.3062 7.20855 21.1647 7.38057 20.9263 7.33488C20.7185 7.29546 20.6038 7.153 20.6065 6.9308C20.6083 6.74085 20.6065 6.55181 20.6065 6.36186H20.6074Z" fill="#E6E6E6"/>
<path d="M12.6793 9.01834C12.8576 9.01834 13.0359 9.01745 13.2142 9.01834C13.4633 9.02013 13.6308 9.14109 13.6282 9.39375C13.6246 9.62401 13.4714 9.75303 13.2339 9.75482C12.8657 9.75751 12.4983 9.7611 12.1301 9.75303C11.8891 9.74766 11.6982 9.62312 11.7108 9.37493C11.7224 9.14557 11.8783 8.99684 12.1444 9.01565C12.3218 9.0282 12.501 9.01834 12.6793 9.01834Z" fill="#E6E6E6"/>
<path d="M10.819 7.86801C10.819 7.67807 10.8217 7.48813 10.819 7.29818C10.8154 7.08853 10.8933 6.95234 11.1209 6.9398C11.3583 6.92636 11.5313 7.04104 11.5474 7.26861C11.5752 7.66911 11.5734 8.07319 11.5492 8.47368C11.5357 8.70036 11.3727 8.82311 11.1343 8.81594C10.8862 8.80878 10.8127 8.65915 10.819 8.43695C10.8243 8.24701 10.8199 8.05706 10.8199 7.86712L10.819 7.86801Z" fill="#E6E6E6"/>
<path d="M22.4835 7.54289C22.6842 7.54289 22.8849 7.54468 23.0856 7.54289C23.2657 7.5411 23.3912 7.61188 23.418 7.79824C23.4458 7.99266 23.401 8.16379 23.1815 8.21307C22.7093 8.32059 22.2336 8.33223 21.765 8.20411C21.6019 8.15931 21.4496 8.03477 21.4917 7.83856C21.5311 7.6513 21.6727 7.53931 21.8815 7.54199C22.0822 7.54468 22.2828 7.54199 22.4835 7.54199V7.54289Z" fill="#E6E6E7"/>
<path d="M31.1334 8.48352C31.1334 8.67257 31.1253 8.86161 31.1352 9.04977C31.1477 9.28092 31.0384 9.41801 30.8189 9.43682C30.585 9.45653 30.4229 9.30243 30.4076 9.09277C30.3781 8.69496 30.3781 8.29178 30.4121 7.89487C30.4309 7.67088 30.5832 7.51229 30.8511 7.54365C31.102 7.57322 31.1414 7.74166 31.1352 7.95042C31.1298 8.12782 31.1343 8.30612 31.1343 8.48352H31.1334Z" fill="#E6E6E6"/>
<path d="M10.819 10.8875C10.819 10.6976 10.8216 10.5076 10.819 10.3177C10.8145 10.1089 10.8906 9.97096 11.1182 9.95752C11.3547 9.94318 11.5304 10.057 11.5465 10.2837C11.5751 10.6841 11.5725 11.0882 11.5492 11.4887C11.5357 11.7145 11.3754 11.8399 11.1361 11.8328C10.8888 11.8265 10.8127 11.6787 10.819 11.4565C10.8234 11.2665 10.8199 11.0766 10.8199 10.8866L10.819 10.8875Z" fill="#E6E6E6"/>
<path d="M31.1341 11.5298C31.1341 11.7081 31.1305 11.8873 31.135 12.0656C31.1404 12.2708 31.075 12.4159 30.8456 12.4356C30.609 12.4553 30.4272 12.3433 30.4101 12.1193C30.3788 11.7081 30.3797 11.2924 30.4101 10.8811C30.4263 10.6562 30.6055 10.5424 30.8429 10.5604C31.0714 10.5774 31.1413 10.7198 31.1368 10.9259C31.1332 11.1266 31.1368 11.3282 31.1368 11.5289L31.1341 11.5298Z" fill="#E6E6E6"/>
<path d="M19.4632 7.54384C19.6756 7.54384 19.887 7.54115 20.0994 7.54473C20.283 7.54742 20.3879 7.6424 20.4049 7.82876C20.4201 8.00078 20.3789 8.15399 20.1979 8.20058C19.7508 8.31616 19.2966 8.31347 18.8423 8.23552C18.6309 8.19879 18.4714 8.06439 18.4929 7.85563C18.5153 7.63523 18.6846 7.51965 18.9283 7.53936C19.1057 7.55369 19.2849 7.54205 19.4641 7.54294L19.4632 7.54384Z" fill="#E6E6E7"/>
</svg>
