<svg width="342" height="192" viewBox="0 0 342 192" fill="none" xmlns="http://www.w3.org/2000/svg">
<path d="M0 37C0 25.9543 8.95431 17 20 17H322C333.046 17 342 25.9543 342 37V172C342 183.046 333.046 192 322 192H20C8.95431 192 0 183.046 0 172V37Z" fill="#AAE9E5"/>
<path d="M245.346 102H241.391L247.417 84.5455H252.173L258.19 102H254.235L249.863 88.5341H249.727L245.346 102ZM245.099 95.1392H254.44V98.0199H245.099V95.1392ZM266.365 88.9091V91.6364H258.482V88.9091H266.365ZM260.271 85.7727H263.902V97.9773C263.902 98.3125 263.953 98.5739 264.055 98.7614C264.158 98.9432 264.3 99.071 264.482 99.1449C264.669 99.2187 264.885 99.2557 265.129 99.2557C265.3 99.2557 265.47 99.2415 265.641 99.2131C265.811 99.179 265.942 99.1534 266.033 99.1364L266.604 101.838C266.422 101.895 266.166 101.96 265.837 102.034C265.507 102.114 265.107 102.162 264.635 102.179C263.76 102.213 262.993 102.097 262.334 101.83C261.68 101.562 261.172 101.148 260.808 100.585C260.445 100.023 260.266 99.3125 260.271 98.4545V85.7727ZM275.693 88.9091V91.6364H267.81V88.9091H275.693ZM269.599 85.7727H273.23V97.9773C273.23 98.3125 273.281 98.5739 273.384 98.7614C273.486 98.9432 273.628 99.071 273.81 99.1449C273.997 99.2187 274.213 99.2557 274.457 99.2557C274.628 99.2557 274.798 99.2415 274.969 99.2131C275.139 99.179 275.27 99.1534 275.361 99.1364L275.932 101.838C275.75 101.895 275.494 101.96 275.165 102.034C274.835 102.114 274.435 102.162 273.963 102.179C273.088 102.213 272.321 102.097 271.662 101.83C271.009 101.562 270.5 101.148 270.136 100.585C269.773 100.023 269.594 99.3125 269.599 98.4545V85.7727ZM283.884 102.256C282.537 102.256 281.378 101.983 280.406 101.438C279.44 100.886 278.696 100.108 278.173 99.1023C277.651 98.0909 277.389 96.8949 277.389 95.5142C277.389 94.1676 277.651 92.9858 278.173 91.9688C278.696 90.9517 279.432 90.1591 280.381 89.5909C281.335 89.0227 282.455 88.7386 283.739 88.7386C284.602 88.7386 285.406 88.8778 286.151 89.1562C286.901 89.429 287.554 89.8409 288.111 90.392C288.673 90.9432 289.111 91.6364 289.423 92.4716C289.736 93.3011 289.892 94.2727 289.892 95.3864V96.3835H278.838V94.1335H286.474C286.474 93.6108 286.361 93.1477 286.134 92.7443C285.906 92.3409 285.591 92.0256 285.188 91.7983C284.79 91.5653 284.327 91.4489 283.798 91.4489C283.247 91.4489 282.759 91.5767 282.332 91.8324C281.912 92.0824 281.582 92.4205 281.344 92.8466C281.105 93.267 280.983 93.7358 280.977 94.2528V96.392C280.977 97.0398 281.097 97.5994 281.335 98.071C281.58 98.5426 281.923 98.9062 282.366 99.1619C282.81 99.4176 283.335 99.5455 283.943 99.5455C284.347 99.5455 284.716 99.4886 285.051 99.375C285.386 99.2614 285.673 99.0909 285.912 98.8636C286.151 98.6364 286.332 98.358 286.457 98.0284L289.815 98.25C289.645 99.0568 289.295 99.7614 288.767 100.364C288.244 100.96 287.568 101.426 286.739 101.761C285.915 102.091 284.963 102.256 283.884 102.256ZM295.892 94.4318V102H292.261V88.9091H295.722V91.2188H295.875C296.165 90.4574 296.651 89.8551 297.332 89.4119C298.014 88.9631 298.841 88.7386 299.812 88.7386C300.722 88.7386 301.514 88.9375 302.19 89.3352C302.866 89.733 303.392 90.3011 303.767 91.0398C304.142 91.7727 304.33 92.6477 304.33 93.6648V102H300.699V94.3125C300.705 93.5114 300.5 92.8864 300.085 92.4375C299.67 91.983 299.099 91.7557 298.372 91.7557C297.884 91.7557 297.452 91.8608 297.077 92.071C296.707 92.2812 296.418 92.5881 296.207 92.9915C296.003 93.3892 295.898 93.8693 295.892 94.4318ZM312.015 102.213C311.021 102.213 310.12 101.957 309.313 101.446C308.512 100.929 307.876 100.17 307.404 99.1705C306.938 98.1648 306.705 96.9318 306.705 95.4716C306.705 93.9716 306.947 92.7244 307.43 91.7301C307.913 90.7301 308.555 89.983 309.356 89.4886C310.163 88.9886 311.046 88.7386 312.006 88.7386C312.739 88.7386 313.35 88.8636 313.839 89.1136C314.333 89.358 314.731 89.6648 315.032 90.0341C315.339 90.3977 315.572 90.7557 315.731 91.108H315.842V84.5455H319.464V102H315.884V99.9034H315.731C315.56 100.267 315.319 100.628 315.006 100.986C314.7 101.338 314.299 101.631 313.805 101.864C313.316 102.097 312.719 102.213 312.015 102.213ZM313.165 99.3239C313.751 99.3239 314.245 99.1648 314.648 98.8466C315.058 98.5227 315.37 98.071 315.586 97.4915C315.808 96.9119 315.918 96.233 315.918 95.4545C315.918 94.6761 315.81 94 315.594 93.4261C315.379 92.8523 315.066 92.4091 314.657 92.0966C314.248 91.7841 313.751 91.6278 313.165 91.6278C312.569 91.6278 312.066 91.7898 311.657 92.1136C311.248 92.4375 310.938 92.8864 310.728 93.4602C310.518 94.0341 310.413 94.6989 310.413 95.4545C310.413 96.2159 310.518 96.8892 310.728 97.4744C310.944 98.054 311.254 98.5085 311.657 98.8381C312.066 99.1619 312.569 99.3239 313.165 99.3239ZM222.298 131V113.545H225.989V121.241H226.219L232.5 113.545H236.923L230.446 121.361L237 131H232.585L227.804 123.824L225.989 126.04V131H222.298ZM242.408 123.432V131H238.777V113.545H242.305V120.219H242.459C242.754 119.446 243.232 118.841 243.891 118.403C244.55 117.96 245.376 117.739 246.371 117.739C247.28 117.739 248.072 117.938 248.749 118.335C249.43 118.727 249.959 119.293 250.334 120.031C250.714 120.764 250.902 121.642 250.896 122.665V131H247.266V123.312C247.271 122.506 247.067 121.878 246.652 121.429C246.243 120.98 245.669 120.756 244.93 120.756C244.436 120.756 243.999 120.861 243.618 121.071C243.243 121.281 242.947 121.588 242.732 121.991C242.521 122.389 242.413 122.869 242.408 123.432ZM262.148 125.426V117.909H265.779V131H262.293V128.622H262.157C261.862 129.389 261.37 130.006 260.683 130.472C260.001 130.937 259.168 131.17 258.185 131.17C257.31 131.17 256.54 130.972 255.876 130.574C255.211 130.176 254.691 129.611 254.316 128.878C253.947 128.145 253.759 127.267 253.754 126.244V117.909H257.384V125.597C257.39 126.369 257.597 126.98 258.006 127.429C258.415 127.878 258.964 128.102 259.651 128.102C260.089 128.102 260.498 128.003 260.879 127.804C261.259 127.599 261.566 127.298 261.799 126.901C262.038 126.503 262.154 126.011 262.148 125.426ZM275.646 117.909V120.636H267.763V117.909H275.646ZM269.553 114.773H273.183V126.977C273.183 127.312 273.234 127.574 273.337 127.761C273.439 127.943 273.581 128.071 273.763 128.145C273.95 128.219 274.166 128.256 274.411 128.256C274.581 128.256 274.751 128.241 274.922 128.213C275.092 128.179 275.223 128.153 275.314 128.136L275.885 130.838C275.703 130.895 275.447 130.96 275.118 131.034C274.788 131.114 274.388 131.162 273.916 131.179C273.041 131.213 272.274 131.097 271.615 130.83C270.962 130.562 270.453 130.148 270.089 129.585C269.726 129.023 269.547 128.312 269.553 127.455V114.773ZM278.361 131V113.545H281.991V120.108H282.102C282.261 119.756 282.491 119.398 282.793 119.034C283.099 118.665 283.497 118.358 283.986 118.114C284.48 117.864 285.094 117.739 285.827 117.739C286.781 117.739 287.662 117.989 288.469 118.489C289.276 118.983 289.92 119.73 290.403 120.73C290.886 121.724 291.128 122.972 291.128 124.472C291.128 125.932 290.892 127.165 290.42 128.17C289.955 129.17 289.318 129.929 288.511 130.446C287.71 130.957 286.813 131.213 285.818 131.213C285.114 131.213 284.514 131.097 284.02 130.864C283.531 130.631 283.131 130.338 282.818 129.986C282.506 129.628 282.267 129.267 282.102 128.903H281.94V131H278.361ZM281.915 124.455C281.915 125.233 282.023 125.912 282.239 126.491C282.455 127.071 282.767 127.523 283.176 127.847C283.585 128.165 284.082 128.324 284.668 128.324C285.259 128.324 285.759 128.162 286.168 127.838C286.577 127.509 286.886 127.054 287.097 126.474C287.313 125.889 287.42 125.216 287.42 124.455C287.42 123.699 287.315 123.034 287.105 122.46C286.895 121.886 286.585 121.437 286.176 121.114C285.767 120.79 285.264 120.628 284.668 120.628C284.077 120.628 283.577 120.784 283.168 121.097C282.764 121.409 282.455 121.852 282.239 122.426C282.023 123 281.915 123.676 281.915 124.455ZM297.283 131.247C296.448 131.247 295.704 131.102 295.05 130.812C294.397 130.517 293.88 130.082 293.499 129.509C293.124 128.929 292.937 128.207 292.937 127.344C292.937 126.616 293.07 126.006 293.337 125.511C293.604 125.017 293.968 124.619 294.428 124.318C294.888 124.017 295.411 123.79 295.996 123.636C296.587 123.483 297.207 123.375 297.854 123.312C298.616 123.233 299.229 123.159 299.695 123.091C300.161 123.017 300.499 122.909 300.71 122.767C300.92 122.625 301.025 122.415 301.025 122.136V122.085C301.025 121.545 300.854 121.128 300.513 120.832C300.178 120.537 299.701 120.389 299.082 120.389C298.428 120.389 297.908 120.534 297.522 120.824C297.136 121.108 296.88 121.466 296.755 121.898L293.397 121.625C293.567 120.83 293.903 120.142 294.403 119.562C294.903 118.977 295.548 118.528 296.337 118.216C297.133 117.898 298.053 117.739 299.099 117.739C299.826 117.739 300.522 117.824 301.187 117.994C301.857 118.165 302.451 118.429 302.968 118.787C303.491 119.145 303.903 119.605 304.204 120.168C304.505 120.724 304.656 121.392 304.656 122.17V131H301.212V129.185H301.11C300.9 129.594 300.619 129.955 300.266 130.267C299.914 130.574 299.491 130.815 298.996 130.991C298.502 131.162 297.931 131.247 297.283 131.247ZM298.323 128.741C298.857 128.741 299.329 128.636 299.738 128.426C300.147 128.21 300.468 127.92 300.701 127.557C300.934 127.193 301.05 126.781 301.05 126.321V124.932C300.937 125.006 300.781 125.074 300.582 125.136C300.388 125.193 300.17 125.247 299.925 125.298C299.681 125.344 299.437 125.386 299.192 125.426C298.948 125.46 298.727 125.491 298.528 125.52C298.102 125.582 297.729 125.682 297.411 125.818C297.093 125.955 296.846 126.139 296.67 126.372C296.494 126.599 296.406 126.884 296.406 127.224C296.406 127.719 296.585 128.097 296.942 128.358C297.306 128.614 297.766 128.741 298.323 128.741ZM311.103 123.432V131H307.472V113.545H311.001V120.219H311.154C311.45 119.446 311.927 118.841 312.586 118.403C313.245 117.96 314.072 117.739 315.066 117.739C315.975 117.739 316.768 117.938 317.444 118.335C318.126 118.727 318.654 119.293 319.029 120.031C319.41 120.764 319.597 121.642 319.592 122.665V131H315.961V123.312C315.967 122.506 315.762 121.878 315.347 121.429C314.938 120.98 314.364 120.756 313.626 120.756C313.131 120.756 312.694 120.861 312.313 121.071C311.938 121.281 311.643 121.588 311.427 121.991C311.217 122.389 311.109 122.869 311.103 123.432Z" fill="#012F2C"/>
<path d="M90.2895 60.2798C85.2819 58.2657 82.1323 55.4989 80.1562 52.904C78.3697 50.5581 75.3588 50.5581 73.5714 52.904C71.5943 55.4989 68.4457 58.2657 63.4381 60.2798C50.9078 65.3209 38.6758 68.5143 38.6758 87.1676V188.323C38.6758 190.173 39.8784 191.672 41.3608 191.672H112.368C113.851 191.672 115.053 190.173 115.053 188.323V87.1676C115.053 68.5143 102.821 65.3209 90.2904 60.2798H90.2895Z" fill="#BCC5E4"/>
<path d="M111.548 87.1673V187.301H42.1758V87.1673C42.1758 80.7323 43.7798 76.3791 47.3794 73.049C50.9289 69.7647 56.0799 67.7491 61.5336 65.6124C62.5066 65.2325 63.5117 64.8389 64.511 64.4375C69.3949 62.4711 73.2957 59.6042 76.1086 55.9111C76.3742 55.5643 76.6944 55.5117 76.8617 55.5117C77.0291 55.5117 77.3492 55.5643 77.6148 55.9111C80.4268 59.6022 84.3285 62.4711 89.2125 64.4375C90.2117 64.8389 91.2164 65.2325 92.1898 65.6124C97.6435 67.7491 102.795 69.7647 106.344 73.049C109.943 76.3791 111.549 80.7318 111.549 87.1673H111.548Z" fill="#EEF3F9"/>
<path d="M114.524 192.005C114.855 191.448 115.052 190.758 115.052 190.01V88.8551C115.052 70.2018 102.82 67.0084 90.2895 61.9673C85.2819 59.9532 82.1323 57.1864 80.1562 54.5915C78.3697 52.2456 75.3588 52.2456 73.5714 54.5915C71.5943 57.1864 68.4456 59.9532 63.4381 61.9673C50.9078 67.0084 38.6758 70.2018 38.6758 88.8551V190.01C38.6758 190.757 38.8723 191.447 39.2036 192.004H114.524L114.524 192.005Z" fill="#BCC5E4"/>
<path d="M111.548 88.8548V188.989H42.1758V88.8548C42.1758 82.4198 43.7798 78.0666 47.3794 74.7365C50.9289 71.4522 56.0799 69.4366 61.5336 67.2999C62.5066 66.92 63.5117 66.5264 64.511 66.125C69.3949 64.1586 73.2957 61.2917 76.1086 57.5986C76.3742 57.2518 76.6944 57.1992 76.8617 57.1992C77.0291 57.1992 77.3492 57.2518 77.6148 57.5986C80.4268 61.2897 84.3285 64.1586 89.2125 66.125C90.2117 66.5264 91.2164 66.92 92.1898 67.2999C97.6435 69.4366 102.795 71.4522 106.344 74.7365C109.943 78.0666 111.549 82.4193 111.549 88.8548H111.548Z" fill="#EEF3F9"/>
<path d="M110.795 192.001V133.291C110.795 127.294 115.657 122.432 121.655 122.432C127.652 122.432 132.514 127.294 132.514 133.291V192.001H134.997V132.944C134.997 125.575 129.024 119.602 121.655 119.602C114.286 119.602 108.312 125.575 108.312 132.944V192.001H110.795Z" fill="#D3B39E"/>
<path d="M20.4826 192.002V133.291C20.4826 127.294 25.3447 122.432 31.3422 122.432C37.3398 122.432 42.2019 127.294 42.2019 133.291V192.002H44.6845V132.944C44.6845 125.575 38.7113 119.602 31.3422 119.602C23.9732 119.602 18 125.575 18 132.943V192.001H20.4826V192.002Z" fill="#D3B39E"/>
<path d="M64.1486 115.618C64.1486 115.618 64.1306 115.1 64.1486 114.85C64.1666 114.6 64.3807 114.582 64.5417 114.886C64.7027 115.189 64.5237 116.458 64.5417 116.512C64.5597 116.565 65.1314 117.048 65.2389 117.406C65.3459 117.763 65.4354 118.299 65.4534 118.424C65.4714 118.549 64.2917 118.317 64.2917 118.317L64.1486 115.619V115.618Z" fill="#FCC0A9"/>
<path d="M66.7934 121.16C66.7934 121.16 66.0184 118.904 65.7679 118.465C65.5173 118.026 64.6086 117.776 64.6086 117.776C64.6086 117.776 65.1724 116.648 65.1724 116.303C65.1724 115.959 64.828 116.147 64.7652 116.334C64.7025 116.522 64.4519 116.898 64.4519 116.898C64.4519 116.898 64.3989 115.62 64.2919 115.512C64.1848 115.405 63.9523 115.405 63.9168 115.709C63.8812 116.012 63.8097 116.298 63.8097 116.298C63.8097 116.298 63.7202 114.761 63.6132 114.672C63.5062 114.582 63.2736 114.636 63.2736 114.797C63.2736 114.958 63.1666 116.084 63.1666 116.084C63.1666 116.084 63.0771 114.815 63.0415 114.761C63.0055 114.708 62.72 114.672 62.684 114.94C62.6485 115.208 62.4928 117.75 62.5818 117.964C62.6713 118.179 64.8864 119.528 64.9579 119.564C65.0294 119.599 65.168 122.267 65.168 122.267L66.7944 121.159L66.7934 121.16Z" fill="#FCC0A9"/>
<path d="M66.511 120.27L64.582 121.093L64.7937 122.622L67.0286 121.658L66.511 120.27Z" fill="#FF7274"/>
<path d="M64.7946 122.625C64.7946 122.625 64.4419 123.143 64.4886 123.354C64.5358 123.566 65.3828 126.624 65.3828 126.624L67.4295 123.143L67.0296 121.66L64.7946 122.625Z" fill="#FF7274"/>
<path d="M74.0701 115.052C74.0701 115.052 69.7461 117.026 69.7144 117.214C69.6833 117.402 67.8341 124.076 67.8341 124.076L67.3014 122.729L64.1367 128.118C64.1367 128.118 67.7402 130.938 68.3668 130.97C68.9934 131.001 70.0277 129.497 70.0277 129.497L67.8166 161.42H86.182L82.8125 127.492C82.8125 127.492 86.3532 131.439 87.4814 130.813C88.6096 130.186 89.2756 127.12 89.6434 125.235C90.7404 119.614 88.8694 120.276 88.5055 120.037C86.9998 119.049 86.8548 123.355 86.8548 123.355C86.8548 123.355 84.8494 120.597 84.4106 119.877C83.9718 119.156 83.2513 117.088 82.7813 116.9C82.3114 116.712 79.3033 115.396 79.3033 115.396L74.0705 115.051L74.0701 115.052Z" fill="#FF7274"/>
<path d="M72.1556 147.025C72.1556 147.025 72.1527 147.025 72.1512 147.025C72.1084 147.023 72.0758 146.986 72.0783 146.944L72.123 146.12C72.1254 146.078 72.1576 146.042 72.2043 146.047C72.2471 146.05 72.2797 146.086 72.2772 146.129L72.2325 146.952C72.23 146.994 72.196 147.025 72.1551 147.025H72.1556Z" fill="#1A2E35"/>
<path d="M71.3783 161.34C71.3783 161.34 71.3753 161.34 71.3739 161.34C71.3311 161.337 71.2985 161.301 71.3009 161.259L72.0404 147.679C72.0428 147.637 72.0754 147.601 72.1216 147.606C72.1644 147.608 72.197 147.645 72.1946 147.687L71.4551 161.267C71.4527 161.308 71.4186 161.34 71.3778 161.34H71.3783Z" fill="#1A2E35"/>
<path d="M81.9141 152.587C81.8742 152.587 81.8401 152.556 81.8372 152.516L81.6057 149.368C81.6027 149.325 81.6344 149.288 81.6772 149.285C81.7185 149.283 81.757 149.314 81.7604 149.357L81.9919 152.504C81.9949 152.547 81.9632 152.584 81.9204 152.587C81.9185 152.587 81.9165 152.587 81.9146 152.587H81.9141Z" fill="#1A2E35"/>
<path d="M76.8006 132.627L74.0742 115.048L74.6069 114.609V113.199L78.6493 113.387L78.712 114.922L79.3075 115.392L76.8006 132.627Z" fill="#FCC0A9"/>
<path d="M87.8965 119.26C87.8965 119.26 87.3555 119.542 87.3555 120.107C87.3555 120.671 87.3555 121.895 87.4027 122.389C87.4498 122.883 88.2497 126.906 88.5318 126.671C88.814 126.435 89.8726 122.412 89.9904 121.424C90.1081 120.436 90.0375 119.612 89.8254 119.307C89.6138 119.001 88.2964 118.93 87.8965 119.26Z" fill="#FF7274"/>
<path d="M87.7678 102.633H86.6172V161.498H87.7678V102.633Z" fill="#D3B39E"/>
<path d="M87.7678 102.633H86.6172V105.24H87.7678V102.633Z" fill="#BC9983"/>
<path d="M85.9939 115.305C85.9939 115.305 85.4996 115.328 85.4996 115.564C85.4996 115.799 85.429 116.434 85.6407 116.528C85.8523 116.622 86.0639 116.505 86.0639 116.505C86.0639 116.505 86.0639 115.54 85.9934 115.305L85.9939 115.305Z" fill="#FCC0A9"/>
<path d="M88.1646 118.494C88.1646 118.494 88.5883 118.966 89.0271 118.716C89.4659 118.466 89.2859 118.222 89.2859 118.222L89.3034 117.816C89.3034 117.816 89.1215 117.54 89.051 117.234C88.9804 116.928 87.8041 114.717 87.6863 114.481C87.5686 114.246 87.2864 114.223 87.2864 114.223L85.9218 115.07L86.0395 115.822C86.0395 115.822 85.9923 117.14 86.0629 117.328C86.1334 117.516 86.3217 117.751 86.4394 117.728C86.5572 117.705 86.6749 117.399 86.6749 117.399L87.4513 117.163C87.4513 117.163 87.5219 117.822 87.8279 118.033C88.1339 118.245 88.165 118.493 88.165 118.493" fill="#FCC0A9"/>
<path d="M89.12 117.539C89.12 117.539 89.426 118.316 89.0261 118.715C88.6262 119.115 87.8731 118.316 87.8264 118.033C87.7792 117.751 87.7558 119.562 87.8497 119.821C87.9436 120.08 88.885 120.198 89.2144 120.033C89.5437 119.868 89.8497 119.586 89.7554 118.974C89.6615 118.363 89.12 117.539 89.12 117.539Z" fill="#FF7274"/>
<path d="M97.5344 164.426H54.7891V189.783H97.5344V164.426Z" fill="#D3B39E"/>
<path d="M97.504 132.133H54.5471C54.2148 132.133 53.9453 131.864 53.9453 131.531C53.9453 131.199 54.2148 130.93 54.5471 130.93H97.504C97.8363 130.93 98.1058 131.199 98.1058 131.531C98.1058 131.864 97.8363 132.133 97.504 132.133Z" fill="#BC9983"/>
<path d="M97.504 130.934H54.5471C54.2148 130.934 53.9453 130.665 53.9453 130.332C53.9453 130 54.2148 129.73 54.5471 129.73H97.504C97.8363 129.73 98.1058 130 98.1058 130.332C98.1058 130.665 97.8363 130.934 97.504 130.934Z" fill="#BC9983"/>
<path d="M57.4936 139.684H56.0531C55.6635 139.684 55.3477 139.999 55.3477 140.389V141.184C55.3477 141.574 55.6635 141.889 56.0531 141.889H57.4936C57.8832 141.889 58.199 141.574 58.199 141.184V140.389C58.199 139.999 57.8832 139.684 57.4936 139.684Z" fill="#BC9983"/>
<path d="M57.4936 141.98H56.0531C55.6635 141.98 55.3477 142.296 55.3477 142.686V143.481C55.3477 143.87 55.6635 144.186 56.0531 144.186H57.4936C57.8832 144.186 58.199 143.87 58.199 143.481V142.686C58.199 142.296 57.8832 141.98 57.4936 141.98Z" fill="#BC9983"/>
<path d="M57.4936 156.363H56.0531C55.6635 156.363 55.3477 156.679 55.3477 157.069V157.864C55.3477 158.253 55.6635 158.569 56.0531 158.569H57.4936C57.8832 158.569 58.199 158.253 58.199 157.864V157.069C58.199 156.679 57.8832 156.363 57.4936 156.363Z" fill="#BC9983"/>
<path d="M58.1864 132.129H55.3594V140.724H58.1864V132.129Z" fill="#D3B39E"/>
<path d="M58.1864 157.727H55.3594V161.129H58.1864V157.727Z" fill="#D3B39E"/>
<path d="M57.6613 156.106L57.5946 156.35H56.0432C55.5873 154.934 55.3859 153.434 55.4487 151.933L55.7771 144.125H57.7562L58.0967 152.223C58.1517 153.535 58.0048 154.848 57.6613 156.107V156.106Z" fill="#D3B39E"/>
<path d="M62.3491 139.684H60.9085C60.519 139.684 60.2031 139.999 60.2031 140.389V141.184C60.2031 141.574 60.519 141.889 60.9085 141.889H62.3491C62.7387 141.889 63.0545 141.574 63.0545 141.184V140.389C63.0545 139.999 62.7387 139.684 62.3491 139.684Z" fill="#BC9983"/>
<path d="M62.3491 141.98H60.9085C60.519 141.98 60.2031 142.296 60.2031 142.686V143.481C60.2031 143.87 60.519 144.186 60.9085 144.186H62.3491C62.7387 144.186 63.0545 143.87 63.0545 143.481V142.686C63.0545 142.296 62.7387 141.98 62.3491 141.98Z" fill="#BC9983"/>
<path d="M62.3491 156.363H60.9085C60.519 156.363 60.2031 156.679 60.2031 157.069V157.864C60.2031 158.253 60.519 158.569 60.9085 158.569H62.3491C62.7387 158.569 63.0545 158.253 63.0545 157.864V157.069C63.0545 156.679 62.7387 156.363 62.3491 156.363Z" fill="#BC9983"/>
<path d="M63.0419 132.129H60.2148V140.724H63.0419V132.129Z" fill="#D3B39E"/>
<path d="M63.0419 157.727H60.2148V161.129H63.0419V157.727Z" fill="#D3B39E"/>
<path d="M62.5168 156.106L62.4501 156.35H60.8987C60.4428 154.934 60.2414 153.434 60.3042 151.933L60.6326 144.125H62.6116L62.9522 152.223C63.0072 153.535 62.8602 154.848 62.5168 156.107V156.106Z" fill="#D3B39E"/>
<path d="M67.2084 139.684H65.7679C65.3783 139.684 65.0625 139.999 65.0625 140.389V141.184C65.0625 141.574 65.3783 141.889 65.7679 141.889H67.2084C67.598 141.889 67.9139 141.574 67.9139 141.184V140.389C67.9139 139.999 67.598 139.684 67.2084 139.684Z" fill="#BC9983"/>
<path d="M67.2084 141.98H65.7679C65.3783 141.98 65.0625 142.296 65.0625 142.686V143.481C65.0625 143.87 65.3783 144.186 65.7679 144.186H67.2084C67.598 144.186 67.9139 143.87 67.9139 143.481V142.686C67.9139 142.296 67.598 141.98 67.2084 141.98Z" fill="#BC9983"/>
<path d="M67.2084 156.363H65.7679C65.3783 156.363 65.0625 156.679 65.0625 157.069V157.864C65.0625 158.253 65.3783 158.569 65.7679 158.569H67.2084C67.598 158.569 67.9139 158.253 67.9139 157.864V157.069C67.9139 156.679 67.598 156.363 67.2084 156.363Z" fill="#BC9983"/>
<path d="M67.9013 132.129H65.0742V140.724H67.9013V132.129Z" fill="#D3B39E"/>
<path d="M67.9013 157.727H65.0742V161.129H67.9013V157.727Z" fill="#D3B39E"/>
<path d="M67.3761 156.106L67.3095 156.35H65.758C65.3022 154.934 65.1008 153.434 65.1635 151.933L65.4919 144.125H67.471L67.8116 152.223C67.8665 153.535 67.7196 154.848 67.3761 156.107V156.106Z" fill="#D3B39E"/>
<path d="M72.0639 139.684H70.6234C70.2338 139.684 69.918 139.999 69.918 140.389V141.184C69.918 141.574 70.2338 141.889 70.6234 141.889H72.0639C72.4535 141.889 72.7693 141.574 72.7693 141.184V140.389C72.7693 139.999 72.4535 139.684 72.0639 139.684Z" fill="#BC9983"/>
<path d="M72.0639 141.98H70.6234C70.2338 141.98 69.918 142.296 69.918 142.686V143.481C69.918 143.87 70.2338 144.186 70.6234 144.186H72.0639C72.4535 144.186 72.7693 143.87 72.7693 143.481V142.686C72.7693 142.296 72.4535 141.98 72.0639 141.98Z" fill="#BC9983"/>
<path d="M72.0639 156.363H70.6234C70.2338 156.363 69.918 156.679 69.918 157.069V157.864C69.918 158.253 70.2338 158.569 70.6234 158.569H72.0639C72.4535 158.569 72.7693 158.253 72.7693 157.864V157.069C72.7693 156.679 72.4535 156.363 72.0639 156.363Z" fill="#BC9983"/>
<path d="M72.7567 132.129H69.9297V140.724H72.7567V132.129Z" fill="#D3B39E"/>
<path d="M72.7567 157.727H69.9297V161.129H72.7567V157.727Z" fill="#D3B39E"/>
<path d="M72.2316 156.106L72.165 156.35H70.6135C70.1577 154.934 69.9563 153.434 70.019 151.933L70.3474 144.125H72.3265L72.667 152.223C72.722 153.535 72.5751 154.848 72.2316 156.107V156.106Z" fill="#D3B39E"/>
<path d="M76.9233 139.684H75.4828C75.0932 139.684 74.7773 139.999 74.7773 140.389V141.184C74.7773 141.574 75.0932 141.889 75.4828 141.889H76.9233C77.3129 141.889 77.6287 141.574 77.6287 141.184V140.389C77.6287 139.999 77.3129 139.684 76.9233 139.684Z" fill="#BC9983"/>
<path d="M76.9233 141.98H75.4828C75.0932 141.98 74.7773 142.296 74.7773 142.686V143.481C74.7773 143.87 75.0932 144.186 75.4828 144.186H76.9233C77.3129 144.186 77.6287 143.87 77.6287 143.481V142.686C77.6287 142.296 77.3129 141.98 76.9233 141.98Z" fill="#BC9983"/>
<path d="M76.9233 156.363H75.4828C75.0932 156.363 74.7773 156.679 74.7773 157.069V157.864C74.7773 158.253 75.0932 158.569 75.4828 158.569H76.9233C77.3129 158.569 77.6287 158.253 77.6287 157.864V157.069C77.6287 156.679 77.3129 156.363 76.9233 156.363Z" fill="#BC9983"/>
<path d="M77.6161 132.129H74.7891V140.724H77.6161V132.129Z" fill="#D3B39E"/>
<path d="M77.6161 157.727H74.7891V161.129H77.6161V157.727Z" fill="#D3B39E"/>
<path d="M77.091 156.106L77.0243 156.35H75.4729C75.017 154.934 74.8156 153.434 74.8784 151.933L75.2068 144.125H77.1859L77.5264 152.223C77.5814 153.535 77.4345 154.848 77.091 156.107V156.106Z" fill="#D3B39E"/>
<path d="M81.7788 139.684H80.3382C79.9486 139.684 79.6328 139.999 79.6328 140.389V141.184C79.6328 141.574 79.9486 141.889 80.3382 141.889H81.7788C82.1684 141.889 82.4842 141.574 82.4842 141.184V140.389C82.4842 139.999 82.1684 139.684 81.7788 139.684Z" fill="#BC9983"/>
<path d="M81.7788 141.98H80.3382C79.9486 141.98 79.6328 142.296 79.6328 142.686V143.481C79.6328 143.87 79.9486 144.186 80.3382 144.186H81.7788C82.1684 144.186 82.4842 143.87 82.4842 143.481V142.686C82.4842 142.296 82.1684 141.98 81.7788 141.98Z" fill="#BC9983"/>
<path d="M81.7788 156.363H80.3382C79.9486 156.363 79.6328 156.679 79.6328 157.069V157.864C79.6328 158.253 79.9486 158.569 80.3382 158.569H81.7788C82.1684 158.569 82.4842 158.253 82.4842 157.864V157.069C82.4842 156.679 82.1684 156.363 81.7788 156.363Z" fill="#BC9983"/>
<path d="M82.4716 132.129H79.6445V140.724H82.4716V132.129Z" fill="#D3B39E"/>
<path d="M82.4716 157.727H79.6445V161.129H82.4716V157.727Z" fill="#D3B39E"/>
<path d="M81.9465 156.106L81.8798 156.35H80.3284C79.8725 154.934 79.6711 153.434 79.7339 151.933L80.0622 144.125H82.0413L82.3819 152.223C82.4368 153.535 82.2899 154.848 81.9465 156.107V156.106Z" fill="#D3B39E"/>
<path d="M86.6342 139.684H85.1937C84.8041 139.684 84.4883 139.999 84.4883 140.389V141.184C84.4883 141.574 84.8041 141.889 85.1937 141.889H86.6342C87.0238 141.889 87.3397 141.574 87.3397 141.184V140.389C87.3397 139.999 87.0238 139.684 86.6342 139.684Z" fill="#BC9983"/>
<path d="M86.6342 141.98H85.1937C84.8041 141.98 84.4883 142.296 84.4883 142.686V143.481C84.4883 143.87 84.8041 144.186 85.1937 144.186H86.6342C87.0238 144.186 87.3397 143.87 87.3397 143.481V142.686C87.3397 142.296 87.0238 141.98 86.6342 141.98Z" fill="#BC9983"/>
<path d="M86.6342 156.363H85.1937C84.8041 156.363 84.4883 156.679 84.4883 157.069V157.864C84.4883 158.253 84.8041 158.569 85.1937 158.569H86.6342C87.0238 158.569 87.3397 158.253 87.3397 157.864V157.069C87.3397 156.679 87.0238 156.363 86.6342 156.363Z" fill="#BC9983"/>
<path d="M87.327 132.129H84.5V140.724H87.327V132.129Z" fill="#D3B39E"/>
<path d="M87.327 157.727H84.5V161.129H87.327V157.727Z" fill="#D3B39E"/>
<path d="M86.8019 156.106L86.7353 156.35H85.1838C84.728 154.934 84.5266 153.434 84.5893 151.933L84.9177 144.125H86.8968L87.2373 152.223C87.2923 153.535 87.1454 154.848 86.8019 156.107V156.106Z" fill="#D3B39E"/>
<path d="M91.4858 139.684H90.0453C89.6557 139.684 89.3398 139.999 89.3398 140.389V141.184C89.3398 141.574 89.6557 141.889 90.0453 141.889H91.4858C91.8754 141.889 92.1912 141.574 92.1912 141.184V140.389C92.1912 139.999 91.8754 139.684 91.4858 139.684Z" fill="#BC9983"/>
<path d="M91.4858 141.98H90.0453C89.6557 141.98 89.3398 142.296 89.3398 142.686V143.481C89.3398 143.87 89.6557 144.186 90.0453 144.186H91.4858C91.8754 144.186 92.1912 143.87 92.1912 143.481V142.686C92.1912 142.296 91.8754 141.98 91.4858 141.98Z" fill="#BC9983"/>
<path d="M91.4858 156.363H90.0453C89.6557 156.363 89.3398 156.679 89.3398 157.069V157.864C89.3398 158.253 89.6557 158.569 90.0453 158.569H91.4858C91.8754 158.569 92.1912 158.253 92.1912 157.864V157.069C92.1912 156.679 91.8754 156.363 91.4858 156.363Z" fill="#BC9983"/>
<path d="M92.1786 132.129H89.3516V140.724H92.1786V132.129Z" fill="#D3B39E"/>
<path d="M92.1786 157.727H89.3516V161.129H92.1786V157.727Z" fill="#D3B39E"/>
<path d="M91.6535 156.106L91.5868 156.35H90.0354C89.5795 154.934 89.3781 153.434 89.4409 151.933L89.7693 144.125H91.7483L92.0889 152.223C92.1439 153.535 91.997 154.848 91.6535 156.107V156.106Z" fill="#D3B39E"/>
<path d="M96.3452 139.684H94.9046C94.515 139.684 94.1992 139.999 94.1992 140.389V141.184C94.1992 141.574 94.515 141.889 94.9046 141.889H96.3452C96.7348 141.889 97.0506 141.574 97.0506 141.184V140.389C97.0506 139.999 96.7348 139.684 96.3452 139.684Z" fill="#BC9983"/>
<path d="M96.3452 141.98H94.9046C94.515 141.98 94.1992 142.296 94.1992 142.686V143.481C94.1992 143.87 94.515 144.186 94.9046 144.186H96.3452C96.7348 144.186 97.0506 143.87 97.0506 143.481V142.686C97.0506 142.296 96.7348 141.98 96.3452 141.98Z" fill="#BC9983"/>
<path d="M96.3452 156.363H94.9046C94.515 156.363 94.1992 156.679 94.1992 157.069V157.864C94.1992 158.253 94.515 158.569 94.9046 158.569H96.3452C96.7348 158.569 97.0506 158.253 97.0506 157.864V157.069C97.0506 156.679 96.7348 156.363 96.3452 156.363Z" fill="#BC9983"/>
<path d="M97.038 132.129H94.2109V140.724H97.038V132.129Z" fill="#D3B39E"/>
<path d="M97.038 157.727H94.2109V161.129H97.038V157.727Z" fill="#D3B39E"/>
<path d="M96.5129 156.106L96.4462 156.35H94.8948C94.4389 154.934 94.2375 153.434 94.3003 151.933L94.6286 144.125H96.6077L96.9483 152.223C97.0033 153.535 96.8563 154.848 96.5129 156.107V156.106Z" fill="#D3B39E"/>
<path d="M97.3347 160.852H54.7164C54.2905 160.852 53.9453 161.197 53.9453 161.623V163.649C53.9453 164.075 54.2905 164.421 54.7164 164.421H97.3347C97.7606 164.421 98.1058 164.075 98.1058 163.649V161.623C98.1058 161.197 97.7606 160.852 97.3347 160.852Z" fill="#BC9983"/>
<path d="M98.8148 162.008H53.2385C52.9062 162.008 52.6367 162.277 52.6367 162.61C52.6367 162.942 52.9062 163.211 53.2385 163.211H98.8148C99.147 163.211 99.4165 162.942 99.4165 162.61C99.4165 162.277 99.147 162.008 98.8148 162.008Z" fill="#D3B39E"/>
<path d="M85.4025 164.773H66.918V189.134H85.4025V164.773Z" fill="#BC9983"/>
<path d="M64.1324 164.773H55.6094V189.134H64.1324V164.773Z" fill="#BC9983"/>
<path d="M96.7613 164.773H88.2383V189.134H96.7613V164.773Z" fill="#BC9983"/>
<path d="M66.3559 164.738H64.6094V166.736H66.3559V164.738Z" fill="#BC9983"/>
<path d="M87.7504 164.738H86.0039V166.736H87.7504V164.738Z" fill="#BC9983"/>
<path d="M68.3505 167.054C68.3442 167.054 68.3384 167.052 68.332 167.052V186.815C68.3384 186.815 68.3442 186.813 68.3505 186.813C69.0282 186.813 69.578 187.206 69.578 187.691C69.578 187.702 69.5736 187.713 69.5731 187.725H82.764C82.7635 187.713 82.7592 187.702 82.7592 187.691C82.7592 187.206 83.3089 186.813 83.9866 186.813V167.053C83.3089 167.053 82.7592 166.66 82.7592 166.176H69.578C69.578 166.66 69.0282 167.053 68.3505 167.053V167.054Z" fill="#D3B39E"/>
<path d="M89.1801 167.054C89.1772 167.054 89.1748 167.052 89.1719 167.052V186.814C89.1748 186.814 89.1772 186.813 89.1801 186.813C89.4857 186.813 89.7338 187.206 89.7338 187.691C89.7338 187.702 89.7318 187.713 89.7318 187.725H95.6798C95.6798 187.713 95.6778 187.702 95.6778 187.691C95.6778 187.206 95.9255 186.813 96.2315 186.813V167.053C95.9259 167.053 95.6778 166.66 95.6778 166.176H89.7338C89.7338 166.66 89.4861 167.053 89.1801 167.053V167.054Z" fill="#D3B39E"/>
<path d="M56.188 167.054C56.185 167.054 56.1826 167.052 56.1797 167.052V186.815C56.1826 186.815 56.185 186.813 56.188 186.813C56.4935 186.813 56.7416 187.206 56.7416 187.691C56.7416 187.702 56.7396 187.713 56.7396 187.725H62.6876C62.6876 187.713 62.6856 187.702 62.6856 187.691C62.6856 187.206 62.9333 186.813 63.2393 186.813V167.053C62.9338 167.053 62.6856 166.66 62.6856 166.176H56.7416C56.7416 166.66 56.494 167.053 56.188 167.053V167.054Z" fill="#D3B39E"/>
<path d="M69.1077 187.152H67.8594V189.15H69.1077V187.152Z" fill="white"/>
<path d="M69.107 189.226H67.8586C67.8158 189.226 67.7812 189.192 67.7812 189.149V187.152C67.7812 187.109 67.8158 187.074 67.8586 187.074H69.107C69.1498 187.074 69.1843 187.109 69.1843 187.152V189.149C69.1843 189.192 69.1498 189.226 69.107 189.226ZM67.936 189.072H69.0296V187.229H67.936V189.072Z" fill="#1A2E35"/>
<path d="M84.4007 187.152H83.1523V189.15H84.4007V187.152Z" fill="white"/>
<path d="M84.3999 189.226H83.1516C83.1088 189.226 83.0742 189.192 83.0742 189.149V187.152C83.0742 187.109 83.1088 187.074 83.1516 187.074H84.3999C84.4427 187.074 84.4773 187.109 84.4773 187.152V189.149C84.4773 189.192 84.4427 189.226 84.3999 189.226ZM83.2289 189.072H84.3226V187.229H83.2289V189.072Z" fill="#1A2E35"/>
<path d="M67.7127 172.479C67.7127 172.479 68.4323 172.439 68.5125 173.119C68.5923 173.798 68.2727 175.998 67.8728 176.437C67.4729 176.877 66.9932 176.917 66.9932 176.917C66.9932 176.917 66.6332 179.436 66.5933 179.556C66.5534 179.676 66.3934 179.956 66.3934 179.956L58.7164 180.036L58.5164 177.117C58.5164 177.117 57.7969 176.317 57.397 175.797C56.9971 175.278 56.3574 173.438 56.5573 172.759C56.7573 172.079 57.5571 172.079 57.5571 172.079L66.3539 171.879L67.7132 172.479H67.7127Z" fill="#FCC0A9"/>
<path d="M59.0763 165.638C59.0763 165.638 57.0369 166.997 56.797 168.637C56.5572 170.276 56.997 172.115 57.1171 172.475C57.2373 172.835 58.2521 176.523 59.1964 177.433C59.9558 178.165 62.8111 178.44 64.1947 178.273C65.1492 178.157 65.914 177.273 66.0741 176.793C66.2341 176.314 67.2339 172.395 67.2339 172.395L67.7136 172.475C67.7136 172.475 67.8736 171.475 67.8736 170.516C67.8736 169.556 67.8337 169.116 67.5136 168.556C67.194 167.996 67.5136 166.957 66.6739 166.117C65.8342 165.277 61.9558 164.678 60.6764 164.998C59.3969 165.317 59.0767 165.637 59.0767 165.637L59.0763 165.638Z" fill="#0A0A0C"/>
<path d="M65.5533 164.704C65.5533 164.704 67.1626 165.889 67.4054 166.788C67.6481 167.688 67.9483 171.942 67.9483 171.942C67.9483 171.942 63.9794 174.237 60.4197 173.546C56.8605 172.854 56.447 170.81 56.4299 170.401C56.4129 169.991 57.2468 166.35 57.8199 165.327C58.393 164.304 61.005 163.933 62.7754 164.053C64.5457 164.174 65.5533 164.705 65.5533 164.705V164.704Z" fill="#BC9983"/>
<path d="M79.2191 192.002C78.9033 190.984 78.0724 188.475 77.4681 188.189C76.7082 187.829 69.1115 182.471 69.1115 182.471C69.1115 182.471 66.7525 180.192 62.6742 180.432C58.5959 180.672 55.797 182.351 55.797 182.351C55.797 182.351 49.3996 186.27 48.9598 186.629C48.52 186.989 47.6803 187.189 47.4404 187.869C47.2006 188.548 46.6406 191.987 46.6406 191.987L47.7051 192.001H79.22L79.2191 192.002Z" fill="#FF7274"/>
<path d="M68.872 181.872C68.872 181.872 67.7925 180.112 67.4724 179.832C67.1523 179.552 63.394 178.953 61.6344 179.113C59.8752 179.273 58.8356 179.433 57.9959 179.873C57.1562 180.312 55.7969 182.352 55.7969 182.352C55.7969 182.352 58.8355 180.952 62.7144 181.272C66.5928 181.592 69.1119 182.472 69.1119 182.472L68.872 181.872V181.872Z" fill="#FF7274"/>
<path d="M43.1112 172.471C43.1112 172.471 43.8307 172.431 43.911 173.111C43.9908 173.791 43.6711 175.99 43.2712 176.43C42.8713 176.87 42.3916 176.909 42.3916 176.909C42.3916 176.909 42.0316 179.429 41.9917 179.548C41.9519 179.668 41.7918 179.948 41.7918 179.948L34.1148 180.028L33.9149 177.109C33.9149 177.109 33.1953 176.309 32.7954 175.79C32.3955 175.27 31.7558 173.431 31.9557 172.751C32.1557 172.071 32.9555 172.071 32.9555 172.071L41.7524 171.871L43.1117 172.471H43.1112Z" fill="#FCC0A9"/>
<path d="M34.4747 165.634C34.4747 165.634 32.4353 166.993 32.1954 168.633C31.9556 170.272 32.3954 172.111 32.5151 172.471C32.6352 172.831 33.6501 176.52 34.5944 177.429C35.3538 178.161 38.2091 178.436 39.5927 178.269C40.5472 178.154 41.312 177.269 41.472 176.79C41.6321 176.31 42.6313 172.391 42.6313 172.391L43.111 172.471C43.111 172.471 43.2711 171.471 43.2711 170.512C43.2711 169.552 43.2312 169.112 42.9111 168.553C42.591 167.993 42.9111 166.953 42.0714 166.113C41.2317 165.274 37.3533 164.674 36.0738 164.994C34.7943 165.314 34.4742 165.634 34.4742 165.634L34.4747 165.634Z" fill="#0A0A0C"/>
<path d="M54.6167 191.998C54.301 190.981 53.47 188.471 52.8658 188.185C52.1059 187.825 44.5087 182.467 44.5087 182.467C44.5087 182.467 42.1497 180.188 38.0713 180.428C33.993 180.668 31.1942 182.347 31.1942 182.347C31.1942 182.347 24.7967 186.266 24.3569 186.626C23.9171 186.986 23.0774 187.185 22.8376 187.865C22.6401 188.425 22.2265 191.076 22.0859 191.998H54.6172H54.6167Z" fill="#4082A3"/>
<path d="M44.2666 181.868C44.2666 181.868 43.187 180.109 42.8669 179.828C42.5473 179.549 38.7886 178.949 37.0289 179.109C35.2697 179.269 34.2301 179.429 33.3904 179.869C32.5507 180.309 31.1914 182.348 31.1914 182.348C31.1914 182.348 34.2301 180.948 38.1089 181.269C41.9873 181.589 44.5064 182.468 44.5064 182.468L44.2666 181.868V181.868Z" fill="#4082A3"/>
<path d="M100.763 173.69C100.763 173.69 100.963 173.011 101.363 173.25C101.763 173.49 102.043 175.05 101.563 176.049C101.083 177.049 100.763 177.369 100.763 177.369C100.763 177.369 100.603 176.129 100.643 175.529C100.683 174.929 100.763 173.69 100.763 173.69V173.69Z" fill="#FCC0A9"/>
<path d="M90.0078 174.488C90.0078 174.488 90.1679 176.647 90.5678 177.567C90.9677 178.486 91.6074 180.286 91.8473 180.646C92.0871 181.006 92.6072 181.165 92.7668 181.406C92.9268 181.646 93.2065 181.725 93.2065 181.725C93.2065 181.725 95.4055 179.206 96.6451 178.926C97.8847 178.647 100.723 179.047 100.723 179.047C100.723 179.047 100.684 177.727 100.763 177.367C100.843 177.007 101.323 176.128 101.083 174.728C100.843 173.329 100.403 172.449 100.403 172.449C100.403 172.449 95.605 173.849 93.3262 173.769C91.047 173.689 90.0876 173.489 90.0876 173.489L90.0078 174.489V174.488Z" fill="#FCC0A9"/>
<path d="M90.4063 174.209C90.4063 174.209 90.6461 175.329 90.7663 175.888C90.8864 176.448 91.406 177.728 91.6459 177.488C91.8857 177.248 91.966 176.808 91.966 176.808C91.966 176.808 92.7658 178.568 93.2056 178.848C93.6454 179.128 95.1248 179.528 95.6045 179.328C96.0842 179.128 99.243 178.888 99.9227 178.608C100.602 178.328 100.683 177.608 101.002 176.689C101.322 175.769 101.122 175.409 101.082 174.73C101.042 174.05 100.762 173.25 100.762 173.25L90.4063 174.21V174.209Z" fill="#0A0A0C"/>
<path d="M91.7699 167.213C91.7699 167.213 90.2505 168.372 90.0506 169.252C89.8506 170.132 89.7305 174.29 89.7305 174.29C89.7305 174.29 93.6891 176.53 97.1277 175.849C100.566 175.17 100.886 173.17 100.886 172.77C100.886 172.371 99.9265 168.812 99.3272 167.812C98.7273 166.813 96.1683 166.453 94.449 166.573C92.7297 166.693 91.7699 167.213 91.7699 167.213Z" fill="#BC9983"/>
<path d="M91.4099 175.611C91.4099 175.611 91.4498 176.89 91.3302 177.61C91.21 178.329 90.9702 179.009 91.3701 179.249C91.77 179.489 92.0896 178.809 92.1699 178.089C92.2496 177.37 92.4496 176.37 92.1699 175.93C91.8901 175.491 91.57 175.211 91.4099 175.61V175.611Z" fill="#FCC0A9"/>
<path d="M102.244 179.448C102.244 179.448 101.285 177.969 99.8455 177.729C98.406 177.489 96.0469 178.089 94.5675 178.969C93.088 179.848 92.3281 181.688 92.3281 181.688C92.3281 181.688 97.286 179.648 100.085 179.648C102.885 179.648 102.244 179.448 102.244 179.448Z" fill="#FF7274"/>
<path d="M91.4019 191.998L113.279 190.563C113.119 189.284 110.52 181.447 109.28 180.927C108.041 180.407 102.243 179.447 102.243 179.447C102.243 179.447 96.8862 179.216 92.3267 181.686C92.3267 181.686 87.7682 183.606 87.4486 184.206C87.1776 184.714 84.8974 190.303 84.207 191.998H91.4019Z" fill="#FF7274"/>
<path d="M107.858 172.97C107.858 172.97 107.066 172.009 106.727 172.97C106.388 173.932 106.388 176.872 106.67 177.325C106.953 177.777 107.292 177.721 107.292 177.721C107.292 177.721 106.896 178.569 107.066 179.248C107.236 179.927 107.689 180.153 107.689 180.153L108.085 181.284L116.341 181.623L117.076 180.209L117.812 179.361C117.812 179.361 118.264 179.7 118.716 179.531C119.169 179.361 120.13 177.495 120.244 176.533C120.357 175.572 120.131 175.232 120.131 175.232L107.859 172.97H107.858Z" fill="#FCC0A9"/>
<path d="M107.872 172.169C107.872 172.169 107.916 174.835 108.255 176.079C108.595 177.323 108.764 178.906 110.009 179.472C111.253 180.038 115.777 180.66 116.343 180.49C116.908 180.32 117.926 179.246 118.718 177.889C119.509 176.531 120.131 175.23 120.131 175.23L120.244 174.608L108.764 171.215L107.871 172.168L107.872 172.169Z" fill="#0A0A0C"/>
<path d="M112.652 165.791C112.652 165.791 110.792 165.658 110.261 166.521C109.729 167.385 107.802 171.238 107.869 172.169C107.936 173.099 109.596 174.892 112.918 175.69C116.24 176.487 118.499 176.155 119.496 175.623C120.492 175.091 120.692 173.364 120.692 173.364C120.692 173.364 121.954 169.777 120.293 168.116C118.632 166.455 115.908 164.86 112.653 165.791H112.652Z" fill="#D3B39E"/>
<path d="M127.731 192.002C127.736 191.409 127.733 190.765 127.708 190.383C127.652 189.535 127.029 188.008 126.068 187.216C125.107 186.424 118.49 182.579 118.49 182.579C118.49 182.579 117.585 181.278 116.341 180.486C115.097 179.695 111.081 179.242 109.272 179.921C107.462 180.6 107.123 180.939 106.953 181.391C106.783 181.844 106.67 182.126 106.67 182.126C106.67 182.126 99.3183 185.406 97.8481 186.707C96.3779 188.008 96.0948 188.008 95.9255 188.856C95.8039 189.463 95.6535 191.113 95.5781 192.002H127.732L127.731 192.002Z" fill="#4082A3"/>
<path d="M74.2799 165.273C74.2799 165.273 73.4621 165.369 73.4621 165.898C73.4621 166.427 73.2699 166.956 73.2699 167.197C73.2699 167.438 73.5584 167.726 73.4144 167.966C73.27 168.207 73.2699 167.822 73.2699 168.592V170.083C73.2699 170.323 73.3181 171.574 73.3181 171.718C73.3181 171.863 72.4521 171.045 72.3563 171.959C72.26 172.873 72.3563 175.518 72.4526 175.999C72.549 176.48 72.9338 176.672 72.9338 176.672C72.9338 176.672 73.1259 178.308 73.2704 179.222C73.4149 180.136 73.9919 180.905 73.9919 180.905L73.8956 182.156L82.8423 182.492L83.2271 180.183C83.2271 180.183 83.8041 179.317 83.8523 178.981C83.9004 178.644 83.9968 178.019 83.9968 178.019C83.9968 178.019 85.0067 177.73 85.1994 177.538C85.3916 177.345 85.969 175.181 85.969 174.219C85.969 173.257 85.5361 173.257 85.3439 173.305L85.1512 173.353C85.1512 173.353 85.5361 171.429 85.5842 171.237C85.6324 171.044 86.4502 170.611 86.4984 170.13C86.5465 169.649 86.5465 168.928 86.5947 168.736C86.6428 168.543 86.691 168.543 86.4025 167.726C86.114 166.908 86.8837 167.341 86.114 166.427C85.3444 165.512 85.0559 165.417 84.9596 164.984C84.8632 164.551 84.7192 164.214 84.7192 164.214L83.9496 163.974C83.9496 163.974 83.7569 163.349 83.3726 163.252C82.9878 163.156 82.603 163.156 82.4585 163.156C82.314 163.156 82.17 163.011 81.7851 162.771C81.4003 162.531 80.9673 162.434 80.7752 162.579C80.583 162.723 80.0055 162.723 79.8134 162.531C79.6212 162.339 79.5249 162.194 79.0437 162.434C78.5626 162.675 78.3704 163.011 78.0819 162.771C77.7934 162.531 77.5049 162.483 77.1678 162.675C76.8311 162.867 76.206 163.3 76.206 163.3C76.206 163.3 75.4363 163.252 75.34 163.444C75.2437 163.637 75.1955 163.829 75.0033 163.974C74.8112 164.118 74.33 164.166 74.3782 164.455C74.4264 164.743 74.2819 164.743 74.2819 165.273H74.2799Z" fill="#FCC0A9"/>
<path d="M86.1156 166.427C85.3459 165.512 85.0574 165.417 84.9611 164.984C84.8648 164.551 84.7208 164.214 84.7208 164.214L83.9511 163.974C83.9511 163.974 83.7585 163.349 83.3741 163.252C82.9893 163.156 82.6045 163.156 82.46 163.156C82.3155 163.156 82.1715 163.011 81.7867 162.771C81.4019 162.531 80.9689 162.434 80.7767 162.579C80.5846 162.723 80.0071 162.723 79.8149 162.531C79.6227 162.339 79.5264 162.194 79.0453 162.434C78.5641 162.675 78.372 163.011 78.0835 162.771C77.795 162.531 77.5065 162.483 77.1693 162.675C76.8327 162.867 76.2075 163.3 76.2075 163.3C76.2075 163.3 75.4379 163.252 75.3415 163.444C75.2452 163.637 75.1971 163.829 75.0049 163.974C74.8127 164.118 74.3316 164.166 74.3797 164.455C74.4279 164.743 74.2834 164.743 74.2834 165.273C74.2834 165.273 73.4656 165.369 73.4656 165.898C73.4656 166.427 73.2734 166.956 73.2734 167.197C73.2734 167.438 73.5619 167.726 73.4179 167.966C73.2734 168.207 73.2734 167.822 73.2734 168.592V170.083C73.2734 170.323 73.3216 171.574 73.3216 171.718C73.3216 171.718 73.8027 173.306 73.8509 174.46C73.8991 175.615 74.1394 176.288 74.3802 176.721C74.6206 177.154 78.5169 178.645 80.585 178.549C82.6531 178.452 83.9039 176.432 83.9039 176.432L85.3469 173.306L85.1547 173.354C85.1547 173.354 85.5395 171.43 85.5877 171.238C85.6359 171.045 86.4537 170.612 86.5018 170.131C86.55 169.65 86.55 168.929 86.5982 168.737C86.6463 168.544 86.6945 168.544 86.406 167.727C86.1175 166.909 86.8871 167.342 86.1175 166.428L86.1156 166.427Z" fill="#0A0A0C"/>
<path d="M95.1166 192.006C95.0081 191.678 94.8485 191.186 94.6281 190.48C94.147 188.941 84.4311 184.275 84.4311 184.275C84.4311 184.275 83.517 184.324 80.2462 184.131C76.9755 183.938 71.2995 183.746 71.2995 183.746C71.2995 183.746 64.9021 185.67 63.6036 186.44C62.3051 187.209 61.7758 188.027 61.6795 188.556C61.606 188.959 61.2533 191.04 61.0898 192.006H95.1166Z" fill="#4082A3"/>
<path d="M84.4319 184.274C84.4319 184.274 84.2874 182.35 83.7586 182.061C83.2293 181.773 78.7082 181.773 77.0726 181.532C75.437 181.292 72.5029 180.907 72.2626 181.099C72.0223 181.291 71.3008 183.744 71.3008 183.744C71.3008 183.744 75.4375 184.61 78.0831 184.562C80.7286 184.514 84.4324 184.274 84.4324 184.274H84.4319Z" fill="#4082A3"/>
<path d="M130.208 91.0295H113.309L119.881 84.6914H123.636L130.208 91.0295Z" fill="#EEF3F9"/>
<path d="M121.634 84.6236C121.566 84.6236 121.512 84.5691 121.512 84.5015V79.5557C121.512 79.4886 121.566 79.4336 121.634 79.4336C121.701 79.4336 121.756 79.4881 121.756 79.5557V84.5015C121.756 84.5691 121.701 84.6236 121.634 84.6236Z" fill="#BCC5E4"/>
<path d="M39.462 91.0295H22.5625L29.1346 84.6914H32.8904L39.462 91.0295Z" fill="#EEF3F9"/>
<path d="M30.8877 84.6236C30.8201 84.6236 30.7656 84.5691 30.7656 84.5015V79.5557C30.7656 79.4886 30.8201 79.4336 30.8877 79.4336C30.9554 79.4336 31.0098 79.4881 31.0098 79.5557V84.5015C31.0098 84.5691 30.9554 84.6236 30.8877 84.6236Z" fill="#BCC5E4"/>
<path d="M59.8085 97.4531H68.114C68.7874 97.4531 69.3332 97.999 69.3332 98.6718V102.949C69.3332 103.622 68.7874 104.168 68.114 104.168H67.4942L68.7801 106.933L65.2354 104.168H59.8085C59.1352 104.168 58.5898 103.622 58.5898 102.949V98.6718C58.5898 97.9985 59.1357 97.4531 59.8085 97.4531Z" fill="#D3B39E"/>
<path d="M65.6211 100.93C65.6211 100.712 65.7982 100.535 66.0161 100.535C66.2341 100.535 66.4112 100.712 66.4112 100.93C66.4112 101.149 66.2346 101.325 66.0161 101.325C65.7977 101.325 65.6211 101.148 65.6211 100.93Z" fill="#BC9983"/>
<path d="M63.4883 100.93C63.4883 100.712 63.6649 100.535 63.8833 100.535C64.1018 100.535 64.2784 100.712 64.2784 100.93C64.2784 101.149 64.1013 101.325 63.8833 101.325C63.6654 101.325 63.4883 101.148 63.4883 100.93Z" fill="#BC9983"/>
<path d="M61.3555 100.93C61.3555 100.712 61.5321 100.535 61.7505 100.535C61.9689 100.535 62.1455 100.712 62.1455 100.93C62.1455 101.149 61.9689 101.325 61.7505 101.325C61.5321 101.325 61.3555 101.148 61.3555 100.93Z" fill="#BC9983"/>
<path d="M78.5457 112.434C78.5398 112.586 78.5335 112.737 78.5267 112.887C78.5262 112.907 78.4596 113.216 78.2659 113.484C77.9881 113.869 77.56 114.004 77.2268 114.104C76.4688 114.333 75.7678 114.279 75.2852 114.188V114.176C75.3085 113.52 75.3314 112.864 75.3542 112.207C75.3917 112.214 75.4301 112.221 75.4676 112.226C75.8641 112.349 76.3496 112.459 76.9091 112.504C77.56 112.557 78.1195 112.506 78.5452 112.435L78.5457 112.434Z" fill="#CC7358"/>
<path d="M73.9853 109.378C73.8092 109.154 73.5752 109.045 73.4044 109.1C73.2677 109.144 73.2093 109.282 73.1573 109.405C72.9792 109.826 73.1544 110.225 73.1743 110.269C73.2974 110.537 73.4915 110.69 73.6375 110.793C74.4251 111.346 74.5837 111.187 74.5837 111.187L73.9848 109.379L73.9853 109.378Z" fill="#FCC0A9"/>
<path d="M79.7468 109.339C79.9229 109.115 80.157 109.006 80.3277 109.061C80.4644 109.105 80.5228 109.243 80.5749 109.366C80.7529 109.787 80.5778 110.186 80.5578 110.23C80.4347 110.498 80.2406 110.651 80.0947 110.754C79.307 111.307 79.1484 111.148 79.1484 111.148L79.7473 109.34L79.7468 109.339Z" fill="#FCC0A9"/>
<path d="M79.7389 106.103C79.4007 105.186 78.2103 104.374 76.9624 104.391C75.2854 104.414 74.1991 105.952 73.9262 107.009C73.7977 107.508 73.8026 107.914 73.8245 108.404C73.8814 109.675 74.2667 110.668 74.5581 111.272C74.6447 111.539 74.7848 111.898 75.0159 112.293C75.303 112.783 75.5326 113.174 76.0167 113.444C76.1451 113.515 76.5338 113.725 77.068 113.703C77.4951 113.685 77.7997 113.528 77.8692 113.49C78.3197 113.247 78.5995 112.83 78.8126 112.513C78.8233 112.496 78.8306 112.485 78.8403 112.471C78.8486 112.459 79.5778 110.78 79.6503 110.293C79.7179 109.839 79.7024 109.95 79.8532 109.204C79.8853 109.045 79.9325 108.817 79.9558 108.504C79.9568 108.49 79.9719 108.28 79.9685 108.05C79.9617 107.619 79.9466 106.666 79.7389 106.103Z" fill="#FCC0A9"/>
<path d="M79.7687 109.628C79.7575 109.549 79.7443 109.469 79.7302 109.39C79.7229 109.34 79.7147 109.289 79.7059 109.238V109.248C79.7044 109.326 79.7015 109.408 79.6947 109.496V109.498C79.665 109.963 79.5658 110.537 79.306 111.149C79.3045 111.153 79.3016 111.158 79.3002 111.163C79.2068 111.381 79.1017 111.577 78.9981 111.752C78.8973 111.713 78.7796 111.674 78.6463 111.641C78.6152 111.632 78.584 111.626 78.5514 111.617C78.3812 111.58 78.1871 111.553 77.974 111.547C77.5259 111.537 77.1639 111.627 76.9314 111.705C76.7329 111.692 76.5213 111.685 76.296 111.691C75.8548 111.702 75.4617 111.756 75.1187 111.827C75.0024 111.736 74.8448 111.591 74.7047 111.381C74.6463 111.295 74.6011 111.212 74.5626 111.118L74.5612 111.113C74.5145 111.004 74.4746 110.881 74.4293 110.716C74.4167 110.672 74.405 110.625 74.3909 110.574C74.3131 110.283 74.2221 109.913 74.1326 109.478C74.1243 109.564 74.1141 109.651 74.1058 109.737V109.739C74.0971 109.811 74.0902 109.882 74.0815 109.954V109.957C74.1355 110.12 74.1793 110.278 74.2119 110.425C74.2756 110.704 74.3053 110.953 74.314 111.173C74.3238 111.4 74.3126 111.597 74.2926 111.762C74.2289 112.31 74.0815 112.606 74.0542 113.236C74.0401 113.551 74.064 113.979 74.2245 114.495C74.2941 114.605 74.4045 114.759 74.5719 114.914C74.6969 115.03 74.82 115.117 74.9494 115.191C75.0939 115.274 75.2457 115.341 75.4091 115.412C75.7083 115.544 75.8859 115.623 76.1413 115.666C76.6196 115.747 77.0122 115.66 77.2267 115.595C77.6553 115.599 77.9886 115.524 78.2138 115.454C78.3953 115.399 78.5145 115.294 78.7344 115.145C78.7811 115.112 78.8268 115.081 78.8706 115.051C79.1046 114.891 79.2792 114.763 79.397 114.623C79.6251 114.352 79.6169 113.926 79.594 113.091C79.5673 112.028 79.5006 111.901 79.5103 111.431C79.5132 111.329 79.5176 111.215 79.5274 111.089C79.5415 110.914 79.5643 110.719 79.6028 110.503C79.6028 110.5 79.6042 110.499 79.6042 110.496C79.6057 110.494 79.6057 110.492 79.6057 110.492C79.6227 110.405 79.6412 110.317 79.6626 110.223V110.222C79.6626 110.219 79.6641 110.215 79.6641 110.212C79.6981 110.066 79.7395 109.912 79.7891 109.751V109.75C79.7818 109.708 79.776 109.67 79.7687 109.628ZM76.3384 112.023C76.5524 111.968 76.6108 112.027 76.9655 111.987C77.4281 111.935 77.5142 111.891 77.7458 111.911C77.8222 111.917 77.9073 111.938 78.0027 111.987C78.1588 112.067 78.3374 112.146 78.5276 112.437L78.5291 112.44C78.4707 112.505 78.4099 112.569 78.3447 112.629C78.1588 112.796 77.9063 113.005 77.614 112.966C77.4296 112.943 77.3444 112.833 77.1386 112.852C76.9129 112.871 76.8477 113.019 76.6847 113.073C76.333 113.189 75.8806 112.757 75.649 112.515C75.7074 112.441 75.7653 112.378 75.8222 112.325C75.9029 112.246 75.9813 112.187 76.0547 112.142C76.1584 112.08 76.2547 112.044 76.3384 112.023Z" fill="#0A0A0C"/>
<path d="M74.1342 108.398C74.1357 108.228 74.159 108.01 74.2262 107.729C74.504 106.88 74.7818 106.03 75.0596 105.18C74.8217 105.263 74.2695 105.494 73.9017 106.064C73.6575 106.442 73.6015 106.803 73.5616 107.061C73.4779 107.602 73.5616 108.017 73.6609 108.546C73.7353 108.94 73.8701 109.474 74.1328 110.079C74.1328 109.897 74.1328 109.679 74.1328 109.479C74.1328 109.44 74.1328 108.505 74.1342 108.398Z" fill="#0A0A0C"/>
<path d="M80.1132 106.496C79.867 105.898 79.4637 105.488 79.1256 105.227C79.113 105.426 79.1076 105.728 79.1611 106.088C79.2249 106.514 79.3144 106.641 79.437 107.069C79.6515 107.821 79.6783 108.492 79.7138 109.386C79.7221 109.592 79.725 109.762 79.726 109.874C79.8583 109.638 80.0363 109.271 80.1585 108.796C80.2757 108.342 80.5053 107.449 80.1132 106.496V106.496Z" fill="#0A0A0C"/>
<path d="M73.5597 107.062C73.9489 106.784 75.3539 105.856 77.3092 106.013C78.8538 106.138 79.9139 106.874 80.3289 107.197C80.4048 106.923 80.65 105.907 80.1051 104.942C79.3364 103.58 77.657 103.496 77.281 103.477C76.9195 103.459 75.62 103.393 74.5823 104.392C73.4887 105.445 73.5471 106.85 73.5592 107.062L73.5597 107.062Z" fill="#D3B39E"/>
<rect x="274.5" y="1.5" width="45" height="30" rx="8.5" fill="#0EBDB2" stroke="white" stroke-width="3"/>
<path d="M291.215 25.2898C289.868 25.2841 288.718 24.929 287.763 24.2244C286.808 23.5199 286.078 22.4943 285.573 21.1477C285.067 19.8011 284.814 18.179 284.814 16.2812C284.814 14.3892 285.067 12.7727 285.573 11.4318C286.084 10.0909 286.817 9.06818 287.772 8.36364C288.732 7.65909 289.88 7.30682 291.215 7.30682C292.55 7.30682 293.695 7.66193 294.649 8.37216C295.604 9.0767 296.334 10.0994 296.84 11.4403C297.351 12.7756 297.607 14.3892 297.607 16.2812C297.607 18.1847 297.354 19.8097 296.848 21.1562C296.343 22.4972 295.612 23.5227 294.658 24.233C293.703 24.9375 292.556 25.2898 291.215 25.2898ZM291.215 23.0142C292.397 23.0142 293.32 22.4375 293.985 21.2841C294.655 20.1307 294.99 18.4631 294.99 16.2812C294.99 14.8324 294.837 13.608 294.53 12.608C294.229 11.6023 293.794 10.8409 293.226 10.3239C292.664 9.80114 291.993 9.53977 291.215 9.53977C290.039 9.53977 289.115 10.1193 288.445 11.2784C287.774 12.4375 287.436 14.1051 287.431 16.2812C287.431 17.7358 287.581 18.9659 287.882 19.9716C288.189 20.9716 288.624 21.7301 289.186 22.2472C289.749 22.7585 290.425 23.0142 291.215 23.0142ZM298.83 25L306.449 9.93182V9.80398H297.636V7.54545H309.176V9.88068L301.582 25H298.83Z" fill="white"/>
</svg>
