<svg width="37" height="37" viewBox="0 0 37 37" fill="none" xmlns="http://www.w3.org/2000/svg">
<circle cx="18.5" cy="18.5" r="18.5" fill="#CAE0FF"/>
<path d="M18.5443 9.26193C19.2633 8.84742 20.0352 8.56279 20.8342 8.35042C21.8412 8.08283 22.869 7.96318 23.9102 8.00988C26.3907 8.12067 28.5838 8.97116 30.4544 10.605C32.3158 12.2306 33.4846 14.2674 33.8933 16.6968C34.394 19.6737 33.7459 22.4083 31.9166 24.8248C30.2933 26.9689 28.133 28.3048 25.4839 28.8069C23.0828 29.262 20.786 28.9095 18.6141 27.7826C18.5891 27.7696 18.5672 27.7512 18.5439 27.7352C18.561 27.6421 18.6445 27.6176 18.7115 27.5801C19.3878 27.198 20.0089 26.7429 20.5849 26.222C21.6278 25.2788 22.4377 24.1669 23.037 22.9012C23.275 22.3981 23.4768 21.8799 23.6178 21.3396C23.6482 21.2224 23.653 21.0894 23.758 21.0008C23.9406 20.9401 24.1219 21.0008 24.2984 21.025C25.4011 21.1777 26.3589 21.6491 27.2037 22.364C27.4435 22.5668 27.6586 22.7914 27.8676 23.0242C28.014 23.1872 28.183 23.1964 28.3163 23.0723C28.4251 22.9714 28.4463 22.8477 28.3735 22.7185C28.3372 22.6541 28.2914 22.5954 28.2414 22.5409C27.321 21.5414 26.2244 20.8331 24.8867 20.5219C24.609 20.4571 24.3254 20.4291 24.0439 20.391C23.9885 20.3835 23.929 20.3848 23.8828 20.3436C23.8408 20.1435 23.9109 19.9509 23.9314 19.7562C23.9776 19.322 24.0255 18.8873 24.0166 18.451C23.9875 17.0418 23.7258 15.68 23.1625 14.3802C22.7322 13.3873 22.1624 12.4809 21.4557 11.6634C20.6803 10.7666 19.7743 10.0218 18.7389 9.43612C18.6626 9.39283 18.5658 9.36795 18.5439 9.26227L18.5443 9.26193Z" fill="#0A9DD8"/>
<path d="M18.4959 27.7367C17.9195 28.0745 17.3025 28.3199 16.6663 28.5159C15.1948 28.9689 13.6943 29.107 12.1654 28.9004C9.46636 28.5353 7.23558 27.3109 5.47032 25.2489C4.23453 23.8053 3.44442 22.1381 3.14993 20.268C2.63003 16.9656 3.45913 14.0207 5.68615 11.5081C7.29681 9.69053 9.32647 8.57755 11.7279 8.16509C14.0764 7.76183 16.3116 8.11975 18.4278 9.21227C18.4524 9.22488 18.4733 9.245 18.4962 9.2617C18.4941 9.34999 18.4151 9.36396 18.3597 9.39601C17.4766 9.9046 16.6711 10.5148 15.9661 11.2497C15.2903 11.9546 14.7173 12.7363 14.259 13.6011C13.7463 14.5682 13.3892 15.5871 13.199 16.6635C13.1269 17.0716 13.0896 17.483 13.0588 17.8965C12.9764 19.001 13.1108 20.0812 13.3803 21.1499C13.6539 22.2342 14.1171 23.235 14.7153 24.1772C14.7649 24.2553 14.8487 24.3255 14.8039 24.437C14.5805 24.5583 14.3295 24.5539 14.0894 24.5713C13.1183 24.6425 12.1808 24.4905 11.286 24.1005C10.5277 23.7702 9.83953 23.3322 9.24233 22.7574C9.20128 22.7179 9.16298 22.6756 9.11646 22.6426C8.97246 22.541 8.82401 22.5526 8.71798 22.6732C8.60237 22.8048 8.6034 22.9299 8.72858 23.0676C9.12638 23.5053 9.59873 23.851 10.0998 24.1588C10.9912 24.7066 11.9567 25.0499 12.9989 25.1593C13.6823 25.2309 14.3623 25.178 15.0337 25.0297C15.1059 25.0137 15.1764 24.9885 15.2516 24.9899C15.3145 24.9984 15.346 25.0475 15.3816 25.0914C16.2168 26.1229 17.2228 26.953 18.3731 27.6136C18.4233 27.6426 18.4976 27.6528 18.4962 27.736L18.4959 27.7367Z" fill="#F2C84C"/>
<path d="M14.8085 24.4208C14.5623 24.007 14.3009 23.602 14.0875 23.1688C13.5721 22.1233 13.2304 21.027 13.0833 19.8697C12.7683 17.3936 13.2635 15.0879 14.5732 12.9652C15.5186 11.4326 16.7951 10.231 18.3668 9.34304C18.4109 9.31816 18.4523 9.2885 18.495 9.26123C18.5111 9.26123 18.5272 9.26157 18.5432 9.26191C19.1168 9.59768 19.6798 9.94981 20.1915 10.3759C22.0762 11.9446 23.301 13.9173 23.8219 16.3127C24.112 17.6469 24.1329 18.9892 23.89 20.334C23.8216 20.408 23.7306 20.3828 23.6489 20.3817C23.1512 20.3766 22.6631 20.4404 22.1795 20.5552C21.3069 20.7628 20.5055 21.1317 19.7459 21.6007C19.1001 21.9992 18.5258 22.4911 17.9283 22.9526C17.0845 23.6044 16.164 24.1147 15.1249 24.3908C15.0226 24.4181 14.9193 24.4651 14.8092 24.4208H14.8085Z" fill="#18A64B"/>
<path d="M18.4953 27.7364C18.0473 27.4682 17.5989 27.2002 17.1826 26.8836C16.4698 26.3409 15.8281 25.7256 15.272 25.023C15.2898 24.9624 15.3462 24.9569 15.3931 24.9436C16.6665 24.5819 17.7586 23.9002 18.7635 23.0592C19.5656 22.3877 20.4316 21.8147 21.4099 21.4264C22.0919 21.1554 22.7989 20.9915 23.5367 20.9788C23.6071 20.9775 23.6872 20.9574 23.7412 21.03C23.393 22.4552 22.7602 23.7444 21.8627 24.9041C20.9905 26.031 19.9329 26.9473 18.6859 27.6441C18.6366 27.6717 18.5908 27.7051 18.5432 27.7358C18.5272 27.7358 18.5111 27.7364 18.4953 27.7368V27.7364Z" fill="#18A64B"/>
<path d="M23.7417 21.0295C22.8845 20.9995 22.0732 21.1972 21.2896 21.5251C20.3575 21.9155 19.5308 22.4731 18.7606 23.1191C17.7259 23.9866 16.5893 24.6687 15.2724 25.0229C14.6332 25.177 13.9874 25.2568 13.3276 25.2247C12.0128 25.1603 10.8324 24.7168 9.75022 23.9883C9.39553 23.7497 9.06204 23.4845 8.75967 23.1818C8.54932 22.9712 8.52572 22.783 8.69058 22.6214C8.84758 22.4673 9.03502 22.4953 9.24024 22.6903C10.3242 23.719 11.5959 24.3637 13.0937 24.5211C13.6676 24.5815 14.2429 24.547 14.8093 24.4209C16.1792 24.1261 17.3264 23.4157 18.3864 22.5342C19.4429 21.6554 20.5963 20.945 21.9357 20.5693C22.576 20.3897 23.2283 20.3229 23.8908 20.3338C25.3062 20.4265 26.5413 20.9549 27.6163 21.8677C27.8851 22.0961 28.1369 22.3433 28.3595 22.617C28.51 22.8017 28.4977 22.9902 28.3353 23.1273C28.1779 23.2602 27.9853 23.2323 27.8284 23.0516C26.9938 22.09 25.9704 21.4324 24.7206 21.144C24.3994 21.0697 24.0734 21.0213 23.7417 21.0292V21.0295Z" fill="#020202"/>
<path d="M29.7447 15.6334C29.7327 16.3684 29.5764 17.06 29.0907 17.6395C28.5144 18.3274 27.699 18.3223 27.1182 17.6375C26.758 17.2127 26.5795 16.7082 26.5035 16.1693C26.3944 15.3945 26.4875 14.6445 26.8692 13.9481C27.0765 13.5701 27.3573 13.264 27.7811 13.1239C28.2322 12.9746 28.7353 13.1559 29.0952 13.5875C29.4512 14.0143 29.625 14.516 29.7074 15.0567C29.7365 15.2479 29.7471 15.4398 29.7447 15.6334Z" fill="#010101"/>
<path d="M7.30368 15.6026C7.31463 14.8786 7.4641 14.1951 7.93132 13.6166C8.51792 12.8905 9.35421 12.8912 9.95038 13.6108C10.2979 14.0301 10.4689 14.5261 10.5448 15.0541C10.6495 15.7826 10.5657 16.4899 10.2432 17.1594C10.1344 17.3854 9.99177 17.5892 9.81015 17.7661C9.28443 18.2781 8.60548 18.2846 8.07977 17.7702C7.63443 17.3342 7.4381 16.779 7.34233 16.1797C7.31189 15.9888 7.29889 15.7965 7.30334 15.6026H7.30368Z" fill="#010101"/>
<path d="M16.8832 15.398C16.8975 14.6682 17.0525 13.981 17.5255 13.3977C18.0943 12.6972 18.9552 12.6986 19.5251 13.3984C19.5931 13.4819 19.6639 13.5664 19.7132 13.6612C20.3473 14.8696 20.3453 16.0705 19.6516 17.2558C19.5299 17.4637 19.3564 17.6307 19.1512 17.7603C18.6204 18.0957 18.002 17.9815 17.5628 17.4716C17.1828 17.0305 17.0001 16.5069 16.918 15.9417C16.892 15.762 16.8715 15.5814 16.8828 15.398H16.8832Z" fill="#010101"/>
</svg>
