<svg width="92" height="70" viewBox="0 0 92 70" fill="none" xmlns="http://www.w3.org/2000/svg">
<path d="M5.50565 0.765452L63.7286 0.765457C66.7568 0.765457 69.2344 3.24307 69.2344 6.27126L69.2344 64.4942C69.2344 67.5224 66.7568 70 63.7286 70L5.50564 70C2.47745 70 -0.000160001 67.5224 -0.000159736 64.4942L-0.000154646 6.27125C-0.000154381 3.24307 2.47745 0.765451 5.50565 0.765452Z" fill="#FC9A99"/>
<path d="M28.2044 0.765452L86.4273 0.765457C89.4555 0.765457 91.9331 3.24307 91.9331 6.27126L91.9331 64.4942C91.9331 67.5224 89.4555 70 86.4273 70L28.2044 70C25.1762 70 22.6986 67.5224 22.6986 64.4942L22.6986 6.27125C22.6986 3.24307 25.1762 0.765451 28.2044 0.765452Z" fill="#E21A1C"/>
<path d="M10.1258 6.46119L12.6309 6.46119C15.6591 6.46119 18.1367 8.9388 18.1367 11.967L18.1367 58.7989C18.1367 61.8271 15.6591 64.3047 12.6309 64.3047L10.1258 64.3047C7.09759 64.3047 4.61998 61.8271 4.61998 58.7989L4.61998 11.967C4.61998 8.9388 7.0976 6.46119 10.1258 6.46119Z" fill="#E21A1C"/>
<path d="M33.905 6.46607L80.7369 6.46607C83.7651 6.46607 86.2427 8.94368 86.2427 11.9719L86.2427 58.8038C86.2427 61.832 83.7651 64.3096 80.7369 64.3096L33.905 64.3096C30.8768 64.3096 28.3992 61.832 28.3992 58.8038L28.3992 11.9719C28.3992 8.94367 30.8768 6.46607 33.905 6.46607Z" fill="#FC9A99"/>
<path d="M57.9802 44.6967C58.1669 44.4358 58.4235 44.3647 58.7501 44.4833C59.9866 44.934 61.0832 45.5744 62.0397 46.4521C62.2964 46.713 62.343 46.9977 62.1797 47.2823L60.0333 50.7455C59.8 51.0539 59.52 51.0776 59.2167 50.8404C58.9134 50.6032 57.8402 49.8916 55.9738 48.7767C55.6705 48.587 55.6238 48.326 55.8105 48.0176L57.9802 44.6967ZM41.1589 35.2321C39.689 33.3582 39.4324 30.9861 40.4356 28.0922C40.8556 26.9299 41.6255 25.6964 42.792 24.368C43.212 23.8936 43.5853 23.8224 43.8886 24.1308C44.1919 24.4392 44.1219 24.795 43.7486 25.222C42.6754 26.3843 42.2088 27.4754 42.3721 28.4954C42.932 32.0061 47.4581 33.7615 55.8805 33.7615C63.0196 33.7852 68.9456 32.4331 73.635 29.7764C73.3784 28.6615 72.7252 27.6178 71.6286 26.6689C71.3486 26.408 71.2786 26.0522 71.442 25.6015L72.7951 21.569C73.0751 20.7387 73.5417 20.8099 74.1716 21.8299C75.6881 24.2257 76.1781 27.1908 75.5948 30.7015C75.2915 32.4331 74.6616 33.6191 73.6584 34.2596C68.7589 37.4145 62.763 39.1935 55.6938 39.573C48.6013 39.9289 43.7486 38.4819 41.1589 35.2321Z" fill="#E21A1C"/>
</svg>
