<svg width="31" height="39" viewBox="0 0 31 39" fill="none" xmlns="http://www.w3.org/2000/svg">
<path d="M17.3247 22.1423C17.575 22.0629 17.847 22.0412 18.119 21.9907C18.9677 21.8391 19.8164 21.6947 20.676 21.543C20.8174 21.5142 20.9589 21.5142 21.1003 21.543C23.1459 21.9041 25.1806 22.2579 27.2261 22.6117C27.4873 22.655 27.4873 22.655 27.4873 22.4745C27.4873 21.4347 27.4873 20.395 27.4873 19.3552C27.4873 19.2686 27.4655 19.1819 27.422 19.1025C27.1826 18.6548 26.9432 18.2072 26.7039 17.7595C26.6168 17.6007 26.6277 17.6007 26.8671 17.5934C27.0629 17.5934 27.3132 17.6512 27.4438 17.5573C27.5634 17.4707 27.4764 17.3118 27.4764 17.1819C27.4764 16.7486 27.4764 16.3154 27.4764 15.8822C27.4764 15.8028 27.4655 15.745 27.335 15.7089C27.2044 15.6728 27.1717 15.5934 27.1609 15.5067C27.1609 15.1168 27.1609 14.7341 27.1609 14.3442C27.1609 14.3226 27.1609 14.2865 27.1717 14.2792C27.3894 14.1926 27.237 14.0987 27.1826 14.0049C27.0738 13.8027 27.0738 13.5933 27.15 13.3839C27.2914 12.9579 27.509 12.5536 27.7158 12.142C28.0531 11.4705 28.4121 10.8062 28.6406 10.113C28.6842 10.113 28.695 10.1275 28.7059 10.1419C28.9779 10.9939 29.4676 11.8026 29.8593 12.6258C29.9898 12.9001 30.1204 13.1745 30.2075 13.4561C30.2727 13.6799 30.2401 13.8893 30.0986 14.0987C30.0551 14.1565 29.9898 14.2143 30.1422 14.2504C30.2075 14.2648 30.1857 14.3226 30.1857 14.3587C30.1857 14.7341 30.1857 15.1168 30.1857 15.4923C30.1857 15.5934 30.1422 15.6728 29.9898 15.7161C29.881 15.745 29.8593 15.8028 29.8593 15.8677C29.8593 16.4093 29.8593 16.9436 29.8593 17.4851C29.8593 17.5934 29.9137 17.6368 30.0769 17.6295C30.2183 17.6295 30.3707 17.6295 30.5121 17.6295C30.6862 17.6295 30.7297 17.6584 30.6644 17.774C30.4142 18.2361 30.1748 18.691 29.9246 19.1531C29.881 19.2325 29.8593 19.3119 29.8593 19.3913C29.8593 20.561 29.8593 21.738 29.8593 22.9077C29.8593 23.0377 29.9137 23.0954 30.1095 23.1243C30.4033 23.1676 30.6862 23.2254 30.9691 23.2759C31.0235 23.3193 30.9909 23.3626 30.9909 23.4059C30.9909 23.8175 30.9909 24.2218 30.9909 24.6334C30.9691 24.7922 30.8821 24.8211 30.6753 24.7778C30.3489 24.7056 30.0116 24.6623 29.6743 24.6045C29.0323 24.5034 28.4013 24.3807 27.7593 24.2652C27.4982 24.2146 27.2261 24.2002 26.9759 24.1496C26.7365 24.0991 26.508 24.0558 26.2686 24.0052C26.0728 23.9619 25.8443 23.9763 25.6593 23.9041C25.4744 23.8536 25.2894 23.803 25.0935 23.7742C24.963 23.7742 24.8324 23.7453 24.7018 23.7308C23.4723 23.4853 22.1993 23.312 20.9697 23.0666C20.9262 23.0449 20.8609 23.0305 20.8283 23.0016C20.7739 22.9149 20.8065 22.8283 20.8065 22.7416C20.8065 22.4528 20.8065 22.1712 20.8065 21.8824C20.8065 21.673 20.7412 21.6441 20.4366 21.6947C19.5117 21.8535 18.5977 22.0124 17.6729 22.1712C17.5532 22.1929 17.4226 22.2434 17.3247 22.1351V22.1423Z" fill="#2A2E32"/>
<path d="M7.06252 22.1557C7.30942 22.1629 7.53281 22.1052 7.7562 22.0691C8.7438 21.9177 9.71966 21.759 10.7073 21.5932C10.8719 21.5643 10.9424 21.5788 10.9424 21.6941C10.9424 22.0908 10.9424 22.4874 10.9424 22.884C10.9424 22.9272 10.9189 22.9633 10.9071 23.0066C10.8719 23.0859 10.7543 23.1003 10.6485 23.1219C9.90777 23.2517 9.15531 23.3599 8.40284 23.4825C6.56872 23.7781 4.73459 24.0738 2.91222 24.3695C2.05394 24.5065 1.20742 24.6435 0.349146 24.7805C0.0787295 24.8238 0.00818737 24.7805 0.00818737 24.6074C0.00818737 24.218 0.00818737 23.8214 0.00818737 23.432C0.00818737 23.3815 -0.0270841 23.3166 0.0669737 23.2806C0.302118 23.2445 0.525505 23.2013 0.760649 23.1724C0.878221 23.158 0.925252 23.1219 0.925252 23.0426C0.925252 21.8095 0.925252 20.5836 0.925252 19.3505C0.925252 19.2352 0.84295 19.1414 0.784164 19.0333C0.54902 18.6222 0.313875 18.2184 0.0787301 17.8074C-0.0153277 17.6559 -0.00357068 17.6487 0.266845 17.6487C0.419689 17.6487 0.584292 17.6487 0.737136 17.6487C0.866466 17.6487 0.925252 17.6271 0.925252 17.5406C0.925252 16.9781 0.925252 16.4228 0.925252 15.8604C0.925252 15.8027 0.88998 15.7666 0.807679 15.745C0.643078 15.7017 0.584291 15.6224 0.596049 15.5143C0.596049 15.1393 0.596049 14.7643 0.596049 14.3965C0.596049 14.3461 0.572534 14.2884 0.690106 14.2595C0.795921 14.2379 0.737136 14.1946 0.713621 14.1586C0.490234 13.8918 0.501991 13.6177 0.619564 13.3365C0.88998 12.7236 1.2427 12.1323 1.5719 11.5265C1.80704 11.0867 2.04219 10.654 2.19503 10.1997C2.19503 10.1781 2.21854 10.1564 2.24206 10.1132C2.33612 10.3367 2.41842 10.5386 2.51248 10.7333C2.85343 11.4688 3.30021 12.1755 3.65293 12.9038C3.73523 13.0769 3.80577 13.2572 3.88807 13.4303C3.99389 13.6754 3.94686 13.9206 3.7705 14.1514C3.72347 14.2018 3.6882 14.2523 3.82928 14.2739C3.89983 14.2812 3.88807 14.3316 3.88807 14.3677C3.88807 14.7571 3.88807 15.1393 3.88807 15.5287C3.88807 15.6296 3.82929 15.709 3.67644 15.745C3.55887 15.7739 3.54711 15.8243 3.54711 15.882C3.54711 16.4156 3.54711 16.9493 3.54711 17.4829C3.54711 17.5838 3.6059 17.6199 3.7705 17.6127C3.89983 17.6127 4.04091 17.6127 4.17024 17.6127C4.48769 17.6127 4.48769 17.6127 4.39363 17.793C4.14673 18.2328 3.88807 18.6727 3.64117 19.1054C3.58238 19.1991 3.55887 19.3001 3.55887 19.401C3.55887 20.4538 3.55887 21.5067 3.55887 22.5595C3.55887 22.7181 3.55887 22.7253 3.81753 22.6821C4.91095 22.4874 6.01613 22.3431 7.10955 22.1557H7.06252Z" fill="#0F0F0F"/>
<path d="M0.0308465 29.1017C-0.0101254 28.7311 -0.00235486 28.36 0.0379106 27.9893C0.129038 27.9107 0.277384 27.9052 0.413722 27.8905C3.71337 27.5375 7.0102 27.1773 10.3091 26.8226C11.7792 26.6646 13.2499 26.5091 14.7193 26.3485C14.9701 26.3212 15.2208 26.2649 15.4836 26.3132C15.5218 26.3271 15.55 26.346 15.5691 26.37C15.6355 26.7629 15.6849 27.1555 15.5408 27.5467C15.2851 27.68 14.9538 27.6694 14.6493 27.706C14.2311 27.756 14.2057 27.7657 14.2036 28.0145C14.2008 28.3974 14.2085 28.7802 14.2001 29.1627C14.1965 29.3299 14.3025 29.3909 14.5815 29.3547C14.7525 29.3325 14.9284 29.3211 15.1029 29.3114C15.2646 29.3022 15.4335 29.2896 15.5557 29.3804C15.6397 29.4787 15.6256 29.5846 15.6256 29.6888C15.627 32.6442 15.627 35.5995 15.6256 38.5553C15.6256 38.6112 15.6242 38.6671 15.6178 38.723C15.5995 38.8772 15.4956 38.963 15.2102 38.9033C13.9959 38.8272 12.7809 38.7537 11.5673 38.6742C9.78146 38.5574 7.99635 38.4351 6.21054 38.317C4.22623 38.1859 2.24121 38.0543 0.255486 37.9316C-0.0171895 37.9148 0.00824132 37.8198 0.00824132 37.7152C0.00824132 36.6031 0.0068285 35.4915 0.00753491 34.3795C0.00824132 33.2187 0.0103606 32.0579 0.0138926 30.8971C0.0138926 30.8206 0.0294337 30.7441 0.0379106 30.6681C0.310586 30.592 0.369218 30.4588 0.360035 30.2907C0.343081 30.0057 0.338136 29.7195 0.362154 29.4346C0.376282 29.2677 0.29999 29.1564 0.0301401 29.1013L0.0308465 29.1017Z" fill="#010101"/>
<path d="M15.2107 38.9036C15.4636 38.9141 15.5109 38.8364 15.5109 38.699C15.5039 35.5873 15.5046 32.4756 15.5031 29.3639C15.5286 29.345 15.5611 29.3311 15.5992 29.3223C15.8952 29.2895 16.1785 29.3488 16.4674 29.3664C16.8206 29.3874 16.8757 29.3685 16.8799 29.1693C16.8877 28.7659 16.8799 28.362 16.8835 27.9585C16.8842 27.8144 16.7747 27.7438 16.543 27.7169C16.2223 27.6795 15.891 27.674 15.5837 27.5984C15.5477 27.5862 15.5208 27.5689 15.5039 27.5467C15.5053 27.1457 15.506 26.7448 15.5074 26.3438C15.6769 26.2489 15.8655 26.3069 16.0428 26.3258C20.1068 26.7599 24.168 27.2041 28.232 27.6395C29.0309 27.7253 29.8271 27.8186 30.6267 27.9009C30.7518 27.914 30.8888 27.9157 30.97 27.99C31.0209 28.3595 30.9969 28.7293 30.9743 29.0987C30.7129 29.1386 30.6444 29.2429 30.6515 29.395C30.6663 29.6938 30.6684 29.9935 30.6515 30.2923C30.6416 30.4612 30.7073 30.5915 30.9729 30.6701C30.9813 31.3203 30.9955 31.97 30.9969 32.6202C30.999 34.3126 30.9919 36.0055 31.0004 37.6979C31.0011 37.8572 30.9623 37.9232 30.6585 37.9416C28.7095 38.0572 26.7634 38.1871 24.8172 38.3153C22.7545 38.4514 20.6932 38.591 18.6311 38.7296C17.6528 38.7956 16.6751 38.8641 15.696 38.928C15.5349 38.9385 15.3668 38.9541 15.2121 38.9032L15.2107 38.9036Z" fill="#2A2E32"/>
<path d="M0.0317864 26.2108C0.0240159 25.5257 0.0155389 24.8407 0.00847479 24.1552C0.00564914 23.8615 0.0240159 23.5673 0.00141067 23.2739C-0.0113048 23.1117 0.0784097 23.0487 0.345434 23.0054C3.13152 22.5536 5.91338 22.093 8.69594 21.6332C10.8788 21.2726 13.0602 20.9103 15.243 20.5493C15.2988 20.5401 15.3588 20.5388 15.4167 20.5342C15.611 20.5342 15.5919 20.6292 15.611 20.6985C15.6393 20.8019 15.6244 20.9078 15.6244 21.0124C15.6244 22.0114 15.6251 23.0104 15.6244 24.0098C15.6244 24.1212 15.6371 24.2334 15.5926 24.3435C15.5813 24.3687 15.5623 24.3923 15.5375 24.4137C15.4273 24.4856 15.2741 24.5015 15.1243 24.5192C11.1995 24.9802 7.27181 25.4341 3.34698 25.8939C2.41169 26.0032 1.47499 26.1074 0.54111 26.2204C0.37369 26.2406 0.197793 26.2881 0.0331992 26.2108H0.0317864Z" fill="#010101"/>
<path d="M15.51 24.4038C15.5086 23.1985 15.5086 21.9936 15.5037 20.7882C15.5037 20.7025 15.563 20.6046 15.4175 20.5344C15.5581 20.4655 15.6937 20.5327 15.8152 20.5525C20.7735 21.369 25.729 22.1915 30.6873 23.0077C30.9232 23.0463 31.0023 23.0997 30.9995 23.2477C30.9812 24.2336 30.9804 25.2191 30.9741 26.2051C30.8229 26.2829 30.6576 26.2337 30.5043 26.2156C28.0142 25.9248 25.5227 25.6382 23.0326 25.3465C20.6584 25.0683 18.2834 24.7901 15.9077 24.516C15.7601 24.4988 15.5983 24.4971 15.5107 24.4038H15.51Z" fill="#2A2E32"/>
<path d="M15.51 24.4039C18.7503 24.7825 21.9899 25.1612 25.2302 25.539C27.1439 25.7622 29.059 25.9832 30.9727 26.2051C30.9712 26.8002 30.9705 27.3954 30.9691 27.99C29.2928 27.8131 27.6158 27.6387 25.9402 27.458C22.5197 27.0894 19.1007 26.7175 15.681 26.3476C15.6237 26.3413 15.5644 26.3447 15.5058 26.3434L15.5015 26.3295C15.38 26.2577 15.3899 26.164 15.3892 26.0744C15.3843 25.6079 15.3843 25.1414 15.3892 24.6749C15.3899 24.5854 15.3814 24.4917 15.5079 24.4219V24.4034L15.51 24.4039Z" fill="#FFD883"/>
<path d="M15.5094 24.4224C15.5072 25.0582 15.5051 25.6941 15.503 26.3296C12.4287 26.6603 9.35439 26.9919 6.28008 27.3222C4.1997 27.5454 2.1186 27.7669 0.0382194 27.9892C-0.00628459 27.3962 0.0156142 26.8036 0.0325681 26.2106C2.47534 25.9282 4.91741 25.6454 7.36019 25.3629C9.99864 25.0578 12.6371 24.7535 15.2748 24.4488C15.3532 24.44 15.4317 24.4312 15.5101 24.4228L15.5094 24.4224Z" fill="#FBAA33"/>
<path d="M30.9715 30.6711C30.6105 30.6955 30.5152 30.5967 30.5321 30.39C30.5618 30.0269 30.5399 29.6621 30.5406 29.2981C30.5406 29.1328 30.685 29.0665 30.9736 29.0993C30.9736 29.6234 30.9722 30.1471 30.9715 30.6711Z" fill="#F8D485"/>
<path d="M0.0312068 29.1016C0.320365 29.0711 0.465179 29.1439 0.46565 29.3202C0.46565 29.6753 0.445164 30.0313 0.473421 30.386C0.489668 30.5894 0.401367 30.6923 0.0389773 30.6688C-0.0118844 30.1468 0.0199042 29.6244 0.0312068 29.102V29.1016Z" fill="#F3A837"/>
<path d="M11.6723 28.8179C11.6723 29.0486 11.6645 29.2793 11.6758 29.5096C11.6815 29.6282 11.6256 29.6811 11.4095 29.6979C10.3852 29.7774 9.363 29.8656 8.34153 29.9581C8.11548 29.9787 8.02577 29.9576 8.03071 29.8059C8.04555 29.3588 8.0406 28.9112 8.03283 28.464C8.03071 28.3476 8.07733 28.2917 8.2942 28.2719C9.31497 28.1782 10.3343 28.0761 11.3508 27.9677C11.5967 27.9416 11.6906 27.9664 11.6772 28.1257C11.6574 28.3556 11.6723 28.5867 11.6723 28.8175V28.8179Z" fill="#FAAA33"/>
<path d="M5.63092 29.3634C5.63092 29.587 5.62456 29.811 5.63374 30.0346C5.63798 30.1418 5.59842 30.1977 5.39285 30.2136C4.63629 30.2721 3.88113 30.3393 3.12668 30.4103C2.89357 30.4322 2.78902 30.4112 2.79679 30.2481C2.81516 29.8287 2.81021 29.4092 2.7982 28.9898C2.79467 28.8705 2.84624 28.8175 3.05675 28.7982C3.8225 28.728 4.58613 28.6486 5.34976 28.5679C5.56239 28.5452 5.64646 28.5754 5.63515 28.7137C5.61749 28.9301 5.63021 29.147 5.63092 29.3639V29.3634Z" fill="#FAAA33"/>
<path d="M15.5538 29.3474C15.5369 29.3525 15.5199 29.3579 15.503 29.3638C15.113 29.3491 14.7386 29.4151 14.3572 29.4428C14.1537 29.4575 14.0591 29.4411 14.0626 29.2999C14.0739 28.8128 14.0704 28.3253 14.064 27.8382C14.0626 27.7361 14.1191 27.6899 14.2957 27.6743C14.6998 27.6382 15.101 27.5899 15.503 27.5461C15.5037 27.5537 15.503 27.5609 15.4994 27.568C15.599 27.6184 15.6132 27.689 15.6146 27.7592C15.6252 28.2417 15.6231 28.7246 15.616 29.2071C15.616 29.2566 15.599 29.3046 15.5531 29.347L15.5538 29.3474Z" fill="#FAAA33"/>
<path d="M12.3032 28.8551C12.3032 28.6336 12.3484 28.463 12.5257 28.3142C12.655 28.2057 12.578 28.0662 12.6868 27.9544C12.7814 27.8578 12.9488 27.7943 13.0039 27.9292C13.1509 28.2864 13.5578 28.6075 13.4122 29.0097C13.3423 29.2031 13.1636 29.3531 12.999 29.5115C12.9135 29.5939 12.8054 29.575 12.7193 29.5035C12.4706 29.2964 12.2573 29.0812 12.3025 28.8551H12.3032Z" fill="#F8A934"/>
<path d="M7.395 29.4015C7.4381 29.6478 7.20992 29.8524 6.98034 30.0554C6.89698 30.1286 6.79173 30.1307 6.69636 30.0559C6.22942 29.689 6.10933 29.291 6.47737 28.8858C6.58404 28.7681 6.55932 28.6412 6.64126 28.5269C6.67729 28.4765 6.71261 28.4193 6.8214 28.4101C6.9203 28.4017 6.99588 28.4466 7.00436 28.4891C7.0637 28.7997 7.45646 29.0577 7.395 29.4015Z" fill="#F8A934"/>
<path d="M2.16213 29.8767C2.19463 30.105 2.00531 30.3042 1.7729 30.4924C1.68036 30.5673 1.59206 30.5588 1.49175 30.487C1.0573 30.1751 0.966881 29.7624 1.29889 29.4128C1.4091 29.2964 1.36388 29.1656 1.46843 29.0547C1.5087 29.0118 1.54331 28.9627 1.6415 28.9652C1.7185 28.9673 1.7842 29.0022 1.79268 29.0421C1.85272 29.3249 2.20452 29.5607 2.16213 29.8767Z" fill="#F7A934"/>
<path d="M22.9839 29.1516C22.9839 29.3751 22.974 29.5991 22.9874 29.8227C22.9959 29.9593 22.9154 29.9858 22.6964 29.966C21.6516 29.8706 20.6054 29.7824 19.5578 29.6987C19.3713 29.684 19.3296 29.6353 19.3311 29.5353C19.3367 29.0528 19.3388 28.5703 19.3296 28.0878C19.3275 27.9622 19.3904 27.9357 19.5967 27.9571C20.6492 28.0677 21.7032 28.1719 22.7586 28.2719C22.9415 28.2892 22.9889 28.3387 22.986 28.4388C22.9783 28.6762 22.9839 28.9141 22.9839 29.152V29.1516Z" fill="#FED883"/>
<path d="M28.2114 29.6238C28.2114 29.8335 28.2022 30.0436 28.2149 30.2529C28.2227 30.3824 28.186 30.4437 27.926 30.4181C27.1497 30.342 26.3705 30.2781 25.5913 30.2151C25.431 30.2021 25.3716 30.1659 25.3723 30.0697C25.378 29.6015 25.3773 29.1329 25.3723 28.6647C25.3716 28.5731 25.4133 28.542 25.5758 28.5592C26.3853 28.6441 27.1956 28.7257 28.0072 28.8021C28.1718 28.8177 28.2185 28.8585 28.2135 28.953C28.2036 29.1766 28.21 29.4002 28.21 29.6242L28.2114 29.6238Z" fill="#FED883"/>
<path d="M15.5539 29.3477C15.455 29.1557 15.515 28.959 15.5086 28.7648C15.4966 28.366 15.5016 27.9676 15.4995 27.5687C15.9473 27.5687 16.3754 27.6465 16.8141 27.6822C16.9589 27.694 16.9603 27.7587 16.9603 27.8234C16.9603 28.3256 16.9561 28.8279 16.9631 29.3297C16.9646 29.4528 16.8678 29.4658 16.6997 29.4494C16.3182 29.4125 15.9353 29.3814 15.5531 29.3477H15.5539Z" fill="#FDD783"/>
<path d="M23.6033 29.4125C23.6062 29.1831 23.6443 29.0082 23.8252 28.862C23.9474 28.7632 23.8767 28.6426 23.9629 28.5413C24.0159 28.4791 24.0385 28.3993 24.1875 28.4039C24.3126 28.4081 24.3719 28.4787 24.3811 28.5363C24.4115 28.7216 24.5739 28.8771 24.6686 29.0477C24.8735 29.4163 24.7138 29.7483 24.3316 30.0509C24.2278 30.1329 24.1218 30.1383 24.0229 30.0534C23.7792 29.845 23.5624 29.6294 23.604 29.4117L23.6033 29.4125Z" fill="#FDD783"/>
<path d="M18.7174 28.8429C18.7633 29.0842 18.5443 29.2993 18.2992 29.5078C18.2003 29.5923 18.0915 29.5881 17.9905 29.5048C17.5355 29.1291 17.3943 28.7341 17.804 28.313C17.9156 28.1982 17.8527 28.0629 17.9643 27.9515C18.0067 27.9091 18.0385 27.8612 18.1346 27.8557C18.2342 27.8502 18.3069 27.8923 18.3154 27.9368C18.3769 28.2419 18.7562 28.4941 18.7174 28.8429Z" fill="#FCD783"/>
<path d="M28.8225 29.8478C28.8331 29.6822 28.8804 29.5241 29.0443 29.3897C29.1708 29.2859 29.0959 29.156 29.1976 29.0513C29.2789 28.9677 29.4314 28.8912 29.4943 29.0131C29.6808 29.3749 30.0877 29.717 29.8475 30.1281C29.7514 30.2924 29.6321 30.524 29.3785 30.5269C29.1121 30.5303 28.9956 30.2962 28.903 30.134C28.8515 30.0436 28.8472 29.9436 28.8225 29.8478Z" fill="#FCD784"/>
<path d="M13.3773 0.711692C15.4976 0.711692 17.6179 0.712613 19.7381 0.708699C19.8451 0.708699 19.9647 0.682915 20.0572 0.638254C22.6753 -0.624455 25.9882 0.757965 26.3721 3.27625C26.6797 5.29566 24.9086 7.1217 22.4941 7.27456C21.6182 7.33004 20.8024 7.16866 20.0386 6.80539C19.9568 6.76648 19.852 6.74369 19.7578 6.74369C15.5173 6.7407 11.2767 6.73886 7.03614 6.74507C6.66151 6.74576 6.48445 6.56113 6.4861 6.28373C6.49567 4.5728 6.49075 2.8621 6.49102 1.15117C6.49102 0.843833 6.64919 0.711692 7.01644 0.711692C9.13672 0.711692 11.257 0.711692 13.3773 0.711692ZM26.0651 3.72861C26.0659 1.92283 24.3241 0.452704 22.1816 0.451323C20.034 0.449942 18.2804 1.91478 18.2774 3.71273C18.2744 5.52656 20.0137 6.99876 22.1627 7.00153C24.3164 7.00406 26.064 5.53853 26.0648 3.72861H26.0651ZM16.7452 3.4588C16.6847 3.4588 16.6357 3.4588 16.5864 3.4588C16.249 3.4588 15.9119 3.46088 15.5745 3.4565C15.5321 3.45604 15.4543 3.42381 15.4535 3.40447C15.4448 3.19936 15.448 2.99378 15.448 2.776H16.8746V2.35563H14.8129V5.09883H16.8921V4.67041H15.4552V3.884H16.7452V3.4588ZM12.8896 4.53435C12.8688 4.48601 12.8579 4.46299 12.8486 4.43927C12.5834 3.77074 12.3188 3.10198 12.0517 2.43413C12.0388 2.40236 12.0038 2.35356 11.9773 2.35264C11.7715 2.34573 11.5651 2.34896 11.355 2.34896C11.3596 2.38165 11.3585 2.39339 11.3629 2.40375C11.7479 3.28062 12.1324 4.15773 12.5224 5.03299C12.5372 5.06591 12.605 5.09929 12.6507 5.10182C12.8004 5.11057 12.9518 5.10021 13.1017 5.10712C13.1953 5.11149 13.2385 5.08295 13.2703 5.00997C13.6403 4.15704 14.0141 3.30525 14.3865 2.45301C14.3999 2.42239 14.4076 2.3897 14.4213 2.34803C14.2191 2.34803 14.0321 2.34366 13.8461 2.35149C13.8072 2.3531 13.7503 2.39339 13.7369 2.42585C13.4736 3.06652 13.2156 3.70881 12.957 4.3511C12.9356 4.40382 12.9181 4.45746 12.8899 4.53458L12.8896 4.53435ZM9.90214 4.66465H8.56697C8.56697 4.51663 8.56697 4.37965 8.56697 4.24267C8.56697 3.64873 8.56752 3.05455 8.56588 2.46061C8.56588 2.4171 8.59543 2.35011 8.49746 2.34896C8.31193 2.34688 8.12639 2.34826 7.93319 2.34826V5.09423H9.90214V4.66442V4.66465ZM10.3203 3.72677C10.3203 4.14829 10.3233 4.57003 10.3178 4.99155C10.3167 5.0841 10.3509 5.11241 10.4579 5.10689C10.5942 5.09975 10.7313 5.10251 10.8679 5.1062C10.9448 5.10827 10.9735 5.08456 10.9716 5.01987C10.968 4.88957 10.9705 4.75927 10.9705 4.62897C10.9705 3.90841 10.9686 3.18785 10.973 2.46728C10.9735 2.37036 10.9387 2.33929 10.826 2.34619C10.7037 2.35379 10.5797 2.35356 10.4574 2.34619C10.349 2.33975 10.3167 2.3706 10.3181 2.46199C10.3233 2.88351 10.3206 3.30525 10.3206 3.72677H10.3203Z" fill="#FF0000"/>
<path d="M26.065 3.72871C26.0642 5.53863 24.3166 7.00438 22.163 7.00162C20.0139 6.99909 18.2746 5.52666 18.2776 3.71282C18.2806 1.91487 20.0342 0.450036 22.1818 0.451417C24.324 0.452798 26.0661 1.92293 26.0653 3.72871H26.065ZM20.7974 3.71881C20.7974 4.16012 20.7969 4.60121 20.7977 5.04252C20.7982 5.24764 20.9564 5.32522 21.1679 5.22278C22.0685 4.78653 22.9683 4.34959 23.8678 3.91195C24.0887 3.80445 24.0909 3.64997 23.8722 3.54339C22.9727 3.10552 22.0726 2.66881 21.1723 2.23233C20.9539 2.12644 20.798 2.20425 20.7977 2.41811C20.7971 2.8516 20.7977 3.28509 20.7977 3.71881H20.7974Z" fill="white"/>
<path d="M16.7453 3.45889V3.88409H15.4553V4.67049H16.8922V5.09891H14.813V2.35571H16.8747V2.77608H15.4481C15.4481 2.99409 15.4449 3.19944 15.4536 3.40456C15.4544 3.42389 15.5322 3.45589 15.5746 3.45658C15.9117 3.46073 16.2491 3.45889 16.5865 3.45889C16.6358 3.45889 16.6848 3.45889 16.7453 3.45889Z" fill="white"/>
<path d="M12.8899 4.53445C12.9181 4.45732 12.9359 4.40369 12.957 4.35097C13.2156 3.70891 13.4736 3.06662 13.7369 2.42571C13.7503 2.39302 13.8072 2.35296 13.8461 2.35135C14.0322 2.34352 14.2191 2.3479 14.4213 2.3479C14.4076 2.3898 14.3999 2.42226 14.3865 2.45287C14.0144 3.30512 13.6406 4.1569 13.2703 5.00983C13.2386 5.08304 13.1956 5.11136 13.1017 5.10698C12.9518 5.10008 12.8007 5.11043 12.6507 5.10169C12.605 5.09892 12.5369 5.06577 12.5224 5.03285C12.1324 4.15759 11.7479 3.28048 11.3629 2.40361C11.3585 2.39348 11.3594 2.38151 11.355 2.34882C11.5651 2.34882 11.7712 2.34583 11.9773 2.3525C12.0038 2.35342 12.0391 2.40223 12.0517 2.434C12.3191 3.10184 12.5834 3.7706 12.8486 4.43914C12.8579 4.46262 12.8688 4.48587 12.8896 4.53422L12.8899 4.53445Z" fill="white"/>
<path d="M9.90206 4.66439V5.09419H7.93311V2.34823C8.12631 2.34823 8.31184 2.34685 8.49738 2.34892C8.59563 2.35007 8.5658 2.41706 8.5658 2.46057C8.56744 3.05452 8.56689 3.64869 8.56689 4.24264C8.56689 4.37962 8.56689 4.51636 8.56689 4.66462H9.90206V4.66439Z" fill="white"/>
<path d="M10.3204 3.72671C10.3204 3.3052 10.3234 2.88345 10.3179 2.46193C10.3168 2.37054 10.3491 2.33969 10.4572 2.34614C10.5796 2.3535 10.7035 2.35373 10.8258 2.34614C10.9386 2.33923 10.9736 2.37031 10.9728 2.46723C10.9684 3.18779 10.9703 3.90835 10.9703 4.62891C10.9703 4.75921 10.9676 4.88951 10.9714 5.01981C10.9733 5.0845 10.9443 5.10821 10.8677 5.10614C10.7312 5.10246 10.5941 5.0997 10.4578 5.10683C10.3508 5.11236 10.3163 5.08404 10.3177 4.9915C10.3231 4.56998 10.3201 4.14823 10.3201 3.72671H10.3204Z" fill="white"/>
<path d="M20.7977 3.71877C20.7977 3.28528 20.7971 2.85179 20.7977 2.41808C20.798 2.20421 20.9539 2.1264 21.1723 2.2323C22.0726 2.66878 22.9727 3.10549 23.8722 3.54335C24.0909 3.64994 24.0889 3.80441 23.8678 3.91192C22.9683 4.34955 22.0683 4.78649 21.1679 5.22274C20.9564 5.32519 20.7982 5.2476 20.7977 5.04249C20.7966 4.60117 20.7974 4.16009 20.7974 3.71877H20.7977Z" fill="#FF0000"/>
</svg>
