<svg width="151" height="342" viewBox="0 0 151 342" fill="none" xmlns="http://www.w3.org/2000/svg">
<path d="M150.71 113.061V341.02H0V113.061C0 78.7022 15.9103 46.2252 43.1193 25.0635L75.355 0L107.591 25.0635C134.8 46.2252 150.71 78.7022 150.71 113.061Z" fill="#9CDDFF"/>
<path d="M54.293 64.3536C53.5271 63.5063 53.1558 62.1553 53.1558 60.3005V58.4687H56.8693V60.7814C56.8693 61.6973 57.171 62.1782 57.7744 62.1782C58.1226 62.1782 58.3547 62.0866 58.4707 61.8805C58.61 61.6744 58.6796 61.3539 58.6796 60.8959C58.6796 60.2776 58.61 59.7968 58.4707 59.3846C58.3314 58.9953 58.1458 58.6518 57.9137 58.3771C57.6816 58.1023 57.287 57.6901 56.6836 57.1405L55.0589 55.5377C53.8056 54.324 53.179 52.973 53.179 51.5075C53.179 49.9275 53.5503 48.7139 54.293 47.8667C55.0357 47.0423 56.1033 46.6302 57.5423 46.6302C59.2366 46.6302 60.4667 47.0652 61.2094 47.9583C61.9521 48.8513 62.3234 50.2481 62.3234 52.1258H58.4707V50.8435C58.4707 50.5916 58.3779 50.4084 58.2386 50.2481C58.0993 50.1107 57.9137 50.042 57.6584 50.042C57.3566 50.042 57.1478 50.1107 57.0085 50.271C56.8692 50.4313 56.7996 50.6374 56.7996 50.9122C56.7996 51.5304 57.1478 52.1487 57.844 52.7898L60.0489 54.8736C60.5595 55.3545 60.9773 55.8353 61.3254 56.2704C61.6736 56.7055 61.9289 57.2321 62.1378 57.8275C62.3467 58.4229 62.4395 59.1327 62.4395 59.9571C62.4395 61.7889 62.0914 63.1857 61.4183 64.1246C60.7452 65.0634 59.608 65.5443 58.0529 65.5443C56.3354 65.5443 55.1054 65.1321 54.3394 64.2849L54.293 64.3536Z" fill="black"/>
<path d="M64.1548 64.3723C63.6906 63.548 63.4585 62.3802 63.4585 60.869C63.4585 59.6326 63.621 58.6709 63.9459 58.0069C64.2708 57.3429 64.735 56.862 65.3153 56.5415C65.8955 56.2209 66.8007 55.8775 68.0075 55.5111L69.052 55.1676V53.5419C69.052 53.1298 68.9591 52.8092 68.7967 52.5803C68.6342 52.3513 68.4253 52.2368 68.1932 52.2368C67.9843 52.2368 67.7987 52.3284 67.6594 52.5116C67.4969 52.6948 67.4273 52.9466 67.4273 53.2672V54.2289H63.6906V53.7022C63.6906 52.1452 64.0619 51.0233 64.8046 50.3592C65.5473 49.6952 66.7542 49.3518 68.4253 49.3518C69.7482 49.3518 70.8391 49.6952 71.6746 50.3821C72.5101 51.0691 72.9279 52.0307 72.9279 53.2901V65.4026H69.0984V63.5251C68.9127 64.1662 68.611 64.6928 68.1932 65.0363C67.7754 65.4026 67.288 65.5858 66.7078 65.5858C65.4545 65.5858 64.619 65.1737 64.1548 64.3494V64.3723ZM68.8663 62.2886C68.9823 62.0597 69.052 61.762 69.052 61.4186V56.9994C68.4717 57.2055 68.054 57.4802 67.7986 57.8237C67.5201 58.1443 67.3809 58.6251 67.3809 59.2204V61.2583C67.3809 62.197 67.6594 62.6779 68.2396 62.6779C68.5414 62.6779 68.7502 62.5634 68.8663 62.3115V62.2886Z" fill="black"/>
<path d="M74.6462 65.4261V46.6952H78.5686V65.4261H74.6462Z" fill="black"/>
<path d="M80.6831 64.3723C80.2189 63.548 79.9868 62.3802 79.9868 60.869C79.9868 59.6326 80.1493 58.6709 80.4742 58.0069C80.7991 57.3429 81.2633 56.862 81.8436 56.5415C82.4238 56.2209 83.329 55.8775 84.5358 55.5111L85.5803 55.1676V53.5419C85.5803 53.1298 85.4874 52.8092 85.325 52.5803C85.1625 52.3513 84.9536 52.2368 84.7215 52.2368C84.5126 52.2368 84.327 52.3284 84.1877 52.5116C84.0252 52.6948 83.9556 52.9466 83.9556 53.2672V54.2289H80.2189V53.7022C80.2189 52.1452 80.5903 51.0233 81.333 50.3592C82.0757 49.6952 83.2825 49.3518 84.9536 49.3518C86.2765 49.3518 87.3674 49.6952 88.2029 50.3821C89.0385 51.0691 89.4562 52.0307 89.4562 53.2901V65.4026H85.6267V63.5251C85.441 64.1662 85.1393 64.6928 84.7215 65.0363C84.3038 65.4026 83.8164 65.5858 83.2361 65.5858C81.9828 65.5858 81.1473 65.1737 80.6831 64.3494V64.3723ZM85.3946 62.2886C85.5106 62.0597 85.5803 61.762 85.5803 61.4186V56.9994C85 57.2055 84.5823 57.4802 84.327 57.8237C84.0485 58.1443 83.9092 58.6251 83.9092 59.2204V61.2583C83.9092 62.197 84.1877 62.6779 84.7679 62.6779C85.0697 62.6779 85.2786 62.5634 85.3946 62.3115V62.2886Z" fill="black"/>
<path d="M91.1499 46.6746H95.1187V51.094C95.5365 49.9491 96.3024 49.3537 97.4628 49.3537C98.5537 49.3537 99.366 49.6972 99.9231 50.3842C100.48 51.0711 100.759 51.9871 100.759 53.1778V65.4056H96.9058V53.4068C96.9058 53.0633 96.813 52.7885 96.6737 52.5595C96.5113 52.3534 96.2792 52.2389 95.9775 52.2389C95.7221 52.2389 95.5133 52.3534 95.3508 52.5824C95.1883 52.8114 95.1187 53.0862 95.1187 53.4068V65.4284H91.1499V46.6975V46.6746Z" fill="black"/>
<path d="M43.4236 74.3564V83.1489H42.5416V74.3564H40.2207V73.5321H45.7445V74.3564H43.4236Z" fill="black"/>
<path d="M50.8039 83.1489V78.1115C50.8039 77.9512 50.7807 77.7909 50.7111 77.6536C50.6414 77.5162 50.5718 77.3788 50.4557 77.2643C50.3397 77.1498 50.2237 77.0811 50.0612 77.0124C49.9219 76.9437 49.7595 76.9208 49.597 76.9208H49.04C48.8775 76.9208 48.7151 76.9437 48.5758 77.0124C48.4365 77.0811 48.2973 77.1498 48.1812 77.2643C48.0652 77.3788 47.9956 77.4933 47.9259 77.6536C47.8563 77.7909 47.8331 77.9512 47.8331 78.1115V83.1489H46.9976V73.5321H47.8331V76.8521C48.0188 76.6232 48.2509 76.4629 48.5294 76.3255C48.8079 76.1881 49.0864 76.1423 49.4113 76.1423H49.6202C49.8987 76.1423 50.1772 76.1881 50.4093 76.3026C50.6414 76.4171 50.8735 76.5545 51.0592 76.7377C51.2449 76.9208 51.3841 77.1269 51.5002 77.3788C51.6162 77.6306 51.6626 77.8825 51.6626 78.1573V83.1489H50.8271H50.8039Z" fill="black"/>
<path d="M57.956 82.0493C57.8399 82.3011 57.7007 82.5072 57.515 82.6904C57.3293 82.8736 57.1204 83.0109 56.8651 83.1254C56.6098 83.2399 56.3545 83.2857 56.076 83.2857H55.519C55.2405 83.2857 54.962 83.2399 54.7299 83.1254C54.4978 83.0109 54.2657 82.8736 54.08 82.6904C53.8943 82.5072 53.7551 82.3011 53.639 82.0493C53.523 81.7974 53.4766 81.5455 53.4766 81.2708V78.1797C53.4766 77.9049 53.523 77.6301 53.639 77.4011C53.7551 77.1493 53.8943 76.9432 54.08 76.76C54.2657 76.5769 54.4746 76.4395 54.7299 76.325C54.9852 76.2105 55.2405 76.1647 55.519 76.1647H56.076C56.3545 76.1647 56.633 76.2105 56.8651 76.325C57.1204 76.4395 57.3293 76.5769 57.515 76.76C57.7007 76.9432 57.8399 77.1493 57.956 77.4011C58.072 77.653 58.1184 77.9049 58.1184 78.1797V79.8053H54.3121V81.3395C54.3121 81.4997 54.3353 81.66 54.4049 81.7974C54.4746 81.9348 54.5442 82.0722 54.6602 82.1866C54.7763 82.3011 54.8923 82.3698 55.0548 82.4385C55.1941 82.5072 55.3565 82.5301 55.519 82.5301H56.076C56.2385 82.5301 56.4009 82.5072 56.5402 82.4385C56.6795 82.3698 56.8187 82.3011 56.9347 82.1866C57.0508 82.0722 57.1204 81.9577 57.1901 81.7974C57.2597 81.66 57.2829 81.4997 57.2829 81.3395V80.8815L58.1184 81.0189V81.2937C58.1184 81.5684 58.072 81.8432 57.956 82.0722V82.0493ZM57.2829 78.1339C57.2829 77.9736 57.2597 77.8133 57.1901 77.6759C57.1204 77.5385 57.0508 77.4012 56.9347 77.2867C56.8187 77.1722 56.7027 77.1035 56.5402 77.0348C56.4009 76.9661 56.2385 76.9432 56.076 76.9432H55.519C55.3565 76.9432 55.1941 76.9661 55.0548 77.0348C54.9155 77.1035 54.7763 77.1722 54.6602 77.2867C54.5442 77.4012 54.4746 77.5156 54.4049 77.6759C54.3353 77.8133 54.3121 77.9736 54.3121 78.1339V79.1642H57.2829V78.1339Z" fill="black"/>
<path d="M64.4286 74.3564V77.9283H68.1653V78.7526H64.4286V83.1489H63.5466V73.5321H69.024V74.3564H64.4054H64.4286Z" fill="black"/>
<path d="M70.4832 74.6311V73.5321H71.4579V74.6311H70.4832ZM70.5528 83.1489V76.2797H71.3883V83.1489H70.5528Z" fill="black"/>
<path d="M75.6829 83.1434H75.2651L72.8049 76.2743H73.6405L75.4508 81.4719V81.8383L75.4972 81.4719L77.3075 76.2743H78.1431L75.6829 83.1434Z" fill="black"/>
<path d="M83.7387 82.0493C83.6226 82.3011 83.4834 82.5072 83.2977 82.6904C83.112 82.8736 82.9031 83.0109 82.6478 83.1254C82.3925 83.2399 82.1372 83.2857 81.8587 83.2857H81.3017C81.0232 83.2857 80.7447 83.2399 80.5126 83.1254C80.2573 83.0109 80.0484 82.8736 79.8627 82.6904C79.6771 82.5072 79.5378 82.3011 79.4217 82.0493C79.3057 81.7974 79.2593 81.5455 79.2593 81.2708V78.1797C79.2593 77.9049 79.3057 77.6301 79.4217 77.4011C79.5378 77.1493 79.6771 76.9432 79.8627 76.76C80.0484 76.5769 80.2573 76.4395 80.5126 76.325C80.7679 76.2105 81.0232 76.1647 81.3017 76.1647H81.8587C82.1372 76.1647 82.4157 76.2105 82.6478 76.325C82.9031 76.4395 83.112 76.5769 83.2977 76.76C83.4834 76.9432 83.6226 77.1493 83.7387 77.4011C83.8547 77.653 83.9011 77.9049 83.9011 78.1797V79.8053H80.0948V81.3395C80.0948 81.4997 80.118 81.66 80.1877 81.7974C80.2573 81.9348 80.3269 82.0722 80.443 82.1866C80.559 82.3011 80.675 82.3698 80.8375 82.4385C81 82.5072 81.1392 82.5301 81.3017 82.5301H81.8587C82.0212 82.5301 82.1837 82.5072 82.3229 82.4385C82.4622 82.3698 82.6014 82.3011 82.7175 82.1866C82.8335 82.0722 82.9031 81.9577 82.9728 81.7974C83.0424 81.66 83.0656 81.4997 83.0656 81.3395V80.8815L83.9011 81.0189V81.2937C83.9011 81.5684 83.8547 81.8432 83.7387 82.0722V82.0493ZM83.0656 78.1339C83.0656 77.9736 83.0424 77.8133 82.9728 77.6759C82.9031 77.5385 82.8335 77.4012 82.7175 77.2867C82.6014 77.1722 82.4854 77.1035 82.3229 77.0348C82.1837 76.9661 82.0212 76.9432 81.8587 76.9432H81.3017C81.1392 76.9432 80.9768 76.9661 80.8375 77.0348C80.6983 77.1035 80.559 77.1722 80.443 77.2867C80.3269 77.4012 80.2573 77.5156 80.1877 77.6759C80.118 77.8133 80.0948 77.9736 80.0948 78.1339V79.1642H83.0656V78.1339Z" fill="black"/>
<path d="M94.6455 81.7063C94.5294 81.9811 94.3438 82.233 94.1349 82.4619C93.926 82.668 93.6707 82.8512 93.369 82.9657C93.0673 83.0802 92.7655 83.1489 92.4406 83.1489H89.3538V73.5321H92.4406C92.7655 73.5321 93.0905 73.6008 93.369 73.7152C93.6707 73.8297 93.926 74.0129 94.1349 74.219C94.3438 74.4251 94.5294 74.6769 94.6455 74.9746C94.7615 75.2722 94.8312 75.5699 94.8312 75.8905V80.7905C94.8312 81.111 94.7615 81.4316 94.6455 81.7063ZM93.9492 75.9134C93.9492 75.7073 93.9028 75.5012 93.8332 75.318C93.7403 75.1349 93.6475 74.9746 93.5082 74.8372C93.369 74.6998 93.2065 74.5853 93.0208 74.4937C92.8352 74.4022 92.6263 74.3793 92.4174 74.3793H90.2589V82.3475H92.4174C92.6263 82.3475 92.8352 82.3017 93.0208 82.233C93.2065 82.1414 93.369 82.0498 93.5082 81.9124C93.6475 81.775 93.7635 81.6147 93.8332 81.4316C93.926 81.2484 93.9492 81.0423 93.9492 80.8362V75.9363V75.9134Z" fill="black"/>
<path d="M101.143 83.1483L100.679 82.4614C100.493 82.7133 100.261 82.8965 99.9595 83.0567C99.681 83.217 99.356 83.2857 99.0311 83.2857H98.8222C98.5437 83.2857 98.2652 83.2399 98.0331 83.1254C97.801 83.0109 97.5689 82.8736 97.3832 82.6904C97.1976 82.5072 97.0583 82.3011 96.9422 82.0493C96.8262 81.7974 96.7798 81.5455 96.7798 81.2708V81.2021C96.7798 80.9273 96.8262 80.6525 96.9422 80.4236C97.0583 80.1717 97.1976 79.9656 97.3832 79.7825C97.5689 79.5993 97.7778 79.4619 98.0331 79.3474C98.2884 79.2329 98.5437 79.1871 98.8222 79.1871H100.586V78.1339C100.586 77.9736 100.563 77.8133 100.493 77.6759C100.424 77.5385 100.354 77.4012 100.238 77.2867C100.122 77.1722 100.006 77.1035 99.8434 77.0348C99.7042 76.9661 99.5417 76.9432 99.3792 76.9432H98.8918C98.7294 76.9432 98.5669 76.9661 98.4277 77.0348C98.2884 77.1035 98.1491 77.1722 98.0331 77.2867C97.917 77.4012 97.8474 77.5156 97.7778 77.6759C97.7082 77.8362 97.6849 77.9736 97.6849 78.1339V78.3857L96.8494 78.2483V78.1797C96.8494 77.9049 96.8958 77.6301 97.0119 77.4011C97.1279 77.1493 97.2672 76.9432 97.4529 76.76C97.6385 76.5769 97.8474 76.4395 98.1027 76.325C98.358 76.2105 98.6133 76.1647 98.8918 76.1647H99.3792C99.6578 76.1647 99.9363 76.2105 100.168 76.325C100.4 76.4395 100.633 76.5769 100.818 76.76C101.004 76.9432 101.143 77.1493 101.259 77.4011C101.375 77.653 101.422 77.9049 101.422 78.1797V83.1712H101.143V83.1483ZM100.586 79.8282H98.8222C98.6598 79.8282 98.4973 79.8511 98.358 79.9198C98.2188 79.9885 98.0795 80.0572 97.9635 80.1717C97.8474 80.2862 97.7778 80.4007 97.7082 80.561C97.6385 80.6983 97.6153 80.8586 97.6153 81.0189V81.3166C97.6153 81.4768 97.6385 81.6371 97.7082 81.7745C97.7778 81.9119 97.8474 82.0493 97.9635 82.1637C98.0795 82.2782 98.1956 82.3469 98.358 82.4156C98.4973 82.4843 98.6598 82.5072 98.8222 82.5072H99.3792C99.5417 82.5072 99.7042 82.4843 99.8434 82.4156C99.9827 82.3469 100.122 82.2782 100.238 82.1637C100.354 82.0493 100.424 81.9348 100.493 81.7745C100.563 81.6371 100.586 81.4768 100.586 81.3166V79.8282Z" fill="black"/>
<path d="M103.439 74.6311V73.5321H104.414V74.6311H103.439ZM103.508 83.1489V76.2797H104.344V83.1489H103.508Z" fill="black"/>
<path d="M106.715 83.1489V73.5321H107.55V83.1489H106.715Z" fill="black"/>
<path d="M110.776 85.891H109.964L111.194 82.5481L108.942 76.2743H109.778L111.588 81.4719V81.8383L111.635 81.4719L113.445 76.2743H114.281L110.753 85.891H110.776Z" fill="black"/>
<path d="M63.2688 91.7624C63.1527 92.0371 62.9671 92.289 62.7582 92.518C62.5493 92.724 62.294 92.9072 61.9923 93.0217C61.6905 93.1362 61.3888 93.2049 61.0639 93.2049H58.859V96.8913H57.9771V87.2745H61.0639C61.3888 87.2745 61.7137 87.3432 61.9923 87.4577C62.294 87.5722 62.5493 87.7554 62.7582 87.9614C62.9671 88.1675 63.1527 88.4194 63.2688 88.717C63.3848 89.0147 63.4544 89.3124 63.4544 89.6329V90.8236C63.4544 91.1441 63.3848 91.4647 63.2688 91.7395V91.7624ZM62.5957 89.6558C62.5957 89.4498 62.5493 89.2437 62.4797 89.0605C62.3868 88.8773 62.294 88.7171 62.1315 88.5797C61.969 88.4423 61.8298 88.3278 61.6441 88.2362C61.4584 88.1446 61.2496 88.1217 61.0407 88.1217H58.8822V92.4035H61.0407C61.2496 92.4035 61.4584 92.3577 61.6441 92.289C61.8298 92.1974 61.9923 92.1058 62.1315 91.9684C62.2708 91.8311 62.3868 91.6708 62.4797 91.4876C62.5725 91.3044 62.5957 91.0983 62.5957 90.8923V89.7016V89.6558Z" fill="black"/>
<path d="M67.0497 90.8221C66.8873 90.8221 66.7248 90.845 66.5856 90.9137C66.4463 90.9824 66.307 91.0511 66.191 91.1656C66.0749 91.28 66.0053 91.3945 65.9357 91.5548C65.8661 91.6922 65.8429 91.8525 65.8429 92.0128V96.9127H65.0073V90.0436H65.2858L65.75 90.7305C65.9357 90.4787 66.1678 90.2726 66.4695 90.1123C66.748 89.952 67.073 89.8833 67.4211 89.8833H67.9085V90.7992H67.073L67.0497 90.8221Z" fill="black"/>
<path d="M73.5074 96.8909L73.0432 96.204C72.8575 96.4559 72.6255 96.6391 72.3237 96.7994C72.0452 96.9596 71.7203 97.0283 71.3954 97.0283H71.1865C70.9079 97.0283 70.6294 96.9825 70.3973 96.868C70.1653 96.7536 69.9332 96.6162 69.7475 96.433C69.5618 96.2498 69.4226 96.0437 69.3065 95.7919C69.1905 95.54 69.144 95.2881 69.144 95.0134V94.9447C69.144 94.6699 69.1905 94.3952 69.3065 94.1662C69.4226 93.9143 69.5618 93.7082 69.7475 93.5251C69.9332 93.3419 70.142 93.2045 70.3973 93.09C70.6527 92.9755 70.9079 92.9297 71.1865 92.9297H72.9504V91.8765C72.9504 91.7162 72.9272 91.5559 72.8575 91.4185C72.7879 91.2811 72.7183 91.1438 72.6022 91.0293C72.4862 90.9148 72.3701 90.8461 72.2077 90.7774C72.0684 90.7087 71.906 90.6858 71.7435 90.6858H71.2561C71.0936 90.6858 70.9312 90.7087 70.7919 90.7774C70.6526 90.8461 70.5134 90.9148 70.3973 91.0293C70.2813 91.1438 70.2117 91.2582 70.142 91.4185C70.0724 91.5559 70.0492 91.7162 70.0492 91.8765V92.1283L69.2137 91.991V91.9223C69.2137 91.6475 69.2601 91.3727 69.3761 91.1438C69.4922 90.8919 69.6314 90.6858 69.8171 90.5026C70.0028 90.3195 70.2117 90.1821 70.467 90.0676C70.7223 89.9531 70.9776 89.9073 71.2561 89.9073H71.7435C72.022 89.9073 72.3005 89.9531 72.5326 90.0676C72.7647 90.1821 72.9968 90.3195 73.1825 90.5026C73.3681 90.6858 73.5074 90.8919 73.6234 91.1438C73.7395 91.3956 73.7859 91.6475 73.7859 91.9223V96.9138H73.5074V96.8909ZM72.9504 93.5709H71.1865C71.024 93.5709 70.8615 93.5938 70.7223 93.6624C70.583 93.7311 70.4438 93.7998 70.3277 93.9143C70.2117 94.0288 70.142 94.1433 70.0724 94.3036C70.0028 94.4409 69.9796 94.6012 69.9796 94.7615V95.0592C69.9796 95.2194 70.0028 95.3797 70.0724 95.5171C70.142 95.6545 70.2117 95.7919 70.3277 95.9064C70.4438 96.0208 70.5598 96.0895 70.7223 96.1582C70.8847 96.2269 71.024 96.2498 71.1865 96.2498H71.7435C71.906 96.2498 72.0684 96.2269 72.2077 96.1582C72.3469 96.0895 72.4862 96.0208 72.6022 95.9064C72.7183 95.7919 72.7879 95.6774 72.8575 95.5171C72.9272 95.3797 72.9504 95.2194 72.9504 95.0592V93.5709Z" fill="black"/>
<path d="M76.7273 99.6337H75.915L77.1451 96.2907L74.8938 90.0169H75.7293L77.5397 95.2145V95.5809L77.5861 95.2145L79.3964 90.0169H80.232L76.7041 99.6337H76.7273Z" fill="black"/>
<path d="M85.7099 95.7919C85.5938 96.0437 85.4546 96.2498 85.2689 96.433C85.0832 96.6162 84.8743 96.7536 84.619 96.868C84.3637 96.9825 84.1084 97.0283 83.8299 97.0283H83.2729C82.9944 97.0283 82.7159 96.9825 82.4838 96.868C82.2517 96.7536 82.0196 96.6162 81.8339 96.433C81.6482 96.2498 81.509 96.0437 81.3929 95.7919C81.2769 95.54 81.2305 95.2881 81.2305 95.0134V91.9223C81.2305 91.6475 81.2769 91.3727 81.3929 91.1438C81.509 90.8919 81.6482 90.6858 81.8339 90.5026C82.0196 90.3195 82.2285 90.1821 82.4838 90.0676C82.7391 89.9531 82.9944 89.9073 83.2729 89.9073H83.8299C84.1084 89.9073 84.3869 89.9531 84.619 90.0676C84.8511 90.1821 85.0832 90.3195 85.2689 90.5026C85.4546 90.6858 85.5938 90.8919 85.7099 91.1438C85.8259 91.3956 85.8723 91.6475 85.8723 91.9223V93.548H82.066V95.0821C82.066 95.2423 82.0892 95.4026 82.1588 95.54C82.2285 95.6774 82.2981 95.8148 82.4142 95.9293C82.5302 96.0437 82.6462 96.1124 82.8087 96.1811C82.948 96.2498 83.1104 96.2727 83.2729 96.2727H83.8299C83.9924 96.2727 84.1548 96.2498 84.2941 96.1811C84.4334 96.1124 84.5726 96.0437 84.6887 95.9293C84.8047 95.8148 84.8743 95.7003 84.944 95.54C85.0136 95.4026 85.0368 95.2423 85.0368 95.0821V94.6241L85.8723 94.7615V95.0363C85.8723 95.311 85.8259 95.5858 85.7099 95.8148V95.7919ZM85.0368 91.8765C85.0368 91.7162 85.0136 91.5559 84.944 91.4185C84.8743 91.2811 84.8047 91.1438 84.6887 91.0293C84.5726 90.9148 84.4566 90.8461 84.2941 90.7774C84.1548 90.7087 83.9924 90.6858 83.8299 90.6858H83.2729C83.1104 90.6858 82.948 90.7087 82.8087 90.7774C82.6694 90.8461 82.5302 90.9148 82.4142 91.0293C82.2981 91.1438 82.2285 91.2582 82.1588 91.4185C82.0892 91.5559 82.066 91.7162 82.066 91.8765V92.9068H85.0368V91.8765Z" fill="black"/>
<path d="M89.7272 90.8221C89.5648 90.8221 89.4023 90.845 89.2631 90.9137C89.1238 90.9824 88.9845 91.0511 88.8685 91.1656C88.7524 91.28 88.6828 91.3945 88.6132 91.5548C88.5436 91.7151 88.5204 91.8525 88.5204 92.0128V96.9127H87.6848V90.0436H87.9633L88.4275 90.7305C88.6132 90.4787 88.8685 90.2726 89.147 90.1123C89.4255 89.952 89.7504 89.8833 90.0986 89.8833H90.586V90.7992H89.7504L89.7272 90.8221Z" fill="black"/>
<path d="M96.5953 95.1484C96.5953 95.4232 96.5489 95.675 96.4329 95.904C96.3168 96.133 96.1544 96.339 95.9687 96.4993C95.783 96.6596 95.5509 96.797 95.2956 96.8886C95.0403 96.9802 94.7618 97.026 94.4833 97.026H93.9263C93.6478 97.026 93.3692 96.9802 93.1139 96.8657C92.8586 96.7512 92.6265 96.6138 92.4409 96.4306C92.2552 96.2475 92.0927 96.0414 91.9767 95.7895C91.8606 95.5376 91.8142 95.2858 91.8142 95.011V94.7362L92.6497 94.5989V95.0568C92.6497 95.2171 92.6962 95.3774 92.7658 95.5147C92.8354 95.6521 92.9283 95.7895 93.0443 95.904C93.1603 96.0185 93.2996 96.0872 93.4621 96.1559C93.6245 96.2246 93.787 96.2475 93.9495 96.2475H94.5065C94.669 96.2475 94.8314 96.2246 94.9939 96.1788C95.1564 96.133 95.2956 96.0643 95.4117 95.9727C95.5277 95.8811 95.6206 95.7666 95.6902 95.6292C95.7598 95.4918 95.8062 95.3545 95.8062 95.1942C95.8062 94.9423 95.7598 94.7362 95.6438 94.5989C95.5277 94.4386 95.3884 94.3012 95.2028 94.2096C95.0171 94.0951 94.8082 94.0264 94.5993 93.9577C94.3905 93.8891 94.1351 93.8204 93.9031 93.7517C93.671 93.683 93.4389 93.6143 93.2068 93.5227C92.9747 93.4311 92.7658 93.3166 92.6033 93.1792C92.4177 93.0419 92.2784 92.8587 92.1624 92.6297C92.0463 92.4007 91.9999 92.1489 91.9999 91.8054C91.9999 91.5307 92.0463 91.2788 92.1624 91.0498C92.2784 90.8208 92.4177 90.6148 92.6033 90.4545C92.789 90.2942 92.9979 90.1568 93.2532 90.0652C93.5085 89.9736 93.7638 89.9279 94.0423 89.9279H94.5297C94.8082 89.9279 95.0867 89.9736 95.3188 90.0881C95.5509 90.2026 95.783 90.34 95.9687 90.5232C96.1544 90.7064 96.2936 90.9124 96.4097 91.1643C96.5257 91.4162 96.5721 91.668 96.5721 91.9428L95.7366 92.1031V91.897C95.7366 91.7367 95.7134 91.5764 95.6438 91.4391C95.5741 91.3017 95.5045 91.1643 95.3885 91.0498C95.2724 90.9353 95.1564 90.8666 94.9939 90.7979C94.8546 90.7292 94.6922 90.7064 94.5297 90.7064H94.0423C93.8798 90.7064 93.7174 90.7293 93.5781 90.775C93.4389 90.8208 93.2996 90.8895 93.1836 90.9811C93.0675 91.0727 92.9979 91.1872 92.9283 91.3246C92.8586 91.462 92.8354 91.5993 92.8354 91.7596C92.8354 91.9886 92.8818 92.1947 92.9979 92.3321C93.1139 92.4694 93.2532 92.6068 93.4389 92.7213C93.6245 92.8358 93.8334 92.9045 94.0423 92.9732C94.2744 93.0419 94.5065 93.1105 94.7386 93.1792C94.9707 93.2479 95.2028 93.3395 95.4349 93.4311C95.667 93.5227 95.8758 93.6372 96.0383 93.7975C96.224 93.9348 96.3632 94.1409 96.4793 94.347C96.5953 94.576 96.6418 94.8507 96.6418 95.1713L96.5953 95.1484Z" fill="black"/>
<path d="M74.5756 306.688C74.0418 320.244 73.5544 331.326 73.1366 340.28H50.6003C49.0453 318.228 47.7688 303.734 47.7688 303.734C47.7688 303.734 48.5115 303.734 54.1049 300.803C59.6984 297.849 74.5756 306.688 74.5756 306.688Z" fill="#7B2838"/>
<path d="M101.4 303.734C101.4 303.734 100.123 318.228 98.568 340.28H76.0318C75.5908 331.326 75.1266 320.244 74.5928 306.688C74.5928 306.688 89.47 297.849 95.0634 300.803C100.657 303.734 101.4 303.734 101.4 303.734Z" fill="#7B2838"/>
<path d="M74.5738 198.51C72.8563 198.51 71.0692 198.625 69.2356 198.854C67.4021 199.083 65.5685 199.38 63.735 199.747C63.2708 199.838 62.853 199.999 62.3889 200.09C56.4473 201.395 50.8074 203.273 47.0475 204.67C44.3088 205.677 42.6377 208.379 42.8698 211.242C47.1171 259.924 41.0363 310.163 43.6589 311.468C58.0487 318.635 86.3873 319.231 105.419 311.468C108.111 310.369 102.495 270.365 106.347 211.15C106.533 208.334 104.839 205.7 102.17 204.716C98.4098 203.319 92.7235 201.418 86.7355 200.09C86.2713 199.976 85.8535 199.838 85.3893 199.747C83.5558 199.38 81.7223 199.06 79.8887 198.854C78.0784 198.648 76.2681 198.51 74.5506 198.51H74.5738Z" fill="#F8989A"/>
<path d="M76.1724 252.921L76.2188 258.622C76.2188 258.622 68.8846 259.034 67.0047 259.424C65.1247 259.79 60.7382 260.591 60.7614 259.744C60.7846 258.897 65.9138 258.599 65.6585 258.233C65.4032 257.867 55.9802 257.958 56.0731 257.019C56.1891 256.081 64.3356 256.058 64.3356 256.058C64.3356 256.058 54.3324 255.279 54.4252 254.111C54.4948 253.287 64.5677 254.34 64.6141 254.066C64.6605 253.791 55.5857 252.577 55.7946 251.478C55.957 250.631 67.376 252.44 67.1903 251.982C67.0047 251.547 64.707 250.173 65.3336 249.12C65.705 248.502 68.0955 250.059 69.4649 250.791C70.9038 251.57 74.5013 252.875 76.1724 252.921Z" fill="#F3B18E"/>
<path d="M106.206 209.163C106.206 209.163 114.771 246.969 112.612 256.723C110.454 266.455 74.9434 263.066 74.9434 263.066V251.045C74.9434 251.045 91.6773 249.579 96.5048 248.892C94.3696 242.275 94.7177 235.588 96.0871 229.154C97.8046 221.002 106.206 209.141 106.206 209.141V209.163Z" fill="#EF6270"/>
<path d="M74.5714 204.447C75.4766 204.447 76.2193 205.157 76.2193 206.073V225.903C76.2193 226.796 75.4998 227.528 74.5714 227.528C73.6431 227.528 72.9236 226.818 72.9236 225.903V206.073C72.9236 205.179 73.6431 204.447 74.5714 204.447Z" fill="#EF6270"/>
<path d="M82.5335 199.269V193.156H66.5422V199.269L67.3546 199.933L74.503 206.321L82.1389 199.727L82.5335 199.269Z" fill="#EAA283"/>
<path d="M65.6568 196.795C68.1867 200.596 71.8305 201.558 73.2695 203.16C74.7085 204.763 74.5228 206.732 74.5228 206.732C74.5228 206.732 68.1634 205.313 64.45 199.52L65.6801 196.818L65.6568 196.795Z" fill="#EF6270"/>
<path d="M83.387 196.795C80.8571 200.596 77.2133 201.558 75.7743 203.16C74.3353 204.763 74.521 206.732 74.521 206.732C74.521 206.732 80.8803 205.313 84.5938 199.52L83.3638 196.818L83.387 196.795Z" fill="#EF6270"/>
<path d="M55.9397 172.5C56.8913 175.889 56.4967 180.698 56.8217 185.736C57.1234 190.178 62.7865 198.49 76.7353 197.368C90.6841 196.223 93.8406 185.781 92.7729 181.087C91.7053 176.393 91.5196 170.394 91.5196 170.394C91.5196 170.394 72.5344 172.363 64.0398 160.341C64.7592 168.699 55.9397 172.5 55.9397 172.5Z" fill="#F3B18E"/>
<path d="M73.3888 191.414C70.4412 191.254 68.3988 190.361 68.2363 190.292C68.0274 190.2 67.9346 189.948 68.0274 189.742C68.1203 189.536 68.3756 189.445 68.5845 189.536C68.6541 189.559 75.3848 192.421 81.9299 188.598C82.1387 188.483 82.394 188.552 82.5101 188.735C82.6261 188.941 82.5565 189.193 82.3708 189.307C79.1679 191.185 75.9418 191.574 73.412 191.414H73.3888Z" fill="#7B2838"/>
<path d="M97.9218 154.414C95.0671 151.322 88.7541 151.093 88.7541 151.093C88.7541 151.093 75.4784 137.789 61.7849 150.498C61.7849 150.498 53.0117 149.697 49.8321 159.703C48.161 164.855 50.2731 170.076 50.2731 170.076C50.2731 170.076 45.9329 176.419 54.3347 181.113C55.0774 181.525 55.8201 181.915 56.5628 182.327C56.4699 178.594 56.5628 175.16 55.8201 172.549C55.8201 172.549 64.6396 168.748 63.9201 160.39C72.4148 172.412 91.4 170.443 91.4 170.443C91.4 170.443 91.5393 174.793 92.2355 178.984C94.1619 177.06 95.2992 175.549 95.2992 175.549C95.2992 175.549 100.707 169.069 97.4344 166.069C97.4344 166.069 102.657 159.52 97.9218 154.391V154.414Z" fill="#7B2838"/>
<path d="M94.7164 174.432C93.347 173.905 92.3258 174.821 91.7688 175.531C91.9545 177.317 92.233 179.332 92.6507 181.163C92.7436 181.575 92.79 182.033 92.8132 182.514C93.9041 182.606 95.227 181.69 95.6912 180.225C96.0857 178.919 96.8052 175.256 94.7164 174.454V174.432Z" fill="#F3B18E"/>
<path d="M56.396 176.554C55.7694 175.935 54.7017 175.249 53.4716 175.867C51.4756 176.874 52.5433 180.446 53.0771 181.706C53.7734 183.331 55.514 184.11 56.6049 183.56C56.5121 181.064 56.5353 178.683 56.396 176.554Z" fill="#F3B18E"/>
<path d="M79.946 249.895C79.946 249.895 84.0541 250.078 85.8644 250.193C87.6748 250.307 87.1874 251.681 83.7988 251.75C80.387 251.818 79.946 249.895 79.946 249.895Z" fill="#F3B18E"/>
<path d="M72.4504 253.376C72.4504 253.376 73.727 250.788 78.276 249.872C80.7362 249.369 86.5849 252.002 90.0431 253.925C93.5013 255.848 91.4357 256.581 90.5537 256.398C90.5537 256.398 91.9927 257.52 91.4821 258.321C90.9715 259.123 89.4629 258.848 89.4629 258.848C89.4629 258.848 90.5305 259.947 90.0199 260.68C89.5093 261.367 88.4185 260.84 88.4185 260.84C88.4185 260.84 88.8594 261.802 88.4185 262.054C87.9775 262.305 87.3044 262.191 85.5869 261.229C83.8694 260.268 80.5969 258.413 80.5969 258.413C80.5969 258.413 77.835 257.016 73.1931 261.87C70.292 259.649 71.2436 257.039 72.4272 253.376H72.4504Z" fill="#F3B18E"/>
<path d="M83.5447 255.734C85.5871 256.65 87.6063 257.635 89.5791 258.642C89.8808 258.642 90.9949 258.642 91.1573 258.116C91.4126 257.497 90.786 257.017 90.4146 256.559L90.4843 256.604C88.4651 255.666 86.4691 254.635 84.4963 253.582C86.5851 254.406 88.5579 255.437 90.6003 256.375C91.6447 257.223 92.3642 258.619 90.6003 259.054C90.1826 259.123 89.8808 259.009 89.4863 258.917C87.5135 257.864 85.4711 256.902 83.5679 255.757L83.5447 255.734Z" fill="#EF6270"/>
<path d="M82.0593 257.639C84.241 258.441 86.3066 259.494 88.3258 260.593C88.8829 261.005 89.9737 261.12 90.1594 260.318C90.1594 261.257 88.8364 261.303 88.1634 260.914C86.1442 259.723 84.2642 258.761 82.0593 257.639Z" fill="#EF6270"/>
<path d="M43.1459 209.006C43.1459 209.006 34.4192 246.972 36.5776 256.703C38.7361 266.435 74.2464 263.046 74.2464 263.046V251.025C74.2464 251.025 57.5125 249.559 52.6849 248.872C54.8202 242.254 54.472 235.568 53.1027 229.134C51.3852 220.982 43.1691 208.983 43.1691 208.983L43.1459 209.006Z" fill="#EF6270"/>
<path d="M85.3392 251.617L83.4592 250.953L86.0819 251.663L85.3392 251.617Z" fill="#EF6270"/>
<path d="M92.7774 126.31C94.9327 117.3 89.2771 108.273 80.1451 106.146C71.0131 104.02 61.8629 109.6 59.7075 118.609C57.5522 127.619 63.2079 136.647 72.3399 138.773C81.4719 140.9 90.6221 135.32 92.7774 126.31Z" fill="white"/>
<path d="M72.6935 130.554C71.8348 129.867 71.417 128.836 71.417 127.462V124.829H75.1769V126.34C75.1769 126.959 75.2465 127.416 75.3626 127.76C75.4786 128.103 75.7572 128.287 76.1285 128.287C76.4999 128.287 76.7319 128.172 76.8712 127.943C77.0105 127.714 77.0801 127.371 77.0801 126.913V123.409C77.0801 122.837 77.0104 122.402 76.8944 122.058C76.7784 121.715 76.5231 121.554 76.1517 121.554C75.4554 121.554 75.1305 122.035 75.1305 123.02H71.8348V113.563H80.399V116.883H75.2465V119.379C75.4322 119.15 75.6643 118.944 75.9892 118.807C76.291 118.646 76.6391 118.578 77.0337 118.578C78.5423 118.578 79.5635 119.104 80.1205 120.158C80.6775 121.211 80.956 122.699 80.956 124.6C80.956 126.18 80.84 127.462 80.6079 128.447C80.3758 129.432 79.9116 130.21 79.2153 130.76C78.5191 131.309 77.4979 131.584 76.1285 131.584C74.6895 131.584 73.5523 131.241 72.6935 130.531V130.554Z" fill="#EF6270"/>
</svg>
