<svg width="92" height="70" viewBox="0 0 92 70" fill="none" xmlns="http://www.w3.org/2000/svg">
<path d="M5.50565 0.765452L63.7286 0.765457C66.7568 0.765457 69.2344 3.24307 69.2344 6.27126L69.2344 64.4942C69.2344 67.5224 66.7568 70 63.7286 70L5.50564 70C2.47745 70 -0.000160001 67.5224 -0.000159736 64.4942L-0.000154646 6.27125C-0.000154381 3.24307 2.47745 0.765451 5.50565 0.765452Z" fill="#FDBE6F"/>
<path d="M28.2044 0.765452L86.4273 0.765457C89.4555 0.765457 91.9331 3.24307 91.9331 6.27126L91.9331 64.4942C91.9331 67.5224 89.4555 70 86.4273 70L28.2044 70C25.1762 70 22.6986 67.5224 22.6986 64.4942L22.6986 6.27125C22.6986 3.24307 25.1762 0.765451 28.2044 0.765452Z" fill="#FF7F00"/>
<path d="M10.1258 6.46119L12.6309 6.46119C15.6591 6.46119 18.1367 8.9388 18.1367 11.967L18.1367 58.7989C18.1367 61.8271 15.6591 64.3047 12.6309 64.3047L10.1258 64.3047C7.09759 64.3047 4.61998 61.8271 4.61998 58.7989L4.61998 11.967C4.61998 8.9388 7.0976 6.46119 10.1258 6.46119Z" fill="#FF7F00"/>
<path d="M33.6623 6.1565L80.4942 6.1565C83.5224 6.1565 86 8.63411 86 11.6623L86 58.4942C86 61.5224 83.5224 64 80.4942 64L33.6623 64C30.6341 64 28.1565 61.5224 28.1565 58.4942L28.1565 11.6623C28.1565 8.6341 30.6341 6.1565 33.6623 6.1565Z" fill="#FDBE6F"/>
<path d="M58.7458 22.2845C58.948 22.0086 59.226 21.9334 59.5798 22.0588C60.9194 22.5353 62.1073 23.2126 63.1436 24.1406C63.4216 24.4165 63.4722 24.6924 63.2952 25.0185L60.9699 28.6805C60.7172 29.0066 60.4392 29.0567 60.1359 28.8059C59.8073 28.5551 58.9732 28.0033 57.5578 27.1756L55.915 29.7841C55.6622 30.1102 55.3589 30.1353 55.0304 29.8844C54.7018 29.6336 53.5391 28.8811 51.5172 27.7023C51.1886 27.5016 51.138 27.2257 51.3402 26.8997L53.6908 23.4132C53.893 23.1373 54.171 23.0621 54.5249 23.1624C55.5106 23.5136 56.4205 23.965 57.2293 24.567L58.7458 22.2845ZM39.4358 43.3536C37.8435 41.3721 37.5655 38.8639 38.6523 35.8038C39.1072 34.5748 39.9413 33.2705 41.205 31.8659C41.66 31.3643 42.0644 31.2891 42.393 31.6151C42.7215 31.9412 42.6457 32.3174 42.2413 32.7689C41.0787 33.9979 40.5732 35.1517 40.7501 36.2302C41.3567 39.9424 46.26 41.7985 55.3842 41.7985C63.1183 41.8236 69.5381 40.3939 74.6183 37.5847C74.3403 36.4058 73.6326 35.3022 72.4447 34.2989C72.1414 34.023 72.0656 33.6468 72.2425 33.1702L73.7084 28.9062C74.0117 28.0284 74.5172 28.1036 75.1997 29.1821C76.8425 31.7154 77.3733 34.8507 76.7414 38.5629C76.4128 40.3939 75.7304 41.648 74.6436 42.3252C69.3359 45.6612 62.8403 47.5423 55.182 47.9436C47.4732 48.3199 42.216 46.8149 39.4358 43.3536Z" fill="#FF7F00"/>
</svg>
