<svg width="92" height="70" viewBox="0 0 92 70" fill="none" xmlns="http://www.w3.org/2000/svg">
<path d="M5.50565 -0.000173418L63.7286 -0.000168328C66.7568 -0.000168063 69.2344 2.47745 69.2344 5.50563L69.2344 63.7286C69.2344 66.7568 66.7568 69.2344 63.7286 69.2344L5.50564 69.2344C2.47745 69.2344 -0.000160001 66.7568 -0.000159736 63.7286L-0.000154646 5.50563C-0.000154381 2.47744 2.47745 -0.000173683 5.50565 -0.000173418Z" fill="#CAB2D6"/>
<path d="M28.2044 -0.000173418L86.4273 -0.000168328C89.4555 -0.000168063 91.9331 2.47745 91.9331 5.50563L91.9331 63.7286C91.9331 66.7568 89.4555 69.2344 86.4273 69.2344L28.2044 69.2344C25.1762 69.2344 22.6986 66.7568 22.6986 63.7286L22.6986 5.50563C22.6986 2.47744 25.1762 -0.000173683 28.2044 -0.000173418Z" fill="#55317B"/>
<path d="M10.1258 5.69556L12.6309 5.69556C15.6591 5.69556 18.1367 8.17318 18.1367 11.2014L18.1367 58.0333C18.1367 61.0615 15.6591 63.5391 12.6309 63.5391L10.1258 63.5391C7.09759 63.5391 4.61998 61.0615 4.61998 58.0333L4.61998 11.2014C4.61998 8.17317 7.0976 5.69556 10.1258 5.69556Z" fill="#55317B"/>
<path d="M33.6623 5.70044L80.4942 5.70045C83.5224 5.70045 86 8.17805 86 11.2062L86 58.0381C86 61.0663 83.5224 63.5439 80.4942 63.5439L33.6623 63.5439C30.6341 63.5439 28.1565 61.0663 28.1565 58.0381L28.1565 11.2062C28.1565 8.17805 30.6341 5.70044 33.6623 5.70044Z" fill="#CAB2D6"/>
<path d="M62.0719 17.418C62.4446 16.7295 62.8587 16.8915 63.3556 17.9041C63.8525 18.9166 64.4944 19.7671 65.2811 20.3949C65.7987 20.8202 65.8609 21.3062 65.4261 21.8327C65.4261 21.8327 65.1155 22.2377 64.4944 23.0275C66.1922 31.8164 67.0203 37.7701 66.9996 40.909C66.9789 42.5493 66.6062 44.1896 65.8402 45.83C65.3433 46.9235 63.5834 47.5715 60.5398 47.8348C58.6557 47.9765 56.2747 48.0373 53.4382 47.9765C50.581 47.936 48.3656 47.7943 46.7921 47.5513C46.3366 47.4703 46.1088 47.288 46.1088 46.9842C46.026 45.6882 45.9846 44.4124 46.0053 43.1366C46.026 42.6506 46.233 42.4886 46.6471 42.6101C48.3656 43.0758 50.1255 43.3188 51.9475 43.3593C59.0491 43.4808 63.4592 43.0758 65.1983 42.1645C65.219 41.719 64.101 35.3805 61.8235 23.1895C61.7821 22.8655 61.5129 22.1162 61.0574 20.9619C60.809 20.3342 60.8297 19.7671 61.0988 19.2406L62.0719 17.418ZM55.1567 25.7816C55.3844 25.7411 55.55 25.8221 55.6536 26.0044C55.7778 26.1866 55.7985 26.3689 55.7364 26.5309L54.9082 28.5155C54.7219 28.9205 54.5355 29.1433 54.2871 29.204C53.6659 29.3255 53.2519 29.5483 52.9827 29.8318C53.3761 30.1153 53.9351 30.2976 54.7219 30.4191C55.4879 30.5406 56.0055 30.6621 56.254 30.8443C57.2064 31.5329 56.8958 32.9099 55.3844 34.9958C54.7633 35.8058 54.1835 36.2716 53.6452 36.4133C53.0862 36.5551 52.1545 36.5753 50.8501 36.4336C49.5457 36.3121 48.4898 36.0893 47.7238 35.8058C47.3304 35.6438 47.144 35.4413 47.144 35.1983C47.144 34.935 47.1854 34.7527 47.3097 34.6312C47.4132 34.5097 47.6823 34.449 48.1171 34.4287C48.5519 34.4085 49.4629 34.368 50.8915 34.3275C52.3201 34.287 53.2933 34.1857 53.8316 34.0237L52.7342 33.7604C52.0717 33.5984 51.5334 33.3149 51.1193 32.8897C50.7259 32.4644 50.581 31.9986 50.6845 31.4721C51.4506 28.2522 52.9413 26.3689 55.1567 25.7816Z" fill="#6A3D9A"/>
</svg>
