<svg width="70" height="70" viewBox="0 0 70 70" fill="none" xmlns="http://www.w3.org/2000/svg">
<path d="M53.5344 60.47C51.767 60.47 49.9948 60.4793 48.2273 60.4653C47.6568 60.4606 47.1752 60.5964 46.717 60.9665C45.3048 62.114 43.8647 63.2288 42.4292 64.3529C40.297 66.0251 38.1601 67.6879 36.0232 69.3554C35.8268 69.5053 35.6164 69.6364 35.434 69.8003C35.1348 70.072 34.8682 70.058 34.5549 69.8097C32.9885 68.5685 31.4081 67.3413 29.837 66.1047C28.1443 64.7792 26.4563 63.4536 24.7636 62.1281C24.2352 61.7159 23.7022 61.3084 23.1831 60.8868C22.8137 60.5871 22.4023 60.4653 21.93 60.4653C18.2127 60.4746 14.4953 60.47 10.7733 60.47C10.3571 60.47 10.2402 60.3388 10.2356 59.8704C10.2075 57.6409 10.2215 55.4113 10.142 53.1818C10.0859 51.6314 10.0439 50.0857 10.0392 48.5353C10.0392 48.2262 9.89422 47.992 9.70719 47.7625C8.23428 45.9732 6.75669 44.1886 5.28846 42.3994C3.82958 40.6195 2.37537 38.8349 0.921163 37.0503C0.663988 36.7318 0.383434 36.4367 0.144963 36.0995C-0.0654529 35.8091 -0.0373975 35.5983 0.168342 35.336C0.995977 34.2728 1.81426 33.2001 2.63722 32.1369C4.22703 30.0806 5.85424 28.0525 7.42535 25.9822C8.08932 25.1063 8.79071 24.2585 9.45936 23.3826C9.61367 23.1812 9.70251 22.9658 9.69784 22.6988C9.67913 20.872 9.77265 19.0359 9.63705 17.2139C9.47807 15.0874 9.62302 12.9656 9.53418 10.8438C9.51548 10.4456 9.65108 10.3004 10.0439 10.3051C11.2128 10.3145 12.3771 10.3192 13.5461 10.2957C14.6309 10.2723 15.7157 10.2817 16.8005 10.277C17.703 10.2723 18.6101 10.3004 19.5172 10.2864C20.3916 10.277 21.2707 10.4035 22.1404 10.188C22.3368 10.1365 22.5098 10.0522 22.6501 9.93507C23.9734 8.86245 25.278 7.7711 26.6012 6.6938C27.7796 5.73359 28.9719 4.78744 30.1502 3.82255C30.9405 3.18085 31.712 2.52042 32.4975 1.87404C33.2083 1.28854 33.9237 0.717105 34.6344 0.136298C34.9056 -0.0838463 35.1675 -0.0182713 35.3779 0.197189C35.8736 0.707737 36.4767 1.09182 37.0145 1.55084C37.4774 1.94898 37.9122 2.3799 38.4032 2.74993C39.2963 3.42441 40.2268 4.06611 41.0264 4.84364C41.4753 5.27925 42.013 5.56029 42.4572 5.99121C42.9435 6.46428 43.4953 6.87178 44.0236 7.30271C44.8934 8.00529 45.7958 8.6751 46.6281 9.41984C46.904 9.66809 47.2266 9.84139 47.4932 10.0943C47.9093 10.4878 48.4517 10.2864 48.924 10.2957C49.9808 10.3145 51.0422 10.3004 52.0989 10.2817C53.7636 10.2536 55.4329 10.3051 57.1022 10.3145C57.9812 10.3192 58.8603 10.3004 59.7394 10.3238C60.2257 10.3379 60.3285 10.4784 60.3052 10.9515C60.2865 11.3121 60.4595 11.6447 60.4361 12.0147C60.221 15.2701 60.2958 18.5301 60.2677 21.7854C60.2677 21.9915 60.2818 22.2023 60.2631 22.4084C60.207 22.9611 60.3706 23.4107 60.7353 23.837C61.8108 25.1063 62.7787 26.4647 63.8355 27.7527C64.303 28.3195 64.7005 28.9612 65.1775 29.5139C65.7058 30.1275 66.136 30.8067 66.6644 31.4202C67.0198 31.8324 67.3751 32.2774 67.6884 32.7505C68.0017 33.2282 68.4272 33.6545 68.7919 34.1088C69.18 34.5913 69.5401 35.0971 69.9235 35.5843C70.0965 35.8044 69.9375 35.9449 69.8253 36.0854C69.1192 36.9613 68.4085 37.8325 67.6978 38.7038C65.8975 40.8958 64.0926 43.0879 62.2924 45.28C61.6331 46.0856 60.9785 46.8959 60.3005 47.6875C60.0012 48.0388 59.917 48.4276 59.9124 48.8679C59.875 51.2754 59.8235 53.6829 59.7814 56.0905C59.7627 57.3505 59.7581 58.6104 59.744 59.8704C59.7394 60.3294 59.6458 60.4325 59.1783 60.4325C57.2985 60.4325 55.4188 60.4325 53.5391 60.4325V60.4419L53.5344 60.47ZM24.4503 47.1442V47.1348C25.1423 47.1348 25.8344 47.1114 26.5217 47.1442C26.8631 47.1582 27.0548 47.0271 27.2278 46.7601C28.1443 45.3783 29.0841 44.006 30.0006 42.6242C30.9638 41.1769 31.8897 39.6967 32.8856 38.2681C33.6712 37.144 34.3258 35.9777 34.6765 34.6381C35.0506 33.2189 35.0272 31.8184 34.6672 30.4038C34.1528 28.3757 32.9605 26.9049 31.1088 25.9354C30.1315 25.4248 29.0888 25.1016 28.0134 24.9939C27.0969 24.9049 26.157 24.8862 25.2218 25.1157C24.1183 25.392 23.0569 25.7246 22.1217 26.3991C20.5085 27.5607 19.4564 29.1017 19.1852 31.069C18.9935 32.4694 19.0122 33.8934 19.4985 35.2704C19.9848 36.6428 20.7844 37.781 21.9347 38.6663C23.1598 39.6077 24.5672 40.0621 26.1009 40.1651C26.475 40.1886 26.5171 40.2635 26.3067 40.5726C26.0214 40.9942 25.7035 41.3923 25.4276 41.8232C24.3661 43.4907 23.1457 45.0552 22.1124 46.7414C22.0469 46.8491 21.8599 46.9381 21.9487 47.0786C22.0235 47.2004 22.2059 47.1395 22.3415 47.1395C23.0475 47.1395 23.7489 47.1395 24.455 47.1395L24.4503 47.1442ZM41.1994 47.1442C41.9335 47.1442 42.663 47.1442 43.3971 47.1442C43.5935 47.1442 43.7665 47.1301 43.9021 46.9334C44.7671 45.6594 45.6462 44.3994 46.5112 43.1254C47.2828 41.9919 48.0683 40.8677 48.8118 39.7155C49.4524 38.7225 50.1912 37.7998 50.7757 36.7693C51.608 35.3032 51.9961 33.7435 51.9306 32.0573C51.9166 31.7294 51.7716 31.4437 51.7763 31.1252C51.7903 30.5116 51.5519 29.9635 51.3181 29.4249C50.7616 28.1509 49.9059 27.1157 48.751 26.3241C47.6615 25.5747 46.4364 25.1391 45.1505 24.9892C44.1359 24.8721 43.0978 24.9049 42.0691 25.1297C40.3764 25.4998 38.8989 26.2445 37.7486 27.5326C36.6591 28.7504 36.0886 30.2024 36.0606 31.8605C36.0372 33.2142 36.0466 34.5585 36.6264 35.8278C37.6551 38.0667 39.3431 39.4813 41.7699 39.9731C42.2047 40.0621 42.6256 40.1932 43.0744 40.1886C43.2615 40.1886 43.4672 40.2635 43.2475 40.479C42.2281 41.4766 41.6296 42.7834 40.7365 43.8795C40.0024 44.7835 39.4366 45.8139 38.8147 46.8023C38.623 47.102 38.7118 47.1442 38.9971 47.1442C39.7312 47.1442 40.4606 47.1442 41.1947 47.1442H41.1994Z" fill="#186057"/>
<path d="M30.3661 32.6994C30.483 33.8703 30.0388 34.7884 29.0054 35.3458C27.9393 35.9219 26.8218 35.8516 25.765 35.3083C24.8158 34.8212 24.2547 34.053 24.0864 32.9429C23.9975 32.3481 24.1892 31.7626 24.0069 31.1865C23.9742 31.0881 24.0069 31.0787 24.2313 31.0178C24.25 31.0131 24.2687 30.985 24.2687 30.9663C24.395 30.245 24.9701 29.9499 25.5312 29.6689C26.8779 29.0084 28.6781 29.3738 29.5665 30.348C30.1697 31.0131 30.4783 31.7813 30.3614 32.6947L30.3661 32.6994Z" fill="#186057"/>
<path d="M47.2781 32.3854C47.3295 33.2894 47.1378 34.0294 46.4925 34.6149C46.3476 34.7461 45.9642 34.732 46.1372 35.1067C46.1418 35.1208 46.0156 35.2285 45.9829 35.2192C45.5293 35.0224 45.2581 35.4299 44.8981 35.5236C44.0424 35.7391 43.1867 35.8281 42.3216 35.4861C40.3484 34.7133 40.2642 32.3011 40.9563 31.0036C41.5501 29.8935 43.3036 29.0692 44.4959 29.3924C45.2113 29.5891 45.9174 29.7202 46.4411 30.3338C46.9695 30.9568 47.4417 31.5704 47.2781 32.3807V32.3854Z" fill="#186057"/>
</svg>
