<svg width="60" height="65" viewBox="0 0 60 65" fill="none" xmlns="http://www.w3.org/2000/svg">
<path d="M0.159424 5.15918C0.159424 2.39775 2.398 0.15918 5.15942 0.15918H54.088C56.8494 0.15918 59.088 2.39776 59.088 5.15918V59.5273C59.088 62.2887 56.8494 64.5273 54.088 64.5273H5.15942C2.398 64.5273 0.159424 62.2887 0.159424 59.5273V5.15918Z" fill="url(#paint0_linear_3219_5250)"/>
<mask id="path-2-outside-1_3219_5250" maskUnits="userSpaceOnUse" x="16.3845" y="43.582" width="28" height="14" fill="black">
<rect fill="white" x="16.3845" y="43.582" width="28" height="14"/>
<path d="M19.1384 45.0508V53.582H17.0818V45.0508H19.1384ZM22.4548 48.6016V50.1836H18.5525V48.6016H22.4548ZM22.7888 45.0508V46.6387H18.5525V45.0508H22.7888ZM26.6443 51.9883V49.375C26.6443 49.1953 26.6189 49.041 26.5681 48.9121C26.5173 48.7832 26.4373 48.6836 26.3279 48.6133C26.2185 48.5391 26.072 48.502 25.8884 48.502C25.74 48.502 25.613 48.5273 25.5076 48.5781C25.4021 48.6289 25.322 48.7051 25.2673 48.8066C25.2126 48.9082 25.1853 49.0371 25.1853 49.1934H23.2107C23.2107 48.9004 23.2751 48.6289 23.4041 48.3789C23.5369 48.125 23.7244 47.9043 23.9666 47.7168C24.2126 47.5293 24.5056 47.3848 24.8455 47.2832C25.1892 47.1777 25.572 47.125 25.9939 47.125C26.4978 47.125 26.947 47.209 27.3416 47.377C27.74 47.5449 28.0544 47.7969 28.2849 48.1328C28.5154 48.4648 28.6306 48.8828 28.6306 49.3867V51.9824C28.6306 52.3965 28.6541 52.7109 28.7009 52.9258C28.7478 53.1367 28.8142 53.3223 28.9001 53.4824V53.582H26.9197C26.8259 53.3867 26.7556 53.1484 26.7087 52.8672C26.6658 52.582 26.6443 52.2891 26.6443 51.9883ZM26.8845 49.709L26.8962 50.7637H26.0232C25.8396 50.7637 25.6833 50.7891 25.5544 50.8398C25.4294 50.8906 25.3279 50.9609 25.2498 51.0508C25.1755 51.1367 25.1208 51.2344 25.0857 51.3438C25.0544 51.4531 25.0388 51.5684 25.0388 51.6895C25.0388 51.8066 25.0662 51.9121 25.1208 52.0059C25.1794 52.0957 25.2576 52.166 25.3552 52.2168C25.4529 52.2676 25.5623 52.293 25.6833 52.293C25.9021 52.293 26.0876 52.252 26.24 52.1699C26.3962 52.084 26.5154 51.9805 26.5974 51.8594C26.6794 51.7383 26.7205 51.625 26.7205 51.5195L27.1541 52.3281C27.0759 52.4844 26.9861 52.6426 26.8845 52.8027C26.7869 52.9629 26.6638 53.1113 26.5154 53.248C26.3708 53.3809 26.1931 53.4902 25.9822 53.5762C25.7712 53.6582 25.5154 53.6992 25.2146 53.6992C24.824 53.6992 24.4646 53.6191 24.1365 53.459C23.8123 53.2988 23.5525 53.0762 23.3572 52.791C23.1619 52.502 23.0642 52.1699 23.0642 51.7949C23.0642 51.4668 23.1228 51.1738 23.24 50.916C23.3611 50.6582 23.5427 50.4395 23.7849 50.2598C24.0271 50.0801 24.3357 49.9434 24.7107 49.8496C25.0857 49.7559 25.5271 49.709 26.0349 49.709H26.8845ZM29.8728 47.2422H31.8533V53.7871C31.8533 54.2949 31.7556 54.7227 31.5603 55.0703C31.365 55.4219 31.0857 55.6875 30.7224 55.8672C30.3591 56.0508 29.9255 56.1426 29.4216 56.1426C29.2537 56.1426 29.0994 56.1348 28.9587 56.1191C28.8142 56.1074 28.656 56.082 28.4841 56.043V54.5488C28.5857 54.5645 28.6794 54.5762 28.7654 54.584C28.8513 54.5957 28.9451 54.6016 29.0466 54.6016C29.2263 54.6016 29.3767 54.5723 29.4978 54.5137C29.6189 54.4551 29.7107 54.3652 29.7732 54.2441C29.8396 54.123 29.8728 53.9707 29.8728 53.7871V47.2422ZM29.7263 45.6074C29.7263 45.3262 29.8279 45.0957 30.031 44.916C30.2341 44.7363 30.4978 44.6465 30.822 44.6465C31.1462 44.6465 31.4099 44.7363 31.613 44.916C31.8162 45.0957 31.9177 45.3262 31.9177 45.6074C31.9177 45.8887 31.8162 46.1191 31.613 46.2988C31.4099 46.4785 31.1462 46.5684 30.822 46.5684C30.4978 46.5684 30.2341 46.4785 30.031 46.2988C29.8279 46.1191 29.7263 45.8887 29.7263 45.6074ZM36.2654 51.9883V49.375C36.2654 49.1953 36.24 49.041 36.1892 48.9121C36.1384 48.7832 36.0583 48.6836 35.949 48.6133C35.8396 48.5391 35.6931 48.502 35.5095 48.502C35.3611 48.502 35.2341 48.5273 35.1287 48.5781C35.0232 48.6289 34.9431 48.7051 34.8884 48.8066C34.8337 48.9082 34.8064 49.0371 34.8064 49.1934H32.8318C32.8318 48.9004 32.8962 48.6289 33.0251 48.3789C33.158 48.125 33.3455 47.9043 33.5876 47.7168C33.8337 47.5293 34.1267 47.3848 34.4666 47.2832C34.8103 47.1777 35.1931 47.125 35.615 47.125C36.1189 47.125 36.5681 47.209 36.9626 47.377C37.3611 47.5449 37.6755 47.7969 37.906 48.1328C38.1365 48.4648 38.2517 48.8828 38.2517 49.3867V51.9824C38.2517 52.3965 38.2751 52.7109 38.322 52.9258C38.3689 53.1367 38.4353 53.3223 38.5212 53.4824V53.582H36.5408C36.447 53.3867 36.3767 53.1484 36.3298 52.8672C36.2869 52.582 36.2654 52.2891 36.2654 51.9883ZM36.5056 49.709L36.5173 50.7637H35.6443C35.4607 50.7637 35.3044 50.7891 35.1755 50.8398C35.0505 50.8906 34.949 50.9609 34.8708 51.0508C34.7966 51.1367 34.7419 51.2344 34.7068 51.3438C34.6755 51.4531 34.6599 51.5684 34.6599 51.6895C34.6599 51.8066 34.6873 51.9121 34.7419 52.0059C34.8005 52.0957 34.8787 52.166 34.9763 52.2168C35.074 52.2676 35.1833 52.293 35.3044 52.293C35.5232 52.293 35.7087 52.252 35.8611 52.1699C36.0173 52.084 36.1365 51.9805 36.2185 51.8594C36.3005 51.7383 36.3416 51.625 36.3416 51.5195L36.7751 52.3281C36.697 52.4844 36.6072 52.6426 36.5056 52.8027C36.408 52.9629 36.2849 53.1113 36.1365 53.248C35.9919 53.3809 35.8142 53.4902 35.6033 53.5762C35.3923 53.6582 35.1365 53.6992 34.8357 53.6992C34.4451 53.6992 34.0857 53.6191 33.7576 53.459C33.4333 53.2988 33.1736 53.0762 32.9783 52.791C32.783 52.502 32.6853 52.1699 32.6853 51.7949C32.6853 51.4668 32.7439 51.1738 32.8611 50.916C32.9822 50.6582 33.1638 50.4395 33.406 50.2598C33.6482 50.0801 33.9568 49.9434 34.3318 49.8496C34.7068 49.7559 35.1482 49.709 35.656 49.709H36.5056ZM41.3396 48.8125V53.582H39.365V47.2422H41.2107L41.3396 48.8125ZM43.2146 47.1953L43.1794 49.0293C43.1013 49.0215 42.9958 49.0117 42.863 49C42.7302 48.9883 42.6189 48.9824 42.5291 48.9824C42.2986 48.9824 42.0994 49.0098 41.9314 49.0645C41.7673 49.1152 41.6306 49.1934 41.5212 49.2988C41.4158 49.4004 41.3376 49.5293 41.2869 49.6855C41.24 49.8418 41.2185 50.0234 41.2224 50.2305L40.865 49.9961C40.865 49.5703 40.906 49.1836 40.988 48.8359C41.074 48.4844 41.1951 48.1816 41.3513 47.9277C41.5076 47.6699 41.697 47.4727 41.9197 47.3359C42.1423 47.1953 42.3923 47.125 42.6697 47.125C42.7673 47.125 42.863 47.1309 42.9568 47.1426C43.0544 47.1543 43.1404 47.1719 43.2146 47.1953Z"/>
</mask>
<path d="M19.1384 45.0508V53.582H17.0818V45.0508H19.1384ZM22.4548 48.6016V50.1836H18.5525V48.6016H22.4548ZM22.7888 45.0508V46.6387H18.5525V45.0508H22.7888ZM26.6443 51.9883V49.375C26.6443 49.1953 26.6189 49.041 26.5681 48.9121C26.5173 48.7832 26.4373 48.6836 26.3279 48.6133C26.2185 48.5391 26.072 48.502 25.8884 48.502C25.74 48.502 25.613 48.5273 25.5076 48.5781C25.4021 48.6289 25.322 48.7051 25.2673 48.8066C25.2126 48.9082 25.1853 49.0371 25.1853 49.1934H23.2107C23.2107 48.9004 23.2751 48.6289 23.4041 48.3789C23.5369 48.125 23.7244 47.9043 23.9666 47.7168C24.2126 47.5293 24.5056 47.3848 24.8455 47.2832C25.1892 47.1777 25.572 47.125 25.9939 47.125C26.4978 47.125 26.947 47.209 27.3416 47.377C27.74 47.5449 28.0544 47.7969 28.2849 48.1328C28.5154 48.4648 28.6306 48.8828 28.6306 49.3867V51.9824C28.6306 52.3965 28.6541 52.7109 28.7009 52.9258C28.7478 53.1367 28.8142 53.3223 28.9001 53.4824V53.582H26.9197C26.8259 53.3867 26.7556 53.1484 26.7087 52.8672C26.6658 52.582 26.6443 52.2891 26.6443 51.9883ZM26.8845 49.709L26.8962 50.7637H26.0232C25.8396 50.7637 25.6833 50.7891 25.5544 50.8398C25.4294 50.8906 25.3279 50.9609 25.2498 51.0508C25.1755 51.1367 25.1208 51.2344 25.0857 51.3438C25.0544 51.4531 25.0388 51.5684 25.0388 51.6895C25.0388 51.8066 25.0662 51.9121 25.1208 52.0059C25.1794 52.0957 25.2576 52.166 25.3552 52.2168C25.4529 52.2676 25.5623 52.293 25.6833 52.293C25.9021 52.293 26.0876 52.252 26.24 52.1699C26.3962 52.084 26.5154 51.9805 26.5974 51.8594C26.6794 51.7383 26.7205 51.625 26.7205 51.5195L27.1541 52.3281C27.0759 52.4844 26.9861 52.6426 26.8845 52.8027C26.7869 52.9629 26.6638 53.1113 26.5154 53.248C26.3708 53.3809 26.1931 53.4902 25.9822 53.5762C25.7712 53.6582 25.5154 53.6992 25.2146 53.6992C24.824 53.6992 24.4646 53.6191 24.1365 53.459C23.8123 53.2988 23.5525 53.0762 23.3572 52.791C23.1619 52.502 23.0642 52.1699 23.0642 51.7949C23.0642 51.4668 23.1228 51.1738 23.24 50.916C23.3611 50.6582 23.5427 50.4395 23.7849 50.2598C24.0271 50.0801 24.3357 49.9434 24.7107 49.8496C25.0857 49.7559 25.5271 49.709 26.0349 49.709H26.8845ZM29.8728 47.2422H31.8533V53.7871C31.8533 54.2949 31.7556 54.7227 31.5603 55.0703C31.365 55.4219 31.0857 55.6875 30.7224 55.8672C30.3591 56.0508 29.9255 56.1426 29.4216 56.1426C29.2537 56.1426 29.0994 56.1348 28.9587 56.1191C28.8142 56.1074 28.656 56.082 28.4841 56.043V54.5488C28.5857 54.5645 28.6794 54.5762 28.7654 54.584C28.8513 54.5957 28.9451 54.6016 29.0466 54.6016C29.2263 54.6016 29.3767 54.5723 29.4978 54.5137C29.6189 54.4551 29.7107 54.3652 29.7732 54.2441C29.8396 54.123 29.8728 53.9707 29.8728 53.7871V47.2422ZM29.7263 45.6074C29.7263 45.3262 29.8279 45.0957 30.031 44.916C30.2341 44.7363 30.4978 44.6465 30.822 44.6465C31.1462 44.6465 31.4099 44.7363 31.613 44.916C31.8162 45.0957 31.9177 45.3262 31.9177 45.6074C31.9177 45.8887 31.8162 46.1191 31.613 46.2988C31.4099 46.4785 31.1462 46.5684 30.822 46.5684C30.4978 46.5684 30.2341 46.4785 30.031 46.2988C29.8279 46.1191 29.7263 45.8887 29.7263 45.6074ZM36.2654 51.9883V49.375C36.2654 49.1953 36.24 49.041 36.1892 48.9121C36.1384 48.7832 36.0583 48.6836 35.949 48.6133C35.8396 48.5391 35.6931 48.502 35.5095 48.502C35.3611 48.502 35.2341 48.5273 35.1287 48.5781C35.0232 48.6289 34.9431 48.7051 34.8884 48.8066C34.8337 48.9082 34.8064 49.0371 34.8064 49.1934H32.8318C32.8318 48.9004 32.8962 48.6289 33.0251 48.3789C33.158 48.125 33.3455 47.9043 33.5876 47.7168C33.8337 47.5293 34.1267 47.3848 34.4666 47.2832C34.8103 47.1777 35.1931 47.125 35.615 47.125C36.1189 47.125 36.5681 47.209 36.9626 47.377C37.3611 47.5449 37.6755 47.7969 37.906 48.1328C38.1365 48.4648 38.2517 48.8828 38.2517 49.3867V51.9824C38.2517 52.3965 38.2751 52.7109 38.322 52.9258C38.3689 53.1367 38.4353 53.3223 38.5212 53.4824V53.582H36.5408C36.447 53.3867 36.3767 53.1484 36.3298 52.8672C36.2869 52.582 36.2654 52.2891 36.2654 51.9883ZM36.5056 49.709L36.5173 50.7637H35.6443C35.4607 50.7637 35.3044 50.7891 35.1755 50.8398C35.0505 50.8906 34.949 50.9609 34.8708 51.0508C34.7966 51.1367 34.7419 51.2344 34.7068 51.3438C34.6755 51.4531 34.6599 51.5684 34.6599 51.6895C34.6599 51.8066 34.6873 51.9121 34.7419 52.0059C34.8005 52.0957 34.8787 52.166 34.9763 52.2168C35.074 52.2676 35.1833 52.293 35.3044 52.293C35.5232 52.293 35.7087 52.252 35.8611 52.1699C36.0173 52.084 36.1365 51.9805 36.2185 51.8594C36.3005 51.7383 36.3416 51.625 36.3416 51.5195L36.7751 52.3281C36.697 52.4844 36.6072 52.6426 36.5056 52.8027C36.408 52.9629 36.2849 53.1113 36.1365 53.248C35.9919 53.3809 35.8142 53.4902 35.6033 53.5762C35.3923 53.6582 35.1365 53.6992 34.8357 53.6992C34.4451 53.6992 34.0857 53.6191 33.7576 53.459C33.4333 53.2988 33.1736 53.0762 32.9783 52.791C32.783 52.502 32.6853 52.1699 32.6853 51.7949C32.6853 51.4668 32.7439 51.1738 32.8611 50.916C32.9822 50.6582 33.1638 50.4395 33.406 50.2598C33.6482 50.0801 33.9568 49.9434 34.3318 49.8496C34.7068 49.7559 35.1482 49.709 35.656 49.709H36.5056ZM41.3396 48.8125V53.582H39.365V47.2422H41.2107L41.3396 48.8125ZM43.2146 47.1953L43.1794 49.0293C43.1013 49.0215 42.9958 49.0117 42.863 49C42.7302 48.9883 42.6189 48.9824 42.5291 48.9824C42.2986 48.9824 42.0994 49.0098 41.9314 49.0645C41.7673 49.1152 41.6306 49.1934 41.5212 49.2988C41.4158 49.4004 41.3376 49.5293 41.2869 49.6855C41.24 49.8418 41.2185 50.0234 41.2224 50.2305L40.865 49.9961C40.865 49.5703 40.906 49.1836 40.988 48.8359C41.074 48.4844 41.1951 48.1816 41.3513 47.9277C41.5076 47.6699 41.697 47.4727 41.9197 47.3359C42.1423 47.1953 42.3923 47.125 42.6697 47.125C42.7673 47.125 42.863 47.1309 42.9568 47.1426C43.0544 47.1543 43.1404 47.1719 43.2146 47.1953Z" fill="#FCFCFC"/>
<path d="M19.1384 45.0508H19.6384V44.5508H19.1384V45.0508ZM19.1384 53.582V54.082H19.6384V53.582H19.1384ZM17.0818 53.582H16.5818V54.082H17.0818V53.582ZM17.0818 45.0508V44.5508H16.5818V45.0508H17.0818ZM22.4548 48.6016H22.9548V48.1016H22.4548V48.6016ZM22.4548 50.1836V50.6836H22.9548V50.1836H22.4548ZM18.5525 50.1836H18.0525V50.6836H18.5525V50.1836ZM18.5525 48.6016V48.1016H18.0525V48.6016H18.5525ZM22.7888 45.0508H23.2888V44.5508H22.7888V45.0508ZM22.7888 46.6387V47.1387H23.2888V46.6387H22.7888ZM18.5525 46.6387H18.0525V47.1387H18.5525V46.6387ZM18.5525 45.0508V44.5508H18.0525V45.0508H18.5525ZM18.6384 45.0508V53.582H19.6384V45.0508H18.6384ZM19.1384 53.082H17.0818V54.082H19.1384V53.082ZM17.5818 53.582V45.0508H16.5818V53.582H17.5818ZM17.0818 45.5508H19.1384V44.5508H17.0818V45.5508ZM21.9548 48.6016V50.1836H22.9548V48.6016H21.9548ZM22.4548 49.6836H18.5525V50.6836H22.4548V49.6836ZM19.0525 50.1836V48.6016H18.0525V50.1836H19.0525ZM18.5525 49.1016H22.4548V48.1016H18.5525V49.1016ZM22.2888 45.0508V46.6387H23.2888V45.0508H22.2888ZM22.7888 46.1387H18.5525V47.1387H22.7888V46.1387ZM19.0525 46.6387V45.0508H18.0525V46.6387H19.0525ZM18.5525 45.5508H22.7888V44.5508H18.5525V45.5508ZM26.3279 48.6133L26.047 49.0271L26.0575 49.0339L26.3279 48.6133ZM25.1853 49.1934V49.6934H25.6853V49.1934H25.1853ZM23.2107 49.1934H22.7107V49.6934H23.2107V49.1934ZM23.4041 48.3789L22.961 48.1472L22.9597 48.1498L23.4041 48.3789ZM23.9666 47.7168L23.6635 47.3191L23.6605 47.3214L23.9666 47.7168ZM24.8455 47.2832L24.9886 47.7623L24.9921 47.7612L24.8455 47.2832ZM27.3416 47.377L27.1457 47.837L27.1473 47.8377L27.3416 47.377ZM28.2849 48.1328L27.8726 48.4157L27.8742 48.4179L28.2849 48.1328ZM28.7009 52.9258L28.2124 53.0324L28.2128 53.0342L28.7009 52.9258ZM28.9001 53.4824H29.4001V53.3568L29.3407 53.246L28.9001 53.4824ZM28.9001 53.582V54.082H29.4001V53.582H28.9001ZM26.9197 53.582L26.4689 53.7984L26.6051 54.082H26.9197V53.582ZM26.7087 52.8672L26.2143 52.9417L26.2155 52.9494L26.7087 52.8672ZM26.8845 49.709L27.3845 49.7034L27.379 49.209H26.8845V49.709ZM26.8962 50.7637V51.2637H27.4018L27.3962 50.7581L26.8962 50.7637ZM25.5544 50.8398L25.3712 50.3746L25.3663 50.3766L25.5544 50.8398ZM25.2498 51.0508L24.8725 50.7227L24.8713 50.724L25.2498 51.0508ZM25.0857 51.3438L24.6097 51.1907L24.6072 51.1985L24.6049 51.2064L25.0857 51.3438ZM25.1208 52.0059L24.689 52.2578L24.6952 52.2686L24.702 52.279L25.1208 52.0059ZM26.24 52.1699L26.477 52.6102L26.4809 52.608L26.24 52.1699ZM26.7205 51.5195L27.1611 51.2832L26.2205 51.5195H26.7205ZM27.1541 52.3281L27.6013 52.5517L27.7171 52.3201L27.5947 52.0918L27.1541 52.3281ZM26.8845 52.8027L26.4622 52.5349L26.4576 52.5424L26.8845 52.8027ZM26.5154 53.248L26.8537 53.6162L26.8541 53.6158L26.5154 53.248ZM25.9822 53.5762L26.1634 54.0422L26.1708 54.0392L25.9822 53.5762ZM24.1365 53.459L23.915 53.9073L23.9172 53.9083L24.1365 53.459ZM23.3572 52.791L22.9429 53.0709L22.9447 53.0736L23.3572 52.791ZM23.24 50.916L22.7874 50.7034L22.7848 50.7091L23.24 50.916ZM27.1443 51.9883V49.375H26.1443V51.9883H27.1443ZM27.1443 49.375C27.1443 49.1503 27.1128 48.9306 27.0333 48.7288L26.1029 49.0954C26.125 49.1514 26.1443 49.2403 26.1443 49.375H27.1443ZM27.0333 48.7288C26.9468 48.5091 26.8018 48.3235 26.5983 48.1927L26.0575 49.0339C26.0727 49.0436 26.0879 49.0573 26.1029 49.0954L27.0333 48.7288ZM26.6086 48.1995C26.3899 48.0511 26.1344 48.002 25.8884 48.002V49.002C26.0096 49.002 26.0471 49.027 26.0471 49.027L26.6086 48.1995ZM25.8884 48.002C25.6844 48.002 25.4794 48.0367 25.2907 48.1276L25.7245 49.0286C25.7466 49.018 25.7956 49.002 25.8884 49.002V48.002ZM25.2907 48.1276C25.0916 48.2235 24.9326 48.3736 24.8271 48.5696L25.7076 49.0437C25.7094 49.0403 25.7108 49.0383 25.7115 49.0373C25.7122 49.0364 25.7127 49.0359 25.713 49.0356C25.7132 49.0355 25.7159 49.0328 25.7245 49.0286L25.2907 48.1276ZM24.8271 48.5696C24.7217 48.7652 24.6853 48.9824 24.6853 49.1934H25.6853C25.6853 49.0918 25.7035 49.0512 25.7076 49.0437L24.8271 48.5696ZM25.1853 48.6934H23.2107V49.6934H25.1853V48.6934ZM23.7107 49.1934C23.7107 48.9767 23.7576 48.7842 23.8485 48.6081L22.9597 48.1498C22.7927 48.4736 22.7107 48.8241 22.7107 49.1934H23.7107ZM23.8471 48.6107C23.9443 48.4248 24.0834 48.2587 24.2726 48.1122L23.6605 47.3214C23.3654 47.5499 23.1294 47.8252 22.961 48.1472L23.8471 48.6107ZM24.2696 48.1145C24.4612 47.9685 24.6982 47.8491 24.9886 47.7623L24.7023 46.8041C24.313 46.9205 23.964 47.0901 23.6635 47.3191L24.2696 48.1145ZM24.9921 47.7612C25.2809 47.6726 25.6133 47.625 25.9939 47.625V46.625C25.5307 46.625 25.0975 46.6829 24.6988 46.8052L24.9921 47.7612ZM25.9939 47.625C26.4421 47.625 26.823 47.6996 27.1457 47.837L27.5374 46.9169C27.0711 46.7184 26.5535 46.625 25.9939 46.625V47.625ZM27.1473 47.8377C27.4632 47.9709 27.6997 48.1636 27.8726 48.4157L28.6972 47.85C28.4092 47.4301 28.0168 47.119 27.5358 46.9162L27.1473 47.8377ZM27.8742 48.4179C28.0336 48.6476 28.1306 48.9594 28.1306 49.3867H29.1306C29.1306 48.8062 28.9972 48.2821 28.6957 47.8477L27.8742 48.4179ZM28.1306 49.3867V51.9824H29.1306V49.3867H28.1306ZM28.1306 51.9824C28.1306 52.4068 28.1539 52.7642 28.2124 53.0324L29.1894 52.8192C29.1542 52.6577 29.1306 52.3862 29.1306 51.9824H28.1306ZM28.2128 53.0342C28.2678 53.2817 28.3484 53.5117 28.4596 53.7188L29.3407 53.246C29.28 53.1329 29.2278 52.9918 29.189 52.8173L28.2128 53.0342ZM28.4001 53.4824V53.582H29.4001V53.4824H28.4001ZM28.9001 53.082H26.9197V54.082H28.9001V53.082ZM27.3704 53.3657C27.3024 53.2238 27.2434 53.0335 27.2019 52.785L26.2155 52.9494C26.2679 53.2634 26.3495 53.5496 26.4689 53.7984L27.3704 53.3657ZM27.2032 52.7927C27.1641 52.5332 27.1443 52.2652 27.1443 51.9883H26.1443C26.1443 52.3129 26.1675 52.6308 26.2143 52.9417L27.2032 52.7927ZM26.3846 49.7145L26.3963 50.7692L27.3962 50.7581L27.3845 49.7034L26.3846 49.7145ZM26.8962 50.2637H26.0232V51.2637H26.8962V50.2637ZM26.0232 50.2637C25.7961 50.2637 25.574 50.2947 25.3712 50.3746L25.7377 51.305C25.7927 51.2834 25.8831 51.2637 26.0232 51.2637V50.2637ZM25.3663 50.3766C25.1782 50.453 25.0086 50.5661 24.8725 50.7227L25.6271 51.3789C25.6471 51.3558 25.6806 51.3283 25.7426 51.3031L25.3663 50.3766ZM24.8713 50.724C24.7527 50.8613 24.6651 51.0182 24.6097 51.1907L25.5617 51.4968C25.5766 51.4505 25.5983 51.4121 25.6282 51.3776L24.8713 50.724ZM24.6049 51.2064C24.5601 51.3632 24.5388 51.5249 24.5388 51.6895H25.5388C25.5388 51.6118 25.5488 51.543 25.5665 51.4811L24.6049 51.2064ZM24.5388 51.6895C24.5388 51.8879 24.5861 52.0815 24.689 52.2578L25.5527 51.7539C25.5462 51.7427 25.5388 51.7254 25.5388 51.6895H24.5388ZM24.702 52.279C24.8089 52.4428 24.9526 52.571 25.1245 52.6604L25.5859 51.7732C25.5625 51.761 25.55 51.7486 25.5397 51.7327L24.702 52.279ZM25.1245 52.6604C25.3004 52.7518 25.4901 52.793 25.6833 52.793V51.793C25.6344 51.793 25.6054 51.7833 25.5859 51.7732L25.1245 52.6604ZM25.6833 52.793C25.9634 52.793 26.2351 52.7404 26.477 52.6102L26.0029 51.7297C25.9402 51.7635 25.8408 51.793 25.6833 51.793V52.793ZM26.4809 52.608C26.6915 52.4922 26.8763 52.3392 27.0114 52.1398L26.1835 51.579C26.1545 51.6217 26.1009 51.6758 25.999 51.7318L26.4809 52.608ZM27.0114 52.1398C27.1285 51.9669 27.2205 51.7568 27.2205 51.5195H26.2205C26.2205 51.4932 26.2304 51.5096 26.1835 51.579L27.0114 52.1398ZM26.2798 51.7558L26.7134 52.5644L27.5947 52.0918L27.1611 51.2832L26.2798 51.7558ZM26.7068 52.1045C26.6369 52.2444 26.5555 52.3879 26.4623 52.535L27.3068 53.0705C27.4166 52.8973 27.515 52.7243 27.6013 52.5517L26.7068 52.1045ZM26.4576 52.5424C26.386 52.6599 26.2934 52.7727 26.1766 52.8803L26.8541 53.6158C27.0342 53.4499 27.1878 53.2658 27.3114 53.063L26.4576 52.5424ZM26.1771 52.8799C26.0828 52.9665 25.958 53.0461 25.7935 53.1131L26.1708 54.0392C26.4282 53.9344 26.6589 53.7952 26.8537 53.6162L26.1771 52.8799ZM25.801 53.1102C25.6634 53.1637 25.4726 53.1992 25.2146 53.1992V54.1992C25.5581 54.1992 25.8791 54.1527 26.1634 54.0422L25.801 53.1102ZM25.2146 53.1992C24.8946 53.1992 24.6109 53.1342 24.3558 53.0097L23.9172 53.9083C24.3183 54.1041 24.7534 54.1992 25.2146 54.1992V53.1992ZM24.3579 53.0107C24.1069 52.8867 23.9143 52.7196 23.7697 52.5085L22.9447 53.0736C23.1907 53.4327 23.5177 53.711 23.915 53.9073L24.3579 53.0107ZM23.7715 52.5111C23.6363 52.311 23.5642 52.078 23.5642 51.7949H22.5642C22.5642 52.2618 22.6875 52.6929 22.9429 53.0709L23.7715 52.5111ZM23.5642 51.7949C23.5642 51.5269 23.6118 51.3062 23.6952 51.1229L22.7848 50.7091C22.6338 51.0414 22.5642 51.4067 22.5642 51.7949H23.5642ZM23.6926 51.1286C23.7764 50.95 23.903 50.7947 24.0828 50.6613L23.487 49.8582C23.1825 50.0842 22.9457 50.3664 22.7874 50.7034L23.6926 51.1286ZM24.0828 50.6613C24.2596 50.5302 24.5035 50.4168 24.832 50.3347L24.5894 49.3645C24.1678 49.4699 23.7946 49.63 23.487 49.8582L24.0828 50.6613ZM24.832 50.3347C25.1572 50.2534 25.556 50.209 26.0349 50.209V49.209C25.4982 49.209 25.0142 49.2583 24.5894 49.3645L24.832 50.3347ZM26.0349 50.209H26.8845V49.209H26.0349V50.209ZM29.8728 47.2422V46.7422H29.3728V47.2422H29.8728ZM31.8533 47.2422H32.3533V46.7422H31.8533V47.2422ZM31.5603 55.0703L31.1244 54.8254L31.1232 54.8275L31.5603 55.0703ZM30.7224 55.8672L30.5007 55.419L30.4969 55.4209L30.7224 55.8672ZM28.9587 56.1191L29.014 55.6222L29.0066 55.6214L28.9991 55.6208L28.9587 56.1191ZM28.4841 56.043H27.9841V56.4421L28.3733 56.5305L28.4841 56.043ZM28.4841 54.5488L28.5602 54.0546L27.9841 53.966V54.5488H28.4841ZM28.7654 54.584L28.8329 54.0886L28.8218 54.0871L28.8106 54.086L28.7654 54.584ZM29.7732 54.2441L29.3346 54.0036L29.3289 54.0148L29.7732 54.2441ZM29.8728 47.7422H31.8533V46.7422H29.8728V47.7422ZM31.3533 47.2422V53.7871H32.3533V47.2422H31.3533ZM31.3533 53.7871C31.3533 54.2321 31.2677 54.5703 31.1244 54.8254L31.9962 55.3152C32.2435 54.875 32.3533 54.3577 32.3533 53.7871H31.3533ZM31.1232 54.8275C30.9776 55.0896 30.7738 55.284 30.5007 55.419L30.9441 56.3154C31.3976 56.091 31.7524 55.7542 31.9974 55.3131L31.1232 54.8275ZM30.4969 55.4209C30.2182 55.5618 29.8655 55.6426 29.4216 55.6426V56.6426C29.9856 56.6426 30.5001 56.5398 30.9479 56.3134L30.4969 55.4209ZM29.4216 55.6426C29.2688 55.6426 29.1332 55.6355 29.014 55.6222L28.9035 56.6161C29.0655 56.6341 29.2385 56.6426 29.4216 56.6426V55.6426ZM28.9991 55.6208C28.8827 55.6113 28.7484 55.5903 28.5949 55.5554L28.3733 56.5305C28.5636 56.5738 28.7457 56.6035 28.9183 56.6175L28.9991 55.6208ZM28.9841 56.043V54.5488H27.9841V56.043H28.9841ZM28.4081 55.043C28.518 55.0599 28.6222 55.073 28.7201 55.0819L28.8106 54.086C28.7367 54.0793 28.6534 54.069 28.5602 54.0546L28.4081 55.043ZM28.6978 55.0794C28.8096 55.0946 28.9262 55.1016 29.0466 55.1016V54.1016C28.964 54.1016 28.8931 54.0968 28.8329 54.0886L28.6978 55.0794ZM29.0466 55.1016C29.2776 55.1016 29.5078 55.0643 29.7156 54.9638L29.28 54.0636C29.2456 54.0802 29.175 54.1016 29.0466 54.1016V55.1016ZM29.7156 54.9638C29.9354 54.8574 30.1061 54.6894 30.2175 54.4735L29.3289 54.0148C29.3153 54.0411 29.3024 54.0528 29.28 54.0636L29.7156 54.9638ZM30.2116 54.4846C30.3295 54.2695 30.3728 54.0281 30.3728 53.7871H29.3728C29.3728 53.9133 29.3497 53.9766 29.3348 54.0037L30.2116 54.4846ZM30.3728 53.7871V47.2422H29.3728V53.7871H30.3728ZM30.2263 45.6074C30.2263 45.4634 30.2709 45.3714 30.3623 45.2905L29.6997 44.5415C29.3849 44.82 29.2263 45.189 29.2263 45.6074H30.2263ZM30.3623 45.2905C30.4568 45.2069 30.5947 45.1465 30.822 45.1465V44.1465C30.4009 44.1465 30.0115 44.2657 29.6997 44.5415L30.3623 45.2905ZM30.822 45.1465C31.0493 45.1465 31.1872 45.2069 31.2817 45.2905L31.9443 44.5415C31.6326 44.2657 31.2432 44.1465 30.822 44.1465V45.1465ZM31.2817 45.2905C31.3731 45.3714 31.4177 45.4634 31.4177 45.6074H32.4177C32.4177 45.189 32.2592 44.82 31.9443 44.5415L31.2817 45.2905ZM31.4177 45.6074C31.4177 45.7515 31.3731 45.8435 31.2817 45.9243L31.9443 46.6733C32.2592 46.3948 32.4177 46.0259 32.4177 45.6074H31.4177ZM31.2817 45.9243C31.1872 46.0079 31.0493 46.0684 30.822 46.0684V47.0684C31.2432 47.0684 31.6326 46.9491 31.9443 46.6733L31.2817 45.9243ZM30.822 46.0684C30.5947 46.0684 30.4568 46.0079 30.3623 45.9243L29.6997 46.6733C30.0115 46.9491 30.4009 47.0684 30.822 47.0684V46.0684ZM30.3623 45.9243C30.2709 45.8435 30.2263 45.7515 30.2263 45.6074H29.2263C29.2263 46.0259 29.3849 46.3948 29.6997 46.6733L30.3623 45.9243ZM35.949 48.6133L35.6681 49.0271L35.6786 49.0339L35.949 48.6133ZM34.8064 49.1934V49.6934H35.3064V49.1934H34.8064ZM32.8318 49.1934H32.3318V49.6934H32.8318V49.1934ZM33.0251 48.3789L32.5821 48.1472L32.5807 48.1498L33.0251 48.3789ZM33.5876 47.7168L33.2846 47.3191L33.2816 47.3214L33.5876 47.7168ZM34.4666 47.2832L34.6097 47.7623L34.6132 47.7612L34.4666 47.2832ZM36.9626 47.377L36.7668 47.837L36.7684 47.8377L36.9626 47.377ZM37.906 48.1328L37.4937 48.4157L37.4953 48.4179L37.906 48.1328ZM38.322 52.9258L37.8335 53.0324L37.8339 53.0342L38.322 52.9258ZM38.5212 53.4824H39.0212V53.3568L38.9618 53.246L38.5212 53.4824ZM38.5212 53.582V54.082H39.0212V53.582H38.5212ZM36.5408 53.582L36.09 53.7984L36.2262 54.082H36.5408V53.582ZM36.3298 52.8672L35.8354 52.9417L35.8366 52.9494L36.3298 52.8672ZM36.5056 49.709L37.0056 49.7034L37.0001 49.209H36.5056V49.709ZM36.5173 50.7637V51.2637H37.0229L37.0173 50.7581L36.5173 50.7637ZM35.1755 50.8398L34.9923 50.3746L34.9873 50.3766L35.1755 50.8398ZM34.8708 51.0508L34.4935 50.7227L34.4924 50.724L34.8708 51.0508ZM34.7068 51.3438L34.2308 51.1907L34.2283 51.1985L34.226 51.2064L34.7068 51.3438ZM34.7419 52.0059L34.3101 52.2578L34.3163 52.2686L34.3231 52.279L34.7419 52.0059ZM35.8611 52.1699L36.0981 52.6102L36.102 52.608L35.8611 52.1699ZM36.3416 51.5195L36.7822 51.2832L35.8416 51.5195H36.3416ZM36.7751 52.3281L37.2224 52.5517L37.3382 52.3201L37.2158 52.0918L36.7751 52.3281ZM36.5056 52.8027L36.0833 52.5349L36.0787 52.5424L36.5056 52.8027ZM36.1365 53.248L36.4748 53.6162L36.4752 53.6158L36.1365 53.248ZM35.6033 53.5762L35.7845 54.0422L35.7919 54.0392L35.6033 53.5762ZM33.7576 53.459L33.5361 53.9073L33.5383 53.9083L33.7576 53.459ZM32.9783 52.791L32.564 53.0709L32.5658 53.0736L32.9783 52.791ZM32.8611 50.916L32.4085 50.7034L32.4059 50.7091L32.8611 50.916ZM36.7654 51.9883V49.375H35.7654V51.9883H36.7654ZM36.7654 49.375C36.7654 49.1503 36.7339 48.9306 36.6544 48.7288L35.724 49.0954C35.7461 49.1514 35.7654 49.2403 35.7654 49.375H36.7654ZM36.6544 48.7288C36.5679 48.5091 36.4229 48.3235 36.2194 48.1927L35.6786 49.0339C35.6938 49.0436 35.709 49.0573 35.724 49.0954L36.6544 48.7288ZM36.2297 48.1995C36.011 48.0511 35.7555 48.002 35.5095 48.002V49.002C35.6307 49.002 35.6682 49.027 35.6682 49.027L36.2297 48.1995ZM35.5095 48.002C35.3055 48.002 35.1005 48.0367 34.9118 48.1276L35.3456 49.0286C35.3677 49.018 35.4167 49.002 35.5095 49.002V48.002ZM34.9118 48.1276C34.7127 48.2235 34.5537 48.3736 34.4482 48.5696L35.3287 49.0437C35.3305 49.0403 35.3319 49.0383 35.3326 49.0373C35.3333 49.0364 35.3338 49.0359 35.3341 49.0356C35.3343 49.0355 35.337 49.0328 35.3456 49.0286L34.9118 48.1276ZM34.4482 48.5696C34.3428 48.7652 34.3064 48.9824 34.3064 49.1934H35.3064C35.3064 49.0918 35.3246 49.0512 35.3287 49.0437L34.4482 48.5696ZM34.8064 48.6934H32.8318V49.6934H34.8064V48.6934ZM33.3318 49.1934C33.3318 48.9767 33.3787 48.7842 33.4695 48.6081L32.5807 48.1498C32.4138 48.4736 32.3318 48.8241 32.3318 49.1934H33.3318ZM33.4682 48.6107C33.5654 48.4248 33.7045 48.2587 33.8937 48.1122L33.2816 47.3214C32.9865 47.5499 32.7505 47.8252 32.5821 48.1472L33.4682 48.6107ZM33.8907 48.1145C34.0823 47.9685 34.3193 47.8491 34.6097 47.7623L34.3234 46.8041C33.9341 46.9205 33.5851 47.0901 33.2846 47.3191L33.8907 48.1145ZM34.6132 47.7612C34.902 47.6726 35.2344 47.625 35.615 47.625V46.625C35.1518 46.625 34.7186 46.6829 34.3199 46.8052L34.6132 47.7612ZM35.615 47.625C36.0632 47.625 36.4441 47.6996 36.7668 47.837L37.1585 46.9169C36.6922 46.7184 36.1746 46.625 35.615 46.625V47.625ZM36.7684 47.8377C37.0843 47.9709 37.3208 48.1636 37.4937 48.4157L38.3183 47.85C38.0303 47.4301 37.6379 47.119 37.1569 46.9162L36.7684 47.8377ZM37.4953 48.4179C37.6547 48.6476 37.7517 48.9594 37.7517 49.3867H38.7517C38.7517 48.8062 38.6183 48.2821 38.3168 47.8477L37.4953 48.4179ZM37.7517 49.3867V51.9824H38.7517V49.3867H37.7517ZM37.7517 51.9824C37.7517 52.4068 37.775 52.7642 37.8335 53.0324L38.8105 52.8192C38.7753 52.6577 38.7517 52.3862 38.7517 51.9824H37.7517ZM37.8339 53.0342C37.8889 53.2817 37.9695 53.5117 38.0807 53.7188L38.9618 53.246C38.9011 53.1329 38.8489 52.9918 38.8101 52.8173L37.8339 53.0342ZM38.0212 53.4824V53.582H39.0212V53.4824H38.0212ZM38.5212 53.082H36.5408V54.082H38.5212V53.082ZM36.9915 53.3657C36.9234 53.2238 36.8645 53.0335 36.823 52.785L35.8366 52.9494C35.889 53.2634 35.9706 53.5496 36.09 53.7984L36.9915 53.3657ZM36.8243 52.7927C36.7852 52.5332 36.7654 52.2652 36.7654 51.9883H35.7654C35.7654 52.3129 35.7886 52.6308 35.8354 52.9417L36.8243 52.7927ZM36.0056 49.7145L36.0174 50.7692L37.0173 50.7581L37.0056 49.7034L36.0056 49.7145ZM36.5173 50.2637H35.6443V51.2637H36.5173V50.2637ZM35.6443 50.2637C35.4172 50.2637 35.1951 50.2947 34.9923 50.3746L35.3588 51.305C35.4138 51.2834 35.5042 51.2637 35.6443 51.2637V50.2637ZM34.9873 50.3766C34.7993 50.453 34.6297 50.5661 34.4935 50.7227L35.2482 51.3789C35.2682 51.3558 35.3017 51.3283 35.3637 51.3031L34.9873 50.3766ZM34.4924 50.724C34.3738 50.8613 34.2862 51.0182 34.2308 51.1907L35.1828 51.4968C35.1977 51.4505 35.2194 51.4121 35.2493 51.3776L34.4924 50.724ZM34.226 51.2064C34.1812 51.3632 34.1599 51.5249 34.1599 51.6895H35.1599C35.1599 51.6118 35.1699 51.543 35.1875 51.4811L34.226 51.2064ZM34.1599 51.6895C34.1599 51.8879 34.2072 52.0815 34.3101 52.2578L35.1738 51.7539C35.1673 51.7427 35.1599 51.7254 35.1599 51.6895H34.1599ZM34.3231 52.279C34.43 52.4428 34.5737 52.571 34.7456 52.6604L35.207 51.7732C35.1836 51.761 35.1711 51.7486 35.1607 51.7327L34.3231 52.279ZM34.7456 52.6604C34.9215 52.7518 35.1112 52.793 35.3044 52.793V51.793C35.2555 51.793 35.2265 51.7833 35.207 51.7732L34.7456 52.6604ZM35.3044 52.793C35.5845 52.793 35.8562 52.7404 36.0981 52.6102L35.624 51.7297C35.5613 51.7635 35.4619 51.793 35.3044 51.793V52.793ZM36.102 52.608C36.3126 52.4922 36.4974 52.3392 36.6325 52.1398L35.8045 51.579C35.7756 51.6217 35.722 51.6758 35.6201 51.7318L36.102 52.608ZM36.6325 52.1398C36.7496 51.9669 36.8416 51.7568 36.8416 51.5195H35.8416C35.8416 51.4932 35.8515 51.5096 35.8045 51.579L36.6325 52.1398ZM35.9009 51.7558L36.3345 52.5644L37.2158 52.0918L36.7822 51.2832L35.9009 51.7558ZM36.3279 52.1045C36.258 52.2444 36.1766 52.3879 36.0834 52.535L36.9279 53.0705C37.0377 52.8973 37.1361 52.7243 37.2224 52.5517L36.3279 52.1045ZM36.0787 52.5424C36.0071 52.6599 35.9145 52.7727 35.7977 52.8803L36.4752 53.6158C36.6553 53.4499 36.8089 53.2658 36.9325 53.063L36.0787 52.5424ZM35.7982 52.8799C35.7039 52.9665 35.5791 53.0461 35.4146 53.1131L35.7919 54.0392C36.0493 53.9344 36.28 53.7952 36.4748 53.6162L35.7982 52.8799ZM35.422 53.1102C35.2845 53.1637 35.0937 53.1992 34.8357 53.1992V54.1992C35.1792 54.1992 35.5002 54.1527 35.7845 54.0422L35.422 53.1102ZM34.8357 53.1992C34.5157 53.1992 34.232 53.1342 33.9769 53.0097L33.5383 53.9083C33.9394 54.1041 34.3745 54.1992 34.8357 54.1992V53.1992ZM33.979 53.0107C33.7279 52.8867 33.5354 52.7196 33.3908 52.5085L32.5658 53.0736C32.8118 53.4327 33.1388 53.711 33.5361 53.9073L33.979 53.0107ZM33.3926 52.5111C33.2573 52.311 33.1853 52.078 33.1853 51.7949H32.1853C32.1853 52.2618 32.3086 52.6929 32.564 53.0709L33.3926 52.5111ZM33.1853 51.7949C33.1853 51.5269 33.2329 51.3062 33.3163 51.1229L32.4059 50.7091C32.2549 51.0414 32.1853 51.4067 32.1853 51.7949H33.1853ZM33.3136 51.1286C33.3975 50.95 33.5241 50.7947 33.7039 50.6613L33.1081 49.8582C32.8035 50.0842 32.5668 50.3664 32.4085 50.7034L33.3136 51.1286ZM33.7039 50.6613C33.8807 50.5302 34.1246 50.4168 34.4531 50.3347L34.2105 49.3645C33.7889 49.4699 33.4157 49.63 33.1081 49.8582L33.7039 50.6613ZM34.4531 50.3347C34.7783 50.2534 35.1771 50.209 35.656 50.209V49.209C35.1193 49.209 34.6353 49.2583 34.2105 49.3645L34.4531 50.3347ZM35.656 50.209H36.5056V49.209H35.656V50.209ZM41.3396 48.8125H41.8396V48.792L41.8379 48.7716L41.3396 48.8125ZM41.3396 53.582V54.082H41.8396V53.582H41.3396ZM39.365 53.582H38.865V54.082H39.365V53.582ZM39.365 47.2422V46.7422H38.865V47.2422H39.365ZM41.2107 47.2422L41.709 47.2013L41.6713 46.7422H41.2107V47.2422ZM43.2146 47.1953L43.7145 47.2049L43.7217 46.8311L43.3652 46.7185L43.2146 47.1953ZM43.1794 49.0293L43.1297 49.5268L43.669 49.5807L43.6794 49.0389L43.1794 49.0293ZM41.9314 49.0645L42.0793 49.5421L42.0862 49.5399L41.9314 49.0645ZM41.5212 49.2988L41.8681 49.659L41.8683 49.6588L41.5212 49.2988ZM41.2869 49.6855L40.8112 49.531L40.808 49.5419L41.2869 49.6855ZM41.2224 50.2305L40.9482 50.6486L41.7402 51.1679L41.7223 50.221L41.2224 50.2305ZM40.865 49.9961H40.365V50.2661L40.5908 50.4142L40.865 49.9961ZM40.988 48.8359L40.5023 48.7172L40.5014 48.7211L40.988 48.8359ZM41.3513 47.9277L41.7772 48.1898L41.7789 48.1869L41.3513 47.9277ZM41.9197 47.3359L42.1813 47.7621L42.1867 47.7587L41.9197 47.3359ZM42.9568 47.1426L42.8948 47.6387L42.8972 47.639L42.9568 47.1426ZM40.8396 48.8125V53.582H41.8396V48.8125H40.8396ZM41.3396 53.082H39.365V54.082H41.3396V53.082ZM39.865 53.582V47.2422H38.865V53.582H39.865ZM39.365 47.7422H41.2107V46.7422H39.365V47.7422ZM40.7124 47.2831L40.8413 48.8534L41.8379 48.7716L41.709 47.2013L40.7124 47.2831ZM42.7147 47.1857L42.6795 49.0197L43.6794 49.0389L43.7145 47.2049L42.7147 47.1857ZM43.2292 48.5318C43.1483 48.5237 43.0406 48.5137 42.907 48.5019L42.8191 49.4981C42.9511 49.5097 43.0544 49.5193 43.1297 49.5268L43.2292 48.5318ZM42.907 48.5019C42.7658 48.4895 42.6387 48.4824 42.5291 48.4824V49.4824C42.5991 49.4824 42.6946 49.4871 42.8191 49.4981L42.907 48.5019ZM42.5291 48.4824C42.2611 48.4824 42.0071 48.514 41.7766 48.589L42.0862 49.5399C42.1916 49.5056 42.3361 49.4824 42.5291 49.4824V48.4824ZM41.7836 48.5868C41.5546 48.6577 41.3468 48.7724 41.1742 48.9389L41.8683 49.6588C41.9144 49.6143 41.9801 49.5728 42.0792 49.5421L41.7836 48.5868ZM41.1744 48.9387C41.0029 49.1038 40.8844 49.3064 40.8113 49.531L41.7624 49.8401C41.7909 49.7522 41.8286 49.697 41.8681 49.659L41.1744 48.9387ZM40.808 49.5419C40.7428 49.759 40.7179 49.9943 40.7225 50.2399L41.7223 50.221C41.7191 50.0526 41.7372 49.9245 41.7658 49.8292L40.808 49.5419ZM41.4966 49.8123L41.1392 49.578L40.5908 50.4142L40.9482 50.6486L41.4966 49.8123ZM41.365 49.9961C41.365 49.6018 41.403 49.2544 41.4747 48.9508L40.5014 48.7211C40.409 49.1128 40.365 49.5388 40.365 49.9961H41.365ZM41.4737 48.9547C41.5499 48.6433 41.6533 48.391 41.7771 48.1898L40.9255 47.6657C40.7368 47.9723 40.5981 48.3255 40.5023 48.7172L41.4737 48.9547ZM41.7789 48.1869C41.9003 47.9866 42.0362 47.8511 42.1813 47.762L41.658 46.9099C41.3578 47.0942 41.1149 47.3532 40.9237 47.6686L41.7789 48.1869ZM42.1867 47.7587C42.3251 47.6713 42.4816 47.625 42.6697 47.625V46.625C42.3031 46.625 41.9596 46.7194 41.6527 46.9132L42.1867 47.7587ZM42.6697 47.625C42.7473 47.625 42.8223 47.6297 42.8948 47.6387L43.0188 46.6464C42.9038 46.6321 42.7874 46.625 42.6697 46.625V47.625ZM42.8972 47.639C42.9717 47.6479 43.026 47.6601 43.064 47.6721L43.3652 46.7185C43.2547 46.6837 43.1372 46.6606 43.0164 46.6461L42.8972 47.639Z" fill="black" mask="url(#path-2-outside-1_3219_5250)"/>
<path d="M31.0338 17.7201C31.0296 17.5644 31.0298 17.4154 31.0301 17.2709C31.0306 16.9564 31.0311 16.6632 30.9857 16.3685L31.0338 17.7201ZM31.0338 17.7201L31.0109 17.7492V17.8356C31.0109 17.9867 31.0141 18.1326 31.0173 18.2752C31.0239 18.575 31.0302 18.8604 31.0056 19.1499C30.925 20.0806 30.334 20.7072 29.695 20.7584L29.6946 20.7584C29.0849 20.8082 28.4371 20.2676 28.2595 19.3606L28.2594 19.3599C28.23 19.212 28.2155 19.0544 28.2141 18.8963C28.2094 18.1893 28.2078 17.483 28.2141 16.7772L28.2141 16.7767C28.2214 15.7553 28.8011 15.0181 29.4782 14.9253C30.1427 14.8342 30.8331 15.3804 30.9857 16.3685L31.0338 17.7201Z" fill="white" stroke="black" stroke-width="0.5"/>
<path d="M15.397 22.2512L15.3972 22.2514C15.6935 22.5428 15.9941 22.8284 16.2962 23.1154C16.4226 23.2356 16.5493 23.356 16.6761 23.4771C17.3063 24.0796 18.2985 24.0866 18.9359 23.4947C19.5486 22.9245 19.5601 21.9641 18.9488 21.367C18.5142 20.9433 18.0763 20.5247 17.6333 20.1111C17.3323 19.8305 16.9733 19.681 16.5226 19.6741L16.5027 19.6751C16.4815 19.6763 16.4596 19.6766 16.441 19.6768C16.4366 19.6769 16.4324 19.6769 16.4282 19.677C16.4133 19.6772 16.3996 19.6773 16.3851 19.6777C16.3483 19.6786 16.3181 19.6807 16.2924 19.6851L15.397 22.2512ZM15.397 22.2512C15.1626 22.0211 15.0182 21.7799 14.9542 21.5313M15.397 22.2512L14.9542 21.5313M14.9542 21.5313C14.8904 21.2839 14.9019 21.0126 15.005 20.7137M14.9542 21.5313L15.005 20.7137M15.005 20.7137C15.2054 20.1334 15.6375 19.7982 16.2922 19.6851L15.005 20.7137Z" fill="white" stroke="black" stroke-width="0.5"/>
<path d="M41.5931 20.1283C41.9008 19.838 42.2699 19.6767 42.8566 19.6739L42.8569 19.6752C43.4179 19.7025 43.9165 19.9896 44.1873 20.5914C44.3224 20.8919 44.3594 21.1728 44.3136 21.4317C44.2679 21.6908 44.1359 21.946 43.9035 22.1892C43.4605 22.6524 42.9905 23.0941 42.5092 23.5284C41.8873 24.0892 40.903 24.0632 40.3043 23.4816L40.304 23.4814C39.6931 22.8897 39.6887 21.9694 40.3161 21.3504L40.3162 21.3502C40.7332 20.938 41.1626 20.5336 41.5929 20.1284L41.5931 20.1283Z" fill="white" stroke="black" stroke-width="0.5"/>
<rect x="16.5786" y="37.126" width="26.0935" height="2.67306" rx="1.33653" fill="white" stroke="black" stroke-width="0.5"/>
<mask id="path-8-inside-2_3219_5250" fill="white">
<path fill-rule="evenodd" clip-rule="evenodd" d="M19.6501 33.7031C19.6534 28.5094 24.0171 24.2512 29.4822 24.1848C35.1095 24.1162 39.5083 28.4108 39.5939 33.5386C39.5948 33.5935 39.5953 33.6484 39.5952 33.7031L35.9718 33.7031C35.9583 30.3354 33.1292 27.6463 29.5934 27.648C26.1157 27.648 23.2803 30.3675 23.2731 33.7031L19.6501 33.7031Z"/>
</mask>
<path fill-rule="evenodd" clip-rule="evenodd" d="M19.6501 33.7031C19.6534 28.5094 24.0171 24.2512 29.4822 24.1848C35.1095 24.1162 39.5083 28.4108 39.5939 33.5386C39.5948 33.5935 39.5953 33.6484 39.5952 33.7031L35.9718 33.7031C35.9583 30.3354 33.1292 27.6463 29.5934 27.648C26.1157 27.648 23.2803 30.3675 23.2731 33.7031L19.6501 33.7031Z" fill="white"/>
<path d="M19.6501 33.7031L19.1501 33.7028L19.1498 34.2031L19.6501 34.2031L19.6501 33.7031ZM29.4822 24.1848L29.4882 24.6848L29.4883 24.6848L29.4822 24.1848ZM39.5939 33.5386L39.094 33.5469L39.094 33.547L39.5939 33.5386ZM39.5952 33.7031L39.5952 34.2031L40.0948 34.2031L40.0952 33.7035L39.5952 33.7031ZM35.9718 33.7031L35.4718 33.7051L35.4738 34.2031L35.9718 34.2031L35.9718 33.7031ZM29.5934 27.648L29.5934 28.148L29.5936 28.148L29.5934 27.648ZM23.2731 33.7031L23.2731 34.2031L23.7721 34.2031L23.7731 33.7042L23.2731 33.7031ZM20.1501 33.7034C20.1533 28.8026 24.2772 24.7481 29.4882 24.6848L29.4761 23.6849C23.757 23.7543 19.1536 28.2162 19.1501 33.7028L20.1501 33.7034ZM29.4883 24.6848C34.8557 24.6193 39.0133 28.7095 39.094 33.5469L40.0938 33.5302C40.0034 28.1122 35.3633 23.6131 29.4761 23.6849L29.4883 24.6848ZM39.094 33.547C39.0948 33.599 39.0953 33.6509 39.0952 33.7028L40.0952 33.7035C40.0953 33.6458 40.0948 33.588 40.0938 33.5302L39.094 33.547ZM39.5952 33.2031L35.9718 33.2031L35.9718 34.2031L39.5952 34.2031L39.5952 33.2031ZM36.4718 33.7011C36.4571 30.036 33.382 27.1462 29.5931 27.148L29.5936 28.148C32.8764 28.1464 35.4595 30.6347 35.4718 33.7051L36.4718 33.7011ZM29.5934 27.148C25.8592 27.148 22.7809 30.0719 22.7731 33.7021L23.7731 33.7042C23.7796 30.6631 26.3722 28.148 29.5934 28.148L29.5934 27.148ZM23.2731 33.2031L19.6501 33.2031L19.6501 34.2031L23.2731 34.2031L23.2731 33.2031Z" fill="black" mask="url(#path-8-inside-2_3219_5250)"/>
<defs>
<linearGradient id="paint0_linear_3219_5250" x1="29.6237" y1="0.15918" x2="29.6237" y2="64.5273" gradientUnits="userSpaceOnUse">
<stop stop-color="#1B263C"/>
<stop offset="0.285" stop-color="#273248"/>
<stop offset="0.53" stop-color="#39434D"/>
<stop offset="0.8" stop-color="#4A4F49"/>
<stop offset="1" stop-color="#6E6041"/>
</linearGradient>
</defs>
</svg>
