<svg width="352" height="336" viewBox="0 0 352 336" fill="none" xmlns="http://www.w3.org/2000/svg">
<g filter="url(#filter0_d_2893_19168)">
<mask id="path-1-inside-1_2893_19168" fill="white">
<path d="M3 0H349V325C349 327.761 346.761 330 344 330H7.99999C5.23857 330 3 327.761 3 325V0Z"/>
</mask>
<path d="M3 0H349V325C349 327.761 346.761 330 344 330H7.99999C5.23857 330 3 327.761 3 325V0Z" fill="#9CDDFF" fill-opacity="0.1"/>
<path d="M3 -1H349V1H3V-1ZM349 325C349 336.046 340.046 345 329 345H23C11.9543 345 3 336.046 3 325V315C3 315 5.23858 315 8 315H344C346.761 315 349 315 349 315V325ZM3 330V0V330ZM349 0V330V0Z" fill="#9CDDFF" mask="url(#path-1-inside-1_2893_19168)"/>
<path d="M11.4031 230.488L3.3418 221.661L11.4043 212.758L19.4657 221.661L11.4031 230.488ZM11.4031 223.445C8.59341 226.506 11.3948 229.597 11.4031 229.624C11.4114 229.597 14.2105 226.502 11.4031 223.445ZM17.9243 222.445C16.9609 222.696 15.524 222.742 13.5472 221.985C12.8804 222.27 12.3013 222.625 11.8184 223.042C12.9314 224.226 13.5152 226.088 13.0868 227.769L17.9232 222.444L17.9243 222.445ZM11.4031 222.634L11.4091 222.638C11.8647 222.244 12.2396 222.025 12.7985 221.685C12.2159 221.333 11.8516 221.122 11.4091 220.742L11.4031 220.746L11.3972 220.742C10.9404 221.134 10.5595 221.352 10.009 221.685C10.6248 222.061 10.9653 222.263 11.3972 222.638L11.4031 222.634ZM8.42374 221.679C6.84208 221.194 5.17737 221.185 4.28272 221.661C5.17856 222.144 6.84446 222.147 8.42374 221.679ZM14.3837 221.679C15.963 222.148 17.6277 222.145 18.5247 221.661C17.6301 221.185 15.9654 221.194 14.3837 221.679ZM17.9267 220.873L12.986 215.384C13.4819 216.751 13.5247 218.538 11.8208 220.338C12.3013 220.75 12.8804 221.1 13.5448 221.38C15.5358 220.6 16.9692 220.629 17.9267 220.872L17.9267 220.873ZM11.4031 213.746C9.62333 215.681 9.94369 218.358 11.4031 219.938C12.8282 218.396 13.2173 215.717 11.4031 213.746ZM4.86531 220.889C5.82759 220.64 7.27161 220.6 9.26143 221.38C9.92708 221.1 10.5049 220.75 10.9855 220.338C9.28635 218.541 9.30652 216.776 9.78944 215.42L4.86531 220.889ZM9.72774 227.781C9.29466 226.1 9.86301 224.237 10.9867 223.042C10.5049 222.625 9.92589 222.27 9.25906 221.985C7.28348 222.742 5.85488 222.705 4.89616 222.46L9.72774 227.781Z" fill="#9CDDFF"/>
<path d="M3.00196 212.758L3.00195 230.488L3.90491 230.488L3.90491 212.758L3.00196 212.758Z" fill="#9CDDFF"/>
<path d="M18.9023 212.758L18.9023 230.488L19.8053 230.488L19.8053 212.758L18.9023 212.758Z" fill="#9CDDFF"/>
<path d="M3.41602 230.488L9.8862 230.488L3.41602 223.284L3.41602 230.488Z" fill="#9CDDFF"/>
<path d="M3.41602 212.755L9.88621 212.755L3.41602 219.96L3.41602 212.755Z" fill="#9CDDFF"/>
<path d="M19.0307 212.755L12.5605 212.755L19.0307 219.96L19.0307 212.755Z" fill="#9CDDFF"/>
<path d="M19.0307 230.488L12.5605 230.488L19.0307 223.284L19.0307 230.488Z" fill="#9CDDFF"/>
<path d="M11.4031 319.137L3.3418 310.311L11.4043 301.408L19.4657 310.311L11.4031 319.137ZM11.4031 312.095C8.59341 315.155 11.3948 318.246 11.4031 318.273C11.4114 318.246 14.2105 315.152 11.4031 312.095ZM17.9243 311.095C16.9609 311.346 15.524 311.392 13.5472 310.635C12.8804 310.919 12.3013 311.274 11.8184 311.692C12.9314 312.875 13.5152 314.738 13.0868 316.419L17.9232 311.094L17.9243 311.095ZM11.4031 311.283L11.4091 311.288C11.8647 310.894 12.2396 310.675 12.7985 310.334C12.2159 309.983 11.8516 309.772 11.4091 309.391L11.4031 309.395L11.3972 309.391C10.9404 309.784 10.5595 310.002 10.009 310.334C10.6248 310.711 10.9653 310.913 11.3972 311.288L11.4031 311.283ZM8.42374 310.329C6.84208 309.843 5.17737 309.834 4.28272 310.311C5.17856 310.793 6.84446 310.797 8.42374 310.329ZM14.3837 310.329C15.963 310.798 17.6277 310.794 18.5247 310.311C17.6301 309.834 15.9654 309.843 14.3837 310.329ZM17.9267 309.523L12.986 304.033C13.4819 305.401 13.5247 307.187 11.8208 308.988C12.3013 309.4 12.8804 309.749 13.5448 310.03C15.5358 309.249 16.9692 309.278 17.9267 309.522L17.9267 309.523ZM11.4031 302.396C9.62333 304.33 9.94369 307.007 11.4031 308.587C12.8282 307.045 13.2173 304.366 11.4031 302.396ZM4.86531 309.538C5.82759 309.289 7.27161 309.249 9.26143 310.03C9.92708 309.749 10.5049 309.4 10.9855 308.988C9.28635 307.191 9.30652 305.425 9.78944 304.069L4.86531 309.538ZM9.72774 316.43C9.29466 314.75 9.86301 312.886 10.9867 311.692C10.5049 311.274 9.92589 310.919 9.25906 310.635C7.28348 311.392 5.85488 311.355 4.89616 311.109L9.72774 316.43Z" fill="#9CDDFF"/>
<path d="M3.00196 301.407L3.00195 319.137L3.90491 319.137L3.90491 301.407L3.00196 301.407Z" fill="#9CDDFF"/>
<path d="M18.9023 301.407L18.9023 319.137L19.8053 319.137L19.8053 301.407L18.9023 301.407Z" fill="#9CDDFF"/>
<path d="M3.41602 319.137L9.8862 319.137L3.41602 311.933L3.41602 319.137Z" fill="#9CDDFF"/>
<path d="M3.41602 301.405L9.88621 301.405L3.41602 308.609L3.41602 301.405Z" fill="#9CDDFF"/>
<path d="M19.0307 301.405L12.5605 301.405L19.0307 308.609L19.0307 301.405Z" fill="#9CDDFF"/>
<path d="M19.0307 319.137L12.5605 319.137L19.0307 311.933L19.0307 319.137Z" fill="#9CDDFF"/>
<path d="M11.4031 212.761L3.3418 203.935L11.4043 195.031L19.4657 203.935L11.4043 212.761L11.4031 212.761ZM11.4031 205.719C8.59341 208.779 11.3948 211.87 11.4031 211.897C11.4114 211.87 14.2105 208.775 11.4031 205.719ZM17.9243 204.718C16.9609 204.97 15.524 205.015 13.5472 204.258C12.8804 204.543 12.3013 204.898 11.8184 205.316C12.9314 206.499 13.5152 208.361 13.0868 210.043L17.9232 204.717L17.9243 204.718ZM11.4031 204.907L11.4091 204.912C11.8647 204.517 12.2396 204.299 12.7985 203.958C12.2159 203.606 11.8516 203.395 11.4091 203.015L11.4031 203.019L11.3972 203.015C10.9404 203.408 10.5595 203.625 10.009 203.958C10.6248 204.334 10.9653 204.536 11.3972 204.912L11.4031 204.907ZM8.42374 203.953C6.84208 203.467 5.17737 203.458 4.28272 203.935C5.17856 204.417 6.84446 204.42 8.42374 203.953ZM14.3837 203.953C15.963 204.421 17.6277 204.418 18.5247 203.935C17.6301 203.458 15.9654 203.467 14.3837 203.953ZM17.9267 203.146L12.986 197.657C13.4819 199.025 13.5247 200.811 11.8208 202.612C12.3013 203.024 12.8804 203.373 13.5448 203.653C15.5358 202.873 16.9692 202.902 17.9267 203.145L17.9267 203.146ZM11.4031 196.019C9.62333 197.954 9.94369 200.631 11.4031 202.211C12.8282 200.669 13.2173 197.99 11.4031 196.019ZM4.86531 203.162C5.82759 202.913 7.27161 202.873 9.26143 203.653C9.92708 203.373 10.5049 203.024 10.9855 202.612C9.28635 200.814 9.30652 199.049 9.78944 197.693L4.8665 203.162L4.86531 203.162ZM9.72774 210.054C9.29466 208.374 9.86301 206.51 10.9867 205.316C10.5049 204.898 9.92589 204.543 9.25906 204.258C7.28348 205.015 5.85488 204.979 4.89616 204.733L9.72893 210.054L9.72774 210.054Z" fill="#9CDDFF"/>
<path d="M3.00196 195.031L3.00195 212.761L3.90491 212.761L3.90491 195.031L3.00196 195.031Z" fill="#9CDDFF"/>
<path d="M18.9023 195.031L18.9023 212.761L19.8053 212.761L19.8053 195.031L18.9023 195.031Z" fill="#9CDDFF"/>
<path d="M3.41602 212.761L9.8862 212.761L3.41602 205.557L3.41602 212.761Z" fill="#9CDDFF"/>
<path d="M3.41602 195.028L9.88621 195.029L3.41602 202.233L3.41602 195.028Z" fill="#9CDDFF"/>
<path d="M19.0307 195.029L12.5605 195.028L19.0307 202.233L19.0307 195.029Z" fill="#9CDDFF"/>
<path d="M19.0307 212.761L12.5605 212.761L19.0307 205.557L19.0307 212.761Z" fill="#9CDDFF"/>
<path d="M11.4031 301.411L3.3418 292.584L11.4043 283.681L19.4657 292.584L11.4043 301.411L11.4031 301.411ZM11.4031 294.368C8.59341 297.428 11.3948 300.52 11.4031 300.546C11.4114 300.52 14.2105 297.425 11.4031 294.368ZM17.9243 293.368C16.9609 293.619 15.524 293.665 13.5472 292.908C12.8804 293.193 12.3013 293.548 11.8184 293.965C12.9314 295.149 13.5152 297.011 13.0868 298.692L17.9232 293.367L17.9243 293.368ZM11.4031 293.557L11.4091 293.561C11.8647 293.167 12.2396 292.948 12.7985 292.608C12.2159 292.256 11.8516 292.045 11.4091 291.664L11.4031 291.669L11.3972 291.664C10.9404 292.057 10.5595 292.275 10.009 292.608C10.6248 292.984 10.9653 293.186 11.3972 293.561L11.4031 293.557ZM8.42374 292.602C6.84208 292.116 5.17737 292.107 4.28272 292.584C5.17856 293.066 6.84446 293.07 8.42374 292.602ZM14.3837 292.602C15.963 293.071 17.6277 293.068 18.5247 292.584C17.6301 292.107 15.9654 292.116 14.3837 292.602ZM17.9267 291.796L12.986 286.307C13.4819 287.674 13.5247 289.46 11.8208 291.261C12.3013 291.673 12.8804 292.023 13.5448 292.303C15.5358 291.522 16.9692 291.551 17.9267 291.795L17.9267 291.796ZM11.4031 284.669C9.62333 286.604 9.94369 289.281 11.4031 290.86C12.8282 289.319 13.2173 286.639 11.4031 284.669ZM4.86531 291.812C5.82759 291.563 7.27161 291.522 9.26143 292.303C9.92708 292.023 10.5049 291.673 10.9855 291.261C9.28635 289.464 9.30652 287.699 9.78944 286.342L4.8665 291.812L4.86531 291.812ZM9.72774 298.703C9.29466 297.023 9.86301 295.16 10.9867 293.965C10.5049 293.548 9.92589 293.193 9.25906 292.908C7.28348 293.665 5.85488 293.628 4.89616 293.382L9.72893 298.703L9.72774 298.703Z" fill="#9CDDFF"/>
<path d="M3.00196 283.681L3.00195 301.411L3.90491 301.411L3.90491 283.681L3.00196 283.681Z" fill="#9CDDFF"/>
<path d="M18.9023 283.681L18.9023 301.411L19.8053 301.411L19.8053 283.681L18.9023 283.681Z" fill="#9CDDFF"/>
<path d="M3.41602 301.411L9.8862 301.411L3.41602 294.206L3.41602 301.411Z" fill="#9CDDFF"/>
<path d="M3.41602 283.678L9.88621 283.678L3.41602 290.882L3.41602 283.678Z" fill="#9CDDFF"/>
<path d="M19.0307 283.678L12.5605 283.678L19.0307 290.882L19.0307 283.678Z" fill="#9CDDFF"/>
<path d="M19.0307 301.411L12.5605 301.411L19.0307 294.206L19.0307 301.411Z" fill="#9CDDFF"/>
<path d="M11.4031 195.033L3.3418 186.206L11.4043 177.303L19.4657 186.206L11.4043 195.033L11.4031 195.033ZM11.4031 187.991C8.59341 191.051 11.3948 194.142 11.4031 194.169C11.4114 194.142 14.2105 191.047 11.4031 187.991ZM17.9243 186.99C16.9609 187.241 15.524 187.287 13.5472 186.53C12.8804 186.815 12.3013 187.17 11.8184 187.587C12.9314 188.772 13.5152 190.633 13.0868 192.314L17.9232 186.989L17.9243 186.99ZM11.4031 187.179L11.4091 187.183C11.8647 186.789 12.2396 186.57 12.7985 186.23C12.2159 185.878 11.8516 185.667 11.4091 185.287L11.4031 185.291L11.3972 185.287C10.9404 185.68 10.5595 185.897 10.009 186.23C10.6248 186.606 10.9653 186.808 11.3972 187.183L11.4031 187.179ZM8.42374 186.225C6.84208 185.74 5.17737 185.731 4.28272 186.208C5.17856 186.69 6.84446 186.693 8.42374 186.225ZM14.3837 186.225C15.963 186.694 17.6277 186.691 18.5247 186.208C17.6301 185.731 15.9654 185.74 14.3837 186.225ZM17.9267 185.418L12.986 179.929C13.4819 181.296 13.5247 183.083 11.8208 184.884C12.3013 185.295 12.8804 185.645 13.5448 185.925C15.5358 185.145 16.9692 185.174 17.9267 185.417L17.9267 185.418ZM11.4031 178.291C9.62333 180.226 9.94369 182.903 11.4031 184.483C12.8282 182.941 13.2173 180.262 11.4031 178.291ZM4.86531 185.434C5.82759 185.185 7.27161 185.145 9.26143 185.925C9.92708 185.645 10.5049 185.295 10.9855 184.884C9.28635 183.086 9.30652 181.321 9.78944 179.965L4.8665 185.434L4.86531 185.434ZM9.72774 192.326C9.29466 190.645 9.86301 188.782 10.9867 187.587C10.5049 187.17 9.92589 186.815 9.25906 186.53C7.28348 187.287 5.85488 187.25 4.89616 187.005L9.72893 192.326L9.72774 192.326Z" fill="#9CDDFF"/>
<path d="M3.00196 177.303L3.00195 195.033L3.90491 195.033L3.90491 177.303L3.00196 177.303Z" fill="#9CDDFF"/>
<path d="M18.9023 177.303L18.9023 195.033L19.8053 195.033L19.8053 177.303L18.9023 177.303Z" fill="#9CDDFF"/>
<path d="M3.41602 195.033L9.8862 195.033L3.41602 187.829L3.41602 195.033Z" fill="#9CDDFF"/>
<path d="M3.41602 177.299L9.88621 177.299L3.41602 184.505L3.41602 177.299Z" fill="#9CDDFF"/>
<path d="M19.0307 177.299L12.5605 177.299L19.0307 184.505L19.0307 177.299Z" fill="#9CDDFF"/>
<path d="M19.0307 195.033L12.5605 195.033L19.0307 187.829L19.0307 195.033Z" fill="#9CDDFF"/>
<path d="M11.4031 283.682L3.3418 274.856L11.4043 265.953L19.4657 274.856L11.4043 283.682L11.4031 283.682ZM11.4031 276.64C8.59341 279.7 11.3948 282.791 11.4031 282.818C11.4114 282.791 14.2105 279.697 11.4031 276.64ZM17.9243 275.64C16.9609 275.891 15.524 275.937 13.5472 275.18C12.8804 275.464 12.3013 275.819 11.8184 276.237C12.9314 277.421 13.5152 279.283 13.0868 280.964L17.9232 275.639L17.9243 275.64ZM11.4031 275.828L11.4091 275.833C11.8647 275.439 12.2396 275.22 12.7985 274.879C12.2159 274.528 11.8516 274.317 11.4091 273.936L11.4031 273.941L11.3972 273.936C10.9404 274.329 10.5595 274.547 10.009 274.879C10.6248 275.256 10.9653 275.458 11.3972 275.833L11.4031 275.828ZM8.42374 274.875C6.84208 274.389 5.17737 274.38 4.28272 274.857C5.17856 275.339 6.84446 275.343 8.42374 274.875ZM14.3837 274.875C15.963 275.344 17.6277 275.34 18.5247 274.857C17.6301 274.38 15.9654 274.389 14.3837 274.875ZM17.9267 274.068L12.986 268.578C13.4819 269.946 13.5247 271.732 11.8208 273.533C12.3013 273.945 12.8804 274.294 13.5448 274.575C15.5358 273.794 16.9692 273.823 17.9267 274.067L17.9267 274.068ZM11.4031 266.941C9.62333 268.875 9.94369 271.552 11.4031 273.132C12.8282 271.59 13.2173 268.911 11.4031 266.941ZM4.86531 274.083C5.82759 273.834 7.27161 273.794 9.26143 274.575C9.92708 274.294 10.5049 273.945 10.9855 273.533C9.28635 271.736 9.30652 269.971 9.78944 268.614L4.8665 274.083L4.86531 274.083ZM9.72774 280.975C9.29466 279.295 9.86301 277.432 10.9867 276.237C10.5049 275.819 9.92589 275.464 9.25906 275.18C7.28348 275.937 5.85488 275.9 4.89616 275.654L9.72893 280.975L9.72774 280.975Z" fill="#9CDDFF"/>
<path d="M3.00196 265.953L3.00195 283.682L3.90491 283.682L3.90491 265.953L3.00196 265.953Z" fill="#9CDDFF"/>
<path d="M18.9023 265.953L18.9023 283.682L19.8053 283.682L19.8053 265.953L18.9023 265.953Z" fill="#9CDDFF"/>
<path d="M3.41602 283.682L9.8862 283.682L3.41602 276.478L3.41602 283.682Z" fill="#9CDDFF"/>
<path d="M3.41602 265.949L9.88621 265.949L3.41602 273.154L3.41602 265.949Z" fill="#9CDDFF"/>
<path d="M19.0307 265.949L12.5605 265.949L19.0307 273.154L19.0307 265.949Z" fill="#9CDDFF"/>
<path d="M19.0307 283.682L12.5605 283.682L19.0307 276.478L19.0307 283.682Z" fill="#9CDDFF"/>
<path d="M11.4031 177.303L3.3418 168.477L11.4043 159.573L19.4657 168.477L11.4043 177.303L11.4031 177.303ZM11.4031 170.261C8.59341 173.321 11.3948 176.412 11.4031 176.439C11.4114 176.412 14.2105 173.318 11.4031 170.261ZM17.9243 169.261C16.9609 169.512 15.524 169.558 13.5472 168.801C12.8804 169.085 12.3013 169.44 11.8184 169.858C12.9314 171.041 13.5152 172.902 13.0868 174.585L17.9232 169.259L17.9243 169.261ZM11.4031 169.449L11.4091 169.454C11.8647 169.06 12.2396 168.841 12.7985 168.5C12.2159 168.149 11.8516 167.938 11.4091 167.557L11.4031 167.561L11.3972 167.557C10.9404 167.95 10.5595 168.168 10.009 168.5C10.6248 168.877 10.9653 169.079 11.3972 169.454L11.4031 169.449ZM8.42374 168.496C6.84208 168.01 5.17737 168.001 4.28272 168.478C5.17856 168.96 6.84446 168.964 8.42374 168.496ZM14.3837 168.496C15.963 168.965 17.6277 168.961 18.5247 168.478C17.6301 168.001 15.9654 168.01 14.3837 168.496ZM17.9267 167.689L12.986 162.199C13.4819 163.567 13.5247 165.353 11.8208 167.154C12.3013 167.566 12.8804 167.915 13.5448 168.196C15.5358 167.415 16.9692 167.444 17.9267 167.688L17.9267 167.689ZM11.4031 160.561C9.62333 162.496 9.94369 165.173 11.4031 166.753C12.8282 165.211 13.2173 162.532 11.4031 160.561ZM4.86531 167.704C5.82759 167.455 7.27161 167.415 9.26143 168.197C9.92708 167.916 10.5049 167.567 10.9855 167.155C9.28635 165.358 9.30652 163.593 9.78944 162.236L4.8665 167.705L4.86531 167.704ZM9.72774 174.596C9.29466 172.916 9.86301 171.052 10.9867 169.858C10.5049 169.44 9.92589 169.085 9.25906 168.801C7.28348 169.558 5.85488 169.521 4.89616 169.275L9.72893 174.596L9.72774 174.596Z" fill="#9CDDFF"/>
<path d="M3.00196 159.573L3.00195 177.303L3.90491 177.303L3.90491 159.573L3.00196 159.573Z" fill="#9CDDFF"/>
<path d="M18.9023 159.573L18.9023 177.303L19.8053 177.303L19.8053 159.573L18.9023 159.573Z" fill="#9CDDFF"/>
<path d="M3.41602 177.303L9.8862 177.303L3.41602 170.099L3.41602 177.303Z" fill="#9CDDFF"/>
<path d="M3.41602 159.571L9.88621 159.571L3.41602 166.776L3.41602 159.571Z" fill="#9CDDFF"/>
<path d="M19.0307 159.571L12.5605 159.571L19.0307 166.776L19.0307 159.571Z" fill="#9CDDFF"/>
<path d="M19.0307 177.303L12.5605 177.303L19.0307 170.099L19.0307 177.303Z" fill="#9CDDFF"/>
<path d="M11.4031 265.953L3.3418 257.126L11.4043 248.223L19.4657 257.126L11.4043 265.953L11.4031 265.953ZM11.4031 258.91C8.59341 261.97 11.3948 265.062 11.4031 265.089C11.4114 265.062 14.2105 261.967 11.4031 258.91ZM17.9243 257.91C16.9609 258.161 15.524 258.207 13.5472 257.45C12.8804 257.735 12.3013 258.09 11.8184 258.507C12.9314 259.691 13.5152 261.552 13.0868 263.234L17.9232 257.909L17.9243 257.91ZM11.4031 258.099L11.4091 258.103C11.8647 257.709 12.2396 257.49 12.7985 257.15C12.2159 256.798 11.8516 256.587 11.4091 256.206L11.4031 256.211L11.3972 256.206C10.9404 256.599 10.5595 256.817 10.009 257.15C10.6248 257.526 10.9653 257.728 11.3972 258.103L11.4031 258.099ZM8.42374 257.145C6.84208 256.66 5.17737 256.651 4.28272 257.127C5.17856 257.61 6.84446 257.613 8.42374 257.145ZM14.3837 257.145C15.963 257.614 17.6277 257.611 18.5247 257.127C17.6301 256.651 15.9654 256.66 14.3837 257.145ZM17.9267 256.338L12.986 250.849C13.4819 252.216 13.5247 254.003 11.8208 255.803C12.3013 256.215 12.8804 256.565 13.5448 256.845C15.5358 256.065 16.9692 256.094 17.9267 256.337L17.9267 256.338ZM11.4031 249.211C9.62333 251.146 9.94369 253.823 11.4031 255.403C12.8282 253.861 13.2173 251.181 11.4031 249.211ZM4.86531 256.354C5.82759 256.105 7.27161 256.065 9.26143 256.846C9.92708 256.566 10.5049 256.216 10.9855 255.805C9.28635 254.007 9.30652 252.242 9.78944 250.886L4.8665 256.355L4.86531 256.354ZM9.72774 263.245C9.29466 261.565 9.86301 259.702 10.9867 258.507C10.5049 258.09 9.92589 257.735 9.25906 257.45C7.28348 258.207 5.85488 258.17 4.89616 257.925L9.72893 263.245L9.72774 263.245Z" fill="#9CDDFF"/>
<path d="M3.00196 248.223L3.00195 265.953L3.90491 265.953L3.90491 248.223L3.00196 248.223Z" fill="#9CDDFF"/>
<path d="M18.9023 248.223L18.9023 265.953L19.8053 265.953L19.8053 248.223L18.9023 248.223Z" fill="#9CDDFF"/>
<path d="M3.41602 265.953L9.8862 265.953L3.41602 258.748L3.41602 265.953Z" fill="#9CDDFF"/>
<path d="M3.41602 248.221L9.88621 248.221L3.41602 255.426L3.41602 248.221Z" fill="#9CDDFF"/>
<path d="M19.0307 248.221L12.5605 248.221L19.0307 255.426L19.0307 248.221Z" fill="#9CDDFF"/>
<path d="M19.0307 265.953L12.5605 265.953L19.0307 258.748L19.0307 265.953Z" fill="#9CDDFF"/>
<path d="M11.4031 159.571L3.3418 150.744L11.4043 141.841L19.4657 150.744L11.4043 159.571L11.4031 159.571ZM11.4031 152.529C8.59341 155.59 11.3948 158.681 11.4031 158.708C11.4114 158.681 14.2105 155.586 11.4031 152.529ZM17.9243 151.528C16.9609 151.779 15.524 151.825 13.5472 151.068C12.8804 151.353 12.3013 151.708 11.8184 152.125C12.9314 153.309 13.5152 155.171 13.0868 156.852L17.9232 151.527L17.9243 151.528ZM11.4031 151.717L11.4091 151.721C11.8647 151.327 12.2396 151.108 12.7985 150.768C12.2159 150.416 11.8516 150.205 11.4091 149.824L11.4031 149.829L11.3972 149.824C10.9404 150.217 10.5595 150.435 10.009 150.768C10.6248 151.144 10.9653 151.346 11.3972 151.721L11.4031 151.717ZM8.42374 150.763C6.84208 150.278 5.17737 150.269 4.28272 150.745C5.17856 151.228 6.84446 151.231 8.42374 150.763ZM14.3837 150.763C15.963 151.232 17.6277 151.229 18.5247 150.745C17.6301 150.269 15.9654 150.278 14.3837 150.763ZM17.9267 149.956L12.986 144.467C13.4819 145.834 13.5247 147.621 11.8208 149.421C12.3013 149.833 12.8804 150.183 13.5448 150.463C15.5358 149.683 16.9692 149.712 17.9267 149.955L17.9267 149.956ZM11.4031 142.829C9.62333 144.764 9.94369 147.441 11.4031 149.021C12.8282 147.479 13.2173 144.799 11.4031 142.829ZM4.86531 149.973C5.82759 149.724 7.27161 149.684 9.26143 150.464C9.92708 150.184 10.5049 149.834 10.9855 149.422C9.28635 147.625 9.30652 145.86 9.78944 144.502L4.8665 149.972L4.86531 149.973ZM9.72774 156.863C9.29466 155.183 9.86301 153.32 10.9867 152.125C10.5049 151.708 9.92589 151.353 9.25906 151.068C7.28348 151.825 5.85488 151.788 4.89616 151.543L9.72893 156.863L9.72774 156.863Z" fill="#9CDDFF"/>
<path d="M3.00196 141.841L3.00195 159.571L3.90491 159.571L3.90491 141.841L3.00196 141.841Z" fill="#9CDDFF"/>
<path d="M18.9023 141.841L18.9023 159.571L19.8053 159.571L19.8053 141.841L18.9023 141.841Z" fill="#9CDDFF"/>
<path d="M3.41602 159.571L9.8862 159.571L3.41602 152.366L3.41602 159.571Z" fill="#9CDDFF"/>
<path d="M3.41602 141.838L9.88621 141.838L3.41602 149.042L3.41602 141.838Z" fill="#9CDDFF"/>
<path d="M19.0307 141.838L12.5605 141.838L19.0307 149.042L19.0307 141.838Z" fill="#9CDDFF"/>
<path d="M19.0307 159.571L12.5605 159.571L19.0307 152.366L19.0307 159.571Z" fill="#9CDDFF"/>
<path d="M11.4031 248.22L3.3418 239.394L11.4043 230.49L19.4657 239.394L11.4043 248.22L11.4031 248.22ZM11.4031 241.179C8.59341 244.239 11.3948 247.33 11.4031 247.357C11.4114 247.33 14.2105 244.236 11.4031 241.179ZM17.9243 240.177C16.9609 240.429 15.524 240.474 13.5472 239.718C12.8804 240.002 12.3013 240.357 11.8184 240.775C12.9314 241.958 13.5152 243.82 13.0868 245.502L17.9232 240.176L17.9243 240.177ZM11.4031 240.366L11.4091 240.371C11.8647 239.977 12.2396 239.758 12.7985 239.417C12.2159 239.066 11.8516 238.855 11.4091 238.474L11.4031 238.478L11.3972 238.474C10.9404 238.867 10.5595 239.085 10.009 239.417C10.6248 239.793 10.9653 239.996 11.3972 240.371L11.4031 240.366ZM8.42374 239.413C6.84208 238.927 5.17737 238.918 4.28272 239.395C5.17856 239.877 6.84446 239.881 8.42374 239.413ZM14.3837 239.413C15.963 239.882 17.6277 239.878 18.5247 239.395C17.6301 238.918 15.9654 238.927 14.3837 239.413ZM17.9267 238.606L12.986 233.116C13.4819 234.484 13.5247 236.27 11.8208 238.071C12.3013 238.483 12.8804 238.832 13.5448 239.112C15.5358 238.332 16.9692 238.361 17.9267 238.604L17.9267 238.606ZM11.4031 231.478C9.62333 233.413 9.94369 236.09 11.4031 237.67C12.8282 236.128 13.2173 233.449 11.4031 231.478ZM4.86531 238.622C5.82759 238.373 7.27161 238.333 9.26143 239.114C9.92708 238.833 10.5049 238.484 10.9855 238.072C9.28635 236.274 9.30652 234.509 9.78944 233.152L4.8665 238.621L4.86531 238.622ZM9.72774 245.513C9.29466 243.833 9.86301 241.969 10.9867 240.775C10.5049 240.357 9.92589 240.002 9.25906 239.718C7.28348 240.474 5.85488 240.438 4.89616 240.192L9.72893 245.513L9.72774 245.513Z" fill="#9CDDFF"/>
<path d="M3.00196 230.49L3.00195 248.22L3.90491 248.22L3.90491 230.49L3.00196 230.49Z" fill="#9CDDFF"/>
<path d="M18.9023 230.49L18.9023 248.22L19.8053 248.22L19.8053 230.49L18.9023 230.49Z" fill="#9CDDFF"/>
<path d="M3.41602 248.22L9.8862 248.22L3.41602 241.016L3.41602 248.22Z" fill="#9CDDFF"/>
<path d="M3.41602 230.488L9.88621 230.488L3.41602 237.692L3.41602 230.488Z" fill="#9CDDFF"/>
<path d="M19.0307 230.488L12.5605 230.488L19.0307 237.692L19.0307 230.488Z" fill="#9CDDFF"/>
<path d="M19.0307 248.22L12.5605 248.22L19.0307 241.016L19.0307 248.22Z" fill="#9CDDFF"/>
<path d="M11.4012 141.85L3.33985 133.023L11.4024 124.12L19.4637 133.023L11.4024 141.85L11.4012 141.85ZM11.4012 134.807C8.59146 137.867 11.3929 140.959 11.4012 140.986C11.4095 140.959 14.2085 137.864 11.4012 134.807ZM17.9224 133.806C16.9589 134.057 15.522 134.103 13.5453 133.346C12.8784 133.631 12.2994 133.986 11.8165 134.403C12.9294 135.587 13.5132 137.449 13.0849 139.13L17.9212 133.805L17.9224 133.806ZM11.4012 133.995L11.4071 133.999C11.8627 133.605 12.2377 133.386 12.7965 133.046C12.214 132.694 11.8497 132.483 11.4071 132.102L11.4012 132.107L11.3952 132.102C10.9384 132.495 10.5576 132.713 10.007 133.046C10.6228 133.422 10.9633 133.624 11.3952 133.999L11.4012 133.995ZM8.42179 133.041C6.84013 132.556 5.17542 132.547 4.28077 133.023C5.17661 133.506 6.8425 133.509 8.42179 133.041ZM14.3818 133.041C15.961 133.51 17.6258 133.507 18.5228 133.023C17.6281 132.547 15.9634 132.556 14.3818 133.041ZM17.9248 132.235L12.984 126.746C13.48 128.113 13.5227 129.9 11.8188 131.7C12.2994 132.112 12.8784 132.462 13.5429 132.742C15.5339 131.962 16.9672 131.991 17.9248 132.234L17.9248 132.235ZM11.4012 125.107C9.62137 127.042 9.94174 129.719 11.4012 131.299C12.8262 129.757 13.2154 127.077 11.4012 125.107ZM4.86336 132.251C5.82564 132.002 7.26966 131.962 9.25948 132.742C9.92513 132.462 10.503 132.112 10.9835 131.7C9.2844 129.903 9.30457 128.138 9.78749 126.781L4.86455 132.251L4.86336 132.251ZM9.72579 139.142C9.2927 137.462 9.86105 135.599 10.9847 134.404C10.503 133.987 9.92394 133.632 9.25711 133.347C7.28152 134.104 5.85293 134.067 4.89421 133.822L9.72698 139.142L9.72579 139.142Z" fill="#9CDDFF"/>
<path d="M3 124.12L3 141.85L3.90295 141.85L3.90296 124.12L3 124.12Z" fill="#9CDDFF"/>
<path d="M18.9004 124.12L18.9004 141.85L19.8033 141.85L19.8033 124.12L18.9004 124.12Z" fill="#9CDDFF"/>
<path d="M3.41406 141.85L9.88425 141.85L3.41406 134.644L3.41406 141.85Z" fill="#9CDDFF"/>
<path d="M3.41406 124.116L9.88425 124.116L3.41406 131.32L3.41406 124.116Z" fill="#9CDDFF"/>
<path d="M19.0288 124.116L12.5586 124.116L19.0288 131.32L19.0288 124.116Z" fill="#9CDDFF"/>
<path d="M19.0288 141.85L12.5586 141.85L19.0288 134.644L19.0288 141.85Z" fill="#9CDDFF"/>
<path d="M11.4012 124.112L3.33985 115.285L11.4024 106.382L19.4637 115.285L11.4024 124.112L11.4012 124.112ZM11.4012 117.069C8.59146 120.129 11.3929 123.221 11.4012 123.247C11.4095 123.221 14.2085 120.126 11.4012 117.069ZM17.9224 116.068C16.9589 116.319 15.522 116.365 13.5453 115.608C12.8784 115.893 12.2994 116.248 11.8165 116.665C12.9294 117.848 13.5132 119.71 13.0849 121.392L17.9212 116.067L17.9224 116.068ZM11.4012 116.256L11.4071 116.261C11.8627 115.867 12.2377 115.648 12.7965 115.308C12.214 114.956 11.8497 114.745 11.4071 114.364L11.4012 114.369L11.3952 114.364C10.9384 114.757 10.5576 114.975 10.007 115.308C10.6228 115.684 10.9633 115.886 11.3952 116.261L11.4012 116.256ZM8.42179 115.303C6.84013 114.817 5.17542 114.808 4.28077 115.285C5.17661 115.767 6.8425 115.771 8.42179 115.303ZM14.3818 115.303C15.961 115.772 17.6258 115.769 18.5228 115.285C17.6281 114.808 15.9634 114.817 14.3818 115.303ZM17.9248 114.497L12.984 109.008C13.48 110.375 13.5227 112.161 11.8188 113.962C12.2994 114.374 12.8784 114.724 13.5429 115.004C15.5339 114.223 16.9672 114.253 17.9248 114.496L17.9248 114.497ZM11.4012 107.369C9.62137 109.303 9.94174 111.981 11.4012 113.56C12.8262 112.019 13.2154 109.339 11.4012 107.369ZM4.86336 114.513C5.82564 114.264 7.26966 114.223 9.25948 115.005C9.92513 114.725 10.503 114.375 10.9835 113.963C9.2844 112.166 9.30457 110.401 9.78749 109.044L4.86455 114.514L4.86336 114.513ZM9.72579 121.404C9.2927 119.724 9.86105 117.861 10.9847 116.666C10.503 116.249 9.92394 115.894 9.25711 115.609C7.28152 116.366 5.85293 116.329 4.89421 116.083L9.72698 121.404L9.72579 121.404Z" fill="#9CDDFF"/>
<path d="M3 106.382L3 124.112L3.90295 124.112L3.90296 106.382L3 106.382Z" fill="#9CDDFF"/>
<path d="M18.9004 106.382L18.9004 124.112L19.8033 124.112L19.8033 106.382L18.9004 106.382Z" fill="#9CDDFF"/>
<path d="M3.41406 124.112L9.88425 124.112L3.41406 116.906L3.41406 124.112Z" fill="#9CDDFF"/>
<path d="M3.41406 106.382L9.88425 106.382L3.41406 113.586L3.41406 106.382Z" fill="#9CDDFF"/>
<path d="M19.0288 106.382L12.5586 106.382L19.0288 113.586L19.0288 106.382Z" fill="#9CDDFF"/>
<path d="M19.0288 124.112L12.5586 124.112L19.0288 116.906L19.0288 124.112Z" fill="#9CDDFF"/>
<path d="M11.4012 106.382L3.33985 97.5556L11.4024 88.6522L19.4637 97.5556L11.4024 106.382L11.4012 106.382ZM11.4012 99.3396C8.59146 102.4 11.3929 105.491 11.4012 105.518C11.4095 105.49 14.2085 102.396 11.4012 99.3396ZM17.9224 98.3382C16.9589 98.5894 15.522 98.6352 13.5453 97.8782C12.8784 98.1629 12.2994 98.5179 11.8165 98.9355C12.9294 100.119 13.5132 101.98 13.0849 103.662L17.9212 98.3371L17.9224 98.3382ZM11.4012 98.5269L11.4071 98.5313C11.8627 98.1372 12.2377 97.9184 12.7965 97.5779C12.214 97.2262 11.8497 97.0152 11.4071 96.6345L11.4012 96.639L11.3952 96.6345C10.9384 97.0275 10.5576 97.2452 10.007 97.5779C10.6228 97.9541 10.9633 98.1562 11.3952 98.5313L11.4012 98.5269ZM8.42179 97.5734C6.84013 97.0878 5.17542 97.0789 4.28077 97.5556C5.17661 98.0379 6.8425 98.0412 8.42179 97.5734ZM14.3818 97.5734C15.961 98.0423 17.6258 98.039 18.5228 97.5556C17.6281 97.0789 15.9634 97.0878 14.3818 97.5734ZM17.9248 96.7674L12.984 91.278C13.48 92.6456 13.5227 94.4319 11.8188 96.2326C12.2994 96.6446 12.8784 96.994 13.5429 97.2742C15.5339 96.4939 16.9672 96.5229 17.9248 96.7663L17.9248 96.7674ZM11.4012 89.6402C9.62137 91.5749 9.94174 94.2521 11.4012 95.8318C12.8262 94.2901 13.2154 91.6107 11.4012 89.6402ZM4.86336 96.783C5.82564 96.5341 7.26966 96.4939 9.25948 97.2742C9.92513 96.994 10.503 96.6446 10.9835 96.2326C9.2844 94.4352 9.30457 92.6701 9.78749 91.3137L4.86455 96.783L4.86336 96.783ZM9.72579 103.675C9.2927 101.994 9.86105 100.131 10.9847 98.9366C10.503 98.5191 9.92394 98.164 9.25711 97.8793C7.28152 98.6363 5.85293 98.5994 4.89421 98.3538L9.72698 103.675L9.72579 103.675Z" fill="#9CDDFF"/>
<path d="M3 88.6522L3 106.382L3.90295 106.382L3.90296 88.6522L3 88.6522Z" fill="#9CDDFF"/>
<path d="M18.9004 88.6522L18.9004 106.382L19.8033 106.382L19.8033 88.6522L18.9004 88.6522Z" fill="#9CDDFF"/>
<path d="M3.41406 106.382L9.88425 106.382L3.41406 99.1777L3.41406 106.382Z" fill="#9CDDFF"/>
<path d="M3.41406 88.648L9.88425 88.648L3.41406 95.8522L3.41406 88.648Z" fill="#9CDDFF"/>
<path d="M19.0288 88.648L12.5586 88.648L19.0288 95.8522L19.0288 88.648Z" fill="#9CDDFF"/>
<path d="M19.0288 106.382L12.5586 106.382L19.0288 99.1777L19.0288 106.382Z" fill="#9CDDFF"/>
<path d="M11.4012 88.6551L3.33985 79.8287L11.4024 70.9253L19.4637 79.8287L11.4024 88.6551L11.4012 88.6551ZM11.4012 81.6127C8.59146 84.6728 11.3929 87.7642 11.4012 87.791C11.4095 87.7631 14.2085 84.6695 11.4012 81.6127ZM17.9224 80.6113C16.9589 80.8625 15.522 80.9083 13.5453 80.1513C12.8784 80.436 12.2994 80.791 11.8165 81.2086C12.9294 82.392 13.5132 84.2542 13.0849 85.9355L17.9212 80.6102L17.9224 80.6113ZM11.4012 80.8L11.4071 80.8044C11.8627 80.4103 12.2377 80.1915 12.7965 79.851C12.214 79.4993 11.8497 79.2883 11.4071 78.9076L11.4012 78.9121L11.3952 78.9076C10.9384 79.3006 10.5576 79.5183 10.007 79.851C10.6228 80.2273 10.9633 80.4293 11.3952 80.8044L11.4012 80.8ZM8.42179 79.8465C6.84013 79.3609 5.17542 79.352 4.28077 79.8287C5.17661 80.311 6.8425 80.3143 8.42179 79.8465ZM14.3818 79.8465C15.961 80.3154 17.6258 80.3121 18.5228 79.8287C17.6281 79.352 15.9634 79.3609 14.3818 79.8465ZM17.9248 79.0405L12.984 73.5511C13.48 74.9187 13.5227 76.705 11.8188 78.5057C12.2994 78.9177 12.8784 79.2671 13.5429 79.5473C15.5339 78.767 16.9672 78.796 17.9248 79.0394L17.9248 79.0405ZM11.4012 71.9133C9.62137 73.848 9.94174 76.5252 11.4012 78.1049C12.8262 76.5632 13.2154 73.8838 11.4012 71.9133ZM4.86336 79.0561C5.82564 78.8072 7.26966 78.767 9.25948 79.5473C9.92513 79.2671 10.503 78.9177 10.9835 78.5057C9.2844 76.7083 9.30457 74.9433 9.78749 73.5857L4.86455 79.055L4.86336 79.0561ZM9.72579 85.9478C9.2927 84.2676 9.86105 82.4043 10.9847 81.2097C10.503 80.7921 9.92394 80.4371 9.25711 80.1524C7.28152 80.9094 5.85293 80.8725 4.89421 80.6269L9.72698 85.9478L9.72579 85.9478Z" fill="#9CDDFF"/>
<path d="M3 70.9254L3 88.6552L3.90295 88.6552L3.90296 70.9254L3 70.9254Z" fill="#9CDDFF"/>
<path d="M18.9004 70.9254L18.9004 88.6552L19.8033 88.6552L19.8033 70.9254L18.9004 70.9254Z" fill="#9CDDFF"/>
<path d="M3.41406 88.6551L9.88425 88.6551L3.41406 81.4508L3.41406 88.6551Z" fill="#9CDDFF"/>
<path d="M3.41406 70.9214L9.88425 70.9214L3.41406 78.1256L3.41406 70.9214Z" fill="#9CDDFF"/>
<path d="M19.0288 70.9214L12.5586 70.9214L19.0288 78.1256L19.0288 70.9214Z" fill="#9CDDFF"/>
<path d="M19.0288 88.6551L12.5586 88.6551L19.0288 81.4508L19.0288 88.6551Z" fill="#9CDDFF"/>
<path d="M11.4012 70.9227L3.33985 62.0964L11.4024 53.1929L19.4637 62.0964L11.4024 70.9227L11.4012 70.9227ZM11.4012 63.8804C8.59146 66.9405 11.3929 70.0318 11.4012 70.0586C11.4095 70.0318 14.2085 66.9371 11.4012 63.8804ZM17.9224 62.8801C16.9589 63.1313 15.522 63.1771 13.5453 62.4201C12.8784 62.7048 12.2994 63.0598 11.8165 63.4774C12.9294 64.6619 13.5132 66.5229 13.0849 68.2043L17.9212 62.879L17.9224 62.8801ZM11.4012 63.0688L11.4071 63.0732C11.8627 62.6791 12.2377 62.4603 12.7965 62.1198C12.214 61.7681 11.8497 61.5571 11.4071 61.1764L11.4012 61.1809L11.3952 61.1764C10.9384 61.5694 10.5576 61.7871 10.007 62.1198C10.6228 62.496 10.9633 62.6981 11.3952 63.0732L11.4012 63.0688ZM8.42179 62.1142C6.84013 61.6286 5.17542 61.6196 4.28077 62.0964C5.17661 62.5786 6.8425 62.582 8.42179 62.1142ZM14.3818 62.1142C15.961 62.5831 17.6258 62.5798 18.5228 62.0964C17.6281 61.6196 15.9634 61.6286 14.3818 62.1142ZM17.9248 61.3082L12.984 55.8188C13.48 57.1864 13.5227 58.9726 11.8188 60.7734C12.2994 61.1854 12.8784 61.5348 13.5429 61.815C15.5339 61.0346 16.9672 61.0637 17.9248 61.307L17.9248 61.3082ZM11.4012 54.181C9.62137 56.1157 9.94174 58.7929 11.4012 60.3726C12.8262 58.8308 13.2154 56.1514 11.4012 54.181ZM4.86336 61.3238C5.82564 61.0748 7.26966 61.0346 9.25948 61.815C9.92513 61.5348 10.503 61.1854 10.9835 60.7734C9.2844 58.976 9.30457 57.2109 9.78749 55.8545L4.86455 61.3238L4.86336 61.3238ZM9.72579 68.2154C9.2927 66.5352 9.86105 64.6719 10.9847 63.4774C10.503 63.0598 9.92394 62.7048 9.25711 62.4201C7.28152 63.1771 5.85293 63.1402 4.89421 62.8946L9.72698 68.2154L9.72579 68.2154Z" fill="#9CDDFF"/>
<path d="M3 53.1931L3 70.9229L3.90295 70.9229L3.90296 53.1931L3 53.1931Z" fill="#9CDDFF"/>
<path d="M18.9004 53.1931L18.9004 70.9229L19.8033 70.9229L19.8033 53.1931L18.9004 53.1931Z" fill="#9CDDFF"/>
<path d="M3.41406 70.9227L9.88425 70.9227L3.41406 63.7185L3.41406 70.9227Z" fill="#9CDDFF"/>
<path d="M3.41406 53.1916L9.88425 53.1916L3.41406 60.3959L3.41406 53.1916Z" fill="#9CDDFF"/>
<path d="M19.0288 53.1916L12.5586 53.1916L19.0288 60.3959L19.0288 53.1916Z" fill="#9CDDFF"/>
<path d="M19.0288 70.9227L12.5586 70.9227L19.0288 63.7185L19.0288 70.9227Z" fill="#9CDDFF"/>
<path d="M11.4012 53.1946L3.33985 44.3682L11.4024 35.4648L19.4637 44.3682L11.4024 53.1946L11.4012 53.1946ZM11.4012 46.1522C8.59146 49.2123 11.3929 52.3037 11.4012 52.3304C11.4095 52.3037 14.2085 49.2089 11.4012 46.1522ZM17.9224 45.1519C16.9589 45.4031 15.522 45.4489 13.5453 44.6919C12.8784 44.9766 12.2994 45.3316 11.8165 45.7492C12.9294 46.9326 13.5132 48.7936 13.0849 50.4761L17.9212 45.1508L17.9224 45.1519ZM11.4012 45.3406L11.4071 45.345C11.8627 44.9509 12.2377 44.7321 12.7965 44.3916C12.214 44.0399 11.8497 43.8289 11.4071 43.4482L11.4012 43.4527L11.3952 43.4482C10.9384 43.8412 10.5576 44.0589 10.007 44.3916C10.6228 44.7679 10.9633 44.9699 11.3952 45.345L11.4012 45.3406ZM8.42179 44.386C6.84013 43.9004 5.17542 43.8915 4.28077 44.3682C5.17661 44.8505 6.8425 44.8538 8.42179 44.386ZM14.3818 44.386C15.961 44.8549 17.6258 44.8516 18.5228 44.3682C17.6281 43.8915 15.9634 43.9004 14.3818 44.386ZM17.9248 43.58L12.984 38.0906C13.48 39.4582 13.5227 41.2444 11.8188 43.0452C12.2994 43.4572 12.8784 43.8066 13.5429 44.0868C15.5339 43.3065 16.9672 43.3355 17.9248 43.5789L17.9248 43.58ZM11.4012 36.4528C9.62137 38.3875 9.94174 41.0647 11.4012 42.6444C12.8262 41.1027 13.2154 38.4233 11.4012 36.4528ZM4.86336 43.5956C5.82564 43.3467 7.26966 43.3065 9.25948 44.0879C9.92513 43.8077 10.503 43.4583 10.9835 43.0463C9.2844 41.2489 9.30457 39.4838 9.78749 38.1274L4.86455 43.5967L4.86336 43.5956ZM9.72579 50.4872C9.2927 48.807 9.86105 46.9437 10.9847 45.7492C10.503 45.3316 9.92394 44.9766 9.25711 44.6919C7.28152 45.4489 5.85293 45.412 4.89421 45.1664L9.72698 50.4872L9.72579 50.4872Z" fill="#9CDDFF"/>
<path d="M3 35.4648L3 53.1945L3.90295 53.1945L3.90296 35.4648L3 35.4648Z" fill="#9CDDFF"/>
<path d="M18.9004 35.4648L18.9004 53.1945L19.8033 53.1945L19.8033 35.4648L18.9004 35.4648Z" fill="#9CDDFF"/>
<path d="M3.41406 53.1945L9.88425 53.1946L3.41406 45.9903L3.41406 53.1945Z" fill="#9CDDFF"/>
<path d="M3.41406 35.4619L9.88425 35.4619L3.41406 42.6661L3.41406 35.4619Z" fill="#9CDDFF"/>
<path d="M19.0288 35.4619L12.5586 35.4619L19.0288 42.6661L19.0288 35.4619Z" fill="#9CDDFF"/>
<path d="M19.0288 53.1946L12.5586 53.1945L19.0288 45.9903L19.0288 53.1946Z" fill="#9CDDFF"/>
<path d="M11.4012 35.4621L3.33985 26.6357L11.4024 17.7323L19.4637 26.6357L11.4024 35.4621L11.4012 35.4621ZM11.4012 28.4198C8.59146 31.4798 11.3929 34.5712 11.4012 34.598C11.4095 34.5712 14.2085 31.4765 11.4012 28.4198ZM17.9224 27.4195C16.9589 27.6706 15.522 27.7164 13.5453 26.9595C12.8784 27.2442 12.2994 27.5992 11.8165 28.0167C12.9294 29.2001 13.5132 31.0623 13.0849 32.7436L17.9212 27.4183L17.9224 27.4195ZM11.4012 27.6081L11.4071 27.6126C11.8627 27.2185 12.2377 26.9997 12.7965 26.6592C12.214 26.3075 11.8497 26.0965 11.4071 25.7158L11.4012 25.7203L11.3952 25.7158C10.9384 26.1088 10.5576 26.3265 10.007 26.6592C10.6228 27.0354 10.9633 27.2375 11.3952 27.6126L11.4012 27.6081ZM8.42179 26.6536C6.84013 26.1679 5.17542 26.159 4.28077 26.6357C5.17661 27.118 6.8425 27.1214 8.42179 26.6536ZM14.3818 26.6536C15.961 27.1225 17.6258 27.1191 18.5228 26.6357C17.6281 26.159 15.9634 26.1679 14.3818 26.6536ZM17.9248 25.8475L12.984 20.3581C13.48 21.7257 13.5227 23.512 11.8188 25.3128C12.2994 25.7247 12.8784 26.0742 13.5429 26.3544C15.5339 25.574 16.9672 25.603 17.9248 25.8464L17.9248 25.8475ZM11.4012 18.7203C9.62137 20.6551 9.94174 23.3322 11.4012 24.912C12.8262 23.3702 13.2154 20.6908 11.4012 18.7203ZM4.86336 25.8632C5.82564 25.6142 7.26966 25.574 9.25948 26.3544C9.92513 26.0742 10.503 25.7247 10.9835 25.3128C9.2844 23.5153 9.30457 21.7503 9.78749 20.3938L4.86455 25.8632L4.86336 25.8632ZM9.72579 32.7548C9.2927 31.0746 9.86105 29.2113 10.9847 28.0167C10.503 27.5992 9.92394 27.2442 9.25711 26.9595C7.28152 27.7164 5.85293 27.6796 4.89421 27.434L9.72698 32.7548L9.72579 32.7548Z" fill="#9CDDFF"/>
<path d="M3 17.7323L3 35.4621L3.90295 35.4621L3.90296 17.7323L3 17.7323Z" fill="#9CDDFF"/>
<path d="M18.9004 17.7323L18.9004 35.4621L19.8033 35.4621L19.8033 17.7323L18.9004 17.7323Z" fill="#9CDDFF"/>
<path d="M3.41406 35.4621L9.88425 35.4621L3.41406 28.2579L3.41406 35.4621Z" fill="#9CDDFF"/>
<path d="M3.41406 17.7281L9.88425 17.7281L3.41406 24.9324L3.41406 17.7281Z" fill="#9CDDFF"/>
<path d="M19.0288 17.7281L12.5586 17.7281L19.0288 24.9324L19.0288 17.7281Z" fill="#9CDDFF"/>
<path d="M19.0288 35.4621L12.5586 35.4621L19.0288 28.2579L19.0288 35.4621Z" fill="#9CDDFF"/>
<path d="M11.4012 17.7339L3.33985 8.9075L11.4024 0.00408933L19.4637 8.9075L11.4024 17.7339L11.4012 17.7339ZM11.4012 10.6915C8.59146 13.7516 11.3929 16.843 11.4012 16.8698C11.4095 16.843 14.2085 13.7483 11.4012 10.6915ZM17.9224 9.69123C16.9589 9.94242 15.522 9.98819 13.5453 9.23126C12.8784 9.51595 12.2994 9.87097 11.8165 10.2885C12.9294 11.473 13.5132 13.3341 13.0849 15.0154L17.9212 9.69011L17.9224 9.69123ZM11.4012 9.87989L11.4071 9.88436C11.8627 9.49027 12.2377 9.27145 12.7965 8.93094C12.214 8.57927 11.8497 8.36827 11.4071 7.98758L11.4012 7.99205L11.3952 7.98758C10.9384 8.38055 10.5576 8.59825 10.007 8.93094C10.6228 9.30717 10.9633 9.50925 11.3952 9.88436L11.4012 9.87989ZM8.42179 8.92648C6.84013 8.44084 5.17542 8.43191 4.28077 8.90862C5.17661 9.39091 6.8425 9.39426 8.42179 8.92648ZM14.3818 8.92649C15.961 9.39538 17.6258 9.39203 18.5228 8.90862C17.6281 8.43191 15.9634 8.44084 14.3818 8.92649ZM17.9248 8.11932L12.984 2.6299C13.48 3.99751 13.5227 5.78377 11.8188 7.58455C12.2994 7.99651 12.8784 8.34594 13.5429 8.62616C15.5339 7.84579 16.9672 7.87482 17.9248 8.1182L17.9248 8.11932ZM11.4012 0.992128C9.62137 2.92688 9.94174 5.60403 11.4012 7.18376C12.8262 5.64199 13.2154 2.9626 11.4012 0.992128ZM4.86336 8.13495C5.82564 7.88599 7.26966 7.84579 9.25948 8.62616C9.92513 8.34594 10.503 7.99651 10.9835 7.58455C9.2844 5.78712 9.30457 4.02206 9.78749 2.66562L4.86455 8.13495L4.86336 8.13495ZM9.72579 15.0266C9.2927 13.3464 9.86105 11.4831 10.9847 10.2885C10.503 9.87097 9.92394 9.51595 9.25711 9.23126C7.28152 9.98819 5.85293 9.95135 4.89421 9.70574L9.72698 15.0266L9.72579 15.0266Z" fill="#9CDDFF"/>
<path d="M3 0.0040884L3 17.7339L3.90295 17.7339L3.90296 0.0040885L3 0.0040884Z" fill="#9CDDFF"/>
<path d="M18.9004 0.00408745L18.9004 17.7339L19.8033 17.7339L19.8033 0.00408755L18.9004 0.00408745Z" fill="#9CDDFF"/>
<path d="M3.41406 17.7339L9.88425 17.7339L3.41406 10.5297L3.41406 17.7339Z" fill="#9CDDFF"/>
<path d="M3.41406 0.0016804L9.88425 0.00168111L3.41406 7.20703L3.41406 0.0016804Z" fill="#9CDDFF"/>
<path d="M19.0288 0.00168111L12.5586 0.0016804L19.0288 7.20703L19.0288 0.00168111Z" fill="#9CDDFF"/>
<path d="M19.0288 17.7339L12.5586 17.7339L19.0288 10.5297L19.0288 17.7339Z" fill="#9CDDFF"/>
<path d="M340.403 230.486L332.342 221.66L340.404 212.757L348.466 221.66L340.403 230.486ZM340.403 223.444C337.593 226.504 340.395 229.595 340.403 229.622C340.411 229.595 343.21 226.501 340.403 223.444ZM346.924 222.444C345.961 222.695 344.524 222.741 342.547 221.984C341.88 222.268 341.301 222.623 340.818 223.041C341.931 224.224 342.515 226.087 342.087 227.768L346.923 222.443L346.924 222.444ZM340.403 222.632L340.409 222.637C340.865 222.243 341.24 222.024 341.799 221.683C341.216 221.332 340.852 221.121 340.409 220.74L340.403 220.745L340.397 220.74C339.94 221.133 339.56 221.351 339.009 221.683C339.625 222.06 339.965 222.262 340.397 222.637L340.403 222.632ZM337.424 221.678C335.842 221.192 334.177 221.183 333.283 221.66C334.179 222.142 335.844 222.146 337.424 221.678ZM343.384 221.678C344.963 222.147 346.628 222.143 347.525 221.66C346.63 221.183 344.965 221.192 343.384 221.678ZM346.927 220.872L341.986 215.382C342.482 216.75 342.525 218.536 340.821 220.337C341.301 220.749 341.88 221.098 342.545 221.379C344.536 220.598 345.969 220.627 346.927 220.871L346.927 220.872ZM340.403 213.745C338.623 215.679 338.944 218.357 340.403 219.936C341.828 218.394 342.217 215.715 340.403 213.745ZM333.865 220.887C334.828 220.638 336.272 220.598 338.261 221.379C338.927 221.098 339.505 220.749 339.985 220.337C338.286 218.54 338.307 216.775 338.789 215.418L333.865 220.887ZM338.728 227.779C338.295 226.099 338.863 224.236 339.987 223.041C339.505 222.623 338.926 222.268 338.259 221.984C336.283 222.741 334.855 222.704 333.896 222.458L338.728 227.779Z" fill="#9CDDFF"/>
<path d="M332.002 212.756L332.002 230.486L332.905 230.486L332.905 212.756L332.002 212.756Z" fill="#9CDDFF"/>
<path d="M347.902 212.756L347.902 230.486L348.805 230.486L348.805 212.756L347.902 212.756Z" fill="#9CDDFF"/>
<path d="M332.416 230.486L338.886 230.486L332.416 223.282L332.416 230.486Z" fill="#9CDDFF"/>
<path d="M332.416 212.754L338.886 212.754L332.416 219.958L332.416 212.754Z" fill="#9CDDFF"/>
<path d="M348.031 212.754L341.561 212.754L348.031 219.958L348.031 212.754Z" fill="#9CDDFF"/>
<path d="M348.031 230.486L341.561 230.486L348.031 223.282L348.031 230.486Z" fill="#9CDDFF"/>
<path d="M340.403 319.136L332.342 310.309L340.404 301.406L348.466 310.309L340.403 319.136ZM340.403 312.094C337.593 315.154 340.395 318.245 340.403 318.272C340.411 318.245 343.21 315.15 340.403 312.094ZM346.924 311.093C345.961 311.344 344.524 311.39 342.547 310.633C341.88 310.918 341.301 311.273 340.818 311.69C341.931 312.874 342.515 314.736 342.087 316.417L346.923 311.092L346.924 311.093ZM340.403 311.282L340.409 311.286C340.865 310.892 341.24 310.673 341.799 310.333C341.216 309.981 340.852 309.77 340.409 309.39L340.403 309.394L340.397 309.39C339.94 309.783 339.56 310 339.009 310.333C339.625 310.709 339.965 310.911 340.397 311.286L340.403 311.282ZM337.424 310.327C335.842 309.842 334.177 309.833 333.283 310.309C334.179 310.792 335.844 310.795 337.424 310.327ZM343.384 310.327C344.963 310.796 346.628 310.793 347.525 310.309C346.63 309.833 344.965 309.842 343.384 310.327ZM346.927 309.521L341.986 304.032C342.482 305.399 342.525 307.186 340.821 308.987C341.301 309.398 341.88 309.748 342.545 310.028C344.536 309.248 345.969 309.277 346.927 309.52L346.927 309.521ZM340.403 302.394C338.623 304.329 338.944 307.006 340.403 308.586C341.828 307.044 342.217 304.365 340.403 302.394ZM333.865 309.537C334.828 309.288 336.272 309.248 338.261 310.028C338.927 309.748 339.505 309.398 339.985 308.987C338.286 307.189 338.307 305.424 338.789 304.068L333.865 309.537ZM338.728 316.429C338.295 314.748 338.863 312.885 339.987 311.69C339.505 311.273 338.926 310.918 338.259 310.633C336.283 311.39 334.855 311.353 333.896 311.108L338.728 316.429Z" fill="#9CDDFF"/>
<path d="M332.002 301.406L332.002 319.136L332.905 319.136L332.905 301.406L332.002 301.406Z" fill="#9CDDFF"/>
<path d="M347.902 301.406L347.902 319.136L348.805 319.136L348.805 301.406L347.902 301.406Z" fill="#9CDDFF"/>
<path d="M332.416 319.136L338.886 319.136L332.416 311.932L332.416 319.136Z" fill="#9CDDFF"/>
<path d="M332.416 301.403L338.886 301.403L332.416 308.608L332.416 301.403Z" fill="#9CDDFF"/>
<path d="M348.031 301.403L341.561 301.403L348.031 308.608L348.031 301.403Z" fill="#9CDDFF"/>
<path d="M348.031 319.136L341.561 319.136L348.031 311.932L348.031 319.136Z" fill="#9CDDFF"/>
<path d="M340.403 212.76L332.342 203.933L340.404 195.03L348.466 203.933L340.404 212.76L340.403 212.76ZM340.403 205.717C337.593 208.777 340.395 211.869 340.403 211.896C340.411 211.869 343.21 208.774 340.403 205.717ZM346.924 204.717C345.961 204.968 344.524 205.014 342.547 204.257C341.88 204.542 341.301 204.897 340.818 205.314C341.931 206.498 342.515 208.36 342.087 210.041L346.923 204.716L346.924 204.717ZM340.403 204.906L340.409 204.91C340.865 204.516 341.24 204.297 341.799 203.957C341.216 203.605 340.852 203.394 340.409 203.013L340.403 203.018L340.397 203.013C339.94 203.406 339.56 203.624 339.009 203.957C339.625 204.333 339.965 204.535 340.397 204.91L340.403 204.906ZM337.424 203.951C335.842 203.465 334.177 203.457 333.283 203.933C334.179 204.416 335.844 204.419 337.424 203.951ZM343.384 203.951C344.963 204.42 346.628 204.417 347.525 203.933C346.63 203.457 344.965 203.465 343.384 203.951ZM346.927 203.145L341.986 197.656C342.482 199.023 342.525 200.81 340.821 202.61C341.301 203.022 341.88 203.372 342.545 203.652C344.536 202.872 345.969 202.901 346.927 203.144L346.927 203.145ZM340.403 196.018C338.623 197.953 338.944 200.63 340.403 202.209C341.828 200.668 342.217 197.988 340.403 196.018ZM333.865 203.161C334.828 202.912 336.272 202.872 338.261 203.652C338.927 203.372 339.505 203.022 339.985 202.61C338.286 200.813 338.307 199.048 338.789 197.691L333.866 203.161L333.865 203.161ZM338.728 210.052C338.295 208.372 338.863 206.509 339.987 205.314C339.505 204.897 338.926 204.542 338.259 204.257C336.283 205.014 334.855 204.977 333.896 204.731L338.729 210.052L338.728 210.052Z" fill="#9CDDFF"/>
<path d="M332.002 195.03L332.002 212.76L332.905 212.76L332.905 195.03L332.002 195.03Z" fill="#9CDDFF"/>
<path d="M347.902 195.03L347.902 212.76L348.805 212.76L348.805 195.03L347.902 195.03Z" fill="#9CDDFF"/>
<path d="M332.416 212.76L338.886 212.76L332.416 205.555L332.416 212.76Z" fill="#9CDDFF"/>
<path d="M332.416 195.027L338.886 195.027L332.416 202.231L332.416 195.027Z" fill="#9CDDFF"/>
<path d="M348.031 195.027L341.561 195.027L348.031 202.231L348.031 195.027Z" fill="#9CDDFF"/>
<path d="M348.031 212.76L341.561 212.76L348.031 205.555L348.031 212.76Z" fill="#9CDDFF"/>
<path d="M340.403 301.409L332.342 292.583L340.404 283.679L348.466 292.583L340.404 301.409L340.403 301.409ZM340.403 294.367C337.593 297.427 340.395 300.518 340.403 300.545C340.411 300.518 343.21 297.424 340.403 294.367ZM346.924 293.366C345.961 293.618 344.524 293.663 342.547 292.907C341.88 293.191 341.301 293.546 340.818 293.964C341.931 295.147 342.515 297.009 342.087 298.691L346.923 293.365L346.924 293.366ZM340.403 293.555L340.409 293.56C340.865 293.166 341.24 292.947 341.799 292.606C341.216 292.255 340.852 292.044 340.409 291.663L340.403 291.667L340.397 291.663C339.94 292.056 339.56 292.273 339.009 292.606C339.625 292.982 339.965 293.184 340.397 293.56L340.403 293.555ZM337.424 292.601C335.842 292.115 334.177 292.106 333.283 292.583C334.179 293.065 335.844 293.068 337.424 292.601ZM343.384 292.601C344.963 293.069 346.628 293.066 347.525 292.583C346.63 292.106 344.965 292.115 343.384 292.601ZM346.927 291.795L341.986 286.305C342.482 287.673 342.525 289.459 340.821 291.26C341.301 291.672 341.88 292.021 342.545 292.301C344.536 291.521 345.969 291.55 346.927 291.793L346.927 291.795ZM340.403 284.667C338.623 286.602 338.944 289.279 340.403 290.859C341.828 289.317 342.217 286.638 340.403 284.667ZM333.865 291.81C334.828 291.561 336.272 291.521 338.261 292.301C338.927 292.021 339.505 291.672 339.985 291.26C338.286 289.462 338.307 287.697 338.789 286.341L333.866 291.81L333.865 291.81ZM338.728 298.702C338.295 297.022 338.863 295.158 339.987 293.964C339.505 293.546 338.926 293.191 338.259 292.907C336.283 293.663 334.855 293.627 333.896 293.381L338.729 298.702L338.728 298.702Z" fill="#9CDDFF"/>
<path d="M332.002 283.679L332.002 301.409L332.905 301.409L332.905 283.679L332.002 283.679Z" fill="#9CDDFF"/>
<path d="M347.902 283.679L347.902 301.409L348.805 301.409L348.805 283.679L347.902 283.679Z" fill="#9CDDFF"/>
<path d="M332.416 301.409L338.886 301.409L332.416 294.205L332.416 301.409Z" fill="#9CDDFF"/>
<path d="M332.416 283.677L338.886 283.677L332.416 290.881L332.416 283.677Z" fill="#9CDDFF"/>
<path d="M348.031 283.677L341.561 283.677L348.031 290.881L348.031 283.677Z" fill="#9CDDFF"/>
<path d="M348.031 301.409L341.561 301.409L348.031 294.205L348.031 301.409Z" fill="#9CDDFF"/>
<path d="M340.403 195.031L332.342 186.205L340.404 177.302L348.466 186.205L340.404 195.031L340.403 195.031ZM340.403 187.989C337.593 191.049 340.395 194.141 340.403 194.167C340.411 194.141 343.21 191.046 340.403 187.989ZM346.924 186.989C345.961 187.24 344.524 187.286 342.547 186.529C341.88 186.814 341.301 187.169 340.818 187.586C341.931 188.771 342.515 190.632 342.087 192.313L346.923 186.988L346.924 186.989ZM340.403 187.177L340.409 187.182C340.865 186.788 341.24 186.569 341.799 186.228C341.216 185.877 340.852 185.666 340.409 185.285L340.403 185.29L340.397 185.285C339.94 185.678 339.56 185.896 339.009 186.228C339.625 186.605 339.965 186.807 340.397 187.182L340.403 187.177ZM337.424 186.224C335.842 185.738 334.177 185.729 333.283 186.206C334.179 186.688 335.844 186.692 337.424 186.224ZM343.384 186.224C344.963 186.693 346.628 186.69 347.525 186.206C346.63 185.729 344.965 185.738 343.384 186.224ZM346.927 185.417L341.986 179.927C342.482 181.295 342.525 183.081 340.821 184.882C341.301 185.294 341.88 185.643 342.545 185.924C344.536 185.143 345.969 185.172 346.927 185.416L346.927 185.417ZM340.403 178.29C338.623 180.224 338.944 182.902 340.403 184.481C341.828 182.94 342.217 180.26 340.403 178.29ZM333.865 185.432C334.828 185.184 336.272 185.143 338.261 185.924C338.927 185.643 339.505 185.294 339.985 184.882C338.286 183.085 338.307 181.32 338.789 179.963L333.866 185.432L333.865 185.432ZM338.728 192.324C338.295 190.644 338.863 188.781 339.987 187.586C339.505 187.169 338.926 186.814 338.259 186.529C336.283 187.286 334.855 187.249 333.896 187.003L338.729 192.324L338.728 192.324Z" fill="#9CDDFF"/>
<path d="M332.002 177.302L332.002 195.031L332.905 195.031L332.905 177.302L332.002 177.302Z" fill="#9CDDFF"/>
<path d="M347.902 177.302L347.902 195.031L348.805 195.031L348.805 177.302L347.902 177.302Z" fill="#9CDDFF"/>
<path d="M332.416 195.031L338.886 195.031L332.416 187.827L332.416 195.031Z" fill="#9CDDFF"/>
<path d="M332.416 177.298L338.886 177.298L332.416 184.503L332.416 177.298Z" fill="#9CDDFF"/>
<path d="M348.031 177.298L341.561 177.298L348.031 184.503L348.031 177.298Z" fill="#9CDDFF"/>
<path d="M348.031 195.031L341.561 195.031L348.031 187.827L348.031 195.031Z" fill="#9CDDFF"/>
<path d="M340.403 283.681L332.342 274.855L340.404 265.951L348.466 274.855L340.404 283.681L340.403 283.681ZM340.403 276.639C337.593 279.699 340.395 282.79 340.403 282.817C340.411 282.79 343.21 279.695 340.403 276.639ZM346.924 275.638C345.961 275.889 344.524 275.935 342.547 275.178C341.88 275.463 341.301 275.818 340.818 276.236C341.931 277.42 342.515 279.281 342.087 280.962L346.923 275.637L346.924 275.638ZM340.403 275.827L340.409 275.831C340.865 275.437 341.24 275.219 341.799 274.878C341.216 274.526 340.852 274.315 340.409 273.935L340.403 273.939L340.397 273.935C339.94 274.328 339.56 274.545 339.009 274.878C339.625 275.254 339.965 275.456 340.397 275.831L340.403 275.827ZM337.424 274.874C335.842 274.388 334.177 274.379 333.283 274.856C334.179 275.338 335.844 275.341 337.424 274.874ZM343.384 274.874C344.963 275.342 346.628 275.339 347.525 274.856C346.63 274.379 344.965 274.388 343.384 274.874ZM346.927 274.066L341.986 268.577C342.482 269.945 342.525 271.731 340.821 273.532C341.301 273.944 341.88 274.293 342.545 274.573C344.536 273.793 345.969 273.822 346.927 274.065L346.927 274.066ZM340.403 266.939C338.623 268.874 338.944 271.551 340.403 273.131C341.828 271.589 342.217 268.91 340.403 266.939ZM333.865 274.082C334.828 273.833 336.272 273.793 338.261 274.573C338.927 274.293 339.505 273.944 339.985 273.532C338.286 271.734 338.307 269.969 338.789 268.613L333.866 274.082L333.865 274.082ZM338.728 280.974C338.295 279.293 338.863 277.43 339.987 276.236C339.505 275.818 338.926 275.463 338.259 275.178C336.283 275.935 334.855 275.898 333.896 275.653L338.729 280.974L338.728 280.974Z" fill="#9CDDFF"/>
<path d="M332.002 265.951L332.002 283.681L332.905 283.681L332.905 265.951L332.002 265.951Z" fill="#9CDDFF"/>
<path d="M347.902 265.951L347.902 283.681L348.805 283.681L348.805 265.951L347.902 265.951Z" fill="#9CDDFF"/>
<path d="M332.416 283.681L338.886 283.681L332.416 276.477L332.416 283.681Z" fill="#9CDDFF"/>
<path d="M332.416 265.947L338.886 265.947L332.416 273.153L332.416 265.947Z" fill="#9CDDFF"/>
<path d="M348.031 265.947L341.561 265.947L348.031 273.153L348.031 265.947Z" fill="#9CDDFF"/>
<path d="M348.031 283.681L341.561 283.681L348.031 276.477L348.031 283.681Z" fill="#9CDDFF"/>
<path d="M340.403 177.302L332.342 168.475L340.404 159.572L348.466 168.475L340.404 177.302L340.403 177.302ZM340.403 170.259C337.593 173.32 340.395 176.411 340.403 176.438C340.411 176.411 343.21 173.316 340.403 170.259ZM346.924 169.259C345.961 169.51 344.524 169.556 342.547 168.799C341.88 169.084 341.301 169.439 340.818 169.856C341.931 171.04 342.515 172.901 342.087 174.583L346.923 169.258L346.924 169.259ZM340.403 169.448L340.409 169.452C340.865 169.058 341.24 168.839 341.799 168.499C341.216 168.147 340.852 167.936 340.409 167.556L340.403 167.56L340.397 167.556C339.94 167.949 339.56 168.166 339.009 168.499C339.625 168.875 339.965 169.077 340.397 169.452L340.403 169.448ZM337.424 168.494C335.842 168.009 334.177 168 333.283 168.477C334.179 168.959 335.844 168.962 337.424 168.494ZM343.384 168.494C344.963 168.963 346.628 168.96 347.525 168.477C346.63 168 344.965 168.009 343.384 168.494ZM346.927 167.687L341.986 162.198C342.482 163.565 342.525 165.352 340.821 167.153C341.301 167.564 341.88 167.914 342.545 168.194C344.536 167.414 345.969 167.443 346.927 167.686L346.927 167.687ZM340.403 160.56C338.623 162.495 338.944 165.172 340.403 166.752C341.828 165.21 342.217 162.531 340.403 160.56ZM333.865 167.703C334.828 167.454 336.272 167.414 338.261 168.195C338.927 167.915 339.505 167.566 339.985 167.154C338.286 165.356 338.307 163.591 338.789 162.235L333.866 167.704L333.865 167.703ZM338.728 174.595C338.295 172.914 338.863 171.051 339.987 169.856C339.505 169.439 338.926 169.084 338.259 168.799C336.283 169.556 334.855 169.519 333.896 169.274L338.729 174.595L338.728 174.595Z" fill="#9CDDFF"/>
<path d="M332.002 159.572L332.002 177.302L332.905 177.302L332.905 159.572L332.002 159.572Z" fill="#9CDDFF"/>
<path d="M347.902 159.572L347.902 177.302L348.805 177.302L348.805 159.572L347.902 159.572Z" fill="#9CDDFF"/>
<path d="M332.416 177.302L338.886 177.302L332.416 170.098L332.416 177.302Z" fill="#9CDDFF"/>
<path d="M332.416 159.57L338.886 159.57L332.416 166.775L332.416 159.57Z" fill="#9CDDFF"/>
<path d="M348.031 159.57L341.561 159.57L348.031 166.775L348.031 159.57Z" fill="#9CDDFF"/>
<path d="M348.031 177.302L341.561 177.302L348.031 170.098L348.031 177.302Z" fill="#9CDDFF"/>
<path d="M340.403 265.951L332.342 257.125L340.404 248.222L348.466 257.125L340.404 265.951L340.403 265.951ZM340.403 258.909C337.593 261.969 340.395 265.06 340.403 265.087C340.411 265.06 343.21 261.966 340.403 258.909ZM346.924 257.909C345.961 258.16 344.524 258.206 342.547 257.449C341.88 257.733 341.301 258.088 340.818 258.506C341.931 259.689 342.515 261.55 342.087 263.233L346.923 257.908L346.924 257.909ZM340.403 258.097L340.409 258.102C340.865 257.708 341.24 257.489 341.799 257.148C341.216 256.797 340.852 256.586 340.409 256.205L340.403 256.209L340.397 256.205C339.94 256.598 339.56 256.816 339.009 257.148C339.625 257.525 339.965 257.727 340.397 258.102L340.403 258.097ZM337.424 257.144C335.842 256.658 334.177 256.649 333.283 257.126C334.179 257.608 335.844 257.612 337.424 257.144ZM343.384 257.144C344.963 257.613 346.628 257.609 347.525 257.126C346.63 256.649 344.965 256.658 343.384 257.144ZM346.927 256.337L341.986 250.847C342.482 252.215 342.525 254.001 340.821 255.802C341.301 256.214 341.88 256.563 342.545 256.844C344.536 256.063 345.969 256.092 346.927 256.336L346.927 256.337ZM340.403 249.21C338.623 251.144 338.944 253.821 340.403 255.401C341.828 253.859 342.217 251.18 340.403 249.21ZM333.865 256.352C334.828 256.103 336.272 256.063 338.261 256.845C338.927 256.565 339.505 256.215 339.985 255.803C338.286 254.006 338.307 252.241 338.789 250.884L333.866 256.353L333.865 256.352ZM338.728 263.244C338.295 261.564 338.863 259.701 339.987 258.506C339.505 258.088 338.926 257.733 338.259 257.449C336.283 258.206 334.855 258.169 333.896 257.923L338.729 263.244L338.728 263.244Z" fill="#9CDDFF"/>
<path d="M332.002 248.222L332.002 265.951L332.905 265.951L332.905 248.222L332.002 248.222Z" fill="#9CDDFF"/>
<path d="M347.902 248.222L347.902 265.951L348.805 265.951L348.805 248.222L347.902 248.222Z" fill="#9CDDFF"/>
<path d="M332.416 265.951L338.886 265.951L332.416 258.747L332.416 265.951Z" fill="#9CDDFF"/>
<path d="M332.416 248.219L338.886 248.219L332.416 255.424L332.416 248.219Z" fill="#9CDDFF"/>
<path d="M348.031 248.219L341.561 248.219L348.031 255.424L348.031 248.219Z" fill="#9CDDFF"/>
<path d="M348.031 265.951L341.561 265.951L348.031 258.747L348.031 265.951Z" fill="#9CDDFF"/>
<path d="M340.403 159.569L332.342 150.743L340.404 141.839L348.466 150.743L340.404 159.569L340.403 159.569ZM340.403 152.528C337.593 155.588 340.395 158.679 340.403 158.706C340.411 158.679 343.21 155.585 340.403 152.528ZM346.924 151.527C345.961 151.778 344.524 151.824 342.547 151.067C341.88 151.351 341.301 151.706 340.818 152.124C341.931 153.307 342.515 155.169 342.087 156.851L346.923 151.525L346.924 151.527ZM340.403 151.715L340.409 151.72C340.865 151.326 341.24 151.107 341.799 150.766C341.216 150.415 340.852 150.204 340.409 149.823L340.403 149.827L340.397 149.823C339.94 150.216 339.56 150.434 339.009 150.766C339.625 151.143 339.965 151.345 340.397 151.72L340.403 151.715ZM337.424 150.762C335.842 150.276 334.177 150.267 333.283 150.744C334.179 151.226 335.844 151.23 337.424 150.762ZM343.384 150.762C344.963 151.231 346.628 151.227 347.525 150.744C346.63 150.267 344.965 150.276 343.384 150.762ZM346.927 149.955L341.986 144.465C342.482 145.833 342.525 147.619 340.821 149.42C341.301 149.832 341.88 150.181 342.545 150.462C344.536 149.681 345.969 149.71 346.927 149.954L346.927 149.955ZM340.403 142.827C338.623 144.762 338.944 147.439 340.403 149.019C341.828 147.477 342.217 144.798 340.403 142.827ZM333.865 149.971C334.828 149.722 336.272 149.682 338.261 150.463C338.927 150.182 339.505 149.833 339.985 149.421C338.286 147.624 338.307 145.859 338.789 144.501L333.866 149.97L333.865 149.971ZM338.728 156.862C338.295 155.182 338.863 153.318 339.987 152.124C339.505 151.706 338.926 151.351 338.259 151.067C336.283 151.824 334.855 151.787 333.896 151.541L338.729 156.862L338.728 156.862Z" fill="#9CDDFF"/>
<path d="M332.002 141.84L332.002 159.569L332.905 159.569L332.905 141.84L332.002 141.84Z" fill="#9CDDFF"/>
<path d="M347.902 141.84L347.902 159.569L348.805 159.569L348.805 141.84L347.902 141.84Z" fill="#9CDDFF"/>
<path d="M332.416 159.569L338.886 159.569L332.416 152.365L332.416 159.569Z" fill="#9CDDFF"/>
<path d="M332.416 141.837L338.886 141.837L332.416 149.041L332.416 141.837Z" fill="#9CDDFF"/>
<path d="M348.031 141.837L341.561 141.837L348.031 149.041L348.031 141.837Z" fill="#9CDDFF"/>
<path d="M348.031 159.569L341.561 159.569L348.031 152.365L348.031 159.569Z" fill="#9CDDFF"/>
<path d="M340.403 248.219L332.342 239.392L340.404 230.489L348.466 239.392L340.404 248.219L340.403 248.219ZM340.403 241.177C337.593 244.238 340.395 247.329 340.403 247.356C340.411 247.329 343.21 244.234 340.403 241.177ZM346.924 240.176C345.961 240.427 344.524 240.473 342.547 239.716C341.88 240.001 341.301 240.356 340.818 240.773C341.931 241.957 342.515 243.819 342.087 245.5L346.923 240.175L346.924 240.176ZM340.403 240.365L340.409 240.369C340.865 239.975 341.24 239.756 341.799 239.416C341.216 239.064 340.852 238.853 340.409 238.472L340.403 238.477L340.397 238.472C339.94 238.865 339.56 239.083 339.009 239.416C339.625 239.792 339.965 239.994 340.397 240.369L340.403 240.365ZM337.424 239.411C335.842 238.926 334.177 238.917 333.283 239.393C334.179 239.876 335.844 239.879 337.424 239.411ZM343.384 239.411C344.963 239.88 346.628 239.877 347.525 239.393C346.63 238.917 344.965 238.926 343.384 239.411ZM346.927 238.604L341.986 233.115C342.482 234.482 342.525 236.269 340.821 238.069C341.301 238.481 341.88 238.831 342.545 239.111C344.536 238.331 345.969 238.36 346.927 238.603L346.927 238.604ZM340.403 231.477C338.623 233.412 338.944 236.089 340.403 237.669C341.828 236.127 342.217 233.447 340.403 231.477ZM333.865 238.621C334.828 238.372 336.272 238.332 338.261 239.112C338.927 238.832 339.505 238.482 339.985 238.07C338.286 236.273 338.307 234.508 338.789 233.15L333.866 238.62L333.865 238.621ZM338.728 245.511C338.295 243.831 338.863 241.968 339.987 240.773C339.505 240.356 338.926 240.001 338.259 239.716C336.283 240.473 334.855 240.436 333.896 240.191L338.729 245.511L338.728 245.511Z" fill="#9CDDFF"/>
<path d="M332.002 230.489L332.002 248.219L332.905 248.219L332.905 230.489L332.002 230.489Z" fill="#9CDDFF"/>
<path d="M347.902 230.489L347.902 248.219L348.805 248.219L348.805 230.489L347.902 230.489Z" fill="#9CDDFF"/>
<path d="M332.416 248.219L338.886 248.219L332.416 241.014L332.416 248.219Z" fill="#9CDDFF"/>
<path d="M332.416 230.486L338.886 230.486L332.416 237.691L332.416 230.486Z" fill="#9CDDFF"/>
<path d="M348.031 230.486L341.561 230.486L348.031 237.691L348.031 230.486Z" fill="#9CDDFF"/>
<path d="M348.031 248.219L341.561 248.219L348.031 241.014L348.031 248.219Z" fill="#9CDDFF"/>
<path d="M340.401 141.848L332.34 133.022L340.402 124.119L348.464 133.022L340.402 141.848L340.401 141.848ZM340.401 134.806C337.591 137.866 340.393 140.957 340.401 140.984C340.409 140.957 343.209 137.863 340.401 134.806ZM346.922 133.805C345.959 134.056 344.522 134.102 342.545 133.345C341.878 133.629 341.299 133.984 340.816 134.402C341.929 135.585 342.513 137.447 342.085 139.129L346.921 133.803L346.922 133.805ZM340.401 133.993L340.407 133.998C340.863 133.604 341.238 133.385 341.797 133.044C341.214 132.693 340.85 132.482 340.407 132.101L340.401 132.105L340.395 132.101C339.938 132.494 339.558 132.712 339.007 133.044C339.623 133.421 339.963 133.623 340.395 133.998L340.401 133.993ZM337.422 133.04C335.84 132.554 334.175 132.545 333.281 133.022C334.177 133.504 335.843 133.508 337.422 133.04ZM343.382 133.04C344.961 133.509 346.626 133.505 347.523 133.022C346.628 132.545 344.963 132.554 343.382 133.04ZM346.925 132.234L341.984 126.744C342.48 128.112 342.523 129.898 340.819 131.699C341.299 132.111 341.878 132.46 342.543 132.741C344.534 131.96 345.967 131.989 346.925 132.233L346.925 132.234ZM340.401 125.105C338.621 127.04 338.942 129.717 340.401 131.297C341.826 129.755 342.215 127.076 340.401 125.105ZM333.863 132.249C334.826 132 336.27 131.96 338.259 132.741C338.925 132.46 339.503 132.111 339.984 131.699C338.284 129.902 338.305 128.137 338.787 126.78L333.865 132.249L333.863 132.249ZM338.726 139.141C338.293 137.461 338.861 135.598 339.985 134.403C339.503 133.985 338.924 133.63 338.257 133.346C336.282 134.103 334.853 134.066 333.894 133.82L338.727 139.141L338.726 139.141Z" fill="#9CDDFF"/>
<path d="M332 124.119L332 141.848L332.903 141.848L332.903 124.119L332 124.119Z" fill="#9CDDFF"/>
<path d="M347.9 124.119L347.9 141.848L348.803 141.848L348.803 124.119L347.9 124.119Z" fill="#9CDDFF"/>
<path d="M332.414 141.848L338.884 141.848L332.414 134.643L332.414 141.848Z" fill="#9CDDFF"/>
<path d="M332.414 124.114L338.884 124.114L332.414 131.319L332.414 124.114Z" fill="#9CDDFF"/>
<path d="M348.029 124.114L341.559 124.114L348.029 131.319L348.029 124.114Z" fill="#9CDDFF"/>
<path d="M348.029 141.848L341.559 141.848L348.029 134.643L348.029 141.848Z" fill="#9CDDFF"/>
<path d="M340.401 124.11L332.34 115.284L340.402 106.38L348.464 115.284L340.402 124.11L340.401 124.11ZM340.401 117.068C337.591 120.128 340.393 123.219 340.401 123.246C340.409 123.219 343.209 120.125 340.401 117.068ZM346.922 116.066C345.959 116.318 344.522 116.363 342.545 115.606C341.878 115.891 341.299 116.246 340.816 116.664C341.929 117.847 342.513 119.708 342.085 121.391L346.921 116.065L346.922 116.066ZM340.401 116.255L340.407 116.26C340.863 115.865 341.238 115.647 341.797 115.306C341.214 114.954 340.85 114.743 340.407 114.363L340.401 114.367L340.395 114.363C339.938 114.756 339.558 114.973 339.007 115.306C339.623 115.682 339.963 115.884 340.395 116.26L340.401 116.255ZM337.422 115.302C335.84 114.816 334.175 114.807 333.281 115.284C334.177 115.766 335.843 115.769 337.422 115.302ZM343.382 115.302C344.961 115.771 346.626 115.767 347.523 115.284C346.628 114.807 344.963 114.816 343.382 115.302ZM346.925 114.496L341.984 109.006C342.48 110.374 342.523 112.16 340.819 113.961C341.299 114.373 341.878 114.722 342.543 115.002C344.534 114.222 345.967 114.251 346.925 114.494L346.925 114.496ZM340.401 107.367C338.621 109.302 338.942 111.979 340.401 113.559C341.826 112.017 342.215 109.338 340.401 107.367ZM333.863 114.511C334.826 114.262 336.27 114.222 338.259 115.004C338.925 114.723 339.503 114.374 339.984 113.962C338.284 112.164 338.305 110.399 338.787 109.043L333.865 114.512L333.863 114.511ZM338.726 121.403C338.293 119.723 338.861 117.859 339.985 116.665C339.503 116.247 338.924 115.892 338.257 115.608C336.282 116.364 334.853 116.328 333.894 116.082L338.727 121.403L338.726 121.403Z" fill="#9CDDFF"/>
<path d="M332 106.38L332 124.11L332.903 124.11L332.903 106.38L332 106.38Z" fill="#9CDDFF"/>
<path d="M347.9 106.38L347.9 124.11L348.803 124.11L348.803 106.38L347.9 106.38Z" fill="#9CDDFF"/>
<path d="M332.414 124.11L338.884 124.11L332.414 116.905L332.414 124.11Z" fill="#9CDDFF"/>
<path d="M332.414 106.38L338.884 106.38L332.414 113.585L332.414 106.38Z" fill="#9CDDFF"/>
<path d="M348.029 106.38L341.559 106.38L348.029 113.585L348.029 106.38Z" fill="#9CDDFF"/>
<path d="M348.029 124.11L341.559 124.11L348.029 116.905L348.029 124.11Z" fill="#9CDDFF"/>
<path d="M340.401 106.381L332.34 97.5542L340.402 88.6507L348.464 97.5542L340.402 106.381L340.401 106.381ZM340.401 99.3382C337.591 102.398 340.393 105.49 340.401 105.516C340.409 105.489 343.209 102.395 340.401 99.3382ZM346.922 98.3368C345.959 98.588 344.522 98.6337 342.545 97.8768C341.878 98.1615 341.299 98.5165 340.816 98.934C341.929 100.117 342.513 101.979 342.085 103.661L346.921 98.3356L346.922 98.3368ZM340.401 98.5254L340.407 98.5299C340.863 98.1358 341.238 97.917 341.797 97.5765C341.214 97.2248 340.85 97.0138 340.407 96.6331L340.401 96.6376L340.395 96.6331C339.938 97.0261 339.558 97.2438 339.007 97.5765C339.623 97.9527 339.963 98.1548 340.395 98.5299L340.401 98.5254ZM337.422 97.572C335.84 97.0864 334.175 97.0774 333.281 97.5542C334.177 98.0364 335.843 98.0398 337.422 97.572ZM343.382 97.572C344.961 98.0409 346.626 98.0376 347.523 97.5542C346.628 97.0774 344.963 97.0864 343.382 97.572ZM346.925 96.766L341.984 91.2766C342.48 92.6442 342.523 94.4304 340.819 96.2312C341.299 96.6432 341.878 96.9926 342.543 97.2728C344.534 96.4924 345.967 96.5215 346.925 96.7648L346.925 96.766ZM340.401 89.6388C338.621 91.5735 338.942 94.2507 340.401 95.8304C341.826 94.2886 342.215 91.6092 340.401 89.6388ZM333.863 96.7816C334.826 96.5326 336.27 96.4924 338.259 97.2728C338.925 96.9926 339.503 96.6432 339.984 96.2312C338.284 94.4338 338.305 92.6687 338.787 91.3123L333.865 96.7816L333.863 96.7816ZM338.726 103.673C338.293 101.993 338.861 100.13 339.985 98.9352C339.503 98.5176 338.924 98.1626 338.257 97.8779C336.282 98.6348 334.853 98.598 333.894 98.3524L338.727 103.673L338.726 103.673Z" fill="#9CDDFF"/>
<path d="M332 88.6507L332 106.381L332.903 106.381L332.903 88.6507L332 88.6507Z" fill="#9CDDFF"/>
<path d="M347.9 88.6507L347.9 106.381L348.803 106.381L348.803 88.6507L347.9 88.6507Z" fill="#9CDDFF"/>
<path d="M332.414 106.381L338.884 106.381L332.414 99.1763L332.414 106.381Z" fill="#9CDDFF"/>
<path d="M332.414 88.6466L338.884 88.6466L332.414 95.8508L332.414 88.6466Z" fill="#9CDDFF"/>
<path d="M348.029 88.6466L341.559 88.6466L348.029 95.8508L348.029 88.6466Z" fill="#9CDDFF"/>
<path d="M348.029 106.381L341.559 106.381L348.029 99.1763L348.029 106.381Z" fill="#9CDDFF"/>
<path d="M340.401 88.6536L332.34 79.8273L340.402 70.9239L348.464 79.8273L340.402 88.6536L340.401 88.6536ZM340.401 81.6113C337.591 84.6714 340.393 87.7628 340.401 87.7895C340.409 87.7616 343.209 84.668 340.401 81.6113ZM346.922 80.6099C345.959 80.8611 344.522 80.9068 342.545 80.1499C341.878 80.4346 341.299 80.7896 340.816 81.2072C341.929 82.3906 342.513 84.2527 342.085 85.9341L346.921 80.6088L346.922 80.6099ZM340.401 80.7986L340.407 80.803C340.863 80.4089 341.238 80.1901 341.797 79.8496C341.214 79.4979 340.85 79.2869 340.407 78.9062L340.401 78.9107L340.395 78.9062C339.938 79.2992 339.558 79.5169 339.007 79.8496C339.623 80.2258 339.963 80.4279 340.395 80.803L340.401 80.7986ZM337.422 79.8451C335.84 79.3595 334.175 79.3506 333.281 79.8273C334.177 80.3096 335.843 80.3129 337.422 79.8451ZM343.382 79.8451C344.961 80.314 346.626 80.3107 347.523 79.8273C346.628 79.3506 344.963 79.3595 343.382 79.8451ZM346.925 79.0391L341.984 73.5497C342.48 74.9173 342.523 76.7035 340.819 78.5043C341.299 78.9163 341.878 79.2657 342.543 79.5459C344.534 78.7656 345.967 78.7946 346.925 79.038L346.925 79.0391ZM340.401 71.9119C338.621 73.8466 338.942 76.5238 340.401 78.1035C341.826 76.5618 342.215 73.8823 340.401 71.9119ZM333.863 79.0547C334.826 78.8058 336.27 78.7656 338.259 79.5459C338.925 79.2657 339.503 78.9163 339.984 78.5043C338.284 76.7069 338.305 74.9418 338.787 73.5843L333.865 79.0536L333.863 79.0547ZM338.726 85.9463C338.293 84.2661 338.861 82.4028 339.985 81.2083C339.503 80.7907 338.924 80.4357 338.257 80.151C336.282 80.908 334.853 80.8711 333.894 80.6255L338.727 85.9463L338.726 85.9463Z" fill="#9CDDFF"/>
<path d="M332 70.924L332 88.6538L332.903 88.6538L332.903 70.924L332 70.924Z" fill="#9CDDFF"/>
<path d="M347.9 70.924L347.9 88.6538L348.803 88.6538L348.803 70.924L347.9 70.924Z" fill="#9CDDFF"/>
<path d="M332.414 88.6536L338.884 88.6536L332.414 81.4494L332.414 88.6536Z" fill="#9CDDFF"/>
<path d="M332.414 70.9199L338.884 70.9199L332.414 78.1242L332.414 70.9199Z" fill="#9CDDFF"/>
<path d="M348.029 70.9199L341.559 70.9199L348.029 78.1242L348.029 70.9199Z" fill="#9CDDFF"/>
<path d="M348.029 88.6536L341.559 88.6536L348.029 81.4494L348.029 88.6536Z" fill="#9CDDFF"/>
<path d="M340.401 70.9213L332.34 62.0949L340.402 53.1915L348.464 62.0949L340.402 70.9213L340.401 70.9213ZM340.401 63.879C337.591 66.9391 340.393 70.0304 340.401 70.0572C340.409 70.0304 343.209 66.9357 340.401 63.879ZM346.922 62.8787C345.959 63.1299 344.522 63.1756 342.545 62.4187C341.878 62.7034 341.299 63.0584 340.816 63.4759C341.929 64.6605 342.513 66.5215 342.085 68.2028L346.921 62.8775L346.922 62.8787ZM340.401 63.0673L340.407 63.0718C340.863 62.6777 341.238 62.4589 341.797 62.1184C341.214 61.7667 340.85 61.5557 340.407 61.175L340.401 61.1795L340.395 61.175C339.938 61.568 339.558 61.7857 339.007 62.1184C339.623 62.4946 339.963 62.6967 340.395 63.0718L340.401 63.0673ZM337.422 62.1128C335.84 61.6272 334.175 61.6182 333.281 62.0949C334.177 62.5772 335.843 62.5806 337.422 62.1128ZM343.382 62.1128C344.961 62.5817 346.626 62.5783 347.523 62.0949C346.628 61.6182 344.963 61.6272 343.382 62.1128ZM346.925 61.3067L341.984 55.8173C342.48 57.1849 342.523 58.9712 340.819 60.772C341.299 61.1839 341.878 61.5334 342.543 61.8136C344.534 61.0332 345.967 61.0622 346.925 61.3056L346.925 61.3067ZM340.401 54.1796C338.621 56.1143 338.942 58.7915 340.401 60.3712C341.826 58.8294 342.215 56.15 340.401 54.1796ZM333.863 61.3224C334.826 61.0734 336.27 61.0332 338.259 61.8136C338.925 61.5334 339.503 61.1839 339.984 60.772C338.284 58.9746 338.305 57.2095 338.787 55.8531L333.865 61.3224L333.863 61.3224ZM338.726 68.214C338.293 66.5338 338.861 64.6705 339.985 63.4759C339.503 63.0584 338.924 62.7034 338.257 62.4187C336.282 63.1756 334.853 63.1388 333.894 62.8932L338.727 68.214L338.726 68.214Z" fill="#9CDDFF"/>
<path d="M332 53.1917L332 70.9215L332.903 70.9215L332.903 53.1917L332 53.1917Z" fill="#9CDDFF"/>
<path d="M347.9 53.1917L347.9 70.9215L348.803 70.9215L348.803 53.1917L347.9 53.1917Z" fill="#9CDDFF"/>
<path d="M332.414 70.9213L338.884 70.9213L332.414 63.7171L332.414 70.9213Z" fill="#9CDDFF"/>
<path d="M332.414 53.1902L338.884 53.1902L332.414 60.3944L332.414 53.1902Z" fill="#9CDDFF"/>
<path d="M348.029 53.1902L341.559 53.1902L348.029 60.3944L348.029 53.1902Z" fill="#9CDDFF"/>
<path d="M348.029 70.9213L341.559 70.9213L348.029 63.7171L348.029 70.9213Z" fill="#9CDDFF"/>
<path d="M340.401 53.1931L332.34 44.3667L340.402 35.4633L348.464 44.3667L340.402 53.1931L340.401 53.1931ZM340.401 46.1508C337.591 49.2109 340.393 52.3022 340.401 52.329C340.409 52.3022 343.209 49.2075 340.401 46.1508ZM346.922 45.1505C345.959 45.4017 344.522 45.4474 342.545 44.6905C341.878 44.9752 341.299 45.3302 340.816 45.7477C341.929 46.9311 342.513 48.7922 342.085 50.4746L346.921 45.1493L346.922 45.1505ZM340.401 45.3391L340.407 45.3436C340.863 44.9495 341.238 44.7307 341.797 44.3902C341.214 44.0385 340.85 43.8275 340.407 43.4468L340.401 43.4513L340.395 43.4468C339.938 43.8398 339.558 44.0575 339.007 44.3902C339.623 44.7664 339.963 44.9685 340.395 45.3436L340.401 45.3391ZM337.422 44.3846C335.84 43.899 334.175 43.89 333.281 44.3667C334.177 44.849 335.843 44.8524 337.422 44.3846ZM343.382 44.3846C344.961 44.8535 346.626 44.8501 347.523 44.3667C346.628 43.89 344.963 43.899 343.382 44.3846ZM346.925 43.5785L341.984 38.0891C342.48 39.4567 342.523 41.243 340.819 43.0438C341.299 43.4557 341.878 43.8052 342.543 44.0854C344.534 43.305 345.967 43.3341 346.925 43.5774L346.925 43.5785ZM340.401 36.4513C338.621 38.3861 338.942 41.0633 340.401 42.643C341.826 41.1012 342.215 38.4218 340.401 36.4513ZM333.863 43.5942C334.826 43.3452 336.27 43.305 338.259 44.0865C338.925 43.8063 339.503 43.4569 339.984 43.0449C338.284 41.2475 338.305 39.4824 338.787 38.126L333.865 43.5953L333.863 43.5942ZM338.726 50.4858C338.293 48.8056 338.861 46.9423 339.985 45.7477C339.503 45.3302 338.924 44.9752 338.257 44.6905C336.282 45.4474 334.853 45.4106 333.894 45.165L338.727 50.4858L338.726 50.4858Z" fill="#9CDDFF"/>
<path d="M332 35.4633L332 53.1931L332.903 53.1931L332.903 35.4633L332 35.4633Z" fill="#9CDDFF"/>
<path d="M347.9 35.4633L347.9 53.1931L348.803 53.1931L348.803 35.4633L347.9 35.4633Z" fill="#9CDDFF"/>
<path d="M332.414 53.1931L338.884 53.1931L332.414 45.9889L332.414 53.1931Z" fill="#9CDDFF"/>
<path d="M332.414 35.4605L338.884 35.4605L332.414 42.6647L332.414 35.4605Z" fill="#9CDDFF"/>
<path d="M348.029 35.4605L341.559 35.4605L348.029 42.6647L348.029 35.4605Z" fill="#9CDDFF"/>
<path d="M348.029 53.1931L341.559 53.1931L348.029 45.9889L348.029 53.1931Z" fill="#9CDDFF"/>
<path d="M340.401 35.4607L332.34 26.6343L340.402 17.7309L348.464 26.6343L340.402 35.4607L340.401 35.4607ZM340.401 28.4183C337.591 31.4784 340.393 34.5698 340.401 34.5966C340.409 34.5698 343.209 31.4751 340.401 28.4183ZM346.922 27.418C345.959 27.6692 344.522 27.715 342.545 26.958C341.878 27.2427 341.299 27.5978 340.816 28.0153C341.929 29.1987 342.513 31.0609 342.085 32.7422L346.921 27.4169L346.922 27.418ZM340.401 27.6067L340.407 27.6112C340.863 27.2171 341.238 26.9982 341.797 26.6577C341.214 26.3061 340.85 26.0951 340.407 25.7144L340.401 25.7188L340.395 25.7144C339.938 26.1073 339.558 26.325 339.007 26.6577C339.623 27.034 339.963 27.236 340.395 27.6112L340.401 27.6067ZM337.422 26.6521C335.84 26.1665 334.175 26.1576 333.281 26.6343C334.177 27.1166 335.843 27.1199 337.422 26.6521ZM343.382 26.6521C344.961 27.121 346.626 27.1177 347.523 26.6343C346.628 26.1576 344.963 26.1665 343.382 26.6521ZM346.925 25.8461L341.984 20.3567C342.48 21.7243 342.523 23.5106 340.819 25.3113C341.299 25.7233 341.878 26.0727 342.543 26.353C344.534 25.5726 345.967 25.6016 346.925 25.845L346.925 25.8461ZM340.401 18.7189C338.621 20.6537 338.942 23.3308 340.401 24.9105C341.826 23.3688 342.215 20.6894 340.401 18.7189ZM333.863 25.8617C334.826 25.6128 336.27 25.5726 338.259 26.353C338.925 26.0727 339.503 25.7233 339.984 25.3113C338.284 23.5139 338.305 21.7489 338.787 20.3924L333.865 25.8617L333.863 25.8617ZM338.726 32.7534C338.293 31.0732 338.861 29.2099 339.985 28.0153C339.503 27.5978 338.924 27.2427 338.257 26.958C336.282 27.715 334.853 27.6781 333.894 27.4325L338.727 32.7534L338.726 32.7534Z" fill="#9CDDFF"/>
<path d="M332 17.7309L332 35.4607L332.903 35.4607L332.903 17.7309L332 17.7309Z" fill="#9CDDFF"/>
<path d="M347.9 17.7309L347.9 35.4607L348.803 35.4607L348.803 17.7309L347.9 17.7309Z" fill="#9CDDFF"/>
<path d="M332.414 35.4607L338.884 35.4607L332.414 28.2564L332.414 35.4607Z" fill="#9CDDFF"/>
<path d="M332.414 17.7267L338.884 17.7267L332.414 24.9309L332.414 17.7267Z" fill="#9CDDFF"/>
<path d="M348.029 17.7267L341.559 17.7267L348.029 24.9309L348.029 17.7267Z" fill="#9CDDFF"/>
<path d="M348.029 35.4607L341.559 35.4607L348.029 28.2564L348.029 35.4607Z" fill="#9CDDFF"/>
<path d="M340.401 17.7325L332.34 8.9061L340.402 0.00268553L348.464 8.9061L340.402 17.7325L340.401 17.7325ZM340.401 10.6901C337.591 13.7502 340.393 16.8416 340.401 16.8684C340.409 16.8416 343.209 13.7469 340.401 10.6901ZM346.922 9.68982C345.959 9.94102 344.522 9.98679 342.545 9.22986C341.878 9.51455 341.299 9.86956 340.816 10.2871C341.929 11.4716 342.513 13.3327 342.085 15.014L346.921 9.68871L346.922 9.68982ZM340.401 9.87849L340.407 9.88296C340.863 9.48887 341.238 9.27004 341.797 8.92954C341.214 8.57787 340.85 8.36687 340.407 7.98617L340.401 7.99064L340.395 7.98617C339.938 8.37915 339.558 8.59685 339.007 8.92954C339.623 9.30577 339.963 9.50785 340.395 9.88296L340.401 9.87849ZM337.422 8.92508C335.84 8.43944 334.175 8.4305 333.281 8.90721C334.177 9.38951 335.843 9.39286 337.422 8.92508ZM343.382 8.92508C344.961 9.39398 346.626 9.39062 347.523 8.90722C346.628 8.43051 344.963 8.43944 343.382 8.92508ZM346.925 8.11792L341.984 2.6285C342.48 3.99611 342.523 5.78237 340.819 7.58315C341.299 7.99511 341.878 8.34454 342.543 8.62476C344.534 7.84438 345.967 7.87342 346.925 8.1168L346.925 8.11792ZM340.401 0.990724C338.621 2.92547 338.942 5.60263 340.401 7.18236C341.826 5.64059 342.215 2.9612 340.401 0.990724ZM333.863 8.13355C334.826 7.88459 336.27 7.84438 338.259 8.62476C338.925 8.34454 339.503 7.99511 339.984 7.58315C338.284 5.78572 338.305 4.02066 338.787 2.66422L333.865 8.13355L333.863 8.13355ZM338.726 15.0252C338.293 13.345 338.861 11.4817 339.985 10.2871C339.503 9.86956 338.924 9.51455 338.257 9.22986C336.282 9.98679 334.853 9.94995 333.894 9.70434L338.727 15.0252L338.726 15.0252Z" fill="#9CDDFF"/>
<path d="M332 0.00268459L332 17.7325L332.903 17.7325L332.903 0.00268469L332 0.00268459Z" fill="#9CDDFF"/>
<path d="M347.9 0.00268364L347.9 17.7325L348.803 17.7325L348.803 0.00268374L347.9 0.00268364Z" fill="#9CDDFF"/>
<path d="M332.414 17.7325L338.884 17.7325L332.414 10.5282L332.414 17.7325Z" fill="#9CDDFF"/>
<path d="M332.414 0.000251794L338.884 0.000252509L332.414 7.2056L332.414 0.000251794Z" fill="#9CDDFF"/>
<path d="M348.029 0.000252509L341.559 0.000251794L348.029 7.2056L348.029 0.000252509Z" fill="#9CDDFF"/>
<path d="M348.029 17.7325L341.559 17.7325L348.029 10.5283L348.029 17.7325Z" fill="#9CDDFF"/>
</g>
<defs>
<filter id="filter0_d_2893_19168" x="0" y="0" width="352" height="336" filterUnits="userSpaceOnUse" color-interpolation-filters="sRGB">
<feFlood flood-opacity="0" result="BackgroundImageFix"/>
<feColorMatrix in="SourceAlpha" type="matrix" values="0 0 0 0 0 0 0 0 0 0 0 0 0 0 0 0 0 0 127 0" result="hardAlpha"/>
<feOffset dy="3"/>
<feGaussianBlur stdDeviation="1.5"/>
<feComposite in2="hardAlpha" operator="out"/>
<feColorMatrix type="matrix" values="0 0 0 0 0 0 0 0 0 0 0 0 0 0 0 0 0 0 0.25 0"/>
<feBlend mode="normal" in2="BackgroundImageFix" result="effect1_dropShadow_2893_19168"/>
<feBlend mode="normal" in="SourceGraphic" in2="effect1_dropShadow_2893_19168" result="shape"/>
</filter>
</defs>
</svg>
