<svg width="342" height="192" viewBox="0 0 342 192" fill="none" xmlns="http://www.w3.org/2000/svg">
<path d="M0 37C0 25.9543 8.95431 17 20 17H322C333.046 17 342 25.9543 342 37V172C342 183.046 333.046 192 322 192H20C8.95431 192 0 183.046 0 172V37Z" fill="#D2FEFB"/>
<path d="M21.8523 84.5881V81.5455H36.1875V84.5881H30.8438V99H27.196V84.5881H21.8523ZM40.4318 99.2472C39.5966 99.2472 38.8523 99.1023 38.1989 98.8125C37.5455 98.517 37.0284 98.0824 36.6477 97.5085C36.2727 96.929 36.0852 96.2074 36.0852 95.3438C36.0852 94.6165 36.2188 94.0057 36.4858 93.5114C36.7528 93.017 37.1165 92.6193 37.5767 92.3182C38.0369 92.017 38.5597 91.7898 39.1449 91.6364C39.7358 91.483 40.3551 91.375 41.0028 91.3125C41.7642 91.233 42.3778 91.1591 42.8438 91.0909C43.3097 91.017 43.6477 90.9091 43.858 90.767C44.0682 90.625 44.1733 90.4148 44.1733 90.1364V90.0852C44.1733 89.5455 44.0028 89.1278 43.6619 88.8324C43.3267 88.5369 42.8494 88.3892 42.2301 88.3892C41.5767 88.3892 41.0568 88.5341 40.6705 88.8239C40.2841 89.108 40.0284 89.4659 39.9034 89.8977L36.5455 89.625C36.7159 88.8295 37.0511 88.142 37.5511 87.5625C38.0511 86.9773 38.696 86.5284 39.4858 86.2159C40.2813 85.8977 41.2017 85.7386 42.2472 85.7386C42.9744 85.7386 43.6705 85.8239 44.3352 85.9943C45.0057 86.1648 45.5994 86.429 46.1165 86.7869C46.6392 87.1449 47.0511 87.6051 47.3523 88.1676C47.6534 88.7244 47.804 89.392 47.804 90.1705V99H44.3608V97.1847H44.2585C44.0483 97.5938 43.767 97.9545 43.4148 98.267C43.0625 98.5739 42.6392 98.8153 42.1449 98.9915C41.6506 99.1619 41.0795 99.2472 40.4318 99.2472ZM41.4716 96.7415C42.0057 96.7415 42.4773 96.6364 42.8864 96.4261C43.2955 96.2102 43.6165 95.9205 43.8494 95.5568C44.0824 95.1932 44.1989 94.7812 44.1989 94.321V92.9318C44.0852 93.0057 43.929 93.0739 43.7301 93.1364C43.5369 93.1932 43.3182 93.2472 43.0739 93.2983C42.8295 93.3437 42.5852 93.3864 42.3409 93.4261C42.0966 93.4602 41.875 93.4915 41.6761 93.5199C41.25 93.5824 40.8778 93.6818 40.5597 93.8182C40.2415 93.9545 39.9943 94.1392 39.8182 94.3722C39.642 94.5994 39.554 94.8835 39.554 95.2244C39.554 95.7188 39.733 96.0966 40.0909 96.358C40.4545 96.6136 40.9148 96.7415 41.4716 96.7415ZM53.9105 95.233L53.919 90.8778H54.4474L58.6406 85.9091H62.8082L57.1747 92.4886H56.3139L53.9105 95.233ZM50.6207 99V81.5455H54.2514V99H50.6207ZM58.8026 99L54.9503 93.2983L57.3707 90.733L63.0554 99H58.8026ZM70.0163 99.2557C68.6697 99.2557 67.5107 98.983 66.5391 98.4375C65.5732 97.8864 64.8288 97.108 64.3061 96.1023C63.7834 95.0909 63.522 93.8949 63.522 92.5142C63.522 91.1676 63.7834 89.9858 64.3061 88.9688C64.8288 87.9517 65.5646 87.1591 66.5135 86.5909C67.468 86.0227 68.5874 85.7386 69.8714 85.7386C70.7351 85.7386 71.5391 85.8778 72.2834 86.1562C73.0334 86.429 73.6868 86.8409 74.2436 87.392C74.8061 87.9432 75.2436 88.6364 75.5561 89.4716C75.8686 90.3011 76.0249 91.2727 76.0249 92.3864V93.3835H64.9709V91.1335H72.6072C72.6072 90.6108 72.4936 90.1477 72.2663 89.7443C72.0391 89.3409 71.7237 89.0256 71.3203 88.7983C70.9226 88.5653 70.4595 88.4489 69.9311 88.4489C69.38 88.4489 68.8913 88.5767 68.4652 88.8324C68.0447 89.0824 67.7152 89.4205 67.4766 89.8466C67.2379 90.267 67.1158 90.7358 67.1101 91.2528V93.392C67.1101 94.0398 67.2294 94.5994 67.468 95.071C67.7124 95.5426 68.0561 95.9062 68.4993 96.1619C68.9425 96.4176 69.468 96.5455 70.076 96.5455C70.4794 96.5455 70.8487 96.4886 71.1839 96.375C71.5192 96.2614 71.8061 96.0909 72.0447 95.8636C72.2834 95.6364 72.4652 95.358 72.5902 95.0284L75.9482 95.25C75.7777 96.0568 75.4283 96.7614 74.8999 97.3636C74.3771 97.9602 73.701 98.4261 72.8714 98.7614C72.0476 99.0909 71.0959 99.2557 70.0163 99.2557ZM87.6818 99.2472C86.8466 99.2472 86.1023 99.1023 85.4489 98.8125C84.7955 98.517 84.2784 98.0824 83.8977 97.5085C83.5227 96.929 83.3352 96.2074 83.3352 95.3438C83.3352 94.6165 83.4688 94.0057 83.7358 93.5114C84.0028 93.017 84.3665 92.6193 84.8267 92.3182C85.2869 92.017 85.8097 91.7898 86.3949 91.6364C86.9858 91.483 87.6051 91.375 88.2528 91.3125C89.0142 91.233 89.6278 91.1591 90.0938 91.0909C90.5597 91.017 90.8977 90.9091 91.108 90.767C91.3182 90.625 91.4233 90.4148 91.4233 90.1364V90.0852C91.4233 89.5455 91.2528 89.1278 90.9119 88.8324C90.5767 88.5369 90.0994 88.3892 89.4801 88.3892C88.8267 88.3892 88.3068 88.5341 87.9205 88.8239C87.5341 89.108 87.2784 89.4659 87.1534 89.8977L83.7955 89.625C83.9659 88.8295 84.3011 88.142 84.8011 87.5625C85.3011 86.9773 85.946 86.5284 86.7358 86.2159C87.5313 85.8977 88.4517 85.7386 89.4972 85.7386C90.2244 85.7386 90.9205 85.8239 91.5852 85.9943C92.2557 86.1648 92.8494 86.429 93.3665 86.7869C93.8892 87.1449 94.3011 87.6051 94.6023 88.1676C94.9034 88.7244 95.054 89.392 95.054 90.1705V99H91.6108V97.1847H91.5085C91.2983 97.5938 91.017 97.9545 90.6648 98.267C90.3125 98.5739 89.8892 98.8153 89.3949 98.9915C88.9006 99.1619 88.3295 99.2472 87.6818 99.2472ZM88.7216 96.7415C89.2557 96.7415 89.7273 96.6364 90.1364 96.4261C90.5455 96.2102 90.8665 95.9205 91.0994 95.5568C91.3324 95.1932 91.4489 94.7812 91.4489 94.321V92.9318C91.3352 93.0057 91.179 93.0739 90.9801 93.1364C90.7869 93.1932 90.5682 93.2472 90.3239 93.2983C90.0795 93.3437 89.8352 93.3864 89.5909 93.4261C89.3466 93.4602 89.125 93.4915 88.9261 93.5199C88.5 93.5824 88.1278 93.6818 87.8097 93.8182C87.4915 93.9545 87.2443 94.1392 87.0682 94.3722C86.892 94.5994 86.804 94.8835 86.804 95.2244C86.804 95.7188 86.983 96.0966 87.3409 96.358C87.7045 96.6136 88.1648 96.7415 88.7216 96.7415ZM103.494 99V81.5455H110.38C111.698 81.5455 112.823 81.7812 113.755 82.2528C114.692 82.7187 115.406 83.3807 115.894 84.2386C116.388 85.0909 116.636 86.0937 116.636 87.2472C116.636 88.4062 116.386 89.4034 115.886 90.2386C115.386 91.0682 114.661 91.7045 113.712 92.1477C112.769 92.5909 111.627 92.8125 110.286 92.8125H105.675V89.8466H109.69C110.394 89.8466 110.979 89.75 111.445 89.5568C111.911 89.3636 112.258 89.0739 112.485 88.6875C112.718 88.3011 112.835 87.821 112.835 87.2472C112.835 86.6676 112.718 86.179 112.485 85.7812C112.258 85.3835 111.908 85.0824 111.437 84.8778C110.971 84.6676 110.383 84.5625 109.673 84.5625H107.184V99H103.494ZM112.92 91.0568L117.258 99H113.184L108.94 91.0568H112.92ZM119.175 99V85.9091H122.806V99H119.175ZM120.999 84.2216C120.46 84.2216 119.996 84.0426 119.61 83.6847C119.229 83.321 119.039 82.8864 119.039 82.3807C119.039 81.8807 119.229 81.4517 119.61 81.0938C119.996 80.7301 120.46 80.5483 120.999 80.5483C121.539 80.5483 121.999 80.7301 122.38 81.0938C122.766 81.4517 122.96 81.8807 122.96 82.3807C122.96 82.8864 122.766 83.321 122.38 83.6847C121.999 84.0426 121.539 84.2216 120.999 84.2216ZM132.678 85.9091V88.6364H124.794V85.9091H132.678ZM126.584 82.7727H130.214V94.9773C130.214 95.3125 130.266 95.5739 130.368 95.7614C130.47 95.9432 130.612 96.071 130.794 96.1449C130.982 96.2187 131.197 96.2557 131.442 96.2557C131.612 96.2557 131.783 96.2415 131.953 96.2131C132.124 96.179 132.254 96.1534 132.345 96.1364L132.916 98.8381C132.734 98.8949 132.479 98.9602 132.149 99.0341C131.82 99.1136 131.419 99.1619 130.947 99.179C130.072 99.2131 129.305 99.0966 128.646 98.8295C127.993 98.5625 127.484 98.1477 127.121 97.5852C126.757 97.0227 126.578 96.3125 126.584 95.4545V82.7727ZM143.438 93.4261V85.9091H147.068V99H143.582V96.6222H143.446C143.151 97.3892 142.659 98.0057 141.972 98.4716C141.29 98.9375 140.457 99.1705 139.474 99.1705C138.599 99.1705 137.83 98.9716 137.165 98.5739C136.5 98.1761 135.98 97.6108 135.605 96.8778C135.236 96.1449 135.048 95.267 135.043 94.2443V85.9091H138.673V93.5966C138.679 94.3693 138.886 94.9801 139.295 95.429C139.705 95.8778 140.253 96.1023 140.94 96.1023C141.378 96.1023 141.787 96.0028 142.168 95.804C142.548 95.5994 142.855 95.2983 143.088 94.9006C143.327 94.5028 143.443 94.0114 143.438 93.4261ZM153.705 99.2472C152.87 99.2472 152.126 99.1023 151.472 98.8125C150.819 98.517 150.302 98.0824 149.921 97.5085C149.546 96.929 149.359 96.2074 149.359 95.3438C149.359 94.6165 149.492 94.0057 149.759 93.5114C150.026 93.017 150.39 92.6193 150.85 92.3182C151.31 92.017 151.833 91.7898 152.418 91.6364C153.009 91.483 153.629 91.375 154.276 91.3125C155.038 91.233 155.651 91.1591 156.117 91.0909C156.583 91.017 156.921 90.9091 157.131 90.767C157.342 90.625 157.447 90.4148 157.447 90.1364V90.0852C157.447 89.5455 157.276 89.1278 156.935 88.8324C156.6 88.5369 156.123 88.3892 155.504 88.3892C154.85 88.3892 154.33 88.5341 153.944 88.8239C153.558 89.108 153.302 89.4659 153.177 89.8977L149.819 89.625C149.989 88.8295 150.325 88.142 150.825 87.5625C151.325 86.9773 151.969 86.5284 152.759 86.2159C153.555 85.8977 154.475 85.7386 155.521 85.7386C156.248 85.7386 156.944 85.8239 157.609 85.9943C158.279 86.1648 158.873 86.429 159.39 86.7869C159.913 87.1449 160.325 87.6051 160.626 88.1676C160.927 88.7244 161.077 89.392 161.077 90.1705V99H157.634V97.1847H157.532C157.322 97.5938 157.04 97.9545 156.688 98.267C156.336 98.5739 155.913 98.8153 155.418 98.9915C154.924 99.1619 154.353 99.2472 153.705 99.2472ZM154.745 96.7415C155.279 96.7415 155.751 96.6364 156.16 96.4261C156.569 96.2102 156.89 95.9205 157.123 95.5568C157.356 95.1932 157.472 94.7812 157.472 94.321V92.9318C157.359 93.0057 157.202 93.0739 157.004 93.1364C156.81 93.1932 156.592 93.2472 156.347 93.2983C156.103 93.3437 155.859 93.3864 155.614 93.4261C155.37 93.4602 155.148 93.4915 154.95 93.5199C154.523 93.5824 154.151 93.6818 153.833 93.8182C153.515 93.9545 153.268 94.1392 153.092 94.3722C152.915 94.5994 152.827 94.8835 152.827 95.2244C152.827 95.7188 153.006 96.0966 153.364 96.358C153.728 96.6136 154.188 96.7415 154.745 96.7415ZM167.525 81.5455V99H163.894V81.5455H167.525ZM176.056 99V81.5455H183.045C184.329 81.5455 185.4 81.7358 186.258 82.1165C187.116 82.4972 187.761 83.0256 188.192 83.7017C188.624 84.3722 188.84 85.1449 188.84 86.0199C188.84 86.7017 188.704 87.3011 188.431 87.8182C188.158 88.3295 187.783 88.75 187.306 89.0795C186.835 89.4034 186.295 89.6335 185.687 89.7699V89.9403C186.352 89.9687 186.974 90.1562 187.553 90.5028C188.138 90.8494 188.613 91.3352 188.977 91.9602C189.34 92.5795 189.522 93.3182 189.522 94.1761C189.522 95.1023 189.292 95.929 188.832 96.6562C188.377 97.3778 187.704 97.9489 186.812 98.3693C185.92 98.7898 184.82 99 183.513 99H176.056ZM179.746 95.983H182.755C183.783 95.983 184.533 95.7869 185.005 95.3949C185.477 94.9972 185.712 94.4687 185.712 93.8097C185.712 93.3267 185.596 92.9006 185.363 92.5312C185.13 92.1619 184.798 91.8722 184.366 91.6619C183.94 91.4517 183.431 91.3466 182.84 91.3466H179.746V95.983ZM179.746 88.8494H182.482C182.988 88.8494 183.437 88.7614 183.829 88.5852C184.227 88.4034 184.539 88.1477 184.766 87.8182C184.999 87.4886 185.116 87.0938 185.116 86.6335C185.116 86.0028 184.891 85.4943 184.442 85.108C183.999 84.7216 183.369 84.5284 182.55 84.5284H179.746V88.8494ZM195.588 99.2472C194.753 99.2472 194.009 99.1023 193.355 98.8125C192.702 98.517 192.185 98.0824 191.804 97.5085C191.429 96.929 191.241 96.2074 191.241 95.3438C191.241 94.6165 191.375 94.0057 191.642 93.5114C191.909 93.017 192.273 92.6193 192.733 92.3182C193.193 92.017 193.716 91.7898 194.301 91.6364C194.892 91.483 195.511 91.375 196.159 91.3125C196.92 91.233 197.534 91.1591 198 91.0909C198.466 91.017 198.804 90.9091 199.014 90.767C199.224 90.625 199.33 90.4148 199.33 90.1364V90.0852C199.33 89.5455 199.159 89.1278 198.818 88.8324C198.483 88.5369 198.006 88.3892 197.386 88.3892C196.733 88.3892 196.213 88.5341 195.827 88.8239C195.44 89.108 195.185 89.4659 195.06 89.8977L191.702 89.625C191.872 88.8295 192.207 88.142 192.707 87.5625C193.207 86.9773 193.852 86.5284 194.642 86.2159C195.438 85.8977 196.358 85.7386 197.403 85.7386C198.131 85.7386 198.827 85.8239 199.491 85.9943C200.162 86.1648 200.756 86.429 201.273 86.7869C201.795 87.1449 202.207 87.6051 202.509 88.1676C202.81 88.7244 202.96 89.392 202.96 90.1705V99H199.517V97.1847H199.415C199.205 97.5938 198.923 97.9545 198.571 98.267C198.219 98.5739 197.795 98.8153 197.301 98.9915C196.807 99.1619 196.236 99.2472 195.588 99.2472ZM196.628 96.7415C197.162 96.7415 197.634 96.6364 198.043 96.4261C198.452 96.2102 198.773 95.9205 199.006 95.5568C199.239 95.1932 199.355 94.7812 199.355 94.321V92.9318C199.241 93.0057 199.085 93.0739 198.886 93.1364C198.693 93.1932 198.474 93.2472 198.23 93.2983C197.986 93.3437 197.741 93.3864 197.497 93.4261C197.253 93.4602 197.031 93.4915 196.832 93.5199C196.406 93.5824 196.034 93.6818 195.716 93.8182C195.398 93.9545 195.151 94.1392 194.974 94.3722C194.798 94.5994 194.71 94.8835 194.71 95.2244C194.71 95.7188 194.889 96.0966 195.247 96.358C195.611 96.6136 196.071 96.7415 196.628 96.7415ZM212.74 85.9091V88.6364H204.857V85.9091H212.74ZM206.646 82.7727H210.277V94.9773C210.277 95.3125 210.328 95.5739 210.43 95.7614C210.533 95.9432 210.675 96.071 210.857 96.1449C211.044 96.2187 211.26 96.2557 211.504 96.2557C211.675 96.2557 211.845 96.2415 212.016 96.2131C212.186 96.179 212.317 96.1534 212.408 96.1364L212.979 98.8381C212.797 98.8949 212.541 98.9602 212.212 99.0341C211.882 99.1136 211.482 99.1619 211.01 99.179C210.135 99.2131 209.368 99.0966 208.709 98.8295C208.055 98.5625 207.547 98.1477 207.183 97.5852C206.82 97.0227 206.641 96.3125 206.646 95.4545V82.7727ZM219.017 91.4318V99H215.386V81.5455H218.915V88.2188H219.068C219.364 87.446 219.841 86.8409 220.5 86.4034C221.159 85.9602 221.986 85.7386 222.98 85.7386C223.889 85.7386 224.682 85.9375 225.358 86.3352C226.04 86.7273 226.568 87.2926 226.943 88.0312C227.324 88.7642 227.511 89.642 227.506 90.6648V99H223.875V91.3125C223.881 90.5057 223.676 89.8778 223.261 89.429C222.852 88.9801 222.278 88.7557 221.54 88.7557C221.045 88.7557 220.608 88.8608 220.227 89.071C219.852 89.2812 219.557 89.5881 219.341 89.9915C219.131 90.3892 219.023 90.8693 219.017 91.4318Z" fill="#012F2C"/>
<path d="M23.1307 121.727C23.1307 119.937 23.3627 118.292 23.8267 116.791C24.2955 115.286 24.9631 113.901 25.8295 112.636H27.3068C26.9659 113.105 26.6463 113.683 26.348 114.369C26.0545 115.051 25.7964 115.802 25.5739 116.621C25.3513 117.435 25.1761 118.278 25.0483 119.149C24.9252 120.02 24.8636 120.88 24.8636 121.727C24.8636 122.854 24.9725 123.998 25.1903 125.158C25.4081 126.318 25.7017 127.395 26.071 128.389C26.4403 129.384 26.8523 130.193 27.3068 130.818H25.8295C24.9631 129.554 24.2955 128.171 23.8267 126.67C23.3627 125.165 23.1307 123.517 23.1307 121.727ZM39.9506 119C39.7944 118.522 39.5884 118.093 39.3327 117.714C39.0818 117.331 38.7811 117.004 38.4308 116.734C38.0851 116.464 37.6921 116.259 37.2518 116.116C36.8114 115.974 36.3285 115.903 35.8029 115.903C34.9412 115.903 34.1576 116.126 33.4521 116.571C32.7466 117.016 32.1855 117.672 31.7688 118.538C31.3522 119.405 31.1438 120.468 31.1438 121.727C31.1438 122.987 31.3545 124.05 31.7759 124.916C32.1973 125.783 32.7679 126.438 33.4876 126.884C34.2073 127.329 35.0169 127.551 35.9165 127.551C36.7499 127.551 37.4838 127.374 38.1183 127.018C38.7575 126.659 39.2546 126.152 39.6097 125.499C39.9696 124.84 40.1495 124.066 40.1495 123.176L40.6893 123.29H36.3143V121.727H41.854V123.29C41.854 124.488 41.5984 125.529 41.087 126.415C40.5804 127.3 39.8796 127.987 38.9847 128.474C38.0946 128.957 37.0719 129.199 35.9165 129.199C34.6287 129.199 33.497 128.896 32.5217 128.29C31.551 127.684 30.7934 126.822 30.2489 125.705C29.7092 124.587 29.4393 123.261 29.4393 121.727C29.4393 120.577 29.5932 119.542 29.9009 118.624C30.2134 117.7 30.6538 116.914 31.2219 116.266C31.7901 115.617 32.4625 115.12 33.239 114.774C34.0155 114.429 34.8701 114.256 35.8029 114.256C36.57 114.256 37.2849 114.372 37.9478 114.604C38.6154 114.831 39.2096 115.155 39.7305 115.577C40.256 115.993 40.694 116.493 41.0444 117.075C41.3948 117.653 41.6362 118.295 41.7688 119H39.9506ZM46.3196 122.438V129H44.6435V114.455H46.3196V119.795H46.4616C46.7173 119.232 47.1009 118.785 47.6122 118.453C48.1283 118.117 48.8149 117.949 49.6719 117.949C50.4152 117.949 51.0663 118.098 51.625 118.396C52.1837 118.69 52.617 119.142 52.9247 119.753C53.2372 120.359 53.3935 121.131 53.3935 122.068V129H51.7173V122.182C51.7173 121.315 51.4924 120.645 51.0426 120.172C50.5975 119.694 49.9796 119.455 49.1889 119.455C48.6397 119.455 48.1473 119.571 47.7116 119.803C47.2808 120.035 46.9399 120.373 46.6889 120.818C46.4427 121.263 46.3196 121.803 46.3196 122.438ZM63.3349 124.54V118.091H65.011V129H63.3349V127.153H63.2212C62.9656 127.707 62.5678 128.179 62.0281 128.567C61.4883 128.95 60.8065 129.142 59.9826 129.142C59.3008 129.142 58.6947 128.993 58.1644 128.695C57.6341 128.392 57.2174 127.937 56.9144 127.331C56.6114 126.72 56.4599 125.951 56.4599 125.023V118.091H58.136V124.909C58.136 125.705 58.3585 126.339 58.8036 126.812C59.2534 127.286 59.8263 127.523 60.5224 127.523C60.939 127.523 61.3628 127.416 61.7937 127.203C62.2293 126.99 62.5939 126.663 62.8874 126.223C63.1857 125.783 63.3349 125.222 63.3349 124.54ZM75.8082 120.534L74.3026 120.96C74.2079 120.709 74.0682 120.465 73.8835 120.229C73.7036 119.987 73.4574 119.788 73.1449 119.632C72.8324 119.476 72.4323 119.398 71.9446 119.398C71.277 119.398 70.7206 119.552 70.2756 119.859C69.8352 120.162 69.6151 120.548 69.6151 121.017C69.6151 121.434 69.7666 121.763 70.0696 122.004C70.3726 122.246 70.8461 122.447 71.4901 122.608L73.1094 123.006C74.0848 123.242 74.8116 123.605 75.2898 124.092C75.768 124.575 76.0071 125.198 76.0071 125.96C76.0071 126.585 75.8272 127.144 75.4673 127.636C75.1122 128.129 74.6151 128.517 73.9759 128.801C73.3366 129.085 72.5933 129.227 71.7457 129.227C70.633 129.227 69.7121 128.986 68.983 128.503C68.2538 128.02 67.7921 127.314 67.598 126.386L69.1889 125.989C69.3404 126.576 69.6269 127.016 70.0483 127.31C70.4744 127.603 71.0308 127.75 71.7173 127.75C72.4986 127.75 73.1188 127.584 73.5781 127.253C74.0421 126.917 74.2741 126.514 74.2741 126.045C74.2741 125.667 74.1416 125.349 73.8764 125.094C73.6113 124.833 73.2041 124.639 72.6548 124.511L70.8366 124.085C69.8376 123.848 69.1037 123.482 68.6349 122.984C68.1709 122.482 67.9389 121.855 67.9389 121.102C67.9389 120.487 68.1117 119.942 68.4574 119.469C68.8078 118.995 69.2836 118.624 69.8849 118.354C70.491 118.084 71.1776 117.949 71.9446 117.949C73.0241 117.949 73.8717 118.186 74.4872 118.659C75.1075 119.133 75.5478 119.758 75.8082 120.534ZM80.2063 114.455V129H78.5302V114.455H80.2063ZM86.8558 122.864C86.8558 124.653 86.6214 126.301 86.1527 127.807C85.6887 129.308 85.0234 130.69 84.157 131.955H82.6797C83.0206 131.486 83.3378 130.908 83.6314 130.222C83.9297 129.54 84.1901 128.792 84.4126 127.977C84.6352 127.158 84.808 126.313 84.9311 125.442C85.0589 124.566 85.1229 123.706 85.1229 122.864C85.1229 121.737 85.014 120.593 84.7962 119.433C84.5784 118.273 84.2848 117.196 83.9155 116.202C83.5462 115.207 83.1342 114.398 82.6797 113.773H84.157C85.0234 115.037 85.6887 116.422 86.1527 117.928C86.6214 119.429 86.8558 121.074 86.8558 122.864Z" fill="#048078"/>
<rect x="22.5" y="1.5" width="45" height="30" rx="8.5" fill="#00A096" stroke="white" stroke-width="3"/>
<path d="M39.0702 25.2898C37.7236 25.2841 36.5731 24.929 35.6185 24.2244C34.664 23.5199 33.9338 22.4943 33.4282 21.1477C32.9225 19.8011 32.6696 18.179 32.6696 16.2812C32.6696 14.3892 32.9225 12.7727 33.4282 11.4318C33.9395 10.0909 34.6725 9.06818 35.627 8.36364C36.5873 7.65909 37.735 7.30682 39.0702 7.30682C40.4054 7.30682 41.5503 7.66193 42.5049 8.37216C43.4594 9.0767 44.1895 10.0994 44.6952 11.4403C45.2066 12.7756 45.4623 14.3892 45.4623 16.2812C45.4623 18.1847 45.2094 19.8097 44.7037 21.1562C44.1981 22.4972 43.4679 23.5227 42.5134 24.233C41.5589 24.9375 40.4111 25.2898 39.0702 25.2898ZM39.0702 23.0142C40.252 23.0142 41.1753 22.4375 41.8401 21.2841C42.5106 20.1307 42.8458 18.4631 42.8458 16.2812C42.8458 14.8324 42.6924 13.608 42.3856 12.608C42.0844 11.6023 41.6498 10.8409 41.0816 10.3239C40.5191 9.80114 39.8486 9.53977 39.0702 9.53977C37.8941 9.53977 36.9708 10.1193 36.3003 11.2784C35.6299 12.4375 35.2918 14.1051 35.2861 16.2812C35.2861 17.7358 35.4367 18.9659 35.7378 19.9716C36.0446 20.9716 36.4793 21.7301 37.0418 22.2472C37.6043 22.7585 38.2804 23.0142 39.0702 23.0142ZM46.5657 25V23.0909L52.4719 16.9716C53.1026 16.3068 53.6225 15.7244 54.0316 15.2244C54.4464 14.7187 54.756 14.2386 54.9606 13.7841C55.1651 13.3295 55.2674 12.8466 55.2674 12.3352C55.2674 11.7557 55.131 11.2557 54.8583 10.8352C54.5856 10.4091 54.2134 10.0824 53.7418 9.85511C53.2702 9.62216 52.739 9.50568 52.1481 9.50568C51.5231 9.50568 50.9776 9.63352 50.5117 9.8892C50.0458 10.1449 49.6879 10.5057 49.4379 10.9716C49.1879 11.4375 49.0629 11.983 49.0629 12.608H46.5487C46.5487 11.5455 46.793 10.6165 47.2816 9.82102C47.7702 9.02557 48.4407 8.40909 49.293 7.97159C50.1452 7.52841 51.114 7.30682 52.1992 7.30682C53.2958 7.30682 54.2617 7.52557 55.0969 7.96307C55.9379 8.39489 56.5941 8.98579 57.0657 9.73579C57.5373 10.4801 57.7731 11.321 57.7731 12.2585C57.7731 12.9062 57.6509 13.5398 57.4066 14.1591C57.168 14.7784 56.7504 15.4687 56.1538 16.2301C55.5572 16.9858 54.7276 17.9034 53.6651 18.983L50.1964 22.6136V22.7415H58.0543V25H46.5657Z" fill="white"/>
<path opacity="0.7" d="M296.321 181.094C283.937 181.409 278.456 189.092 302.082 189.092C321.033 189.092 323.371 180.405 296.321 181.094Z" fill="#51D7E5"/>
<path opacity="0.7" d="M244.767 172.771C226.503 174.564 218.692 185.348 267.26 185.695C319.724 186.07 317.033 176.198 293.446 172.903C281.066 171.175 260.614 171.216 244.767 172.771Z" fill="#51D7E5"/>
<path opacity="0.8" d="M254.066 174.884C268.225 170.503 307.194 174.68 297.582 181.135C287.97 187.59 224.791 183.941 254.066 174.884Z" fill="#87F8FF"/>
<path opacity="0.7" d="M224.723 181.062C210.961 180.407 203.959 186.842 221.146 187.898C237.899 188.928 240.477 181.812 224.723 181.062Z" fill="#51D7E5"/>
<path opacity="0.7" d="M218.528 177.887C222.849 176.108 230.983 177.68 228.936 179.106C226.889 180.531 214.208 179.666 218.528 177.887Z" fill="#51D7E5"/>
<path opacity="0.7" d="M274.505 186.959C269.271 186.866 261.747 190.457 273.458 190.824C285.17 191.191 286.499 187.171 274.505 186.959Z" fill="#51D7E5"/>
<path opacity="0.7" d="M315.185 178.141C311.242 178.141 311.451 180.649 315.541 180.649C325.344 180.649 319.86 178.141 315.185 178.141Z" fill="#51D7E5"/>
<path opacity="0.8" d="M292.17 182.369C304.911 180.007 313.082 186.29 302.184 187.78C291.448 189.246 278.395 184.924 292.17 182.369Z" fill="#87F8FF"/>
<path opacity="0.8" d="M227.831 182.157C215.767 181.564 211.55 185.333 222.585 186.628C233.619 187.923 240.558 182.782 227.831 182.157Z" fill="#87F8FF"/>
<path opacity="0.8" d="M302.216 176.465C307.361 176.443 308.403 178.921 305.57 179.276C297.762 180.255 294.542 176.498 302.216 176.465Z" fill="#87F8FF"/>
<path d="M295.931 173.437C300.438 172.695 296.057 165.743 293.7 170.556C296.752 166.218 289.245 163.373 287.972 168.454C288.917 166.685 284.441 165.927 284.441 169.046C283.436 163.888 275.103 168.792 280.34 171.403C277.674 171.943 278.787 174.149 281.41 174.46C280.736 175.734 284.991 177.425 285.734 174.148C285.329 175.665 288.383 175.363 288.375 174.434C288.841 177.354 297.419 177.692 295.933 173.437" fill="#B1EFEF"/>
<path d="M295.931 173.437C300.438 172.695 296.057 165.743 293.7 170.556C296.752 166.218 289.245 163.373 287.972 168.454C288.917 166.685 284.441 165.927 284.441 169.046C283.436 163.888 275.103 168.792 280.34 171.403C277.674 171.943 278.787 174.149 281.41 174.46C280.736 175.734 284.991 177.425 285.734 174.148C285.329 175.665 288.383 175.363 288.375 174.434C288.841 177.354 297.419 177.692 295.933 173.437" stroke="#55A4B7" stroke-width="0.5" stroke-linecap="round" stroke-linejoin="round"/>
<path d="M291.217 166.274C292.873 166.682 293.131 170.655 290.119 170.699C287.108 170.743 288.613 165.633 291.217 166.274Z" fill="#E9FFFE"/>
<path d="M286.624 167.518C288.023 167.387 288.585 169.221 287.801 169.764C289.935 169.741 289.072 172.874 287.391 172.266C286.537 173.574 285.34 172.355 285.895 171.396C284.229 170.961 284.845 167.686 286.625 167.518H286.624Z" fill="#E9FFFE"/>
<path d="M282.534 167.52C284.707 167.295 285.104 169.522 283.362 170.22C281.619 170.919 279.716 167.812 282.534 167.52Z" fill="#E9FFFE"/>
<path d="M292.856 168.083C294.208 168.289 293.885 169.995 292.856 170.001C291.826 170.005 290.852 167.778 292.856 168.083Z" fill="#E9FFFE"/>
<path d="M295.778 169.44C297.855 170.305 296.867 172.225 295.08 171.943C293.294 171.661 293.687 168.567 295.778 169.44Z" fill="#E9FFFE"/>
<path d="M291.441 170.002C294.769 169.436 294.465 173.009 292.025 173.139C289.585 173.27 288.575 170.49 291.441 170.002Z" fill="#E9FFFE"/>
<path d="M253.512 87.9296C249.309 88.7275 251.09 82.4442 253.688 83.9693C253.48 82.4433 255.272 82.1987 255.272 82.1987C253.851 80.4626 255.619 78.5852 256.861 79.614C254.645 77.1978 259.637 73.9764 260.966 77.6868C262.238 76.4923 264.15 78.8596 262.755 80.0596C264.756 79.211 266.156 82.7385 263.662 83.3036" fill="#B1EFEF"/>
<path d="M253.512 87.9296C249.309 88.7275 251.09 82.4442 253.688 83.9693C253.48 82.4433 255.272 82.1987 255.272 82.1987C253.851 80.4626 255.619 78.5852 256.861 79.614C254.645 77.1978 259.637 73.9764 260.966 77.6868C262.238 76.4923 264.15 78.8596 262.755 80.0596C264.756 79.211 266.156 82.7385 263.662 83.3036" stroke="#55A4B7" stroke-width="0.5" stroke-linecap="round" stroke-linejoin="round"/>
<path d="M261.611 100.264C263.707 103.271 256.662 106 255.916 101.981C254.105 105.968 249.17 102.468 252.102 99.9069C250.566 99.6066 250.975 97.2229 252.285 97.4157C249.563 95.4973 251.641 92.4528 254.094 93.0848" fill="#B1EFEF"/>
<path d="M261.611 100.264C263.707 103.271 256.662 106 255.916 101.981C254.105 105.968 249.17 102.468 252.102 99.9069C250.566 99.6066 250.975 97.2229 252.285 97.4157C249.563 95.4973 251.641 92.4528 254.094 93.0848" stroke="#55A4B7" stroke-width="0.5" stroke-linecap="round" stroke-linejoin="round"/>
<path d="M255.292 96.3726C253.751 95.1612 253.073 97.211 253.693 98.1538C252.266 97.912 253.235 102.032 254.83 101.368C255.253 102.642 259.029 102.032 257.727 99.1514" fill="#E9FFFE"/>
<path d="M286.023 165C285.7 162.95 288.745 159.383 290.534 161.823C292.321 164.262 288.556 164.522 286.023 165Z" fill="#3DDEE2" stroke="#119696" stroke-width="0.5" stroke-linecap="round" stroke-linejoin="round"/>
<path d="M239.29 174.228C234.469 173.472 241.889 166.05 243.28 172.283C238.937 168.444 247.052 162.544 248.53 168.444C247.433 166.389 252.63 165.51 252.63 169.13C253.796 163.142 263.471 168.835 257.391 171.867C260.485 172.495 259.194 175.055 256.149 175.416C256.932 176.894 251.992 178.858 251.129 175.054C251.599 176.817 248.054 176.464 248.062 175.386C247.522 178.777 237.563 179.168 239.289 174.228" fill="#B1EFEF"/>
<path d="M239.29 174.228C234.469 173.472 241.889 166.05 243.28 172.283C238.937 168.444 247.052 162.544 248.53 168.444C247.433 166.389 252.63 165.51 252.63 169.13C253.796 163.142 263.471 168.835 257.391 171.867C260.485 172.495 259.194 175.055 256.149 175.416C256.932 176.894 251.992 178.858 251.129 175.054C251.599 176.817 248.054 176.464 248.062 175.386C247.522 178.777 237.563 179.168 239.289 174.228" stroke="#55A4B7" stroke-width="0.5" stroke-linecap="round" stroke-linejoin="round"/>
<path d="M242.124 170.539C241.187 169.281 239.007 170.285 239.088 171.966C239.169 173.646 240.981 174.108 241.887 173.547C239.91 175.005 242.01 176.584 244.152 176.206C246.293 175.828 245.263 173.8 244.687 173.414C247.241 173.975 247.241 172.384 246.499 171.944C249.093 171.093 248.435 167.798 246.334 166.893C244.234 165.987 241.867 168.916 242.124 170.54V170.539Z" fill="#E9FFFE"/>
<path d="M248.187 168.954C248.683 167.354 249.955 167.008 251.026 168.326C252.097 169.644 250.494 170.688 249.607 170.743C248.72 170.797 248.067 169.345 248.188 168.954H248.187Z" fill="#E9FFFE"/>
<path d="M248.19 171.936C249.272 171.547 249.413 173.144 248.532 173.185C247.652 173.226 247.081 172.334 248.19 171.936Z" fill="#E9FFFE"/>
<path d="M252.788 169.772C254.031 169.899 253.549 171.819 252.433 171.619C251.317 171.419 251.584 169.648 252.788 169.772Z" fill="#E9FFFE"/>
<path d="M281.889 112.778C283.127 112.145 283.186 111.187 282.759 110.419C280.124 105.678 278.562 114.481 281.889 112.778Z" fill="#3DDEE2" stroke="#119696" stroke-width="0.5" stroke-linecap="round" stroke-linejoin="round"/>
<path d="M301.48 176.634C300.111 175.432 301.962 173.317 303.308 174.217C305.118 175.429 302.968 177.938 301.48 176.634Z" fill="#B1EFEF" stroke="#55A4B7" stroke-width="0.5" stroke-linecap="round" stroke-linejoin="round"/>
<path d="M255.999 166C255.589 162.491 253.087 158.457 250.544 160.598C248.295 162.491 253.58 163.986 255.999 166Z" fill="#3DDEE2" stroke="#119696" stroke-width="0.5" stroke-linecap="round" stroke-linejoin="round"/>
<path d="M310.722 17.1174C309.142 20.0575 306.75 24.5043 306.284 25.3385C306.292 25.6299 309.936 31.5037 308.014 33.6133C306.093 35.723 291.987 27.3751 292.656 24.7568C293.325 22.1403 298.901 22.0275 301.611 22.5038C301.833 22.1283 303.891 19.5396 305.834 17.1183" fill="#9B8E86"/>
<path d="M310.722 17.1174C309.142 20.0575 306.75 24.5043 306.284 25.3385C306.292 25.6299 309.936 31.5037 308.014 33.6133C306.093 35.723 291.987 27.3751 292.656 24.7568C293.325 22.1403 298.901 22.0275 301.611 22.5038C301.833 22.1283 303.891 19.5396 305.834 17.1183" stroke="#60524A" stroke-width="0.5" stroke-linecap="round" stroke-linejoin="round"/>
<path d="M308.798 17C306.847 19.9716 304.372 24.0716 304.467 24.3055C304.618 24.6746 305.293 26.4549 304.881 28.2177C305.747 30.2839 307.667 32.0162 307.667 32.0162C308.382 30.4254 306.274 26.6704 305.596 25.1333C306.045 24.0901 308.557 19.8467 310.163 17.0009" fill="#7F7169"/>
<path d="M291.83 24.4867C296.591 20.7299 310.133 29.1832 308.116 34.6742C304.247 40.1513 287.653 30.8767 291.83 24.4867Z" fill="#D1C4BD" stroke="#60524A" stroke-width="0.5" stroke-linecap="round" stroke-linejoin="round"/>
<path d="M302.217 27.6513C297.949 23.8853 293.579 23.3692 292.001 24.7232C290.421 26.0772 293.29 30.3205 294.805 31.3249C292.446 28.9203 291.773 25.8497 292.653 25.1348C294.031 24.0129 298.897 25.5297 302.218 27.6523L302.217 27.6513Z" fill="#EFD9D0"/>
<path d="M292.87 25.4743C295.32 23.558 307.761 30.1523 306.754 34.1598C304.169 37.727 290.235 30.3835 292.87 25.4743Z" fill="#A5958E" stroke="#60524A" stroke-width="0.5" stroke-linecap="round" stroke-linejoin="round"/>
<path d="M295.215 27.1055C294.001 27.1092 295.086 28.5261 295.566 28.5936C296.71 28.7554 296.347 27.1018 295.215 27.1055C294.992 27.1073 295.678 27.1055 295.215 27.1055Z" fill="#4C3F38"/>
<path d="M298.54 27.6096C297.747 27.8464 298.387 29.1347 299.064 28.9183C300.13 28.5706 299.515 27.3192 298.54 27.6096C298.41 27.6494 299.158 27.4237 298.54 27.6096Z" fill="#4C3F38"/>
<path d="M298.461 30.2751C298.211 30.0652 297.188 30.0772 297.261 30.6118C296.745 31.9223 299.979 31.5635 298.461 30.2751C298.325 30.1595 298.742 30.5147 298.461 30.2751Z" fill="#4C3F38"/>
<path d="M300.638 31.5774C299.928 31.3628 299.789 32.2008 300.288 32.715C301.121 33.5751 302.172 31.7485 300.638 31.5774C300.578 31.5589 301.171 31.6375 300.638 31.5774Z" fill="#4C3F38"/>
<path d="M303.055 31.1975C303.839 30.7193 302.64 29.935 302.262 29.9147C301.39 29.8749 302.033 31.818 303.055 31.1975C303.039 31.2076 303.348 31.0199 303.055 31.1975Z" fill="#4C3F38"/>
<path d="M304.275 32.5733C303.434 32.4522 303.776 33.9625 304.655 33.98C305.78 34.3093 305.208 32.7121 304.275 32.5733C304.13 32.5511 304.858 32.6593 304.275 32.5733Z" fill="#4C3F38"/>
<path d="M292.999 29.0008C290.968 28.9549 288.178 30.851 289.227 32.5581C290.277 34.2626 291.887 30.5978 292.999 29.0008Z" fill="#3DDEE2" stroke="#119696" stroke-width="0.5" stroke-linecap="round" stroke-linejoin="round"/>
<path d="M300.422 97C302.28 97.021 301.983 81.7928 301.98 80C300.856 86.1558 299.217 96.9866 300.422 97Z" fill="#3DDEE2" stroke="#119696" stroke-width="0.5" stroke-linecap="round" stroke-linejoin="round"/>
<path d="M245.333 108.968C243.749 108.111 248.276 98.5157 248.999 97C247.479 102.738 246.361 109.525 245.333 108.968Z" fill="#3DDEE2" stroke="#119696" stroke-width="0.5" stroke-linecap="round" stroke-linejoin="round"/>
<path opacity="0.6" d="M242.568 159.996C240.799 159.632 243.689 144.757 243.999 143C244.012 149.271 243.716 160.235 242.568 159.996Z" fill="#3DDEE2" stroke="#119696" stroke-width="0.5" stroke-linecap="round" stroke-linejoin="round"/>
<path d="M291.904 93.125C291.376 94.1395 290.033 99.832 292.163 98.8966C294.14 98.0299 291.998 93.3263 291.938 92" fill="#3DDEE2"/>
<path d="M291.904 93.125C291.376 94.1395 290.033 99.832 292.163 98.8966C294.14 98.0299 291.998 93.3263 291.938 92" stroke="#119696" stroke-width="0.5" stroke-linecap="round" stroke-linejoin="round"/>
<path d="M279.368 99.471C278.92 95.3837 284.729 96.9542 282.291 99.9472C284.73 98.2233 286.644 102.514 282.868 102.242C286.242 106.432 276.392 107.926 277.588 102.459C273.993 103.456 273.75 96.7613 279.369 99.471H279.368Z" fill="#B1EFEF" stroke="#55A4B7" stroke-width="0.5" stroke-linecap="round" stroke-linejoin="round"/>
<path d="M277.342 138.109C277.477 137.542 277.689 136.026 276.167 136C274.998 135.981 273.553 138.342 274.962 138.741C272.713 138.431 272.284 141.277 274.263 142.533C276.031 143.653 279.232 142.73 277.581 140.063C278.789 141.246 279.546 140.616 279.888 139.61C280.54 137.709 278.133 136.631 277.237 138.318" fill="#B1EFEF"/>
<path d="M277.342 138.109C277.477 137.542 277.689 136.026 276.167 136C274.998 135.981 273.553 138.342 274.962 138.741C272.713 138.431 272.284 141.277 274.263 142.533C276.031 143.653 279.232 142.73 277.581 140.063C278.789 141.246 279.546 140.616 279.888 139.61C280.54 137.709 278.133 136.631 277.237 138.318" stroke="#55A4B7" stroke-width="0.5" stroke-linecap="round" stroke-linejoin="round"/>
<path d="M297.999 31C297.375 31.9899 297.779 37.6127 294.809 36.9451C291.838 36.2776 297.999 31 297.999 31Z" fill="#3DDEE2" stroke="#119696" stroke-width="0.5" stroke-linecap="round" stroke-linejoin="round"/>
<path d="M279.999 38C279.124 38.7356 273.717 49.049 271.247 47.9126C269.246 46.9913 279.999 38 279.999 38Z" fill="#3DDEE2" stroke="#119696" stroke-width="0.5" stroke-linecap="round" stroke-linejoin="round"/>
<path d="M300.976 37C300.936 38.2211 301.499 45.0027 298.783 45C296.621 44.9982 299.457 39.4051 300.976 37Z" fill="#3DDEE2" stroke="#119696" stroke-width="0.5" stroke-linecap="round" stroke-linejoin="round"/>
<path d="M295.999 46C295.974 47.328 294.711 58 293.364 58C292.017 58 294.743 48.3412 295.999 46Z" fill="#3DDEE2" stroke="#119696" stroke-width="0.5" stroke-linecap="round" stroke-linejoin="round"/>
<path opacity="0.6" d="M288.724 117C288.963 118.26 289.514 128.649 287.776 128.991C286.048 129.332 287.58 119.528 288.724 117Z" fill="#3DDEE2" stroke="#119696" stroke-width="0.5" stroke-linecap="round" stroke-linejoin="round"/>
<path d="M287.999 38C287.571 39.149 286.893 43.7415 285.37 42.897C284.158 42.225 286.146 39.419 287.999 38Z" fill="#3DDEE2" stroke="#119696" stroke-width="0.5" stroke-linecap="round" stroke-linejoin="round"/>
<path d="M303.569 51C303.489 52.2811 301.127 62.3432 302.349 62.9562C303.893 63.7304 304.475 54.0217 303.569 51Z" fill="#3DDEE2" stroke="#119696" stroke-width="0.5" stroke-linecap="round" stroke-linejoin="round"/>
<path d="M303.637 70C303.784 71.8677 304.484 73.9594 303.421 73.9997C302.359 74.04 303.637 70 303.637 70Z" fill="#3DDEE2" stroke="#119696" stroke-width="0.5" stroke-linecap="round" stroke-linejoin="round"/>
<path opacity="0.7" d="M297.999 75.0009C297.935 77.0064 297.152 78.6761 296.298 80.3215C295.445 81.967 294.34 80.2087 295.5 79.3636C297.367 78.0036 297.999 75 297.999 75V75.0009Z" fill="#3DDEE2" stroke="#119696" stroke-width="0.5" stroke-linecap="round" stroke-linejoin="round"/>
<path opacity="0.7" d="M288.927 57.338C285.679 55.6687 281.658 55.8919 280.22 56.2642C278.782 56.6365 277.785 56.3291 277.106 57.1578C276.426 57.9874 279.19 58.1182 279.811 58.0478C280.431 57.9765 281.031 59.0174 280.731 59.3906C279.804 60.5458 280.756 61.7779 283.191 59.9787C284.939 58.6881 289.495 58.4567 291.733 59.9869C293.97 61.5172 295.198 62.6944 294.973 61.5272C294.748 60.3601 291.181 58.2271 288.926 57.338H288.927Z" fill="#3DDEE2" stroke="#119696" stroke-width="0.5" stroke-linecap="round" stroke-linejoin="round"/>
<path d="M297.999 62C297.397 63.7504 298.306 67.0363 296.53 66.9997C294.755 66.9639 297.999 62 297.999 62Z" fill="#3DDEE2" stroke="#119696" stroke-width="0.5" stroke-linecap="round" stroke-linejoin="round"/>
<path opacity="0.6" d="M301.483 144C302.24 146.266 304.113 148.668 302.087 148.986C300.063 149.305 301.483 144 301.483 144Z" fill="#3DDEE2" stroke="#119696" stroke-width="0.5" stroke-linecap="round" stroke-linejoin="round"/>
<path opacity="0.6" d="M293.727 136C293.573 138.464 294.595 142.726 293.445 142.993C292.297 143.26 293.727 136 293.727 136Z" fill="#3DDEE2" stroke="#119696" stroke-width="0.5" stroke-linecap="round" stroke-linejoin="round"/>
<path opacity="0.8" d="M272.999 51C272.332 52.535 268.223 61.0433 266.571 60.9998C265.583 60.9741 265.885 58.9321 267.395 57.5878C268.904 56.2436 271.919 51.5931 272.998 51H272.999Z" fill="#3DDEE2" stroke="#119696" stroke-width="0.5" stroke-linecap="round" stroke-linejoin="round"/>
<path d="M259.999 66C258.174 68.4696 255.214 70.2217 256.193 71.8716C256.772 72.8488 259.273 67.9916 259.999 66Z" fill="#3DDEE2" stroke="#119696" stroke-width="0.5" stroke-linecap="round" stroke-linejoin="round"/>
<path d="M272.999 60C270.771 61.8506 268.169 62.5604 269.253 63.8774C269.895 64.6575 272.075 61.5197 272.999 60Z" fill="#3DDEE2" stroke="#119696" stroke-width="0.5" stroke-linecap="round" stroke-linejoin="round"/>
<path d="M281.999 79C281.552 83.0056 281.135 86.4463 280.165 85.9527C279.392 85.5589 281.543 82.8173 281.999 79Z" fill="#3DDEE2" stroke="#119696" stroke-width="0.5" stroke-linecap="round" stroke-linejoin="round"/>
<path opacity="0.6" d="M293.957 72.0009C294.157 72.732 293.634 76.8858 292.663 78.7842C291.693 80.6825 289.996 82.5285 289.208 81.8604C288.354 81.1356 290.28 80.48 292.023 77.4028C292.993 75.6919 293.957 72 293.957 72V72.0009Z" fill="#3DDEE2" stroke="#119696" stroke-width="0.5" stroke-linecap="round" stroke-linejoin="round"/>
<path d="M259.138 76C261.942 76.0032 261.439 79.4525 258.558 78.95C255.678 78.4475 257.338 75.9984 259.138 76Z" fill="#E9FFFE"/>
<path d="M261.59 77.3572C262.425 78.2048 261.826 79.5514 261.175 79.3447C262.08 80.1089 261.042 81.5757 260.048 80.7608C259.054 79.9459 259.726 79.0297 260.06 78.975C259.011 78.7057 258.572 77.2389 259.527 77.0282C260.481 76.8176 260.528 77.855 260.528 77.855C260.528 77.855 261.255 77.0173 261.589 77.3562L261.59 77.3572Z" fill="#E9FFFE"/>
<path d="M256.999 79.0128C258.347 79.2083 258.317 81.0467 256.999 80.9991C255.681 80.9515 255.651 78.8164 256.999 79.0128Z" fill="#E9FFFE"/>
<path d="M254.999 82.0196C256.254 82.273 256.408 83.9454 254.999 83.9991C253.59 84.0527 253.744 81.7662 254.999 82.0196Z" fill="#E9FFFE"/>
<path d="M252.097 94.0004C253.24 94.0267 253.358 97.4454 252.097 96.9512C250.837 96.4569 250.442 93.9628 252.097 94.0004Z" fill="#E9FFFE"/>
<path d="M252.27 97.1746C253.682 97.958 252.781 100.415 251.777 99.9393C250.773 99.4633 250.549 96.2208 252.27 97.1746Z" fill="#E9FFFE"/>
<path d="M252.96 100.11C254.958 100.861 253.761 103.198 252.004 102.987C250.249 102.775 250.935 99.3491 252.96 100.11Z" fill="#E9FFFE"/>
<path d="M279.629 99.3901C278.481 97.9575 280.473 96.0193 281.613 97.5755C282.753 99.1316 281.081 100.616 280.289 100.545C281.786 100.529 282.178 101.64 281.245 102.622C280.311 103.603 279.689 102.428 279.644 101.87C278.989 103.716 276.327 102.877 276.031 101.2C275.735 99.523 277.565 98.9122 278.658 100.168C279.009 99.6517 279.628 99.3901 279.628 99.3901H279.629Z" fill="#E9FFFE"/>
<path d="M279.341 103.047C280.279 103.284 280.287 105.156 278.89 104.99C277.494 104.823 277.809 102.658 279.341 103.047Z" fill="#E9FFFE"/>
<path d="M270.059 177.559C268.973 176.214 271.318 174.418 272.724 175.183C274.13 175.948 274.183 177.089 273.557 177.742C276.09 177.07 274.871 180.922 273.074 179.568C272.202 182.98 266.739 179.469 270.058 177.56L270.059 177.559Z" fill="#B1EFEF" stroke="#55A4B7" stroke-width="0.5" stroke-linecap="round" stroke-linejoin="round"/>
<path d="M271.821 176.078C273.16 176.647 273.521 177.711 272.039 178.235C273.162 177.998 272.815 179.524 271.641 179.038C271.499 180.179 269.853 180.269 269.194 179.499C268.536 178.729 269.703 177.598 270.332 177.693C269.362 176.94 270.873 175.675 271.821 176.077V176.078Z" fill="#E9FFFE"/>
<path d="M302.379 174.009C303.775 174.177 302.519 176.274 301.503 175.97C300.487 175.665 301.123 173.859 302.379 174.009Z" fill="#E9FFFE"/>
<path opacity="0.4" d="M287.248 144.688C291.113 146.475 289.759 154.781 283.684 152.773C277.609 150.765 282.287 142.393 287.248 144.688Z" fill="#3DDEE2"/>
<path d="M285.896 143.458C291.97 144.684 290.986 153.513 284.691 153.272C277.463 152.993 278.778 142.021 285.896 143.458ZM284.469 152.488C288.848 153.62 290.521 147.949 287.494 146.2C282.876 143.532 279.784 151.277 284.469 152.488Z" fill="#7AEAE7"/>
<path d="M285.897 143.983C280.928 142.577 279.372 147.448 281.179 150.559C281.028 147.598 283.488 144.335 285.897 143.983Z" fill="#E9FFFE"/>
<g opacity="0.5">
<path opacity="0.4" d="M294.238 127.349C297.316 128.773 296.236 135.385 291.4 133.786C286.564 132.187 290.289 125.523 294.238 127.349Z" fill="#3DDEE2"/>
<path d="M293.159 126.373C297.996 127.35 297.211 134.379 292.2 134.186C286.446 133.965 287.493 125.228 293.159 126.373ZM292.023 133.563C295.51 134.465 296.841 129.949 294.432 128.557C290.755 126.432 288.294 132.598 292.023 133.563Z" fill="#7AEAE7"/>
<path d="M293.155 126.792C289.199 125.673 287.959 129.55 289.398 132.028C289.278 129.67 291.237 127.072 293.155 126.792Z" fill="#E9FFFE"/>
</g>
<path opacity="0.4" d="M244.776 136.586C247.612 137.898 246.618 143.991 242.162 142.519C237.706 141.045 241.137 134.903 244.776 136.586Z" fill="#3DDEE2"/>
<path d="M243.785 135.689C248.242 136.589 247.519 143.067 242.9 142.889C237.597 142.686 238.563 134.635 243.785 135.689ZM242.737 142.315C245.949 143.145 247.177 138.984 244.956 137.701C241.568 135.743 239.3 141.427 242.737 142.315Z" fill="#7AEAE7"/>
<path d="M243.784 136.073C240.138 135.042 238.996 138.615 240.322 140.898C240.211 138.726 242.017 136.331 243.784 136.073Z" fill="#E9FFFE"/>
<path opacity="0.4" d="M247.42 139.993C249.222 140.826 248.59 144.695 245.76 143.76C242.93 142.824 245.109 138.923 247.42 139.993Z" fill="#3DDEE2"/>
<path d="M246.785 139.42C249.615 139.992 249.157 144.105 246.224 143.993C242.857 143.863 243.47 138.749 246.785 139.42ZM246.12 143.628C248.161 144.155 248.94 141.513 247.53 140.698C245.378 139.455 243.938 143.064 246.12 143.628Z" fill="#7AEAE7"/>
<path d="M246.784 139.663C244.468 139.008 243.743 141.277 244.585 142.727C244.515 141.347 245.66 139.826 246.784 139.663Z" fill="#E9FFFE"/>
<g opacity="0.5">
<path opacity="0.4" d="M250.628 112.76C252.824 113.775 252.054 118.495 248.603 117.353C245.152 116.212 247.81 111.455 250.628 112.76Z" fill="#3DDEE2"/>
<path d="M249.857 112.058C253.309 112.755 252.749 117.773 249.173 117.635C245.065 117.477 245.813 111.241 249.857 112.058ZM249.046 117.189C251.534 117.833 252.485 114.61 250.765 113.616C248.14 112.1 246.384 116.501 249.046 117.189Z" fill="#7AEAE7"/>
<path d="M249.858 112.356C247.035 111.558 246.15 114.325 247.177 116.093C247.092 114.41 248.49 112.556 249.858 112.356Z" fill="#E9FFFE"/>
</g>
<path opacity="0.4" d="M298.212 159.49C300.947 160.755 299.988 166.632 295.69 165.211C291.392 163.791 294.702 157.867 298.212 159.49Z" fill="#3DDEE2"/>
<path d="M297.254 158.623C301.552 159.492 300.856 165.738 296.402 165.567C291.287 165.37 292.219 157.606 297.254 158.623ZM296.245 165.013C299.343 165.814 300.527 161.801 298.386 160.563C295.118 158.676 292.931 164.156 296.245 165.013Z" fill="#7AEAE7"/>
<path d="M297.257 158.993C293.74 157.997 292.639 161.444 293.918 163.646C293.812 161.55 295.552 159.241 297.257 158.993Z" fill="#E9FFFE"/>
<path opacity="0.4" d="M284.381 157.83C285.814 158.493 285.312 161.574 283.059 160.829C280.806 160.085 282.541 156.979 284.381 157.83Z" fill="#3DDEE2"/>
<path d="M283.879 157.376C286.132 157.831 285.767 161.106 283.432 161.016C280.751 160.914 281.239 156.843 283.879 157.376ZM283.35 160.726C284.974 161.146 285.595 159.043 284.473 158.394C282.76 157.404 281.613 160.277 283.35 160.726Z" fill="#7AEAE7"/>
<path d="M283.882 157.573C282.039 157.051 281.461 158.857 282.132 160.012C282.076 158.913 282.988 157.703 283.882 157.573Z" fill="#E9FFFE"/>
<path opacity="0.4" d="M282.849 159.576C284.853 160.502 284.15 164.808 281.001 163.767C277.852 162.727 280.277 158.386 282.849 159.576Z" fill="#3DDEE2"/>
<path d="M282.146 158.938C285.294 159.575 284.785 164.152 281.522 164.026C277.774 163.882 278.457 158.193 282.146 158.938ZM281.406 163.62C283.676 164.207 284.543 161.267 282.975 160.36C280.58 158.977 278.978 162.992 281.406 163.62Z" fill="#7AEAE7"/>
<path d="M282.147 159.211C279.571 158.482 278.764 161.007 279.701 162.62C279.623 161.085 280.898 159.393 282.147 159.211Z" fill="#E9FFFE"/>
<path opacity="0.7" d="M263.279 96.5175C264.45 97.3889 266.524 98.7994 267.101 99.6387C267.677 100.478 268.257 102.674 267.877 102.978C267.498 103.282 266.236 100.324 265.219 99.7663C264.202 99.2088 264.729 102.594 264.07 102.383C263.411 102.171 264.227 99.7927 263.586 98.3569C262.946 96.9211 262.219 96.7515 261.799 96.6862C261.285 96.6072 261.597 95.6744 261.126 95.1831C260.656 94.6918 261.516 95.2065 263.279 96.5185V96.5175Z" fill="#3DDEE2" stroke="#119696" stroke-width="0.5" stroke-linecap="round" stroke-linejoin="round"/>
<path opacity="0.7" d="M280.619 90.2802C281.556 90.9788 283.513 92.4617 284.346 93.9894C285.179 95.517 285.111 97.5432 284.719 98.7288C284.326 99.9145 284.74 96.8633 284.071 96.2752C283.4 95.687 283.022 96.8205 282 96.2752C280.978 95.7298 282.075 93.2823 281.015 91.8746C279.955 90.4668 279.568 89.4949 280.62 90.2802H280.619Z" fill="#3DDEE2" stroke="#119696" stroke-width="0.5" stroke-linecap="round" stroke-linejoin="round"/>
<path d="M276.296 136.009C277.469 136.118 277.074 138.21 275.85 137.983C274.627 137.756 274.677 135.858 276.296 136.009Z" fill="#E9FFFE"/>
<path d="M274.867 138.017C276.078 137.756 276.478 140.589 275.263 140.967C274.047 141.345 273.346 138.345 274.867 138.017Z" fill="#E9FFFE"/>
<path d="M275.604 127.612C273.463 125.694 271.823 107.182 271.017 104.875C270.211 102.554 265.138 102.623 264.332 106.404C260.761 123.262 266.209 133.56 264.388 140.843" fill="#FAA181"/>
<path d="M275.604 127.612C273.463 125.694 271.823 107.182 271.017 104.875C270.211 102.554 265.138 102.623 264.332 106.404C260.761 123.262 266.209 133.56 264.388 140.843" stroke="#A54A2F" stroke-width="0.5" stroke-linecap="round" stroke-linejoin="round"/>
<path d="M263.567 106.528C265.735 97.0078 279.161 83.3183 283.775 78.051L288.542 83.1238C285.943 86.7233 279.216 105.847 271.961 110.086" fill="#FAA181"/>
<path d="M263.567 106.528C265.735 97.0078 279.161 83.3183 283.775 78.051L288.542 83.1238C285.943 86.7233 279.216 105.847 271.961 110.086" stroke="#A54A2F" stroke-width="0.5" stroke-linecap="round" stroke-linejoin="round"/>
<path d="M285.266 84.2092C284.112 86.1271 277.191 99.9694 273.8 102.971C270.409 105.973 266.559 106.001 266.114 105.362C265.072 103.847 265.808 101.081 271.632 93.09C277.455 85.0987 282.069 80.9015 282.806 80.0676C283.542 79.2337 286.058 82.9028 285.266 84.2092Z" fill="#FFC599"/>
<path d="M266.236 101.927C265.166 103.776 263.637 107.292 263.207 115.728C262.762 124.164 263.929 129.626 263.929 131.085C263.929 132.558 270.378 135.254 269.725 133.059C265.722 119.8 270.559 107.139 270.017 104.818" fill="#FFC599"/>
<path d="M252.45 176.936H283.387C283.095 172.155 280.954 167.333 282.775 164.122C285.082 160.036 293.893 152.809 293.991 145.944C294.046 141.955 287.417 138.564 285.944 136.563C284.999 135.284 287.334 131.393 288.445 129.85L279.106 128.947C279.189 129.336 278.411 130.851 277.563 131.212C276.716 131.587 274.867 130.781 272.921 129.836L261.998 134.075C261.345 135.673 258.871 142.692 258.065 146.069C256.439 153.101 252.158 170.849 252.172 176.964C252.269 176.964 252.353 176.964 252.45 176.964V176.936Z" fill="#FAA181"/>
<path d="M252.172 176.464C253.826 161.982 256.772 147.931 262.442 134.853" stroke="#A54A2F" stroke-width="0.5" stroke-linecap="round" stroke-linejoin="round"/>
<path d="M259.637 176.935H269.379C272.075 176.504 274.897 175.726 277.718 174.517C277.829 171.598 276.342 169.069 276.662 166.039C274.466 166.678 272.27 167.109 270.491 166.956C268.448 166.789 260.429 155.338 258.761 152.628C258.136 153.795 257.413 157.672 256.677 159.966C255.94 162.273 253.758 170.222 254.231 174.934C255.593 175.837 257.455 176.518 259.637 176.935Z" fill="#FFC599"/>
<path d="M282.374 137.478C283.861 139.799 290.907 142.453 291.268 145.664C291.505 147.651 285.445 143.815 271.172 151.821C268.754 153.169 262.931 153.044 261.721 149.972C261.096 148.388 261.027 141.606 261.582 139.938C263.834 133.183 267.809 129.209 269.504 130.988C271.645 132.975 277.218 134.337 278.774 131.404C280.331 128.472 284.055 125.387 282.721 127.61C281.387 129.834 280.956 135.268 282.374 137.464V137.478Z" fill="#FFC599"/>
<path d="M263.247 173.666C264.664 173.889 263.789 175.515 262.732 175.626C261.676 175.737 259.147 173.041 263.247 173.666Z" fill="#FAA181"/>
<path d="M262.889 173.833C264.099 173.875 263.932 174.917 262.848 174.931C261.764 174.945 260.61 173.736 262.889 173.833Z" fill="#DD8266"/>
<path d="M275.036 107.373C274.258 106.928 273.855 103.607 271.256 104.093C269.658 104.399 267.99 110.014 270.964 112.084C272.201 112.946 273.869 111.376 273.91 111.32" fill="#FAA181"/>
<path d="M275.036 107.373C274.258 106.928 273.855 103.607 271.256 104.093C269.658 104.399 267.99 110.014 270.964 112.084C272.201 112.946 273.869 111.376 273.91 111.32" stroke="#A54A2F" stroke-width="0.5" stroke-linecap="round" stroke-linejoin="round"/>
<path d="M272.714 109.348C273.521 107.249 272.033 105.581 271.325 104.984C271.853 106.804 270.852 110.473 270.407 111.015" fill="#FAA181"/>
<path d="M286.572 134.364C290.45 134.364 294.202 133.572 297.413 132.071C300.846 130.472 303.514 128.124 305.14 125.289C307.253 121.606 308.364 117.964 308.434 114.448C308.503 111.279 307.739 108.305 306.155 105.581C304.431 102.593 301.777 100.064 298.511 98.2571C295.412 96.5477 291.909 95.6026 288.629 95.6026C286.156 95.6026 283.904 96.1168 281.958 97.1175C275.996 99.7303 272.577 105.748 270.923 108.639C270.645 109.139 270.423 109.528 270.256 109.765C267.727 113.545 266.893 117.978 267.908 122.259C268.825 126.15 271.243 129.611 274.203 131.292C277.692 133.28 282.083 134.364 286.545 134.364H286.572Z" fill="#FAA181"/>
<path d="M288.638 95.8132C286.29 95.8132 284.024 96.2858 282.051 97.3003C275.088 100.344 271.544 108.224 270.432 109.878C264.762 118.356 268.834 127.987 274.31 131.1C277.909 133.143 282.245 134.144 286.554 134.144C294.1 134.144 301.564 131.072 304.955 125.18C314.753 108.099 300.549 95.8132 288.638 95.8132ZM288.638 95.3963C291.96 95.3963 295.504 96.3414 298.631 98.0786C301.925 99.8992 304.593 102.456 306.344 105.486C307.943 108.238 308.721 111.268 308.651 114.464C308.582 118.008 307.456 121.691 305.33 125.402C303.676 128.279 300.966 130.655 297.505 132.267C294.253 133.782 290.473 134.575 286.568 134.575C282.065 134.575 277.645 133.477 274.129 131.475C271.113 129.766 268.667 126.25 267.736 122.303C267.25 120.246 267.18 118.161 267.514 116.104C267.889 113.839 268.764 111.671 270.113 109.656C270.279 109.419 270.488 109.03 270.78 108.53C271.558 107.168 272.85 104.889 274.671 102.679C276.867 99.9965 279.299 98.0647 281.898 96.9251C283.885 95.9105 286.151 95.3963 288.652 95.3963H288.638Z" fill="#A54A2F"/>
<path d="M298.926 127.58C300.468 127.441 305.889 126.718 306.472 129.873C306.917 132.291 301.094 135.64 297.758 134.056C296.049 133.25 296.577 130.637 296.619 130.581" fill="#FAA181"/>
<path d="M298.926 127.58C300.468 127.441 305.889 126.718 306.472 129.873C306.917 132.291 301.094 135.64 297.758 134.056C296.049 133.25 296.577 130.637 296.619 130.581" stroke="#A54A2F" stroke-width="0.5" stroke-linecap="round" stroke-linejoin="round"/>
<path d="M297.064 119.076C294.312 125.733 284.042 135.809 273.257 129.208C267.892 125.928 266.211 115.56 271.548 108.625C273.174 106.513 274.188 103.997 278.066 100.815C279.428 100.578 281.151 100.342 281.151 100.342C280.011 101.037 279.9 102.996 280.748 103.455C281.971 104.108 285.098 104.136 286.835 103.358C285.612 105.081 285.32 106.707 286.377 107.889C288.267 109.987 295.563 109.959 296.967 109.584C298.704 112.183 297.884 117.103 297.05 119.09L297.064 119.076Z" fill="#FFC599"/>
<path d="M294.046 110.226C293.407 109.559 291.072 109.434 290.78 109.893C290.488 110.351 293.49 111.06 295.436 115.494C296.2 114.201 294.699 110.921 294.046 110.226Z" fill="#381A12"/>
<path d="M277.677 115.697C276.982 115.461 276.759 115.725 275.981 115.517C274.953 115.239 275.175 116.184 276.009 116.865C276.843 117.546 277.732 118.255 278.663 118.769C279.608 119.283 279.775 118.407 279.219 117.754C278.816 117.254 278.497 115.975 277.677 115.697Z" fill="#FFAD8D"/>
<path d="M276.592 116.267C276.565 115.989 275.48 115.489 275.453 115.753C275.397 116.226 276.634 116.837 276.592 116.267Z" fill="#CE6C4E"/>
<path d="M280.735 117.144C281.222 118.326 280.388 119.757 278.845 118.84C278.331 118.59 279.151 118.465 279.151 118.465C280.04 118.715 280.374 118.298 280.735 117.144Z" fill="#FFAD8D"/>
<path d="M278.386 117.56C278.706 117.491 279.567 118.505 279.289 118.617C278.858 118.797 277.83 117.672 278.386 117.56Z" fill="#CE6C4E"/>
<path d="M299.51 129.711C302.665 128.891 305.083 129.808 305.278 131.281C303.79 130.725 300.663 130.572 300.149 131.198C300.274 132.56 298.607 132.504 298.078 132.073C300.358 131.879 299.51 129.711 299.51 129.711Z" fill="#F26E4E"/>
<path d="M300.494 128.626C302.565 127.445 305.317 127.126 306.304 129.321C306.512 130.197 306.04 130.614 306.04 130.614C305.956 129.669 303.343 128.557 300.494 128.626Z" fill="#FFC599"/>
<path d="M280.317 101.134C280.929 101.509 281.082 104.275 280.609 103.802C278.261 101.509 276.037 101.912 276.092 101.537C276.204 100.759 279.539 100.647 280.317 101.134Z" fill="#381A12"/>
<path d="M309.92 120.66C309.6 123.801 307.405 127.011 304.833 127.706C304.833 127.706 301.137 126.567 297.412 129.082C297.412 129.082 296.481 129.124 295.619 128.04C299.441 124.996 303.791 116.741 301.859 111.835C303.277 113.072 304.361 118.117 303.374 120.591" fill="#160F13"/>
<path d="M309.92 120.66C309.6 123.801 307.405 127.011 304.833 127.706C304.833 127.706 301.137 126.567 297.412 129.082C297.412 129.082 296.481 129.124 295.619 128.04C299.441 124.996 303.791 116.741 301.859 111.835C303.277 113.072 304.361 118.117 303.374 120.591" stroke="black" stroke-width="0.5" stroke-linecap="round" stroke-linejoin="round"/>
<path d="M292.517 91.2367C306.61 92.2234 313.795 101.396 312.669 108.414C315.588 112.403 312.558 124.967 305.943 127.204C305.943 127.204 302.274 124.272 295.617 128.038C305.22 121.548 303.858 112.264 302.065 108.303C302.065 108.303 302.301 107.803 304.122 108.025C300.189 106.163 295.38 109.554 287.264 108.887C289.39 108.54 289.571 108.192 292.309 106.385C290.002 107.456 286.374 107.9 283.4 108.762C286.361 106.622 288.07 102.438 291.475 100.256C288.181 101.132 285.29 105.649 280.732 109.679C281.997 107.664 284.276 102.716 286.625 101.549C285.249 101.896 283.345 103.634 281.121 106.107C281.496 103.773 281.663 99.7561 283.289 97.727C283.289 97.727 280.259 96.4901 275.895 101.493C274.311 103.119 273.449 104.759 272.449 106.038C273.63 102.786 275.312 99.8812 277.855 96.9904C280.065 94.4749 285.318 90.7224 292.503 91.2367H292.517Z" fill="#160F13" stroke="black" stroke-width="0.5" stroke-linecap="round" stroke-linejoin="round"/>
<path d="M309.013 107.974C301.438 104.36 292.641 105.972 289.903 105.5C291.64 102.859 297.519 100.941 300.382 102.011C295.935 99.6348 289.959 102.373 289.569 103.304C292.46 98.0783 299.854 98.0505 303.648 101.011C296.449 95.396 288.138 100.913 283.399 101.108C284.344 98.6064 292.127 91.7547 303.634 95.4655C310.958 97.8281 311.848 105.528 311.848 106.764C310.875 104.541 306.414 103.04 304.134 103.151C306.789 104.263 308.79 107.154 309.027 107.96L309.013 107.974Z" fill="#2D2025"/>
<path d="M297.008 93.0185C292.492 92.407 281.915 95.812 275.717 99.9952C280.817 93.2826 288.725 89.9193 297.008 93.0185Z" fill="#2D2025"/>
<path d="M287.582 113.613C285.72 113.516 284.108 115.587 286.762 115.323C289.417 115.059 290.987 117.908 291.293 119.604C291.599 121.299 292.474 120.132 292.391 118.95C292.266 117.199 290.751 113.78 287.582 113.613Z" fill="#44260D"/>
<path d="M278.746 107.402C279.511 109.111 278.58 111.293 277.468 108.875C276.342 106.457 274.647 106.095 272.993 106.568C271.797 106.901 272.242 106.109 273.326 105.609C274.41 105.122 277.774 105.22 278.746 107.402Z" fill="#44260D"/>
<path d="M283.721 125.22C284.152 126.443 282.749 126.276 281.651 125.22C282.359 125.276 283.221 123.83 283.721 125.22Z" fill="#FAA181"/>
<path d="M271.465 116.574C270.228 116.977 270.811 117.727 272.201 118.352C271.895 117.713 272.59 116.198 271.465 116.574Z" fill="#FAA181"/>
<path d="M274.731 121.509L281.736 125.276C281.736 125.276 276.135 124.539 274.412 123.205C272.688 121.871 272.744 120.259 272.313 118.605C272.869 119.411 274.05 120.898 274.731 121.523V121.509Z" fill="#F27F7C"/>
<path d="M275.324 120.675C275.658 121.231 276.325 121.022 277.478 121.967C278.632 122.912 280.661 124.761 282.426 125.317C281.272 125.219 276.505 123.023 274.963 121.787C273.448 120.577 272.378 118.896 271.933 117.714C273.073 118.868 274.421 119.188 275.31 120.675H275.324Z" fill="#E8524A"/>
<path d="M273.091 119.672C271.868 118.422 271.228 117.393 271.743 117.185C271.951 117.101 272.021 117.31 272.007 117.588C271.993 118.046 273.091 119.672 273.091 119.672Z" fill="#A52929"/>
<path d="M282.973 125.055C283.39 125.917 281.972 125.708 278.79 123.985C280.291 124.61 281.597 125.249 282.236 125.18C282.751 125.124 282.862 124.833 282.959 125.055H282.973Z" fill="#A52929"/>
<path d="M253.436 133.683C254.923 128.86 261.914 123.787 266.014 127.915C269.488 131.403 267.195 140.91 259.746 142.16C252.296 143.411 252.366 137.171 253.436 133.683Z" fill="#FB9E9E" stroke="#D75050" stroke-width="0.5" stroke-linecap="round" stroke-linejoin="round"/>
<path d="M255.133 133.878C256.259 130.445 260.4 127.582 262.624 129.625C264.862 131.682 263.75 136.421 259.58 138.534C256.773 139.951 253.91 137.575 255.133 133.878Z" fill="#FF8A9A" stroke="#D75050" stroke-width="0.5" stroke-linecap="round" stroke-linejoin="round"/>
<path d="M300.08 125.47C300.08 125.47 295.743 130.196 290.907 129.681C294.201 128.333 297.008 124.511 300.399 120.467C300.399 120.467 298.634 121.982 294.548 122.58C297.786 121.718 300.469 119.397 302.011 114.435" fill="#160F13"/>
<path d="M300.08 125.47C300.08 125.47 295.743 130.196 290.907 129.681C294.201 128.333 297.008 124.511 300.399 120.467C300.399 120.467 298.634 121.982 294.548 122.58C297.786 121.718 300.469 119.397 302.011 114.435" stroke="black" stroke-width="0.5" stroke-linecap="round" stroke-linejoin="round"/>
<path d="M308.961 122.774C307.182 124.775 306.765 126.527 306.14 128.792C305.514 131.085 303.485 133.309 302.526 133.892C304.291 132.808 304.847 128.153 304.25 126.999C303.416 129.167 302.29 130.237 300.608 130.529C302.888 130.223 303.582 126.624 303.416 125.053" fill="#160F13"/>
<path d="M308.961 122.774C307.182 124.775 306.765 126.527 306.14 128.792C305.514 131.085 303.485 133.309 302.526 133.892C304.291 132.808 304.847 128.153 304.25 126.999C303.416 129.167 302.29 130.237 300.608 130.529C302.888 130.223 303.582 126.624 303.416 125.053" stroke="black" stroke-width="0.5" stroke-linecap="round" stroke-linejoin="round"/>
<path d="M303.732 110.266C306.387 113.518 304.622 122.218 300.619 125.554C303.482 124.484 307.596 120.898 308.416 118.16C308.902 120.231 308.861 123.177 307.012 124.678C308.638 123.886 315.045 119.842 312.557 112.49C311.585 111.378 309.472 111.281 309.472 111.281C311.015 113.268 310.848 115.714 309.986 118.633C309.959 115.339 308.902 112.378 307.61 111.433C306.317 110.488 303.718 110.266 303.718 110.266H303.732Z" fill="#2D2025"/>
<path d="M286.763 84.0244C291.919 85.5949 296.644 83.4685 299.396 80.4944C301.23 78.507 302.287 75.9497 301.272 75.0186C300.397 74.2125 298.493 77.8677 296.547 78.9378C298.77 76.7836 299.868 74.1291 300.202 72.642C300.536 71.155 299.16 69.7513 298.145 71.836C297.131 73.9206 295.352 76.1304 294.532 76.8531C296.088 75.0742 297.131 73.0729 297.353 71.3356C297.561 69.7513 295.963 69.4316 295.115 71.1689C294.49 72.4753 293.322 75.0881 292.044 75.783C293.364 73.9206 293.503 72.1834 293.184 70.8492C292.878 69.515 291.905 70.0431 291.585 71.2522C291.266 72.4614 290.223 74.4071 289.459 74.9074C286.818 74.5322 283.747 76.3806 283.024 78.8266" fill="#FAA181"/>
<path d="M286.763 84.0244C291.919 85.5949 296.644 83.4685 299.396 80.4944C301.23 78.507 302.287 75.9497 301.272 75.0186C300.397 74.2125 298.493 77.8677 296.547 78.9378C298.77 76.7836 299.868 74.1291 300.202 72.642C300.536 71.155 299.16 69.7513 298.145 71.836C297.131 73.9206 295.352 76.1304 294.532 76.8531C296.088 75.0742 297.131 73.0729 297.353 71.3356C297.561 69.7513 295.963 69.4316 295.115 71.1689C294.49 72.4753 293.322 75.0881 292.044 75.783C293.364 73.9206 293.503 72.1834 293.184 70.8492C292.878 69.515 291.905 70.0431 291.585 71.2522C291.266 72.4614 290.223 74.4071 289.459 74.9074C286.818 74.5322 283.747 76.3806 283.024 78.8266" stroke="#A54A2F" stroke-width="0.5" stroke-linecap="round" stroke-linejoin="round"/>
<path d="M286.765 84.0272C290.239 86.5566 293.241 85.5142 296.271 84.6665C298.592 84.0133 300.273 84.0689 300.148 83.2072C299.94 81.8174 298.022 80.8167 295.145 81.9564C294.589 80.4415 292.755 79.3297 289.53 79.5937" fill="#FAA181"/>
<path d="M286.765 84.0272C290.239 86.5566 293.241 85.5142 296.271 84.6665C298.592 84.0133 300.273 84.0689 300.148 83.2072C299.94 81.8174 298.022 80.8167 295.145 81.9564C294.589 80.4415 292.755 79.3297 289.53 79.5937" stroke="#A54A2F" stroke-width="0.5" stroke-linecap="round" stroke-linejoin="round"/>
<path d="M293.951 145.749C296.063 155.241 280.498 164.067 272.882 164.692C268.337 165.067 267.336 161.509 267.545 159.911C268.101 155.686 275.203 149.682 281.901 146.388" fill="#FAA181"/>
<path d="M293.951 145.749C296.063 155.241 280.498 164.067 272.882 164.692C268.337 165.067 267.336 161.509 267.545 159.911C268.101 155.686 275.203 149.682 281.901 146.388" stroke="#A54A2F" stroke-width="0.5" stroke-linecap="round" stroke-linejoin="round"/>
<path d="M290.838 144.915C292.353 145.943 290.63 154.935 275.495 159.118C276.885 157.089 273.702 154.323 272.465 153.323C275.995 150.599 286.391 141.885 290.852 144.915H290.838Z" fill="#FFC599"/>
<path d="M273.352 156.1C270.975 149.541 260.594 147.039 259.954 144.44C259.732 143.537 258.995 139.103 257.911 139.548C255.868 140.382 253.589 147.109 254.77 148.332C256.577 150.194 264.082 164.675 272.546 164.787" fill="#FAA181"/>
<path d="M273.352 156.1C270.975 149.541 260.594 147.039 259.954 144.44C259.732 143.537 258.995 139.103 257.911 139.548C255.868 140.382 253.589 147.109 254.77 148.332C256.577 150.194 264.082 164.675 272.546 164.787" stroke="#A54A2F" stroke-width="0.5" stroke-linecap="round" stroke-linejoin="round"/>
<path d="M271.935 159.104C273.38 158.02 271.518 153.67 269.183 151.711C266.848 149.751 261.761 146.846 260.358 145.693C258.968 144.525 270.823 159.952 271.935 159.118V159.104Z" fill="#FFC599"/>
<path d="M260.249 141.271C260.249 141.271 256.788 137.38 256.913 133.419C256.941 132.655 251.368 135.365 250.631 135.99C249.895 136.616 248.602 139.59 249.13 141.035C249.658 142.481 254.411 147.817 255.051 148.721" fill="#FAA181"/>
<path d="M260.249 141.271C260.249 141.271 256.788 137.38 256.913 133.419C256.941 132.655 251.368 135.365 250.631 135.99C249.895 136.616 248.602 139.59 249.13 141.035C249.658 142.481 254.411 147.817 255.051 148.721" stroke="#A54A2F" stroke-width="0.5" stroke-linecap="round" stroke-linejoin="round"/>
<path d="M250.074 139.505C249.922 138.588 249.797 137.046 250.519 135.85C251.242 134.641 251.617 134.572 252.437 134.196C252.437 134.196 252.979 136.434 252.951 136.545" fill="#FAA181"/>
<path d="M250.074 139.505C249.922 138.588 249.797 137.046 250.519 135.85C251.242 134.641 251.617 134.572 252.437 134.196C252.437 134.196 252.979 136.434 252.951 136.545" stroke="#A54A2F" stroke-width="0.5" stroke-linecap="round" stroke-linejoin="round"/>
<path d="M251.103 138.116C251.103 137.185 251.047 134.767 251.965 133.711C252.896 132.654 253.271 132.654 254.147 132.432C254.147 132.432 254.355 135.504 254.3 135.615" fill="#FAA181"/>
<path d="M251.103 138.116C251.103 137.185 251.047 134.767 251.965 133.711C252.896 132.654 253.271 132.654 254.147 132.432C254.147 132.432 254.355 135.504 254.3 135.615" stroke="#A54A2F" stroke-width="0.5" stroke-linecap="round" stroke-linejoin="round"/>
<path d="M252.698 137.1C252.782 136.182 253.505 131.874 254.408 129.984C255.353 128.038 256.451 128.761 256.409 129.372C256.409 129.372 255.756 135.376 255.686 135.487" fill="#FAA181"/>
<path d="M252.698 137.1C252.782 136.182 253.505 131.874 254.408 129.984C255.353 128.038 256.451 128.761 256.409 129.372C256.409 129.372 255.756 135.376 255.686 135.487" stroke="#A54A2F" stroke-width="0.5" stroke-linecap="round" stroke-linejoin="round"/>
<path d="M254.827 135.977C254.924 134.115 255.466 128.055 257.148 128.166C258.357 128.25 257.314 136.839 258.468 138.117C259.163 138.882 260.969 138.298 262.457 137.075C263.61 138.798 260.622 140.744 259.858 143.148C259.594 144.01 260.08 144.788 260.08 144.788" fill="#FAA181"/>
<path d="M254.827 135.977C254.924 134.115 255.466 128.055 257.148 128.166C258.357 128.25 257.314 136.839 258.468 138.117C259.163 138.882 260.969 138.298 262.457 137.075C263.61 138.798 260.622 140.744 259.858 143.148C259.594 144.01 260.08 144.788 260.08 144.788" stroke="#A54A2F" stroke-width="0.5" stroke-linecap="round" stroke-linejoin="round"/>
<path d="M257.216 128.721C257.244 129.318 256.827 134.224 256.452 134.905C256.063 135.586 255.34 135.67 255.229 135.267C255.118 134.85 255.854 129.972 256.229 129.166C256.605 128.359 257.202 128.401 257.216 128.721Z" fill="#FFC599"/>
<path d="M255.509 129.486C255.411 130.139 254.397 136.004 254.188 136.351C253.98 136.699 253.382 136.921 253.215 136.56C253.035 136.212 253.966 131.251 254.452 130.208C254.939 129.166 255.55 129.263 255.509 129.472V129.486Z" fill="#FFC599"/>
<path d="M252.937 133.365C253.104 133.726 252.437 136.909 252.284 137.173C252.131 137.437 251.644 137.84 251.436 137.687C251.227 137.534 251.505 135.102 251.769 134.365C252.034 133.629 252.812 133.115 252.923 133.365H252.937Z" fill="#FFC599"/>
<path d="M250.895 135.908C250.923 136.269 250.923 138.132 250.798 138.368C250.659 138.59 250.395 139.049 250.186 138.979C249.978 138.91 250.089 137.089 250.325 136.575C250.575 136.047 250.881 135.602 250.895 135.922V135.908Z" fill="#FFC599"/>
<path d="M249.586 138.936C249.823 139.2 249.711 139.895 249.364 140.103C249.016 140.312 249.294 138.602 249.586 138.936Z" fill="#FFC599"/>
<path d="M262.055 137.714C261.777 138.701 260.359 139.98 259.289 138.84C260.665 138.701 262.055 137.714 262.055 137.714Z" fill="#FFC599"/>
<path d="M285.027 176.936C284.957 176.019 284.457 175.046 283.901 174.962C282.497 174.74 278.62 175.907 274.284 176.936H285.027Z" fill="#E0AA3F" stroke="#9D4910" stroke-width="0.5" stroke-linecap="round" stroke-linejoin="round"/>
</svg>
