<svg width="59" height="65" viewBox="0 0 59 65" fill="none" xmlns="http://www.w3.org/2000/svg">
<path d="M0.00561523 5.15918C0.00561523 2.39775 2.24419 0.15918 5.00562 0.15918H53.9342C56.6956 0.15918 58.9342 2.39776 58.9342 5.15918V59.5273C58.9342 62.2887 56.6956 64.5273 53.9342 64.5273H5.00561C2.24419 64.5273 0.00561523 62.2887 0.00561523 59.5273V5.15918Z" fill="url(#paint0_linear_3219_5241)"/>
<path fill-rule="evenodd" clip-rule="evenodd" d="M28.439 17.7624C28.7285 18.1646 28.7609 18.6975 28.5221 19.1317C28.0189 20.0469 27.7322 21.0982 27.7322 22.2204C27.7322 25.767 30.6073 28.6421 34.1539 28.6421C35.2761 28.6421 36.3274 28.3554 37.2426 27.8522C37.6768 27.6134 38.2097 27.6458 38.6118 27.9353C39.014 28.2249 39.2137 28.72 39.125 29.2075C38.2531 33.9993 34.0605 37.6325 29.0165 37.6325C23.342 37.6325 18.7418 33.0323 18.7418 27.3577C18.7418 22.3138 22.375 18.1212 27.1668 17.2493C27.6543 17.1606 28.1494 17.3603 28.439 17.7624ZM25.3094 20.6C22.9259 21.9105 21.3105 24.4463 21.3105 27.3577C21.3105 31.6137 24.7606 35.0638 29.0165 35.0638C31.928 35.0638 34.4638 33.4484 35.7743 31.0649C35.2484 31.1607 34.7067 31.2108 34.1539 31.2108C29.1887 31.2108 25.1635 27.1856 25.1635 22.2204C25.1635 21.6676 25.2136 21.1259 25.3094 20.6Z" fill="white" stroke="black" stroke-width="0.5" stroke-linejoin="round"/>
<mask id="path-3-outside-1_3219_5241" maskUnits="userSpaceOnUse" x="18.0442" y="43.582" width="24" height="11" fill="black">
<rect fill="white" x="18.0442" y="43.582" width="24" height="11"/>
<path d="M20.9133 45.0508V53.582H18.8625V45.0508H20.9133ZM25.5891 51.8008C25.5891 51.6914 25.552 51.5977 25.4778 51.5195C25.4075 51.4375 25.2825 51.3633 25.1028 51.2969C24.9231 51.2266 24.6711 51.1562 24.3469 51.0859C24.0383 51.0195 23.7473 50.9316 23.4739 50.8223C23.2043 50.7129 22.968 50.5801 22.7649 50.4238C22.5618 50.2676 22.4016 50.082 22.2844 49.8672C22.1711 49.6523 22.1145 49.4062 22.1145 49.1289C22.1145 48.8594 22.1711 48.6055 22.2844 48.3672C22.4016 48.125 22.5715 47.9121 22.7942 47.7285C23.0208 47.541 23.2961 47.3945 23.6204 47.2891C23.9446 47.1797 24.3137 47.125 24.7278 47.125C25.2981 47.125 25.7903 47.2129 26.2043 47.3887C26.6184 47.5605 26.9368 47.8027 27.1594 48.1152C27.386 48.4238 27.4993 48.7812 27.4993 49.1875H25.5247C25.5247 49.0273 25.4973 48.8906 25.4426 48.7773C25.3918 48.6641 25.3079 48.5781 25.1907 48.5195C25.0735 48.457 24.9172 48.4258 24.7219 48.4258C24.5852 48.4258 24.4602 48.4512 24.3469 48.502C24.2375 48.5527 24.1497 48.623 24.0833 48.7129C24.0168 48.8027 23.9836 48.9082 23.9836 49.0293C23.9836 49.1152 24.0032 49.1934 24.0422 49.2637C24.0852 49.3301 24.1497 49.3926 24.2356 49.4512C24.3215 49.5059 24.4309 49.5566 24.5637 49.6035C24.6965 49.6465 24.8567 49.6855 25.0442 49.7207C25.47 49.7988 25.8684 49.9102 26.2395 50.0547C26.6106 50.1992 26.9114 50.4043 27.1418 50.6699C27.3762 50.9355 27.4934 51.293 27.4934 51.7422C27.4934 52.0234 27.429 52.2832 27.3 52.5215C27.1711 52.7559 26.9856 52.9629 26.7434 53.1426C26.5012 53.3184 26.2102 53.4551 25.8704 53.5527C25.5305 53.6504 25.1477 53.6992 24.7219 53.6992C24.1165 53.6992 23.6047 53.5918 23.1868 53.377C22.7688 53.1582 22.4524 52.8848 22.2375 52.5566C22.0266 52.2246 21.9211 51.8887 21.9211 51.5488H23.761C23.7688 51.7441 23.8157 51.9043 23.9016 52.0293C23.9915 52.1543 24.1106 52.2461 24.259 52.3047C24.4075 52.3633 24.5793 52.3926 24.7747 52.3926C24.9543 52.3926 25.1028 52.3672 25.22 52.3164C25.3411 52.2656 25.4329 52.1973 25.4954 52.1113C25.5579 52.0215 25.5891 51.918 25.5891 51.8008ZM30.3528 44.582V53.582H28.3782V44.582H30.3528ZM30.1184 50.1953L29.6555 50.207C29.6555 49.7617 29.7102 49.3516 29.8196 48.9766C29.929 48.6016 30.0852 48.2754 30.2883 47.998C30.4915 47.7207 30.7356 47.5059 31.0208 47.3535C31.3059 47.2012 31.6223 47.125 31.97 47.125C32.2825 47.125 32.5676 47.1699 32.8254 47.2598C33.0872 47.3496 33.3118 47.4941 33.4993 47.6934C33.6907 47.8926 33.8372 48.1523 33.9387 48.4727C34.0442 48.793 34.0969 49.1836 34.0969 49.6445V53.582H32.1106V49.6328C32.1106 49.375 32.0735 49.1758 31.9993 49.0352C31.929 48.8906 31.8274 48.791 31.6946 48.7363C31.5618 48.6777 31.3997 48.6484 31.2083 48.6484C30.9778 48.6484 30.7903 48.6875 30.6458 48.7656C30.5012 48.8438 30.3899 48.9531 30.3118 49.0938C30.2375 49.2305 30.1868 49.3926 30.1594 49.5801C30.1321 49.7676 30.1184 49.9727 30.1184 50.1953ZM38.4856 51.9883V49.375C38.4856 49.1953 38.4602 49.041 38.4094 48.9121C38.3586 48.7832 38.2786 48.6836 38.1692 48.6133C38.0598 48.5391 37.9133 48.502 37.7297 48.502C37.5813 48.502 37.4543 48.5273 37.3489 48.5781C37.2434 48.6289 37.1633 48.7051 37.1086 48.8066C37.054 48.9082 37.0266 49.0371 37.0266 49.1934H35.052C35.052 48.9004 35.1165 48.6289 35.2454 48.3789C35.3782 48.125 35.5657 47.9043 35.8079 47.7168C36.054 47.5293 36.3469 47.3848 36.6868 47.2832C37.0305 47.1777 37.4133 47.125 37.8352 47.125C38.3391 47.125 38.7883 47.209 39.1829 47.377C39.5813 47.5449 39.8958 47.7969 40.1262 48.1328C40.3567 48.4648 40.4719 48.8828 40.4719 49.3867V51.9824C40.4719 52.3965 40.4954 52.7109 40.5422 52.9258C40.5891 53.1367 40.6555 53.3223 40.7415 53.4824V53.582H38.761C38.6672 53.3867 38.5969 53.1484 38.55 52.8672C38.5071 52.582 38.4856 52.2891 38.4856 51.9883ZM38.7258 49.709L38.7375 50.7637H37.8645C37.6809 50.7637 37.5247 50.7891 37.3958 50.8398C37.2708 50.8906 37.1692 50.9609 37.0911 51.0508C37.0168 51.1367 36.9622 51.2344 36.927 51.3438C36.8958 51.4531 36.8801 51.5684 36.8801 51.6895C36.8801 51.8066 36.9075 51.9121 36.9622 52.0059C37.0208 52.0957 37.0989 52.166 37.1965 52.2168C37.2942 52.2676 37.4036 52.293 37.5247 52.293C37.7434 52.293 37.929 52.252 38.0813 52.1699C38.2375 52.084 38.3567 51.9805 38.4387 51.8594C38.5208 51.7383 38.5618 51.625 38.5618 51.5195L38.9954 52.3281C38.9172 52.4844 38.8274 52.6426 38.7258 52.8027C38.6282 52.9629 38.5051 53.1113 38.3567 53.248C38.2122 53.3809 38.0344 53.4902 37.8235 53.5762C37.6125 53.6582 37.3567 53.6992 37.0559 53.6992C36.6653 53.6992 36.3059 53.6191 35.9778 53.459C35.6536 53.2988 35.3938 53.0762 35.1985 52.791C35.0032 52.502 34.9055 52.1699 34.9055 51.7949C34.9055 51.4668 34.9641 51.1738 35.0813 50.916C35.2024 50.6582 35.384 50.4395 35.6262 50.2598C35.8684 50.0801 36.177 49.9434 36.552 49.8496C36.927 49.7559 37.3684 49.709 37.8762 49.709H38.7258Z"/>
</mask>
<path d="M20.9133 45.0508V53.582H18.8625V45.0508H20.9133ZM25.5891 51.8008C25.5891 51.6914 25.552 51.5977 25.4778 51.5195C25.4075 51.4375 25.2825 51.3633 25.1028 51.2969C24.9231 51.2266 24.6711 51.1562 24.3469 51.0859C24.0383 51.0195 23.7473 50.9316 23.4739 50.8223C23.2043 50.7129 22.968 50.5801 22.7649 50.4238C22.5618 50.2676 22.4016 50.082 22.2844 49.8672C22.1711 49.6523 22.1145 49.4062 22.1145 49.1289C22.1145 48.8594 22.1711 48.6055 22.2844 48.3672C22.4016 48.125 22.5715 47.9121 22.7942 47.7285C23.0208 47.541 23.2961 47.3945 23.6204 47.2891C23.9446 47.1797 24.3137 47.125 24.7278 47.125C25.2981 47.125 25.7903 47.2129 26.2043 47.3887C26.6184 47.5605 26.9368 47.8027 27.1594 48.1152C27.386 48.4238 27.4993 48.7812 27.4993 49.1875H25.5247C25.5247 49.0273 25.4973 48.8906 25.4426 48.7773C25.3918 48.6641 25.3079 48.5781 25.1907 48.5195C25.0735 48.457 24.9172 48.4258 24.7219 48.4258C24.5852 48.4258 24.4602 48.4512 24.3469 48.502C24.2375 48.5527 24.1497 48.623 24.0833 48.7129C24.0168 48.8027 23.9836 48.9082 23.9836 49.0293C23.9836 49.1152 24.0032 49.1934 24.0422 49.2637C24.0852 49.3301 24.1497 49.3926 24.2356 49.4512C24.3215 49.5059 24.4309 49.5566 24.5637 49.6035C24.6965 49.6465 24.8567 49.6855 25.0442 49.7207C25.47 49.7988 25.8684 49.9102 26.2395 50.0547C26.6106 50.1992 26.9114 50.4043 27.1418 50.6699C27.3762 50.9355 27.4934 51.293 27.4934 51.7422C27.4934 52.0234 27.429 52.2832 27.3 52.5215C27.1711 52.7559 26.9856 52.9629 26.7434 53.1426C26.5012 53.3184 26.2102 53.4551 25.8704 53.5527C25.5305 53.6504 25.1477 53.6992 24.7219 53.6992C24.1165 53.6992 23.6047 53.5918 23.1868 53.377C22.7688 53.1582 22.4524 52.8848 22.2375 52.5566C22.0266 52.2246 21.9211 51.8887 21.9211 51.5488H23.761C23.7688 51.7441 23.8157 51.9043 23.9016 52.0293C23.9915 52.1543 24.1106 52.2461 24.259 52.3047C24.4075 52.3633 24.5793 52.3926 24.7747 52.3926C24.9543 52.3926 25.1028 52.3672 25.22 52.3164C25.3411 52.2656 25.4329 52.1973 25.4954 52.1113C25.5579 52.0215 25.5891 51.918 25.5891 51.8008ZM30.3528 44.582V53.582H28.3782V44.582H30.3528ZM30.1184 50.1953L29.6555 50.207C29.6555 49.7617 29.7102 49.3516 29.8196 48.9766C29.929 48.6016 30.0852 48.2754 30.2883 47.998C30.4915 47.7207 30.7356 47.5059 31.0208 47.3535C31.3059 47.2012 31.6223 47.125 31.97 47.125C32.2825 47.125 32.5676 47.1699 32.8254 47.2598C33.0872 47.3496 33.3118 47.4941 33.4993 47.6934C33.6907 47.8926 33.8372 48.1523 33.9387 48.4727C34.0442 48.793 34.0969 49.1836 34.0969 49.6445V53.582H32.1106V49.6328C32.1106 49.375 32.0735 49.1758 31.9993 49.0352C31.929 48.8906 31.8274 48.791 31.6946 48.7363C31.5618 48.6777 31.3997 48.6484 31.2083 48.6484C30.9778 48.6484 30.7903 48.6875 30.6458 48.7656C30.5012 48.8438 30.3899 48.9531 30.3118 49.0938C30.2375 49.2305 30.1868 49.3926 30.1594 49.5801C30.1321 49.7676 30.1184 49.9727 30.1184 50.1953ZM38.4856 51.9883V49.375C38.4856 49.1953 38.4602 49.041 38.4094 48.9121C38.3586 48.7832 38.2786 48.6836 38.1692 48.6133C38.0598 48.5391 37.9133 48.502 37.7297 48.502C37.5813 48.502 37.4543 48.5273 37.3489 48.5781C37.2434 48.6289 37.1633 48.7051 37.1086 48.8066C37.054 48.9082 37.0266 49.0371 37.0266 49.1934H35.052C35.052 48.9004 35.1165 48.6289 35.2454 48.3789C35.3782 48.125 35.5657 47.9043 35.8079 47.7168C36.054 47.5293 36.3469 47.3848 36.6868 47.2832C37.0305 47.1777 37.4133 47.125 37.8352 47.125C38.3391 47.125 38.7883 47.209 39.1829 47.377C39.5813 47.5449 39.8958 47.7969 40.1262 48.1328C40.3567 48.4648 40.4719 48.8828 40.4719 49.3867V51.9824C40.4719 52.3965 40.4954 52.7109 40.5422 52.9258C40.5891 53.1367 40.6555 53.3223 40.7415 53.4824V53.582H38.761C38.6672 53.3867 38.5969 53.1484 38.55 52.8672C38.5071 52.582 38.4856 52.2891 38.4856 51.9883ZM38.7258 49.709L38.7375 50.7637H37.8645C37.6809 50.7637 37.5247 50.7891 37.3958 50.8398C37.2708 50.8906 37.1692 50.9609 37.0911 51.0508C37.0168 51.1367 36.9622 51.2344 36.927 51.3438C36.8958 51.4531 36.8801 51.5684 36.8801 51.6895C36.8801 51.8066 36.9075 51.9121 36.9622 52.0059C37.0208 52.0957 37.0989 52.166 37.1965 52.2168C37.2942 52.2676 37.4036 52.293 37.5247 52.293C37.7434 52.293 37.929 52.252 38.0813 52.1699C38.2375 52.084 38.3567 51.9805 38.4387 51.8594C38.5208 51.7383 38.5618 51.625 38.5618 51.5195L38.9954 52.3281C38.9172 52.4844 38.8274 52.6426 38.7258 52.8027C38.6282 52.9629 38.5051 53.1113 38.3567 53.248C38.2122 53.3809 38.0344 53.4902 37.8235 53.5762C37.6125 53.6582 37.3567 53.6992 37.0559 53.6992C36.6653 53.6992 36.3059 53.6191 35.9778 53.459C35.6536 53.2988 35.3938 53.0762 35.1985 52.791C35.0032 52.502 34.9055 52.1699 34.9055 51.7949C34.9055 51.4668 34.9641 51.1738 35.0813 50.916C35.2024 50.6582 35.384 50.4395 35.6262 50.2598C35.8684 50.0801 36.177 49.9434 36.552 49.8496C36.927 49.7559 37.3684 49.709 37.8762 49.709H38.7258Z" fill="#FCFCFC"/>
<path d="M20.9133 45.0508H21.4133V44.5508H20.9133V45.0508ZM20.9133 53.582V54.082H21.4133V53.582H20.9133ZM18.8625 53.582H18.3625V54.082H18.8625V53.582ZM18.8625 45.0508V44.5508H18.3625V45.0508H18.8625ZM20.4133 45.0508V53.582H21.4133V45.0508H20.4133ZM20.9133 53.082H18.8625V54.082H20.9133V53.082ZM19.3625 53.582V45.0508H18.3625V53.582H19.3625ZM18.8625 45.5508H20.9133V44.5508H18.8625V45.5508ZM25.4778 51.5195L25.0982 51.8449L25.1065 51.8546L25.1153 51.8639L25.4778 51.5195ZM25.1028 51.2969L24.9206 51.7626L24.9295 51.7659L25.1028 51.2969ZM24.3469 51.0859L24.4529 50.5973L24.4521 50.5971L24.3469 51.0859ZM23.4739 50.8223L23.2859 51.2856L23.2882 51.2865L23.4739 50.8223ZM22.2844 49.8672L21.8421 50.1004L21.8455 50.1066L22.2844 49.8672ZM22.2844 48.3672L21.8343 48.1494L21.8329 48.1525L22.2844 48.3672ZM22.7942 47.7285L23.1123 48.1143L23.113 48.1137L22.7942 47.7285ZM23.6204 47.2891L23.775 47.7646L23.7802 47.7628L23.6204 47.2891ZM26.2043 47.3887L26.009 47.8489L26.0127 47.8505L26.2043 47.3887ZM27.1594 48.1152L26.7522 48.4054L26.7564 48.4111L27.1594 48.1152ZM27.4993 49.1875V49.6875H27.9993V49.1875H27.4993ZM25.5247 49.1875H25.0247V49.6875H25.5247V49.1875ZM25.4426 48.7773L24.9864 48.9819L24.9893 48.9883L24.9924 48.9947L25.4426 48.7773ZM25.1907 48.5195L24.9553 48.9609L24.9671 48.9667L25.1907 48.5195ZM24.3469 48.502L24.1424 48.0457L24.1364 48.0484L24.3469 48.502ZM24.0422 49.2637L23.6052 49.5065L23.6133 49.5212L23.6225 49.5353L24.0422 49.2637ZM24.2356 49.4512L23.9539 49.8643L23.9605 49.8687L23.9672 49.873L24.2356 49.4512ZM24.5637 49.6035L24.3973 50.0752L24.4098 50.0792L24.5637 49.6035ZM25.0442 49.7207L24.952 50.2121L24.954 50.2125L25.0442 49.7207ZM27.1418 50.6699L26.7642 50.9976L26.7669 51.0007L27.1418 50.6699ZM27.3 52.5215L27.7382 52.7624L27.7398 52.7594L27.3 52.5215ZM26.7434 53.1426L27.0371 53.5473L27.0413 53.5441L26.7434 53.1426ZM23.1868 53.377L22.9549 53.82L22.9582 53.8216L23.1868 53.377ZM22.2375 52.5566L21.8155 52.8248L21.8192 52.8305L22.2375 52.5566ZM21.9211 51.5488V51.0488H21.4211V51.5488H21.9211ZM23.761 51.5488L24.2606 51.5288L24.2414 51.0488H23.761V51.5488ZM23.9016 52.0293L23.4895 52.3126L23.4956 52.3211L23.9016 52.0293ZM25.22 52.3164L25.0266 51.8553L25.0212 51.8576L25.22 52.3164ZM25.4954 52.1113L25.8998 52.4055L25.9058 52.3969L25.4954 52.1113ZM26.0891 51.8008C26.0891 51.5654 26.0042 51.3477 25.8403 51.1752L25.1153 51.8639C25.1114 51.8598 25.103 51.8491 25.0964 51.8325C25.0898 51.816 25.0891 51.8037 25.0891 51.8008H26.0891ZM25.8574 51.1941C25.7038 51.0149 25.4825 50.9042 25.2761 50.8279L24.9295 51.7659C24.9992 51.7917 25.0463 51.8146 25.076 51.8323C25.1068 51.8505 25.1084 51.8568 25.0982 51.8449L25.8574 51.1941ZM25.285 50.8313C25.0691 50.7468 24.7875 50.6699 24.4529 50.5973L24.241 51.5746C24.5548 51.6426 24.7771 51.7063 24.9206 51.7625L25.285 50.8313ZM24.4521 50.5971C24.169 50.5362 23.9051 50.4562 23.6596 50.358L23.2882 51.2865C23.5895 51.407 23.9076 51.5028 24.2417 51.5747L24.4521 50.5971ZM23.6619 50.359C23.4286 50.2643 23.2327 50.1529 23.0697 50.0275L22.46 50.8201C22.7034 51.0073 22.9801 51.1615 23.2859 51.2856L23.6619 50.359ZM23.0697 50.0275C22.9191 49.9116 22.8057 49.7787 22.7234 49.6278L21.8455 50.1066C21.9975 50.3854 22.2044 50.6235 22.46 50.8201L23.0697 50.0275ZM22.7267 49.634C22.6564 49.5007 22.6145 49.3366 22.6145 49.1289H21.6145C21.6145 49.4759 21.6859 49.804 21.8421 50.1004L22.7267 49.634ZM22.6145 49.1289C22.6145 48.932 22.6553 48.7516 22.736 48.5819L21.8329 48.1525C21.687 48.4593 21.6145 48.7868 21.6145 49.1289H22.6145ZM22.7345 48.585C22.8181 48.4123 22.9411 48.2554 23.1123 48.1143L22.4761 47.3427C22.202 47.5688 21.9851 47.8377 21.8343 48.1494L22.7345 48.585ZM23.113 48.1137C23.2839 47.9722 23.5013 47.8536 23.775 47.7645L23.4657 46.8136C23.091 46.9355 22.7576 47.1098 22.4754 47.3433L23.113 48.1137ZM23.7802 47.7628C24.0434 47.674 24.357 47.625 24.7278 47.625V46.625C24.2704 46.625 23.8458 46.6853 23.4605 46.8153L23.7802 47.7628ZM24.7278 47.625C25.2483 47.625 25.6709 47.7054 26.009 47.8489L26.3997 46.9284C25.9097 46.7204 25.3479 46.625 24.7278 46.625V47.625ZM26.0127 47.8505C26.355 47.9926 26.5925 48.1812 26.7522 48.4054L27.5666 47.8251C27.281 47.4242 26.8818 47.1285 26.396 46.9269L26.0127 47.8505ZM26.7564 48.4111C26.916 48.6285 26.9993 48.8808 26.9993 49.1875H27.9993C27.9993 48.6817 27.856 48.2191 27.5625 47.8193L26.7564 48.4111ZM27.4993 48.6875H25.5247V49.6875H27.4993V48.6875ZM26.0247 49.1875C26.0247 48.972 25.988 48.7569 25.8929 48.56L24.9924 48.9947C25.0066 49.0243 25.0247 49.0827 25.0247 49.1875H26.0247ZM25.8989 48.5728C25.7981 48.3481 25.6285 48.1794 25.4143 48.0723L24.9671 48.9667C24.974 48.9702 24.9782 48.973 24.9806 48.9747C24.9829 48.9763 24.9838 48.9773 24.984 48.9774C24.9841 48.9775 24.9841 48.9775 24.9842 48.9777C24.9843 48.9779 24.9851 48.9791 24.9864 48.9819L25.8989 48.5728ZM25.426 48.0784C25.2103 47.9633 24.9635 47.9258 24.7219 47.9258V48.9258C24.871 48.9258 24.9367 48.9507 24.9554 48.9607L25.426 48.0784ZM24.7219 47.9258C24.5219 47.9258 24.3263 47.9633 24.1424 48.0457L24.5515 48.9582C24.5941 48.9391 24.6485 48.9258 24.7219 48.9258V47.9258ZM24.1364 48.0484C23.9573 48.1316 23.8012 48.2533 23.6812 48.4157L24.4853 49.0101C24.4981 48.9928 24.5178 48.9739 24.5575 48.9555L24.1364 48.0484ZM23.6812 48.4157C23.5457 48.5989 23.4836 48.8107 23.4836 49.0293H24.4836C24.4836 49.0219 24.4841 49.0169 24.4846 49.0139C24.485 49.011 24.4854 49.0096 24.4855 49.0095C24.4855 49.0094 24.4854 49.0098 24.4851 49.0104C24.4848 49.0109 24.4848 49.0109 24.4853 49.0101L23.6812 48.4157ZM23.4836 49.0293C23.4836 49.1942 23.522 49.3568 23.6052 49.5065L24.4793 49.0209C24.4811 49.024 24.4825 49.0277 24.4834 49.0311C24.4842 49.0342 24.4836 49.0341 24.4836 49.0293H23.4836ZM23.6225 49.5353C23.711 49.6722 23.8295 49.7794 23.9539 49.8643L24.5173 49.0381C24.4699 49.0057 24.4594 48.988 24.462 48.992L23.6225 49.5353ZM23.9672 49.873C24.0947 49.9541 24.2413 50.0199 24.3973 50.075L24.7301 49.132C24.6206 49.0934 24.5484 49.0576 24.504 49.0293L23.9672 49.873ZM24.4098 50.0792C24.5687 50.1306 24.7506 50.1744 24.952 50.2121L25.1363 49.2293C24.9627 49.1967 24.8244 49.1623 24.7176 49.1278L24.4098 50.0792ZM24.954 50.2125C25.3512 50.2854 25.7189 50.3885 26.058 50.5206L26.421 49.5888C26.0179 49.4318 25.5887 49.3123 25.1344 49.2289L24.954 50.2125ZM26.058 50.5206C26.3636 50.6396 26.5936 50.801 26.7642 50.9976L27.5195 50.3422C27.2291 50.0076 26.8576 49.7588 26.421 49.5888L26.058 50.5206ZM26.7669 51.0007C26.9009 51.1526 26.9934 51.3811 26.9934 51.7422H27.9934C27.9934 51.2048 27.8516 50.7185 27.5168 50.3391L26.7669 51.0007ZM26.9934 51.7422C26.9934 51.9437 26.9481 52.1212 26.8603 52.2836L27.7398 52.7594C27.9098 52.4452 27.9934 52.1032 27.9934 51.7422H26.9934ZM26.8619 52.2805C26.7718 52.4443 26.6373 52.5987 26.4455 52.741L27.0413 53.5441C27.3339 53.3271 27.5704 53.0674 27.7382 52.7624L26.8619 52.2805ZM26.4497 52.7379C26.2623 52.874 26.0261 52.9877 25.7323 53.0722L26.0085 54.0333C26.3943 53.9224 26.7402 53.7627 27.0371 53.5472L26.4497 52.7379ZM25.7323 53.0722C25.4454 53.1546 25.1102 53.1992 24.7219 53.1992V54.1992C25.1852 54.1992 25.6157 54.1462 26.0085 54.0333L25.7323 53.0722ZM24.7219 53.1992C24.1737 53.1992 23.7452 53.1018 23.4153 52.9323L22.9582 53.8216C23.4643 54.0818 24.0592 54.1992 24.7219 54.1992V53.1992ZM23.4186 52.934C23.0609 52.7468 22.8154 52.5264 22.6559 52.2827L21.8192 52.8305C22.0894 53.2432 22.4767 53.5697 22.9549 53.82L23.4186 52.934ZM22.6596 52.2885C22.4914 52.0238 22.4211 51.7795 22.4211 51.5488H21.4211C21.4211 51.9978 21.5618 52.4255 21.8155 52.8248L22.6596 52.2885ZM21.9211 52.0488H23.761V51.0488H21.9211V52.0488ZM23.2614 51.5688C23.2719 51.8316 23.3368 52.0903 23.4896 52.3126L24.3136 51.746C24.2945 51.7183 24.2657 51.6567 24.2606 51.5288L23.2614 51.5688ZM23.4956 52.3211C23.6436 52.527 23.8412 52.6773 24.0754 52.7698L24.4426 51.8396C24.38 51.8149 24.3393 51.7816 24.3076 51.7375L23.4956 52.3211ZM24.0754 52.7698C24.2938 52.856 24.5301 52.8926 24.7747 52.8926V51.8926C24.6285 51.8926 24.5211 51.8706 24.4426 51.8396L24.0754 52.7698ZM24.7747 52.8926C24.9969 52.8926 25.2188 52.8618 25.4188 52.7752L25.0212 51.8576C24.9868 51.8725 24.9118 51.8926 24.7747 51.8926V52.8926ZM25.4133 52.7775C25.5989 52.6997 25.7721 52.5809 25.8997 52.4054L25.091 51.8172C25.0936 51.8137 25.0832 51.8316 25.0266 51.8553L25.4133 52.7775ZM25.9058 52.3969C26.0308 52.2172 26.0891 52.0124 26.0891 51.8008H25.0891C25.0891 51.8145 25.0874 51.8207 25.087 51.8218C25.0868 51.8226 25.0865 51.8235 25.0849 51.8258L25.9058 52.3969ZM30.3528 44.582H30.8528V44.082H30.3528V44.582ZM30.3528 53.582V54.082H30.8528V53.582H30.3528ZM28.3782 53.582H27.8782V54.082H28.3782V53.582ZM28.3782 44.582V44.082H27.8782V44.582H28.3782ZM30.1184 50.1953L30.1311 50.6952L30.6184 50.6828V50.1953H30.1184ZM29.6555 50.207H29.1555V50.7198L29.6682 50.7069L29.6555 50.207ZM32.8254 47.2598L32.6609 47.7319L32.6631 47.7327L32.8254 47.2598ZM33.4993 47.6934L33.1351 48.0361L33.1387 48.0398L33.4993 47.6934ZM33.9387 48.4727L33.4621 48.6238L33.4638 48.629L33.9387 48.4727ZM34.0969 53.582V54.082H34.5969V53.582H34.0969ZM32.1106 53.582H31.6106V54.082H32.1106V53.582ZM31.9993 49.0352L31.5497 49.2539L31.5532 49.2613L31.5571 49.2685L31.9993 49.0352ZM31.6946 48.7363L31.4927 49.1939L31.5042 49.1987L31.6946 48.7363ZM30.3118 49.0938L29.8747 48.8509L29.8723 48.8552L30.3118 49.0938ZM29.8528 44.582V53.582H30.8528V44.582H29.8528ZM30.3528 53.082H28.3782V54.082H30.3528V53.082ZM28.8782 53.582V44.582H27.8782V53.582H28.8782ZM28.3782 45.082H30.3528V44.082H28.3782V45.082ZM30.1058 49.6955L29.6429 49.7072L29.6682 50.7069L30.1311 50.6952L30.1058 49.6955ZM30.1555 50.207C30.1555 49.8026 30.2052 49.4402 30.2996 49.1166L29.3396 48.8366C29.2152 49.2629 29.1555 49.7208 29.1555 50.207H30.1555ZM30.2996 49.1166C30.3949 48.7899 30.5273 48.5179 30.6917 48.2935L29.8849 47.7026C29.6431 48.0328 29.4631 48.4132 29.3396 48.8366L30.2996 49.1166ZM30.6917 48.2935C30.8534 48.0727 31.0415 47.9093 31.2564 47.7945L30.7851 46.9125C30.4297 47.1024 30.1295 47.3687 29.8849 47.7026L30.6917 48.2935ZM31.2564 47.7945C31.4636 47.6838 31.6981 47.625 31.97 47.625V46.625C31.5465 46.625 31.1482 46.7185 30.7851 46.9125L31.2564 47.7945ZM31.97 47.625C32.2344 47.625 32.463 47.663 32.6609 47.7319L32.99 46.7876C32.6722 46.6769 32.3305 46.625 31.97 46.625V47.625ZM32.6631 47.7327C32.8489 47.7965 33.004 47.8967 33.1352 48.036L33.8634 47.3507C33.6195 47.0916 33.3254 46.9028 32.9878 46.7869L32.6631 47.7327ZM33.1387 48.0398C33.2667 48.173 33.3788 48.361 33.4621 48.6238L34.4153 48.3215C34.2955 47.9437 34.1147 47.6122 33.8598 47.3469L33.1387 48.0398ZM33.4638 48.629C33.5478 48.8842 33.5969 49.2186 33.5969 49.6445H34.5969C34.5969 49.1485 34.5406 48.7018 34.4136 48.3163L33.4638 48.629ZM33.5969 49.6445V53.582H34.5969V49.6445H33.5969ZM34.0969 53.082H32.1106V54.082H34.0969V53.082ZM32.6106 53.582V49.6328H31.6106V53.582H32.6106ZM32.6106 49.6328C32.6106 49.3387 32.5702 49.0457 32.4415 48.8018L31.5571 49.2685C31.5768 49.3058 31.6106 49.4113 31.6106 49.6328H32.6106ZM32.4489 48.8164C32.3318 48.5758 32.1448 48.381 31.885 48.274L31.5042 49.1987C31.51 49.201 31.5261 49.2055 31.5497 49.2539L32.4489 48.8164ZM31.8964 48.2789C31.6832 48.1848 31.4481 48.1484 31.2083 48.1484V49.1484C31.3512 49.1484 31.4403 49.1707 31.4928 49.1938L31.8964 48.2789ZM31.2083 48.1484C30.9263 48.1484 30.649 48.1955 30.408 48.3258L30.8835 49.2055C30.9315 49.1795 31.0292 49.1484 31.2083 49.1484V48.1484ZM30.408 48.3258C30.1815 48.4482 30.0001 48.6251 29.8747 48.8509L30.7488 49.3366C30.7796 49.2811 30.821 49.2393 30.8835 49.2055L30.408 48.3258ZM29.8723 48.8552C29.7646 49.0536 29.6987 49.2744 29.6647 49.5079L30.6542 49.6522C30.6748 49.5107 30.7105 49.4073 30.7512 49.3323L29.8723 48.8552ZM29.6647 49.5079C29.6333 49.723 29.6184 49.9526 29.6184 50.1953H30.6184C30.6184 49.9927 30.6309 49.8121 30.6542 49.6522L29.6647 49.5079ZM38.1692 48.6133L37.8884 49.0271L37.8988 49.0339L38.1692 48.6133ZM37.0266 49.1934V49.6934H37.5266V49.1934H37.0266ZM35.052 49.1934H34.552V49.6934H35.052V49.1934ZM35.2454 48.3789L34.8023 48.1472L34.801 48.1498L35.2454 48.3789ZM35.8079 47.7168L35.5048 47.3191L35.5018 47.3214L35.8079 47.7168ZM36.6868 47.2832L36.8299 47.7623L36.8334 47.7612L36.6868 47.2832ZM39.1829 47.377L38.987 47.837L38.9886 47.8377L39.1829 47.377ZM40.1262 48.1328L39.7139 48.4157L39.7155 48.4179L40.1262 48.1328ZM40.5422 52.9258L40.0537 53.0324L40.0541 53.0342L40.5422 52.9258ZM40.7415 53.4824H41.2415V53.3568L41.182 53.246L40.7415 53.4824ZM40.7415 53.582V54.082H41.2415V53.582H40.7415ZM38.761 53.582L38.3102 53.7984L38.4464 54.082H38.761V53.582ZM38.55 52.8672L38.0556 52.9417L38.0569 52.9494L38.55 52.8672ZM38.7258 49.709L39.2258 49.7034L39.2203 49.209H38.7258V49.709ZM38.7375 50.7637V51.2637H39.2431L39.2375 50.7581L38.7375 50.7637ZM37.3958 50.8398L37.2125 50.3746L37.2076 50.3766L37.3958 50.8398ZM37.0911 51.0508L36.7138 50.7227L36.7127 50.724L37.0911 51.0508ZM36.927 51.3438L36.451 51.1907L36.4485 51.1985L36.4462 51.2064L36.927 51.3438ZM36.9622 52.0059L36.5303 52.2578L36.5365 52.2686L36.5434 52.279L36.9622 52.0059ZM38.0813 52.1699L38.3184 52.6102L38.3223 52.608L38.0813 52.1699ZM38.5618 51.5195L39.0024 51.2832L38.0618 51.5195H38.5618ZM38.9954 52.3281L39.4426 52.5517L39.5584 52.3201L39.436 52.0918L38.9954 52.3281ZM38.7258 52.8027L38.3035 52.5349L38.2989 52.5424L38.7258 52.8027ZM38.3567 53.248L38.695 53.6162L38.6954 53.6158L38.3567 53.248ZM37.8235 53.5762L38.0047 54.0422L38.0121 54.0392L37.8235 53.5762ZM35.9778 53.459L35.7563 53.9073L35.7585 53.9083L35.9778 53.459ZM35.1985 52.791L34.7842 53.0709L34.786 53.0736L35.1985 52.791ZM35.0813 50.916L34.6287 50.7034L34.6261 50.7091L35.0813 50.916ZM38.9856 51.9883V49.375H37.9856V51.9883H38.9856ZM38.9856 49.375C38.9856 49.1503 38.9541 48.9306 38.8746 48.7288L37.9442 49.0954C37.9663 49.1514 37.9856 49.2403 37.9856 49.375H38.9856ZM38.8746 48.7288C38.7881 48.5091 38.6431 48.3235 38.4396 48.1927L37.8988 49.0339C37.914 49.0436 37.9292 49.0573 37.9442 49.0954L38.8746 48.7288ZM38.4499 48.1995C38.2312 48.0511 37.9758 48.002 37.7297 48.002V49.002C37.8509 49.002 37.8884 49.027 37.8884 49.027L38.4499 48.1995ZM37.7297 48.002C37.5257 48.002 37.3207 48.0367 37.132 48.1276L37.5658 49.0286C37.588 49.018 37.6369 49.002 37.7297 49.002V48.002ZM37.132 48.1276C36.9329 48.2235 36.7739 48.3736 36.6684 48.5696L37.5489 49.0437C37.5507 49.0403 37.5521 49.0383 37.5528 49.0373C37.5535 49.0364 37.554 49.0359 37.5543 49.0356C37.5545 49.0355 37.5572 49.0328 37.5658 49.0286L37.132 48.1276ZM36.6684 48.5696C36.5631 48.7652 36.5266 48.9824 36.5266 49.1934H37.5266C37.5266 49.0918 37.5449 49.0512 37.5489 49.0437L36.6684 48.5696ZM37.0266 48.6934H35.052V49.6934H37.0266V48.6934ZM35.552 49.1934C35.552 48.9767 35.5989 48.7842 35.6898 48.6081L34.801 48.1498C34.634 48.4736 34.552 48.8241 34.552 49.1934H35.552ZM35.6884 48.6107C35.7856 48.4248 35.9247 48.2587 36.1139 48.1122L35.5018 47.3214C35.2067 47.5499 34.9707 47.8252 34.8023 48.1472L35.6884 48.6107ZM36.1109 48.1145C36.3026 47.9685 36.5395 47.8491 36.8299 47.7623L36.5436 46.8041C36.1544 46.9205 35.8054 47.0901 35.5048 47.3191L36.1109 48.1145ZM36.8334 47.7612C37.1223 47.6726 37.4547 47.625 37.8352 47.625V46.625C37.372 46.625 36.9388 46.6829 36.5401 46.8052L36.8334 47.7612ZM37.8352 47.625C38.2834 47.625 38.6643 47.6996 38.987 47.837L39.3787 46.9169C38.9124 46.7184 38.3948 46.625 37.8352 46.625V47.625ZM38.9886 47.8377C39.3045 47.9709 39.541 48.1636 39.7139 48.4157L40.5385 47.85C40.2505 47.4301 39.8581 47.119 39.3771 46.9162L38.9886 47.8377ZM39.7155 48.4179C39.8749 48.6476 39.9719 48.9594 39.9719 49.3867H40.9719C40.9719 48.8062 40.8385 48.2821 40.537 47.8477L39.7155 48.4179ZM39.9719 49.3867V51.9824H40.9719V49.3867H39.9719ZM39.9719 51.9824C39.9719 52.4068 39.9952 52.7642 40.0537 53.0324L41.0307 52.8192C40.9955 52.6577 40.9719 52.3862 40.9719 51.9824H39.9719ZM40.0541 53.0342C40.1091 53.2817 40.1897 53.5117 40.3009 53.7188L41.182 53.246C41.1213 53.1329 41.0691 52.9918 41.0303 52.8173L40.0541 53.0342ZM40.2415 53.4824V53.582H41.2415V53.4824H40.2415ZM40.7415 53.082H38.761V54.082H40.7415V53.082ZM39.2117 53.3657C39.1437 53.2238 39.0847 53.0335 39.0432 52.785L38.0569 52.9494C38.1092 53.2634 38.1908 53.5496 38.3102 53.7984L39.2117 53.3657ZM39.0445 52.7927C39.0054 52.5332 38.9856 52.2652 38.9856 51.9883H37.9856C37.9856 52.3129 38.0088 52.6308 38.0556 52.9417L39.0445 52.7927ZM38.2259 49.7145L38.2376 50.7692L39.2375 50.7581L39.2258 49.7034L38.2259 49.7145ZM38.7375 50.2637H37.8645V51.2637H38.7375V50.2637ZM37.8645 50.2637C37.6374 50.2637 37.4153 50.2947 37.2125 50.3746L37.579 51.305C37.634 51.2834 37.7244 51.2637 37.8645 51.2637V50.2637ZM37.2076 50.3766C37.0196 50.453 36.8499 50.5661 36.7138 50.7227L37.4684 51.3789C37.4884 51.3558 37.5219 51.3283 37.5839 51.3031L37.2076 50.3766ZM36.7127 50.724C36.594 50.8613 36.5064 51.0182 36.451 51.1907L37.403 51.4968C37.4179 51.4505 37.4397 51.4121 37.4695 51.3776L36.7127 50.724ZM36.4462 51.2064C36.4014 51.3632 36.3801 51.5249 36.3801 51.6895H37.3801C37.3801 51.6118 37.3901 51.543 37.4078 51.4811L36.4462 51.2064ZM36.3801 51.6895C36.3801 51.8879 36.4274 52.0815 36.5303 52.2578L37.394 51.7539C37.3875 51.7427 37.3801 51.7254 37.3801 51.6895H36.3801ZM36.5434 52.279C36.6502 52.4428 36.794 52.571 36.9659 52.6604L37.4272 51.7732C37.4038 51.761 37.3913 51.7486 37.381 51.7327L36.5434 52.279ZM36.9659 52.6604C37.1417 52.7518 37.3314 52.793 37.5247 52.793V51.793C37.4757 51.793 37.4467 51.7833 37.4272 51.7732L36.9659 52.6604ZM37.5247 52.793C37.8048 52.793 38.0764 52.7404 38.3183 52.6102L37.8442 51.7297C37.7815 51.7635 37.6821 51.793 37.5247 51.793V52.793ZM38.3223 52.608C38.5328 52.4922 38.7176 52.3392 38.8527 52.1398L38.0248 51.579C37.9958 51.6217 37.9422 51.6758 37.8403 51.7318L38.3223 52.608ZM38.8527 52.1398C38.9698 51.9669 39.0618 51.7568 39.0618 51.5195H38.0618C38.0618 51.4932 38.0717 51.5096 38.0248 51.579L38.8527 52.1398ZM38.1211 51.7558L38.5547 52.5644L39.436 52.0918L39.0024 51.2832L38.1211 51.7558ZM38.5481 52.1045C38.4782 52.2444 38.3968 52.3879 38.3036 52.535L39.1481 53.0705C39.2579 52.8973 39.3563 52.7243 39.4426 52.5517L38.5481 52.1045ZM38.2989 52.5424C38.2273 52.6599 38.1347 52.7727 38.018 52.8803L38.6954 53.6158C38.8755 53.4499 39.0291 53.2658 39.1527 53.063L38.2989 52.5424ZM38.0184 52.8799C37.9241 52.9665 37.7993 53.0461 37.6348 53.1131L38.0121 54.0392C38.2695 53.9344 38.5002 53.7952 38.695 53.6162L38.0184 52.8799ZM37.6423 53.1102C37.5047 53.1637 37.3139 53.1992 37.0559 53.1992V54.1992C37.3994 54.1992 37.7204 54.1527 38.0047 54.0422L37.6423 53.1102ZM37.0559 53.1992C36.7359 53.1992 36.4522 53.1342 36.1971 53.0097L35.7585 53.9083C36.1596 54.1041 36.5947 54.1992 37.0559 54.1992V53.1992ZM36.1992 53.0107C35.9482 52.8867 35.7556 52.7196 35.611 52.5085L34.786 53.0736C35.032 53.4327 35.359 53.711 35.7563 53.9073L36.1992 53.0107ZM35.6128 52.5111C35.4776 52.311 35.4055 52.078 35.4055 51.7949H34.4055C34.4055 52.2618 34.5288 52.6929 34.7842 53.0709L35.6128 52.5111ZM35.4055 51.7949C35.4055 51.5269 35.4532 51.3062 35.5365 51.1229L34.6261 50.7091C34.4751 51.0414 34.4055 51.4067 34.4055 51.7949H35.4055ZM35.5339 51.1286C35.6178 50.95 35.7443 50.7947 35.9241 50.6613L35.3283 49.8582C35.0238 50.0842 34.787 50.3664 34.6287 50.7034L35.5339 51.1286ZM35.9241 50.6613C36.1009 50.5302 36.3449 50.4168 36.6733 50.3347L36.4307 49.3645C36.0092 49.4699 35.6359 49.63 35.3283 49.8582L35.9241 50.6613ZM36.6733 50.3347C36.9985 50.2534 37.3973 50.209 37.8762 50.209V49.209C37.3395 49.209 36.8555 49.2583 36.4307 49.3645L36.6733 50.3347ZM37.8762 50.209H38.7258V49.209H37.8762V50.209Z" fill="black" mask="url(#path-3-outside-1_3219_5241)"/>
<defs>
<linearGradient id="paint0_linear_3219_5241" x1="29.4699" y1="-34.2914" x2="29.4699" y2="68.1537" gradientUnits="userSpaceOnUse">
<stop stop-color="#C3DDEE"/>
<stop offset="0.0617003" stop-color="#61819D"/>
<stop offset="0.121034" stop-color="#61819D"/>
<stop offset="0.531452" stop-color="#022347"/>
<stop offset="0.82991" stop-color="#010C1C"/>
<stop offset="1" stop-color="#1C1B1B"/>
</linearGradient>
</defs>
</svg>
