<svg width="37" height="37" viewBox="0 0 37 37" fill="none" xmlns="http://www.w3.org/2000/svg">
<circle cx="18.5" cy="18.5" r="18.5" fill="#B3D2FE"/>
<path d="M1.93665 23C1.32957 21.2363 1 19.3448 1 17.3769C1 7.77976 8.83485 0 18.5 0C28.1651 0 36 7.77976 36 17.3769C36 19.2477 35.7023 21.0501 35.1514 22.7385L1.93698 23H1.93665Z" fill="#FBB040"/>
<path d="M10.6865 31.3613V29.8206H18.7546H26.2508V31.3613H10.6865Z" fill="#231F20"/>
<path d="M10.9021 21.0179H5.77832V31.3613H10.9021V21.0179Z" fill="#414042"/>
<path d="M7.2967 22.125C7.95369 22.2006 8.07021 22.806 8.07021 22.806V24.865H6.52344V22.806C6.52344 22.806 6.6397 22.2006 7.29644 22.125H7.2967Z" fill="white"/>
<path d="M9.28621 22.125C9.9432 22.2006 10.0595 22.806 10.0595 22.806V24.865H8.5127V22.806C8.5127 22.806 8.62896 22.2006 9.28595 22.125H9.28621Z" fill="white"/>
<path d="M7.2967 26.884C7.95369 26.9599 8.07021 27.5653 8.07021 27.5653V29.6243H6.52344V27.5653C6.52344 27.5653 6.6397 26.9599 7.29644 26.884H7.2967Z" fill="white"/>
<path d="M9.28621 26.884C9.9432 26.9599 10.0595 27.5653 10.0595 27.5653V29.6243H8.5127V27.5653C8.5127 27.5653 8.62896 26.9599 9.28595 26.884H9.28621Z" fill="white"/>
<path d="M31.0898 21.0179H26.1807V31.3613H31.0898V21.0179Z" fill="#414042"/>
<path d="M10.7493 27.5714L10.6865 19.0398L18.4224 16.8804L26.1873 18.9172L26.2508 27.522C25.1437 27.3107 25.0065 25.7188 25.0065 25.7188C24.8357 27.3829 23.957 27.5403 23.957 27.5403C22.7432 27.4035 22.4978 25.7387 22.4978 25.7387C22.2514 27.4027 21.3944 27.561 21.3944 27.561C20.3339 27.3486 20.1076 25.5224 20.1076 25.5224C19.9442 27.2424 18.5039 27.8886 18.5039 27.8886C18.5039 27.8886 17.0522 27.2657 16.8623 25.5478C16.8623 25.5478 16.664 27.3782 15.6078 27.6067C15.6078 27.6067 14.7468 27.4621 14.4764 25.8027C14.4764 25.8027 14.2552 27.4713 13.0444 27.6269C13.0444 27.6269 12.1627 27.4833 11.967 25.8224C11.967 25.8224 11.8535 27.4171 10.7496 27.6457V27.5717L10.7493 27.5714Z" fill="#231F20"/>
<path d="M10.668 16.4556L18.4026 14.0266L26.1687 16.333L26.1813 18.1364L18.4167 16.051L10.6813 18.2583L10.668 16.4556Z" fill="#231F20"/>
<path d="M25.2754 10.7968L25.0903 11.3099C25.0903 11.3099 25.11 12.0825 25.0986 12.627C25.0888 13.172 24.7831 13.309 24.7831 13.309L23.852 13.3161L22.9176 13.3236C22.9176 13.3236 22.6099 13.1905 22.5904 12.6466C22.5723 12.1023 22.5809 11.3298 22.5809 11.3298L22.3884 10.8193L23.2588 10.3253L23.8278 10.0052L24.3975 10.3169L25.2754 10.7963V10.7968ZM24.9059 12.0469L24.9001 11.2582L24.4976 10.9979L24.5034 11.8672L24.9059 12.0469ZM24.2467 11.8693L24.2409 11.0003L23.8351 11.0037L23.4257 11.0066L23.4321 11.8759L23.8414 11.8727L24.2467 11.8693ZM23.1776 11.8777L23.1718 11.0089L22.7695 11.2757L22.7753 12.0636L23.1776 11.878V11.8777Z" fill="#414042"/>
<path d="M24.9001 11.2584L24.9061 12.0469L24.5036 11.8675L24.4978 10.9979L24.9001 11.2584Z" fill="#FBB040"/>
<path d="M24.2409 11L24.2467 11.8693L23.8414 11.8725L23.4321 11.8756L23.4258 11.0063L23.8351 11.0034L24.2409 11Z" fill="#FBB040"/>
<path d="M23.868 7.16038L23.8743 8.00353L24.3976 8.56423C24.3976 8.56423 24.4309 8.78966 24.4016 9.06138C24.3754 9.33362 24.1583 9.39743 24.1583 9.39743C24.4965 9.57631 24.3946 10.0015 24.3946 10.0015L24.3974 10.3177L23.8276 10.006L23.2586 10.3261L23.2564 10.0104C23.2564 10.0104 23.153 9.58677 23.4861 9.40319C23.4861 9.40319 23.2665 9.3433 23.2362 9.07106C23.2052 8.79907 23.2327 8.57417 23.2327 8.57417L23.7479 8.00431L23.7419 7.16117V7.15594C23.7615 7.15907 23.7842 7.16117 23.8069 7.1609C23.8291 7.1609 23.8483 7.1609 23.868 7.15515V7.16064V7.16038Z" fill="#414042"/>
<path d="M23.7417 7.15571C23.5067 7.12485 23.3241 6.91851 23.322 6.66719C23.321 6.55578 23.3584 6.44986 23.4186 6.36748C23.3886 6.4292 23.3722 6.49641 23.3732 6.56912C23.3748 6.81599 23.5672 7.01292 23.805 7.01109C24.0426 7.00899 24.2325 6.80945 24.2307 6.56258C24.2302 6.48987 24.2095 6.42319 24.1788 6.36121C24.2406 6.44202 24.2822 6.54767 24.2829 6.65908C24.2837 6.91066 24.1046 7.12276 23.8678 7.1544C23.8481 7.15989 23.829 7.16015 23.8068 7.16015C23.7841 7.16015 23.7614 7.15832 23.7417 7.15518V7.15571Z" fill="#414042"/>
<path d="M23.1713 11.0088L23.1771 11.8778L22.7748 12.0635L22.769 11.2755L23.1713 11.0088Z" fill="#FBB040"/>
<path d="M14.3662 10.8829L14.1811 11.3963C14.1811 11.3963 14.2008 12.1686 14.1907 12.7133C14.1804 13.2581 13.8742 13.3954 13.8742 13.3954L12.9393 13.4024L12.0084 13.41C12.0084 13.41 11.6994 13.2771 11.6813 12.7327C11.6631 12.1882 11.6714 11.4159 11.6714 11.4159L11.479 10.9057L12.3501 10.4117L12.9146 10.0913L13.4873 10.4028L14.366 10.8824L14.3662 10.8829ZM13.9942 12.133L13.9884 11.3445L13.5854 11.0843L13.592 11.9533L13.9942 12.133ZM13.3383 11.9557L13.3317 11.0866L12.9221 11.0895L12.5156 11.0932L12.5224 11.9622L12.9284 11.9586L13.3383 11.9557ZM12.2656 11.9643L12.2593 11.0953L11.8601 11.3618L11.8654 12.1502L12.2656 11.9646V11.9643Z" fill="#414042"/>
<path d="M13.9877 11.3448L13.9935 12.133L13.5913 11.9536L13.5847 11.0846L13.9877 11.3448Z" fill="#FBB040"/>
<path d="M13.3315 11.0865L13.3381 11.9558L12.9282 11.9585L12.5222 11.9621L12.5154 11.0931L12.9219 11.0894L13.3315 11.0865Z" fill="#FBB040"/>
<path d="M12.8323 7.24747V7.24198C12.8522 7.24747 12.8714 7.24721 12.8941 7.24721C12.9171 7.24721 12.9395 7.24434 12.9589 7.24094V7.24669L12.9652 8.08983L13.4888 8.65054C13.4888 8.65054 13.5191 8.8757 13.4926 9.14769C13.4664 9.41993 13.2464 9.484 13.2464 9.484C13.5839 9.66236 13.485 10.0879 13.485 10.0879L13.4875 10.4035L12.9148 10.092L12.3503 10.4124L12.3476 10.097C12.3476 10.097 12.2434 9.67282 12.5748 9.48923C12.5748 9.48923 12.3572 9.42935 12.3266 9.1571C12.2946 8.8859 12.3226 8.65995 12.3226 8.65995L12.8389 8.09088L12.8323 7.24774V7.24747Z" fill="#414042"/>
<path d="M12.8941 7.24723C12.8714 7.24723 12.8523 7.24723 12.8323 7.242C12.5953 7.21454 12.4129 7.00454 12.4109 6.75321C12.4104 6.64155 12.4492 6.53589 12.5105 6.45377C12.48 6.51602 12.4606 6.58244 12.4608 6.65567C12.4628 6.90202 12.656 7.09895 12.8934 7.09738C13.1299 7.09528 13.3208 6.89574 13.3193 6.64861C13.3183 6.5759 13.3012 6.50922 13.2697 6.44724C13.333 6.52883 13.37 6.6337 13.3705 6.74511C13.3726 6.99643 13.1937 7.20643 12.9589 7.24043C12.9395 7.24409 12.9171 7.24644 12.8941 7.2467V7.24723Z" fill="#414042"/>
<path d="M12.2593 11.0953L12.2657 11.9644L11.8657 12.1501L11.8601 11.3616L12.2593 11.0953Z" fill="#FBB040"/>
<path d="M13.8055 13.6738L13.8158 15.0986L12.0928 15.6794L12.0781 13.6872L13.8055 13.6738Z" fill="#414042"/>
<path d="M24.7186 13.5873L24.7332 15.5798L23.0018 15.0262L22.9915 13.6009L24.7186 13.5873Z" fill="#414042"/>
<path d="M17.4844 19.1902L17.4766 18.0959L15.1934 18.6603L15.2007 19.6946L17.4844 19.1902Z" fill="#FBB040"/>
<path d="M13.4669 20.0292L13.4601 19.1042L11.6465 19.5813L11.6528 20.4472L13.4669 20.0292Z" fill="#FBB040"/>
<path d="M19.3955 19.1749L19.3877 18.0807L21.6777 18.6093L21.6855 19.6438L19.3955 19.1749Z" fill="#FBB040"/>
<path d="M23.4238 19.9494L23.417 19.0249L25.2372 19.4734L25.2437 20.339L23.4238 19.9494Z" fill="#FBB040"/>
<path d="M26.188 18.9175L26.1814 18.1366L18.4168 16.0512L10.6814 18.2585L10.6872 19.0399L18.4231 16.8808L26.188 18.9175Z" fill="#FBB040"/>
<path d="M29.5723 22.125C28.9153 22.2006 28.7988 22.806 28.7988 22.806V24.865H30.3459V22.806C30.3459 22.806 30.2291 22.2006 29.5726 22.125H29.5723Z" fill="white"/>
<path d="M27.5816 22.125C26.9249 22.2006 26.8086 22.806 26.8086 22.806V24.865H28.3556V22.806C28.3556 22.806 28.2394 22.2006 27.5819 22.125H27.5816Z" fill="white"/>
<path d="M29.5723 26.884C28.9153 26.9599 28.7988 27.5653 28.7988 27.5653V29.6243H30.3459V27.5653C30.3459 27.5653 30.2291 26.9599 29.5726 26.884H29.5723Z" fill="white"/>
<path d="M27.5816 26.884C26.9249 26.9599 26.8086 27.5653 26.8086 27.5653V29.6243H28.3556V27.5653C28.3556 27.5653 28.2394 26.9599 27.5819 26.884H27.5816Z" fill="white"/>
<path d="M31.801 10.6226L26.251 10.7761L31.801 11.0951V10.6226Z" fill="white"/>
<path d="M31.1306 11.2016L25.5808 11.3551L31.1306 11.6739V11.2016Z" fill="white"/>
<path d="M32.5822 17.8447L27.0322 17.9985L32.5822 18.3176V17.8447Z" fill="white"/>
<path d="M26.2014 5L20.6516 5.15377L26.2014 5.47257V5Z" fill="white"/>
<path d="M6.9668 7.66431L12.5168 7.81782L6.9668 8.13688V7.66431Z" fill="white"/>
<path d="M6.09668 8.35425L11.6467 8.50776L6.09668 8.82682V8.35425Z" fill="white"/>
<path d="M5 15.4433L10.55 15.5968L5 15.9156V15.4433Z" fill="white"/>
<path d="M5.11792 16.1424L10.6679 16.2959L5.11792 16.615V16.1424Z" fill="white"/>
</svg>
