<svg width="39" height="39" viewBox="0 0 39 39" fill="none" xmlns="http://www.w3.org/2000/svg">
<g filter="url(#filter0_d_1999_138)">
<circle cx="19.5" cy="18.5" r="15.5" fill="white"/>
<circle cx="19.5" cy="18.5" r="15" stroke="#FDFDFD"/>
</g>
<path d="M19.4072 29C19.1163 28.9632 18.8253 28.9259 18.5343 28.8891V28.8247C18.616 28.8247 18.6982 28.8218 18.7792 28.8247C21.5548 28.9259 24.0121 28.1713 26.0818 26.4483C27.8351 24.9885 28.9154 23.1684 29.2506 21.0075C29.7266 17.9391 28.7821 15.2695 26.4158 13.0724C25.1037 11.854 23.4669 11.1489 21.6234 10.892C18.4957 10.4563 15.8054 11.2937 13.5681 13.3391C12.6005 14.2241 11.8747 15.2684 11.4772 16.4833C11.3146 16.9816 11.5009 17.2914 12.0398 17.4149C12.818 17.5931 13.5837 17.5644 14.2927 17.1736C14.679 16.9609 14.7014 16.8351 14.4696 16.4793C14.246 16.1356 14.0192 15.7925 13.8105 15.4408C13.7563 15.3494 13.7158 15.1994 13.7619 15.1259C13.8036 15.0592 13.9799 15.0201 14.0834 15.0374C14.621 15.1299 15.1519 15.2534 15.6896 15.3471C16.0603 15.4115 16.4372 15.4443 16.7855 15.4879C16.6976 14.9609 16.578 14.4897 16.5487 14.0138C16.5057 13.3132 17.1325 12.8 17.8422 12.7443C17.8503 12.9126 17.8397 13.0839 17.8702 13.2489C18.016 14.0322 18.6153 14.4891 19.6153 14.5569C19.9536 14.5799 20.2969 14.5276 20.6377 14.5316C21.1137 14.5374 21.6003 14.5121 22.0632 14.5925C23.0059 14.7563 23.3373 14.2115 23.1012 13.454C23.0289 13.223 22.8913 13.0092 22.7835 12.7879C23.3373 12.5851 24.1834 13.0057 24.4588 13.6534C24.6451 14.092 24.6133 14.5374 24.47 14.9736C24.3685 15.2822 24.2102 15.5747 24.1012 15.8822C24.0675 15.9776 24.0925 16.1034 24.1292 16.204C24.1641 16.3006 24.2675 16.3753 24.3068 16.4713C24.4488 16.8167 24.6663 17.0448 25.0875 17.1477C25.4507 17.2368 25.485 17.4707 25.2675 17.7718C25.0438 18.0822 25.0513 18.1517 25.3373 18.4057C25.9055 18.9103 26.4768 19.4115 27.0394 19.9213C27.1865 20.0546 27.3211 20.2046 27.4344 20.3632C27.8581 20.9563 27.9254 21.5552 27.4868 22.1816C27.0999 22.7345 26.6837 23.2431 25.9149 23.3276C25.675 23.354 25.422 23.3138 25.1803 23.2764C24.7566 23.2115 24.3654 23.2305 23.9996 23.4793C23.4532 23.8506 22.7804 23.8678 22.1492 24C21.8171 24.0695 21.4826 24.1356 21.158 24.2293C20.5069 24.4178 19.9761 24.7552 19.5848 25.2885C19.1032 25.9454 18.6066 26.5943 18.082 27.2224C17.7119 27.6655 17.2409 27.9885 16.5817 27.9655C16.0584 27.9471 15.6135 27.5833 15.6129 27.0971C15.6129 26.7092 15.692 26.3207 15.745 25.9333C15.8385 25.2489 15.8191 24.5816 15.4702 23.9483C15.365 23.7569 15.3718 23.569 15.5986 23.4C15.9643 23.7655 15.8372 24.3517 16.3886 24.7115C16.4428 24.3621 16.5363 24.0776 16.5213 23.7977C16.4771 22.9586 16.4011 22.1201 16.3182 21.2833C16.2646 20.742 16.1668 20.2046 16.1126 19.6638C16.0964 19.4983 16.1388 19.3195 16.1936 19.158C16.2571 18.9707 16.4297 18.9052 16.5637 19.0753C16.7113 19.2632 16.8191 19.4874 16.8951 19.7098C16.9506 19.8718 16.8665 19.9086 16.5874 19.8713C16.3705 20.1276 16.5338 20.4052 16.5718 20.6621C16.6889 21.446 16.8235 22.2282 16.9824 23.0057C17.1381 23.7701 16.9101 24.4805 16.6989 25.2006C16.578 25.6132 16.4802 26.0328 16.3992 26.454C16.3562 26.6793 16.4104 26.9075 16.6634 27.0184C16.9001 27.1224 17.1213 27.0264 17.2876 26.8776C17.6004 26.5983 17.8907 26.2977 18.1886 26.0046C18.3518 25.8437 18.5188 25.6856 18.6702 25.5161C19.5904 24.4874 20.8066 23.9086 22.1673 23.5454C22.2913 23.5121 22.4078 23.4552 22.528 23.4092C22.5311 23.3805 22.5349 23.3517 22.538 23.323C22.3928 23.2805 22.2514 23.2218 22.1025 23.1983C21.8888 23.1649 21.6657 23.173 21.4551 23.1305C21.3661 23.1126 21.2969 23.0103 21.219 22.946C21.2938 22.8764 21.3748 22.7437 21.4427 22.7488C21.6925 22.7684 21.9916 22.7678 22.176 22.8943C22.7274 23.273 23.2807 23.2506 23.837 22.9787C24.3984 22.704 24.9641 22.8287 25.5385 22.8701C25.8251 22.8908 26.118 22.8747 26.4033 22.8414C26.5211 22.8276 26.6899 22.7431 26.7192 22.6569C26.7491 22.5701 26.6625 22.4172 26.579 22.3345C26.28 22.0374 25.8924 22.0782 25.5055 22.1282C25.0376 22.1885 24.5678 22.2851 24.0993 22.2828C23.6875 22.281 23.4725 22.0477 23.4015 21.7034C23.3361 21.3845 23.5037 21.042 23.8358 20.8828C24.1323 20.7402 24.4925 20.6862 24.6146 20.3293C24.627 20.2925 24.7404 20.2667 24.8058 20.2678C24.9815 20.2707 25.1591 20.3138 25.3311 20.2994C25.536 20.2816 25.8008 20.2787 25.9236 20.1644C26.1117 19.9885 26.161 19.7 26.0089 19.4695C25.8787 19.273 25.7036 19.0707 25.4937 18.9563C25.0794 18.7299 24.8158 18.4943 24.6931 18.0057C24.5523 17.4483 24.1529 16.9448 23.857 16.423C23.7616 16.2546 23.6239 16.1063 23.5274 15.9385C23.3978 15.7138 23.4482 15.5414 23.6869 15.3753C24.1566 15.0483 24.247 14.5626 24.1922 14.0626C24.1467 13.6454 23.8943 13.3414 23.414 13.1902C23.5573 13.681 23.5567 14.1506 23.3835 14.6121C23.2962 14.8454 23.1511 15.0282 22.8414 14.9845C22.4601 14.931 22.1586 15.0431 21.9766 15.3557C21.7679 15.7144 21.7455 16.0902 21.9829 16.4471C22.0788 16.5914 22.2134 16.7184 22.3486 16.8351C22.6159 17.0655 22.7405 17.3477 22.8495 17.669C22.9953 18.0989 23.2433 18.5006 23.4582 18.9092C23.5704 19.123 23.7286 19.3178 23.8271 19.5356C23.9741 19.8621 23.908 20.1782 23.6607 20.4466C23.4283 20.6989 23.1118 20.6224 22.8184 20.5856C22.667 20.5667 22.51 20.5259 22.3748 20.4615C21.5598 20.0713 20.7125 20.1466 19.8558 20.2885C19.6215 20.327 19.3842 20.354 19.1474 20.3724C18.6328 20.4126 18.2353 20.1948 17.9443 19.8316C17.6995 19.5259 17.5045 19.1862 17.2926 18.8592C17.2185 18.7448 17.1649 18.6195 17.0908 18.5046C16.9419 18.2736 16.7475 18.0644 16.4328 18.0989C16.0945 18.1356 15.8434 18.3569 15.798 18.6552C15.7375 19.0557 15.7618 19.4684 15.7625 19.8759C15.7625 20.054 15.8216 20.2351 15.8011 20.4092C15.7905 20.4994 15.664 20.5776 15.5905 20.6615C15.5107 20.5937 15.4023 20.5391 15.3562 20.4557C15.1394 20.0661 15.1307 19.646 15.198 19.2241C15.2403 18.9603 15.3269 18.7023 15.3593 18.4379C15.3731 18.327 15.297 18.2063 15.2622 18.0902C15.1444 18.1621 14.9519 18.2144 14.9226 18.3098C14.7918 18.7287 14.6298 19.1592 14.6242 19.5868C14.6148 20.3006 14.674 21.0207 14.7793 21.7293C14.983 23.0971 14.3482 24.3259 13.117 24.8322C12.1725 25.2207 11.3077 25.0374 10.6884 24.2701C9.98502 23.3989 9.58628 22.3925 9.32523 21.3454C9.18691 20.7902 9.14454 20.2144 9.0567 19.6483C9.04361 19.5655 9.01931 19.4839 9 19.4023C9 19.1339 9 18.8661 9 18.5977C9.05981 18.173 9.10716 17.7466 9.18193 17.3241C9.88596 13.35 13.299 10.0552 17.5699 9.23793C18.1344 9.12989 18.7113 9.07759 19.2826 9C19.6564 9 20.0303 9 20.4041 9C20.8944 9.06092 21.3879 9.10287 21.8738 9.18563C26.1117 9.90805 29.5683 13.0368 30.4375 16.9362C30.539 17.3908 30.6026 17.8523 30.6842 18.3103V19.7471C30.6655 19.8 30.6344 19.8523 30.6306 19.9063C30.549 20.9718 30.2767 21.9983 29.7989 22.9667C28.2668 26.0701 25.7086 28.0316 22.0832 28.7695C21.5517 28.8776 21.0059 28.9247 20.467 29H19.4078H19.4072ZM17.5487 13.0132C17.1824 13.1471 16.9942 13.3523 16.9107 13.6339C16.7057 14.3213 16.9525 14.8937 17.4702 15.3828C17.6029 15.508 17.7587 15.7494 17.9736 15.558C18.1643 15.3879 17.958 15.2121 17.8372 15.0603C17.7082 14.8983 17.5805 14.7356 17.4085 14.5172C17.6839 14.6816 17.8721 14.8115 18.0789 14.9069C18.1481 14.9391 18.2646 14.8839 18.3593 14.8684C18.33 14.7925 18.3244 14.6937 18.2677 14.6448C17.7649 14.2126 17.4584 13.7063 17.5493 13.0121L17.5487 13.0132ZM20.5031 17.473C20.0508 17.65 19.6446 17.8086 19.2384 17.9672C19.5954 18.1874 19.9449 18.4253 20.3119 18.4506C20.6651 18.4747 21.0358 18.2787 21.4788 18.158C21.3467 18.4621 21.2321 18.7259 21.1162 18.9914C21.4651 19.0506 21.6738 18.8644 21.6701 18.5207C21.6651 18.054 21.1368 17.3839 20.6489 17.2494C20.3997 17.181 20.1455 17.1776 19.9181 17.3575C20.1187 17.3971 20.3013 17.4328 20.5025 17.473H20.5031ZM24.1666 21.3425C24.4208 21.6402 25.2127 21.6586 25.5398 21.3316C25.3298 21.2356 25.1373 21.1477 24.9398 21.0569C24.8189 21.5443 24.3766 21.1471 24.1666 21.342V21.3425ZM27.2052 21.3132C27.1697 21.3098 27.1341 21.3069 27.0986 21.3034C26.9859 21.3994 26.8731 21.4948 26.7597 21.5908C26.7753 21.6236 26.7908 21.6557 26.8058 21.6885C26.9391 21.6489 27.0855 21.6276 27.1983 21.5592C27.2407 21.5333 27.2052 21.3983 27.2052 21.3132Z" fill="#3C987A"/>
<path d="M20.3853 18.3604C20.1822 18.3391 19.8831 18.3529 19.8782 18.0949C19.8738 17.8598 20.1411 17.7685 20.3853 17.7363V18.3598V18.3604Z" fill="#3C987A"/>
<defs>
<filter id="filter0_d_1999_138" x="0" y="0" width="39" height="39" filterUnits="userSpaceOnUse" color-interpolation-filters="sRGB">
<feFlood flood-opacity="0" result="BackgroundImageFix"/>
<feColorMatrix in="SourceAlpha" type="matrix" values="0 0 0 0 0 0 0 0 0 0 0 0 0 0 0 0 0 0 127 0" result="hardAlpha"/>
<feOffset dy="1"/>
<feGaussianBlur stdDeviation="2"/>
<feComposite in2="hardAlpha" operator="out"/>
<feColorMatrix type="matrix" values="0 0 0 0 0 0 0 0 0 0 0 0 0 0 0 0 0 0 0.25 0"/>
<feBlend mode="normal" in2="BackgroundImageFix" result="effect1_dropShadow_1999_138"/>
<feBlend mode="normal" in="SourceGraphic" in2="effect1_dropShadow_1999_138" result="shape"/>
</filter>
</defs>
</svg>
