<svg width="194" height="26" viewBox="0 0 194 26" fill="none" xmlns="http://www.w3.org/2000/svg">
<mask id="path-1-outside-1_2953_13366" maskUnits="userSpaceOnUse" x="4" y="-6" width="190" height="35" fill="black">
<rect fill="white" x="4" y="-6" width="190" height="35"/>
<path d="M15.4618 16.064C15.7818 14.624 15.6538 12.992 14.5978 12.992C12.0378 12.992 11.0778 20.16 15.8458 20.16C18.3098 20.16 20.5498 18.688 22.7898 14.784C23.9738 15.072 26.1178 15.68 27.7498 16.16C25.8938 19.904 22.3098 24.672 14.8538 24.672C0.61375 24.672 5.18975 2.336 17.8618 2.336C22.4698 2.336 24.5818 5.984 25.0298 8.864C21.8618 11.232 18.6298 13.696 15.4618 16.064ZM34.5788 15.968L38.7388 15.744L37.2668 7.584L34.5788 15.968ZM39.4108 19.52L33.3628 19.744L31.8908 24.384L28.1788 21.824L33.8428 1.6L45.7148 2.464L49.8108 22.528L40.3708 24.864L39.4108 19.52ZM51.7413 11.68L52.3173 2.784L61.0533 2.592L62.4933 20L72.8933 18.656L73.2773 24L52.7333 24L54.3333 11.68H51.7413ZM91.818 17.184L84.938 18.08L85.162 19.776L95.082 18.592L95.882 24L75.338 24L76.81 11.328L75.21 11.264V2.752L96.362 2.144L95.402 12.064L84.202 11.616L84.426 13.568L91.818 13.568V17.184ZM98.2725 4.736L107.297 2.112L106.049 24L98.6245 24L99.6165 9.184L102.305 11.328L98.2725 11.008V4.736ZM105.505 14.464L107.297 2.112L113.377 15.968H112.225L113.537 2.336L120.321 2.336L119.649 24H111.809L105.505 14.464ZM131.969 8.96C132.225 13.504 132.449 17.088 132.705 21.216C138.273 19.296 140.417 8.928 132.609 8.928C132.385 8.928 132.161 8.928 131.969 8.96ZM122.241 3.072C124.001 1.888 128.353 0.831999 131.457 0.831999C149.985 0.831999 149.921 24.96 131.137 24.96C128.321 24.96 125.281 24.352 123.681 23.424C124.129 19.552 124.641 14.976 125.057 11.136C124.321 11.584 123.681 12.032 123.169 12.48C122.849 9.376 122.561 6.176 122.241 3.072ZM151.704 15.968L155.864 15.744L154.392 7.584L151.704 15.968ZM156.536 19.52L150.488 19.744L149.016 24.384L145.304 21.824L150.968 1.6L162.84 2.464L166.936 22.528L157.496 24.864L156.536 19.52ZM178.722 7.68L179.17 15.904C184.034 14.208 184.034 8.192 178.722 7.68ZM182.946 25.952L181.026 18.592C180.482 18.688 179.906 18.784 179.33 18.848L179.65 24.896L170.466 24L171.298 9.024C170.722 9.312 170.178 9.6 169.698 9.952C169.346 7.68 169.218 5.504 168.866 3.232C170.37 2.24 174.242 1.184 178.274 1.184C192.066 1.184 193.89 11.296 186.626 16.288L190.946 22.752L182.946 25.952Z"/>
</mask>
<path d="M15.4618 16.064C15.7818 14.624 15.6538 12.992 14.5978 12.992C12.0378 12.992 11.0778 20.16 15.8458 20.16C18.3098 20.16 20.5498 18.688 22.7898 14.784C23.9738 15.072 26.1178 15.68 27.7498 16.16C25.8938 19.904 22.3098 24.672 14.8538 24.672C0.61375 24.672 5.18975 2.336 17.8618 2.336C22.4698 2.336 24.5818 5.984 25.0298 8.864C21.8618 11.232 18.6298 13.696 15.4618 16.064ZM34.5788 15.968L38.7388 15.744L37.2668 7.584L34.5788 15.968ZM39.4108 19.52L33.3628 19.744L31.8908 24.384L28.1788 21.824L33.8428 1.6L45.7148 2.464L49.8108 22.528L40.3708 24.864L39.4108 19.52ZM51.7413 11.68L52.3173 2.784L61.0533 2.592L62.4933 20L72.8933 18.656L73.2773 24L52.7333 24L54.3333 11.68H51.7413ZM91.818 17.184L84.938 18.08L85.162 19.776L95.082 18.592L95.882 24L75.338 24L76.81 11.328L75.21 11.264V2.752L96.362 2.144L95.402 12.064L84.202 11.616L84.426 13.568L91.818 13.568V17.184ZM98.2725 4.736L107.297 2.112L106.049 24L98.6245 24L99.6165 9.184L102.305 11.328L98.2725 11.008V4.736ZM105.505 14.464L107.297 2.112L113.377 15.968H112.225L113.537 2.336L120.321 2.336L119.649 24H111.809L105.505 14.464ZM131.969 8.96C132.225 13.504 132.449 17.088 132.705 21.216C138.273 19.296 140.417 8.928 132.609 8.928C132.385 8.928 132.161 8.928 131.969 8.96ZM122.241 3.072C124.001 1.888 128.353 0.831999 131.457 0.831999C149.985 0.831999 149.921 24.96 131.137 24.96C128.321 24.96 125.281 24.352 123.681 23.424C124.129 19.552 124.641 14.976 125.057 11.136C124.321 11.584 123.681 12.032 123.169 12.48C122.849 9.376 122.561 6.176 122.241 3.072ZM151.704 15.968L155.864 15.744L154.392 7.584L151.704 15.968ZM156.536 19.52L150.488 19.744L149.016 24.384L145.304 21.824L150.968 1.6L162.84 2.464L166.936 22.528L157.496 24.864L156.536 19.52ZM178.722 7.68L179.17 15.904C184.034 14.208 184.034 8.192 178.722 7.68ZM182.946 25.952L181.026 18.592C180.482 18.688 179.906 18.784 179.33 18.848L179.65 24.896L170.466 24L171.298 9.024C170.722 9.312 170.178 9.6 169.698 9.952C169.346 7.68 169.218 5.504 168.866 3.232C170.37 2.24 174.242 1.184 178.274 1.184C192.066 1.184 193.89 11.296 186.626 16.288L190.946 22.752L182.946 25.952Z" fill="#0A8F46"/>
<path d="M15.4618 16.064L13.5094 15.6301L12.3394 20.8948L16.6592 17.6659L15.4618 16.064ZM22.7898 14.784L23.2625 12.8407L21.8027 12.4856L21.055 13.7887L22.7898 14.784ZM27.7498 16.16L29.5417 17.0483L30.5999 14.9136L28.3141 14.2413L27.7498 16.16ZM25.0298 8.864L26.2272 10.4659L27.1909 9.74554L27.006 8.55659L25.0298 8.864ZM17.4141 16.4979C17.6095 15.6186 17.7065 14.5416 17.5027 13.5753C17.4006 13.0909 17.189 12.4722 16.7202 11.9432C16.1954 11.3509 15.4495 10.992 14.5978 10.992L14.5978 14.992C14.4655 14.992 14.2971 14.9649 14.1208 14.8844C13.9457 14.8045 13.8149 14.6958 13.7263 14.5958C13.5685 14.4178 13.5669 14.2971 13.5888 14.4007C13.6065 14.4848 13.6234 14.6463 13.6124 14.8838C13.6017 15.114 13.5668 15.3716 13.5094 15.6301L17.4141 16.4979ZM14.5978 10.992C12.9212 10.992 11.841 12.1617 11.2963 13.1364C10.7257 14.1577 10.45 15.4128 10.4742 16.6162C10.4983 17.8187 10.8287 19.1844 11.7208 20.2935C12.6677 21.4707 14.092 22.16 15.8458 22.16V18.16C15.2155 18.16 14.9718 17.9533 14.8377 17.7865C14.6488 17.5516 14.4852 17.1253 14.4733 16.5358C14.4615 15.9472 14.6078 15.4103 14.7882 15.0876C14.9945 14.7183 14.9943 14.992 14.5978 14.992L14.5978 10.992ZM15.8458 22.16C19.3465 22.16 22.1228 19.9651 24.5245 15.7793L21.055 13.7887C18.9767 17.4109 17.273 18.16 15.8458 18.16V22.16ZM22.317 16.7273C23.4498 17.0029 25.5527 17.5985 27.1854 18.0787L28.3141 14.2413C26.6828 13.7615 24.4977 13.1411 23.2625 12.8407L22.317 16.7273ZM25.9578 15.2717C24.2514 18.714 21.2029 22.672 14.8538 22.672L14.8538 26.672C23.4166 26.672 27.5361 21.094 29.5417 17.0483L25.9578 15.2717ZM14.8538 22.672C11.8792 22.672 10.1657 21.5451 9.20587 20.084C8.18366 18.5278 7.82181 16.2875 8.23754 13.8388C9.09054 8.8143 12.8591 4.336 17.8618 4.336V0.335999C10.1924 0.335999 5.33696 7.0257 4.29396 13.1692C3.76169 16.3045 4.13384 19.6482 5.86264 22.28C7.65381 25.0069 10.7083 26.672 14.8538 26.672L14.8538 22.672ZM17.8618 4.336C21.0835 4.336 22.686 6.80861 23.0535 9.17141L27.006 8.55659C26.4775 5.15939 23.856 0.335999 17.8618 0.335999V4.336ZM23.8323 7.26206C22.2438 8.44943 20.64 9.66035 19.0406 10.8678C17.44 12.0764 15.8438 13.2814 14.2643 14.4621L16.6592 17.6659C18.2477 16.4786 19.8515 15.2676 21.4509 14.0602C23.0515 12.8516 24.6477 11.6466 26.2272 10.4659L23.8323 7.26206ZM34.5788 15.968L32.6742 15.3574L31.7881 18.1212L34.6863 17.9651L34.5788 15.968ZM38.7388 15.744L38.8463 17.7411L41.1093 17.6193L40.707 15.3889L38.7388 15.744ZM37.2668 7.584L39.235 7.22895L35.3622 6.97339L37.2668 7.584ZM39.4108 19.52L41.3792 19.1664L41.0722 17.4571L39.3367 17.5214L39.4108 19.52ZM33.3628 19.744L33.2887 17.7454L31.882 17.7975L31.4564 19.1392L33.3628 19.744ZM31.8908 24.384L30.7553 26.0304L32.9799 27.5647L33.7971 24.9888L31.8908 24.384ZM28.1787 21.824L26.2529 21.2846L25.8677 22.6597L27.0433 23.4704L28.1787 21.824ZM33.8428 1.6L33.9879 -0.394726L32.3577 -0.513369L31.9169 1.06063L33.8428 1.6ZM45.7148 2.464L47.6743 2.06396L47.3712 0.579262L45.8599 0.469274L45.7148 2.464ZM49.8108 22.528L50.2912 24.4694L52.1542 24.0084L51.7703 22.128L49.8108 22.528ZM40.3708 24.864L38.4023 25.2176L38.7796 27.3181L40.8512 26.8054L40.3708 24.864ZM34.6863 17.9651L38.8463 17.7411L38.6312 13.7469L34.4712 13.9709L34.6863 17.9651ZM40.707 15.3889L39.235 7.22895L35.2985 7.93905L36.7705 16.0991L40.707 15.3889ZM35.3622 6.97339L32.6742 15.3574L36.4833 16.5786L39.1713 8.19461L35.3622 6.97339ZM39.3367 17.5214L33.2887 17.7454L33.4368 21.7426L39.4848 21.5186L39.3367 17.5214ZM31.4564 19.1392L29.9844 23.7792L33.7971 24.9888L35.2691 20.3488L31.4564 19.1392ZM33.0262 22.7376L29.3142 20.1776L27.0433 23.4704L30.7553 26.0304L33.0262 22.7376ZM30.1046 22.3634L35.7686 2.13937L31.9169 1.06063L26.2529 21.2846L30.1046 22.3634ZM33.6976 3.59472L45.5696 4.45872L45.8599 0.469274L33.9879 -0.394726L33.6976 3.59472ZM43.7552 2.86404L47.8512 22.928L51.7703 22.128L47.6743 2.06396L43.7552 2.86404ZM49.3303 20.5866L39.8903 22.9226L40.8512 26.8054L50.2912 24.4694L49.3303 20.5866ZM42.3392 24.5104L41.3792 19.1664L37.4423 19.8736L38.4023 25.2176L42.3392 24.5104ZM51.7412 11.68L49.7454 11.5508L49.6076 13.68H51.7412V11.68ZM52.3172 2.784L52.2733 0.784481L50.4399 0.824775L50.3214 2.65477L52.3172 2.784ZM61.0532 2.592L63.0464 2.42712L62.8913 0.551121L61.0093 0.592482L61.0532 2.592ZM62.4933 20L60.5001 20.1649L60.6727 22.2519L62.7496 21.9835L62.4933 20ZM72.8932 18.656L74.8881 18.5127L74.7364 16.4012L72.6369 16.6725L72.8932 18.656ZM73.2773 24V26H75.4261L75.2721 23.8567L73.2773 24ZM52.7332 24L50.7499 23.7424L50.4567 26H52.7332V24ZM54.3333 11.68L56.3166 11.9376L56.6098 9.68L54.3333 9.68V11.68ZM53.7371 11.8092L54.3131 2.91322L50.3214 2.65477L49.7454 11.5508L53.7371 11.8092ZM52.3612 4.78352L61.0972 4.59152L61.0093 0.592482L52.2733 0.784481L52.3612 4.78352ZM59.0601 2.75688L60.5001 20.1649L64.4864 19.8351L63.0464 2.42712L59.0601 2.75688ZM62.7496 21.9835L73.1496 20.6395L72.6369 16.6725L62.2369 18.0165L62.7496 21.9835ZM70.8984 18.7993L71.2824 24.1433L75.2721 23.8567L74.8881 18.5127L70.8984 18.7993ZM73.2773 22L52.7332 22V26L73.2773 26V22ZM54.7166 24.2576L56.3166 11.9376L52.3499 11.4224L50.7499 23.7424L54.7166 24.2576ZM54.3333 9.68H51.7412V13.68H54.3333V9.68ZM91.818 17.184L92.0763 19.1673L93.818 18.9404V17.184H91.818ZM84.938 18.08L84.6797 16.0967L82.6929 16.3555L82.9552 18.3419L84.938 18.08ZM85.162 19.776L83.1792 20.0379L83.4378 21.996L85.399 21.7619L85.162 19.776ZM95.082 18.592L97.0605 18.2993L96.7759 16.3756L94.845 16.6061L95.082 18.592ZM95.882 24V26H98.1996L97.8605 23.7073L95.882 24ZM75.338 24L73.3514 23.7692L73.0922 26H75.338V24ZM76.81 11.328L78.7966 11.5588L79.0456 9.41582L76.8899 9.3296L76.81 11.328ZM75.21 11.264H73.21V13.1856L75.1301 13.2624L75.21 11.264ZM75.21 2.752L75.1525 0.752825L73.21 0.808661V2.752L75.21 2.752ZM96.362 2.144L98.3527 2.33665L98.5711 0.0796735L96.3045 0.144825L96.362 2.144ZM95.402 12.064L95.3221 14.0624L97.2106 14.1379L97.3927 12.2566L95.402 12.064ZM84.202 11.616L84.2819 9.6176L81.9488 9.52427L82.215 11.844L84.202 11.616ZM84.426 13.568L82.439 13.796L82.6424 15.568H84.426V13.568ZM91.818 13.568H93.818V11.568H91.818V13.568ZM91.5597 15.2007L84.6797 16.0967L85.1963 20.0633L92.0763 19.1673L91.5597 15.2007ZM82.9552 18.3419L83.1792 20.0379L87.1448 19.5141L86.9208 17.8181L82.9552 18.3419ZM85.399 21.7619L95.319 20.5779L94.845 16.6061L84.925 17.7901L85.399 21.7619ZM93.1035 18.8847L93.9035 24.2927L97.8605 23.7073L97.0605 18.2993L93.1035 18.8847ZM95.882 22L75.338 22V26L95.882 26V22ZM77.3246 24.2308L78.7966 11.5588L74.8234 11.0972L73.3514 23.7692L77.3246 24.2308ZM76.8899 9.3296L75.2899 9.2656L75.1301 13.2624L76.7301 13.3264L76.8899 9.3296ZM77.21 11.264V2.752L73.21 2.752V11.264L77.21 11.264ZM75.2675 4.75117L96.4195 4.14317L96.3045 0.144825L75.1525 0.752825L75.2675 4.75117ZM94.3713 1.95135L93.4113 11.8714L97.3927 12.2566L98.3527 2.33665L94.3713 1.95135ZM95.4819 10.0656L84.2819 9.6176L84.1221 13.6144L95.3221 14.0624L95.4819 10.0656ZM82.215 11.844L82.439 13.796L86.413 13.34L86.189 11.388L82.215 11.844ZM84.426 15.568H91.818V11.568L84.426 11.568V15.568ZM89.818 13.568V17.184H93.818V13.568H89.818ZM98.2725 4.736L97.7141 2.81554L96.2725 3.23472V4.736H98.2725ZM107.297 2.112L109.293 2.22585L109.454 -0.598278L106.738 0.191542L107.297 2.112ZM106.049 24V26H107.938L108.045 24.1138L106.049 24ZM98.6245 24L96.629 23.8664L96.4861 26H98.6245V24ZM99.6165 9.184L100.864 7.62045L97.8763 5.23766L97.621 9.05039L99.6165 9.184ZM102.304 11.328L102.146 13.3217L108.66 13.8387L103.552 9.76445L102.304 11.328ZM98.2725 11.008H96.2725V12.8556L98.1143 13.0017L98.2725 11.008ZM105.505 14.464L103.525 14.1769L103.416 14.9311L103.836 15.5669L105.505 14.464ZM107.297 2.112L109.128 1.30837L106.32 -5.08988L105.317 1.82485L107.297 2.112ZM113.377 15.968V17.968H116.438L115.208 15.1644L113.377 15.968ZM112.225 15.968L110.234 15.7764L110.023 17.968H112.225V15.968ZM113.536 2.336V0.335999H111.72L111.546 2.1444L113.536 2.336ZM120.321 2.336L122.32 2.39801L122.383 0.335999L120.321 0.335999V2.336ZM119.648 24V26H121.587L121.648 24.062L119.648 24ZM111.809 24L110.14 25.1029L110.733 26H111.809V24ZM98.8309 6.65646L107.855 4.03246L106.738 0.191542L97.7141 2.81554L98.8309 6.65646ZM105.3 1.99815L104.052 23.8862L108.045 24.1138L109.293 2.22585L105.3 1.99815ZM106.049 22L98.6245 22V26L106.049 26V22ZM100.62 24.1336L101.612 9.31761L97.621 9.05039L96.629 23.8664L100.62 24.1336ZM98.3694 10.7476L101.057 12.8916L103.552 9.76445L100.864 7.62045L98.3694 10.7476ZM102.463 9.33427L98.4307 9.01427L98.1143 13.0017L102.146 13.3217L102.463 9.33427ZM100.272 11.008V4.736H96.2725V11.008L100.272 11.008ZM107.484 14.7511L109.276 2.39915L105.317 1.82485L103.525 14.1769L107.484 14.7511ZM105.465 2.91563L111.545 16.7716L115.208 15.1644L109.128 1.30837L105.465 2.91563ZM113.377 13.968H112.225V17.968H113.377V13.968ZM114.215 16.1596L115.527 2.5276L111.546 2.1444L110.234 15.7764L114.215 16.1596ZM113.536 4.336L120.321 4.336V0.335999L113.536 0.335999V4.336ZM118.321 2.27399L117.649 23.938L121.648 24.062L122.32 2.39801L118.321 2.27399ZM119.648 22H111.809V26H119.648V22ZM113.477 22.8971L107.173 13.3611L103.836 15.5669L110.14 25.1029L113.477 22.8971ZM131.969 8.96L131.64 6.98721L129.872 7.28203L129.972 9.0725L131.969 8.96ZM132.705 21.216L130.709 21.3398L130.872 23.9638L133.357 23.1067L132.705 21.216ZM122.241 3.072L121.125 1.41255L120.129 2.08275L120.252 3.2771L122.241 3.072ZM123.681 23.424L121.695 23.1941L121.544 24.4964L122.678 25.1541L123.681 23.424ZM125.057 11.136L127.046 11.3514L127.483 7.31837L124.017 9.4276L125.057 11.136ZM123.169 12.48L121.18 12.6851L121.576 16.5314L124.486 13.9852L123.169 12.48ZM129.972 9.0725C130.229 13.6231 130.453 17.2128 130.709 21.3398L134.701 21.0922C134.445 16.9632 134.222 13.3849 133.966 8.8475L129.972 9.0725ZM133.357 23.1067C137.051 21.833 139.355 17.9577 139.665 14.5321C139.825 12.7622 139.484 10.8389 138.257 9.32067C136.988 7.75128 135.027 6.928 132.609 6.928V10.928C134.095 10.928 134.795 11.4007 135.146 11.8353C135.539 12.3211 135.777 13.1098 135.681 14.1719C135.479 16.4103 133.927 18.679 132.053 19.3253L133.357 23.1067ZM132.609 6.928C132.43 6.928 132.028 6.92258 131.64 6.98721L132.298 10.9328C132.277 10.9363 132.287 10.933 132.351 10.9306C132.416 10.9282 132.49 10.928 132.609 10.928V6.928ZM123.358 4.73144C123.937 4.3414 125.186 3.84788 126.817 3.45148C128.4 3.06707 130.102 2.832 131.457 2.832V-1.168C129.709 -1.168 127.683 -0.875073 125.873 -0.435479C124.113 -0.00787818 122.305 0.618598 121.125 1.41255L123.358 4.73144ZM131.457 2.832C135.638 2.832 138.581 4.1824 140.465 6.02977C142.363 7.89207 143.309 10.3779 143.289 12.8801C143.269 15.3818 142.284 17.875 140.333 19.7467C138.396 21.6046 135.389 22.96 131.137 22.96V26.96C136.277 26.96 140.323 25.2994 143.102 22.6333C145.867 19.981 147.261 16.4422 147.289 12.9119C147.317 9.38211 145.979 5.83593 143.266 3.17423C140.537 0.497597 136.54 -1.168 131.457 -1.168V2.832ZM131.137 22.96C128.485 22.96 125.85 22.3699 124.685 21.6939L122.678 25.1541C124.712 26.3341 128.157 26.96 131.137 26.96V22.96ZM125.668 23.6539C126.117 19.7769 126.629 15.1961 127.046 11.3514L123.069 10.9206C122.653 14.7559 122.142 19.3271 121.695 23.1941L125.668 23.6539ZM124.017 9.4276C123.224 9.91068 122.48 10.4255 121.852 10.9748L124.486 13.9852C124.882 13.6385 125.419 13.2573 126.097 12.8444L124.017 9.4276ZM125.159 12.2749C124.999 10.7306 124.848 9.16116 124.696 7.584C124.544 6.00916 124.391 4.42656 124.231 2.8669L120.252 3.2771C120.411 4.82144 120.562 6.39084 120.714 7.968C120.866 9.54284 121.019 11.1254 121.18 12.6851L125.159 12.2749ZM151.704 15.968L149.799 15.3574L148.913 18.1212L151.811 17.9651L151.704 15.968ZM155.864 15.744L155.971 17.7411L158.234 17.6193L157.832 15.3889L155.864 15.744ZM154.392 7.584L156.36 7.22895L152.487 6.97339L154.392 7.584ZM156.536 19.52L158.504 19.1664L158.197 17.4571L156.462 17.5214L156.536 19.52ZM150.488 19.744L150.414 17.7454L149.007 17.7975L148.581 19.1392L150.488 19.744ZM149.016 24.384L147.88 26.0304L150.105 27.5647L150.922 24.9888L149.016 24.384ZM145.304 21.824L143.378 21.2846L142.993 22.6597L144.168 23.4704L145.304 21.824ZM150.968 1.6L151.113 -0.394726L149.483 -0.513369L149.042 1.06063L150.968 1.6ZM162.84 2.464L164.799 2.06396L164.496 0.579262L162.985 0.469274L162.84 2.464ZM166.936 22.528L167.416 24.4694L169.279 24.0084L168.895 22.128L166.936 22.528ZM157.496 24.864L155.527 25.2176L155.905 27.3181L157.976 26.8054L157.496 24.864ZM151.811 17.9651L155.971 17.7411L155.756 13.7469L151.596 13.9709L151.811 17.9651ZM157.832 15.3889L156.36 7.22895L152.424 7.93905L153.896 16.0991L157.832 15.3889ZM152.487 6.97339L149.799 15.3574L153.608 16.5786L156.296 8.19461L152.487 6.97339ZM156.462 17.5214L150.414 17.7454L150.562 21.7426L156.61 21.5186L156.462 17.5214ZM148.581 19.1392L147.109 23.7792L150.922 24.9888L152.394 20.3488L148.581 19.1392ZM150.151 22.7376L146.439 20.1776L144.168 23.4704L147.88 26.0304L150.151 22.7376ZM147.23 22.3634L152.894 2.13937L149.042 1.06063L143.378 21.2846L147.23 22.3634ZM150.823 3.59472L162.695 4.45872L162.985 0.469274L151.113 -0.394726L150.823 3.59472ZM160.88 2.86404L164.976 22.928L168.895 22.128L164.799 2.06396L160.88 2.86404ZM166.455 20.5866L157.015 22.9226L157.976 26.8054L167.416 24.4694L166.455 20.5866ZM159.464 24.5104L158.504 19.1664L154.567 19.8736L155.527 25.2176L159.464 24.5104ZM178.722 7.68L178.914 5.68922L176.599 5.46605L176.725 7.78879L178.722 7.68ZM179.17 15.904L177.173 16.0128L177.318 18.668L179.829 17.7925L179.17 15.904ZM182.946 25.952L181.011 26.4568L181.583 28.6512L183.689 27.809L182.946 25.952ZM181.026 18.592L182.961 18.0872L182.496 16.3018L180.679 16.6224L181.026 18.592ZM179.33 18.848L179.109 16.8602L177.233 17.0687L177.333 18.9537L179.33 18.848ZM179.65 24.896L179.456 26.8865L181.77 27.1123L181.647 24.7903L179.65 24.896ZM170.466 24L168.469 23.8891L168.363 25.8043L170.272 25.9905L170.466 24ZM171.298 9.024L173.295 9.13494L173.486 5.69389L170.404 7.23514L171.298 9.024ZM169.698 9.952L167.722 10.2582L168.226 13.5119L170.881 11.5648L169.698 9.952ZM168.866 3.232L167.765 1.56245L166.693 2.26939L166.89 3.5382L168.866 3.232ZM186.626 16.288L185.493 14.6397L183.866 15.7579L184.963 17.3993L186.626 16.288ZM190.946 22.752L191.689 24.609L193.98 23.6924L192.609 21.6407L190.946 22.752ZM176.725 7.78879L177.173 16.0128L181.167 15.7952L180.719 7.57121L176.725 7.78879ZM179.829 17.7925C182.97 16.6971 184.848 14.0551 184.761 11.2851C184.718 9.90591 184.175 8.55855 183.122 7.5193C182.071 6.48107 180.619 5.85356 178.914 5.68922L178.53 9.67077C179.481 9.76244 180.022 10.0789 180.312 10.3657C180.602 10.6515 180.751 11.0101 180.763 11.4109C180.788 12.2009 180.234 13.4149 178.512 14.0155L179.829 17.7925ZM184.881 25.4472L182.961 18.0872L179.091 19.0968L181.011 26.4568L184.881 25.4472ZM180.679 16.6224C180.143 16.717 179.619 16.8036 179.109 16.8602L179.551 20.8358C180.194 20.7644 180.822 20.659 181.374 20.5616L180.679 16.6224ZM177.333 18.9537L177.653 25.0017L181.647 24.7903L181.327 18.7423L177.333 18.9537ZM179.844 22.9055L170.66 22.0095L170.272 25.9905L179.456 26.8865L179.844 22.9055ZM172.463 24.1109L173.295 9.13494L169.301 8.91306L168.469 23.8891L172.463 24.1109ZM170.404 7.23514C169.819 7.52762 169.143 7.87914 168.516 8.33919L170.881 11.5648C171.214 11.3209 171.626 11.0964 172.193 10.8129L170.404 7.23514ZM171.675 9.64579C171.507 8.56276 171.391 7.49614 171.271 6.37742C171.151 5.27214 171.027 4.11476 170.843 2.92579L166.89 3.5382C167.058 4.62124 167.173 5.68786 167.294 6.80658C167.413 7.91186 167.538 9.06924 167.722 10.2582L171.675 9.64579ZM169.967 4.90154C170.428 4.59795 171.503 4.15157 173.077 3.78351C174.601 3.42745 176.424 3.184 178.274 3.184V-0.816002C176.093 -0.816002 173.964 -0.531456 172.167 -0.11151C170.422 0.296432 168.809 0.874048 167.765 1.56245L169.967 4.90154ZM178.274 3.184C184.77 3.184 187.655 5.53971 188.492 7.61246C189.322 9.66918 188.573 12.5232 185.493 14.6397L187.759 17.9363C191.943 15.0608 193.915 10.3628 192.201 6.11554C190.493 1.88429 185.57 -0.816002 178.274 -0.816002V3.184ZM184.963 17.3993L189.283 23.8633L192.609 21.6407L188.289 15.1767L184.963 17.3993ZM190.203 20.895L182.203 24.095L183.689 27.809L191.689 24.609L190.203 20.895Z" fill="#F5DE68" mask="url(#path-1-outside-1_2953_13366)"/>
</svg>
